<svg width="93" height="129" viewBox="0 0 93 129" fill="none" xmlns="http://www.w3.org/2000/svg">
<path d="M88.7301 129H4.26988C1.87458 129 0 127.044 0 124.779V4.22104C0 1.85313 1.97872 0 4.26988 0H88.7301C91.1254 0 93 1.95608 93 4.22104V124.779C93 127.147 91.1254 129 88.7301 129Z" fill="#C8E1FF"/>
<path d="M86.9 126.6H5.80002C3.50002 126.6 1.70001 124.7 1.70001 122.5V5.39992C1.70001 3.09992 3.60002 1.29993 5.80002 1.29993H86.9C89.2 1.29993 91 3.19992 91 5.39992V122.5C91 124.7 89.2 126.6 86.9 126.6Z" fill="#EEF5FF"/>
<path d="M19.2489 9.99994L18.6889 9.99994L18.6889 4.79994L19.8969 4.79994C20.3129 4.79994 20.6276 4.89861 20.8409 5.09594C21.0596 5.29327 21.1689 5.56794 21.1689 5.91994L21.1689 7.27994C21.1689 7.63727 21.0623 7.91461 20.8489 8.11194C20.6356 8.30394 20.3183 8.39994 19.8969 8.39994L19.2489 8.39994L19.2489 9.99994ZM20.6089 7.27994L20.6089 5.91994C20.6089 5.71727 20.5476 5.55994 20.4249 5.44794C20.3023 5.33594 20.1263 5.27994 19.8969 5.27994L19.2489 5.27994L19.2489 7.91994L19.8969 7.91994C20.3716 7.91994 20.6089 7.70661 20.6089 7.27994ZM23.0086 9.99994L22.4486 9.99994L22.4486 4.79994L23.6566 4.79994C24.0726 4.79994 24.3873 4.89861 24.6006 5.09594C24.8193 5.29327 24.9286 5.56794 24.9286 5.91994L24.9286 7.03994C24.9286 7.58394 24.694 7.93061 24.2246 8.07994L25.2086 9.99994L24.5926 9.99994L23.6566 8.15994L23.0086 8.15994L23.0086 9.99994ZM24.3686 7.03994L24.3686 5.91994C24.3686 5.71727 24.3073 5.55994 24.1846 5.44794C24.062 5.33594 23.886 5.27994 23.6566 5.27994L23.0086 5.27994L23.0086 7.67994L23.6566 7.67994C24.1313 7.67994 24.3686 7.46661 24.3686 7.03994ZM28.9314 5.79994L28.9314 8.99994C28.9314 9.35727 28.8168 9.63461 28.5874 9.83194C28.3634 10.0239 28.0248 10.1199 27.5714 10.1199C27.1234 10.1199 26.7848 10.0239 26.5554 9.83194C26.3261 9.63461 26.2114 9.35727 26.2114 8.99994L26.2114 5.79994C26.2114 5.44261 26.3234 5.16794 26.5474 4.97594C26.7768 4.77861 27.1154 4.67994 27.5634 4.67994C28.0168 4.67994 28.3581 4.77861 28.5874 4.97594C28.8168 5.16794 28.9314 5.44261 28.9314 5.79994ZM28.3714 8.99994L28.3714 5.79994C28.3714 5.37327 28.1048 5.15994 27.5714 5.15994C27.0381 5.15994 26.7714 5.37327 26.7714 5.79994L26.7714 8.99994C26.7714 9.42661 27.0381 9.63994 27.5714 9.63994C28.1048 9.63994 28.3714 9.42661 28.3714 8.99994ZM30.4096 4.79994L31.6176 4.79994C32.0336 4.79994 32.3482 4.89861 32.5616 5.09594C32.7802 5.29327 32.8896 5.56794 32.8896 5.91994L32.8896 6.39994C32.8896 6.85327 32.7002 7.14394 32.3216 7.27194C32.7536 7.38927 32.9696 7.68527 32.9696 8.15994L32.9696 8.87994C32.9696 9.23727 32.8629 9.51461 32.6496 9.71194C32.4362 9.90394 32.1189 9.99994 31.6976 9.99994L30.4096 9.99994L30.4096 4.79994ZM32.4096 8.87994L32.4096 8.15994C32.4096 7.98927 32.3456 7.83461 32.2176 7.69594C32.0896 7.55194 31.9162 7.47994 31.6976 7.47994L30.9696 7.47994L30.9696 9.51994L31.6976 9.51994C31.9216 9.51994 32.0949 9.45861 32.2176 9.33594C32.3456 9.20794 32.4096 9.05594 32.4096 8.87994ZM32.3296 6.39994L32.3296 5.91994C32.3296 5.74927 32.2656 5.59994 32.1376 5.47194C32.0149 5.34394 31.8416 5.27994 31.6176 5.27994L30.9696 5.27994L30.9696 7.07994L31.6176 7.07994C31.8416 7.07994 32.0149 7.01061 32.1376 6.87194C32.2656 6.73327 32.3296 6.57594 32.3296 6.39994ZM34.4486 9.99994L34.4486 4.79994L35.0086 4.79994L35.0086 9.51994L36.4726 9.51994L36.4726 9.99994L34.4486 9.99994ZM39.793 9.99994L37.433 9.99994L37.433 4.79994L39.713 4.79994L39.713 5.27994L37.993 5.27994L37.993 7.11994L39.393 7.11994L39.393 7.59994L37.993 7.59994L37.993 9.51994L39.793 9.51994L39.793 9.99994ZM38.169 3.95994L37.865 3.65594L38.297 3.22394L39.281 4.20794L39.073 4.41594L38.169 3.95994ZM41.5555 9.99994L40.9955 9.99994L40.9955 4.79994L41.8355 4.79994L42.7475 8.23194L43.6675 4.79994L44.5075 4.79994L44.5075 9.99994L43.9475 9.99994L43.9475 5.69594L43.0115 9.19994L42.4915 9.19994L41.5555 5.69594L41.5555 9.99994ZM48.4649 9.99994L46.1049 9.99994L46.1049 4.79994L48.3849 4.79994L48.3849 5.27994L46.6649 5.27994L46.6649 7.11994L48.0649 7.11994L48.0649 7.59994L46.6649 7.59994L46.6649 9.51994L48.4649 9.51994L48.4649 9.99994Z" fill="#D71A22"/>
<path d="M51.9911 9.99994L51.4311 9.99994L51.4311 4.79994L52.6391 4.79994C53.0551 4.79994 53.3698 4.8986 53.5831 5.09594C53.8018 5.29327 53.9111 5.56794 53.9111 5.91994L53.9111 7.27994C53.9111 7.63727 53.8045 7.91461 53.5911 8.11194C53.3778 8.30394 53.0605 8.39994 52.6391 8.39994L51.9911 8.39994L51.9911 9.99994ZM53.3511 7.27994L53.3511 5.91994C53.3511 5.71727 53.2898 5.55994 53.1671 5.44794C53.0445 5.33594 52.8685 5.27994 52.6391 5.27994L51.9911 5.27994L51.9911 7.91994L52.6391 7.91994C53.1138 7.91994 53.3511 7.70661 53.3511 7.27994ZM55.7508 9.99994L55.1908 9.99994L55.1908 4.79994L55.7508 4.79994L55.7508 7.11994L57.3268 7.11994L57.3268 4.79994L57.8868 4.79994L57.8868 9.99994L57.3268 9.99994L57.3268 7.59994L55.7508 7.59994L55.7508 9.99994ZM62.0877 5.79994L62.0877 8.99994C62.0877 9.35727 61.973 9.6346 61.7437 9.83194C61.5197 10.0239 61.181 10.1199 60.7277 10.1199C60.2797 10.1199 59.941 10.0239 59.7117 9.83194C59.4823 9.63461 59.3677 9.35727 59.3677 8.99994L59.3677 5.79994C59.3677 5.4426 59.4797 5.16794 59.7037 4.97594C59.933 4.7786 60.2717 4.67994 60.7197 4.67994C61.173 4.67994 61.5143 4.7786 61.7437 4.97594C61.973 5.16794 62.0877 5.4426 62.0877 5.79994ZM61.5277 8.99994L61.5277 5.79994C61.5277 5.37327 61.261 5.15994 60.7277 5.15994C60.1943 5.15994 59.9277 5.37327 59.9277 5.79994L59.9277 8.99994C59.9277 9.42661 60.1943 9.63994 60.7277 9.63994C61.261 9.63994 61.5277 9.42661 61.5277 8.99994ZM65.6458 4.79994L65.6458 5.27994L64.6058 5.27994L64.6058 9.99994L64.0458 9.99994L64.0458 5.27994L63.0058 5.27994L63.0058 4.79994L65.6458 4.79994ZM69.283 5.79994L69.283 8.99994C69.283 9.35727 69.1683 9.6346 68.939 9.83194C68.715 10.0239 68.3763 10.1199 67.923 10.1199C67.475 10.1199 67.1363 10.0239 66.907 9.83194C66.6777 9.6346 66.563 9.35727 66.563 8.99994L66.563 5.79994C66.563 5.4426 66.675 5.16794 66.899 4.97594C67.1283 4.7786 67.467 4.67994 67.915 4.67994C68.3683 4.67994 68.7097 4.7786 68.939 4.97594C69.1683 5.16794 69.283 5.4426 69.283 5.79994ZM68.723 8.99994L68.723 5.79994C68.723 5.37327 68.4563 5.15994 67.923 5.15994C67.3897 5.15994 67.123 5.37327 67.123 5.79994L67.123 8.99994C67.123 9.4266 67.3897 9.63994 67.923 9.63994C68.4563 9.63994 68.723 9.4266 68.723 8.99994ZM73.3051 8.99994C73.3051 9.7466 72.8545 10.1199 71.9531 10.1199C71.0518 10.1199 70.6011 9.7466 70.6011 8.99994L70.6011 8.31994L71.1611 8.31994L71.1611 9.03194C71.1611 9.22394 71.2278 9.37327 71.3611 9.47994C71.4945 9.5866 71.6918 9.63994 71.9531 9.63994C72.2145 9.63994 72.4118 9.5866 72.5451 9.47994C72.6785 9.37327 72.7451 9.22927 72.7451 9.04794C72.7451 8.86127 72.7238 8.7146 72.6811 8.60794C72.6438 8.49594 72.5638 8.3786 72.4411 8.25594L71.0331 6.87994C70.8678 6.7146 70.7531 6.5546 70.6891 6.39994C70.6305 6.23994 70.6011 6.03994 70.6011 5.79994C70.6011 5.4426 70.7105 5.16794 70.9291 4.97594C71.1531 4.7786 71.4891 4.67994 71.9371 4.67994C72.7958 4.67994 73.2251 5.05327 73.2251 5.79994L73.2251 6.47994L72.6651 6.47994L72.6651 5.76794C72.6651 5.57594 72.6011 5.4266 72.4731 5.31994C72.3505 5.21327 72.1638 5.15994 71.9131 5.15994C71.6625 5.15994 71.4731 5.21327 71.3451 5.31994C71.2225 5.4266 71.1611 5.57327 71.1611 5.75994C71.1611 5.9466 71.1798 6.09327 71.2171 6.19994C71.2545 6.3066 71.3371 6.4186 71.4651 6.53594L72.8971 7.91194C73.0518 8.0826 73.1585 8.24794 73.2171 8.40794C73.2758 8.5626 73.3051 8.75994 73.3051 8.99994ZM75.3055 9.99994L74.7455 9.99994L74.7455 4.79994L75.3055 4.79994L75.3055 7.11994L76.8815 7.11994L76.8815 4.79994L77.4415 4.79994L77.4415 9.99994L76.8815 9.99994L76.8815 7.59994L75.3055 7.59994L75.3055 9.99994ZM81.6424 5.79994L81.6424 8.99994C81.6424 9.35727 81.5277 9.6346 81.2984 9.83194C81.0744 10.0239 80.7357 10.1199 80.2824 10.1199C79.8344 10.1199 79.4957 10.0239 79.2664 9.83194C79.037 9.6346 78.9224 9.35727 78.9224 8.99994L78.9224 5.79994C78.9224 5.4426 79.0344 5.16794 79.2584 4.97594C79.4877 4.7786 79.8264 4.67994 80.2744 4.67994C80.7277 4.67994 81.069 4.7786 81.2984 4.97594C81.5277 5.16794 81.6424 5.4426 81.6424 5.79994ZM81.0824 8.99994L81.0824 5.79994C81.0824 5.37327 80.8157 5.15994 80.2824 5.15994C79.749 5.15994 79.4824 5.37327 79.4824 5.79994L79.4824 8.99994C79.4824 9.4266 79.749 9.63994 80.2824 9.63994C80.8157 9.63994 81.0824 9.4266 81.0824 8.99994ZM83.6005 9.99994L83.0405 9.99994L83.0405 4.79994L84.2485 4.79994C84.6645 4.79994 84.9792 4.8986 85.1925 5.09594C85.4112 5.29327 85.5205 5.56794 85.5205 5.91994L85.5205 7.27994C85.5205 7.63727 85.4138 7.9146 85.2005 8.11194C84.9872 8.30394 84.6698 8.39994 84.2485 8.39994L83.6005 8.39994L83.6005 9.99994ZM84.9605 7.27994L84.9605 5.91994C84.9605 5.71727 84.8992 5.55994 84.7765 5.44794C84.6538 5.33594 84.4778 5.27994 84.2485 5.27994L83.6005 5.27994L83.6005 7.91994L84.2485 7.91994C84.7232 7.91994 84.9605 7.7066 84.9605 7.27994Z" fill="black"/>
<path d="M72.39 100.361L46.3696 90.0203L56.3413 64.9292L82.3617 75.2702L72.39 100.361Z" fill="url(#paint0_radial)"/>
<path d="M72.2847 100.062L47.5808 90.2441L57.3757 65.5979L82.0797 75.4157L72.2847 100.062ZM83.6603 74.7103L56.7106 63.9999L46.0002 90.9496L72.95 101.66L83.6603 74.7103ZM59.1753 83.3832C60.0624 83.7357 60.5486 83.3955 60.6996 83.0155C60.8644 82.6008 60.7767 82.2326 59.8381 81.1261C58.423 79.5502 58.2069 78.4908 58.6967 77.2585C59.429 75.4157 61.1926 74.9697 63.0454 75.7061C64.0224 76.0944 64.7821 76.6364 65.1505 77.1162C65.2154 77.1819 65.2037 77.2439 65.1671 77.3361L64.4942 79.0292C64.4484 79.1444 64.3786 79.1566 64.3229 79.0677C63.8032 78.3144 63.0771 77.7858 62.336 77.4912C61.4489 77.1387 60.9272 77.3714 60.7213 77.8897C60.5565 78.3043 60.6683 78.7755 61.5644 79.8252C62.8478 81.242 63.1944 82.3 62.668 83.6244C62.0775 85.1101 60.4537 85.8916 58.4886 85.1107C57.523 84.7269 56.9087 84.3094 56.6068 83.9893C56.5399 83.896 56.5539 83.795 56.586 83.7144L57.213 82.1365C57.2496 82.0444 57.3287 82.0092 57.4273 82.0883C57.7933 82.6072 58.4454 83.0931 59.1753 83.3832ZM69.377 85.8505C69.1279 85.7249 68.9258 85.6446 68.4766 85.466C67.1627 84.9439 65.7399 84.9252 65.0121 86.7564C64.4309 88.219 65.025 89.3087 66.5184 89.9022C66.9676 90.0807 67.4034 90.2273 67.6101 90.2961L69.3769 85.8505L69.377 85.8505ZM68.9453 92.7604C68.9132 92.841 68.7331 92.8361 68.6434 92.8005C67.911 92.5493 66.835 92.1485 65.7234 91.7067C62.613 90.4706 62.0959 88.238 62.9839 86.0037C64.1465 83.0784 66.7116 82.6441 69.2493 83.6527C69.6759 83.8222 69.8128 83.9032 70.116 84.0237L71.8736 79.6012C71.9102 79.5091 71.9622 79.4764 72.0633 79.5166L73.7813 80.1994C73.8711 80.235 73.9023 80.2874 73.8611 80.3911L68.9453 92.7604Z" fill="#D71A22"/>
<path d="M5.96024 8.99988L5.54024 8.99988L5.54024 5.09988L6.44624 5.09988C6.75824 5.09988 6.99424 5.17388 7.15424 5.32188C7.31824 5.46988 7.40024 5.67588 7.40024 5.93988L7.40024 6.95988C7.40024 7.22788 7.32024 7.43588 7.16024 7.58388C7.00024 7.72788 6.76224 7.79988 6.44624 7.79988L5.96024 7.79988L5.96024 8.99988ZM6.98024 6.95988L6.98024 5.93988C6.98024 5.78788 6.93424 5.66988 6.84224 5.58588C6.75024 5.50188 6.61824 5.45988 6.44624 5.45988L5.96024 5.45988L5.96024 7.43988L6.44624 7.43988C6.80224 7.43988 6.98024 7.27988 6.98024 6.95988ZM8.72001 8.99988L8.30001 8.99988L8.30001 5.09988L9.20601 5.09988C9.51801 5.09988 9.75401 5.17388 9.91401 5.32188C10.078 5.46988 10.16 5.67588 10.16 5.93988L10.16 6.95988C10.16 7.22788 10.08 7.43588 9.92001 7.58388C9.76001 7.72788 9.52201 7.79988 9.20601 7.79988L8.72001 7.79988L8.72001 8.99988ZM9.74001 6.95988L9.74001 5.93988C9.74001 5.78788 9.69401 5.66988 9.60201 5.58588C9.51001 5.50188 9.37801 5.45988 9.20601 5.45988L8.72001 5.45988L8.72001 7.43988L9.20601 7.43988C9.56201 7.43988 9.74001 7.27988 9.74001 6.95988Z" fill="#D71A22"/>
<path d="M86.0402 120L86.0402 121.2L85.5542 121.2C84.9062 121.2 84.6002 121.518 84.6002 122.04L84.6002 123.06C84.6002 123.576 84.9182 123.9 85.5542 123.9L86.4602 123.9L86.4602 120L86.0402 120ZM85.0202 122.04C85.0202 121.74 85.1942 121.56 85.5542 121.56L86.0402 121.56L86.0402 123.54L85.5542 123.54C85.2002 123.54 85.0202 123.354 85.0202 123.06L85.0202 122.04ZM83.2805 120L83.2805 121.2L82.7945 121.2C82.1465 121.2 81.8405 121.518 81.8405 122.04L81.8405 123.06C81.8405 123.576 82.1585 123.9 82.7945 123.9L83.7005 123.9L83.7005 120L83.2805 120ZM82.2605 122.04C82.2605 121.74 82.4345 121.56 82.7945 121.56L83.2805 121.56L83.2805 123.54L82.7945 123.54C82.4405 123.54 82.2605 123.354 82.2605 123.06L82.2605 122.04Z" fill="#D71A22"/>
<path d="M72.7513 117L73.3113 117L73.3113 122.2L72.1033 122.2C71.6873 122.2 71.3726 122.101 71.1592 121.904C70.9406 121.707 70.8313 121.432 70.8313 121.08L70.8313 119.72C70.8313 119.363 70.9379 119.085 71.1513 118.888C71.3646 118.696 71.6819 118.6 72.1033 118.6L72.7513 118.6L72.7513 117ZM71.3913 119.72L71.3913 121.08C71.3913 121.283 71.4526 121.44 71.5753 121.552C71.6979 121.664 71.8739 121.72 72.1033 121.72L72.7513 121.72L72.7513 119.08L72.1033 119.08C71.6286 119.08 71.3913 119.293 71.3913 119.72ZM68.9916 117L69.5516 117L69.5516 122.2L68.3436 122.2C67.9276 122.2 67.6129 122.101 67.3996 121.904C67.1809 121.707 67.0716 121.432 67.0716 121.08L67.0716 119.96C67.0716 119.416 67.3062 119.069 67.7756 118.92L66.7916 117L67.4076 117L68.3436 118.84L68.9916 118.84L68.9916 117ZM67.6316 119.96L67.6316 121.08C67.6316 121.283 67.6929 121.44 67.8156 121.552C67.9382 121.664 68.1142 121.72 68.3436 121.72L68.9916 121.72L68.9916 119.32L68.3436 119.32C67.8689 119.32 67.6316 119.533 67.6316 119.96ZM63.0688 121.2L63.0688 118C63.0688 117.643 63.1834 117.365 63.4128 117.168C63.6368 116.976 63.9754 116.88 64.4288 116.88C64.8768 116.88 65.2154 116.976 65.4448 117.168C65.6741 117.365 65.7888 117.643 65.7888 118L65.7888 121.2C65.7888 121.557 65.6768 121.832 65.4528 122.024C65.2234 122.221 64.8848 122.32 64.4368 122.32C63.9834 122.32 63.6421 122.221 63.4127 122.024C63.1834 121.832 63.0688 121.557 63.0688 121.2ZM63.6288 118L63.6288 121.2C63.6288 121.627 63.8954 121.84 64.4287 121.84C64.9621 121.84 65.2288 121.627 65.2288 121.2L65.2288 118C65.2288 117.573 64.9621 117.36 64.4288 117.36C63.8954 117.36 63.6288 117.573 63.6288 118ZM61.5906 122.2L60.3826 122.2C59.9666 122.2 59.652 122.101 59.4386 121.904C59.22 121.707 59.1106 121.432 59.1106 121.08L59.1106 120.6C59.1106 120.147 59.3 119.856 59.6786 119.728C59.2466 119.611 59.0306 119.315 59.0306 118.84L59.0306 118.12C59.0306 117.763 59.1373 117.485 59.3506 117.288C59.564 117.096 59.8813 117 60.3026 117L61.5906 117L61.5906 122.2ZM59.5906 118.12L59.5906 118.84C59.5906 119.011 59.6546 119.165 59.7826 119.304C59.9106 119.448 60.084 119.52 60.3026 119.52L61.0306 119.52L61.0306 117.48L60.3026 117.48C60.0786 117.48 59.9053 117.541 59.7826 117.664C59.6546 117.792 59.5906 117.944 59.5906 118.12ZM59.6706 120.6L59.6706 121.08C59.6706 121.251 59.7346 121.4 59.8626 121.528C59.9853 121.656 60.1586 121.72 60.3826 121.72L61.0306 121.72L61.0306 119.92L60.3826 119.92C60.1586 119.92 59.9853 119.989 59.8626 120.128C59.7346 120.267 59.6706 120.424 59.6706 120.6ZM57.5516 117L57.5516 122.2L56.9916 122.2L56.9916 117.48L55.5276 117.48L55.5276 117L57.5516 117ZM52.2072 117L54.5672 117L54.5672 122.2L52.2872 122.2L52.2872 121.72L54.0072 121.72L54.0072 119.88L52.6072 119.88L52.6072 119.4L54.0072 119.4L54.0072 117.48L52.2072 117.48L52.2072 117ZM53.8312 123.04L54.1352 123.344L53.7032 123.776L52.7192 122.792L52.9272 122.584L53.8312 123.04ZM50.4447 117L51.0047 117L51.0047 122.2L50.1647 122.2L49.2527 118.768L48.3327 122.2L47.4927 122.2L47.4927 117L48.0527 117L48.0527 121.304L48.9887 117.8L49.5087 117.8L50.4447 121.304L50.4447 117ZM43.5353 117L45.8953 117L45.8953 122.2L43.6153 122.2L43.6153 121.72L45.3353 121.72L45.3353 119.88L43.9353 119.88L43.9353 119.4L45.3353 119.4L45.3353 117.48L43.5353 117.48L43.5353 117Z" fill="#D71A22"/>
<path d="M40.0091 117L40.5691 117L40.5691 122.2L39.3611 122.2C38.9451 122.2 38.6304 122.101 38.4171 121.904C38.1984 121.707 38.0891 121.432 38.0891 121.08L38.0891 119.72C38.0891 119.363 38.1957 119.085 38.4091 118.888C38.6224 118.696 38.9397 118.6 39.3611 118.6L40.0091 118.6L40.0091 117ZM38.6491 119.72L38.6491 121.08C38.6491 121.283 38.7104 121.44 38.8331 121.552C38.9557 121.664 39.1317 121.72 39.3611 121.72L40.0091 121.72L40.0091 119.08L39.3611 119.08C38.8864 119.08 38.6491 119.293 38.6491 119.72ZM36.2494 117L36.8094 117L36.8094 122.2L36.2494 122.2L36.2494 119.88L34.6734 119.88L34.6734 122.2L34.1134 122.2L34.1134 117L34.6734 117L34.6734 119.4L36.2494 119.4L36.2494 117ZM29.9125 121.2L29.9125 118C29.9125 117.643 30.0272 117.365 30.2565 117.168C30.4805 116.976 30.8192 116.88 31.2725 116.88C31.7205 116.88 32.0592 116.976 32.2885 117.168C32.5178 117.365 32.6325 117.643 32.6325 118L32.6325 121.2C32.6325 121.557 32.5205 121.832 32.2965 122.024C32.0672 122.221 31.7285 122.32 31.2805 122.32C30.8272 122.32 30.4858 122.221 30.2565 122.024C30.0272 121.832 29.9125 121.557 29.9125 121.2ZM30.4725 118L30.4725 121.2C30.4725 121.627 30.7392 121.84 31.2725 121.84C31.8058 121.84 32.0725 121.627 32.0725 121.2L32.0725 118C32.0725 117.573 31.8058 117.36 31.2725 117.36C30.7392 117.36 30.4725 117.573 30.4725 118ZM26.3544 122.2L26.3544 121.72L27.3944 121.72L27.3944 117L27.9544 117L27.9544 121.72L28.9944 121.72L28.9944 122.2L26.3544 122.2ZM22.7172 121.2L22.7172 118C22.7172 117.643 22.8319 117.365 23.0612 117.168C23.2852 116.976 23.6239 116.88 24.0772 116.88C24.5252 116.88 24.8639 116.976 25.0932 117.168C25.3225 117.365 25.4372 117.643 25.4372 118L25.4372 121.2C25.4372 121.557 25.3252 121.832 25.1012 122.024C24.8719 122.221 24.5332 122.32 24.0852 122.32C23.6319 122.32 23.2905 122.221 23.0612 122.024C22.8319 121.832 22.7172 121.557 22.7172 121.2ZM23.2772 118L23.2772 121.2C23.2772 121.627 23.5439 121.84 24.0772 121.84C24.6105 121.84 24.8772 121.627 24.8772 121.2L24.8772 118C24.8772 117.573 24.6105 117.36 24.0772 117.36C23.5439 117.36 23.2772 117.573 23.2772 118ZM18.6951 118C18.6951 117.253 19.1457 116.88 20.0471 116.88C20.9484 116.88 21.3991 117.253 21.3991 118L21.3991 118.68L20.8391 118.68L20.8391 117.968C20.8391 117.776 20.7724 117.627 20.6391 117.52C20.5057 117.413 20.3084 117.36 20.0471 117.36C19.7857 117.36 19.5884 117.413 19.4551 117.52C19.3217 117.627 19.2551 117.771 19.2551 117.952C19.2551 118.139 19.2764 118.285 19.3191 118.392C19.3564 118.504 19.4364 118.621 19.5591 118.744L20.9671 120.12C21.1324 120.285 21.2471 120.445 21.3111 120.6C21.3697 120.76 21.3991 120.96 21.3991 121.2C21.3991 121.557 21.2897 121.832 21.0711 122.024C20.8471 122.221 20.5111 122.32 20.0631 122.32C19.2044 122.32 18.7751 121.947 18.7751 121.2L18.7751 120.52L19.3351 120.52L19.3351 121.232C19.3351 121.424 19.3991 121.573 19.5271 121.68C19.6497 121.787 19.8364 121.84 20.0871 121.84C20.3377 121.84 20.5271 121.787 20.6551 121.68C20.7777 121.573 20.8391 121.427 20.8391 121.24C20.8391 121.053 20.8204 120.907 20.7831 120.8C20.7457 120.693 20.6631 120.581 20.5351 120.464L19.1031 119.088C18.9484 118.917 18.8417 118.752 18.7831 118.592C18.7244 118.437 18.6951 118.24 18.6951 118ZM16.6947 117L17.2547 117L17.2547 122.2L16.6947 122.2L16.6947 119.88L15.1187 119.88L15.1187 122.2L14.5587 122.2L14.5587 117L15.1187 117L15.1187 119.4L16.6947 119.4L16.6947 117ZM10.3578 121.2L10.3578 118C10.3578 117.643 10.4725 117.365 10.7018 117.168C10.9258 116.976 11.2645 116.88 11.7178 116.88C12.1658 116.88 12.5045 116.976 12.7338 117.168C12.9631 117.365 13.0778 117.643 13.0778 118L13.0778 121.2C13.0778 121.557 12.9658 121.832 12.7418 122.024C12.5125 122.221 12.1738 122.32 11.7258 122.32C11.2725 122.32 10.9311 122.221 10.7018 122.024C10.4725 121.832 10.3578 121.557 10.3578 121.2ZM10.9178 118L10.9178 121.2C10.9178 121.627 11.1845 121.84 11.7178 121.84C12.2511 121.84 12.5178 121.627 12.5178 121.2L12.5178 118C12.5178 117.573 12.2511 117.36 11.7178 117.36C11.1845 117.36 10.9178 117.573 10.9178 118ZM8.39969 117L8.95969 117L8.95969 122.2L7.75169 122.2C7.33569 122.2 7.02102 122.101 6.80769 121.904C6.58902 121.707 6.47969 121.432 6.47969 121.08L6.47969 119.72C6.47969 119.363 6.58635 119.085 6.79969 118.888C7.01302 118.696 7.33035 118.6 7.75169 118.6L8.39969 118.6L8.39969 117ZM7.03969 119.72L7.03969 121.08C7.03969 121.283 7.10102 121.44 7.22369 121.552C7.34635 121.664 7.52235 121.72 7.75169 121.72L8.39969 121.72L8.39969 119.08L7.75169 119.08C7.27702 119.08 7.03969 119.293 7.03969 119.72Z" fill="black"/>
<path d="M16.7415 28.9999L43.2335 38.065L34.4922 63.6108L8.00021 54.5458L16.7415 28.9999Z" fill="url(#paint1_radial)"/>
<path d="M17.1311 29.5638L42.2827 38.1702L33.6964 63.2631L8.54477 54.6567L17.1311 29.5638ZM7.00023 55.4381L34.4384 64.8269L43.8272 37.3887L16.389 27.9999L7.00023 55.4381ZM31.0351 45.5862C30.132 45.2771 29.6629 45.6406 29.5305 46.0275C29.386 46.4496 29.4915 46.8132 30.4827 47.8727C31.9727 49.3781 32.24 50.4257 31.8106 51.6804C31.1687 53.5565 29.4289 54.0877 27.5425 53.4422C26.5478 53.1018 25.7626 52.5973 25.3713 52.136C25.3033 52.0735 25.312 52.011 25.3441 51.9171L25.9339 50.1934C25.9741 50.0761 26.0433 50.0605 26.1032 50.1465C26.6589 50.8737 27.4098 51.3665 28.1644 51.6247C29.0675 51.9337 29.5772 51.6759 29.7578 51.1482C29.9023 50.7261 29.7677 50.2609 28.8216 49.256C27.471 47.9032 27.0734 46.8633 27.5348 45.5149C28.0524 44.0022 29.6364 43.1428 31.6371 43.8274C32.6203 44.1638 33.2541 44.5509 33.5712 44.856C33.6425 44.9459 33.6334 45.0475 33.6053 45.1296L33.0556 46.736C33.0235 46.8298 32.9463 46.8689 32.8439 46.7946C32.4532 46.2941 31.7783 45.8405 31.0351 45.5862ZM20.7256 43.6172C20.9806 43.7306 21.1863 43.801 21.6437 43.9575C22.9813 44.4152 24.4034 44.3648 25.0413 42.5005C25.5509 41.0113 24.9045 39.9518 23.384 39.4315C22.9267 39.275 22.4843 39.1498 22.2745 39.0911L20.7257 43.6172L20.7256 43.6172ZM20.8212 36.6945C20.8493 36.6125 21.0295 36.6086 21.1208 36.6399C21.8646 36.8551 22.9587 37.2032 24.0905 37.5905C27.2573 38.6741 27.8821 40.8789 27.1037 43.1537C26.0846 46.132 23.5436 46.6904 20.9599 45.8063C20.5255 45.6576 20.3849 45.5834 20.0762 45.4777L18.5355 49.9804C18.5034 50.0742 18.4531 50.1094 18.3502 50.0742L16.601 49.4756C16.5096 49.4444 16.4759 49.3936 16.512 49.288L20.8212 36.6945Z" fill="#D71A22"/>
<defs>
<radialGradient id="paint0_radial" cx="0" cy="0" r="1" gradientUnits="userSpaceOnUse" gradientTransform="translate(66.0514 91.3338) rotate(-158.326) scale(21.28 20.4241)">
<stop stop-color="#34364E" stop-opacity="0.98"/>
<stop offset="1" stop-color="#0C0824"/>
</radialGradient>
<radialGradient id="paint1_radial" cx="0" cy="0" r="1" gradientUnits="userSpaceOnUse" gradientTransform="translate(23.5111 37.7089) rotate(18.89) scale(21.28 20.4241)">
<stop stop-color="#34364E" stop-opacity="0.98"/>
<stop offset="1" stop-color="#0C0824"/>
</radialGradient>
</defs>
</svg>
