<svg width="93" height="129" viewBox="0 0 93 129" fill="none" xmlns="http://www.w3.org/2000/svg">
<path d="M88.7301 129H4.26988C1.87458 129 0 127.044 0 124.779V4.22104C0 1.85313 1.97872 0 4.26988 0H88.7301C91.1254 0 93 1.95608 93 4.22104V124.779C93 127.147 91.1254 129 88.7301 129Z" fill="#C8E1FF"/>
<path d="M86.9 127H5.80002C3.50002 127 1.70001 125.1 1.70001 122.9V5.79999C1.70001 3.49999 3.60002 1.70001 5.80002 1.70001H86.9C89.2 1.70001 91 3.59999 91 5.79999V122.9C91 125.2 89.2 127 86.9 127Z" fill="#EEF5FF"/>
<path d="M59 82.9802L74.9355 121H85L77.0323 81L59 82.9802Z" fill="#228845"/>
<path d="M36 48.9208L20.0645 9H10L17.9677 51L36 48.9208Z" fill="#248747"/>
<path d="M16.8262 11.8075C16.122 11.3333 15.7546 11.0999 15.3118 10.3834C14.99 11.1618 14.6653 11.4521 14.0472 12.0337C13.0809 12.9428 13.7413 13.9733 14.5527 13.9591C15.0585 13.9506 15.335 13.5661 15.4573 13.3293C15.4374 13.6371 15.3914 14.1884 15.2971 14.4408L15.9801 14.3856C15.8467 14.1514 15.7117 13.6152 15.643 13.3145C15.8022 13.529 16.1363 13.8634 16.6367 13.7905C17.441 13.6726 17.9268 12.5493 16.8262 11.8075Z" fill="white"/>
<path d="M77.9618 118.097C78.666 118.571 79.0334 118.804 79.4762 119.521C79.7979 118.742 80.1226 118.452 80.7408 117.87C81.7071 116.961 81.0467 115.931 80.2352 115.945C79.7294 115.953 79.453 116.338 79.3307 116.575C79.3506 116.267 79.3966 115.716 79.4909 115.463L78.8079 115.518C78.9413 115.753 79.0762 116.289 79.1449 116.59C78.9858 116.375 78.6517 116.041 78.1513 116.114C77.3469 116.231 76.8612 117.355 77.9618 118.097Z" fill="white"/>
<path d="M13.8827 20.8L12.7067 26H13.2667L13.5387 24.8H15.0667L15.3387 26H15.8987L14.7227 20.8H13.8827ZM14.2987 21.424L14.9547 24.32H13.6427L14.2987 21.424ZM17.7188 22.536C17.4468 22.288 17.4148 22.104 17.4148 21.768C17.4148 21.4 17.6548 21.16 18.1668 21.16C18.6788 21.16 18.9188 21.4 18.9188 21.768V22.48H19.4788V21.8C19.4788 21.104 19.0868 20.68 18.1908 20.68C17.2788 20.68 16.8548 21.104 16.8548 21.8C16.8548 22.264 16.9508 22.544 17.2868 22.88L18.6948 24.256C18.9588 24.512 18.9988 24.704 18.9988 25.032C18.9988 25.4 18.7428 25.64 18.2068 25.64C17.6708 25.64 17.4148 25.4 17.4148 25.032V24.32H16.8548V25C16.8548 25.696 17.2628 26.12 18.2068 26.12C19.1508 26.12 19.5588 25.696 19.5588 25C19.5588 24.528 19.4708 24.256 19.1508 23.912L17.7188 22.536ZM24.131 26C24.995 26 25.403 25.576 25.403 24.88V21.92C25.403 21.232 24.979 20.8 24.131 20.8H22.843V26H24.131ZM24.843 24.88C24.843 25.2 24.611 25.52 24.131 25.52H23.403V21.28H24.131C24.603 21.28 24.843 21.608 24.843 21.92V24.88ZM29.242 26V25.52H27.442V23.6H28.842V23.12H27.442V21.28H29.162V20.8H26.882V26H29.242ZM32.2883 26H34.3123V25.52H32.8483V20.8H32.2883V26ZM35.8727 21.432V20.672H35.1527V21.48L35.3447 21.552L35.2247 22.392L35.4807 22.44L35.8727 21.432ZM38.4708 25.52H38.0708V21.28H38.4708V20.8H37.1108V21.28H37.5108V25.52H37.1108V26H38.4708V25.52ZM40.3873 26V22L42.1233 26H42.6833V20.8H42.1233V24.8L40.3873 20.8H39.8273V26H40.3873ZM44.8405 26V23.6H46.1605V23.12H44.8405V21.28H46.4805V20.8H44.2805V26H44.8405ZM50.2008 21.8C50.2008 21.104 49.7528 20.68 48.8328 20.68C47.9128 20.68 47.4808 21.104 47.4808 21.8V25C47.4808 25.696 47.9288 26.12 48.8488 26.12C49.7688 26.12 50.2008 25.696 50.2008 25V21.8ZM49.6408 25C49.6408 25.408 49.3848 25.64 48.8488 25.64C48.3048 25.64 48.0408 25.4 48.0408 25V21.8C48.0408 21.4 48.2968 21.16 48.8328 21.16C49.3768 21.16 49.6408 21.4 49.6408 21.8V25ZM52.2389 26V24.16H52.8869L53.8229 26H54.4389L53.4549 24.08C53.9269 23.928 54.1589 23.56 54.1589 23.04V21.92C54.1589 21.232 53.7349 20.8 52.8869 20.8H51.6789V26H52.2389ZM53.5989 23.04C53.5989 23.44 53.3669 23.68 52.8869 23.68H52.2389V21.28H52.8869C53.3589 21.28 53.5989 21.528 53.5989 21.92V23.04ZM56.1217 26V21.696L57.0577 25.2H57.5777L58.5137 21.696V26H59.0737V20.8H58.2337L57.3137 24.232L56.4017 20.8H55.5617V26H56.1217ZM61.3671 20.8L60.1911 26H60.7511L61.0231 24.8H62.5511L62.8231 26H63.3831L62.2071 20.8H61.3671ZM61.7831 21.424L62.4391 24.32H61.1271L61.7831 21.424ZM66.1027 20.8H63.4627V21.28H64.5027V26H65.0627V21.28H66.1027V20.8ZM68.2598 25.52H67.8598V21.28H68.2598V20.8H66.8998V21.28H67.2998V25.52H66.8998V26H68.2598V25.52ZM72.2164 21.8C72.2164 21.104 71.7684 20.68 70.8484 20.68C69.9284 20.68 69.4964 21.104 69.4964 21.8V25C69.4964 25.648 69.8724 26.048 70.6564 26.112L70.8964 27.136H71.3764L71.1364 26.104C71.8644 26.024 72.2164 25.624 72.2164 25V21.8ZM71.6564 25C71.6564 25.408 71.4004 25.64 70.8644 25.64C70.3204 25.64 70.0564 25.4 70.0564 25V21.8C70.0564 21.4 70.3124 21.16 70.8484 21.16C71.3924 21.16 71.6564 21.4 71.6564 21.8V25ZM75.7745 25C75.7745 25.4 75.5185 25.64 74.9825 25.64C74.4385 25.64 74.1745 25.4 74.1745 25V20.8H73.6145V25C73.6145 25.696 74.0625 26.12 74.9825 26.12C75.9025 26.12 76.3345 25.696 76.3345 25V20.8H75.7745V25ZM80.2108 26V25.52H78.4108V23.6H79.8108V23.12H78.4108V21.28H80.1308V20.8H77.8508V26H80.2108Z" fill="black"/>
<path d="M78.1173 107.2L79.2933 102L78.7333 102L78.4613 103.2L76.9333 103.2L76.6613 102L76.1013 102L77.2773 107.2L78.1173 107.2ZM77.7013 106.576L77.0453 103.68L78.3573 103.68L77.7013 106.576ZM74.2812 105.464C74.5532 105.712 74.5852 105.896 74.5852 106.232C74.5852 106.6 74.3452 106.84 73.8332 106.84C73.3212 106.84 73.0812 106.6 73.0812 106.232L73.0812 105.52L72.5212 105.52L72.5212 106.2C72.5212 106.896 72.9132 107.32 73.8092 107.32C74.7212 107.32 75.1452 106.896 75.1452 106.2C75.1452 105.736 75.0492 105.456 74.7132 105.12L73.3052 103.744C73.0412 103.488 73.0012 103.296 73.0012 102.968C73.0012 102.6 73.2572 102.36 73.7932 102.36C74.3292 102.36 74.5852 102.6 74.5852 102.968L74.5852 103.68L75.1452 103.68L75.1452 103C75.1452 102.304 74.7372 101.88 73.7932 101.88C72.8492 101.88 72.4412 102.304 72.4412 103C72.4412 103.472 72.5292 103.744 72.8492 104.088L74.2812 105.464ZM67.869 102C67.005 102 66.597 102.424 66.597 103.12L66.597 106.08C66.597 106.768 67.021 107.2 67.869 107.2L69.157 107.2L69.157 102L67.869 102ZM67.157 103.12C67.157 102.8 67.389 102.48 67.869 102.48L68.597 102.48L68.597 106.72L67.869 106.72C67.397 106.72 67.157 106.392 67.157 106.08L67.157 103.12ZM62.758 102L62.758 102.48L64.558 102.48L64.558 104.4L63.158 104.4L63.158 104.88L64.558 104.88L64.558 106.72L62.838 106.72L62.838 107.2L65.118 107.2L65.118 102L62.758 102ZM59.7117 102L57.6877 102L57.6877 102.48L59.1517 102.48L59.1517 107.2L59.7117 107.2L59.7117 102ZM56.1273 106.568L56.1273 107.328L56.8473 107.328L56.8473 106.52L56.6553 106.448L56.7753 105.608L56.5193 105.56L56.1273 106.568ZM53.5292 102.48L53.9292 102.48L53.9292 106.72L53.5292 106.72L53.5292 107.2L54.8892 107.2L54.8892 106.72L54.4892 106.72L54.4892 102.48L54.8892 102.48L54.8892 102L53.5292 102L53.5292 102.48ZM51.6127 102L51.6127 106L49.8767 102L49.3167 102L49.3167 107.2L49.8767 107.2L49.8767 103.2L51.6127 107.2L52.1727 107.2L52.1727 102L51.6127 102ZM47.1595 102L47.1595 104.4L45.8395 104.4L45.8395 104.88L47.1595 104.88L47.1595 106.72L45.5195 106.72L45.5195 107.2L47.7195 107.2L47.7195 102L47.1595 102ZM41.7992 106.2C41.7992 106.896 42.2472 107.32 43.1672 107.32C44.0872 107.32 44.5192 106.896 44.5192 106.2L44.5192 103C44.5192 102.304 44.0712 101.88 43.1512 101.88C42.2312 101.88 41.7992 102.304 41.7992 103L41.7992 106.2ZM42.3592 103C42.3592 102.592 42.6152 102.36 43.1512 102.36C43.6952 102.36 43.9592 102.6 43.9592 103L43.9592 106.2C43.9592 106.6 43.7032 106.84 43.1672 106.84C42.6232 106.84 42.3592 106.6 42.3592 106.2L42.3592 103ZM39.7611 102L39.7611 103.84L39.1131 103.84L38.1771 102L37.5611 102L38.5451 103.92C38.0731 104.072 37.8411 104.44 37.8411 104.96L37.8411 106.08C37.8411 106.768 38.2651 107.2 39.1131 107.2L40.3211 107.2L40.3211 102L39.7611 102ZM38.4011 104.96C38.4011 104.56 38.6331 104.32 39.1131 104.32L39.7611 104.32L39.7611 106.72L39.1131 106.72C38.6411 106.72 38.4011 106.472 38.4011 106.08L38.4011 104.96ZM35.8783 102L35.8783 106.304L34.9423 102.8L34.4223 102.8L33.4863 106.304L33.4863 102L32.9263 102L32.9263 107.2L33.7663 107.2L34.6863 103.768L35.5983 107.2L36.4383 107.2L36.4383 102L35.8783 102ZM30.6329 107.2L31.8089 102L31.2489 102L30.9769 103.2L29.4489 103.2L29.1769 102L28.6169 102L29.7929 107.2L30.6329 107.2ZM30.2169 106.576L29.5609 103.68L30.8729 103.68L30.2169 106.576ZM25.8973 107.2L28.5373 107.2L28.5373 106.72L27.4973 106.72L27.4973 102L26.9373 102L26.9373 106.72L25.8973 106.72L25.8973 107.2ZM23.7402 102.48L24.1402 102.48L24.1402 106.72L23.7402 106.72L23.7402 107.2L25.1002 107.2L25.1002 106.72L24.7002 106.72L24.7002 102.48L25.1002 102.48L25.1002 102L23.7402 102L23.7402 102.48ZM19.7836 106.2C19.7836 106.896 20.2316 107.32 21.1516 107.32C22.0716 107.32 22.5036 106.896 22.5036 106.2L22.5036 103C22.5036 102.352 22.1276 101.952 21.3436 101.888L21.1036 100.864L20.6236 100.864L20.8636 101.896C20.1356 101.976 19.7836 102.376 19.7836 103L19.7836 106.2ZM20.3436 103C20.3436 102.592 20.5996 102.36 21.1356 102.36C21.6796 102.36 21.9436 102.6 21.9436 103L21.9436 106.2C21.9436 106.6 21.6876 106.84 21.1516 106.84C20.6076 106.84 20.3436 106.6 20.3436 106.2L20.3436 103ZM16.2255 103C16.2255 102.6 16.4815 102.36 17.0175 102.36C17.5615 102.36 17.8255 102.6 17.8255 103L17.8255 107.2L18.3855 107.2L18.3855 103C18.3855 102.304 17.9375 101.88 17.0175 101.88C16.0975 101.88 15.6655 102.304 15.6655 103L15.6655 107.2L16.2255 107.2L16.2255 103ZM11.7892 102L11.7892 102.48L13.5892 102.48L13.5892 104.4L12.1892 104.4L12.1892 104.88L13.5892 104.88L13.5892 106.72L11.8692 106.72L11.8692 107.2L14.1492 107.2L14.1492 102L11.7892 102Z" fill="black"/>
<path d="M76.8339 83.7061L17.7353 87.7713C16.0729 87.8856 14.6081 86.6226 14.4917 84.931L11.9319 47.7174C11.817 46.0467 13.0729 44.5755 14.7561 44.4597L73.8754 40.3931C75.5378 40.2787 77.0027 41.5418 77.119 43.2333L79.6788 80.447C79.7744 82.14 78.5171 83.5903 76.8339 83.7061Z" fill="#2B9EE7"/>
<path d="M78.9314 84.1493L15.7184 88.4975C13.6819 88.6376 11.9046 87.0813 11.7638 85.0348L11.7581 84.9512L82.348 80.0956L82.3523 80.1582C82.4945 82.2256 80.9678 84.0092 78.9314 84.1493Z" fill="#2B9EE7"/>
<path d="M75.0737 42.0312L13.5854 46.2608L16.1007 82.8271L77.589 78.5975L75.0737 42.0312Z" fill="white"/>
<path d="M40.6424 82.9644L41.6114 84.3035L53.934 83.4559L54.6482 82.001L40.6424 82.9644Z" fill="#0065A6"/>
<path d="M72.4157 44.6689L15.8108 48.5626L18.158 82.6856L74.763 78.7919L72.4157 44.6689Z" fill="#EEF5FF"/>
<path d="M18.3376 50.0883C18.3563 50.3598 18.1629 50.5829 17.8927 50.6015C17.6226 50.6201 17.4004 50.4255 17.3817 50.1541C17.3631 49.8826 17.5565 49.6595 17.8266 49.6409C18.0968 49.6223 18.3189 49.8168 18.3376 50.0883Z" fill="#0065A6"/>
<path d="M20.2909 49.9539C20.3096 50.2254 20.1162 50.4485 19.846 50.4671C19.5759 50.4857 19.3537 50.2912 19.335 50.0197C19.3164 49.7482 19.5098 49.5251 19.7799 49.5065C20.0293 49.4894 20.2723 49.6825 20.2909 49.9539Z" fill="#0065A6"/>
<path d="M22.2235 49.821C22.2422 50.0925 22.0488 50.3156 21.7786 50.3342C21.5085 50.3528 21.2863 50.1582 21.2677 49.8868C21.249 49.6153 21.4424 49.3922 21.7126 49.3736C21.9827 49.355 22.2049 49.5495 22.2235 49.821Z" fill="#0065A6"/>
<path d="M72.6757 48.4487C72.6772 48.4696 60.0042 49.3833 44.3776 50.4582C28.7509 51.5331 16.0736 52.3842 16.0708 52.3424C16.0693 52.3216 28.7423 51.4079 44.3689 50.3329C59.9956 49.258 72.6729 48.407 72.6757 48.4487Z" fill="#0065A6"/>
<path d="M79.6494 80.3231L14.4831 84.8057L14.4975 85.0146L79.6638 80.532L79.6494 80.3231Z" fill="#0065A6"/>
<path d="M34.2289 67.7321L21.8439 68.584L21.9014 69.4193L34.2863 68.5674L34.2289 67.7321Z" fill="#0065A6"/>
<path d="M49.4352 55.0831L37.0502 55.935L37.1077 56.7703L49.4926 55.9184L49.4352 55.0831Z" fill="#0065A6"/>
<path d="M68.0603 56.9282C68.0618 56.9491 61.1657 57.4654 52.6666 58.05C44.1676 58.6347 37.2671 59.0883 37.2643 59.0466C37.2628 59.0257 44.1589 58.5094 52.658 57.9247C61.1571 57.3401 68.0575 56.8864 68.0603 56.9282Z" fill="#0065A6"/>
<path d="M68.1853 58.745C68.1867 58.7659 61.2906 59.2822 52.7916 59.8669C44.2925 60.4515 37.3921 60.9052 37.3892 60.8634C37.3878 60.8425 44.2839 60.3262 52.7829 59.7416C61.282 59.1569 68.1824 58.7033 68.1853 58.745Z" fill="#0065A6"/>
<path d="M68.3103 60.5618C68.3117 60.5827 61.4156 61.0991 52.9166 61.6837C44.4175 62.2683 37.5171 62.722 37.5142 62.6802C37.5128 62.6593 44.4089 62.143 52.9079 61.5584C61.407 60.9738 68.3074 60.5201 68.3103 60.5618Z" fill="#0065A6"/>
<path d="M68.4353 62.3787C68.4367 62.3996 61.5406 62.9159 53.0416 63.5005C44.5425 64.0851 37.6421 64.5388 37.6392 64.4971C37.6378 64.4762 44.5339 63.9598 53.0329 63.3752C61.532 62.7906 68.4324 62.3369 68.4353 62.3787Z" fill="#0065A6"/>
<path d="M68.5602 64.1955C68.5617 64.2164 61.6655 64.7327 53.1665 65.3174C44.6674 65.902 37.767 66.3557 37.7641 66.3139C37.7627 66.293 44.6588 65.7767 53.1579 65.192C61.6569 64.6074 68.5574 64.1537 68.5602 64.1955Z" fill="#0065A6"/>
<path d="M49.9 67.3045C49.9015 67.3254 47.2029 67.553 43.8989 67.7803C40.5741 68.009 37.892 68.1725 37.8891 68.1307C37.8877 68.1098 40.5655 67.8837 43.8903 67.655C47.2151 67.4263 49.8972 67.2627 49.9 67.3045Z" fill="#0065A6"/>
<path d="M68.6994 69.5573C68.7008 69.5782 64.1736 69.9316 58.5838 70.3161C52.9939 70.7006 48.4624 70.9913 48.4596 70.9495C48.4581 70.9287 52.9853 70.5753 58.5752 70.1908C64.165 69.8063 68.6965 69.5155 68.6994 69.5573Z" fill="#0065A6"/>
<path d="M68.8315 71.4785C68.8329 71.4994 64.3058 71.8528 58.7159 72.2373C53.1261 72.6218 48.5946 72.9126 48.5917 72.8708C48.5903 72.8499 53.1175 72.4965 58.7073 72.112C64.2971 71.7275 68.8301 71.4577 68.8315 71.4785Z" fill="#0065A6"/>
<path d="M68.9637 73.3998C68.9651 73.4207 64.438 73.7741 58.8481 74.1586C53.2583 74.5431 48.7268 74.8338 48.7239 74.792C48.7225 74.7712 53.2497 74.4178 58.8395 74.0333C64.4308 73.6696 68.9623 73.3789 68.9637 73.3998Z" fill="#0065A6"/>
<path d="M69.0973 75.3419C69.0987 75.3628 64.5715 75.7162 58.9817 76.1007C53.3918 76.4852 48.8603 76.7759 48.8575 76.7342C48.856 76.7133 53.3832 76.3599 58.9731 75.9754C64.5629 75.5909 69.0944 75.3002 69.0973 75.3419Z" fill="#0065A6"/>
<path d="M34.5448 71.7179C34.5462 71.7387 31.8477 71.9663 28.5229 72.195C25.1981 72.4237 22.4952 72.5887 22.4923 72.5469C22.4909 72.526 25.1894 72.2984 28.5143 72.0697C31.8391 71.841 34.5419 71.6761 34.5448 71.7179Z" fill="#0065A6"/>
<path d="M34.6482 73.2215C34.6496 73.2423 31.9511 73.4699 28.6263 73.6986C25.3015 73.9273 22.5986 74.0923 22.5957 74.0505C22.5943 74.0296 25.2928 73.802 28.6177 73.5733C31.9439 73.3655 34.6468 73.2006 34.6482 73.2215Z" fill="#0065A6"/>
<path d="M34.753 74.7459C34.7545 74.7668 32.0559 74.9944 28.7311 75.2231C25.4063 75.4518 22.7035 75.6167 22.7006 75.575C22.6992 75.5541 25.3977 75.3265 28.7225 75.0978C32.0473 74.8691 34.7502 74.7041 34.753 74.7459Z" fill="#0065A6"/>
<path d="M34.8565 76.2495C34.8579 76.2704 32.1594 76.498 28.8346 76.7267C25.5098 76.9554 22.8069 77.1203 22.8041 77.0786C22.8026 77.0577 25.5012 76.8301 28.826 76.6014C32.1522 76.3936 34.8551 76.2286 34.8565 76.2495Z" fill="#0065A6"/>
<path d="M34.9614 77.774C34.9628 77.7948 32.2643 78.0224 28.9394 78.2511C25.6146 78.4798 22.9118 78.6448 22.9089 78.603C22.9075 78.5821 25.606 78.3545 28.9308 78.1258C32.2556 77.8971 34.9599 77.7531 34.9614 77.774Z" fill="#0065A6"/>
<path d="M33.2685 53.4675L20.8628 54.3208L21.6931 66.3912L34.0988 65.5379L33.2685 53.4675Z" fill="white"/>
<path d="M22.5979 65.2799L25.6 58.8418L28.6782 62.6166L30.2371 60.3902L33.0711 64.5595L22.5979 65.2799Z" fill="#C4170B"/>
<path d="M29.5273 57.3547C29.5617 57.8559 29.1942 58.2798 28.6955 58.3141C28.1968 58.3484 27.7747 57.9788 27.7402 57.4776C27.7057 56.9764 28.0732 56.5525 28.572 56.5182C29.0707 56.4839 29.4928 56.8535 29.5273 57.3547Z" fill="#C4170B"/>
<path d="M33.0739 64.6013C33.0739 64.6013 33.0725 64.5804 33.0711 64.5595C33.0682 64.5177 33.0653 64.476 33.061 64.4133C33.0524 64.288 33.0395 64.1001 33.0236 63.8704C32.9906 63.39 32.9432 62.7009 32.8621 61.8252C32.7414 60.0711 32.5468 57.5456 32.34 54.5385L32.3844 54.5774C29.3505 54.7861 25.7556 55.0334 21.8905 55.2992C21.8711 55.3215 21.9872 55.1877 21.9485 55.2323L21.9499 55.2532L21.9528 55.2949L21.9557 55.3367L21.9614 55.4202L21.9729 55.5873L21.9959 55.9214C22.0117 56.1511 22.0275 56.3809 22.0433 56.6106C22.0749 57.07 22.1051 57.5085 22.1352 57.9471C22.1956 58.8242 22.2559 59.7013 22.3148 60.5575C22.4312 62.249 22.5403 63.8361 22.6423 65.3188L22.5979 65.2799C25.7371 65.085 28.3346 64.9063 30.1841 64.7791C31.0984 64.7162 31.8257 64.6661 32.3258 64.6527C32.5752 64.6356 32.7622 64.6227 32.8869 64.6141C32.9492 64.6098 32.9908 64.607 33.0324 64.6041C33.0531 64.6027 33.0739 64.6013 33.0739 64.6013C33.0739 64.6013 33.0531 64.6027 33.0324 64.6041C32.9908 64.607 32.9492 64.6098 32.8869 64.6141C32.7622 64.6227 32.5752 64.6356 32.3258 64.6527C31.8271 64.687 31.0998 64.7371 30.2077 64.8194C28.3583 64.9466 25.7414 65.1476 22.6036 65.3634L22.5621 65.3663L22.5592 65.3245C22.4586 63.8627 22.348 62.2547 22.2317 60.5632C22.1742 59.7279 22.1139 58.8508 22.0521 57.9528C22.022 57.5143 21.9904 57.0548 21.9602 56.6163C21.9444 56.3866 21.9286 56.1569 21.9128 55.9271L21.8898 55.593L21.8783 55.4259L21.8726 55.3424L21.8697 55.3006L21.8683 55.2798L21.8668 55.2589C21.8088 55.3258 21.9234 55.1711 21.9248 55.1919C25.7692 54.9275 29.3641 54.6802 32.4188 54.4701L32.4603 54.4672L32.4632 54.509C32.6507 57.5385 32.8245 60.0653 32.9452 61.8195C33.0055 62.6966 33.053 63.3858 33.0652 63.8675C33.081 64.0972 33.0939 64.2852 33.1026 64.4105C33.1069 64.4731 33.1097 64.5149 33.1112 64.5358C33.0725 64.5804 33.0739 64.6013 33.0739 64.6013Z" fill="#0065A6"/>
<path d="M46.8572 70.1156L38.0673 70.7202L38.6548 79.2614L47.4448 78.6568L46.8572 70.1156Z" fill="white"/>
<path d="M39.2694 78.4848L41.399 73.9321L43.5879 76.6141L44.6897 75.0276L46.6879 77.9745L39.2694 78.4848Z" fill="#C4170B"/>
<path d="M44.1871 72.88C44.2115 73.2351 43.9392 73.5265 43.6067 73.5494C43.2535 73.5737 42.9632 73.2999 42.9403 72.9658C42.9158 72.6108 43.1881 72.3193 43.5206 72.2964C43.853 72.2736 44.1626 72.525 44.1871 72.88Z" fill="#C4170B"/>
<path d="M46.6908 78.0162C46.6908 78.0162 46.6894 77.9954 46.688 77.9745C46.6865 77.9536 46.6836 77.9118 46.6808 77.8701C46.675 77.7865 46.6664 77.6612 46.6549 77.4942C46.6319 77.16 46.5975 76.6588 46.5558 76.0532C46.4696 74.8002 46.3267 73.0266 46.1802 70.8965L46.2246 70.9354C44.0843 71.0827 41.5283 71.2585 38.8061 71.4457C38.8061 71.4457 38.8835 71.3565 38.8448 71.4011L38.8463 71.422L38.8477 71.4429L38.852 71.5055L38.8606 71.6308L38.8779 71.8814C38.8894 72.0485 38.8994 72.1947 38.9109 72.3617C38.9325 72.675 38.9554 73.0091 38.977 73.3224C39.0201 73.9488 39.0617 74.5545 39.1034 75.1601C39.1853 76.3504 39.2628 77.4781 39.3347 78.5222L39.2902 78.4833C41.5137 78.3304 43.3646 78.2241 44.6529 78.1354C45.2971 78.0911 45.8166 78.0554 46.1699 78.0311C46.3361 78.0197 46.4816 78.0096 46.5647 78.0039C46.6063 78.0011 46.6478 77.9982 46.6686 77.9968C46.6908 78.0162 46.6908 78.0162 46.6908 78.0162C46.6908 78.0162 46.6908 78.0162 46.6493 78.0191C46.6285 78.0205 46.5869 78.0234 46.5454 78.0262C46.4622 78.032 46.3168 78.042 46.1505 78.0534C45.7973 78.0777 45.2986 78.112 44.6544 78.1563C43.3452 78.2464 41.4972 78.3945 39.2738 78.5474L39.2322 78.5503L39.2293 78.5085C39.1575 77.4644 39.0799 76.3367 38.9981 75.1463C38.9564 74.5407 38.9147 73.9351 38.8717 73.3086C38.8501 72.9954 38.8286 72.6821 38.8056 72.348C38.7941 72.1809 38.784 72.0347 38.7725 71.8677L38.7553 71.6171L38.7467 71.4918L38.7424 71.4291L38.7409 71.4083L38.7395 71.3874C38.7008 71.432 38.7767 71.3219 38.7782 71.3427C41.5004 71.1555 44.0563 70.9797 46.1967 70.8325L46.2382 70.8296L46.2411 70.8714C46.3891 73.0223 46.4904 74.7988 46.5766 76.0518C46.6197 76.6783 46.6527 77.1586 46.6757 77.4927C46.6872 77.6598 46.6958 77.7851 46.7015 77.8686C46.7044 77.9104 46.7059 77.9313 46.7087 77.973C46.7102 77.9939 46.7116 78.0148 46.6908 78.0162Z" fill="#0065A6"/>
</svg>
