<svg width="93" height="129" viewBox="0 0 93 129" fill="none" xmlns="http://www.w3.org/2000/svg">
<path d="M88.7301 129H4.26988C1.87458 129 0 127.044 0 124.779V4.22104C0 1.85313 1.97872 0 4.26988 0H88.7301C91.1254 0 93 1.95608 93 4.22104V124.779C93 127.147 91.1254 129 88.7301 129Z" fill="#C8E1FF"/>
<path d="M87.2 127.3H6.1C3.8 127.3 2 125.4 2 123.2V6.1C2 3.9 3.9 2 6.1 2H87.2C89.5 2 91.3 3.9 91.3 6.1V123.2C91.3 125.5 89.5 127.3 87.2 127.3Z" fill="#EEF5FF"/>
<path d="M8.28259 12.1464V11.1164L9.41552 9.46855C9.62151 9.15957 9.7245 8.95358 9.8275 8.7476C10.0335 8.54161 10.0335 8.33562 10.1365 8.12963C10.1365 8.02664 10.2395 7.82065 10.2395 7.61467C10.2395 7.40868 10.2395 7.0997 10.2395 6.79072C10.2395 6.48174 10.2395 6.27575 10.2395 6.06976C10.2395 5.86378 10.2395 5.76078 10.2395 5.65779C10.2395 5.5548 10.2395 5.4518 10.2395 5.4518C10.2395 5.4518 10.2395 5.34881 10.1365 5.34881C10.1365 5.24582 10.0335 5.24582 10.0335 5.24582C9.93049 5.24582 9.93049 5.24582 9.7245 5.24582C9.62151 5.24582 9.51851 5.24582 9.41552 5.24582C9.31253 5.14282 9.31253 5.24582 9.31253 5.34881C9.31253 5.34881 9.31253 5.4518 9.20953 5.4518C9.10654 5.4518 9.20953 5.5548 9.20953 5.65779C9.20953 5.76078 9.20953 5.86378 9.20953 5.96677C9.20953 6.06976 9.20953 6.27575 9.20953 6.48174C9.20953 6.68773 9.20953 6.89371 9.20953 6.99671C9.20953 7.0997 9.20953 7.20269 9.20953 7.30569H8.28259C8.28259 7.20269 8.28259 7.0997 8.28259 6.99671C8.28259 6.89371 8.28259 6.68773 8.28259 6.58473C8.28259 6.37875 8.28259 6.06976 8.28259 5.96677C8.28259 5.76078 8.28259 5.5548 8.28259 5.4518C8.28259 5.34881 8.28259 5.14282 8.38559 5.03983C8.38559 4.93684 8.48858 4.83384 8.48858 4.73085C8.59157 4.62786 8.59157 4.52486 8.69457 4.52486C8.79756 4.42187 8.79756 4.42187 8.90055 4.42187C9.00355 4.31887 9.10654 4.21588 9.20953 4.21588C9.31253 4.21588 9.51852 4.21588 9.7245 4.21588C10.1365 4.21588 10.4455 4.21588 10.5485 4.31887C10.7544 4.42187 10.8574 4.52486 10.9604 4.73085C10.9604 4.83384 11.0634 4.93684 11.0634 5.03983C11.0634 5.14282 11.0634 5.24582 11.1664 5.4518C11.1664 5.5548 11.1664 5.76078 11.1664 5.96677C11.1664 6.17276 11.1664 6.48174 11.1664 6.79072C11.1664 6.99671 11.1664 7.30569 11.1664 7.40868C11.1664 7.61467 11.1664 7.71766 11.1664 7.82065C11.1664 7.92365 11.1664 8.02664 11.1664 8.12963C11.1664 8.23263 11.1664 8.33562 11.0634 8.43862C11.0634 8.54161 10.9604 8.6446 10.9604 8.7476C10.9604 8.85059 10.8574 8.95358 10.8574 9.05658C10.6514 9.05658 10.6514 9.15957 10.5485 9.36556C10.4455 9.46855 10.3425 9.57154 10.2395 9.77753L9.41552 11.1164C9.41552 11.1164 9.41552 11.1164 9.41552 11.2194H11.1664V12.1464H8.28259Z" fill="black"/>
<path d="M12.6083 9.15954C12.6083 9.26254 12.6083 9.26254 12.6083 9.36553C12.6083 9.46852 12.6083 9.57152 12.6083 9.67451C12.6083 9.8805 12.6083 10.0865 12.6083 10.2925C12.6083 10.3955 12.6083 10.6015 12.6083 10.7044C12.6083 10.8074 12.6083 10.9104 12.6083 10.9104C12.6083 11.0134 12.6083 11.0134 12.7113 11.1164C12.7113 11.2194 12.8143 11.2194 12.8143 11.3224C12.8143 11.4254 13.0203 11.3224 13.1232 11.3224C13.2262 11.3224 13.3292 11.3224 13.4322 11.2194C13.5352 11.2194 13.5352 11.1164 13.5352 11.0134C13.5352 10.9104 13.5352 10.9104 13.6382 10.8074C13.6382 10.7044 13.6382 10.6015 13.6382 10.4985C13.6382 10.3955 13.6382 10.1895 13.6382 9.98349C13.6382 9.7775 13.6382 9.46852 13.6382 9.05655C13.6382 8.85056 13.6382 8.64458 13.6382 8.43859C13.6382 8.33559 13.6382 8.12961 13.6382 8.02661C13.6382 7.92362 13.6382 7.82063 13.6382 7.82063C13.6382 7.82063 13.6382 7.71763 13.5352 7.71763C13.5352 7.61464 13.4322 7.61464 13.4322 7.61464C13.3292 7.61464 13.3292 7.61464 13.2262 7.61464C13.1232 7.61464 13.0203 7.61464 13.0203 7.61464C12.9173 7.61464 12.9173 7.61464 12.9173 7.71763C12.8143 7.82063 12.7113 7.92362 12.7113 8.02661L11.7843 7.71763L11.9903 4.31885H14.5652V5.24579H12.8143L12.7113 6.99668C12.8143 6.89369 12.9173 6.89369 13.0203 6.79069C13.1232 6.79069 13.3292 6.6877 13.5352 6.6877C13.7412 6.6877 13.8442 6.6877 13.9472 6.79069C14.0502 6.79069 14.1532 6.89369 14.2562 6.99668C14.3592 7.20267 14.3592 7.20267 14.4622 7.30566C14.4622 7.40865 14.5652 7.51165 14.5652 7.61464C14.5652 7.71763 14.5652 7.92362 14.6681 8.12961C14.6681 8.33559 14.6681 8.64458 14.6681 8.95356C14.6681 9.36553 14.6681 9.67451 14.6681 9.98349C14.6681 10.2925 14.6681 10.4985 14.6681 10.7044C14.6681 10.9104 14.6681 11.1164 14.5652 11.2194C14.4622 11.4254 14.3592 11.5284 14.3592 11.6314C14.2562 11.8374 14.1532 12.0434 13.9472 12.1464C13.7412 12.2493 13.4322 12.2493 13.1232 12.2493C12.8143 12.2493 12.6083 12.2493 12.4023 12.1464C12.1963 12.0434 12.0933 11.9404 11.9903 11.7344C11.8873 11.6314 11.7843 11.3224 11.7843 11.0134C11.7843 10.7044 11.6813 10.2925 11.6813 9.8805C11.6813 9.67451 11.6813 9.57152 11.6813 9.46852C11.6813 9.36553 11.6813 9.26254 11.6813 9.15954H12.6083Z" fill="black"/>
<path d="M87.5877 119.054V120.083L86.4547 121.731C86.2488 122.04 86.1458 122.246 86.0428 122.452C85.9398 122.658 85.8368 122.864 85.8368 122.967C85.7338 123.173 85.7338 123.379 85.7338 123.585C85.7338 123.791 85.7338 124.1 85.7338 124.409C85.7338 124.718 85.7338 124.924 85.7338 125.13C85.7338 125.336 85.7338 125.439 85.7338 125.542C85.7338 125.645 85.7338 125.748 85.7338 125.748C85.7338 125.748 85.7338 125.851 85.8368 125.851C85.8368 125.954 85.9398 125.954 85.9398 125.954C86.0428 125.954 86.0428 125.954 86.2488 125.954C86.3518 125.954 86.4547 125.954 86.5577 125.954C86.6607 125.954 86.6607 125.851 86.6607 125.851C86.6607 125.851 86.6607 125.748 86.7637 125.748C86.8667 125.748 86.7637 125.645 86.7637 125.542C86.7637 125.439 86.7637 125.336 86.7637 125.233C86.7637 125.13 86.7637 124.924 86.7637 124.718C86.7637 124.512 86.7637 124.306 86.7637 124.203C86.7637 124.1 86.7637 123.997 86.7637 123.894H87.5877C87.5877 123.997 87.5877 124.1 87.5877 124.203C87.5877 124.306 87.5877 124.512 87.5877 124.615C87.5877 124.821 87.5877 125.13 87.5877 125.233C87.5877 125.439 87.5877 125.645 87.5877 125.748C87.5877 125.851 87.5877 126.057 87.4847 126.16C87.4847 126.263 87.3817 126.366 87.3817 126.469C87.2787 126.572 87.2787 126.675 87.1757 126.675C87.0727 126.778 87.0727 126.778 86.9697 126.778C86.8667 126.778 86.7637 126.881 86.6607 126.881C86.5577 126.881 86.3517 126.881 86.1458 126.881C85.7338 126.881 85.4248 126.881 85.3218 126.778C85.1158 126.675 85.0128 126.572 84.9098 126.366C84.9098 126.263 84.8068 126.16 84.8068 126.057C84.8068 125.954 84.8069 125.851 84.7039 125.645C84.7039 125.542 84.7039 125.336 84.7039 125.13C84.7039 124.924 84.7039 124.615 84.7039 124.306C84.7039 124.1 84.7039 123.791 84.7039 123.688C84.7039 123.482 84.7039 123.379 84.7039 123.276C84.7039 123.173 84.7039 123.07 84.7039 122.967C84.7039 122.864 84.7039 122.761 84.8068 122.658C84.8068 122.555 84.9098 122.452 84.9098 122.349C84.9098 122.246 85.0128 122.143 85.0128 122.04C85.1158 121.937 85.1158 121.834 85.2188 121.731C85.3218 121.628 85.4248 121.422 85.5278 121.319L86.4547 119.98C86.4547 119.98 86.4547 119.98 86.4547 119.878H84.7039V118.951H87.5877V119.054Z" fill="black"/>
<path d="M83.3649 122.04C83.3649 121.937 83.3649 121.937 83.3649 121.834C83.3649 121.731 83.3649 121.628 83.3649 121.525C83.3649 121.319 83.3649 121.114 83.3649 120.908C83.3649 120.805 83.3649 120.599 83.3649 120.496C83.3649 120.393 83.3649 120.29 83.3649 120.29C83.3649 120.187 83.3649 120.187 83.2619 120.084C83.2619 119.981 83.1589 119.981 83.1589 119.878C83.1589 119.775 82.9529 119.878 82.8499 119.878C82.747 119.878 82.644 119.878 82.541 119.981C82.438 119.981 82.438 120.084 82.438 120.187C82.438 120.29 82.438 120.29 82.335 120.393C82.335 120.496 82.335 120.599 82.335 120.702C82.335 120.805 82.335 121.011 82.335 121.217C82.335 121.422 82.335 121.731 82.335 122.143C82.335 122.349 82.335 122.555 82.335 122.761C82.335 122.864 82.335 123.07 82.335 123.173C82.335 123.276 82.335 123.379 82.335 123.379C82.335 123.379 82.335 123.482 82.438 123.482C82.438 123.585 82.541 123.585 82.541 123.585C82.644 123.585 82.644 123.585 82.747 123.585C82.8499 123.585 82.9529 123.585 82.9529 123.585C83.0559 123.585 83.0559 123.585 83.0559 123.482C83.1589 123.379 83.2619 123.276 83.2619 123.173L83.9829 123.379L83.7769 126.778H81.2021V125.851H82.9529L83.0559 124.1C82.9529 124.203 82.8499 124.203 82.747 124.306C82.644 124.306 82.438 124.409 82.232 124.409C82.026 124.409 81.923 124.409 81.82 124.306C81.717 124.306 81.614 124.203 81.511 124.1C81.408 123.997 81.408 123.894 81.305 123.791C81.305 123.688 81.2021 123.585 81.2021 123.482C81.2021 123.379 81.2021 123.173 81.0991 122.967C81.0991 122.761 81.0991 122.452 81.0991 122.143C81.0991 121.731 81.0991 121.422 81.0991 121.114C81.0991 120.805 81.0991 120.599 81.0991 120.393C81.0991 120.187 81.0991 119.981 81.2021 119.878C81.2021 119.775 81.305 119.569 81.305 119.466C81.408 119.26 81.511 119.054 81.717 118.951C81.923 118.848 82.232 118.848 82.541 118.848C82.8499 118.848 83.0559 118.848 83.2619 118.951C83.4679 119.054 83.5709 119.157 83.6739 119.363C83.7769 119.569 83.8799 119.775 83.8799 120.084C83.8799 120.393 83.9829 120.805 83.9829 121.217C83.9829 121.422 83.9829 121.525 83.9829 121.628C83.9829 121.731 83.9829 121.834 83.9829 121.937H83.3649V122.04Z" fill="black"/>
<path d="M85.4248 40.7785C85.0128 40.4696 84.7038 40.1606 84.3948 39.8516C83.7769 39.1307 83.2619 38.2037 82.9529 37.2768C82.7469 36.2468 82.7469 35.2169 83.2619 34.29C83.5709 33.878 83.8799 33.466 84.2918 33.157C84.7038 32.848 85.2188 32.7451 85.7337 32.7451C86.2487 32.7451 86.7637 33.054 87.0726 33.363C87.4846 33.775 87.6906 34.187 87.7936 34.7019C88.1026 35.6289 87.9996 36.6588 87.4846 37.5858C86.9697 38.4097 86.2487 39.0277 85.3218 39.3366C84.4978 39.6456 83.5709 39.6456 82.7469 39.5426C81.923 39.4396 81.099 39.1307 80.3781 38.7187C78.9362 37.9977 77.7002 37.0708 76.5673 36.4528C75.4344 35.7319 74.3015 35.3199 73.1685 35.1139C72.1386 34.9079 71.2116 35.1139 70.4907 35.4229C69.7697 35.7319 69.3578 36.0408 69.0488 36.3498C68.9458 36.4528 68.9458 36.4528 68.8428 36.5558C68.8428 36.6588 68.7398 36.6588 68.7398 36.6588C68.9458 36.5558 68.9458 36.5558 68.9458 36.5558C68.9458 36.5558 68.9458 36.5558 69.0488 36.4528C69.0488 36.4528 69.1518 36.3498 69.1518 36.2468C69.1518 36.1438 69.2548 36.1438 69.3578 36.0408C69.6667 35.7319 70.0787 35.3199 70.7997 35.0109C71.5206 34.7019 72.4476 34.5989 73.4775 34.7019C74.5074 34.9079 75.7434 35.3199 76.8763 36.0408C78.0092 36.7618 79.2451 37.5857 80.6871 38.3067C81.408 38.6157 82.129 38.9247 82.9529 39.1307C83.7769 39.2336 84.7038 39.2336 85.5277 38.9247C86.3517 38.6157 87.1756 38.1007 87.5876 37.2768C87.9996 36.4528 88.1026 35.4229 87.8966 34.5989C87.7936 34.187 87.5876 33.672 87.1756 33.363C86.8667 33.054 86.3517 32.848 85.9397 32.7451C85.4248 32.7451 85.0128 32.848 84.6008 33.157C84.1888 33.466 83.8798 33.775 83.5709 34.187C83.0559 35.0109 83.0559 36.1438 83.2619 37.0708C83.4679 37.9977 83.9828 38.9247 84.6008 39.6456" fill="#0A100C"/>
<path d="M86.2487 41.2935C85.9397 41.1905 85.7337 40.9846 85.4247 40.7786Z" fill="#0A100C"/>
<path d="M14.9772 63.5401L14.7712 26.3595H72.0356V63.9521L14.9772 63.5401Z" fill="#2996D3"/>
<path d="M26.8214 56.4335C28.9843 56.3306 31.2502 56.8455 33.516 57.0515L32.2801 56.7425C32.0741 54.6827 32.8981 52.5198 34.443 50.9749C35.9879 49.533 38.1507 48.709 40.2106 49.018C41.7555 49.224 43.3004 49.945 44.8453 49.636C47.7291 49.121 49.171 45.7222 51.9519 44.6923C55.4536 43.3534 59.4704 46.4432 62.8692 45.0013C64.2081 44.3833 65.238 43.1474 66.5769 42.4264C67.7099 41.8085 69.2548 41.6025 70.1817 42.3234V34.2899C69.2548 36.0408 66.9889 36.9678 64.929 36.7618C62.7662 36.5558 60.8093 35.5259 58.9554 34.3929C57.1015 33.26 55.1447 32.2301 52.9818 31.9211C49.892 31.5091 47.0082 32.848 44.0214 33.775C41.3435 34.4959 38.4597 34.8049 35.7819 34.084C35.6789 34.084 35.5759 33.981 35.4729 33.981C35.1639 34.2899 34.7519 34.5989 34.34 34.8049C32.0741 35.9378 29.0873 34.3929 26.9244 35.8349C25.6885 36.6588 25.2765 38.3067 24.3496 39.5426C22.7017 41.8085 18.582 42.4264 16.3161 40.8815V59.3174V61.6862H17.552C19.7149 58.6994 23.2167 56.6395 26.8214 56.4335ZM61.8392 40.0576C61.9422 39.9546 62.1482 39.8516 62.3542 39.8516C62.3542 39.8516 62.3542 39.8516 62.4572 39.8516C62.9722 39.7486 63.5901 39.9546 63.8991 40.4696C64.3111 41.0875 64.0021 42.0145 63.3841 42.4264C62.6632 42.7354 61.7362 42.4264 61.5303 41.7055C61.3243 41.0875 61.6332 40.4696 62.0452 40.1606L61.8392 40.0576Z" fill="#FAFAFA"/>
<path d="M70.2847 42.4265C69.3578 41.7055 67.7099 41.8085 66.6799 42.5295C65.341 43.3534 64.4141 44.4863 62.9722 45.1043C59.5734 46.5462 55.4536 43.4564 52.0548 44.7953C49.377 45.8253 47.8321 49.224 44.9483 49.739C43.4034 50.048 41.8585 49.327 40.3136 49.1211C38.2537 48.9151 35.9879 49.636 34.5459 51.0779C33.001 52.5198 32.1771 54.6827 32.3831 56.8456L33.619 57.1546C35.3699 57.3605 37.0178 57.3605 38.6657 56.8456C43.4034 55.3007 45.9782 49.224 50.9219 48.7091C53.7027 48.4001 56.3806 49.945 59.1614 49.43C61.3243 49.0181 63.1781 47.4732 64.929 46.1342C66.6799 44.8983 68.5338 43.6624 70.5937 44.3834V42.6325C70.3877 42.5295 70.2847 42.5295 70.2847 42.4265Z" fill="#D71A22"/>
<path d="M64.8261 46.1342C62.9722 47.4732 61.2213 49.0181 59.0585 49.43C56.3806 49.945 53.5998 48.4001 50.819 48.7091C45.8753 49.327 43.3004 55.3007 38.5627 56.8456C36.9149 57.3605 35.267 57.3605 33.5161 57.1546C31.3532 56.9486 29.0873 56.3306 26.8215 56.5366C23.2167 56.7426 19.7149 58.8024 17.7581 61.7893H18.994C20.1269 60.5533 21.6718 59.7294 23.3197 59.3174C25.6886 58.6995 28.3664 59.2144 30.4263 60.6563C30.9412 60.9653 31.3532 61.3773 31.7652 61.7893H40.7256C41.1376 61.5833 41.5496 61.3773 41.9615 61.1713C43.6094 60.3473 45.4633 59.7294 47.2142 60.1414C48.3471 60.3473 49.3771 60.9653 49.995 61.7893H59.6764C59.9854 61.1713 60.5004 60.6563 61.2213 60.4503C61.9423 60.2444 62.7662 60.3473 63.3842 59.8324C64.1051 59.3174 64.2081 58.2875 64.5171 57.4635C65.3411 55.1977 68.0189 53.6528 70.3877 54.0647V44.3834C68.4309 43.5594 66.577 44.7953 64.8261 46.1342ZM56.2776 59.8324C54.7327 60.5533 52.6729 59.7294 52.0549 58.0815C51.6429 56.8456 52.1579 55.3007 53.2908 54.5797L52.9818 54.6827C53.2908 54.4767 53.5998 54.2707 53.9088 54.1677C54.0118 54.1677 54.1148 54.0647 54.2178 54.0647H54.1148C55.3507 53.7558 56.7926 54.2707 57.4106 55.4037C58.4405 56.9486 57.8225 59.1114 56.2776 59.8324ZM66.989 48.9151C66.577 49.1211 66.062 48.9151 65.856 48.5031C65.753 48.1941 65.856 47.7821 66.165 47.5762H66.062C66.165 47.4732 66.268 47.4732 66.371 47.4732C66.68 47.3702 67.092 47.5762 67.2979 47.7821C67.5039 48.0911 67.4009 48.7091 66.989 48.9151Z" fill="#D71A22"/>
<path d="M64.5171 57.5666C64.2081 58.3905 64.1051 59.4204 63.3842 59.9354C62.7662 60.3474 61.9422 60.2444 61.2213 60.5534C60.5003 60.7594 59.9854 61.2743 59.6764 61.8923H70.4907V54.2708C68.0189 53.6528 65.341 55.1977 64.5171 57.5666Z" fill="#D71A22"/>
<path d="M23.3196 59.3174C21.6717 59.7294 20.1268 60.5534 18.9939 61.7893H31.7651C31.3531 61.3773 30.8382 61.0683 30.4262 60.6564C28.3663 59.2145 25.7915 58.6995 23.3196 59.3174Z" fill="#D71A22"/>
<path d="M47.2142 60.1414C45.4633 59.7295 43.6094 60.3474 41.9615 61.1714C41.5495 61.3774 41.1376 61.5834 40.7256 61.7893H49.995C49.377 60.9654 48.3471 60.3474 47.2142 60.1414Z" fill="#D71A22"/>
<path d="M43.5064 30.5822C41.8585 30.6852 40.2106 30.3762 38.7687 31.2002C37.5328 31.8181 36.7088 33.26 35.6789 34.187C35.7819 34.187 35.8849 34.29 35.9879 34.29C38.6657 35.0109 41.5495 34.7019 44.2274 33.981C47.2142 33.157 50.098 31.8181 53.1878 32.1271C55.3507 32.4361 57.3075 33.569 59.1614 34.5989C61.0153 35.6289 62.9722 36.7618 65.135 36.9678C67.1949 37.1738 69.4608 36.2468 70.3877 34.4959V33.775V27.9044H47.3172C47.0082 29.4493 45.1543 30.4792 43.5064 30.5822Z" fill="#D71A22"/>
<path d="M61.4273 41.6026C61.6333 42.3235 62.5602 42.6325 63.2812 42.3235C64.0021 42.0146 64.2081 40.9846 63.7961 40.3667C63.4872 39.8517 62.8692 39.6457 62.3542 39.7487C62.3542 39.7487 62.3542 39.7487 62.2512 39.7487C62.0453 39.7487 61.9423 39.8517 61.7363 39.9547L61.8393 39.8517C61.5303 40.3667 61.2213 40.9846 61.4273 41.6026Z" fill="#D71A22"/>
<path d="M54.2177 54.1678C54.1147 54.1678 54.0117 54.1678 53.9087 54.2708C53.5998 54.3738 53.2908 54.4768 52.9818 54.7857L53.1878 54.6828C52.1578 55.5067 51.5399 56.9486 51.9519 58.1845C52.5698 59.8324 54.6297 60.6564 56.1746 59.9354C57.7195 59.2145 58.3375 56.9486 57.4105 55.5067C56.7926 54.3738 55.4536 53.9618 54.2177 54.1678Z" fill="#D71A22"/>
<path d="M54.2177 54.1678C54.1147 54.1678 54.0117 54.1678 53.9087 54.2708C53.5998 54.3738 53.2908 54.4768 52.9818 54.7857L53.1878 54.6828C52.1578 55.5067 51.5399 56.9486 51.9519 58.1845C52.5698 59.8324 54.6297 60.6564 56.1746 59.9354C57.7195 59.2145 58.3375 56.9486 57.4105 55.5067C56.7926 54.3738 55.4536 53.9618 54.2177 54.1678Z" fill="#EA7880"/>
<path d="M67.2979 47.7822C67.0919 47.4732 66.7829 47.3702 66.371 47.4732C66.268 47.4732 66.165 47.5762 66.062 47.5762H66.165C65.856 47.6792 65.753 48.0912 65.856 48.5031C66.062 48.9151 66.577 49.1211 66.9889 48.9151C67.4009 48.7091 67.5039 48.0912 67.2979 47.7822Z" fill="#D71A22"/>
<path d="M24.6578 39.6456C25.5847 38.4097 25.9967 36.8648 27.2326 35.9379C29.2925 34.496 32.3823 35.9379 34.6481 34.9079C35.0601 34.702 35.4721 34.393 35.7811 34.084C36.811 33.0541 37.6349 31.7151 38.8709 31.0972C40.3128 30.3762 42.0637 30.5822 43.6086 30.4792C45.2565 30.3762 47.0073 29.3463 47.2133 27.8014H38.6649H16.4183V40.8816C16.4183 40.8816 16.4183 40.8816 16.5213 40.8816C18.8901 42.5295 22.9069 41.9115 24.6578 39.6456Z" fill="#D71A22"/>
<path d="M70.2847 42.4265C69.3578 41.7055 67.7099 41.8085 66.6799 42.5295C65.341 43.3534 64.4141 44.4863 62.9722 45.1043C59.5734 46.5462 55.4536 43.4564 52.0548 44.7953C49.377 45.8253 47.8321 49.224 44.9483 49.739C43.4034 50.048 41.8585 49.327 40.3136 49.1211C38.2537 48.9151 35.9879 49.636 34.5459 51.0779C33.001 52.5198 32.1771 54.6827 32.3831 56.8456L33.619 57.1546C35.3699 57.3605 37.0178 57.3605 38.6657 56.8456C43.4034 55.3007 45.9782 49.224 50.9219 48.7091C53.7027 48.4001 56.3806 49.945 59.1614 49.43C61.3243 49.0181 63.1781 47.4732 64.929 46.1342C66.6799 44.8983 68.5338 43.6624 70.5937 44.3834V42.6325C70.3877 42.5295 70.2847 42.5295 70.2847 42.4265Z" fill="#EA7880"/>
<path d="M38.5619 27.9044H16.4183V40.9846C16.4183 40.9846 16.4183 40.9846 16.5213 40.9846C18.8901 42.5295 22.9069 41.9115 24.5548 39.6456C25.4817 38.4097 25.8937 36.8648 27.1296 35.9379C29.1895 34.496 32.2793 35.9379 34.5451 34.9079C34.9571 34.702 35.3691 34.393 35.6781 34.084C36.708 33.0541 37.5319 31.7151 38.7679 31.0972C40.2098 30.3762 41.9607 30.5822 43.5056 30.4792C45.1535 30.3762 46.9044 29.3463 47.1103 27.8014" fill="#EA7880"/>
<path d="M63.8991 44.4863C63.6931 43.8683 62.5602 39.2336 60.3974 30.7881C50.819 33.26 36.8118 36.7618 21.2598 40.7785V40.6755C22.4957 45.4132 23.6287 50.0479 24.7616 54.3737H24.6586C47.2142 48.709 62.7662 44.7953 63.8991 44.4863C62.7662 44.7953 47.2142 48.709 24.7616 54.4767C23.6287 50.1509 22.4957 45.5162 21.2598 40.7785C36.8118 36.8648 50.922 33.26 60.3974 30.8911C62.5602 39.2336 63.7961 43.8683 63.8991 44.4863Z" fill="#0A100C"/>
<path d="M64.2764 43.7504L63.2782 44.004L63.5318 45.0022L64.53 44.7486L64.2764 43.7504Z" fill="#375A64"/>
<path d="M25.1418 53.8478L24.1436 54.1014L24.3972 55.0996L25.3954 54.846L25.1418 53.8478Z" fill="#375A64"/>
<path d="M60.7597 29.9543L59.7615 30.2079L60.015 31.2061L61.0133 30.9525L60.7597 29.9543Z" fill="#375A64"/>
<path d="M40.9947 35.0092L39.9965 35.2628L40.25 36.261L41.2482 36.0075L40.9947 35.0092Z" fill="#375A64"/>
<path d="M44.4861 48.7054L43.4879 48.959L43.7415 49.9572L44.7397 49.7036L44.4861 48.7054Z" fill="#375A64"/>
<path d="M23.2821 46.7561L22.2839 47.0096L22.5375 48.0079L23.5357 47.7543L23.2821 46.7561Z" fill="#375A64"/>
<path d="M62.5092 36.7433L61.511 36.9969L61.7646 37.9951L62.7628 37.7415L62.5092 36.7433Z" fill="#375A64"/>
<path d="M21.6381 40.1565L20.6399 40.41L20.8935 41.4082L21.8917 41.1547L21.6381 40.1565Z" fill="#375A64"/>
<path d="M36.2969 49.018C36.1939 48.915 36.0909 48.812 35.9879 48.606C35.9879 48.4 35.9879 48.297 36.0909 48.0911L38.4597 43.2504C38.7687 42.5294 38.9747 42.0144 38.8717 41.6025C38.7687 41.0875 38.4597 40.6755 38.1507 40.4695C37.8418 40.2636 37.4298 40.1606 36.9148 40.2636C36.6058 40.3665 36.3998 40.4695 36.1939 40.6755C35.9879 40.8815 35.8849 41.1905 35.7819 41.4995C35.6789 41.8085 35.6789 42.1174 35.7819 42.4264C35.7819 42.6324 35.7819 42.7354 35.6789 42.9414C35.5759 43.0444 35.4729 43.1474 35.2669 43.2504C35.0609 43.2504 34.9579 43.2504 34.7519 43.1474C34.649 43.0444 34.546 42.9414 34.443 42.7354C34.34 42.2204 34.34 41.7055 34.443 41.1905C34.546 40.6755 34.8549 40.2636 35.1639 39.9546C35.5759 39.6456 35.9879 39.3366 36.5028 39.2336C37.0178 39.1306 37.5328 39.1306 38.0477 39.2336C38.4597 39.3366 38.8717 39.6456 39.2837 39.9546C39.5926 40.3665 39.7986 40.7785 40.0046 41.3965C40.1076 41.7055 40.1076 42.1174 40.0046 42.5294C39.9016 42.9414 39.6956 43.3534 39.4897 43.7653L37.5328 47.5761L40.9316 46.7521C41.1375 46.7521 41.2405 46.7521 41.4465 46.8551C41.5495 46.9581 41.6525 47.0611 41.7555 47.2671C41.7555 47.4731 41.7555 47.5761 41.6525 47.7821C41.5495 47.8851 41.4465 47.9881 41.2405 48.0911L36.8118 49.224C36.6058 49.121 36.3998 49.121 36.2969 49.018Z" fill="#2996D3"/>
<path d="M44.5364 46.6492C44.0214 46.5462 43.5064 46.2372 43.1974 45.8253C42.7855 45.4133 42.5795 44.8983 42.3735 44.3834C42.3735 44.1774 42.3735 44.0744 42.4765 43.8684C42.5795 43.6624 42.6825 43.6624 42.8885 43.5594C43.0945 43.5594 43.1975 43.5594 43.4034 43.6624C43.6094 43.7654 43.6094 43.8684 43.7124 44.0744C43.8154 44.3834 43.9184 44.6923 44.2274 44.8983C44.4334 45.1043 44.7424 45.3103 45.0513 45.4133C45.3603 45.5163 45.6693 45.5163 46.0813 45.4133C46.3902 45.3103 46.6992 45.2073 46.9052 44.8983C47.1112 44.6923 47.3172 44.3834 47.4202 44.0744C47.5232 43.7654 47.5232 43.4564 47.4202 43.0444C47.3172 42.7355 47.2142 42.4265 46.9052 42.2205C46.5962 42.0145 46.3902 41.8085 46.0813 41.7055C45.7723 41.6025 45.4633 41.6025 45.0513 41.7055L42.9915 42.3235C42.7855 42.3235 42.6825 42.3235 42.4765 42.2205C42.3735 42.1175 42.2705 42.0145 42.1675 41.8085L41.3436 38.6157C41.3436 38.4097 41.3436 38.3067 41.4466 38.1008C41.5496 37.9978 41.6525 37.8948 41.8585 37.7918L45.8753 36.7618C46.0813 36.7618 46.1843 36.7618 46.3902 36.8648C46.4932 36.9678 46.5962 37.0708 46.6992 37.2768C46.6992 37.4828 46.6992 37.5858 46.5962 37.6888C46.4932 37.7918 46.3902 37.8948 46.1843 37.9978L42.7855 38.8217L43.3004 40.8816L44.6394 40.5726C45.2573 40.4696 45.7723 40.4696 46.2873 40.5726C46.8022 40.6756 47.3172 40.9846 47.6262 41.3965C48.0381 41.8085 48.2441 42.3235 48.4501 42.8385C48.6561 43.3534 48.5531 43.9714 48.4501 44.4864C48.3471 45.0013 48.0381 45.5163 47.6262 45.8253C47.2142 46.2372 46.6992 46.4432 46.1843 46.6492C45.6693 46.8552 45.1543 46.7522 44.5364 46.6492Z" fill="#2996D3"/>
<path d="M64.5171 57.5665C64.2081 58.3904 64.1051 59.4204 63.3842 59.9353C62.7662 60.3473 61.9422 60.2443 61.2213 60.5533C60.5003 60.7593 59.9854 61.2743 59.6764 61.8922H70.4907V54.2707C68.0189 53.6527 65.341 55.1976 64.5171 57.5665Z" fill="#A3111B"/>
<g opacity="0.3">
<g opacity="0.3">
<path opacity="0.3" d="M67.2979 47.7822C67.0919 47.4732 66.7829 47.3702 66.371 47.4732C66.268 47.4732 66.165 47.5762 66.062 47.5762H66.165C65.856 47.6792 65.753 48.0912 65.856 48.5031C66.062 48.9151 66.577 49.1211 66.9889 48.9151C67.4009 48.7091 67.5039 48.0912 67.2979 47.7822Z" fill="#A3111B"/>
</g>
</g>
<path d="M23.3196 59.3174C21.6717 59.7294 20.1268 60.5533 18.9939 61.7892H31.7651C31.3531 61.3773 30.8382 61.0683 30.4262 60.6563C28.3663 59.2144 25.7915 58.6994 23.3196 59.3174Z" fill="#A3111B"/>
<path d="M47.2142 60.1414C45.4633 59.7294 43.6094 60.3474 41.9615 61.1713C41.5495 61.3773 41.1376 61.5833 40.7256 61.7893H49.995C49.377 60.9653 48.3471 60.3474 47.2142 60.1414Z" fill="#A3111B"/>
<path d="M64.8261 7.5116H36.5029V18.5319H64.8261V7.5116Z" fill="#FAFAFA"/>
<path d="M64.8261 18.532C64.8261 18.532 64.8261 18.429 64.8261 18.326C64.8261 18.223 64.8261 18.017 64.8261 17.708C64.8261 17.193 64.8261 16.4721 64.8261 15.5451C64.8261 13.6913 64.8261 10.9104 64.8261 7.51165V7.61464C57.7195 7.61464 47.7292 7.61464 36.5029 7.61464L36.6059 7.51165C36.6059 11.3224 36.6059 15.0302 36.6059 18.532L36.5029 18.429C44.6394 18.429 51.7459 18.429 56.7926 18.429C59.2644 18.429 61.3243 18.429 62.6632 18.429C63.3842 18.429 63.8991 18.429 64.2081 18.429C64.4141 18.429 64.5171 18.429 64.6201 18.429C64.7231 18.532 64.8261 18.532 64.8261 18.532C64.8261 18.532 64.8261 18.532 64.7231 18.532C64.6201 18.532 64.5171 18.532 64.3111 18.532C63.8991 18.532 63.3842 18.532 62.7662 18.532C61.4273 18.532 59.3674 18.532 56.8956 18.532C51.8489 18.532 44.7423 18.532 36.6059 18.532H36.5029V18.429C36.5029 15.0302 36.5029 11.3224 36.5029 7.40866V7.30566H36.6059C47.7292 7.30566 57.8225 7.30566 64.9291 7.30566H65.0321V7.40866C65.0321 10.8074 65.0321 13.5883 65.0321 15.4422C65.0321 16.3691 65.0321 17.09 65.0321 17.605C65.0321 17.811 65.0321 18.017 65.0321 18.12C64.8261 18.429 64.8261 18.532 64.8261 18.532Z" fill="#0A100C"/>
<path d="M64.8261 7.5116H36.5029V9.88045H64.8261V7.5116Z" fill="#0A100C"/>
<path d="M42.6824 11.7343H39.9016V14.5151H42.6824V11.7343Z" fill="#0A100C"/>
<path d="M44.3303 13.3823H41.5495V16.1631H44.3303V13.3823Z" fill="#0A100C"/>
<path d="M49.2741 11.7343H46.4932V14.5151H49.2741V11.7343Z" fill="#0A100C"/>
<path d="M51.0249 13.3823H48.2441V16.1631H51.0249V13.3823Z" fill="#F5F5F5"/>
<path d="M51.0249 16.163C51.0249 16.163 51.0249 16.06 51.0249 15.957C51.0249 15.751 51.0249 15.6481 51.0249 15.3391C51.0249 14.8241 51.0249 14.2061 51.0249 13.3822V13.4852C50.201 13.4852 49.274 13.4852 48.2441 13.4852L48.3471 13.3822V13.4852V13.6912C48.3471 13.7942 48.3471 13.8972 48.3471 14.1032C48.3471 14.3091 48.3471 14.6181 48.3471 14.8241C48.3471 15.3391 48.3471 15.751 48.3471 16.163L48.2441 16.06C49.068 16.06 49.789 16.06 50.201 16.06C50.4069 16.06 50.6129 16.06 50.8189 16.06C50.9219 16.163 51.0249 16.163 51.0249 16.163C51.0249 16.163 50.9219 16.163 50.8189 16.163C50.7159 16.163 50.5099 16.163 50.3039 16.163C49.789 16.163 49.068 16.163 48.2441 16.163H48.1411V16.06C48.1411 15.6481 48.1411 15.2361 48.1411 14.7211C48.1411 14.5151 48.1411 14.2061 48.1411 14.0002C48.1411 13.8972 48.1411 13.7942 48.1411 13.5882V13.3822V13.2792C48.0381 13.3822 48.2441 13.1762 48.2441 13.1762C49.274 13.1762 50.201 13.1762 51.0249 13.1762H51.1279V13.2792C51.1279 14.1032 51.1279 14.8241 51.1279 15.3391C51.1279 15.5451 51.1279 15.751 51.1279 15.854C51.0249 16.06 51.0249 16.163 51.0249 16.163Z" fill="#0A100C"/>
<path d="M55.4536 11.7343H52.6728V14.5151H55.4536V11.7343Z" fill="#F5F5F5"/>
<path d="M55.4537 14.5151C55.4537 14.5151 55.4537 14.4121 55.4537 14.3091C55.4537 14.1032 55.4537 14.0002 55.4537 13.6912C55.4537 13.1762 55.4537 12.5583 55.4537 11.7343L55.5567 11.8373C54.7327 11.8373 53.8058 11.8373 52.7758 11.8373L52.8788 11.7343V11.8373V12.0433C52.8788 12.1463 52.8788 12.2493 52.8788 12.4553C52.8788 12.6612 52.8788 12.9702 52.8788 13.1762C52.8788 13.6912 52.8788 14.1032 52.8788 14.5151L52.7758 14.4121C53.5998 14.4121 54.3207 14.4121 54.7327 14.4121C54.9387 14.4121 55.1447 14.4121 55.3507 14.4121C55.3507 14.5151 55.4537 14.5151 55.4537 14.5151C55.4537 14.5151 55.3507 14.5151 55.2477 14.5151C55.1447 14.5151 54.9387 14.5151 54.7327 14.5151C54.2178 14.5151 53.4968 14.5151 52.6728 14.5151H52.5699V14.4121C52.5699 14.0002 52.5699 13.5882 52.5699 13.0732C52.5699 12.8672 52.5699 12.5583 52.5699 12.3523C52.5699 12.2493 52.5699 12.1463 52.5699 11.9403V11.7343V11.6313C52.4669 11.7343 52.6728 11.5283 52.6728 11.5283C53.7028 11.5283 54.6297 11.5283 55.4537 11.5283H55.5567V11.6313C55.5567 12.4553 55.5567 13.1762 55.5567 13.6912C55.5567 13.8972 55.5567 14.1032 55.5567 14.2062C55.4537 14.4121 55.4537 14.5151 55.4537 14.5151Z" fill="#0A100C"/>
<path d="M57.2046 13.3822H54.4238V16.163H57.2046V13.3822Z" fill="#F5F5F5"/>
<path d="M57.2046 16.163C57.2046 16.163 57.2046 16.06 57.2046 15.957C57.2046 15.751 57.2046 15.648 57.2046 15.339C57.2046 14.824 57.2046 14.2061 57.2046 13.3821V13.4851C56.3806 13.4851 55.4537 13.4851 54.4238 13.4851L54.5268 13.3821V13.4851V13.6911C54.5268 13.7941 54.5268 13.8971 54.5268 14.1031C54.5268 14.3091 54.5268 14.6181 54.5268 14.824C54.5268 15.339 54.5268 15.751 54.5268 16.163L54.4238 16.06C55.2477 16.06 55.9687 16.06 56.3806 16.06C56.5866 16.06 56.7926 16.06 56.9986 16.06C57.1016 16.163 57.2046 16.163 57.2046 16.163C57.2046 16.163 57.1016 16.163 56.9986 16.163C56.8956 16.163 56.6896 16.163 56.4836 16.163C55.9687 16.163 55.2477 16.163 54.4238 16.163H54.3208V16.06C54.3208 15.648 54.3208 15.236 54.3208 14.7211C54.3208 14.5151 54.3208 14.2061 54.3208 14.0001C54.3208 13.8971 54.3208 13.7941 54.3208 13.5881V13.3821V13.2791C54.2178 13.3821 54.4238 13.1761 54.4238 13.1761C55.4537 13.1761 56.3806 13.1761 57.2046 13.1761H57.3076V13.2791C57.3076 14.1031 57.3076 14.824 57.3076 15.339C57.3076 15.545 57.3076 15.751 57.3076 15.854C57.2046 16.06 57.2046 16.163 57.2046 16.163Z" fill="#0A100C"/>
<path d="M55.5567 13.3822H54.4238V14.5151H55.5567V13.3822Z" fill="#0A100C"/>
<path d="M61.1183 11.7343H58.3375V14.5151H61.1183V11.7343Z" fill="#0A100C"/>
<path d="M62.8692 13.3822H60.0884V16.163H62.8692V13.3822Z" fill="#0A100C"/>
<path d="M61.2213 13.3822H60.0884V14.5151H61.2213V13.3822Z" fill="#FAFAFA"/>
<path d="M84.4978 24.8129H57.3076V35.4212H84.4978V24.8129Z" fill="#FAFAFA"/>
<path d="M84.4978 35.4229H57.3076V24.7116H84.6008V35.4229H84.4978ZM57.4105 35.3199H84.4978V24.8146H57.4105V35.3199Z" fill="#1C1C1B"/>
<path d="M84.4978 24.8129H57.3076V27.0787H84.4978V24.8129Z" fill="#0A100C"/>
<path d="M61.5302 29.8613H58.8524V32.5391H61.5302V29.8613Z" fill="#F5F5F5"/>
<path d="M61.5302 32.5391C61.5302 32.5391 61.5302 32.4361 61.5302 32.3331C61.5302 32.2301 61.5302 32.0242 61.5302 31.8182C61.5302 31.3032 61.5302 30.6852 61.5302 29.8613L61.6332 29.9643C60.8093 29.9643 59.8823 29.9643 58.9554 29.9643L59.0584 29.8613V29.9643V30.1703C59.0584 30.2733 59.0584 30.3763 59.0584 30.4793C59.0584 30.6852 59.0584 30.9942 59.0584 31.2002C59.0584 31.6122 59.0584 32.0242 59.0584 32.4361L58.9554 32.3331C59.7794 32.3331 60.3973 32.3331 60.9123 32.3331C61.1183 32.3331 61.3243 32.3331 61.4273 32.3331C61.4273 32.5391 61.5302 32.5391 61.5302 32.5391C61.5302 32.5391 61.3243 32.5391 60.8093 32.5391C60.2943 32.5391 59.6764 32.5391 58.8524 32.5391H58.7494V32.4361C58.7494 32.0242 58.7494 31.6122 58.7494 31.2002C58.7494 30.9942 58.7494 30.7882 58.7494 30.4793C58.7494 30.3763 58.7494 30.2733 58.7494 30.1703V29.9643V29.8613C58.6464 29.9643 58.8524 29.7583 58.8524 29.7583C59.8823 29.7583 60.7063 29.7583 61.5302 29.7583H61.6332V29.8613C61.6332 30.6852 61.6332 31.4062 61.6332 31.8182C61.5302 32.3331 61.5302 32.5391 61.5302 32.5391Z" fill="#0A100C"/>
<path d="M58.8524 32.5391C58.8524 32.5391 59.3674 31.9212 60.0883 31.0972C60.8093 30.3763 61.4273 29.7583 61.5302 29.8613C61.5302 29.8613 61.0153 30.4793 60.2943 31.3032C59.4704 32.0242 58.8524 32.6421 58.8524 32.5391Z" fill="#D71A22"/>
<path d="M65.032 29.8613H62.3542V32.5391H65.032V29.8613Z" fill="#0A100C"/>
<path d="M68.5338 29.8613H65.856V32.5391H68.5338V29.8613Z" fill="#375A64"/>
<path d="M72.0356 29.8613H69.3578V32.5391H72.0356V29.8613Z" fill="#D71A22"/>
<path d="M75.5374 29.8613H72.8596V32.5391H75.5374V29.8613Z" fill="#D71A22"/>
<g opacity="0.5">
<g opacity="0.5">
<path opacity="0.5" d="M75.5374 29.8613H72.8596V32.5391H75.5374V29.8613Z" fill="white"/>
</g>
</g>
<path d="M79.0392 29.8613H76.3613V32.5391H79.0392V29.8613Z" fill="#D71A22"/>
<g opacity="0.3">
<g opacity="0.3">
<path opacity="0.3" d="M79.0392 29.8613H76.3613V32.5391H79.0392V29.8613Z" fill="black"/>
</g>
</g>
<path d="M82.5409 29.8613H79.8631V32.5391H82.5409V29.8613Z" fill="#D71A22"/>
<g opacity="0.7">
<g opacity="0.7">
<path opacity="0.7" d="M82.5409 29.8613H79.8631V32.5391H82.5409V29.8613Z" fill="black"/>
</g>
</g>
<path d="M77.3912 61.4803C78.6426 61.4803 79.6571 60.4658 79.6571 59.2144C79.6571 57.963 78.6426 56.9485 77.3912 56.9485C76.1398 56.9485 75.1254 57.963 75.1254 59.2144C75.1254 60.4658 76.1398 61.4803 77.3912 61.4803Z" fill="#0A100C"/>
<path d="M78.1122 59.2145C78.1122 59.6264 77.7002 60.0384 77.2882 60.0384C76.8763 60.0384 76.4643 59.6264 76.4643 59.2145C76.4643 58.8025 76.8763 58.3905 77.2882 58.3905C77.8032 58.3905 78.1122 58.8025 78.1122 59.2145Z" fill="#375A64"/>
<path d="M68.3 70.2V76.8L60.9 87.6C59.6 89.5 58.7 91 58 92.3C57.4 93.5 56.9 94.7 56.5 95.8C56.1 96.9 55.9 98.2 55.8 99.6C55.7 101 55.6 102.7 55.6 104.8C55.6 106.6 55.6 108.1 55.6 109.3C55.6 110.4 55.7 111.3 55.7 111.9C55.8 112.5 55.9 113 56 113.3C56.1 113.6 56.3 113.9 56.4 114.2C56.7 114.6 57 114.9 57.4 115.1C57.8 115.3 58.4 115.3 59.2 115.3C60.1 115.3 60.7 115.2 61 115.1C61.4 114.9 61.7 114.6 61.9 114.2C62 113.9 62.2 113.7 62.3 113.4C62.4 113.1 62.5 112.7 62.6 112.1C62.7 111.5 62.7 110.8 62.7 109.9C62.7 109 62.7 107.8 62.7 106.4C62.7 104.9 62.7 103.8 62.7 103.1C62.7 102.5 62.7 101.9 62.6 101.4H68.1C68.2 102.1 68.2 102.8 68.2 103.5C68.2 104.2 68.2 105.2 68.2 106.4C68.2 108 68.2 109.5 68.1 110.7C68.1 111.9 68 113 67.9 113.9C67.8 114.8 67.7 115.6 67.5 116.3C67.3 117 67 117.5 66.7 118C66.3 118.6 65.9 119.1 65.5 119.5C65.1 119.9 64.7 120.2 64.1 120.5C63.5 120.7 62.8 120.9 62 121C61.2 121.1 60.2 121.2 59 121.2C56.5 121.2 54.7 120.9 53.5 120.4C52.4 119.9 51.5 119 50.9 117.6C50.6 117 50.4 116.4 50.2 115.7C50 115.1 49.9 114.3 49.8 113.4C49.7 112.5 49.6 111.3 49.6 110C49.6 108.7 49.5 107 49.5 105C49.5 103.4 49.5 102 49.5 100.9C49.5 99.8 49.6 98.9 49.6 98.2C49.7 97.5 49.8 96.8 49.9 96.2C50 95.6 50.2 95.1 50.4 94.5C50.6 93.8 50.9 93.2 51.1 92.6C51.4 92 51.7 91.4 52.1 90.7C52.5 90 52.9 89.3 53.4 88.4C53.9 87.6 54.5 86.6 55.2 85.5L60.9 76.8C60.8 76.6 60.8 76.5 60.8 76.4H50.1V70.4H68.3V70.2Z" fill="#2B9EE7"/>
<path d="M40.9 89.4C40.9 89 41 88.5 41 87.9C41 87.4 41 86.7 41 86C41 84.5 41 83.3 41 82.3C41 81.4 40.9 80.6 40.9 79.9C40.8 79.3 40.7 78.7 40.6 78.3C40.5 77.9 40.3 77.4 40.1 77C39.9 76.5 39.6 76.1 39.1 75.9C38.7 75.7 38 75.6 37 75.6C36.1 75.6 35.4 75.7 35.1 76C34.8 76.2 34.5 76.6 34.3 77.1C34.1 77.5 34 78 33.9 78.5C33.8 79 33.7 79.7 33.7 80.6C33.7 81.5 33.6 82.7 33.6 84.2C33.6 85.7 33.6 87.8 33.6 90.3C33.6 91.9 33.6 93.2 33.6 94.2C33.6 95.2 33.7 96 33.7 96.6C33.8 97.2 33.9 97.6 34 97.9C34.1 98.2 34.3 98.4 34.4 98.7C34.7 99.1 35 99.3 35.3 99.4C35.6 99.5 36.1 99.6 36.9 99.6C37.6 99.6 38.1 99.6 38.4 99.5C38.7 99.4 39 99.3 39.4 99C40.1 98.5 40.6 97.9 40.9 97.2L45.7 98.7L44.6 120.3H28.3V114.3H39.3L40 103.3L39.7 103.2C39.3 103.7 38.7 104.1 37.9 104.4C37.2 104.7 36.2 104.8 34.9 104.8C33.6 104.8 32.7 104.7 32 104.4C31.3 104.1 30.7 103.6 30.1 102.9C29.7 102.4 29.3 101.8 29 101.2C28.7 100.6 28.5 99.8 28.3 98.9C28.1 98 28 96.8 27.9 95.5C27.8 94.2 27.8 92.5 27.8 90.5C27.8 88.1 27.8 86 27.9 84.2C28 82.4 28.1 80.9 28.2 79.5C28.3 78.2 28.5 77 28.7 76C28.9 75 29.2 74.2 29.5 73.5C30.1 72 31 70.9 32.2 70.3C33.4 69.7 35.2 69.4 37.5 69.4C39.2 69.4 40.6 69.6 41.8 70.1C42.9 70.6 43.9 71.4 44.5 72.6C45.2 73.8 45.7 75.4 46 77.4C46.3 79.4 46.5 81.9 46.5 84.9C46.5 86 46.5 86.9 46.5 87.5C46.5 88.1 46.4 88.7 46.3 89.4H40.9Z" fill="#2B9EE7"/>
</svg>
