<svg width="94" height="129" viewBox="0 0 94 129" fill="none" xmlns="http://www.w3.org/2000/svg">
<path d="M89.0164 129H4.28365C1.88063 129 0 127.044 0 124.779V4.22104C0 1.85313 1.98511 0 4.28365 0H89.0164C91.4194 0 93.3 1.95608 93.3 4.22104V124.779C93.3 127.147 91.4194 129 89.0164 129Z" fill="#C8E1FF"/>
<path d="M87.6 126.8H6.50003C4.20003 126.8 2.40002 124.9 2.40002 122.7V5.60001C2.40002 3.30001 4.30003 1.5 6.50003 1.5H87.6C89.9 1.5 91.7 3.40001 91.7 5.60001V122.7C91.7 124.9 89.9 126.8 87.6 126.8Z" fill="#EEF5FF"/>
<path d="M19.5564 118L19.5564 118.44L18.9964 118.44L18.9964 118C18.9964 117.643 19.1057 117.365 19.3244 117.168C19.5431 116.976 19.8711 116.88 20.3084 116.88C20.7457 116.88 21.0764 116.976 21.3004 117.168C21.5244 117.365 21.6364 117.643 21.6364 118L21.6364 121.2C21.6364 121.557 21.5271 121.832 21.3084 122.024C21.0897 122.221 20.7617 122.32 20.3244 122.32C19.8871 122.32 19.5564 122.221 19.3324 122.024C19.1084 121.832 18.9964 121.557 18.9964 121.2L18.9964 120.44L19.5564 120.44L19.5564 121.2C19.5564 121.627 19.8097 121.84 20.3164 121.84C20.8231 121.84 21.0764 121.627 21.0764 121.2L21.0764 118C21.0764 117.573 20.8231 117.36 20.3164 117.36C19.8097 117.36 19.5564 117.573 19.5564 118ZM16.8985 122.2L16.0585 122.2L14.8825 117L15.4425 117L15.7145 118.2L17.2425 118.2L17.5145 117L18.0745 117L16.8985 122.2ZM16.4825 121.576L17.1385 118.68L15.8265 118.68L16.4825 121.576ZM13.2064 117L13.7664 117L13.7664 122.2L11.5664 122.2L11.5664 121.72L13.2064 121.72L13.2064 119.88L11.8864 119.88L11.8864 119.4L13.2064 119.4L13.2064 117ZM8.08609 117L10.4461 117L10.4461 122.2L8.16609 122.2L8.16609 121.72L9.88609 121.72L9.88609 119.88L8.48609 119.88L8.48609 119.4L9.88609 119.4L9.88609 117.48L8.08609 117.48L8.08609 117ZM8.51809 123.344L8.82209 123.04L9.72609 122.584L9.93409 122.792L8.95009 123.776L8.51809 123.344Z" fill="#2B9EE7"/>
<path d="M72.9436 11V10.56H73.5036V11C73.5036 11.3573 73.3943 11.6347 73.1756 11.832C72.9569 12.024 72.6289 12.12 72.1916 12.12C71.7543 12.12 71.4236 12.024 71.1996 11.832C70.9756 11.6347 70.8636 11.3573 70.8636 11V7.8C70.8636 7.44267 70.9729 7.168 71.1916 6.976C71.4103 6.77867 71.7383 6.68 72.1756 6.68C72.6129 6.68 72.9436 6.77867 73.1676 6.976C73.3916 7.168 73.5036 7.44267 73.5036 7.8V8.56H72.9436V7.8C72.9436 7.37333 72.6903 7.16 72.1836 7.16C71.6769 7.16 71.4236 7.37333 71.4236 7.8V11C71.4236 11.4267 71.6769 11.64 72.1836 11.64C72.6903 11.64 72.9436 11.4267 72.9436 11ZM75.6015 6.8H76.4415L77.6175 12H77.0575L76.7855 10.8H75.2575L74.9855 12H74.4255L75.6015 6.8ZM76.0175 7.424L75.3615 10.32H76.6735L76.0175 7.424ZM79.2936 12H78.7336V6.8H80.9336V7.28H79.2936V9.12H80.6136V9.6H79.2936V12ZM84.4139 12H82.0539V6.8H84.3339V7.28H82.6139V9.12H84.0139V9.6H82.6139V11.52H84.4139V12ZM83.9819 5.656L83.6779 5.96L82.7739 6.416L82.5659 6.208L83.5499 5.224L83.9819 5.656Z" fill="#2B9EE7"/>
<path d="M9.07 8.25C9.07 8.55 8.89 8.73 8.506 8.73C8.116 8.73 7.93 8.55 7.93 8.25V5.85C7.93 5.55 8.11 5.37 8.494 5.37C8.884 5.37 9.07 5.55 9.07 5.85V6.42H9.49V5.85C9.49 5.328 9.166 5.01 8.494 5.01C7.822 5.01 7.51 5.328 7.51 5.85V8.25C7.51 8.772 7.834 9.09 8.506 9.09C9.178 9.09 9.49 8.772 9.49 8.25V7.92H9.07V8.25Z" fill="#2B9EE7"/>
<path d="M87.93 120.75C87.93 120.45 88.11 120.27 88.494 120.27C88.884 120.27 89.07 120.45 89.07 120.75L89.07 123.15C89.07 123.45 88.89 123.63 88.506 123.63C88.116 123.63 87.93 123.45 87.93 123.15L87.93 122.58L87.51 122.58L87.51 123.15C87.51 123.672 87.834 123.99 88.506 123.99C89.178 123.99 89.49 123.672 89.49 123.15L89.49 120.75C89.49 120.228 89.166 119.91 88.494 119.91C87.822 119.91 87.51 120.228 87.51 120.75L87.51 121.08L87.93 121.08L87.93 120.75Z" fill="#2B9EE7"/>
<path d="M40.4669 106.883L40.4646 106.883C40.3958 106.877 40.3284 106.872 40.2623 106.867C39.5679 106.813 39.0243 106.77 38.607 106.705C38.1371 106.632 37.8947 106.538 37.7788 106.425C37.692 106.34 37.6379 106.203 37.7146 105.875C37.7924 105.542 37.9899 105.083 38.3124 104.436C38.7633 103.532 39.2653 103.089 39.8056 102.613C40.0083 102.434 40.2162 102.25 40.4289 102.036C41.2088 101.251 41.9169 100.148 42.3821 97.5782C42.7295 95.6589 42.8971 94.187 43.0466 92.8744C43.0951 92.4489 43.1416 92.0401 43.1918 91.6382C43.3965 89.9979 43.6627 88.4545 44.3666 86.3067C44.6618 85.4058 44.9741 84.5295 45.2775 83.678C45.6948 82.5067 46.0954 81.3824 46.412 80.3057C46.9633 78.4308 47.2829 76.6344 47.0321 74.8339C46.9102 73.9593 46.8108 73.1825 46.7657 72.5138C46.7205 71.8424 46.7317 71.2982 46.822 70.8832C46.9117 70.4709 47.072 70.2177 47.301 70.0779C47.5354 69.9348 47.8947 69.8776 48.4531 69.9779C49.59 70.1832 50.8348 70.8588 52.1378 71.5926C52.212 71.6344 52.2863 71.6764 52.3608 71.7184C53.5752 72.4037 54.8318 73.1127 56.0286 73.4334C57.2977 73.7735 59.0857 73.8215 60.775 73.8356C61.0143 73.8376 61.2514 73.8389 61.485 73.8402C62.9247 73.8482 64.2285 73.8555 65.0627 74.0141C65.7692 74.1484 66.7831 74.4376 67.9584 74.7729C68.4214 74.9049 68.9094 75.0441 69.4136 75.1838C71.1835 75.6743 73.1369 76.1658 74.8227 76.3418C76.019 76.4667 77.3749 76.5304 78.6346 76.5897C79.1345 76.6132 79.6192 76.6359 80.0728 76.6615C80.8762 76.7069 81.5797 76.7609 82.1079 76.842C82.3726 76.8826 82.584 76.9287 82.7382 76.9804C82.8151 77.0062 82.8717 77.0314 82.9112 77.0544C82.9306 77.0657 82.944 77.0753 82.9527 77.0827C82.9615 77.0901 82.9641 77.0939 82.9638 77.0934L82.9636 77.0936L82.9704 77.1025C83.0543 77.2107 83.1322 77.404 83.1743 77.6817C83.2156 77.9545 83.2193 78.2888 83.1723 78.6596C83.0782 79.4014 82.7842 80.2694 82.2142 81.0572C80.9948 82.7425 79.9518 85.3455 80.0198 87.9662C80.0522 89.2179 79.7719 91.9256 79.2458 94.709C78.7184 97.4996 77.9542 100.308 77.0421 101.787C75.1362 104.877 74.3099 109.034 74.3713 111.271C74.4015 112.369 74.406 113.433 74.2446 114.305C74.0823 115.18 73.7648 115.795 73.2079 116.082C72.6895 116.349 72.1702 116.161 71.3752 115.595C71.1104 115.406 70.8302 115.187 70.5205 114.945C70.3715 114.828 70.2156 114.707 70.0514 114.58C69.5504 114.195 68.983 113.777 68.3285 113.371C67.007 112.552 65.0775 111.9 63.3222 111.442C61.5653 110.984 59.9483 110.713 59.2371 110.67C58.5634 110.629 56.6075 110.363 54.5823 110.034C52.5548 109.705 50.4947 109.319 49.606 109.043L49.6059 109.043L49.6026 109.042L49.5896 109.038L49.539 109.022C49.4945 109.008 49.429 108.988 49.3446 108.962C49.1758 108.91 48.9313 108.835 48.6281 108.745C48.0219 108.565 47.1804 108.322 46.2395 108.069C44.3636 107.567 42.0729 107.024 40.4669 106.883Z" fill="white" stroke="#2B9EE7" stroke-width="0.5"/>
<path d="M74.8152 94.6843C74.8152 94.6843 72.061 94.2313 70.7335 97.7355C69.3995 101.264 67.8478 106.185 63.0574 104.823C62.1631 104.584 59.931 107.017 55.8795 105.024C51.8281 103.032 49.5399 99.7766 49.8139 95.7569C49.704 94.7171 49.7385 94.1047 48.1191 93.6707C46.4997 93.2368 38.9962 90.7859 40.5092 84.5595C41.3641 81.369 44.1494 79.9652 44.1494 79.9652C44.1494 79.9652 37.9782 74.089 42.7334 68.5241C47.4886 62.9592 57.7698 67.7088 58.079 70.6153C60.4691 93.7935 66.7129 78.0322 73.998 75.7875C77.8598 74.6203 87.1739 78.0486 86.8059 81.1623C86.4378 84.276 83.6097 86.4196 81.8142 86.3529C81.8142 86.3529 84.209 89.4038 83.418 91.6788C83.4245 91.6547 82.9848 95.4227 74.8152 94.6843Z" fill="#A8C909"/>
<path d="M68.5912 89.7784C68.5912 89.7784 70.5506 91.6505 70.1438 93.4586C69.7129 95.2601 68.1256 93.6431 68.1256 93.6431C68.1256 93.6431 64.0093 97.3068 62.9148 101.392C62.9148 101.392 57.0797 92.1341 54.1996 90.5075C54.1996 90.5075 52.5935 91.0875 52.421 89.7978C52.2484 88.5081 53.7005 87.3428 55.339 86.642C55.339 86.642 56.5305 83.6454 58.2804 82.819C60.0302 81.9926 62.5695 81.5072 63.2946 81.7015C64.0197 81.8958 66.851 83.8979 67.9368 85.7432C69.0096 87.6368 68.5912 89.7784 68.5912 89.7784Z" fill="#E5AB83"/>
<path d="M54.7641 91.5913C54.7641 91.5913 56.4197 92.7603 57.8863 92.8942C58.1168 92.9042 58.0145 93.5762 57.916 93.6535C57.7935 93.7242 56.3256 93.305 55.5737 92.5336C54.8042 91.7316 54.408 91.47 54.7641 91.5913Z" fill="#9AAD0E"/>
<path d="M66.5561 94.5697C66.5561 94.5697 64.5119 94.8509 63.1878 94.1852C62.9832 94.0786 62.7099 94.8085 62.7565 94.9246C62.8273 95.0472 64.3017 95.4422 65.3644 95.0534C66.4206 94.6888 66.9251 94.6426 66.5561 94.5697Z" fill="#9AAD0E"/>
<path d="M66.1091 92.2738C66.1091 92.2738 66.2379 91.1167 65.5611 90.9353C64.8843 90.754 64.6106 91.8723 64.6106 91.8723C64.6106 91.8723 64.0819 91.912 64.0365 92.0811C63.9912 92.2503 64.1362 92.2892 64.1362 92.2892C64.1362 92.2892 64.5847 91.969 65.334 92.1697C66.0591 92.364 66.2632 92.8591 66.2632 92.8591C66.2632 92.8591 66.5614 92.8095 66.4005 92.6368C66.2088 92.4819 66.1091 92.2738 66.1091 92.2738Z" fill="#29160D"/>
<path d="M56.6793 89.9544C56.6793 89.9544 57.1464 88.8879 57.8232 89.0692C58.5 89.2506 58.1779 90.3559 58.1779 90.3559C58.1779 90.3559 58.6159 90.6546 58.5706 90.8238C58.5253 90.993 58.3802 90.9542 58.3802 90.9542C58.3802 90.9542 58.152 90.4526 57.4027 90.2518C56.6776 90.0575 56.2533 90.3842 56.2533 90.3842C56.2533 90.3842 56.0198 90.1921 56.2455 90.1231C56.489 90.0847 56.6793 89.9544 56.6793 89.9544Z" fill="#29160D"/>
<path d="M64.5615 85.7713C64.5615 85.7713 63.6651 84.5727 63.1429 84.5882C62.6206 84.6036 62.5451 84.4021 62.2309 84.3179C61.9344 84.2643 60.4767 84.6768 60.4767 84.6768C60.4767 84.6768 61.8004 85.731 62.3132 85.5575C62.3067 85.5817 62.8203 86.082 64.5615 85.7713Z" fill="#D9987D"/>
<path d="M62.1115 92.4979C62.1115 92.4979 62.0609 89.013 63.4469 87.8042C63.4469 87.8042 62.6709 87.0263 62.276 87.05L62.0161 87.3431C62.0161 87.3431 62.5319 87.3518 63.023 87.7424C63.023 87.7424 61.813 90.0347 61.8875 92.4638L62.105 92.5221L62.1115 92.4979Z" fill="#D9987D"/>
<path d="M63.6166 41.9986C64.9781 43.3282 66.6416 43.9625 68.297 43.7839C69.8808 43.6129 71.313 42.7093 72.3503 41.2361C72.4371 41.2339 72.5294 41.2167 72.6147 41.2003C73.2336 41.0903 73.8964 40.7163 74.4748 40.1641C75.7427 38.9469 76.2179 37.3038 75.572 36.358C75.2277 35.855 74.6332 35.6526 73.937 35.7854C73.936 35.6415 73.9349 35.4975 73.9275 35.3615C73.9149 35.1108 73.802 34.8708 73.6259 34.717C73.4736 34.5822 73.2789 34.524 73.0854 34.5449L61.6477 35.7793C61.4542 35.8002 61.2842 35.905 61.1563 36.0628C61.0107 36.2586 60.9508 36.5099 60.9928 36.7647C61.3461 38.8297 62.2797 40.6952 63.6166 41.9986Z" fill="#A8C909"/>
<path d="M66.2977 42.5231C66.3336 42.5192 66.3607 42.5019 66.3799 42.4782C66.3991 42.4546 66.4104 42.4245 66.4065 42.3889C66.4027 42.3533 66.3853 42.3264 66.3615 42.3074C66.3139 42.2693 66.235 42.2778 66.1895 42.3259C66.1703 42.3496 66.1598 42.3868 66.1629 42.4152C66.1659 42.4437 66.1841 42.4778 66.2079 42.4968C66.2389 42.5151 66.2691 42.5262 66.2977 42.5231Z" fill="#A8C909"/>
<path d="M67.1723 41.9606C67.2081 41.9567 67.2353 41.9394 67.2544 41.9157C67.2736 41.892 67.2849 41.862 67.2811 41.8264C67.2772 41.7908 67.2598 41.7639 67.236 41.7448C67.1884 41.7068 67.1096 41.7153 67.064 41.7634C67.0448 41.7871 67.0343 41.8242 67.0374 41.8527C67.0405 41.8812 67.0586 41.9152 67.0825 41.9343C67.1134 41.9525 67.1436 41.9637 67.1723 41.9606Z" fill="#A8C909"/>
<path d="M70.3121 40.5557C70.3408 40.5526 70.3679 40.5353 70.3871 40.5116C70.4063 40.4879 70.4168 40.4508 70.4137 40.4223C70.4106 40.3938 70.3932 40.3669 70.3687 40.3407C70.3448 40.3217 70.3075 40.3113 70.2716 40.3152C70.243 40.3183 70.2159 40.3356 70.1967 40.3593C70.1782 40.3901 70.167 40.4201 70.17 40.4486C70.1739 40.4842 70.1985 40.5104 70.2151 40.5302C70.2461 40.5484 70.2763 40.5596 70.3121 40.5557Z" fill="#A8C909"/>
<path d="M69.1809 41.2252C69.2096 41.2221 69.2439 41.204 69.263 41.1804C69.2822 41.1567 69.2927 41.1195 69.2897 41.0911C69.2858 41.0555 69.2684 41.0285 69.2446 41.0095C69.1891 40.9651 69.1174 40.9728 69.0726 41.028C69.0534 41.0517 69.0422 41.0818 69.046 41.1173C69.0491 41.1458 69.0672 41.1799 69.0911 41.1989C69.1149 41.218 69.1451 41.2291 69.1809 41.2252Z" fill="#A8C909"/>
<path d="M70.0642 41.8862C70.0929 41.8831 70.12 41.8657 70.1464 41.8413C70.1656 41.8176 70.1761 41.7805 70.173 41.752C70.1691 41.7164 70.1517 41.6895 70.1279 41.6704C70.1041 41.6514 70.0739 41.6402 70.0381 41.6441C70.0023 41.648 69.9751 41.6653 69.9552 41.6819C69.936 41.7055 69.9255 41.7427 69.9286 41.7712C69.9324 41.8068 69.9498 41.8337 69.9736 41.8527C69.9982 41.8789 70.0355 41.8893 70.0642 41.8862Z" fill="#A8C909"/>
<path d="M70.3452 40.8619C70.3093 40.8657 70.2822 40.8831 70.2622 40.8996C70.243 40.9233 70.2325 40.9605 70.2356 40.9889C70.2395 41.0245 70.2569 41.0515 70.2807 41.0705C70.3045 41.0895 70.3418 41.0999 70.3705 41.0968C70.3992 41.0937 70.4263 41.0764 70.4527 41.0519C70.4719 41.0283 70.4824 40.9911 70.4793 40.9626C70.4754 40.927 70.458 40.9001 70.4342 40.8811C70.4104 40.862 70.381 40.858 70.3452 40.8619Z" fill="#A8C909"/>
<path d="M68.2498 42.4061C68.2857 42.4022 68.3128 42.3849 68.332 42.3612C68.3512 42.3375 68.3617 42.3004 68.3586 42.2719C68.3555 42.2434 68.3374 42.2094 68.3135 42.1903C68.2659 42.1523 68.1799 42.1615 68.1416 42.2089C68.1224 42.2326 68.1111 42.2626 68.1149 42.2982C68.1188 42.3338 68.1362 42.3607 68.16 42.3798C68.1838 42.3988 68.2212 42.4092 68.2498 42.4061Z" fill="#A8C909"/>
<path d="M67.5878 42.9889C67.6164 42.9858 67.6436 42.9685 67.6699 42.944C67.6891 42.9203 67.6996 42.8832 67.6965 42.8547C67.6935 42.8262 67.6753 42.7922 67.6515 42.7732C67.5967 42.7359 67.5179 42.7444 67.4795 42.7917C67.4603 42.8154 67.449 42.8454 67.4529 42.881C67.4567 42.9166 67.4669 42.9443 67.4979 42.9626C67.5289 42.9809 67.5591 42.992 67.5878 42.9889Z" fill="#A8C909"/>
<path d="M68.3128 42.7882C68.2937 42.8119 68.2824 42.8419 68.2862 42.8775C68.2901 42.9131 68.3003 42.9408 68.3313 42.9591C68.3623 42.9773 68.3925 42.9885 68.4211 42.9854C68.4498 42.9823 68.4841 42.9642 68.5033 42.9405C68.5225 42.9168 68.533 42.8797 68.5299 42.8512C68.5268 42.8227 68.5086 42.7887 68.4848 42.7696C68.4301 42.7323 68.3512 42.7409 68.3128 42.7882Z" fill="#A8C909"/>
<path d="M69.2547 42.7153C69.2834 42.7123 69.3105 42.6949 69.3369 42.6705C69.3561 42.6468 69.3666 42.6096 69.3635 42.5812C69.3604 42.5527 69.3422 42.5186 69.3184 42.4996C69.2637 42.4623 69.1848 42.4708 69.1464 42.5182C69.1272 42.5418 69.116 42.5719 69.1198 42.6075C69.1237 42.6431 69.1339 42.6708 69.1649 42.689C69.1959 42.7073 69.2261 42.7184 69.2547 42.7153Z" fill="#A8C909"/>
<path d="M69.3038 41.7593C69.3076 41.7949 69.3179 41.8227 69.3488 41.8409C69.3798 41.8592 69.41 41.8703 69.4387 41.8672C69.4673 41.8641 69.5016 41.846 69.5208 41.8224C69.54 41.7987 69.5505 41.7615 69.5474 41.7331C69.5444 41.7046 69.5262 41.6705 69.5024 41.6515C69.4476 41.6142 69.3688 41.6227 69.3304 41.67C69.304 41.6945 69.2999 41.7238 69.3038 41.7593Z" fill="#A8C909"/>
<path d="M71.4277 39.2037C71.4563 39.2006 71.4906 39.1825 71.5027 39.1596C71.5219 39.1359 71.5331 39.1059 71.5293 39.0703C71.5254 39.0347 71.508 39.0078 71.4842 38.9887C71.4604 38.9697 71.4231 38.9593 71.3944 38.9624C71.3586 38.9663 71.3314 38.9836 71.3194 39.0065C71.3002 39.0302 71.2897 39.0673 71.2928 39.0958C71.2959 39.1243 71.314 39.1584 71.3378 39.1774C71.3616 39.1964 71.3918 39.2076 71.4277 39.2037Z" fill="#A8C909"/>
<path d="M71.446 40.2461C71.4746 40.243 71.5089 40.2249 71.5281 40.2012C71.5465 40.1704 71.5578 40.1404 71.5547 40.1119C71.5509 40.0763 71.5335 40.0494 71.5097 40.0303C71.4859 40.0113 71.4557 40.0002 71.4198 40.004C71.384 40.0079 71.3569 40.0252 71.3377 40.0489C71.3185 40.0726 71.308 40.1097 71.3111 40.1382C71.3141 40.1667 71.3323 40.2007 71.3561 40.2198C71.3799 40.2388 71.4101 40.25 71.446 40.2461Z" fill="#A8C909"/>
<path d="M71.1448 41.3518C71.1734 41.3487 71.2077 41.3306 71.2198 41.3077C71.2461 41.2832 71.2574 41.2532 71.2535 41.2176C71.2497 41.182 71.2323 41.1551 71.2085 41.136C71.1847 41.117 71.1473 41.1066 71.1115 41.1105C71.0828 41.1136 71.0557 41.1309 71.0365 41.1546C71.0173 41.1783 71.0068 41.2154 71.0099 41.2439C71.013 41.2724 71.0311 41.3064 71.0549 41.3255C71.0787 41.3445 71.1161 41.3549 71.1448 41.3518Z" fill="#A8C909"/>
<path d="M71.9136 37.257C71.9422 37.2539 71.9765 37.2358 71.9886 37.2129C72.0149 37.1885 72.0262 37.1584 72.0223 37.1228C72.0185 37.0872 72.0011 37.0603 71.9773 37.0413C71.9535 37.0222 71.9161 37.0119 71.8803 37.0157C71.8516 37.0188 71.8245 37.0362 71.8053 37.0598C71.7861 37.0835 71.7756 37.1207 71.7787 37.1491C71.7818 37.1776 71.7999 37.2117 71.8237 37.2307C71.8475 37.2497 71.8777 37.2609 71.9136 37.257Z" fill="#A8C909"/>
<path d="M72.6589 37.7816C72.6876 37.7785 72.7219 37.7604 72.7411 37.7367C72.7603 37.713 72.7708 37.6759 72.7677 37.6474C72.7646 37.6189 72.7465 37.5848 72.7227 37.5658C72.6989 37.5468 72.6686 37.5356 72.6328 37.5395C72.597 37.5434 72.5699 37.5607 72.5507 37.5844C72.5315 37.6081 72.5202 37.6381 72.524 37.6737C72.5279 37.7093 72.5453 37.7362 72.5683 37.7481C72.5857 37.7751 72.6231 37.7854 72.6589 37.7816Z" fill="#A8C909"/>
<path d="M72.5149 38.7983C72.5436 38.7952 72.5707 38.7778 72.5971 38.7534C72.6163 38.7297 72.6275 38.6997 72.6237 38.6641C72.6199 38.6285 72.6024 38.6015 72.5786 38.5825C72.5548 38.5635 72.5246 38.5523 72.4888 38.5562C72.453 38.5601 72.4258 38.5774 72.4066 38.6011C72.3875 38.6247 72.377 38.6619 72.38 38.6904C72.3839 38.726 72.4013 38.7529 72.4251 38.7719C72.4489 38.791 72.4791 38.8021 72.5149 38.7983Z" fill="#A8C909"/>
<path d="M67.4436 29.2261C67.3571 29.3651 67.2619 29.4906 67.1452 29.6184C67.0293 29.7534 66.899 29.8899 66.7695 30.0335C66.5105 30.3208 66.2195 30.6475 66.0196 31.0796C65.819 31.5046 65.7668 32.0288 65.8805 32.4775C65.987 32.9269 66.2243 33.3119 66.5105 33.6123C66.8038 33.9119 67.1348 34.1571 67.5131 34.3036C67.0188 33.6871 66.6689 32.9974 66.6356 32.3528C66.6225 32.0301 66.6936 31.7487 66.8395 31.4881C66.9925 31.2267 67.218 30.9646 67.4777 30.6845C67.9789 30.1551 68.6785 29.3161 68.4645 28.2732C68.4082 28.02 68.273 27.7753 68.0882 27.608C67.9098 27.4328 67.7025 27.3255 67.5061 27.2531C67.1214 27.1145 66.7603 27.0599 66.394 26.8905C66.6195 27.2335 67.0048 27.444 67.2832 27.6733C67.5761 27.9009 67.7256 28.1441 67.7238 28.3964C67.73 28.655 67.6174 28.9553 67.4436 29.2261Z" fill="#A8C909"/>
<path d="M65.3557 33.9962C64.9943 33.6031 64.7142 33.1579 64.6062 32.6942C64.4974 32.2234 64.5923 31.7594 64.8628 31.3773C65.1469 30.9865 65.5392 30.5913 65.7966 30.0881C65.9218 29.8369 66.028 29.5446 65.9878 29.2392C65.9396 28.9275 65.7192 28.6992 65.4825 28.5879C65.6568 28.7923 65.7761 29.0244 65.7577 29.2568C65.7385 29.4822 65.6167 29.697 65.479 29.8991C65.1893 30.3049 64.8131 30.648 64.4707 31.1027C64.3082 31.3435 64.1869 31.6303 64.1395 31.9307C64.1065 32.2296 64.1324 32.5365 64.2412 32.8057C64.4445 33.3455 64.8735 33.7602 65.3557 33.9962Z" fill="#A8C909"/>
<path d="M68.1461 31.3686C68.0266 31.6048 67.9611 31.8712 67.9608 32.1377C67.9678 32.4034 68.0313 32.6559 68.1426 32.8815C68.3653 33.3329 68.7429 33.6739 69.1624 33.8663C68.8565 33.5175 68.612 33.1334 68.4894 32.7361C68.3596 32.3395 68.3882 31.9331 68.5687 31.5895C68.7491 31.2459 69.0838 30.9217 69.3536 30.5325C69.492 30.3375 69.6131 30.1155 69.6737 29.8713C69.7272 29.6279 69.7059 29.3637 69.5961 29.1522C69.6189 29.6323 69.3668 29.9837 69.0664 30.2898C68.7746 30.6094 68.4002 30.9019 68.1461 31.3686Z" fill="#A8C909"/>
<path d="M73.8534 37.2277C74.1874 37.098 74.4643 37.1114 74.5498 37.2318C74.6108 37.326 74.6369 37.5681 74.4961 37.9434C74.3441 38.3488 74.0488 38.7696 73.6741 39.1269C73.5431 39.2563 73.4162 39.3564 73.2956 39.4487C73.5681 38.7494 73.7485 38.0025 73.8534 37.2277Z" fill="#EEF5FF"/>
<path d="M34.9805 87.6064C34.1908 85.875 32.8685 84.683 31.2601 84.252C29.7214 83.8397 28.0596 84.1655 26.5605 85.1649C26.4788 85.1356 26.3864 85.1183 26.301 85.1028C25.6842 84.982 24.931 85.0916 24.1923 85.3977C22.5705 86.0752 21.5343 87.436 21.7951 88.5512C21.9346 89.1446 22.4161 89.5479 23.1132 89.6754C23.0622 89.81 23.0113 89.9446 22.9691 90.0741C22.8903 90.3125 22.909 90.577 23.0177 90.784C23.111 90.9647 23.2717 91.0893 23.4596 91.1397L34.5718 94.1172C34.7597 94.1675 34.9561 94.1312 35.1324 94.0301C35.3388 93.9001 35.4854 93.6873 35.5382 93.4346C35.9541 91.3813 35.7568 89.3045 34.9805 87.6064Z" fill="#A8C909"/>
<path d="M32.6696 86.1495C32.6347 86.1401 32.6032 86.1465 32.5767 86.1617C32.5503 86.1768 32.529 86.2008 32.5197 86.2353C32.5104 86.2699 32.5169 86.3013 32.5323 86.3277C32.5629 86.3804 32.6395 86.4009 32.6994 86.3724C32.7258 86.3573 32.749 86.3264 32.7564 86.2988C32.7638 86.2711 32.7592 86.2328 32.7438 86.2064C32.7215 86.1782 32.6974 86.1569 32.6696 86.1495Z" fill="#A8C909"/>
<path d="M31.6509 86.3584C31.6161 86.3491 31.5845 86.3555 31.5581 86.3706C31.5316 86.3858 31.5103 86.4097 31.501 86.4443C31.4918 86.4789 31.4983 86.5103 31.5136 86.5366C31.5443 86.5893 31.6209 86.6098 31.6807 86.5814C31.7072 86.5662 31.7304 86.5354 31.7378 86.5077C31.7452 86.4801 31.7405 86.4417 31.7252 86.4154C31.7029 86.3872 31.6788 86.3659 31.6509 86.3584Z" fill="#A8C909"/>
<path d="M28.2157 86.5351C28.1878 86.5277 28.1563 86.534 28.1298 86.5492C28.1034 86.5644 28.0802 86.5952 28.0728 86.6229C28.0654 86.6505 28.0719 86.6819 28.0853 86.7152C28.1007 86.7416 28.1318 86.7647 28.1666 86.774C28.1944 86.7815 28.226 86.7751 28.2524 86.76C28.2807 86.7379 28.3021 86.714 28.3095 86.6863C28.3188 86.6517 28.3053 86.6185 28.2969 86.594C28.2746 86.5658 28.2505 86.5445 28.2157 86.5351Z" fill="#A8C909"/>
<path d="M29.5123 86.3191C29.4844 86.3117 29.4459 86.3162 29.4195 86.3313C29.393 86.3465 29.3698 86.3773 29.3624 86.405C29.3531 86.4396 29.3597 86.471 29.375 86.4973C29.4108 86.5588 29.4804 86.5775 29.5421 86.5421C29.5685 86.5269 29.5899 86.503 29.5991 86.4684C29.6066 86.4408 29.6019 86.4024 29.5866 86.3761C29.5712 86.3497 29.5471 86.3284 29.5123 86.3191Z" fill="#A8C909"/>
<path d="M28.9271 85.3839C28.8993 85.3764 28.8677 85.3828 28.8343 85.3961C28.8078 85.4112 28.7846 85.4421 28.7772 85.4698C28.768 85.5044 28.7745 85.5358 28.7898 85.5621C28.8051 85.5884 28.8293 85.6097 28.8641 85.6191C28.8989 85.6284 28.9305 85.622 28.9551 85.6138C28.9815 85.5986 29.0047 85.5678 29.0121 85.5401C29.0214 85.5055 29.0149 85.4741 28.9995 85.4478C28.9861 85.4145 28.955 85.3914 28.9271 85.3839Z" fill="#A8C909"/>
<path d="M28.2954 86.2377C28.3302 86.2471 28.3617 86.2407 28.3863 86.2324C28.4128 86.2173 28.436 86.1864 28.4434 86.1588C28.4526 86.1242 28.4461 86.0928 28.4308 86.0664C28.4155 86.0401 28.3844 86.0169 28.3565 86.0095C28.3287 86.002 28.2971 86.0084 28.2637 86.0217C28.2373 86.0368 28.2141 86.0677 28.2067 86.0953C28.1974 86.1299 28.2039 86.1613 28.2192 86.1877C28.2346 86.214 28.2606 86.2284 28.2954 86.2377Z" fill="#A8C909"/>
<path d="M30.8068 85.554C30.772 85.5447 30.7405 85.551 30.714 85.5662C30.6876 85.5813 30.6644 85.6122 30.657 85.6399C30.6495 85.6675 30.6542 85.7058 30.6695 85.7322C30.7002 85.7849 30.7837 85.8073 30.8366 85.777C30.8631 85.7618 30.8844 85.7379 30.8937 85.7033C30.9029 85.6687 30.8964 85.6373 30.8811 85.611C30.8658 85.5846 30.8347 85.5614 30.8068 85.554Z" fill="#A8C909"/>
<path d="M31.6346 85.2494C31.6068 85.242 31.5752 85.2484 31.5418 85.2616C31.5154 85.2768 31.4922 85.3077 31.4848 85.3353C31.4774 85.363 31.482 85.4013 31.4973 85.4277C31.535 85.4822 31.6116 85.5027 31.6644 85.4724C31.6909 85.4573 31.7122 85.4333 31.7215 85.3987C31.7308 85.3642 31.7312 85.3346 31.7089 85.3064C31.6866 85.2782 31.6625 85.2569 31.6346 85.2494Z" fill="#A8C909"/>
<path d="M30.886 85.1749C30.9125 85.1597 30.9338 85.1358 30.9431 85.1012C30.9523 85.0666 30.9528 85.0371 30.9305 85.0089C30.9082 84.9807 30.8841 84.9594 30.8562 84.9519C30.8284 84.9444 30.7898 84.9489 30.7634 84.9641C30.7369 84.9793 30.7137 85.0101 30.7063 85.0378C30.6989 85.0654 30.7036 85.1038 30.7189 85.1301C30.7565 85.1847 30.8331 85.2052 30.886 85.1749Z" fill="#A8C909"/>
<path d="M29.9814 84.9028C29.9535 84.8954 29.9219 84.9017 29.8885 84.915C29.8621 84.9302 29.8389 84.961 29.8315 84.9887C29.8241 85.0164 29.8287 85.0547 29.8441 85.081C29.8817 85.1356 29.9583 85.1561 30.0112 85.1258C30.0376 85.1107 30.0589 85.0867 30.0682 85.0521C30.0775 85.0175 30.0779 84.988 30.0556 84.9598C30.0333 84.9316 30.0092 84.9103 29.9814 84.9028Z" fill="#A8C909"/>
<path d="M29.5905 85.7767C29.5998 85.7421 29.6002 85.7126 29.5779 85.6843C29.5556 85.6561 29.5315 85.6348 29.5036 85.6274C29.4758 85.6199 29.4373 85.6244 29.4108 85.6396C29.3844 85.6547 29.3612 85.6856 29.3538 85.7132C29.3463 85.7409 29.351 85.7792 29.3663 85.8056C29.404 85.8601 29.4805 85.8807 29.5334 85.8504C29.5668 85.8371 29.5812 85.8113 29.5905 85.7767Z" fill="#A8C909"/>
<path d="M26.6873 87.3933C26.6594 87.3859 26.6209 87.3904 26.6014 87.4074C26.575 87.4225 26.5536 87.4465 26.5444 87.4811C26.5351 87.5157 26.5416 87.547 26.5569 87.5734C26.5723 87.5997 26.6034 87.6229 26.6312 87.6304C26.666 87.6397 26.6976 87.6333 26.7171 87.6163C26.7435 87.6012 26.7667 87.5703 26.7741 87.5426C26.7815 87.515 26.7769 87.4766 26.7616 87.4503C26.7462 87.424 26.7221 87.4027 26.6873 87.3933Z" fill="#A8C909"/>
<path d="M27.0465 86.4146C27.0187 86.4072 26.9802 86.4117 26.9537 86.4268C26.9254 86.4489 26.9041 86.4728 26.8967 86.5005C26.8874 86.5351 26.8939 86.5665 26.9092 86.5928C26.9246 86.6192 26.9487 86.6405 26.9835 86.6498C27.0183 86.6591 27.0499 86.6528 27.0763 86.6376C27.1028 86.6225 27.126 86.5916 27.1334 86.5639C27.1408 86.5363 27.1361 86.4979 27.1208 86.4716C27.1055 86.4453 27.0813 86.424 27.0465 86.4146Z" fill="#A8C909"/>
<path d="M27.7265 85.4922C27.6987 85.4847 27.6601 85.4892 27.6407 85.5063C27.6072 85.5196 27.5859 85.5435 27.5766 85.5781C27.5674 85.6127 27.5739 85.6441 27.5892 85.6704C27.6045 85.6968 27.6356 85.7199 27.6705 85.7292C27.6983 85.7367 27.7299 85.7303 27.7563 85.7152C27.7828 85.7 27.806 85.6692 27.8134 85.6415C27.8208 85.6138 27.8161 85.5755 27.8008 85.5492C27.7855 85.5228 27.7544 85.4997 27.7265 85.4922Z" fill="#A8C909"/>
<path d="M25.5314 89.0333C25.5036 89.0259 25.4651 89.0304 25.4456 89.0474C25.4122 89.0607 25.3908 89.0846 25.3816 89.1192C25.3723 89.1538 25.3788 89.1852 25.3941 89.2115C25.4095 89.2379 25.4406 89.2611 25.4754 89.2704C25.5032 89.2778 25.5348 89.2715 25.5612 89.2563C25.5877 89.2412 25.6109 89.2103 25.6183 89.1826C25.6257 89.155 25.6211 89.1167 25.6057 89.0903C25.5904 89.064 25.5663 89.0427 25.5314 89.0333Z" fill="#A8C909"/>
<path d="M25.0257 88.2751C24.9978 88.2677 24.9593 88.2722 24.9329 88.2873C24.9064 88.3025 24.8832 88.3333 24.8758 88.361C24.8684 88.3887 24.8731 88.427 24.8884 88.4533C24.9037 88.4797 24.9278 88.501 24.9627 88.5103C24.9975 88.5196 25.029 88.5133 25.0555 88.4981C25.0819 88.483 25.1033 88.459 25.1125 88.4244C25.1218 88.3899 25.1153 88.3585 25.0981 88.339C25.0916 88.3076 25.0605 88.2845 25.0257 88.2751Z" fill="#A8C909"/>
<path d="M25.527 87.379C25.4991 87.3715 25.4676 87.3779 25.4342 87.3912C25.4077 87.4063 25.3864 87.4302 25.3771 87.4648C25.3679 87.4994 25.3744 87.5308 25.3897 87.5572C25.405 87.5835 25.4292 87.6048 25.464 87.6141C25.4988 87.6235 25.5303 87.6171 25.5568 87.6019C25.5832 87.5868 25.6064 87.5559 25.6138 87.5283C25.6231 87.4937 25.6166 87.4623 25.6013 87.4359C25.5859 87.4096 25.5618 87.3883 25.527 87.379Z" fill="#A8C909"/>
<path d="M26.8011 98.1364C26.9319 98.038 27.066 97.9553 27.221 97.8782C27.3778 97.7942 27.5486 97.7139 27.7212 97.6267C28.0664 97.4523 28.4557 97.2527 28.7981 96.9219C29.1386 96.5979 29.3765 96.1279 29.4324 95.6684C29.4953 95.2108 29.413 94.7662 29.2546 94.3827C29.0892 93.9974 28.869 93.6493 28.5691 93.3762C28.8075 94.1295 28.8849 94.899 28.6833 95.5122C28.579 95.8179 28.4111 96.0546 28.181 96.245C27.9439 96.4335 27.639 96.5965 27.2957 96.7639C26.6372 97.0768 25.6819 97.6067 25.5051 98.6565C25.4662 98.9129 25.5039 99.1899 25.6158 99.4127C25.719 99.6405 25.8736 99.8154 26.0305 99.9538C26.3393 100.222 26.6564 100.403 26.9368 100.693C26.8503 100.292 26.567 99.9567 26.3901 99.6424C26.1992 99.3243 26.1476 99.0436 26.2403 98.809C26.3279 98.5656 26.5413 98.3262 26.8011 98.1364Z" fill="#A8C909"/>
<path d="M30.4701 94.4415C30.6652 94.9386 30.7657 95.4548 30.6991 95.9263C30.6306 96.4046 30.3746 96.8031 29.9844 97.0618C29.5784 97.3237 29.0699 97.5507 28.6481 97.927C28.4408 98.1161 28.2362 98.3504 28.1635 98.6497C28.0958 98.9577 28.219 99.2502 28.3996 99.4395C28.3108 99.1859 28.2833 98.9264 28.3844 98.7163C28.4836 98.5131 28.6748 98.3567 28.8761 98.2179C29.2928 97.944 29.7675 97.7599 30.251 97.4594C30.4895 97.2935 30.7061 97.0698 30.8587 96.8068C30.9973 96.54 31.084 96.2444 31.0797 95.9541C31.085 95.3773 30.8346 94.8357 30.4701 94.4415Z" fill="#A8C909"/>
<path d="M26.9194 95.8847C27.1161 95.7076 27.2733 95.4828 27.3697 95.2344C27.4592 94.984 27.4911 94.7257 27.4687 94.475C27.4239 93.9738 27.1949 93.5195 26.8732 93.1886C27.0325 93.6242 27.1218 94.0707 27.0928 94.4855C27.0707 94.9022 26.8973 95.2709 26.605 95.5262C26.3127 95.7814 25.8835 95.963 25.4915 96.2286C25.2919 96.3605 25.0989 96.5238 24.9542 96.7296C24.8165 96.9374 24.7409 97.1914 24.767 97.4282C24.9191 96.9723 25.281 96.7356 25.6717 96.5586C26.0591 96.3659 26.5139 96.2283 26.9194 95.8847Z" fill="#A8C909"/>
<path d="M23.7118 88.3604C23.3535 88.3608 23.1001 88.2484 23.0638 88.1053C23.041 87.9954 23.104 87.7602 23.3708 87.461C23.6588 87.1378 24.0862 86.852 24.5646 86.654C24.7335 86.5806 24.888 86.5331 25.0337 86.4906C24.5271 87.0443 24.0893 87.6758 23.7118 88.3604Z" fill="#EEF5FF"/>
<path d="M52.7626 22.7843L52.7648 22.7844C52.8337 22.7899 52.9011 22.7951 52.9671 22.8003C53.6616 22.8546 54.2052 22.897 54.6225 22.962C55.0924 23.0352 55.3348 23.1291 55.4507 23.2422C55.5375 23.3269 55.5916 23.4642 55.5149 23.7925C55.4371 24.1255 55.2396 24.5844 54.9171 25.2311C54.4662 26.1353 53.9642 26.578 53.4238 27.0545C53.2212 27.2332 53.0133 27.4166 52.8006 27.6309C52.0207 28.4166 51.3125 29.5189 50.8474 32.0889C50.5 34.0082 50.3324 35.48 50.1829 36.7927C50.1344 37.2182 50.0879 37.627 50.0377 38.0289C49.833 39.6692 49.5668 41.2126 48.8629 43.3604C48.5677 44.2613 48.2554 45.1376 47.952 45.9891C47.5347 47.1604 47.1341 48.2846 46.8175 49.3614C46.2662 51.2363 45.9466 53.0327 46.1974 54.8332C46.3193 55.7077 46.4187 56.4845 46.4638 57.1532C46.509 57.8247 46.4978 58.3689 46.4075 58.7839C46.3178 59.1962 46.1575 59.4494 45.9284 59.5892C45.6941 59.7322 45.3348 59.7895 44.7764 59.6892C43.6395 59.4839 42.3947 58.8083 41.0917 58.0744C41.0175 58.0327 40.9432 57.9907 40.8687 57.9487C39.6543 57.2634 38.3977 56.5544 37.2009 56.2337C35.9318 55.8936 34.1438 55.8456 32.4544 55.8315C32.2152 55.8295 31.9781 55.8282 31.7445 55.8269C30.3048 55.8188 29.001 55.8116 28.1668 55.653C27.4603 55.5187 26.4464 55.2295 25.2711 54.8942C24.8081 54.7621 24.3201 54.6229 23.8159 54.4832C22.046 53.9928 20.0926 53.5013 18.4068 53.3253C17.2105 53.2004 15.8546 53.1366 14.5949 53.0774C14.095 53.0539 13.6103 53.0312 13.1567 53.0055C12.3533 52.9602 11.6498 52.9062 11.1215 52.8251C10.8568 52.7844 10.6455 52.7383 10.4913 52.6867C10.4144 52.6609 10.3578 52.6357 10.3183 52.6127C10.2988 52.6014 10.2855 52.5918 10.2768 52.5844C10.268 52.577 10.2654 52.5731 10.2657 52.5736L10.2659 52.5735L10.259 52.5646C10.1752 52.4564 10.0973 52.2631 10.0552 51.9854C10.0139 51.7126 10.0102 51.3783 10.0572 51.0075C10.1513 50.2657 10.4453 49.3977 11.0153 48.6099C12.2347 46.9246 13.2777 44.3216 13.2097 41.7009C13.1773 40.4492 13.4576 37.7415 13.9837 34.9581C14.5111 32.1674 15.2752 29.3594 16.1874 27.8803C18.0932 24.7897 18.9196 20.6333 18.8582 18.3965C18.828 17.2983 18.8235 16.2337 18.9849 15.3624C19.1472 14.4866 19.4647 13.8724 20.0216 13.5853C20.54 13.318 21.0593 13.5058 21.8543 14.0723C22.1191 14.2609 22.3993 14.48 22.709 14.7222C22.858 14.8387 23.0139 14.9605 23.1781 15.0869C23.6791 15.4724 24.2465 15.8904 24.901 16.2961C26.2225 17.1151 28.152 17.7676 29.9073 18.2249C31.6642 18.6827 33.2812 18.9536 33.9924 18.997C34.6661 19.038 36.622 19.3041 38.6472 19.6329C40.6747 19.962 42.7348 20.348 43.6235 20.6241L43.6236 20.6242L43.6269 20.6252L43.6399 20.6293L43.6905 20.6451C43.735 20.659 43.8005 20.6794 43.8849 20.7053C44.0537 20.7573 44.2982 20.8317 44.6013 20.9219C45.2076 21.1022 46.0491 21.3455 46.99 21.5976C48.8659 22.1003 51.1566 22.6432 52.7626 22.7843Z" fill="white" stroke="#2B9EE7" stroke-width="0.5"/>
<path d="M18.4144 34.9828C18.4144 34.9828 21.1685 35.4358 22.4961 31.9316C23.8301 28.4032 25.3817 23.4824 30.1722 24.8437C31.0664 25.0833 33.2986 22.6505 37.35 24.6428C41.4014 26.635 43.6896 29.8905 43.4156 33.9102C43.5256 34.9499 43.491 35.5624 45.1104 35.9963C46.7298 36.4302 54.2333 38.8812 52.7204 45.1076C51.8655 48.2981 49.0801 49.7019 49.0801 49.7019C49.0801 49.7019 55.2514 55.5781 50.4962 61.143C45.741 66.7079 35.4598 61.9583 35.1505 59.0517C32.7605 35.8736 26.5166 51.6349 19.2316 53.8796C15.3698 55.0468 6.0557 51.6185 6.4237 48.5048C6.79171 45.3911 9.61987 43.2475 11.4154 43.3141C11.4154 43.3141 9.0206 40.2632 9.81152 37.9882C9.80505 38.0124 10.2448 34.2444 18.4144 34.9828Z" fill="#A8C909"/>
<path d="M24.6383 39.8886C24.6383 39.8886 22.679 38.0165 23.0857 36.2085C23.5166 34.407 25.104 36.024 25.104 36.024C25.104 36.024 29.2202 32.3603 30.3147 28.2755C30.3147 28.2755 36.1498 37.533 39.0299 39.1596C39.0299 39.1596 40.636 38.5796 40.8085 39.8693C40.9811 41.159 39.529 42.3243 37.8905 43.0251C37.8905 43.0251 36.699 46.0217 34.9491 46.8481C33.1993 47.6745 30.66 48.1599 29.9349 47.9656C29.2098 47.7713 26.3786 45.7692 25.2928 43.9239C24.2199 42.0303 24.6383 39.8886 24.6383 39.8886Z" fill="#E5AB83"/>
<path d="M38.4654 38.0757C38.4654 38.0757 36.8098 36.9068 35.3432 36.7728C35.1127 36.7629 35.2151 36.0909 35.3135 36.0136C35.4361 35.9429 36.904 36.3621 37.6558 37.1334C38.4253 37.9355 38.8215 38.1971 38.4654 38.0757Z" fill="#9AAD0E"/>
<path d="M26.6734 35.0974C26.6734 35.0974 28.7176 34.8162 30.0417 35.4818C30.2463 35.5885 30.5196 34.8586 30.473 34.7425C30.4022 34.6199 28.9278 34.2249 27.8652 34.6137C26.8089 34.9783 26.3044 35.0244 26.6734 35.0974Z" fill="#9AAD0E"/>
<path d="M27.1204 37.3933C27.1204 37.3933 26.9917 38.5504 27.6684 38.7318C28.3452 38.9131 28.6189 37.7948 28.6189 37.7948C28.6189 37.7948 29.1477 37.7551 29.193 37.5859C29.2383 37.4167 29.0933 37.3779 29.0933 37.3779C29.0933 37.3779 28.6448 37.6981 27.8956 37.4973C27.1705 37.3031 26.9663 36.808 26.9663 36.808C26.9663 36.808 26.6681 36.8576 26.8291 37.0302C27.0207 37.1852 27.1204 37.3933 27.1204 37.3933Z" fill="#29160D"/>
<path d="M36.5502 39.7127C36.5502 39.7127 36.0831 40.7792 35.4063 40.5979C34.7296 40.4165 35.0517 39.3112 35.0517 39.3112C35.0517 39.3112 34.6136 39.0125 34.6589 38.8433C34.7043 38.6741 34.8493 38.7129 34.8493 38.7129C34.8493 38.7129 35.0776 39.2145 35.8268 39.4153C36.5519 39.6096 36.9762 39.2829 36.9762 39.2829C36.9762 39.2829 37.2097 39.4749 36.984 39.544C36.7406 39.5824 36.5502 39.7127 36.5502 39.7127Z" fill="#29160D"/>
<path d="M28.668 43.8957C28.668 43.8957 29.5644 45.0944 30.0867 45.0789C30.6089 45.0634 30.6844 45.265 30.9986 45.3492C31.2952 45.4027 32.7528 44.9902 32.7528 44.9902C32.7528 44.9902 31.4291 43.9361 30.9163 44.1096C30.9228 44.0854 30.4092 43.5851 28.668 43.8957Z" fill="#D9987D"/>
<path d="M31.118 37.1691C31.118 37.1691 31.1687 40.654 29.7826 41.8629C29.7826 41.8629 30.5586 42.6407 30.9536 42.617L31.2134 42.324C31.2134 42.324 30.6976 42.3153 30.2065 41.9247C30.2065 41.9247 31.4165 39.6324 31.342 37.2033L31.1245 37.145L31.118 37.1691Z" fill="#D9987D"/>
</svg>
