<svg width="93" height="129" viewBox="0 0 93 129" fill="none" xmlns="http://www.w3.org/2000/svg">
<path d="M88.7301 129H4.26988C1.87458 129 0 127.044 0 124.779V4.22104C0 1.85313 1.97872 0 4.26988 0H88.7301C91.1254 0 93 1.95608 93 4.22104V124.779C93 127.147 91.1254 129 88.7301 129Z" fill="#C8E1FF"/>
<path d="M87.2 127.3H6.10001C3.80001 127.3 2 125.4 2 123.2V6.1C2 3.8 3.90001 2 6.10001 2H87.2C89.5 2 91.3 3.9 91.3 6.1V123.2C91.4 125.5 89.5 127.3 87.2 127.3Z" fill="#EEF5FF"/>
<path d="M6.92068 14.1464V13.2194H7.84762V8.37875H6.92068V7.5548H7.43565C7.53865 7.5548 7.64165 7.5548 7.64165 7.5548C7.74465 7.5548 7.74463 7.5548 7.84762 7.4518C7.84762 7.4518 7.95062 7.34881 7.95062 7.24582C7.95062 7.14282 7.95062 7.03983 7.95062 6.93684V6.21588H8.77456V13.0135H9.59852V13.9404H6.92068V14.1464Z" fill="black"/>
<path d="M12.5853 13.8374C12.5853 13.9404 12.4823 13.9404 12.4823 14.0434C12.4823 14.1464 12.3794 14.1464 12.2764 14.1464C12.1734 14.1464 12.0704 14.2494 11.9674 14.2494C11.8644 14.2494 11.6584 14.2494 11.4524 14.2494C11.2464 14.2494 11.0404 14.2494 10.9374 14.2494C10.8344 14.2494 10.7315 14.2494 10.6285 14.1464C10.5255 14.1464 10.5255 14.0434 10.4225 14.0434C10.4225 13.9404 10.3195 13.9404 10.3195 13.8374C10.2165 13.7344 10.2165 13.6314 10.2165 13.4254C10.2165 13.2194 10.1135 13.0135 10.1135 12.8075C10.1135 12.4985 10.1135 12.1895 10.1135 11.7775C10.1135 11.3656 10.1135 10.8506 10.1135 10.2326C10.1135 9.61467 10.1135 9.0997 10.1135 8.68773C10.1135 8.27575 10.1135 7.96677 10.1135 7.65779C10.1135 7.34881 10.1135 7.14282 10.2165 7.03983C10.2165 6.93684 10.3195 6.73085 10.3195 6.62786C10.3195 6.52486 10.4225 6.52486 10.4225 6.42187C10.4225 6.31887 10.5255 6.31887 10.6285 6.31887C10.7315 6.31887 10.8344 6.21588 10.9374 6.21588C11.0404 6.21588 11.2464 6.21588 11.4524 6.21588C11.6584 6.21588 11.8644 6.21588 11.9674 6.21588C12.0704 6.21588 12.1734 6.21588 12.2764 6.31887C12.3794 6.31887 12.3793 6.42187 12.4823 6.42187C12.4823 6.52486 12.5853 6.52486 12.5853 6.62786C12.5853 6.73085 12.6883 6.83384 12.6883 7.03983C12.6883 7.24582 12.7913 7.4518 12.7913 7.65779C12.7913 7.96677 12.7913 8.27575 12.7913 8.68773C12.7913 9.0997 12.7913 9.61467 12.7913 10.2326C12.7913 10.8506 12.7913 11.3656 12.7913 11.7775C12.7913 12.1895 12.7913 12.4985 12.7913 12.8075C12.7913 13.1164 12.7913 13.3224 12.6883 13.4254C12.6883 13.6314 12.6883 13.7344 12.5853 13.8374ZM11.8644 13.0135C11.8644 12.9105 11.8644 12.9105 11.8644 12.8075C11.8644 12.7045 11.8644 12.6015 11.8644 12.3955C11.8644 12.1895 11.8644 11.9835 11.8644 11.5715C11.8644 11.2626 11.8644 10.7476 11.8644 10.2326C11.8644 9.61467 11.8644 9.0997 11.8644 8.79072C11.8644 8.48174 11.8644 8.17276 11.8644 7.96677C11.8644 7.76078 11.8644 7.65779 11.8644 7.5548C11.8644 7.4518 11.8644 7.4518 11.8644 7.34881C11.8644 7.24582 11.7614 7.14282 11.7614 7.14282C11.6584 7.14282 11.5554 7.14282 11.4524 7.14282C11.3494 7.14282 11.2464 7.14282 11.1434 7.14282C11.0404 7.24582 11.0404 7.24582 10.9374 7.34881C10.9374 7.4518 10.9374 7.4518 10.8344 7.5548C10.8344 7.65779 10.8344 7.76078 10.8344 7.96677C10.8344 8.17276 10.8344 8.37875 10.8344 8.79072C10.8344 9.0997 10.8344 9.61467 10.8344 10.2326C10.8344 10.8506 10.8344 11.2626 10.8344 11.5715C10.8344 11.8805 10.8344 12.1895 10.8344 12.3955C10.8344 12.6015 10.8344 12.7045 10.8344 12.8075C10.8344 12.9105 10.8344 12.9105 10.9374 13.0135C10.9374 13.1164 11.0404 13.2194 11.0404 13.2194C11.1434 13.2194 11.2464 13.2194 11.3494 13.2194C11.4524 13.2194 11.5554 13.2194 11.6584 13.2194C11.7614 13.2194 11.8644 13.2194 11.8644 13.0135Z" fill="black"/>
<path d="M16.0871 13.8374C16.0871 13.9404 15.9841 13.9404 15.9841 14.0434C15.9841 14.1464 15.8811 14.1464 15.7781 14.1464C15.6751 14.1464 15.5721 14.2494 15.4691 14.2494C15.3661 14.2494 15.1602 14.2494 14.9542 14.2494C14.7482 14.2494 14.5422 14.2494 14.4392 14.2494C14.3362 14.2494 14.2332 14.2494 14.1302 14.1464C14.0272 14.1464 14.0272 14.0434 13.9242 14.0434C13.9242 13.9404 13.8213 13.9404 13.8213 13.8374C13.7183 13.7344 13.7183 13.6314 13.7183 13.4254C13.7183 13.2194 13.6153 13.0135 13.6153 12.8075C13.6153 12.4985 13.6153 12.1895 13.6153 11.7775C13.6153 11.3656 13.6153 10.8506 13.6153 10.2326C13.6153 9.61467 13.6153 9.0997 13.6153 8.68773C13.6153 8.27575 13.6153 7.96677 13.6153 7.65779C13.6153 7.34881 13.6153 7.14282 13.7183 7.03983C13.7183 6.93684 13.8213 6.73085 13.8213 6.62786C13.8213 6.52486 13.9242 6.52486 13.9242 6.42187C13.9242 6.31887 14.0272 6.31887 14.1302 6.31887C14.2332 6.31887 14.3362 6.21588 14.4392 6.21588C14.5422 6.21588 14.7482 6.21588 14.9542 6.21588C15.1602 6.21588 15.3661 6.21588 15.4691 6.21588C15.5721 6.21588 15.6751 6.21588 15.7781 6.31887C15.8811 6.31887 15.8811 6.42187 15.9841 6.42187C15.9841 6.52486 16.0871 6.52486 16.0871 6.62786C16.0871 6.73085 16.1901 6.83384 16.1901 7.03983C16.1901 7.24582 16.2931 7.4518 16.2931 7.65779C16.2931 7.96677 16.2931 8.27575 16.2931 8.68773C16.2931 9.0997 16.2931 9.61467 16.2931 10.2326C16.2931 10.8506 16.2931 11.3656 16.2931 11.7775C16.2931 12.1895 16.2931 12.4985 16.2931 12.8075C16.2931 13.1164 16.2931 13.3224 16.1901 13.4254C16.1901 13.6314 16.0871 13.7344 16.0871 13.8374ZM15.2632 13.0135C15.2632 12.9105 15.2632 12.9105 15.2632 12.8075C15.2632 12.7045 15.2632 12.6015 15.2632 12.3955C15.2632 12.1895 15.2632 11.9835 15.2632 11.5715C15.2632 11.2626 15.2632 10.7476 15.2632 10.2326C15.2632 9.61467 15.2632 9.0997 15.2632 8.79072C15.2632 8.48174 15.2632 8.17276 15.2632 7.96677C15.2632 7.76078 15.2632 7.65779 15.2632 7.5548C15.2632 7.4518 15.2632 7.4518 15.2632 7.34881C15.2632 7.24582 15.1602 7.14282 15.1602 7.14282C15.0572 7.14282 14.9542 7.14282 14.8512 7.14282C14.7482 7.14282 14.6452 7.14282 14.5422 7.14282C14.4392 7.14282 14.4392 7.24582 14.4392 7.34881C14.4392 7.4518 14.4392 7.4518 14.3362 7.5548C14.3362 7.65779 14.3362 7.76078 14.3362 7.96677C14.3362 8.17276 14.3362 8.37875 14.3362 8.79072C14.3362 9.0997 14.3362 9.61467 14.3362 10.2326C14.3362 10.8506 14.3362 11.2626 14.3362 11.5715C14.3362 11.8805 14.3362 12.1895 14.3362 12.3955C14.3362 12.6015 14.3362 12.7045 14.3362 12.8075C14.3362 12.9105 14.3362 12.9105 14.4392 13.0135C14.4392 13.1164 14.5422 13.2194 14.5422 13.2194C14.6452 13.2194 14.7482 13.2194 14.8512 13.2194C14.9542 13.2194 15.0572 13.2194 15.1602 13.2194C15.2632 13.2194 15.2632 13.2194 15.2632 13.0135Z" fill="black"/>
<path d="M87.2125 117.054V117.98H86.2855V122.718H87.2125V123.542H86.6975C86.5945 123.542 86.4915 123.542 86.4915 123.542C86.3885 123.542 86.3885 123.542 86.2855 123.645C86.2855 123.645 86.1825 123.748 86.1825 123.851C86.1825 123.954 86.1825 124.057 86.1825 124.16V124.881H85.3586V118.083H84.5346V117.157H87.2125V117.054Z" fill="black"/>
<path d="M81.5479 117.363C81.5479 117.26 81.6509 117.26 81.6509 117.157C81.6509 117.054 81.7539 117.054 81.8569 117.054C81.9598 117.054 82.0628 116.951 82.1658 116.951C82.2688 116.951 82.4748 116.951 82.6808 116.951C82.8868 116.951 83.0928 116.951 83.1958 116.951C83.2988 116.951 83.4017 116.951 83.5047 117.054C83.6077 117.054 83.6077 117.157 83.7107 117.157C83.7107 117.26 83.8137 117.26 83.8137 117.363C83.9167 117.466 83.9167 117.569 83.9167 117.775C83.9167 117.98 84.0197 118.186 84.0197 118.392C84.0197 118.701 84.0197 119.01 84.0197 119.422C84.0197 119.834 84.0197 120.349 84.0197 120.967C84.0197 121.585 84.0197 122.1 84.0197 122.512C84.0197 122.924 84.0197 123.233 84.0197 123.542C84.0197 123.851 84.0197 124.057 83.9167 124.16C83.9167 124.263 83.8137 124.469 83.8137 124.572C83.8137 124.675 83.7107 124.675 83.7107 124.778C83.7107 124.881 83.6077 124.881 83.5047 124.881C83.4017 124.881 83.2988 124.984 83.1958 124.984C83.0928 124.984 82.8868 124.984 82.6808 124.984C82.4748 124.984 82.2688 124.984 82.1658 124.984C82.0628 124.984 81.9598 124.984 81.8569 124.881C81.7539 124.881 81.7538 124.778 81.6509 124.778C81.6509 124.675 81.5479 124.675 81.5479 124.572C81.5479 124.469 81.4449 124.366 81.4449 124.16C81.4449 123.954 81.3419 123.748 81.3419 123.542C81.3419 123.233 81.3419 122.924 81.3419 122.512C81.3419 122.1 81.3419 121.585 81.3419 120.967C81.3419 120.349 81.3419 119.834 81.3419 119.422C81.3419 119.01 81.3419 118.701 81.3419 118.392C81.3419 118.083 81.3419 117.877 81.4449 117.775C81.4449 117.569 81.5479 117.466 81.5479 117.363ZM82.2688 118.186C82.2688 118.289 82.2688 118.289 82.2688 118.392C82.2688 118.495 82.2688 118.598 82.2688 118.804C82.2688 119.01 82.2688 119.216 82.2688 119.628C82.2688 119.937 82.2688 120.452 82.2688 120.967C82.2688 121.585 82.2688 122.1 82.2688 122.409C82.2688 122.718 82.2688 123.027 82.2688 123.233C82.2688 123.439 82.2688 123.542 82.2688 123.645C82.2688 123.748 82.2688 123.748 82.2688 123.851C82.2688 123.954 82.3718 124.057 82.3718 124.057C82.4748 124.057 82.5778 124.057 82.6808 124.057C82.7838 124.057 82.8868 124.057 82.9898 124.057C83.0928 124.057 83.0928 123.954 83.0928 123.851C83.0928 123.748 83.0928 123.748 83.1958 123.645C83.1958 123.542 83.1958 123.439 83.1958 123.233C83.1958 123.027 83.1958 122.821 83.1958 122.409C83.1958 122.1 83.1958 121.585 83.1958 120.967C83.1958 120.349 83.1958 119.937 83.1958 119.628C83.1958 119.319 83.1958 119.01 83.1958 118.804C83.1958 118.598 83.1958 118.495 83.1958 118.392C83.1958 118.289 83.1958 118.289 83.0928 118.186C83.0928 118.083 82.9898 117.98 82.9898 117.98C82.8868 117.98 82.7838 117.98 82.6808 117.98C82.5778 117.98 82.4748 117.98 82.3718 117.98C82.3718 117.98 82.3718 117.98 82.2688 118.186Z" fill="black"/>
<path d="M78.1491 117.363C78.1491 117.26 78.2521 117.26 78.2521 117.157C78.2521 117.054 78.3551 117.054 78.4581 117.054C78.561 117.054 78.6641 116.951 78.7671 116.951C78.87 116.951 79.076 116.951 79.282 116.951C79.488 116.951 79.694 116.951 79.797 116.951C79.9 116.951 80.003 116.951 80.106 117.054C80.2089 117.054 80.209 117.157 80.312 117.157C80.312 117.26 80.4149 117.26 80.4149 117.363C80.5179 117.466 80.5179 117.569 80.5179 117.775C80.5179 117.981 80.6209 118.187 80.6209 118.393C80.6209 118.702 80.6209 119.01 80.6209 119.422C80.6209 119.834 80.6209 120.349 80.6209 120.967C80.6209 121.585 80.6209 122.1 80.6209 122.512C80.6209 122.924 80.6209 123.233 80.6209 123.542C80.6209 123.851 80.6209 124.057 80.5179 124.16C80.5179 124.263 80.4149 124.469 80.4149 124.572C80.4149 124.675 80.312 124.675 80.312 124.778C80.312 124.881 80.2089 124.881 80.106 124.881C80.003 124.881 79.9 124.984 79.797 124.984C79.694 124.984 79.488 124.984 79.282 124.984C79.076 124.984 78.87 124.984 78.7671 124.984C78.6641 124.984 78.561 124.984 78.4581 124.881C78.3551 124.881 78.3551 124.778 78.2521 124.778C78.2521 124.675 78.1491 124.675 78.1491 124.572C78.1491 124.469 78.0461 124.366 78.0461 124.16C78.0461 123.954 77.9431 123.748 77.9431 123.542C77.9431 123.233 77.9431 122.924 77.9431 122.512C77.9431 122.1 77.9431 121.585 77.9431 120.967C77.9431 120.349 77.9431 119.834 77.9431 119.422C77.9431 119.01 77.9431 118.702 77.9431 118.393C77.9431 118.084 77.9431 117.878 78.0461 117.775C78.0461 117.569 78.0461 117.466 78.1491 117.363ZM78.87 118.187C78.87 118.29 78.87 118.29 78.87 118.393C78.87 118.496 78.87 118.599 78.87 118.805C78.87 119.01 78.87 119.216 78.87 119.628C78.87 119.937 78.87 120.452 78.87 120.967C78.87 121.585 78.87 122.1 78.87 122.409C78.87 122.718 78.87 123.027 78.87 123.233C78.87 123.439 78.87 123.542 78.87 123.645C78.87 123.748 78.87 123.748 78.87 123.851C78.87 123.954 78.973 124.057 78.973 124.057C79.076 124.057 79.179 124.057 79.282 124.057C79.385 124.057 79.488 124.057 79.591 124.057C79.694 124.057 79.694 123.954 79.694 123.851C79.694 123.748 79.694 123.748 79.797 123.645C79.797 123.542 79.797 123.439 79.797 123.233C79.797 123.027 79.797 122.821 79.797 122.409C79.797 122.1 79.797 121.585 79.797 120.967C79.797 120.349 79.797 119.937 79.797 119.628C79.797 119.319 79.797 119.01 79.797 118.805C79.797 118.599 79.797 118.496 79.797 118.393C79.797 118.29 79.797 118.29 79.694 118.187C79.694 118.084 79.591 117.981 79.591 117.981C79.488 117.981 79.385 117.981 79.282 117.981C79.179 117.981 79.076 117.981 78.973 117.981C78.973 117.981 78.87 117.981 78.87 118.187Z" fill="black"/>
<path d="M85.5047 40.7785C85.0928 40.4696 84.7838 40.1606 84.4748 39.8516C83.8568 39.1307 83.3419 38.2037 83.0329 37.2768C82.8269 36.2468 82.8269 35.2169 83.3419 34.29C83.6509 33.878 83.9598 33.466 84.3718 33.157C84.7838 32.848 85.2988 32.7451 85.8137 32.7451C86.3287 32.7451 86.8436 33.054 87.1526 33.363C87.5646 33.775 87.7706 34.187 87.8736 34.7019C88.1826 35.6289 88.0796 36.6588 87.5646 37.5858C87.0496 38.4097 86.3287 39.0277 85.4018 39.3366C84.5778 39.6456 83.6509 39.6456 82.8269 39.5426C82.003 39.4396 81.179 39.1307 80.4581 38.7187C79.0161 37.9977 77.7802 37.0708 76.6473 36.4528C75.5144 35.7319 74.3814 35.3199 73.2485 35.1139C72.2186 34.9079 71.2916 35.1139 70.5707 35.4229C69.8497 35.7319 69.4377 36.0408 69.1288 36.3498C69.0258 36.4528 69.0258 36.4528 68.9228 36.5558C68.9228 36.6588 68.8198 36.6588 68.8198 36.6588C68.7168 36.7618 68.7168 36.7618 68.7168 36.7618C68.7168 36.7618 68.7168 36.7618 68.8198 36.6588C68.8198 36.6588 68.9228 36.5558 68.9228 36.4528C68.9228 36.3498 69.0258 36.3498 69.1288 36.2468C69.4377 35.9379 69.8497 35.5259 70.5707 35.2169C71.2916 34.9079 72.2186 34.8049 73.2485 34.9079C74.2784 35.1139 75.5144 35.5259 76.6473 36.2468C77.7802 36.9678 79.0161 37.7917 80.4581 38.5127C81.179 38.8217 81.9 39.1307 82.7239 39.3366C83.5479 39.4396 84.4748 39.4396 85.2988 39.1307C86.1227 38.8217 86.9467 38.3067 87.3586 37.4828C87.7706 36.6588 87.8736 35.6289 87.6676 34.8049C87.5646 34.393 87.3586 33.878 86.9467 33.569C86.6377 33.26 86.1227 33.054 85.7107 32.951C85.1958 32.951 84.7838 33.054 84.3718 33.363C83.9598 33.672 83.6509 33.981 83.3419 34.393C82.8269 35.2169 82.8269 36.3498 83.0329 37.2768C83.2389 38.2037 83.7539 39.1307 84.3718 39.8516" fill="#0A100C"/>
<path d="M86.3287 41.2935C86.0197 41.1905 85.8137 40.9846 85.5047 40.7786Z" fill="#0A100C"/>
<path d="M15.1602 63.5401L14.9542 26.3595H72.1156V63.9521L15.1602 63.5401Z" fill="#2996D3"/>
<path d="M27.0044 56.4335C29.1673 56.3306 31.4332 56.8455 33.699 57.0515L32.4631 56.7425C32.2571 54.6827 33.081 52.5198 34.6259 50.9749C36.1709 49.533 38.3337 48.709 40.3936 49.018C41.9385 49.224 43.4834 49.945 45.0283 49.636C47.9121 49.121 49.354 45.7222 52.1348 44.6923C55.6366 43.3534 59.6534 46.4432 63.0522 45.0013C64.3911 44.3833 65.421 43.1474 66.7599 42.4264C67.8929 41.8085 69.4378 41.6025 70.3647 42.3234V34.2899C69.4378 36.0408 67.1719 36.9678 65.112 36.7618C62.9492 36.5558 60.9923 35.5259 59.1384 34.3929C57.2845 33.363 55.3276 32.2301 53.1648 31.9211C50.075 31.5091 47.1912 32.848 44.2044 33.775C41.5265 34.4959 38.6427 34.8049 35.9649 34.084C35.8619 34.084 35.7589 33.981 35.6559 33.981C35.3469 34.2899 34.9349 34.5989 34.5229 34.8049C32.2571 35.9378 29.2703 34.3929 27.1074 35.8349C25.8715 36.6588 25.4595 38.3067 24.5326 39.5426C22.8847 41.8085 18.7649 42.4264 16.4991 40.8815V59.3174V61.6862H17.735C19.8979 58.6994 23.3997 56.6395 27.0044 56.4335ZM62.0222 40.0576C62.1252 39.9546 62.3312 39.8516 62.5372 39.8516C62.5372 39.8516 62.5372 39.8516 62.6402 39.8516C63.1552 39.7486 63.7731 39.9546 64.0821 40.4696C64.4941 41.0875 64.1851 42.0145 63.5671 42.4264C62.8462 42.7354 61.9192 42.4264 61.7133 41.7055C61.5073 41.0875 61.8163 40.4696 62.2282 40.1606L62.0222 40.0576Z" fill="#FAFAFA"/>
<path d="M70.4677 42.4265C69.5408 41.7055 67.8929 41.8085 66.8629 42.5295C65.524 43.3534 64.5971 44.4863 63.1551 45.1043C59.7564 46.5462 55.6366 43.4564 52.2378 44.7953C49.56 45.8253 48.0151 49.224 45.1313 49.739C43.5864 50.048 42.0415 49.327 40.4966 49.1211C38.4367 48.9151 36.1708 49.636 34.7289 51.0779C33.184 52.5198 32.3601 54.6827 32.5661 56.8456L33.802 57.1546C35.5529 57.3605 37.2008 57.3605 38.8487 56.8456C43.5864 55.3007 46.1612 49.224 51.1049 48.7091C53.8857 48.4001 56.5635 49.945 59.3444 49.43C61.5072 49.0181 63.3611 47.4732 65.112 46.1342C66.8629 44.8983 68.7168 43.6624 70.7767 44.3834V42.6325C70.5707 42.5295 70.4677 42.5295 70.4677 42.4265Z" fill="#D71A22"/>
<path d="M64.906 46.1342C63.0521 47.4732 61.3013 49.0181 59.1384 49.43C56.4606 49.945 53.6797 48.4001 50.8989 48.7091C45.9552 49.327 43.3804 55.3007 38.6427 56.8456C36.9948 57.3605 35.3469 57.3605 33.596 57.1546C31.4331 56.9486 29.1673 56.3306 26.9014 56.5366C23.2966 56.7426 19.7949 58.8024 17.838 61.7893H19.0739C20.2068 60.5533 21.7517 59.7294 23.3996 59.3174C25.7685 58.6995 28.4463 59.2144 30.5062 60.6563C31.0211 60.9653 31.4331 61.3773 31.8451 61.7893H40.8055C41.2175 61.5833 41.6295 61.3773 42.0415 61.1713C43.6894 60.3473 45.5432 59.7294 47.2941 60.1414C48.4271 60.3473 49.457 60.9653 50.0749 61.7893H59.7563C60.0653 61.1713 60.5803 60.6563 61.3012 60.4503C62.0222 60.2444 62.8461 60.3473 63.4641 59.8324C64.1851 59.3174 64.288 58.2875 64.597 57.4635C65.421 55.1977 68.0988 53.6528 70.4677 54.0647V44.3834C68.5108 43.5594 66.7599 44.7953 64.906 46.1342ZM56.4605 59.8324C54.9156 60.5533 52.8558 59.7294 52.2378 58.0815C51.8258 56.8456 52.3408 55.3007 53.4737 54.5797L53.2677 54.6827C53.5767 54.4767 53.8857 54.2707 54.1947 54.1677C54.2977 54.1677 54.4007 54.0647 54.5037 54.0647H54.4007C55.6366 53.7558 57.0785 54.2707 57.6965 55.4037C58.6234 56.9486 58.0055 59.1114 56.4605 59.8324ZM67.1719 48.9151C66.7599 49.1211 66.2449 48.9151 66.0389 48.5031C65.9359 48.1941 66.039 47.7821 66.3479 47.5762H66.2449C66.3479 47.4732 66.4509 47.4732 66.5539 47.4732C66.8629 47.3702 67.2748 47.5762 67.4808 47.7821C67.6868 48.0911 67.5838 48.7091 67.1719 48.9151Z" fill="#D71A22"/>
<path d="M64.7001 57.5666C64.3911 58.3905 64.2881 59.4204 63.5671 59.9354C62.9492 60.3474 62.1252 60.2444 61.4042 60.5534C60.6833 60.7594 60.1683 61.2743 59.8593 61.8923H70.6737V54.2708C68.2018 53.6528 65.524 55.1977 64.7001 57.5666Z" fill="#D71A22"/>
<path d="M23.5027 59.3174C21.8548 59.7294 20.3098 60.5534 19.1769 61.7893H31.9481C31.5361 61.3773 31.0212 61.0683 30.6092 60.6564C28.5493 59.2145 25.8715 58.6995 23.5027 59.3174Z" fill="#D71A22"/>
<path d="M47.3971 60.1414C45.6463 59.7295 43.7924 60.3474 42.1445 61.1714C41.7325 61.3774 41.3205 61.5834 40.9086 61.7893H50.178C49.56 60.9654 48.5301 60.3474 47.3971 60.1414Z" fill="#D71A22"/>
<path d="M43.6894 30.5822C42.0415 30.6852 40.3936 30.3762 38.9517 31.2002C37.7157 31.8181 36.8918 33.26 35.8618 34.187C35.9648 34.187 36.0678 34.29 36.1708 34.29C38.8486 35.0109 41.7325 34.7019 44.4103 33.981C47.3971 33.157 50.2809 31.8181 53.3707 32.1271C55.5336 32.4361 57.4905 33.569 59.3444 34.5989C61.1982 35.6289 63.1551 36.7618 65.318 36.9678C67.3779 37.1738 69.6437 36.2468 70.5706 34.4959V33.775V27.9044H47.5001C47.1911 29.4493 45.2343 30.4792 43.6894 30.5822Z" fill="#D71A22"/>
<path d="M61.6102 41.6026C61.8162 42.3235 62.7432 42.6325 63.4641 42.3235C64.1851 42.0146 64.3911 40.9846 63.9791 40.3667C63.6701 39.8517 63.0521 39.6457 62.5372 39.7487C62.5372 39.7487 62.5372 39.7487 62.4342 39.7487C62.2282 39.7487 62.1252 39.8517 61.9192 39.9547L62.0222 39.8517C61.7132 40.3667 61.4043 40.9846 61.6102 41.6026Z" fill="#D71A22"/>
<path d="M54.2977 54.1678C54.1947 54.1678 54.0917 54.1678 53.9887 54.2708C53.6797 54.3738 53.3707 54.4768 53.0617 54.7857L53.2677 54.6828C52.2378 55.5067 51.6198 56.9486 52.0318 58.1845C52.6498 59.8324 54.7097 60.6564 56.2546 59.9354C57.7995 59.2145 58.4174 56.9486 57.4905 55.5067C56.9755 54.3738 55.5336 53.9618 54.2977 54.1678Z" fill="#D71A22"/>
<path d="M54.2977 54.1678C54.1947 54.1678 54.0917 54.1678 53.9887 54.2708C53.6797 54.3738 53.3707 54.4768 53.0617 54.7857L53.2677 54.6828C52.2378 55.5067 51.6198 56.9486 52.0318 58.1845C52.6498 59.8324 54.7097 60.6564 56.2546 59.9354C57.7995 59.2145 58.4174 56.9486 57.4905 55.5067C56.9755 54.3738 55.5336 53.9618 54.2977 54.1678Z" fill="#EA7880"/>
<path d="M67.4808 47.7822C67.2748 47.4732 66.9659 47.3702 66.5539 47.4732C66.4509 47.4732 66.3479 47.5762 66.2449 47.5762H66.3479C66.0389 47.7822 65.9359 48.1941 66.0389 48.5031C66.2449 48.9151 66.7599 49.1211 67.1719 48.9151C67.5838 48.7091 67.6868 48.0912 67.4808 47.7822Z" fill="#D71A22"/>
<path d="M24.7368 39.6456C25.6638 38.4097 26.0757 36.8648 27.3117 35.9379C29.3715 34.496 32.4613 35.9379 34.7272 34.9079C35.1392 34.702 35.5512 34.393 35.8601 34.084C36.8901 33.0541 37.714 31.7151 38.9499 31.0972C40.3919 30.3762 42.1428 30.5822 43.6877 30.4792C45.3356 30.3762 47.0864 29.3463 47.2924 27.8014H38.7439H16.6003V40.8816C16.6003 40.8816 16.6003 40.8816 16.7033 40.8816C19.0722 42.5295 23.0889 41.9115 24.7368 39.6456Z" fill="#D71A22"/>
<path d="M70.4677 42.4265C69.5408 41.7055 67.8929 41.8085 66.8629 42.5295C65.524 43.3534 64.5971 44.4863 63.1551 45.1043C59.7564 46.5462 55.6366 43.4564 52.2378 44.7953C49.56 45.8253 48.0151 49.224 45.1313 49.739C43.5864 50.048 42.0415 49.327 40.4966 49.1211C38.4367 48.9151 36.1708 49.636 34.7289 51.0779C33.184 52.5198 32.3601 54.6827 32.5661 56.8456L33.802 57.1546C35.5529 57.3605 37.2008 57.3605 38.8487 56.8456C43.5864 55.3007 46.1612 49.224 51.1049 48.7091C53.8857 48.4001 56.5635 49.945 59.3444 49.43C61.5072 49.0181 63.3611 47.4732 65.112 46.1342C66.8629 44.8983 68.7168 43.6624 70.7767 44.3834V42.6325C70.5707 42.5295 70.4677 42.5295 70.4677 42.4265Z" fill="#EA7880"/>
<path d="M38.6427 27.9044H16.4991V40.9846C16.4991 40.9846 16.4991 40.9846 16.6021 40.9846C18.9709 42.5295 22.9877 41.9115 24.6356 39.6456C25.5625 38.4097 25.9745 36.8648 27.2104 35.9379C29.2703 34.496 32.3601 35.9379 34.6259 34.9079C35.0379 34.702 35.4499 34.393 35.7589 34.084C36.7888 33.0541 37.6128 31.7151 38.8487 31.0972C40.2906 30.3762 42.0415 30.5822 43.5864 30.4792C45.2343 30.3762 46.9852 29.3463 47.1912 27.8014" fill="#EA7880"/>
<path d="M64.0821 44.4863C63.8761 43.8684 62.7432 39.2337 60.5803 30.7882C51.0019 33.2601 36.9948 36.7618 21.4428 40.7786V40.6756C22.6787 45.4133 23.8116 50.048 24.9446 54.3737H24.8416C47.3971 48.7091 62.9492 44.7953 64.0821 44.4863C62.9492 44.7953 47.3971 48.7091 24.9446 54.4767C23.8116 50.151 22.6787 45.5163 21.4428 40.7786C36.9948 36.8648 51.1049 33.2601 60.5803 30.8912C62.7432 39.2337 63.8761 43.8684 64.0821 44.4863Z" fill="#0A100C"/>
<path d="M64.3526 43.7665L63.3544 44.0201L63.608 45.0183L64.6062 44.7647L64.3526 43.7665Z" fill="#375A64"/>
<path d="M25.3187 53.8421L24.3205 54.0956L24.5741 55.0939L25.5723 54.8403L25.3187 53.8421Z" fill="#375A64"/>
<path d="M60.836 29.9705L59.8378 30.2241L60.0914 31.2223L61.0896 30.9687L60.836 29.9705Z" fill="#375A64"/>
<path d="M41.1707 35L40.1725 35.2535L40.4261 36.2518L41.4243 35.9982L41.1707 35Z" fill="#375A64"/>
<path d="M44.6621 48.6961L43.6638 48.9497L43.9174 49.9479L44.9156 49.6944L44.6621 48.6961Z" fill="#375A64"/>
<path d="M23.4581 46.7458L22.4598 46.9993L22.7134 47.9975L23.7116 47.744L23.4581 46.7458Z" fill="#375A64"/>
<path d="M62.5819 36.7459L61.5837 36.9995L61.8373 37.9977L62.8355 37.7442L62.5819 36.7459Z" fill="#375A64"/>
<path d="M21.815 40.1504L20.8168 40.404L21.0703 41.4022L22.0686 41.1486L21.815 40.1504Z" fill="#375A64"/>
<path d="M35.9649 49.121C35.8619 49.018 35.7589 48.915 35.6559 48.709L33.802 41.3965L32.978 42.0145C32.875 42.1174 32.772 42.1174 32.5661 42.2204C32.3601 42.2204 32.2571 42.2204 32.0511 42.1174C31.9481 42.0145 31.8451 41.9115 31.7421 41.7055C31.7421 41.6025 31.7421 41.3965 31.7421 41.2935C31.7421 41.1905 31.8451 41.0875 31.9481 40.9845L33.596 39.8516C33.699 39.7486 33.802 39.7486 33.802 39.7486C34.008 39.7486 34.111 39.7486 34.317 39.8516C34.42 39.9546 34.5229 40.0576 34.6259 40.2636L36.6858 48.4001C36.6858 48.606 36.6858 48.709 36.5828 48.915C36.4798 49.018 36.3768 49.121 36.1708 49.224C36.2738 49.224 36.0679 49.224 35.9649 49.121Z" fill="#2996D3"/>
<path d="M39.2606 47.1642C38.5397 46.4432 38.0247 45.4133 37.6127 43.8684C37.2007 42.4265 37.2008 41.1905 37.5097 40.2636C37.8187 39.3367 38.4367 38.7187 39.2606 38.5127C39.8786 38.4097 40.3936 38.4097 40.9085 38.7187C41.4235 39.0277 41.9384 39.4397 42.3504 40.0576C42.7624 40.6756 43.0714 41.4995 43.2774 42.4265C43.4833 43.3534 43.5864 44.2803 43.5864 45.0013C43.5864 45.7223 43.3804 46.3402 42.9684 46.8552C42.6594 47.3702 42.1444 47.6791 41.5265 47.7821C40.8055 48.0911 39.9816 47.8851 39.2606 47.1642ZM42.3504 45.3103C42.4534 44.5893 42.3504 43.7654 42.1445 42.7354C41.8355 41.7055 41.5265 40.8816 41.1145 40.3666C40.7025 39.7486 40.1876 39.5426 39.6726 39.7486C39.1576 39.8516 38.8486 40.2636 38.7456 40.9846C38.6427 41.7055 38.7457 42.5295 38.9516 43.5594C39.2606 44.5893 39.5696 45.4133 39.9816 45.9282C40.3936 46.4432 40.9085 46.6492 41.4235 46.5462C41.9385 46.4432 42.2474 46.0312 42.3504 45.3103Z" fill="#2996D3"/>
<path d="M46.1612 45.4133C45.4403 44.6924 44.9253 43.6624 44.5133 42.1175C44.1013 40.6756 44.1013 39.4397 44.4103 38.5127C44.7193 37.5858 45.3373 36.9678 46.2642 36.7619C46.8822 36.6589 47.3971 36.6589 47.9121 36.9678C48.427 37.2768 48.942 37.6888 49.354 38.3068C49.766 38.9247 50.075 39.7487 50.2809 40.6756C50.4869 41.6026 50.5899 42.5295 50.5899 43.2504C50.5899 43.9714 50.3839 44.5894 49.9719 45.1043C49.663 45.6193 49.148 45.9283 48.53 46.0313C47.7061 46.3402 46.8822 46.1343 46.1612 45.4133ZM49.251 43.5594C49.354 42.8385 49.251 42.0145 49.045 40.9846C48.736 39.9547 48.4271 39.1307 48.0151 38.6157C47.6031 37.9978 47.0881 37.7918 46.5732 37.9978C46.0582 38.1008 45.7492 38.5127 45.6462 39.2337C45.5432 39.9547 45.6462 40.7786 45.8522 41.8085C46.1612 42.8385 46.4702 43.6624 46.8821 44.1774C47.2941 44.6924 47.8091 44.8983 48.3241 44.7953C48.839 44.6924 49.148 44.2804 49.251 43.5594Z" fill="#2996D3"/>
<g opacity="0.3">
<g opacity="0.3">
<path opacity="0.3" d="M64.7001 57.5665C64.3911 58.3904 64.2881 59.4204 63.5671 59.9353C62.9492 60.3473 62.1252 60.2443 61.4042 60.5533C60.6833 60.7593 60.1683 61.2743 59.8593 61.8922H70.6737V54.2707C68.2018 53.6527 65.524 55.1976 64.7001 57.5665Z" fill="black"/>
</g>
</g>
<g opacity="0.3">
<g opacity="0.3">
<path opacity="0.3" d="M67.4808 47.7822C67.2748 47.4732 66.9659 47.3702 66.5539 47.4732C66.4509 47.4732 66.3479 47.5762 66.2449 47.5762H66.3479C66.0389 47.7822 65.9359 48.1941 66.0389 48.5031C66.2449 48.9151 66.7599 49.1211 67.1719 48.9151C67.5838 48.7091 67.6868 48.0912 67.4808 47.7822Z" fill="black"/>
</g>
</g>
<g opacity="0.3">
<g opacity="0.3">
<path opacity="0.3" d="M23.5027 59.3174C21.8548 59.7294 20.3098 60.5533 19.1769 61.7892H31.9481C31.5361 61.3773 31.0212 61.0683 30.6092 60.6563C28.5493 59.2144 25.8715 58.6994 23.5027 59.3174Z" fill="black"/>
</g>
</g>
<g opacity="0.3">
<g opacity="0.3">
<path opacity="0.3" d="M47.3971 60.1414C45.6463 59.7294 43.7924 60.3474 42.1445 61.1713C41.7325 61.3773 41.3205 61.5833 40.9086 61.7893H50.178C49.56 60.9653 48.5301 60.3474 47.3971 60.1414Z" fill="black"/>
</g>
</g>
<path d="M65.009 7.5116H36.6858V18.5319H65.009V7.5116Z" fill="#FAFAFA"/>
<path d="M65.009 18.532C65.009 18.532 65.009 18.429 65.009 18.326C65.009 18.223 65.009 18.017 65.009 17.708C65.009 17.193 65.009 16.4721 65.009 15.5451C65.009 13.6913 65.009 10.9104 65.009 7.51165L65.112 7.61464C58.0055 7.61464 48.0151 7.61464 36.7888 7.61464L36.8918 7.51165C36.8918 11.3224 36.8918 15.0302 36.8918 18.532L36.7888 18.429C44.9253 18.429 52.0318 18.429 57.0785 18.429C59.5504 18.429 61.6102 18.429 62.9491 18.429C63.6701 18.429 64.1851 18.429 64.494 18.429C64.7 18.429 64.803 18.429 64.906 18.429C64.906 18.532 65.009 18.532 65.009 18.532C65.009 18.532 65.009 18.532 64.906 18.532C64.803 18.532 64.7 18.532 64.494 18.532C64.0821 18.532 63.5671 18.532 62.9491 18.532C61.6102 18.532 59.5504 18.532 57.0785 18.532C52.0318 18.532 44.9253 18.532 36.7888 18.532H36.6858V18.429C36.6858 15.0302 36.6858 11.3224 36.6858 7.40866V7.30566H36.7888C47.9121 7.30566 58.0055 7.30566 65.112 7.30566H65.215V7.40866C65.215 10.8074 65.215 13.5883 65.215 15.4422C65.215 16.3691 65.215 17.09 65.215 17.605C65.215 17.811 65.215 18.017 65.215 18.12C65.009 18.429 65.009 18.532 65.009 18.532Z" fill="#0A100C"/>
<path d="M65.009 7.5116H36.6858V9.88045H65.009V7.5116Z" fill="#0A100C"/>
<path d="M42.8654 11.7343H40.0846V14.5151H42.8654V11.7343Z" fill="#0A100C"/>
<path d="M44.5133 13.3823H41.7325V16.1631H44.5133V13.3823Z" fill="#0A100C"/>
<path d="M49.457 11.7343H46.6762V14.5151H49.457V11.7343Z" fill="#0A100C"/>
<path d="M51.1049 13.3823H48.3241V16.1631H51.1049V13.3823Z" fill="#F5F5F5"/>
<path d="M51.1049 16.163C51.1049 16.163 51.1049 16.06 51.1049 15.957C51.1049 15.751 51.1049 15.6481 51.1049 15.3391C51.1049 14.8241 51.1049 14.2061 51.1049 13.3822L51.2079 13.4852C50.384 13.4852 49.457 13.4852 48.4271 13.4852L48.5301 13.3822V13.4852V13.6912C48.5301 13.7942 48.5301 13.8972 48.5301 14.1032C48.5301 14.3091 48.5301 14.6181 48.5301 14.8241C48.5301 15.3391 48.5301 15.751 48.5301 16.163L48.4271 16.06C49.251 16.06 49.972 16.06 50.384 16.06C50.59 16.06 50.7959 16.06 51.0019 16.06C51.0019 16.163 51.1049 16.163 51.1049 16.163C51.1049 16.163 51.0019 16.163 50.8989 16.163C50.7959 16.163 50.59 16.163 50.384 16.163C49.869 16.163 49.148 16.163 48.3241 16.163H48.2211V16.06C48.2211 15.6481 48.2211 15.2361 48.2211 14.7211C48.2211 14.5151 48.2211 14.2061 48.2211 14.0002C48.2211 13.8972 48.2211 13.7942 48.2211 13.5882V13.3822V13.2792C48.1181 13.3822 48.3241 13.1762 48.3241 13.1762C49.354 13.1762 50.281 13.1762 51.1049 13.1762H51.2079V13.2792C51.2079 14.1032 51.2079 14.8241 51.2079 15.3391C51.2079 15.5451 51.2079 15.751 51.2079 15.854C51.1049 16.06 51.1049 16.163 51.1049 16.163Z" fill="#0A100C"/>
<path d="M55.6366 11.7343H52.8558V14.5151H55.6366V11.7343Z" fill="#F5F5F5"/>
<path d="M55.6366 14.5151C55.6366 14.5151 55.6366 14.4121 55.6366 14.3091C55.6366 14.1032 55.6366 14.0002 55.6366 13.6912C55.6366 13.1762 55.6366 12.5583 55.6366 11.7343L55.7396 11.8373C54.9157 11.8373 53.9887 11.8373 52.9588 11.8373L53.0618 11.7343V11.8373V12.0433C53.0618 12.1463 53.0618 12.2493 53.0618 12.4553C53.0618 12.6612 53.0618 12.9702 53.0618 13.1762C53.0618 13.6912 53.0618 14.1032 53.0618 14.5151L52.9588 14.4121C53.7828 14.4121 54.5037 14.4121 54.9157 14.4121C55.1217 14.4121 55.3277 14.4121 55.5336 14.4121C55.5336 14.5151 55.6366 14.5151 55.6366 14.5151C55.6366 14.5151 55.5336 14.5151 55.4306 14.5151C55.3277 14.5151 55.1217 14.5151 54.9157 14.5151C54.4007 14.5151 53.6798 14.5151 52.8558 14.5151H52.7528V14.4121C52.7528 14.0002 52.7528 13.5882 52.7528 13.0732C52.7528 12.8672 52.7528 12.5583 52.7528 12.3523C52.7528 12.2493 52.7528 12.1463 52.7528 11.9403V11.7343V11.6313C52.6498 11.7343 52.8558 11.5283 52.8558 11.5283C53.8857 11.5283 54.8127 11.5283 55.6366 11.5283H55.7396V11.6313C55.7396 12.4553 55.7396 13.1762 55.7396 13.6912C55.7396 13.8972 55.7396 14.1032 55.7396 14.2062C55.6366 14.4121 55.6366 14.5151 55.6366 14.5151Z" fill="#0A100C"/>
<path d="M57.2845 13.3822H54.5037V16.163H57.2845V13.3822Z" fill="#F5F5F5"/>
<path d="M57.2845 16.163C57.2845 16.163 57.2845 16.06 57.2845 15.957C57.2845 15.751 57.2845 15.648 57.2845 15.339C57.2845 14.824 57.2845 14.2061 57.2845 13.3821L57.3875 13.4851C56.5636 13.4851 55.6366 13.4851 54.6067 13.4851L54.7097 13.3821V13.4851V13.6911C54.7097 13.7941 54.7097 13.8971 54.7097 14.1031C54.7097 14.3091 54.7097 14.6181 54.7097 14.824C54.7097 15.339 54.7097 15.751 54.7097 16.163L54.6067 16.06C55.4306 16.06 56.1516 16.06 56.5636 16.06C56.7696 16.06 56.9755 16.06 57.1815 16.06C57.1815 16.163 57.2845 16.163 57.2845 16.163C57.2845 16.163 57.1815 16.163 57.0785 16.163C56.9755 16.163 56.7696 16.163 56.5636 16.163C56.0486 16.163 55.3276 16.163 54.5037 16.163H54.4007V16.06C54.4007 15.648 54.4007 15.236 54.4007 14.7211C54.4007 14.5151 54.4007 14.2061 54.4007 14.0001C54.4007 13.8971 54.4007 13.7941 54.4007 13.5881V13.3821V13.2791C54.2977 13.3821 54.5037 13.1761 54.5037 13.1761C55.5336 13.1761 56.4606 13.1761 57.2845 13.1761H57.3875V13.2791C57.3875 14.1031 57.3875 14.824 57.3875 15.339C57.3875 15.545 57.3875 15.751 57.3875 15.854C57.2845 16.06 57.2845 16.163 57.2845 16.163Z" fill="#0A100C"/>
<path d="M55.6366 13.3822H54.5037V14.5151H55.6366V13.3822Z" fill="#0A100C"/>
<path d="M61.3012 11.7343H58.5204V14.5151H61.3012V11.7343Z" fill="#0A100C"/>
<path d="M62.9491 13.3822H60.1683V16.163H62.9491V13.3822Z" fill="#0A100C"/>
<path d="M61.3012 13.3822H60.1683V14.5151H61.3012V13.3822Z" fill="#FAFAFA"/>
<path d="M84.6791 24.8129H57.4888V35.4212H84.6791V24.8129Z" fill="#FAFAFA"/>
<path d="M84.6808 35.4229H57.3875V24.7116H84.6808V35.4229ZM57.4905 35.3199H84.5778V24.8146H57.4905V35.3199Z" fill="#1C1C1B"/>
<path d="M84.6791 24.8129H57.4888V27.0787H84.6791V24.8129Z" fill="#0A100C"/>
<path d="M61.7132 29.8613H59.0354V32.5391H61.7132V29.8613Z" fill="#F5F5F5"/>
<path d="M61.7133 32.5391C61.7133 32.5391 61.7133 32.4361 61.7133 32.3331C61.7133 32.2301 61.7133 32.0242 61.7133 31.8182C61.7133 31.3032 61.7133 30.6852 61.7133 29.8613L61.8162 29.9643C60.9923 29.9643 60.0654 29.9643 59.1384 29.9643L59.2414 29.8613V29.9643V30.1703C59.2414 30.2733 59.2414 30.3763 59.2414 30.4793C59.2414 30.6852 59.2414 30.9942 59.2414 31.2002C59.2414 31.6122 59.2414 32.0242 59.2414 32.4361L59.1384 32.3331C59.9624 32.3331 60.5803 32.3331 61.0953 32.3331C61.3013 32.3331 61.5073 32.3331 61.6103 32.3331C61.6103 32.5391 61.7133 32.5391 61.7133 32.5391C61.7133 32.5391 61.5073 32.5391 60.9923 32.5391C60.4773 32.5391 59.8594 32.5391 59.0354 32.5391H58.9324V32.4361C58.9324 32.0242 58.9324 31.6122 58.9324 31.2002C58.9324 30.9942 58.9324 30.7882 58.9324 30.4793C58.9324 30.3763 58.9324 30.2733 58.9324 30.1703V29.9643V29.8613C58.8294 29.9643 59.0354 29.7583 59.0354 29.7583C60.0654 29.7583 60.8893 29.7583 61.7133 29.7583H61.8162V29.8613C61.8162 30.6852 61.8162 31.4062 61.8162 31.8182C61.7132 32.3331 61.7133 32.5391 61.7133 32.5391Z" fill="#0A100C"/>
<path d="M59.0354 32.5391C59.0354 32.5391 59.5503 31.9212 60.2713 31.0972C60.9923 30.3763 61.6102 29.7583 61.7132 29.8613C61.7132 29.8613 61.1983 30.4793 60.4773 31.3032C59.6534 32.0242 59.0354 32.6421 59.0354 32.5391Z" fill="#D71A22"/>
<path d="M65.215 29.8613H62.5372V32.5391H65.215V29.8613Z" fill="#0A100C"/>
<path d="M68.7168 29.8613H66.0389V32.5391H68.7168V29.8613Z" fill="#375A64"/>
<path d="M72.1156 29.8613H69.4378V32.5391H72.1156V29.8613Z" fill="#D71A22"/>
<path d="M75.6174 29.8613H72.9395V32.5391H75.6174V29.8613Z" fill="#D71A22"/>
<g opacity="0.5">
<g opacity="0.5">
<path opacity="0.5" d="M75.6174 29.8613H72.9395V32.5391H75.6174V29.8613Z" fill="white"/>
</g>
</g>
<path d="M79.1192 29.8613H76.4413V32.5391H79.1192V29.8613Z" fill="#D71A22"/>
<g opacity="0.3">
<g opacity="0.3">
<path opacity="0.3" d="M79.1192 29.8613H76.4413V32.5391H79.1192V29.8613Z" fill="black"/>
</g>
</g>
<path d="M82.6209 29.8613H79.9431V32.5391H82.6209V29.8613Z" fill="#D71A22"/>
<g opacity="0.7">
<g opacity="0.7">
<path opacity="0.7" d="M82.6209 29.8613H79.9431V32.5391H82.6209V29.8613Z" fill="black"/>
</g>
</g>
<path d="M77.4713 61.4803C78.7227 61.4803 79.7371 60.4658 79.7371 59.2144C79.7371 57.963 78.7227 56.9485 77.4713 56.9485C76.2199 56.9485 75.2054 57.963 75.2054 59.2144C75.2054 60.4658 76.2199 61.4803 77.4713 61.4803Z" fill="#0A100C"/>
<path d="M78.2952 59.2145C78.2952 59.6264 77.8832 60.0384 77.4713 60.0384C77.0593 60.0384 76.6473 59.6264 76.6473 59.2145C76.6473 58.8025 77.0593 58.3905 77.4713 58.3905C77.9862 58.3905 78.2952 58.8025 78.2952 59.2145Z" fill="#375A64"/>
<path d="M76 70.2V76.4H70.2V107H76.1V112.3H72.9C72.3 112.3 71.8 112.3 71.3 112.4C70.9 112.5 70.5 112.7 70.2 112.9C69.9 113.2 69.7 113.5 69.6 114C69.5 114.5 69.4 115.1 69.3 115.8L69.1 120.2H64.1V76.4H58.6V70.2H76Z" fill="black"/>
<path d="M39.6 72.1C39.9 71.6 40.2 71.1 40.5 70.8C40.8 70.4 41.2 70.2 41.8 70C42.3 69.8 43 69.7 43.9 69.6C44.8 69.5 46 69.5 47.4 69.5C48.9 69.5 50 69.5 50.9 69.6C51.8 69.7 52.5 69.8 53 70C53.5 70.2 53.9 70.5 54.3 70.8C54.6 71.2 54.9 71.6 55.2 72.1C55.6 72.8 55.8 73.6 56 74.6C56.2 75.6 56.4 76.9 56.5 78.7C56.6 80.4 56.7 82.6 56.8 85.3C56.8 88 56.9 91.3 56.9 95.4C56.9 99.4 56.9 102.8 56.8 105.5C56.8 108.2 56.7 110.4 56.5 112.1C56.3 113.8 56.2 115.2 56 116.1C55.8 117.1 55.5 117.9 55.2 118.5C54.9 119 54.7 119.5 54.3 119.8C54 120.2 53.6 120.4 53 120.6C52.5 120.8 51.8 120.9 50.9 121C50 121.1 48.8 121.1 47.4 121.1C45.9 121.1 44.8 121.1 43.9 121C43 120.9 42.3 120.8 41.8 120.6C41.3 120.4 40.9 120.1 40.5 119.8C40.2 119.4 39.9 119 39.6 118.5C39.3 117.8 39 117 38.8 116.1C38.6 115.1 38.4 113.8 38.3 112.1C38.2 110.4 38.1 108.2 38 105.5C38 102.8 37.9 99.5 37.9 95.4C37.9 91.4 37.9 88 38 85.3C38 82.6 38.1 80.4 38.3 78.7C38.4 77 38.6 75.6 38.8 74.6C39 73.5 39.3 72.7 39.6 72.1ZM44.5 77.2C44.4 77.6 44.3 78.1 44.2 78.6C44.1 79.1 44 80 44 81.2C43.9 82.4 43.9 84.1 43.9 86.3C43.9 88.5 43.9 91.4 43.9 95.1C43.9 99.1 43.9 102.2 43.9 104.4C43.9 106.6 44 108.4 44 109.6C44.1 110.8 44.1 111.6 44.2 112.1C44.3 112.6 44.4 113 44.5 113.4C44.8 114.1 45.1 114.6 45.5 114.8C45.9 115 46.5 115.1 47.4 115.1C48.3 115.1 49 115 49.3 114.8C49.7 114.6 50 114.1 50.3 113.4C50.4 113 50.5 112.6 50.6 112.1C50.7 111.6 50.8 110.8 50.8 109.6C50.9 108.4 50.9 106.7 50.9 104.4C50.9 102.2 50.9 99.1 50.9 95.1C50.9 91.4 50.9 88.5 50.9 86.3C50.9 84.1 50.8 82.4 50.8 81.2C50.7 80 50.7 79.1 50.6 78.6C50.5 78.1 50.4 77.6 50.3 77.2C50 76.5 49.7 76 49.3 75.8C48.9 75.6 48.3 75.5 47.4 75.5C46.5 75.5 45.8 75.6 45.5 75.8C45.1 76 44.7 76.5 44.5 77.2Z" fill="#D71A22"/>
<path d="M17.5 72.1C17.8 71.6 18.1 71.1 18.4 70.8C18.7 70.4 19.1 70.2 19.7 70C20.2 69.8 20.9 69.7 21.8 69.6C22.7 69.5 23.9 69.5 25.3 69.5C26.8 69.5 27.9 69.5 28.8 69.6C29.7 69.7 30.4 69.8 30.9 70C31.4 70.2 31.8 70.5 32.2 70.8C32.5 71.2 32.8 71.6 33.1 72.1C33.5 72.8 33.7 73.6 33.9 74.6C34.1 75.6 34.3 76.9 34.4 78.7C34.5 80.4 34.6 82.6 34.7 85.3C34.7 88 34.8 91.3 34.8 95.4C34.8 99.4 34.8 102.8 34.7 105.5C34.7 108.2 34.6 110.4 34.4 112.1C34.2 113.8 34.1 115.2 33.9 116.1C33.7 117.1 33.4 117.9 33.1 118.5C32.8 119 32.5 119.5 32.2 119.8C31.9 120.2 31.5 120.4 30.9 120.6C30.4 120.8 29.7 120.9 28.8 121C27.9 121.1 26.7 121.1 25.3 121.1C23.8 121.1 22.7 121.1 21.8 121C20.9 120.9 20.2 120.8 19.7 120.6C19.2 120.4 18.8 120.1 18.4 119.8C18.1 119.4 17.8 119 17.5 118.5C17.2 117.8 16.9 117 16.7 116.1C16.5 115.1 16.3 113.8 16.2 112.1C16.1 110.4 16 108.2 15.9 105.5C15.9 102.8 15.8 99.5 15.8 95.4C15.8 91.4 15.8 88 15.9 85.3C15.9 82.6 16 80.4 16.2 78.7C16.3 77 16.5 75.6 16.7 74.6C17 73.5 17.2 72.7 17.5 72.1ZM22.4 77.2C22.3 77.6 22.2 78.1 22.1 78.6C22 79.1 21.9 80 21.9 81.2C21.8 82.4 21.8 84.1 21.8 86.3C21.8 88.5 21.8 91.4 21.8 95.1C21.8 99.1 21.8 102.2 21.8 104.4C21.8 106.6 21.9 108.4 21.9 109.6C22 110.8 22 111.6 22.1 112.1C22.2 112.6 22.3 113 22.4 113.4C22.7 114.1 23 114.6 23.4 114.8C23.8 115 24.4 115.1 25.3 115.1C26.2 115.1 26.9 115 27.2 114.8C27.6 114.6 27.9 114.1 28.2 113.4C28.3 113 28.4 112.6 28.5 112.1C28.6 111.6 28.7 110.8 28.7 109.6C28.8 108.4 28.8 106.7 28.8 104.4C28.8 102.2 28.8 99.1 28.8 95.1C28.8 91.4 28.8 88.5 28.8 86.3C28.8 84.1 28.7 82.4 28.7 81.2C28.6 80 28.6 79.1 28.5 78.6C28.4 78.1 28.3 77.6 28.2 77.2C27.9 76.5 27.6 76 27.2 75.8C26.8 75.6 26.2 75.5 25.3 75.5C24.4 75.5 23.7 75.6 23.4 75.8C23 76 22.7 76.5 22.4 77.2Z" fill="#2B9EE7"/>
</svg>
