<svg width="93" height="129" viewBox="0 0 93 129" fill="none" xmlns="http://www.w3.org/2000/svg">
<path d="M88.7301 129H4.26988C1.87458 129 0 127.044 0 124.779V4.22104C0 1.85313 1.97872 0 4.26988 0H88.7301C91.1254 0 93 1.95608 93 4.22104V124.779C93 127.147 91.1254 129 88.7301 129Z" fill="#C8E1FF"/>
<path d="M87.2 127H6.1C3.8 127 2 125.1 2 122.9V5.79999C2 3.49999 3.9 1.70001 6.1 1.70001H87.2C89.5 1.70001 91.3 3.59999 91.3 5.79999V122.9C91.3 125.2 89.5 127 87.2 127Z" fill="#EEF5FF"/>
<path d="M56 82.9802L71.9355 121H82L74.0323 81L56 82.9802Z" fill="#228845"/>
<path d="M36 48.9208L20.0645 9H10L17.9677 51L36 48.9208Z" fill="#248747"/>
<path d="M27.504 22.536C27.232 22.288 27.2 22.104 27.2 21.768C27.2 21.4 27.44 21.16 27.952 21.16C28.464 21.16 28.704 21.4 28.704 21.768V22.48H29.264V21.8C29.264 21.104 28.872 20.68 27.976 20.68C27.064 20.68 26.64 21.104 26.64 21.8C26.64 22.264 26.736 22.544 27.072 22.88L28.48 24.256C28.744 24.512 28.784 24.704 28.784 25.032C28.784 25.4 28.528 25.64 27.992 25.64C27.456 25.64 27.2 25.4 27.2 25.032V24.32H26.64V25C26.64 25.696 27.048 26.12 27.992 26.12C28.936 26.12 29.344 25.696 29.344 25C29.344 24.528 29.256 24.256 28.936 23.912L27.504 22.536ZM31.4804 20.8L30.3044 26H30.8644L31.1364 24.8H32.6644L32.9364 26H33.4964L32.3204 20.8H31.4804ZM31.8964 21.424L32.5524 24.32H31.2404L31.8964 21.424ZM35.1725 26V22L36.9085 26H37.4685V20.8H36.9085V24.8L35.1725 20.8H34.6125V26H35.1725ZM41.1456 20.8H38.5056V21.28H39.5456V26H40.1056V21.28H41.1456V20.8ZM44.5428 26V25.52H42.7428V23.6H44.1428V23.12H42.7428V21.28H44.4628V20.8H42.1828V26H44.5428ZM44.1108 19.656L43.6788 19.224L42.6948 20.208L42.9028 20.416L43.8068 19.96L44.1108 19.656ZM48.8771 26C49.7411 26 50.1491 25.576 50.1491 24.88V21.92C50.1491 21.232 49.7251 20.8 48.8771 20.8H47.5891V26H48.8771ZM49.5891 24.88C49.5891 25.2 49.3571 25.52 48.8771 25.52H48.1491V21.28H48.8771C49.3491 21.28 49.5891 21.608 49.5891 21.92V24.88ZM53.9881 26V25.52H52.1881V23.6H53.5881V23.12H52.1881V21.28H53.9081V20.8H51.6281V26H53.9881ZM57.5944 26V23.6H58.9144V23.12H57.5944V21.28H59.2344V20.8H57.0344V26H57.5944ZM62.7147 26V25.52H60.9147V23.6H62.3147V23.12H60.9147V21.28H62.6347V20.8H60.3547V26H62.7147ZM64.4772 26V24.16H65.1252L66.0612 26H66.6772L65.6932 24.08C66.1652 23.928 66.3972 23.56 66.3972 23.04V21.92C66.3972 21.232 65.9732 20.8 65.1252 20.8H63.9172V26H64.4772ZM65.8372 23.04C65.8372 23.44 65.6052 23.68 65.1252 23.68H64.4772V21.28H65.1252C65.5972 21.28 65.8372 21.528 65.8372 21.92V23.04Z" fill="black"/>
<path d="M65.496 110.464C65.768 110.712 65.8 110.896 65.8 111.232C65.8 111.6 65.56 111.84 65.048 111.84C64.536 111.84 64.296 111.6 64.296 111.232L64.296 110.52L63.736 110.52L63.736 111.2C63.736 111.896 64.128 112.32 65.024 112.32C65.936 112.32 66.36 111.896 66.36 111.2C66.36 110.736 66.264 110.456 65.928 110.12L64.52 108.744C64.256 108.488 64.216 108.296 64.216 107.968C64.216 107.6 64.472 107.36 65.008 107.36C65.544 107.36 65.8 107.6 65.8 107.968L65.8 108.68L66.36 108.68L66.36 108C66.36 107.304 65.952 106.88 65.008 106.88C64.064 106.88 63.656 107.304 63.656 108C63.656 108.472 63.744 108.744 64.064 109.088L65.496 110.464ZM61.5196 112.2L62.6956 107L62.1356 107L61.8636 108.2L60.3356 108.2L60.0636 107L59.5036 107L60.6796 112.2L61.5196 112.2ZM61.1036 111.576L60.4476 108.68L61.7596 108.68L61.1036 111.576ZM57.8275 107L57.8275 111L56.0915 107L55.5315 107L55.5315 112.2L56.0915 112.2L56.0915 108.2L57.8275 112.2L58.3875 112.2L58.3875 107L57.8275 107ZM51.8544 112.2L54.4944 112.2L54.4944 111.72L53.4544 111.72L53.4544 107L52.8944 107L52.8944 111.72L51.8544 111.72L51.8544 112.2ZM48.4572 107L48.4572 107.48L50.2572 107.48L50.2572 109.4L48.8572 109.4L48.8572 109.88L50.2572 109.88L50.2572 111.72L48.5372 111.72L48.5372 112.2L50.8172 112.2L50.8172 107L48.4572 107ZM48.8892 113.344L49.3212 113.776L50.3052 112.792L50.0972 112.584L49.1932 113.04L48.8892 113.344ZM44.1229 107C43.2589 107 42.8509 107.424 42.8509 108.12L42.8509 111.08C42.8509 111.768 43.2749 112.2 44.1229 112.2L45.4109 112.2L45.4109 107L44.1229 107ZM43.4109 108.12C43.4109 107.8 43.6429 107.48 44.1229 107.48L44.8509 107.48L44.8509 111.72L44.1229 111.72C43.6509 111.72 43.4109 111.392 43.4109 111.08L43.4109 108.12ZM39.0119 107L39.0119 107.48L40.8119 107.48L40.8119 109.4L39.4119 109.4L39.4119 109.88L40.8119 109.88L40.8119 111.72L39.0919 111.72L39.0919 112.2L41.3719 112.2L41.3719 107L39.0119 107ZM35.4056 107L35.4056 109.4L34.0856 109.4L34.0856 109.88L35.4056 109.88L35.4056 111.72L33.7656 111.72L33.7656 112.2L35.9656 112.2L35.9656 107L35.4056 107ZM30.2853 107L30.2853 107.48L32.0853 107.48L32.0853 109.4L30.6853 109.4L30.6853 109.88L32.0853 109.88L32.0853 111.72L30.3653 111.72L30.3653 112.2L32.6453 112.2L32.6453 107L30.2853 107ZM28.5228 107L28.5228 108.84L27.8748 108.84L26.9388 107L26.3228 107L27.3068 108.92C26.8348 109.072 26.6028 109.44 26.6028 109.96L26.6028 111.08C26.6028 111.768 27.0268 112.2 27.8748 112.2L29.0828 112.2L29.0828 107L28.5228 107ZM27.1628 109.96C27.1628 109.56 27.3948 109.32 27.8748 109.32L28.5228 109.32L28.5228 111.72L27.8748 111.72C27.4028 111.72 27.1628 111.472 27.1628 111.08L27.1628 109.96Z" fill="black"/>
<path d="M53.6146 52.4054C52.6826 52.4054 51.9323 51.7063 51.9323 50.8377V44.4612C51.9323 42.6323 50.3334 41.1424 48.3708 41.1424H42.5358C40.5731 41.1424 38.9742 42.6323 38.9742 44.4612V50.8377C38.9742 51.7063 38.224 52.4054 37.2919 52.4054C36.3598 52.4054 35.6096 51.7063 35.6096 50.8377V44.4612C35.6096 40.9023 38.7165 38 42.5434 38H48.3783C52.1976 38 55.3121 40.8952 55.3121 44.4612V50.8377C55.2969 51.7063 54.5467 52.4054 53.6146 52.4054Z" fill="#C4170B"/>
<path d="M58.3886 82H32.6845C27.3573 82 23 77.9326 23 72.9684V56.1833C23 51.2191 27.3573 47.1587 32.6845 47.1587H58.3886C63.7159 47.1587 68.0732 51.2191 68.0732 56.1833V72.9754C68.0732 77.9326 63.7159 82 58.3886 82Z" fill="#2B9EE7"/>
<path d="M45.4457 71.1324C50.0368 71.1324 53.7586 67.6642 53.7586 63.386C53.7586 59.1077 50.0368 55.6395 45.4457 55.6395C40.8546 55.6395 37.1328 59.1077 37.1328 63.386C37.1328 67.6642 40.8546 71.1324 45.4457 71.1324Z" fill="#C4170B"/>
<path d="M50.2652 61.9454H46.9916V58.8878H43.9074V61.9454H40.6262V64.8194H43.9074V67.8771H46.9916V64.8194H50.2652V61.9454Z" fill="white"/>
<path d="M35.3292 47.1587H31.9646V82H35.3292V47.1587Z" fill="#C4170B"/>
<path d="M58.9267 47.1587H55.5621V82H58.9267V47.1587Z" fill="#C4170B"/>
<path d="M18 12.3606H16.6415V11H15.3616V12.3606H14V13.6394H15.3616V15H16.6415V13.6394H18V12.3606Z" fill="white"/>
<path d="M78 116.361H76.6415V115H75.3616V116.361H74V117.639H75.3616V119H76.6415V117.639H78V116.361Z" fill="white"/>
</svg>
