<svg width="91" height="126" viewBox="0 0 91 126" fill="none" xmlns="http://www.w3.org/2000/svg">
<path d="M85.9 125.6H4.79999C2.49999 125.6 0.700012 123.7 0.700012 121.5V4.39998C0.700012 2.09998 2.59999 0.299988 4.79999 0.299988H85.9C88.2 0.299988 90 2.19998 90 4.39998V121.5C90.1 123.7 88.2 125.6 85.9 125.6Z" fill="#EEF5FF"/>
<path d="M21.838 25.2471C23.0753 26.9932 22.4596 29.5592 20.464 30.9733C18.4683 32.3874 15.8455 32.1208 14.606 30.3716C13.3687 28.6254 13.9844 26.0594 15.98 24.6453C17.9792 23.2288 20.6007 23.5009 21.838 25.2471Z" fill="black"/>
<path d="M19.3907 29.9139L18.9455 29.2857L18.5457 29.569L18.9909 30.1972L19.3907 29.9139ZM18.2152 28.9452L18.4437 28.7833L18.4462 28.121C18.4499 27.3634 18.4165 26.9409 18.2222 26.6668L18.0199 26.3812C17.6678 25.8843 17.1506 25.7961 16.4995 26.2575C15.8598 26.7107 15.7944 27.2118 16.1465 27.7087L16.4905 28.1941L16.8903 27.9108L16.5301 27.4025C16.344 27.1398 16.3939 26.847 16.7594 26.588C17.125 26.329 17.4177 26.3789 17.6039 26.6417L17.8224 26.9501C17.9843 27.1785 17.9637 27.6822 17.9678 28.0996L17.9724 28.6025L18.2152 28.9452Z" fill="white"/>
<path d="M21.838 25.2471C23.0753 26.9932 22.4596 29.5592 20.464 30.9733C18.4683 32.3874 15.8455 32.1208 14.606 30.3716C13.3687 28.6254 13.9844 26.0594 15.98 24.6453C17.9792 23.2288 20.6007 23.5009 21.838 25.2471Z" fill="#D71A22"/>
<path d="M36.3538 24.2883C35.1196 22.5464 32.7033 22.1366 30.9582 23.3731C29.2132 24.6096 28.7989 27.0251 30.0332 28.767C30.8908 29.9774 32.3179 30.5422 33.6917 30.3619C30.8574 32.02 28.2116 31.6286 26.0557 31.3022C25.3147 31.1885 24.6489 31.0937 24.0347 31.0861C23.2549 31.0051 22.4492 31.1279 21.7309 31.4103L21.4749 32.9205L19.9854 32.6317C19.982 32.6341 19.9785 32.6365 19.9751 32.639C19.5168 33.1646 19.1573 33.8005 18.9565 34.4784C18.6908 35.1302 18.5411 35.8801 18.3781 36.7424C17.951 38.9868 17.4167 41.75 14.6025 43.9244C15.4738 42.6271 15.5108 40.8807 14.5559 39.5331C13.3192 37.7879 10.9054 37.3815 9.16035 38.618C7.4153 39.8545 7.00104 42.27 8.23529 44.0119C9.46954 45.7537 11.8858 46.1636 13.6309 44.927C13.6583 44.9076 13.6834 44.8847 13.7109 44.8652C13.4722 45.3949 13.5059 46.025 13.8631 46.5291C14.4 47.2869 15.4498 47.4649 16.209 46.927C19.1288 44.858 20.4053 42.2539 21.0725 40.0351L24.9308 45.4801C25.2418 45.9189 25.6256 46.2495 26.0584 46.4888C26.0681 46.5026 26.0709 46.5211 26.0807 46.5349L35.3856 59.6883C36.0197 60.5832 37.2596 60.7965 38.1586 60.1646L38.162 60.1622C39.0586 59.5269 39.2742 58.2874 38.6376 57.389L30.6569 46.1043C30.6947 46.0776 30.7314 46.0567 30.7658 46.0323C30.807 46.0031 30.8492 45.968 30.8905 45.9388L38.8815 57.2162C39.5156 58.1112 40.759 58.322 41.6555 57.6867C42.5521 57.0514 42.7653 55.8085 42.1311 54.9136L32.8184 41.7709C32.7965 41.74 32.7726 41.7209 32.7498 41.6959C32.6644 41.2259 32.4826 40.7727 32.1813 40.3475L28.3449 34.9334C30.6487 35.0316 33.498 34.6762 36.3869 32.6291C37.1461 32.0912 37.3261 31.0417 36.7891 30.2839C36.4903 29.8622 36.0297 29.6272 35.55 29.5911C37.1915 28.3249 37.5589 25.989 36.3538 24.2883ZM13.557 41.029C13.0986 41.1684 12.811 41.0683 12.6672 40.8509C12.4315 40.5183 12.5368 40.0625 12.98 39.7485C13.1895 39.6 13.4125 39.5142 13.5613 39.4911L13.7338 39.9458C13.6232 39.9572 13.4273 40.0084 13.2727 40.1179C13.1387 40.2129 13.0986 40.3237 13.1642 40.4163C13.2225 40.4986 13.3228 40.4945 13.5985 40.4176C14.0212 40.2932 14.287 40.3624 14.4775 40.624C14.7132 40.9566 14.6236 41.3909 14.1118 41.7535C13.8782 41.9191 13.6322 42.0161 13.4413 42.038L13.2591 41.5697C13.4059 41.5584 13.6723 41.4829 13.8372 41.3661C14.0055 41.2468 14.0329 41.1398 13.9673 41.0473C13.9017 40.9547 13.8152 40.9491 13.557 41.029ZM11.0037 43.8992L10.4438 44.296L9.72705 43.2845L7.91468 42.3798L8.55362 41.927L9.22814 42.3401C9.43006 42.4648 9.57977 42.5596 9.75236 42.6794L9.75923 42.6745C9.70486 42.4813 9.66364 42.2993 9.60944 42.0699L9.43988 41.299L10.0685 40.8536L10.2748 42.8706L11.0037 43.8992ZM10.9441 42.6281C10.6234 42.1755 10.5479 41.4719 11.1731 41.0289C11.7536 40.6175 12.2918 40.9109 12.6076 41.3566C12.6756 41.4526 12.7236 41.5422 12.7459 41.5882L11.5883 42.4085C11.7717 42.6237 12.0786 42.5762 12.3397 42.3912C12.5286 42.2573 12.6637 42.1203 12.7833 41.9687L13.1227 42.2947C12.9941 42.4992 12.7951 42.6917 12.5512 42.8645C11.9408 43.2919 11.3401 43.187 10.9441 42.6281ZM26.4348 39.9129L26.4176 39.925L24.7396 39.3629L21.5535 33.0605L21.5707 33.0484L22.3339 33.8415C22.3689 33.8836 22.4108 33.9209 22.4434 33.9596L26.4606 38.1434L26.4348 39.9129ZM30.2391 26.4579L30.8918 25.9954L32.045 26.538C32.3774 26.6939 32.7413 26.8944 33.0505 27.0977L33.0608 27.0904C32.7956 26.789 32.5462 26.4661 32.2838 26.0958L31.7712 25.3723L32.2864 25.0072L34.0358 27.4759L33.4483 27.8922L32.2439 27.3138C31.9091 27.1545 31.5251 26.9475 31.1974 26.7472L31.1861 26.7603C31.4306 27.0763 31.6863 27.4153 31.973 27.8199L32.5003 28.564L31.985 28.9291L30.2357 26.4603L30.2391 26.4579ZM35.3462 26.6092C34.8206 26.9816 34.1758 26.9235 33.7652 26.344C33.3546 25.7646 33.4735 25.1241 34.0506 24.7151C34.6002 24.3257 35.235 24.4424 35.6164 24.9807C36.0805 25.6356 35.8271 26.2684 35.3462 26.6092Z" fill="#D71A22"/>
<path d="M19.3907 29.9139L18.9455 29.2857L18.5457 29.569L18.9909 30.1972L19.3907 29.9139ZM18.2152 28.9452L18.4437 28.7833L18.4462 28.121C18.4499 27.3634 18.4165 26.9409 18.2222 26.6668L18.0199 26.3812C17.6678 25.8843 17.1506 25.7961 16.4995 26.2575C15.8598 26.7107 15.7944 27.2118 16.1465 27.7087L16.4905 28.1941L16.8903 27.9108L16.5301 27.4025C16.344 27.1398 16.3939 26.847 16.7594 26.588C17.125 26.329 17.4177 26.3789 17.6039 26.6417L17.8224 26.9501C17.9843 27.1785 17.9637 27.6822 17.9678 28.0996L17.9724 28.6025L18.2152 28.9452Z" fill="white"/>
<path d="M46.3729 98.1196C47.0221 96.0803 49.4415 95.0269 51.7721 95.7688C54.1027 96.5107 55.4691 98.7653 54.8188 100.808C54.1696 102.847 51.7502 103.901 49.4196 103.159C47.0849 102.416 45.7237 100.159 46.3729 98.1196Z" fill="#D71A22"/>
<path d="M37.1585 86.8876C36.5109 88.9218 37.6386 91.0978 39.6766 91.7465C41.7145 92.3953 43.8925 91.2716 44.5401 89.2374C44.99 87.8238 44.5818 86.3443 43.6107 85.3561C46.6411 86.6206 47.9216 88.9687 48.9591 90.8866C49.3146 91.5466 49.6397 92.1352 50.0035 92.6303C50.4083 93.3016 50.9914 93.8709 51.6495 94.2744L53.0093 93.5695L53.6756 94.9326C53.6796 94.9339 53.6836 94.9352 53.6876 94.9365C54.3832 94.9859 55.1074 94.8901 55.7695 94.6422C56.4499 94.4619 57.1388 94.1299 57.9254 93.7408C59.9745 92.7305 62.5024 91.4932 65.9329 92.4309C64.3726 92.5164 62.9559 93.5384 62.455 95.1121C61.8061 97.1504 62.9351 99.3223 64.973 99.971C67.011 100.62 69.189 99.4961 69.8366 97.4619C70.4841 95.4276 69.3565 93.2517 67.3185 92.603C67.2864 92.5927 67.253 92.5865 67.2209 92.5763C67.7876 92.448 68.2704 92.0416 68.4578 91.4529C68.7395 90.568 68.2495 89.6226 67.3629 89.3404C63.953 88.2549 61.1052 88.8037 58.932 89.607L60.9562 83.248C61.1194 82.7355 61.1522 82.2299 61.0827 81.7403C61.0878 81.7243 61.1009 81.7108 61.106 81.6948L66.0052 66.3459C66.3379 65.3007 65.7617 64.1823 64.7159 63.845L64.7119 63.8437C63.6648 63.5104 62.5454 64.0846 62.2114 65.1338L58.0069 78.3003C57.9627 78.2863 57.9239 78.2695 57.8838 78.2568C57.8356 78.2414 57.7822 78.2288 57.7341 78.2135L61.9265 65.0431C62.2592 63.998 61.679 62.8783 60.6319 62.545C59.5849 62.2117 58.4641 62.7899 58.1314 63.835L53.2455 79.1838C53.2341 79.2199 53.2332 79.2504 53.227 79.2837C52.9031 79.6349 52.6508 80.0529 52.4927 80.5495L50.4799 86.8724C49.1712 84.9739 47.1718 82.913 43.798 81.839C42.9114 81.5568 41.9651 82.045 41.6834 82.93C41.5266 83.4225 41.6163 83.9318 41.8763 84.3365C39.877 83.7883 37.7907 84.9014 37.1585 86.8876ZM64.2507 95.009C64.6381 95.2911 64.7313 95.581 64.6443 95.8267C64.5206 96.2151 64.0933 96.4054 63.5758 96.2407C63.3311 96.1628 63.1283 96.0365 63.0203 95.9316L63.2794 95.5201C63.3551 95.6015 63.514 95.7271 63.6945 95.7845C63.851 95.8343 63.9636 95.7996 63.9981 95.6915C64.0286 95.5954 63.965 95.5178 63.7376 95.344C63.3837 95.0814 63.279 94.8276 63.3731 94.518C63.4968 94.1295 63.8974 93.9395 64.4952 94.1298C64.768 94.2167 64.9936 94.3546 65.126 94.4938L64.8618 94.9213C64.7644 94.8109 64.5437 94.6436 64.3511 94.5823C64.1546 94.5197 64.0527 94.5623 64.0183 94.6704C63.9838 94.7785 64.0315 94.851 64.2507 95.009ZM68.0797 95.3194L68.7336 95.5275L68.3576 96.7088L68.7265 98.7006L67.9803 98.463L67.904 97.6758C67.882 97.4395 67.8675 97.2629 67.8592 97.0529L67.8512 97.0504C67.7297 97.2102 67.6092 97.3526 67.4587 97.534L66.9453 98.1336L66.2111 97.8999L67.6973 96.5207L68.0797 95.3194ZM67.1007 96.1323C66.9325 96.6609 66.4161 97.1448 65.686 96.9124C65.008 96.6966 64.9182 96.0903 65.084 95.5697C65.1196 95.4576 65.1623 95.3653 65.1856 95.3198L66.5376 95.7502C66.5989 95.4742 66.3762 95.2578 66.0713 95.1608C65.8506 95.0905 65.6599 95.0651 65.4668 95.0609L65.5228 94.5936C65.7635 94.5732 66.037 94.6162 66.3218 94.7069C67.0306 94.9369 67.3085 95.4796 67.1007 96.1323ZM55.6057 85.3993L55.6258 85.4057L56.1873 87.0839L53.0738 93.4225L53.0538 93.4161L53.2275 92.3291C53.24 92.2758 53.2446 92.2199 53.2558 92.1706L54.1774 86.4441L55.6057 85.3993ZM42.5725 90.4633L41.8103 90.2207L41.549 88.9732C41.4734 88.614 41.4144 88.2027 41.3905 87.8335L41.3785 87.8296C41.2975 88.2228 41.1899 88.6163 41.0522 89.0488L40.7833 89.8937L40.1815 89.7022L41.0993 86.819L41.7853 87.0374L42.0487 88.3473C42.1231 88.7105 42.1891 89.1417 42.2264 89.524L42.2438 89.5251C42.3488 89.1396 42.4655 88.7313 42.6159 88.2588L42.8925 87.3899L43.4943 87.5814L42.5765 90.4646L42.5725 90.4633ZM39.6182 86.2946C40.232 86.49 40.5739 87.0399 40.3585 87.7166C40.1431 88.3934 39.5601 88.6841 38.8861 88.4695C38.2442 88.2652 37.9552 87.6881 38.1553 87.0594C38.3988 86.2946 39.0566 86.1159 39.6182 86.2946Z" fill="#D71A22"/>
<path d="M51.5725 97.2636L51.3389 97.9973L51.8059 98.1459L52.0394 97.4122L51.5725 97.2636ZM51.5068 98.7853L51.24 98.7004L50.7096 99.0972C50.1026 99.5504 49.7854 99.8315 49.6835 100.152L49.5773 100.485C49.3926 101.065 49.6336 101.532 50.394 101.774C51.141 102.011 51.5804 101.762 51.7651 101.182L51.9456 100.615L51.4787 100.466L51.2897 101.06C51.192 101.366 50.9282 101.503 50.5014 101.367C50.0745 101.231 49.9381 100.967 50.0357 100.66L50.1504 100.3C50.2353 100.033 50.6498 99.7467 50.9807 99.492L51.3794 99.1855L51.5068 98.7853Z" fill="#D71A22"/>
<path d="M46.3729 98.1196C47.0221 96.0803 49.4415 95.0269 51.7721 95.7688C54.1027 96.5107 55.4691 98.7653 54.8188 100.808C54.1696 102.847 51.7502 103.901 49.4196 103.159C47.0849 102.416 45.7237 100.159 46.3729 98.1196Z" fill="#D71A22"/>
<path d="M51.5725 97.2636L51.3389 97.9973L51.8059 98.1459L52.0394 97.4122L51.5725 97.2636ZM51.5068 98.7853L51.24 98.7004L50.7096 99.0972C50.1026 99.5504 49.7854 99.8315 49.6835 100.152L49.5773 100.485C49.3926 101.065 49.6336 101.532 50.394 101.774C51.141 102.011 51.5804 101.762 51.7651 101.182L51.9456 100.615L51.4787 100.466L51.2897 101.06C51.192 101.366 50.9282 101.503 50.5014 101.367C50.0745 101.231 49.9381 100.967 50.0357 100.66L50.1504 100.3C50.2353 100.033 50.6498 99.7467 50.9807 99.492L51.3794 99.1855L51.5068 98.7853Z" fill="#EEF5FF"/>
<path d="M41.76 9V8.56H42.32V9C42.32 9.35733 42.2107 9.63467 41.992 9.832C41.7733 10.024 41.4453 10.12 41.008 10.12C40.5707 10.12 40.24 10.024 40.016 9.832C39.792 9.63467 39.68 9.35733 39.68 9V5.8C39.68 5.44267 39.7893 5.168 40.008 4.976C40.2267 4.77867 40.5547 4.68 40.992 4.68C41.4293 4.68 41.76 4.77867 41.984 4.976C42.208 5.168 42.32 5.44267 42.32 5.8V6.56H41.76V5.8C41.76 5.37333 41.5067 5.16 41 5.16C40.4933 5.16 40.24 5.37333 40.24 5.8V9C40.24 9.42667 40.4933 9.64 41 9.64C41.5067 9.64 41.76 9.42667 41.76 9ZM43.7219 10V4.8H44.2819V9.52H45.7459V10H43.7219ZM47.8263 9.52V10H46.4663V9.52H46.8663V5.28H46.4663V4.8H47.8263V5.28H47.4263V9.52H47.8263ZM51.5428 10H49.1828V4.8H51.4628V5.28H49.7428V7.12H51.1428V7.6H49.7428V9.52H51.5428V10ZM53.3053 10H52.7453V4.8H53.3053L55.0413 8.8V4.8H55.6013V10H55.0413L53.3053 6V10ZM59.2784 4.8V5.28H58.2384V10H57.6784V5.28H56.6384V4.8H59.2784Z" fill="black"/>
<path d="M63.2794 9.52V10H61.9194V9.52H62.3194V5.28H61.9194V4.8H63.2794V5.28H62.8794V9.52H63.2794ZM65.1959 10H64.6359V4.8H65.1959L66.9319 8.8V4.8H67.4919V10H66.9319L65.1959 6V10ZM70.3771 10H69.0891V4.8H70.3771C70.7931 4.8 71.1077 4.89867 71.3211 5.096C71.5397 5.29333 71.6491 5.568 71.6491 5.92V8.88C71.6491 9.23733 71.5424 9.51467 71.3291 9.712C71.1157 9.904 70.7984 10 70.3771 10ZM71.0891 8.88V5.92C71.0891 5.74933 71.0251 5.6 70.8971 5.472C70.7744 5.344 70.6011 5.28 70.3771 5.28H69.6491V9.52H70.3771C70.6011 9.52 70.7744 9.45867 70.8971 9.336C71.0251 9.208 71.0891 9.056 71.0891 8.88ZM75.4881 10H73.1281V4.8H75.4081V5.28H73.6881V7.12H75.0881V7.6H73.6881V9.52H75.4881V10ZM75.0561 3.656L74.7521 3.96L73.8481 4.416L73.6401 4.208L74.6241 3.224L75.0561 3.656ZM78.6506 9V8.56H79.2106V9C79.2106 9.35733 79.1013 9.63467 78.8826 9.832C78.664 10.024 78.336 10.12 77.8986 10.12C77.4613 10.12 77.1306 10.024 76.9066 9.832C76.6826 9.63467 76.5706 9.35733 76.5706 9V5.8C76.5706 5.44267 76.68 5.168 76.8986 4.976C77.1173 4.77867 77.4453 4.68 77.8826 4.68C78.32 4.68 78.6506 4.77867 78.8746 4.976C79.0986 5.168 79.2106 5.44267 79.2106 5.8V6.56H78.6506V5.8C78.6506 5.37333 78.3973 5.16 77.8906 5.16C77.384 5.16 77.1306 5.37333 77.1306 5.8V9C77.1306 9.42667 77.384 9.64 77.8906 9.64C78.3973 9.64 78.6506 9.42667 78.6506 9ZM81.7325 9.52V10H80.3725V9.52H80.7725V5.28H80.3725V4.8H81.7325V5.28H81.3325V9.52H81.7325ZM85.6331 9C85.6331 9.74667 85.1824 10.12 84.2811 10.12C83.3797 10.12 82.9291 9.74667 82.9291 9V8.32H83.4891V9.032C83.4891 9.224 83.5557 9.37333 83.6891 9.48C83.8224 9.58667 84.0197 9.64 84.2811 9.64C84.5424 9.64 84.7397 9.58667 84.8731 9.48C85.0064 9.37333 85.0731 9.22933 85.0731 9.048C85.0731 8.86133 85.0517 8.71467 85.0091 8.608C84.9717 8.496 84.8917 8.37867 84.7691 8.256L83.3611 6.88C83.1957 6.71467 83.0811 6.55467 83.0171 6.4C82.9584 6.24 82.9291 6.04 82.9291 5.8C82.9291 5.44267 83.0384 5.168 83.2571 4.976C83.4811 4.77867 83.8171 4.68 84.2651 4.68C85.1237 4.68 85.5531 5.05333 85.5531 5.8V6.48H84.9931V5.768C84.9931 5.576 84.9291 5.42667 84.8011 5.32C84.6784 5.21333 84.4917 5.16 84.2411 5.16C83.9904 5.16 83.8011 5.21333 83.6731 5.32C83.5504 5.42667 83.4891 5.57333 83.4891 5.76C83.4891 5.94667 83.5077 6.09333 83.5451 6.2C83.5824 6.30667 83.6651 6.41867 83.7931 6.536L85.2251 7.912C85.3797 8.08267 85.4864 8.248 85.5451 8.408C85.6037 8.56267 85.6331 8.76 85.6331 9Z" fill="#D71A22"/>
<path d="M49.24 117L49.24 117.44L48.68 117.44L48.68 117C48.68 116.643 48.7893 116.365 49.008 116.168C49.2267 115.976 49.5547 115.88 49.992 115.88C50.4293 115.88 50.76 115.976 50.984 116.168C51.208 116.365 51.32 116.643 51.32 117L51.32 120.2C51.32 120.557 51.2107 120.832 50.992 121.024C50.7733 121.221 50.4453 121.32 50.008 121.32C49.5707 121.32 49.24 121.221 49.016 121.024C48.792 120.832 48.68 120.557 48.68 120.2L48.68 119.44L49.24 119.44L49.24 120.2C49.24 120.627 49.4933 120.84 50 120.84C50.5067 120.84 50.76 120.627 50.76 120.2L50.76 117C50.76 116.573 50.5067 116.36 50 116.36C49.4933 116.36 49.24 116.573 49.24 117ZM47.2781 116L47.2781 121.2L46.7181 121.2L46.7181 116.48L45.2541 116.48L45.2541 116L47.2781 116ZM43.1737 116.48L43.1737 116L44.5337 116L44.5337 116.48L44.1337 116.48L44.1337 120.72L44.5337 120.72L44.5337 121.2L43.1737 121.2L43.1737 120.72L43.5737 120.72L43.5737 116.48L43.1737 116.48ZM39.4572 116L41.8172 116L41.8172 121.2L39.5372 121.2L39.5372 120.72L41.2572 120.72L41.2572 118.88L39.8572 118.88L39.8572 118.4L41.2572 118.4L41.2572 116.48L39.4572 116.48L39.4572 116ZM37.6947 116L38.2547 116L38.2547 121.2L37.6947 121.2L35.9587 117.2L35.9587 121.2L35.3987 121.2L35.3987 116L35.9587 116L37.6947 120L37.6947 116ZM31.7216 121.2L31.7216 120.72L32.7616 120.72L32.7616 116L33.3216 116L33.3216 120.72L34.3616 120.72L34.3616 121.2L31.7216 121.2Z" fill="black"/>
<path d="M27.7206 116.48L27.7206 116L29.0806 116L29.0806 116.48L28.6806 116.48L28.6806 120.72L29.0806 120.72L29.0806 121.2L27.7206 121.2L27.7206 120.72L28.1206 120.72L28.1206 116.48L27.7206 116.48ZM25.8041 116L26.3641 116L26.3641 121.2L25.8041 121.2L24.0681 117.2L24.0681 121.2L23.5081 121.2L23.5081 116L24.0681 116L25.8041 120L25.8041 116ZM20.6229 116L21.9109 116L21.9109 121.2L20.6229 121.2C20.2069 121.2 19.8923 121.101 19.6789 120.904C19.4603 120.707 19.3509 120.432 19.3509 120.08L19.3509 117.12C19.3509 116.763 19.4576 116.485 19.6709 116.288C19.8843 116.096 20.2016 116 20.6229 116ZM19.9109 117.12L19.9109 120.08C19.9109 120.251 19.9749 120.4 20.1029 120.528C20.2256 120.656 20.3989 120.72 20.6229 120.72L21.3509 120.72L21.3509 116.48L20.6229 116.48C20.3989 116.48 20.2256 116.541 20.1029 116.664C19.9749 116.792 19.9109 116.944 19.9109 117.12ZM15.5119 116L17.8719 116L17.8719 121.2L15.5919 121.2L15.5919 120.72L17.3119 120.72L17.3119 118.88L15.9119 118.88L15.9119 118.4L17.3119 118.4L17.3119 116.48L15.5119 116.48L15.5119 116ZM15.9439 122.344L16.2479 122.04L17.1519 121.584L17.3599 121.792L16.3759 122.776L15.9439 122.344ZM12.3494 117L12.3494 117.44L11.7894 117.44L11.7894 117C11.7894 116.643 11.8987 116.365 12.1174 116.168C12.336 115.976 12.664 115.88 13.1014 115.88C13.5387 115.88 13.8694 115.976 14.0934 116.168C14.3174 116.365 14.4294 116.643 14.4294 117L14.4294 120.2C14.4294 120.557 14.32 120.832 14.1014 121.024C13.8827 121.221 13.5547 121.32 13.1174 121.32C12.68 121.32 12.3494 121.221 12.1254 121.024C11.9014 120.832 11.7894 120.557 11.7894 120.2L11.7894 119.44L12.3494 119.44L12.3494 120.2C12.3494 120.627 12.6027 120.84 13.1094 120.84C13.616 120.84 13.8694 120.627 13.8694 120.2L13.8694 117C13.8694 116.573 13.616 116.36 13.1094 116.36C12.6027 116.36 12.3494 116.573 12.3494 117ZM9.2675 116.48L9.2675 116L10.6275 116L10.6275 116.48L10.2275 116.48L10.2275 120.72L10.6275 120.72L10.6275 121.2L9.2675 121.2L9.2675 120.72L9.6675 120.72L9.6675 116.48L9.2675 116.48ZM5.36694 117C5.36694 116.253 5.8176 115.88 6.71894 115.88C7.62027 115.88 8.07094 116.253 8.07094 117L8.07094 117.68L7.51094 117.68L7.51094 116.968C7.51094 116.776 7.44427 116.627 7.31094 116.52C7.1776 116.413 6.98027 116.36 6.71894 116.36C6.4576 116.36 6.26027 116.413 6.12694 116.52C5.9936 116.627 5.92694 116.771 5.92694 116.952C5.92694 117.139 5.94827 117.285 5.99094 117.392C6.02827 117.504 6.10827 117.621 6.23094 117.744L7.63894 119.12C7.80427 119.285 7.91894 119.445 7.98294 119.6C8.0416 119.76 8.07094 119.96 8.07094 120.2C8.07094 120.557 7.9616 120.832 7.74294 121.024C7.51894 121.221 7.18294 121.32 6.73494 121.32C5.87627 121.32 5.44694 120.947 5.44694 120.2L5.44694 119.52L6.00694 119.52L6.00694 120.232C6.00694 120.424 6.07094 120.573 6.19894 120.68C6.3216 120.787 6.50827 120.84 6.75894 120.84C7.0096 120.84 7.19894 120.787 7.32694 120.68C7.4496 120.573 7.51094 120.427 7.51094 120.24C7.51094 120.053 7.49227 119.907 7.45494 119.8C7.4176 119.693 7.33494 119.581 7.20694 119.464L5.77494 118.088C5.62027 117.917 5.5136 117.752 5.45494 117.592C5.39627 117.437 5.36694 117.24 5.36694 117Z" fill="#D71A22"/>
<path d="M8.07003 7.25C8.07003 7.55 7.89003 7.73 7.50603 7.73C7.11603 7.73 6.93003 7.55 6.93003 7.25V4.85C6.93003 4.55 7.11003 4.37 7.49403 4.37C7.88403 4.37 8.07003 4.55 8.07003 4.85V5.42H8.49003V4.85C8.49003 4.328 8.16603 4.01 7.49403 4.01C6.82203 4.01 6.51003 4.328 6.51003 4.85V7.25C6.51003 7.772 6.83403 8.09 7.50603 8.09C8.17803 8.09 8.49003 7.772 8.49003 7.25V6.92H8.07003V7.25ZM10.3814 7.64H10.0814V4.46H10.3814V4.1H9.36144V4.46H9.66144V7.64H9.36144V8H10.3814V7.64Z" fill="#D71A22"/>
<path d="M83.93 118.75C83.93 118.45 84.11 118.27 84.494 118.27C84.884 118.27 85.07 118.45 85.07 118.75L85.07 121.15C85.07 121.45 84.89 121.63 84.506 121.63C84.116 121.63 83.93 121.45 83.93 121.15L83.93 120.58L83.51 120.58L83.51 121.15C83.51 121.672 83.834 121.99 84.506 121.99C85.178 121.99 85.49 121.672 85.49 121.15L85.49 118.75C85.49 118.228 85.166 117.91 84.494 117.91C83.822 117.91 83.51 118.228 83.51 118.75L83.51 119.08L83.93 119.08L83.93 118.75ZM81.6186 118.36L81.9186 118.36L81.9186 121.54L81.6186 121.54L81.6186 121.9L82.6386 121.9L82.6386 121.54L82.3386 121.54L82.3386 118.36L82.6386 118.36L82.6386 118L81.6186 118L81.6186 118.36Z" fill="#D71A22"/>
</svg>
