<svg width="93" height="129" viewBox="0 0 93 129" fill="none" xmlns="http://www.w3.org/2000/svg">
<path d="M88.7302 129H4.26994C1.87464 129 6.10352e-05 127.044 6.10352e-05 124.779V4.22104C6.10352e-05 1.85313 1.97878 0 4.26994 0H88.7302C91.1255 0 93 1.95608 93 4.22104V124.779C93 127.147 91.1255 129 88.7302 129Z" fill="#C8E1FF"/>
<path d="M86.9001 127.3H5.80005C3.50005 127.3 1.70007 125.4 1.70007 123.2V6.1C1.70007 3.8 3.60005 2 5.80005 2H86.9001C89.2001 2 91.0001 3.9 91.0001 6.1V123.2C91.1001 125.5 89.2001 127.3 86.9001 127.3Z" fill="#EEF5FF"/>
<path d="M4.2963 13.1446V12.1147L5.42923 10.4668C5.63522 10.1578 5.7382 9.95185 5.8412 9.74586C5.94419 9.53987 6.0472 9.33389 6.0472 9.23089C6.15019 9.02491 6.1502 8.81892 6.1502 8.61293C6.1502 8.40694 6.1502 8.09796 6.1502 7.78898C6.1502 7.48 6.1502 7.27402 6.1502 7.06803C6.1502 6.86204 6.1502 6.75905 6.1502 6.65605C6.1502 6.55306 6.1502 6.45007 6.1502 6.45007C6.1502 6.45007 6.15019 6.34707 6.0472 6.34707C6.0472 6.24408 5.9442 6.24408 5.9442 6.24408C5.8412 6.24408 5.84122 6.24408 5.63523 6.24408C5.53224 6.24408 5.42922 6.24408 5.32623 6.24408C5.22324 6.24408 5.22323 6.34707 5.22323 6.34707C5.22323 6.34707 5.22326 6.45007 5.12026 6.45007C5.01727 6.45007 5.12026 6.55306 5.12026 6.65605C5.12026 6.75905 5.12026 6.86204 5.12026 6.96503C5.12026 7.06803 5.12026 7.27402 5.12026 7.48C5.12026 7.68599 5.12026 7.89198 5.12026 7.99497C5.12026 8.09796 5.12026 8.20096 5.12026 8.30395H4.2963C4.2963 8.20096 4.2963 8.09796 4.2963 7.99497C4.2963 7.89198 4.2963 7.68599 4.2963 7.583C4.2963 7.37701 4.2963 7.06803 4.2963 6.96503C4.2963 6.75905 4.2963 6.55306 4.2963 6.45007C4.2963 6.34707 4.2963 6.14109 4.39929 6.03809C4.39929 5.9351 4.50229 5.83211 4.50229 5.72911C4.60529 5.62612 4.60527 5.52313 4.70826 5.52313C4.81126 5.42013 4.81127 5.42013 4.91426 5.42013C5.01726 5.42013 5.12024 5.31714 5.22323 5.31714C5.32622 5.31714 5.53221 5.31714 5.7382 5.31714C6.15017 5.31714 6.45917 5.31714 6.56216 5.42013C6.76815 5.52313 6.87114 5.62612 6.97413 5.83211C6.97413 5.9351 7.07713 6.03809 7.07713 6.14109C7.07713 6.24408 7.07714 6.34707 7.18013 6.55306C7.18013 6.65605 7.18013 6.86204 7.18013 7.06803C7.18013 7.27402 7.18013 7.583 7.18013 7.89198C7.18013 8.09796 7.18013 8.40694 7.18013 8.50994C7.18013 8.71592 7.18013 8.81892 7.18013 8.92191C7.18013 9.02491 7.18013 9.1279 7.18013 9.23089C7.18013 9.33389 7.18013 9.43688 7.07713 9.53987C7.07713 9.64287 6.97413 9.74586 6.97413 9.84885C6.97413 9.95185 6.87113 10.0548 6.87113 10.1578C6.76814 10.2608 6.76816 10.3638 6.66516 10.4668C6.56217 10.5698 6.45916 10.7758 6.35617 10.8788L5.42923 12.2177C5.42923 12.2177 5.42923 12.2177 5.42923 12.3207H7.18013V13.2476H4.2963V13.1446Z" fill="black"/>
<path d="M10.3729 12.8374C10.3729 12.9404 10.2699 12.9404 10.2699 13.0434C10.2699 13.1464 10.1669 13.1464 10.0639 13.1464C9.96094 13.1464 9.85796 13.2494 9.75496 13.2494C9.65197 13.2494 9.44598 13.2494 9.24 13.2494C9.03401 13.2494 8.82802 13.2494 8.72503 13.2494C8.62204 13.2494 8.51902 13.2494 8.41603 13.1464C8.31304 13.1464 8.31305 13.0434 8.21006 13.0434C8.21006 12.9404 8.10706 12.9404 8.10706 12.8374C8.00407 12.7344 8.00406 12.6314 8.00406 12.4254C8.00406 12.2194 7.90106 12.0135 7.90106 11.8075C7.90106 11.4985 7.90106 11.1895 7.90106 10.7775C7.90106 10.3656 7.90106 9.85059 7.90106 9.23263C7.90106 8.61467 7.90106 8.0997 7.90106 7.68773C7.90106 7.27575 7.90106 6.96677 7.90106 6.65779C7.90106 6.34881 7.90107 6.14282 8.00406 6.03983C8.00406 5.93684 8.10706 5.73085 8.10706 5.62786C8.10706 5.52486 8.21006 5.52486 8.21006 5.42187C8.21006 5.31887 8.31304 5.31887 8.41603 5.31887C8.51902 5.31887 8.62204 5.21588 8.72503 5.21588C8.82802 5.21588 9.03401 5.21588 9.24 5.21588C9.44598 5.21588 9.65197 5.21588 9.75496 5.21588C9.85796 5.21588 9.96094 5.21588 10.0639 5.31887C10.1669 5.31887 10.1669 5.42187 10.2699 5.42187C10.2699 5.52486 10.3729 5.52486 10.3729 5.62786C10.3729 5.73085 10.4759 5.83384 10.4759 6.03983C10.4759 6.24582 10.5789 6.4518 10.5789 6.65779C10.5789 6.96677 10.5789 7.27575 10.5789 7.68773C10.5789 8.0997 10.5789 8.61467 10.5789 9.23263C10.5789 9.85059 10.5789 10.3656 10.5789 10.7775C10.5789 11.1895 10.5789 11.4985 10.5789 11.8075C10.5789 12.1164 10.5789 12.3224 10.4759 12.4254C10.3729 12.6314 10.3729 12.7344 10.3729 12.8374ZM9.54896 12.0135C9.54896 11.9105 9.54896 11.9105 9.54896 11.8075C9.54896 11.7045 9.54896 11.6015 9.54896 11.3955C9.54896 11.1895 9.54896 10.9835 9.54896 10.5715C9.54896 10.2626 9.54896 9.7476 9.54896 9.23263C9.54896 8.61467 9.54896 8.0997 9.54896 7.79072C9.54896 7.48174 9.54896 7.17276 9.54896 6.96677C9.54896 6.76078 9.54896 6.65779 9.54896 6.5548C9.54896 6.4518 9.54896 6.4518 9.54896 6.34881C9.54896 6.24582 9.44596 6.14282 9.44596 6.14282C9.34297 6.14282 9.23999 6.14282 9.137 6.14282C9.034 6.14282 8.93099 6.14282 8.828 6.14282C8.725 6.14282 8.72503 6.24582 8.72503 6.34881C8.72503 6.4518 8.72502 6.4518 8.62203 6.5548C8.62203 6.65779 8.62203 6.76078 8.62203 6.96677C8.62203 7.17276 8.62203 7.37875 8.62203 7.79072C8.62203 8.0997 8.62203 8.61467 8.62203 9.23263C8.62203 9.85059 8.62203 10.2626 8.62203 10.5715C8.62203 10.8805 8.62203 11.1895 8.62203 11.3955C8.62203 11.6015 8.62203 11.7045 8.62203 11.8075C8.62203 11.9105 8.62204 11.9105 8.72503 12.0135C8.72503 12.1164 8.828 12.2194 8.828 12.2194C8.93099 12.2194 9.034 12.2194 9.137 12.2194C9.23999 12.2194 9.34297 12.2194 9.44596 12.2194C9.44596 12.2194 9.54896 12.2194 9.54896 12.0135Z" fill="black"/>
<path d="M13.7717 12.8374C13.7717 12.9404 13.6687 12.9404 13.6687 13.0434C13.6687 13.1464 13.5657 13.1464 13.4627 13.1464C13.3597 13.1464 13.2567 13.2494 13.1537 13.2494C13.0507 13.2494 12.8448 13.2494 12.6388 13.2494C12.4328 13.2494 12.2268 13.2494 12.1238 13.2494C12.0208 13.2494 11.9178 13.2494 11.8148 13.1464C11.7118 13.1464 11.7118 13.0434 11.6088 13.0434C11.6088 12.9404 11.5058 12.9404 11.5058 12.8374C11.4028 12.7344 11.4028 12.6314 11.4028 12.4254C11.4028 12.2194 11.2999 12.0135 11.2999 11.8075C11.2999 11.4985 11.2999 11.1895 11.2999 10.7775C11.2999 10.3656 11.2999 9.85059 11.2999 9.23263C11.2999 8.61467 11.2999 8.0997 11.2999 7.68773C11.2999 7.27575 11.2999 6.96677 11.2999 6.65779C11.2999 6.34881 11.2998 6.14282 11.4028 6.03983C11.4028 5.93684 11.5058 5.73085 11.5058 5.62786C11.5058 5.52486 11.6088 5.52486 11.6088 5.42187C11.6088 5.31887 11.7118 5.31887 11.8148 5.31887C11.9178 5.31887 12.0208 5.21588 12.1238 5.21588C12.2268 5.21588 12.4328 5.21588 12.6388 5.21588C12.8448 5.21588 13.0507 5.21588 13.1537 5.21588C13.2567 5.21588 13.3597 5.21588 13.4627 5.31887C13.5657 5.31887 13.5657 5.42187 13.6687 5.42187C13.6687 5.52486 13.7717 5.52486 13.7717 5.62786C13.7717 5.73085 13.8747 5.83384 13.8747 6.03983C13.8747 6.24582 13.9777 6.4518 13.9777 6.65779C13.9777 6.96677 13.9777 7.27575 13.9777 7.68773C13.9777 8.0997 13.9777 8.61467 13.9777 9.23263C13.9777 9.85059 13.9777 10.3656 13.9777 10.7775C13.9777 11.1895 13.9777 11.4985 13.9777 11.8075C13.9777 12.1164 13.9777 12.3224 13.8747 12.4254C13.8747 12.6314 13.7717 12.7344 13.7717 12.8374ZM13.0507 12.0135C13.0507 11.9105 13.0507 11.9105 13.0507 11.8075C13.0507 11.7045 13.0507 11.6015 13.0507 11.3955C13.0507 11.1895 13.0507 10.9835 13.0507 10.5715C13.0507 10.2626 13.0507 9.7476 13.0507 9.23263C13.0507 8.61467 13.0507 8.0997 13.0507 7.79072C13.0507 7.48174 13.0507 7.17276 13.0507 6.96677C13.0507 6.76078 13.0507 6.65779 13.0507 6.5548C13.0507 6.4518 13.0507 6.4518 13.0507 6.34881C13.0507 6.24582 12.9477 6.14282 12.9477 6.14282C12.8447 6.14282 12.7418 6.14282 12.6388 6.14282C12.5358 6.14282 12.4328 6.14282 12.3298 6.14282C12.2268 6.24582 12.1238 6.24582 12.1238 6.34881C12.1238 6.4518 12.1238 6.4518 12.0208 6.5548C12.0208 6.65779 12.0208 6.76078 12.0208 6.96677C12.0208 7.17276 12.0208 7.37875 12.0208 7.79072C12.0208 8.0997 12.0208 8.61467 12.0208 9.23263C12.0208 9.85059 12.0208 10.2626 12.0208 10.5715C12.0208 10.8805 12.0208 11.1895 12.0208 11.3955C12.0208 11.6015 12.0208 11.7045 12.0208 11.8075C12.0208 11.9105 12.0208 11.9105 12.1238 12.0135C12.1238 12.1164 12.2268 12.2194 12.2268 12.2194C12.3298 12.2194 12.4328 12.2194 12.5358 12.2194C12.6388 12.2194 12.7418 12.2194 12.8448 12.2194C12.9478 12.2194 12.9477 12.2194 13.0507 12.0135Z" fill="black"/>
<path d="M88.0001 117.054V118.083L86.8672 119.731C86.6612 120.04 86.5582 120.246 86.4552 120.452C86.3522 120.658 86.2492 120.864 86.2492 120.967C86.1462 121.173 86.1462 121.379 86.1462 121.585C86.1462 121.791 86.1462 122.1 86.1462 122.409C86.1462 122.718 86.1462 122.924 86.1462 123.13C86.1462 123.336 86.1462 123.439 86.1462 123.542C86.1462 123.645 86.1462 123.748 86.1462 123.748C86.1462 123.748 86.1462 123.851 86.2492 123.851C86.2492 123.954 86.3522 123.954 86.3522 123.954C86.4552 123.954 86.4552 123.954 86.6612 123.954C86.7642 123.954 86.8672 123.954 86.9702 123.954C87.0732 123.954 87.0731 123.851 87.0731 123.851C87.0731 123.851 87.0731 123.748 87.1761 123.748C87.2791 123.748 87.1761 123.645 87.1761 123.542C87.1761 123.439 87.1761 123.336 87.1761 123.233C87.1761 123.13 87.1761 122.924 87.1761 122.718C87.1761 122.512 87.1761 122.306 87.1761 122.203C87.1761 122.1 87.1761 121.997 87.1761 121.894H88.0001C88.0001 121.997 88.0001 122.1 88.0001 122.203C88.0001 122.306 88.0001 122.512 88.0001 122.615C88.0001 122.821 88.0001 123.13 88.0001 123.233C88.0001 123.439 88.0001 123.645 88.0001 123.748C88.0001 123.851 88.0001 124.057 87.8971 124.16C87.8971 124.263 87.7941 124.366 87.7941 124.469C87.6911 124.572 87.6911 124.675 87.5881 124.675C87.4851 124.778 87.4851 124.778 87.3821 124.778C87.2791 124.778 87.1761 124.881 87.0731 124.881C86.9701 124.881 86.7642 124.881 86.5582 124.881C86.1462 124.881 85.8372 124.881 85.7342 124.778C85.5283 124.675 85.4253 124.572 85.3223 124.366C85.3223 124.263 85.2193 124.16 85.2193 124.057C85.2193 123.954 85.2193 123.851 85.1163 123.645C85.1163 123.542 85.1163 123.336 85.1163 123.13C85.1163 122.924 85.1163 122.615 85.1163 122.306C85.1163 122.1 85.1163 121.791 85.1163 121.688C85.1163 121.482 85.1163 121.379 85.1163 121.276C85.1163 121.173 85.1163 121.07 85.1163 120.967C85.1163 120.864 85.1163 120.761 85.2193 120.658C85.2193 120.555 85.3223 120.452 85.3223 120.349C85.3223 120.246 85.4253 120.143 85.4253 120.04C85.5283 119.937 85.5282 119.834 85.6312 119.731C85.7342 119.628 85.8372 119.422 85.9402 119.319L86.8672 117.98C86.8672 117.98 86.8672 117.98 86.8672 117.878H85.2193V116.951H88.0001V117.054Z" fill="black"/>
<path d="M81.9235 117.363C81.9235 117.26 82.0265 117.26 82.0265 117.157C82.0265 117.054 82.1295 117.054 82.2325 117.054C82.3354 117.054 82.4384 116.951 82.5414 116.951C82.6444 116.951 82.8504 116.951 83.0564 116.951C83.2624 116.951 83.4684 116.951 83.5714 116.951C83.6743 116.951 83.7774 116.951 83.8804 117.054C83.9833 117.054 83.9833 117.157 84.0863 117.157C84.0863 117.26 84.1893 117.26 84.1893 117.363C84.2923 117.466 84.2923 117.569 84.2923 117.775C84.2923 117.98 84.3953 118.186 84.3953 118.392C84.3953 118.701 84.3953 119.01 84.3953 119.422C84.3953 119.834 84.3953 120.349 84.3953 120.967C84.3953 121.585 84.3953 122.1 84.3953 122.512C84.3953 122.924 84.3953 123.233 84.3953 123.542C84.3953 123.851 84.3953 124.057 84.2923 124.16C84.2923 124.263 84.1893 124.469 84.1893 124.572C84.1893 124.675 84.0863 124.675 84.0863 124.778C84.0863 124.881 83.9833 124.881 83.8804 124.881C83.7774 124.881 83.6743 124.984 83.5714 124.984C83.4684 124.984 83.2624 124.984 83.0564 124.984C82.8504 124.984 82.6444 124.984 82.5414 124.984C82.4384 124.984 82.3354 124.984 82.2325 124.881C82.1295 124.881 82.1294 124.778 82.0265 124.778C82.0265 124.675 81.9235 124.675 81.9235 124.572C81.9235 124.469 81.8205 124.366 81.8205 124.16C81.8205 123.954 81.7175 123.748 81.7175 123.542C81.7175 123.233 81.7175 122.924 81.7175 122.512C81.7175 122.1 81.7175 121.585 81.7175 120.967C81.7175 120.349 81.7175 119.834 81.7175 119.422C81.7175 119.01 81.7175 118.701 81.7175 118.392C81.7175 118.083 81.7175 117.877 81.8205 117.775C81.8205 117.569 81.9235 117.466 81.9235 117.363ZM82.7474 118.186C82.7474 118.289 82.7474 118.289 82.7474 118.392C82.7474 118.495 82.7474 118.598 82.7474 118.804C82.7474 119.01 82.7474 119.216 82.7474 119.628C82.7474 119.937 82.7474 120.452 82.7474 120.967C82.7474 121.585 82.7474 122.1 82.7474 122.409C82.7474 122.718 82.7474 123.027 82.7474 123.233C82.7474 123.439 82.7474 123.542 82.7474 123.645C82.7474 123.748 82.7474 123.748 82.7474 123.851C82.7474 123.954 82.8504 124.057 82.8504 124.057C82.9534 124.057 83.0564 124.057 83.1594 124.057C83.2624 124.057 83.3654 124.057 83.4684 124.057C83.5713 124.057 83.5714 123.954 83.5714 123.851C83.5714 123.748 83.5714 123.748 83.6744 123.645C83.6744 123.542 83.6744 123.439 83.6744 123.233C83.6744 123.027 83.6744 122.821 83.6744 122.409C83.6744 122.1 83.6744 121.585 83.6744 120.967C83.6744 120.349 83.6744 119.937 83.6744 119.628C83.6744 119.319 83.6744 119.01 83.6744 118.804C83.6744 118.598 83.6744 118.495 83.6744 118.392C83.6744 118.289 83.6743 118.289 83.5714 118.186C83.5714 118.083 83.4684 117.98 83.4684 117.98C83.3654 117.98 83.2624 117.98 83.1594 117.98C83.0564 117.98 82.9534 117.98 82.8504 117.98C82.7474 117.98 82.7474 117.98 82.7474 118.186Z" fill="black"/>
<path d="M78.5247 117.363C78.5247 117.26 78.6277 117.26 78.6277 117.157C78.6277 117.054 78.7307 117.054 78.8337 117.054C78.9367 117.054 79.0397 116.951 79.1427 116.951C79.2457 116.951 79.4516 116.951 79.6576 116.951C79.8636 116.951 80.0696 116.951 80.1726 116.951C80.2756 116.951 80.3786 116.951 80.4816 117.054C80.5846 117.054 80.5846 117.157 80.6876 117.157C80.6876 117.26 80.7906 117.26 80.7906 117.363C80.8936 117.466 80.8935 117.569 80.8935 117.775C80.8935 117.981 80.9965 118.187 80.9965 118.393C80.9965 118.702 80.9965 119.01 80.9965 119.422C80.9965 119.834 80.9965 120.349 80.9965 120.967C80.9965 121.585 80.9965 122.1 80.9965 122.512C80.9965 122.924 80.9965 123.233 80.9965 123.542C80.9965 123.851 80.9965 124.057 80.8935 124.16C80.8935 124.263 80.7906 124.469 80.7906 124.572C80.7906 124.675 80.6876 124.675 80.6876 124.778C80.6876 124.881 80.5846 124.881 80.4816 124.881C80.3786 124.881 80.2756 124.984 80.1726 124.984C80.0696 124.984 79.8636 124.984 79.6576 124.984C79.4516 124.984 79.2457 124.984 79.1427 124.984C79.0397 124.984 78.9367 124.984 78.8337 124.881C78.7307 124.881 78.7307 124.778 78.6277 124.778C78.6277 124.675 78.5247 124.675 78.5247 124.572C78.5247 124.469 78.4217 124.366 78.4217 124.16C78.4217 123.954 78.3187 123.748 78.3187 123.542C78.3187 123.233 78.3187 122.924 78.3187 122.512C78.3187 122.1 78.3187 121.585 78.3187 120.967C78.3187 120.349 78.3187 119.834 78.3187 119.422C78.3187 119.01 78.3187 118.702 78.3187 118.393C78.3187 118.084 78.3187 117.878 78.4217 117.775C78.4217 117.569 78.4217 117.466 78.5247 117.363ZM79.2457 118.187C79.2457 118.29 79.2457 118.29 79.2457 118.393C79.2457 118.496 79.2457 118.599 79.2457 118.805C79.2457 119.01 79.2457 119.216 79.2457 119.628C79.2457 119.937 79.2457 120.452 79.2457 120.967C79.2457 121.585 79.2457 122.1 79.2457 122.409C79.2457 122.718 79.2457 123.027 79.2457 123.233C79.2457 123.439 79.2457 123.542 79.2457 123.645C79.2457 123.748 79.2457 123.748 79.2457 123.851C79.2457 123.954 79.3486 124.057 79.3486 124.057C79.4516 124.057 79.5546 124.057 79.6576 124.057C79.7606 124.057 79.8636 124.057 79.9666 124.057C80.0696 124.057 80.0696 123.954 80.0696 123.851C80.0696 123.748 80.0696 123.748 80.1726 123.645C80.1726 123.542 80.1726 123.439 80.1726 123.233C80.1726 123.027 80.1726 122.821 80.1726 122.409C80.1726 122.1 80.1726 121.585 80.1726 120.967C80.1726 120.349 80.1726 119.937 80.1726 119.628C80.1726 119.319 80.1726 119.01 80.1726 118.805C80.1726 118.599 80.1726 118.496 80.1726 118.393C80.1726 118.29 80.1726 118.29 80.0696 118.187C80.0696 118.084 79.9666 117.981 79.9666 117.981C79.8636 117.981 79.7606 117.981 79.6576 117.981C79.5546 117.981 79.4516 117.981 79.3486 117.981C79.3486 117.981 79.3487 117.981 79.2457 118.187Z" fill="black"/>
<path d="M87.0863 40.7785C86.6744 40.4696 86.3654 40.1606 86.0564 39.8516C85.4384 39.1307 84.9235 38.2037 84.6145 37.2768C84.4085 36.2468 84.4085 35.2169 84.9235 34.29C85.2324 33.878 85.5414 33.466 85.9534 33.157C86.3654 32.848 86.8804 32.7451 87.3953 32.7451C87.9103 32.7451 88.4253 33.054 88.7342 33.363C89.1462 33.775 89.3522 34.187 89.4552 34.7019C89.7642 35.6289 89.6612 36.6588 89.1462 37.5858C88.6312 38.4097 87.9103 39.0277 86.9833 39.3366C86.1594 39.6456 85.2324 39.6456 84.4085 39.5426C83.5845 39.4396 82.7606 39.1307 82.0397 38.7187C80.5977 37.9977 79.3618 37.0708 78.2289 36.4528C77.096 35.7319 75.963 35.3199 74.8301 35.1139C73.8002 34.9079 72.8732 35.1139 72.1523 35.4229C71.4313 35.7319 71.0193 36.0408 70.7104 36.3498C70.6074 36.4528 70.6074 36.4528 70.5044 36.5558C70.5044 36.6588 70.4014 36.6588 70.4014 36.6588C70.2984 36.7618 70.2984 36.7618 70.2984 36.7618C70.2984 36.7618 70.2984 36.7618 70.4014 36.6588C70.4014 36.6588 70.5044 36.5558 70.5044 36.4528C70.5044 36.3498 70.6074 36.3498 70.7104 36.2468C71.0193 35.9379 71.4313 35.5259 72.1523 35.2169C72.8732 34.9079 73.8002 34.8049 74.8301 34.9079C75.86 35.1139 77.096 35.5259 78.2289 36.2468C79.3618 36.9678 80.5977 37.7917 82.0397 38.5127C82.7606 38.8217 83.4816 39.1307 84.3055 39.3366C85.1295 39.4396 86.0564 39.4396 86.8804 39.1307C87.7043 38.8217 88.5283 38.3067 88.9402 37.4828C89.3522 36.6588 89.4552 35.6289 89.2492 34.8049C89.1462 34.393 88.9402 33.878 88.5282 33.569C88.2193 33.26 87.7043 33.054 87.2923 32.951C86.7774 32.951 86.3654 33.054 85.9534 33.363C85.5414 33.672 85.2324 33.981 84.9235 34.393C84.4085 35.2169 84.4085 36.3498 84.6145 37.2768C84.8205 38.2037 85.3354 39.1307 85.9534 39.8516" fill="#0A100C"/>
<path d="M87.9103 41.2935C87.6013 41.1905 87.3953 40.9846 87.0863 40.7786L87.9103 41.2935Z" fill="#0A100C"/>
<path d="M16.7418 63.5401L16.5358 26.3595H73.6972V63.9521L16.7418 63.5401Z" fill="#2996D3"/>
<path d="M28.483 56.4335C30.6459 56.3306 32.9118 56.8455 35.1776 57.0515L33.9417 56.7425C33.7357 54.6827 34.5597 52.5198 36.1046 50.9749C37.6495 49.533 39.8123 48.709 41.8722 49.018C43.4171 49.224 44.962 49.945 46.5069 49.636C49.3907 49.121 50.8326 45.7222 53.6135 44.6923C57.1152 43.3534 61.132 46.4432 64.5308 45.0013C65.8697 44.3833 66.8996 43.1474 68.2385 42.4264C69.3715 41.8085 70.9164 41.6025 71.8433 42.3234V34.2899C70.9164 36.0408 68.6505 36.9678 66.5906 36.7618C64.4278 36.5558 62.4709 35.5259 60.617 34.3929C58.7631 33.363 56.8063 32.2301 54.6434 31.9211C51.5536 31.5091 48.6698 32.848 45.683 33.775C43.0051 34.4959 40.1213 34.8049 37.4435 34.084C37.3405 34.084 37.2375 33.981 37.1345 33.981C36.8255 34.2899 36.4135 34.5989 36.0016 34.8049C33.7357 35.9378 30.7489 34.3929 28.586 35.8349C27.3501 36.6588 26.9381 38.3067 26.0112 39.5426C24.3633 41.8085 20.2435 42.4264 17.9777 40.8815V59.3174V61.6862H19.2136C21.4795 58.6994 24.8783 56.6395 28.483 56.4335ZM63.6038 40.0576C63.7068 39.9546 63.9128 39.8516 64.1188 39.8516C64.1188 39.8516 64.1188 39.8516 64.2218 39.8516C64.7368 39.7486 65.3547 39.9546 65.6637 40.4696C66.0757 41.0875 65.7667 42.0145 65.1487 42.4264C64.4278 42.7354 63.5008 42.4264 63.2948 41.7055C63.0888 41.0875 63.3978 40.4696 63.8098 40.1606L63.6038 40.0576Z" fill="#FAFAFA"/>
<path d="M71.9463 42.4265C71.0194 41.7055 69.3715 41.8085 68.3416 42.5295C67.0026 43.3534 66.0757 44.4863 64.6338 45.1043C61.235 46.5462 57.1153 43.4564 53.7165 44.7953C51.0386 45.8253 49.4937 49.2241 46.6099 49.739C45.065 50.048 43.5201 49.327 41.9752 49.1211C39.9153 48.9151 37.6495 49.636 36.2076 51.0779C34.6627 52.5198 33.8387 54.6827 34.0447 56.8456L35.2806 57.1546C37.0315 57.3605 38.6794 57.3605 40.3273 56.8456C45.065 55.3007 47.6398 49.2241 52.5835 48.7091C55.3644 48.4001 58.0422 49.945 60.823 49.43C62.9859 49.0181 64.8398 47.4732 66.5907 46.1342C68.3415 44.8983 70.1954 43.6624 72.2553 44.3834V42.6325C72.0493 42.5295 72.0493 42.5295 71.9463 42.4265Z" fill="#D71A22"/>
<path d="M66.4876 46.1342C64.6338 47.4732 62.8829 49.0181 60.72 49.43C58.0422 49.945 55.2613 48.4001 52.4805 48.7091C47.5368 49.327 44.962 55.3007 40.2243 56.8456C38.5764 57.3605 36.9285 57.3605 35.1776 57.1546C33.0147 56.9486 30.7489 56.3306 28.483 56.5366C24.8783 56.7426 21.3765 58.8024 19.4196 61.7893H20.6555C21.7884 60.5533 23.3334 59.7294 24.9813 59.3174C27.3501 58.6995 30.0279 59.2144 32.0878 60.6563C32.6028 60.9653 33.0147 61.3773 33.4267 61.7893H42.3872C42.7991 61.5833 43.2111 61.3773 43.6231 61.1713C45.271 60.3473 47.1248 59.7294 48.8757 60.1414C50.0087 60.3473 51.0386 60.9653 51.6566 61.7893H61.338C61.6469 61.1713 62.1619 60.6563 62.8829 60.4503C63.6038 60.2444 64.4278 60.3473 65.0457 59.8324C65.7667 59.3174 65.8697 58.2875 66.1787 57.4635C67.0026 55.1977 69.6804 53.6528 72.0493 54.0647V44.3834C70.0924 43.5594 68.2385 44.7953 66.4876 46.1342ZM57.9392 59.8324C56.3943 60.5533 54.3344 59.7294 53.7164 58.0815C53.3045 56.8456 53.8195 55.3007 54.9524 54.5797L54.7464 54.6827C55.0554 54.4767 55.3643 54.2707 55.6733 54.1677C55.7763 54.1677 55.8793 54.0647 55.9823 54.0647H55.8793C57.1152 53.7558 58.5571 54.2707 59.1751 55.4037C60.102 56.9486 59.4841 59.1114 57.9392 59.8324ZM68.6505 48.9151C68.2385 49.1211 67.7236 48.9151 67.5176 48.5031C67.4146 48.1941 67.5176 47.7821 67.8266 47.5762H67.7236C67.8266 47.4732 67.9295 47.4732 68.0325 47.4732C68.3415 47.3702 68.7535 47.5762 68.9595 47.7821C69.2685 48.0911 69.0625 48.7091 68.6505 48.9151Z" fill="#D71A22"/>
<path d="M66.2817 57.5666C65.9727 58.3905 65.8697 59.4204 65.1488 59.9354C64.5308 60.3474 63.7068 60.2444 62.9859 60.5534C62.2649 60.7594 61.75 61.2743 61.441 61.8923H72.2553V54.2708C69.6805 53.6528 67.1056 55.1977 66.2817 57.5666Z" fill="#D71A22"/>
<path d="M24.9813 59.3174C23.3334 59.7294 21.7884 60.5534 20.6555 61.7893H33.4267C33.0147 61.3773 32.4998 61.0683 32.0878 60.6564C30.1309 59.2145 27.4531 58.6995 24.9813 59.3174Z" fill="#D71A22"/>
<path d="M48.9788 60.1414C47.2279 59.7295 45.374 60.3474 43.7261 61.1714C43.3141 61.3774 42.9021 61.5834 42.4902 61.7893H51.7596C51.0386 60.9654 50.0087 60.3474 48.9788 60.1414Z" fill="#D71A22"/>
<path d="M45.168 30.5822C43.5201 30.6852 41.8722 30.3762 40.4303 31.2002C39.1944 31.8181 38.3705 33.26 37.3405 34.187C37.4435 34.187 37.5465 34.29 37.6495 34.29C40.3273 35.0109 43.2111 34.7019 45.889 33.981C48.8758 33.157 51.7596 31.8181 54.8494 32.1271C57.0123 32.4361 58.9691 33.569 60.823 34.5989C62.6769 35.6289 64.6338 36.7618 66.7967 36.9678C68.8565 37.1738 71.1224 36.2468 72.0493 34.4959V33.775V27.9044H48.9788C48.6698 29.4493 46.8159 30.4792 45.168 30.5822Z" fill="#D71A22"/>
<path d="M63.0889 41.6026C63.2948 42.3235 64.2218 42.6325 64.9427 42.3235C65.6637 42.0146 65.8697 40.9846 65.4577 40.3667C65.1487 39.8517 64.5308 39.6457 64.0158 39.7487C64.0158 39.7487 64.0158 39.7487 63.9128 39.7487C63.7068 39.7487 63.6038 39.8517 63.3978 39.9547L63.5008 39.8517C63.1918 40.3667 62.8829 40.9846 63.0889 41.6026Z" fill="#D71A22"/>
<path d="M55.8793 54.1678C55.7763 54.1678 55.6733 54.1678 55.5703 54.2708C55.2613 54.3738 54.9524 54.4768 54.6434 54.7857L54.8494 54.6828C53.8194 55.5067 53.2015 56.9486 53.6134 58.1845C54.2314 59.8324 56.2913 60.6564 57.8362 59.9354C59.3811 59.2145 59.9991 56.9486 59.0721 55.5067C58.5572 54.3738 57.1152 53.9618 55.8793 54.1678Z" fill="#D71A22"/>
<path d="M55.8793 54.1678C55.7763 54.1678 55.6733 54.1678 55.5703 54.2708C55.2613 54.3738 54.9524 54.4768 54.6434 54.7857L54.8494 54.6828C53.8194 55.5067 53.2015 56.9486 53.6134 58.1845C54.2314 59.8324 56.2913 60.6564 57.8362 59.9354C59.3811 59.2145 59.9991 56.9486 59.0721 55.5067C58.5572 54.3738 57.1152 53.9618 55.8793 54.1678Z" fill="#EA7880"/>
<path d="M68.9595 47.7822C68.7535 47.4732 68.4445 47.3702 68.0325 47.4732C67.9295 47.4732 67.8266 47.5762 67.7236 47.5762H67.8266C67.5176 47.7822 67.4146 48.1941 67.5176 48.5031C67.7235 48.9151 68.2385 49.1211 68.6505 48.9151C69.0625 48.7091 69.2684 48.0912 68.9595 47.7822Z" fill="#D71A22"/>
<path d="M26.3202 39.6456C27.2471 38.4097 27.6591 36.8648 28.895 35.9379C30.9549 34.496 34.0447 35.9379 36.3105 34.9079C36.7225 34.702 37.1345 34.393 37.4435 34.084C38.4734 33.0541 39.2974 31.7151 40.5333 31.0972C41.9752 30.3762 43.7261 30.5822 45.271 30.4792C46.9189 30.3762 48.6697 29.3463 48.8757 27.8014H40.3273H18.1837V40.8816C18.1837 40.8816 18.1837 40.8816 18.2867 40.8816C20.5525 42.5295 24.6723 41.9115 26.3202 39.6456Z" fill="#D71A22"/>
<path d="M71.9463 42.4265C71.0194 41.7055 69.3715 41.8085 68.3416 42.5295C67.0026 43.3534 66.0757 44.4863 64.6338 45.1043C61.235 46.5462 57.1153 43.4564 53.7165 44.7953C51.0386 45.8253 49.4937 49.2241 46.6099 49.739C45.065 50.048 43.5201 49.327 41.9752 49.1211C39.9153 48.9151 37.6495 49.636 36.2076 51.0779C34.6627 52.5198 33.8387 54.6827 34.0447 56.8456L35.2806 57.1546C37.0315 57.3605 38.6794 57.3605 40.3273 56.8456C45.065 55.3007 47.6398 49.2241 52.5835 48.7091C55.3644 48.4001 58.0422 49.945 60.823 49.43C62.9859 49.0181 64.8398 47.4732 66.5907 46.1342C68.3415 44.8983 70.1954 43.6624 72.2553 44.3834V42.6325C72.0493 42.5295 72.0493 42.5295 71.9463 42.4265Z" fill="#EA7880"/>
<path d="M40.2235 27.9044H18.0799V40.9846C18.0799 40.9846 18.0799 40.9846 18.1829 40.9846C20.5517 42.5295 24.5684 41.9115 26.2163 39.6456C27.1433 38.4097 27.5553 36.8648 28.7912 35.9379C30.8511 34.496 33.9409 35.9379 36.2067 34.9079C36.6187 34.702 37.0307 34.393 37.3397 34.084C38.3696 33.0541 39.1935 31.7151 40.4295 31.0972C41.8714 30.3762 43.6223 30.5822 45.1672 30.4792C46.8151 30.3762 48.566 29.3463 48.7719 27.8014" fill="#EA7880"/>
<path d="M65.5607 44.4863C65.3547 43.8683 64.2218 39.2336 62.0589 30.7881C52.4805 33.26 38.4734 36.7618 22.9214 40.7785V40.6755C24.1573 45.4132 25.2902 50.0479 26.4232 54.3737H26.3202C48.8757 48.709 64.4278 44.7953 65.5607 44.4863C64.4278 44.7953 48.8757 48.709 26.4232 54.4767C25.2902 50.1509 24.1573 45.5162 22.9214 40.7785C38.4734 36.8648 52.5835 33.26 62.0589 30.8911C64.3248 39.2336 65.4577 43.8683 65.5607 44.4863Z" fill="#0A100C"/>
<path d="M65.931 43.7561L64.9327 44.0096L65.1863 45.0079L66.1845 44.7543L65.931 43.7561Z" fill="#375A64"/>
<path d="M26.7975 53.8582L25.7993 54.1118L26.0528 55.11L27.051 54.8564L26.7975 53.8582Z" fill="#375A64"/>
<path d="M62.4143 29.9591L61.4161 30.2126L61.6697 31.2109L62.6679 30.9573L62.4143 29.9591Z" fill="#375A64"/>
<path d="M42.6492 35.0149L41.651 35.2685L41.9046 36.2667L42.9028 36.0131L42.6492 35.0149Z" fill="#375A64"/>
<path d="M46.1405 48.7111L45.1423 48.9647L45.3959 49.9629L46.3941 49.7093L46.1405 48.7111Z" fill="#375A64"/>
<path d="M25.0365 46.7364L24.0383 46.99L24.2918 47.9882L25.2901 47.7346L25.0365 46.7364Z" fill="#375A64"/>
<path d="M64.159 36.7309L63.1608 36.9844L63.4144 37.9826L64.4126 37.7291L64.159 36.7309Z" fill="#375A64"/>
<path d="M23.2938 40.1665L22.2956 40.4201L22.5492 41.4183L23.5474 41.1647L23.2938 40.1665Z" fill="#375A64"/>
<path d="M34.8686 49.8419C34.7657 49.7389 34.6626 49.6359 34.5596 49.4299C34.5596 49.224 34.5597 49.121 34.6626 48.915L37.0315 44.0743C37.3405 43.3533 37.5465 42.8384 37.4435 42.4264C37.3405 41.9114 37.0315 41.4994 36.7225 41.2935C36.4135 41.0875 36.0016 40.9845 35.4866 41.0875C35.1776 41.1905 34.9716 41.2935 34.7656 41.4994C34.5597 41.7054 34.4567 42.0144 34.3537 42.3234C34.2507 42.6324 34.2507 42.9414 34.3537 43.2503C34.3537 43.4563 34.3537 43.5593 34.2507 43.7653C34.1477 43.8683 34.0447 43.9713 33.8387 44.0743C33.6327 44.0743 33.5297 44.0743 33.3237 43.9713C33.2208 43.8683 33.1177 43.7653 33.0147 43.5593C32.9118 43.0443 32.9118 42.5294 33.0147 42.0144C33.1177 41.4994 33.4267 41.0875 33.7357 40.7785C34.1477 40.4695 34.5596 40.1605 35.0746 40.0575C35.5896 39.9545 36.1046 39.9545 36.6195 40.0575C37.0315 40.1605 37.4435 40.4695 37.8555 40.7785C38.2674 41.0875 38.3704 41.6024 38.5764 42.2204C38.6794 42.5294 38.6794 42.9413 38.5764 43.3533C38.4734 43.7653 38.2674 44.1773 38.0614 44.5892L36.1046 48.4L39.5034 47.5761C39.7093 47.5761 39.8123 47.5761 40.0183 47.6791C40.1213 47.782 40.2243 47.885 40.3273 48.091C40.3273 48.297 40.3273 48.4 40.2243 48.606C40.1213 48.709 40.0183 48.812 39.8123 48.915L35.3836 50.0479C35.1776 49.9449 34.9716 49.9449 34.8686 49.8419Z" fill="#2996D3"/>
<path d="M41.9752 46.8551C41.2542 46.1342 40.7393 45.1043 40.3273 43.5594C39.9153 42.1174 39.9153 40.8815 40.2243 39.9546C40.5333 39.0276 41.1513 38.4097 41.9752 38.2037C42.5932 38.1007 43.1081 38.1007 43.6231 38.4097C44.1381 38.7187 44.653 39.1306 45.065 39.7486C45.477 40.3666 45.786 41.1905 45.9919 42.1174C46.1979 43.0444 46.3009 43.9713 46.3009 44.6923C46.3009 45.4132 46.095 46.0312 45.683 46.5462C45.374 47.0611 44.859 47.3701 44.241 47.4731C43.5201 47.7821 42.6962 47.5761 41.9752 46.8551ZM45.065 45.0013C45.168 44.2803 45.065 43.4564 44.859 42.4264C44.55 41.3965 44.241 40.5725 43.8291 40.0576C43.4171 39.4396 42.9021 39.2336 42.3872 39.4396C41.8722 39.5426 41.5632 39.9546 41.4602 40.6755C41.3572 41.3965 41.4602 42.2204 41.6662 43.2504C41.9752 44.2803 42.2842 45.1043 42.6961 45.6192C43.1081 46.1342 43.6231 46.3402 44.1381 46.2372C44.653 46.1342 44.962 45.7222 45.065 45.0013Z" fill="#2996D3"/>
<path d="M48.8758 45.1042C48.1548 44.3833 47.6399 43.3533 47.2279 41.8084C46.8159 40.3665 46.8159 39.1306 47.1249 38.2037C47.4339 37.2767 48.0518 36.6588 48.8758 36.4528C49.4937 36.3498 50.0087 36.3498 50.5237 36.6588C51.0386 36.9677 51.5536 37.3797 51.9656 37.9977C52.3776 38.6156 52.6866 39.4396 52.8925 40.3665C53.0985 41.2935 53.2015 42.2204 53.2015 42.9414C53.2015 43.6623 52.9955 44.2803 52.5835 44.7952C52.2746 45.3102 51.7596 45.6192 51.1416 45.7222C50.4207 46.0312 49.5967 45.8252 48.8758 45.1042ZM51.9656 43.2503C52.0686 42.5294 51.9656 41.7054 51.7596 40.6755C51.4506 39.6456 51.1417 38.8216 50.7297 38.3067C50.3177 37.6887 49.8027 37.4827 49.2878 37.6887C48.7728 37.7917 48.4638 38.2037 48.3608 38.9246C48.2578 39.6456 48.3608 40.4695 48.5668 41.4995C48.8758 42.5294 49.1848 43.3533 49.5967 43.8683C50.0087 44.3833 50.5237 44.5893 51.0386 44.4863C51.5536 44.3833 51.8626 43.9713 51.9656 43.2503Z" fill="#2996D3"/>
<g opacity="0.3">
<g opacity="0.3">
<path opacity="0.3" d="M66.2817 57.5665C65.9727 58.3904 65.8697 59.4204 65.1488 59.9353C64.5308 60.3473 63.7068 60.2443 62.9859 60.5533C62.2649 60.7593 61.75 61.2743 61.441 61.8922H72.2553V54.2707C69.6805 53.6527 67.1056 55.1976 66.2817 57.5665Z" fill="black"/>
</g>
</g>
<g opacity="0.3">
<g opacity="0.3">
<path opacity="0.3" d="M68.9595 47.7822C68.7535 47.4732 68.4445 47.3702 68.0325 47.4732C67.9295 47.4732 67.8266 47.5762 67.7236 47.5762H67.8266C67.5176 47.7822 67.4146 48.1941 67.5176 48.5031C67.7235 48.9151 68.2385 49.1211 68.6505 48.9151C69.0625 48.7091 69.2684 48.0912 68.9595 47.7822Z" fill="black"/>
</g>
</g>
<g opacity="0.3">
<g opacity="0.3">
<path opacity="0.3" d="M24.9813 59.3174C23.3334 59.7294 21.7884 60.5533 20.6555 61.7892H33.4267C33.0147 61.3773 32.4998 61.0683 32.0878 60.6563C30.1309 59.2144 27.4531 58.6994 24.9813 59.3174Z" fill="black"/>
</g>
</g>
<g opacity="0.3">
<g opacity="0.3">
<path opacity="0.3" d="M48.9788 60.1414C47.2279 59.7294 45.374 60.3474 43.7261 61.1713C43.3141 61.3773 42.9021 61.5833 42.4902 61.7893H51.7596C51.0386 60.9653 50.0087 60.3474 48.9788 60.1414Z" fill="black"/>
</g>
</g>
<path d="M66.5906 7.5116H38.2674V18.5319H66.5906V7.5116Z" fill="#FAFAFA"/>
<path d="M66.4876 18.532C66.4876 18.532 66.4876 18.429 66.4876 18.326C66.4876 18.223 66.4876 18.017 66.4876 17.708C66.4876 17.193 66.4876 16.4721 66.4876 15.5451C66.4876 13.6913 66.4876 10.9104 66.4876 7.51165L66.5906 7.61464C59.4841 7.61464 49.4937 7.61464 38.2674 7.61464L38.3704 7.51165C38.3704 11.3224 38.3704 15.0302 38.3704 18.532L38.2674 18.429C46.4039 18.429 53.5105 18.429 58.5572 18.429C61.029 18.429 63.0889 18.429 64.4278 18.429C65.1487 18.429 65.6637 18.429 65.9727 18.429C66.1787 18.429 66.2817 18.429 66.3846 18.429C66.4876 18.532 66.4876 18.532 66.4876 18.532C66.4876 18.532 66.4876 18.532 66.3846 18.532C66.2817 18.532 66.1787 18.532 65.9727 18.532C65.5607 18.532 65.0457 18.532 64.4278 18.532C63.0889 18.532 61.029 18.532 58.5572 18.532C53.5105 18.532 46.4039 18.532 38.2674 18.532H38.1644V18.429C38.1644 15.0302 38.1644 11.3224 38.1644 7.40866V7.30566H38.2674C49.3907 7.30566 59.4841 7.30566 66.5906 7.30566H66.6936V7.40866C66.6936 10.8074 66.6936 13.5883 66.6936 15.4422C66.6936 16.3691 66.6936 17.09 66.6936 17.605C66.6936 17.811 66.6936 18.017 66.6936 18.12C66.4877 18.429 66.4876 18.532 66.4876 18.532Z" fill="#0A100C"/>
<path d="M66.5906 7.5116H38.2674V9.88045H66.5906V7.5116Z" fill="#0A100C"/>
<path d="M44.344 11.7343H41.5632V14.5151H44.344V11.7343Z" fill="#0A100C"/>
<path d="M46.0949 13.3823H43.3141V16.1631H46.0949V13.3823Z" fill="#0A100C"/>
<path d="M51.0386 11.7343H48.2578V14.5151H51.0386V11.7343Z" fill="#0A100C"/>
<path d="M52.6865 13.3823H49.9056V16.1631H52.6865V13.3823Z" fill="#F5F5F5"/>
<path d="M52.6865 16.163C52.6865 16.163 52.6865 16.06 52.6865 15.957C52.6865 15.751 52.6865 15.6481 52.6865 15.3391C52.6865 14.8241 52.6865 14.2061 52.6865 13.3822L52.7895 13.4852C51.9655 13.4852 51.0386 13.4852 50.0086 13.4852L50.1116 13.3822V13.4852V13.6912C50.1116 13.7942 50.1116 13.8972 50.1116 14.1032C50.1116 14.3091 50.1116 14.6181 50.1116 14.8241C50.1116 15.3391 50.1116 15.751 50.1116 16.163L50.0086 16.06C50.8326 16.06 51.5535 16.06 51.9655 16.06C52.1715 16.06 52.3775 16.06 52.5835 16.06C52.5835 16.163 52.6865 16.163 52.6865 16.163C52.6865 16.163 52.5835 16.163 52.4805 16.163C52.3775 16.163 52.1715 16.163 51.9655 16.163C51.4505 16.163 50.7296 16.163 49.9056 16.163H49.8027V16.06C49.8027 15.6481 49.8027 15.2361 49.8027 14.7211C49.8027 14.5151 49.8027 14.2061 49.8027 14.0002C49.8027 13.8972 49.8027 13.7942 49.8027 13.5882V13.3822V13.2792C49.6997 13.3822 49.9056 13.1762 49.9056 13.1762C50.9356 13.1762 51.8625 13.1762 52.6865 13.1762H52.7895V13.2792C52.7895 14.1032 52.7895 14.8241 52.7895 15.3391C52.7895 15.5451 52.7895 15.751 52.7895 15.854C52.6865 16.06 52.6865 16.163 52.6865 16.163Z" fill="#0A100C"/>
<path d="M57.2182 11.7343H54.4374V14.5151H57.2182V11.7343Z" fill="#F5F5F5"/>
<path d="M57.1152 14.5151C57.1152 14.5151 57.1152 14.4121 57.1152 14.3091C57.1152 14.1032 57.1152 14.0002 57.1152 13.6912C57.1152 13.1762 57.1152 12.5583 57.1152 11.7343L57.2182 11.8373C56.3943 11.8373 55.4673 11.8373 54.4374 11.8373L54.5404 11.7343V11.8373V12.0433C54.5404 12.1463 54.5404 12.2493 54.5404 12.4553C54.5404 12.6612 54.5404 12.9702 54.5404 13.1762C54.5404 13.6912 54.5404 14.1032 54.5404 14.5151L54.4374 14.4121C55.2614 14.4121 55.9823 14.4121 56.3943 14.4121C56.6003 14.4121 56.8063 14.4121 57.0123 14.4121C57.1152 14.5151 57.1152 14.5151 57.1152 14.5151C57.1152 14.5151 57.0122 14.5151 56.9093 14.5151C56.8063 14.5151 56.6003 14.5151 56.3943 14.5151C55.8793 14.5151 55.1584 14.5151 54.3344 14.5151H54.2314V14.4121C54.2314 14.0002 54.2314 13.5882 54.2314 13.0732C54.2314 12.8672 54.2314 12.5583 54.2314 12.3523C54.2314 12.2493 54.2314 12.1463 54.2314 11.9403V11.7343V11.6313C54.1284 11.7343 54.3344 11.5283 54.3344 11.5283C55.3643 11.5283 56.2913 11.5283 57.1152 11.5283H57.2182V11.6313C57.2182 12.4553 57.2182 13.1762 57.2182 13.6912C57.2182 13.8972 57.2182 14.1032 57.2182 14.2062C57.2182 14.4121 57.2182 14.5151 57.1152 14.5151Z" fill="#0A100C"/>
<path d="M58.8661 13.3822H56.0853V16.163H58.8661V13.3822Z" fill="#F5F5F5"/>
<path d="M58.8661 16.163C58.8661 16.163 58.8661 16.06 58.8661 15.957C58.8661 15.751 58.8661 15.648 58.8661 15.339C58.8661 14.824 58.8661 14.2061 58.8661 13.3821L58.9691 13.4851C58.1451 13.4851 57.2182 13.4851 56.1882 13.4851L56.2912 13.3821V13.4851V13.6911C56.2912 13.7941 56.2912 13.8971 56.2912 14.1031C56.2912 14.3091 56.2912 14.6181 56.2912 14.824C56.2912 15.339 56.2912 15.751 56.2912 16.163L56.1882 16.06C57.0122 16.06 57.7331 16.06 58.1451 16.06C58.3511 16.06 58.5571 16.06 58.7631 16.06C58.7631 16.163 58.8661 16.163 58.8661 16.163C58.8661 16.163 58.7631 16.163 58.6601 16.163C58.5571 16.163 58.3511 16.163 58.1451 16.163C57.6301 16.163 56.9092 16.163 56.0852 16.163H55.9823V16.06C55.9823 15.648 55.9823 15.236 55.9823 14.7211C55.9823 14.5151 55.9823 14.2061 55.9823 14.0001C55.9823 13.8971 55.9823 13.7941 55.9823 13.5881V13.3821V13.2791C55.8793 13.3821 56.0852 13.1761 56.0852 13.1761C57.1152 13.1761 58.0421 13.1761 58.8661 13.1761H58.9691V13.2791C58.9691 14.1031 58.9691 14.824 58.9691 15.339C58.9691 15.545 58.9691 15.751 58.9691 15.854C58.8661 16.06 58.8661 16.163 58.8661 16.163Z" fill="#0A100C"/>
<path d="M57.2182 13.3822H56.0853V14.5151H57.2182V13.3822Z" fill="#0A100C"/>
<path d="M62.8828 11.7343H60.102V14.5151H62.8828V11.7343Z" fill="#0A100C"/>
<path d="M64.5307 13.3822H61.7499V16.163H64.5307V13.3822Z" fill="#0A100C"/>
<path d="M62.8828 13.3822H61.7499V14.5151H62.8828V13.3822Z" fill="#FAFAFA"/>
<path d="M86.1594 24.8129H58.9691V35.4212H86.1594V24.8129Z" fill="#FAFAFA"/>
<path d="M86.2624 35.4229H58.9691V24.7116H86.2624V35.4229ZM59.0721 35.3199H86.1594V24.8146H59.0721V35.3199Z" fill="#1C1C1B"/>
<path d="M86.1594 24.8129H58.9691V27.0787H86.1594V24.8129Z" fill="#0A100C"/>
<path d="M63.1918 29.8613H60.514V32.5391H63.1918V29.8613Z" fill="#F5F5F5"/>
<path d="M63.1918 32.5391C63.1918 32.5391 63.1918 32.4361 63.1918 32.3331C63.1918 32.2301 63.1918 32.0242 63.1918 31.8182C63.1918 31.3032 63.1918 30.6852 63.1918 29.8613L63.2948 29.9643C62.4709 29.9643 61.544 29.9643 60.617 29.9643L60.72 29.8613V29.9643V30.1703C60.72 30.2733 60.72 30.3763 60.72 30.4793C60.72 30.6852 60.72 30.9942 60.72 31.2002C60.72 31.6122 60.72 32.0242 60.72 32.4361L60.617 32.3331C61.441 32.3331 62.0589 32.3331 62.5739 32.3331C62.7799 32.3331 62.9859 32.3331 63.0888 32.3331C63.1918 32.5391 63.1918 32.5391 63.1918 32.5391C63.1918 32.5391 62.9858 32.5391 62.4709 32.5391C61.9559 32.5391 61.338 32.5391 60.514 32.5391H60.411V32.4361C60.411 32.0242 60.411 31.6122 60.411 31.2002C60.411 30.9942 60.411 30.7882 60.411 30.4793C60.411 30.3763 60.411 30.2733 60.411 30.1703V29.9643V29.8613C60.308 29.9643 60.514 29.7583 60.514 29.7583C61.5439 29.7583 62.3679 29.7583 63.1918 29.7583H63.2948V29.8613C63.2948 30.6852 63.2948 31.4062 63.2948 31.8182C63.2948 32.3331 63.2948 32.5391 63.1918 32.5391Z" fill="#0A100C"/>
<path d="M60.514 32.5391C60.514 32.5391 61.029 31.9212 61.7499 31.0972C62.4709 30.3763 63.0889 29.7583 63.1918 29.8613C63.1918 29.8613 62.6769 30.4793 61.9559 31.3032C61.235 32.0242 60.617 32.6421 60.514 32.5391Z" fill="#D71A22"/>
<path d="M66.6936 29.8613H64.0158V32.5391H66.6936V29.8613Z" fill="#0A100C"/>
<path d="M70.1954 29.8613H67.5175V32.5391H70.1954V29.8613Z" fill="#375A64"/>
<path d="M73.6972 29.8613H71.0193V32.5391H73.6972V29.8613Z" fill="#D71A22"/>
<path d="M77.1989 29.8613H74.5211V32.5391H77.1989V29.8613Z" fill="#D71A22"/>
<g opacity="0.5">
<g opacity="0.5">
<path opacity="0.5" d="M77.1989 29.8613H74.5211V32.5391H77.1989V29.8613Z" fill="white"/>
</g>
</g>
<path d="M80.7007 29.8613H78.0229V32.5391H80.7007V29.8613Z" fill="#D71A22"/>
<g opacity="0.3">
<g opacity="0.3">
<path opacity="0.3" d="M80.7007 29.8613H78.0229V32.5391H80.7007V29.8613Z" fill="black"/>
</g>
</g>
<path d="M84.2025 29.8613H81.5247V32.5391H84.2025V29.8613Z" fill="#D71A22"/>
<g opacity="0.7">
<g opacity="0.7">
<path opacity="0.7" d="M84.2025 29.8613H81.5247V32.5391H84.2025V29.8613Z" fill="black"/>
</g>
</g>
<path d="M79.0529 61.4803C80.3043 61.4803 81.3187 60.4658 81.3187 59.2144C81.3187 57.963 80.3043 56.9485 79.0529 56.9485C77.8015 56.9485 76.787 57.963 76.787 59.2144C76.787 60.4658 77.8015 61.4803 79.0529 61.4803Z" fill="#0A100C"/>
<path d="M79.8768 59.2145C79.8768 59.6264 79.4648 60.0384 79.0528 60.0384C78.6409 60.0384 78.2289 59.6264 78.2289 59.2145C78.2289 58.8025 78.6409 58.3905 79.0528 58.3905C79.4648 58.3905 79.8768 58.8025 79.8768 59.2145Z" fill="#375A64"/>
<path d="M74.3 70.2V76.8L66.9001 87.6C65.6001 89.5 64.7001 91 64.0001 92.3C63.4001 93.5 62.9001 94.7 62.5001 95.8C62.1001 96.9 61.9 98.2 61.8 99.6C61.7 101 61.6 102.7 61.6 104.8C61.6 106.6 61.6 108.1 61.6 109.3C61.6 110.4 61.7 111.3 61.7 111.9C61.8 112.5 61.9001 113 62.0001 113.3C62.1001 113.6 62.3001 113.9 62.4001 114.2C62.7001 114.6 63.0001 114.9 63.4001 115.1C63.8001 115.3 64.4 115.3 65.2 115.3C66.1 115.3 66.7001 115.2 67.0001 115.1C67.4001 114.9 67.7001 114.6 67.9001 114.2C68.0001 113.9 68.2 113.7 68.3 113.4C68.4 113.1 68.5 112.7 68.6 112.1C68.7 111.5 68.7 110.8 68.7 109.9C68.7 109 68.7 107.8 68.7 106.4C68.7 104.9 68.7 103.8 68.7 103.1C68.7 102.5 68.7 101.9 68.6 101.4H74.1C74.2 102.1 74.2 102.8 74.2 103.5C74.2 104.2 74.2 105.2 74.2 106.4C74.2 108 74.2 109.5 74.1 110.7C74.1 111.9 74.0001 113 73.9001 113.9C73.8001 114.8 73.7001 115.6 73.5001 116.3C73.3001 117 73 117.5 72.7 118C72.3 118.6 71.9001 119.1 71.5001 119.5C71.1001 119.9 70.7 120.2 70.1 120.5C69.5 120.7 68.8001 120.9 68.0001 121C67.2001 121.1 66.2001 121.2 65.0001 121.2C62.5001 121.2 60.7001 120.9 59.5001 120.4C58.4001 119.9 57.5001 119 56.9001 117.6C56.6001 117 56.4 116.4 56.2 115.7C56 115.1 55.9 114.3 55.8 113.4C55.7 112.5 55.6 111.3 55.6 110C55.6 108.7 55.5001 107 55.5001 105C55.5001 103.4 55.5001 102 55.5001 100.9C55.5001 99.8 55.6 98.9 55.6 98.2C55.7 97.5 55.8001 96.8 55.9001 96.2C56.0001 95.6 56.2001 95.1 56.4001 94.5C56.6001 93.8 56.9 93.2 57.1 92.6C57.4 92 57.7 91.4 58.1 90.7C58.5 90 58.9001 89.3 59.4001 88.4C59.9001 87.6 60.5 86.6 61.2 85.5L66.9001 76.8C66.8001 76.6 66.8 76.5 66.8 76.4H55.7V70.4H74.3V70.2Z" fill="#D71A22"/>
<path d="M35.5001 72.1C35.8001 71.6 36.1001 71.1 36.4001 70.8C36.7001 70.4 37.1 70.2 37.7 70C38.2 69.8 38.9 69.7 39.8 69.6C40.7 69.5 41.9 69.5 43.3 69.5C44.7 69.5 45.9 69.5 46.8 69.6C47.7 69.7 48.4001 69.8 48.9001 70C49.4001 70.2 49.8 70.5 50.2 70.8C50.5 71.2 50.8 71.6 51.1 72.1C51.5 72.8 51.7001 73.6 51.9001 74.6C52.1001 75.6 52.3001 76.9 52.4001 78.7C52.5001 80.4 52.6 82.6 52.7 85.3C52.7 88 52.8 91.3 52.8 95.4C52.8 99.4 52.8 102.8 52.7 105.5C52.7 108.2 52.6001 110.4 52.4001 112.1C52.3001 113.8 52.1001 115.2 51.9001 116.1C51.7001 117.1 51.4 117.9 51.1 118.5C50.8 119 50.6 119.5 50.2 119.8C49.9 120.2 49.5001 120.4 48.9001 120.6C48.4001 120.8 47.7 120.9 46.8 121C45.9 121.1 44.7 121.1 43.3 121.1C41.9 121.1 40.7 121.1 39.8 121C38.9 120.9 38.2 120.8 37.7 120.6C37.2 120.4 36.8001 120.1 36.4001 119.8C36.1001 119.4 35.8001 119 35.5001 118.5C35.2001 117.8 34.9 117 34.7 116.1C34.5 115.1 34.3 113.8 34.2 112.1C34.1 110.4 34.0001 108.2 33.9001 105.5C33.9001 102.8 33.8 99.5 33.8 95.4C33.8 91.4 33.8001 88 33.9001 85.3C33.9001 82.6 34 80.4 34.2 78.7C34.3 77 34.5 75.6 34.7 74.6C34.9 73.5 35.1001 72.7 35.5001 72.1ZM40.3 77.2C40.2 77.6 40.1001 78.1 40.0001 78.6C39.9001 79.1 39.8 80 39.8 81.2C39.7 82.4 39.7 84.1 39.7 86.3C39.7 88.5 39.7 91.4 39.7 95.1C39.7 99.1 39.7 102.2 39.7 104.4C39.7 106.6 39.8 108.4 39.8 109.6C39.9 110.8 39.9001 111.6 40.0001 112.1C40.1001 112.6 40.2 113 40.3 113.4C40.6 114.1 40.9 114.6 41.3 114.8C41.7 115 42.3 115.1 43.2 115.1C44.1 115.1 44.8 115 45.1 114.8C45.5 114.6 45.8 114.1 46.1 113.4C46.2 113 46.3001 112.6 46.4001 112.1C46.5001 111.6 46.6 110.8 46.6 109.6C46.7 108.4 46.7 106.7 46.7 104.4C46.7 102.2 46.7 99.1 46.7 95.1C46.7 91.4 46.7 88.5 46.7 86.3C46.7 84.1 46.6 82.4 46.6 81.2C46.5 80 46.5001 79.1 46.4001 78.6C46.3001 78.1 46.2 77.6 46.1 77.2C45.8 76.5 45.5 76 45.1 75.8C44.7 75.6 44.1 75.5 43.2 75.5C42.3 75.5 41.6 75.6 41.3 75.8C40.9 76 40.6 76.5 40.3 77.2Z" fill="black"/>
<path d="M13.4001 72.1C13.7001 71.6 14 71.1 14.3 70.8C14.6 70.4 15 70.2 15.6 70C16.1 69.8 16.8 69.7 17.7 69.6C18.6 69.5 19.8 69.5 21.2 69.5C22.6 69.5 23.8 69.5 24.7 69.6C25.6 69.7 26.3 69.8 26.8 70C27.3 70.2 27.7 70.5 28.1 70.8C28.4 71.2 28.7001 71.6 29.0001 72.1C29.4001 72.8 29.6 73.6 29.8 74.6C30 75.6 30.2 76.9 30.3 78.7C30.4 80.4 30.5 82.6 30.6 85.3C30.6 88 30.7 91.3 30.7 95.4C30.7 99.4 30.7 102.8 30.6 105.5C30.6 108.2 30.5 110.4 30.3 112.1C30.2 113.8 30 115.2 29.8 116.1C29.6 117.1 29.3001 117.9 29.0001 118.5C28.7001 119 28.5 119.5 28.1 119.8C27.8 120.2 27.4 120.4 26.8 120.6C26.3 120.8 25.6 120.9 24.7 121C23.8 121.1 22.6 121.1 21.2 121.1C19.8 121.1 18.6 121.1 17.7 121C16.8 120.9 16.1 120.8 15.6 120.6C15.1 120.4 14.7 120.1 14.3 119.8C14 119.4 13.7001 119 13.4001 118.5C13.1001 117.8 12.8 117 12.6 116.1C12.4 115.1 12.2 113.8 12.1 112.1C12 110.4 11.9 108.2 11.8 105.5C11.8 102.8 11.7 99.5 11.7 95.4C11.7 91.4 11.7 88 11.8 85.3C11.8 82.6 11.9 80.4 12.1 78.7C12.2 77 12.4 75.6 12.6 74.6C12.8 73.5 13.1001 72.7 13.4001 72.1ZM18.3 77.2C18.2 77.6 18.1001 78.1 18.0001 78.6C17.9001 79.1 17.8 80 17.8 81.2C17.7 82.4 17.7 84.1 17.7 86.3C17.7 88.5 17.7 91.4 17.7 95.1C17.7 99.1 17.7 102.2 17.7 104.4C17.7 106.6 17.8 108.4 17.8 109.6C17.9 110.8 17.9001 111.6 18.0001 112.1C18.1001 112.6 18.2 113 18.3 113.4C18.6 114.1 18.9 114.6 19.3 114.8C19.7 115 20.3 115.1 21.2 115.1C22.1 115.1 22.8 115 23.1 114.8C23.5 114.6 23.8 114.1 24.1 113.4C24.2 113 24.3001 112.6 24.4001 112.1C24.5001 111.6 24.6 110.8 24.6 109.6C24.7 108.4 24.7 106.7 24.7 104.4C24.7 102.2 24.7 99.1 24.7 95.1C24.7 91.4 24.7 88.5 24.7 86.3C24.7 84.1 24.6 82.4 24.6 81.2C24.5 80 24.5001 79.1 24.4001 78.6C24.3001 78.1 24.2 77.6 24.1 77.2C23.8 76.5 23.5 76 23.1 75.8C22.7 75.6 22.1 75.5 21.2 75.5C20.3 75.5 19.6 75.6 19.3 75.8C18.9 76 18.6 76.5 18.3 77.2Z" fill="#2B9EE7"/>
</svg>
