<svg width="93" height="129" viewBox="0 0 93 129" fill="none" xmlns="http://www.w3.org/2000/svg">
<path d="M88.7302 129H4.26994C1.87464 129 6.10352e-05 127.044 6.10352e-05 124.779V4.22104C6.10352e-05 1.85313 1.97878 0 4.26994 0H88.7302C91.1255 0 93 1.95608 93 4.22104V124.779C93 127.147 91.1255 129 88.7302 129Z" fill="#C8E1FF"/>
<path d="M86.9 126.6H5.79999C3.49999 126.6 1.70001 124.7 1.70001 122.5V5.39998C1.70001 3.09998 3.59999 1.29999 5.79999 1.29999H86.9C89.2 1.29999 91 3.19998 91 5.39998V122.5C91.1 124.7 89.2 126.6 86.9 126.6Z" fill="#EEF5FF"/>
<path d="M22.838 26.2471C24.0753 27.9932 23.4596 30.5592 21.464 31.9733C19.4683 33.3874 16.8455 33.1208 15.606 31.3716C14.3687 29.6254 14.9844 27.0594 16.98 25.6453C18.9792 24.2288 21.6007 24.5009 22.838 26.2471Z" fill="black"/>
<path d="M20.3907 30.9139L19.9455 30.2857L19.5457 30.569L19.9909 31.1972L20.3907 30.9139ZM19.2152 29.9452L19.4437 29.7833L19.4462 29.121C19.4499 28.3634 19.4165 27.9409 19.2222 27.6668L19.0199 27.3812C18.6678 26.8843 18.1506 26.7961 17.4995 27.2575C16.8598 27.7107 16.7944 28.2118 17.1465 28.7087L17.4905 29.1941L17.8903 28.9108L17.5301 28.4025C17.344 28.1398 17.3939 27.847 17.7594 27.588C18.125 27.329 18.4177 27.3789 18.6039 27.6417L18.8224 27.9501C18.9843 28.1785 18.9637 28.6822 18.9678 29.0996L18.9724 29.6025L19.2152 29.9452Z" fill="white"/>
<path d="M22.838 26.2471C24.0753 27.9932 23.4596 30.5592 21.464 31.9733C19.4683 33.3874 16.8455 33.1208 15.606 31.3716C14.3687 29.6254 14.9844 27.0594 16.98 25.6453C18.9792 24.2288 21.6007 24.5009 22.838 26.2471Z" fill="#D71A22"/>
<path d="M37.3538 25.2883C36.1196 23.5464 33.7033 23.1366 31.9582 24.3731C30.2132 25.6096 29.7989 28.0251 31.0332 29.767C31.8908 30.9774 33.3179 31.5422 34.6917 31.3619C31.8574 33.02 29.2116 32.6286 27.0557 32.3022C26.3147 32.1885 25.6489 32.0937 25.0347 32.0861C24.2549 32.0051 23.4492 32.1279 22.7309 32.4103L22.4749 33.9205L20.9854 33.6317C20.982 33.6341 20.9785 33.6365 20.9751 33.639C20.5168 34.1646 20.1573 34.8005 19.9565 35.4784C19.6908 36.1302 19.5411 36.8801 19.3781 37.7424C18.951 39.9868 18.4167 42.75 15.6025 44.9244C16.4738 43.6271 16.5108 41.8807 15.5559 40.5331C14.3192 38.7879 11.9054 38.3815 10.1603 39.618C8.4153 40.8545 8.00104 43.27 9.23529 45.0119C10.4695 46.7537 12.8858 47.1636 14.6309 45.927C14.6583 45.9076 14.6834 45.8847 14.7109 45.8652C14.4722 46.3949 14.5059 47.025 14.8631 47.5291C15.4 48.2869 16.4498 48.4649 17.209 47.927C20.1288 45.858 21.4053 43.2539 22.0725 41.0351L25.9308 46.4801C26.2418 46.9189 26.6256 47.2495 27.0584 47.4888C27.0681 47.5026 27.0709 47.5211 27.0807 47.5349L36.3856 60.6883C37.0197 61.5832 38.2596 61.7965 39.1586 61.1646L39.162 61.1622C40.0586 60.5269 40.2742 59.2874 39.6376 58.389L31.6569 47.1043C31.6947 47.0776 31.7314 47.0567 31.7658 47.0323C31.807 47.0031 31.8492 46.968 31.8905 46.9388L39.8815 58.2162C40.5156 59.1112 41.759 59.322 42.6555 58.6867C43.5521 58.0514 43.7653 56.8085 43.1311 55.9136L33.8184 42.7709C33.7965 42.74 33.7726 42.7209 33.7498 42.6959C33.6644 42.2259 33.4826 41.7727 33.1813 41.3475L29.3449 35.9334C31.6487 36.0316 34.498 35.6762 37.3869 33.6291C38.1461 33.0912 38.3261 32.0417 37.7891 31.2839C37.4903 30.8622 37.0297 30.6272 36.55 30.5911C38.1915 29.3249 38.5589 26.989 37.3538 25.2883ZM14.557 42.029C14.0986 42.1684 13.811 42.0683 13.6672 41.8509C13.4315 41.5183 13.5368 41.0625 13.98 40.7485C14.1895 40.6 14.4125 40.5142 14.5613 40.4911L14.7338 40.9458C14.6232 40.9572 14.4273 41.0084 14.2727 41.1179C14.1387 41.2129 14.0986 41.3237 14.1642 41.4163C14.2225 41.4986 14.3228 41.4945 14.5985 41.4176C15.0212 41.2932 15.287 41.3624 15.4775 41.624C15.7132 41.9566 15.6236 42.3909 15.1118 42.7535C14.8782 42.9191 14.6322 43.0161 14.4413 43.038L14.2591 42.5697C14.4059 42.5584 14.6723 42.4829 14.8372 42.3661C15.0055 42.2468 15.0329 42.1398 14.9673 42.0473C14.9017 41.9547 14.8152 41.9491 14.557 42.029ZM12.0037 44.8992L11.4438 45.296L10.727 44.2845L8.91468 43.3798L9.55362 42.927L10.2281 43.3401C10.4301 43.4648 10.5798 43.5596 10.7524 43.6794L10.7592 43.6745C10.7049 43.4813 10.6636 43.2993 10.6094 43.0699L10.4399 42.299L11.0685 41.8536L11.2748 43.8706L12.0037 44.8992ZM11.9441 43.6281C11.6234 43.1755 11.5479 42.4719 12.1731 42.0289C12.7536 41.6175 13.2918 41.9109 13.6076 42.3566C13.6756 42.4526 13.7236 42.5422 13.7459 42.5882L12.5883 43.4085C12.7717 43.6237 13.0786 43.5762 13.3397 43.3912C13.5286 43.2573 13.6637 43.1203 13.7833 42.9687L14.1227 43.2947C13.9941 43.4992 13.7951 43.6917 13.5512 43.8645C12.9408 44.2919 12.3401 44.187 11.9441 43.6281ZM27.4348 40.9129L27.4176 40.925L25.7396 40.3629L22.5535 34.0605L22.5707 34.0484L23.3339 34.8415C23.3689 34.8836 23.4108 34.9209 23.4434 34.9596L27.4606 39.1434L27.4348 40.9129ZM31.2391 27.4579L31.8918 26.9954L33.045 27.538C33.3774 27.6939 33.7413 27.8944 34.0505 28.0977L34.0608 28.0904C33.7956 27.789 33.5462 27.4661 33.2838 27.0958L32.7712 26.3723L33.2864 26.0072L35.0358 28.4759L34.4483 28.8922L33.2439 28.3138C32.9091 28.1545 32.5251 27.9475 32.1974 27.7472L32.1861 27.7603C32.4306 28.0763 32.6863 28.4153 32.973 28.8199L33.5003 29.564L32.985 29.9291L31.2357 27.4603L31.2391 27.4579ZM36.3462 27.6092C35.8206 27.9816 35.1758 27.9235 34.7652 27.344C34.3546 26.7646 34.4735 26.1241 35.0506 25.7151C35.6002 25.3257 36.235 25.4424 36.6164 25.9807C37.0805 26.6356 36.8271 27.2684 36.3462 27.6092Z" fill="#D71A22"/>
<path d="M20.3907 30.9139L19.9455 30.2857L19.5457 30.569L19.9909 31.1972L20.3907 30.9139ZM19.2152 29.9452L19.4437 29.7833L19.4462 29.121C19.4499 28.3634 19.4165 27.9409 19.2222 27.6668L19.0199 27.3812C18.6678 26.8843 18.1506 26.7961 17.4995 27.2575C16.8598 27.7107 16.7944 28.2118 17.1465 28.7087L17.4905 29.1941L17.8903 28.9108L17.5301 28.4025C17.344 28.1398 17.3939 27.847 17.7594 27.588C18.125 27.329 18.4177 27.3789 18.6039 27.6417L18.8224 27.9501C18.9843 28.1785 18.9637 28.6822 18.9678 29.0996L18.9724 29.6025L19.2152 29.9452Z" fill="white"/>
<path d="M47.3729 99.1196C48.0221 97.0803 50.4415 96.0269 52.7721 96.7688C55.1027 97.5107 56.4691 99.7653 55.8188 101.808C55.1696 103.847 52.7502 104.901 50.4196 104.159C48.0849 103.416 46.7237 101.159 47.3729 99.1196Z" fill="#D71A22"/>
<path d="M38.1585 87.8876C37.5109 89.9218 38.6386 92.0978 40.6766 92.7465C42.7145 93.3953 44.8925 92.2716 45.5401 90.2374C45.99 88.8238 45.5818 87.3443 44.6107 86.3561C47.6411 87.6206 48.9216 89.9687 49.9591 91.8866C50.3146 92.5466 50.6397 93.1352 51.0035 93.6303C51.4083 94.3016 51.9914 94.8709 52.6495 95.2744L54.0093 94.5695L54.6756 95.9326C54.6796 95.9339 54.6836 95.9352 54.6876 95.9365C55.3832 95.9859 56.1074 95.8901 56.7695 95.6422C57.4499 95.4619 58.1388 95.1299 58.9254 94.7408C60.9745 93.7305 63.5024 92.4932 66.9329 93.4309C65.3726 93.5164 63.9559 94.5384 63.455 96.1121C62.8061 98.1504 63.9351 100.322 65.973 100.971C68.011 101.62 70.189 100.496 70.8366 98.4619C71.4841 96.4276 70.3565 94.2517 68.3185 93.603C68.2864 93.5927 68.253 93.5865 68.2209 93.5763C68.7876 93.448 69.2704 93.0416 69.4578 92.4529C69.7395 91.568 69.2495 90.6226 68.3629 90.3404C64.953 89.2549 62.1052 89.8037 59.932 90.607L61.9562 84.248C62.1194 83.7355 62.1522 83.2299 62.0827 82.7403C62.0878 82.7243 62.1009 82.7108 62.106 82.6948L67.0052 67.3459C67.3379 66.3007 66.7617 65.1823 65.7159 64.845L65.7119 64.8437C64.6648 64.5104 63.5454 65.0846 63.2114 66.1338L59.0069 79.3003C58.9627 79.2863 58.9239 79.2695 58.8838 79.2568C58.8356 79.2414 58.7822 79.2288 58.7341 79.2135L62.9265 66.0431C63.2592 64.998 62.679 63.8783 61.6319 63.545C60.5849 63.2117 59.4641 63.7899 59.1314 64.835L54.2455 80.1838C54.2341 80.2199 54.2332 80.2504 54.227 80.2837C53.9031 80.6349 53.6508 81.0529 53.4927 81.5495L51.4799 87.8724C50.1712 85.9739 48.1718 83.913 44.798 82.839C43.9114 82.5568 42.9651 83.045 42.6834 83.93C42.5266 84.4225 42.6163 84.9318 42.8763 85.3365C40.877 84.7883 38.7907 85.9014 38.1585 87.8876ZM65.2507 96.009C65.6381 96.2911 65.7313 96.581 65.6443 96.8267C65.5206 97.2151 65.0933 97.4054 64.5758 97.2407C64.3311 97.1628 64.1283 97.0365 64.0203 96.9316L64.2794 96.5201C64.3551 96.6015 64.514 96.7271 64.6945 96.7845C64.851 96.8343 64.9636 96.7996 64.9981 96.6915C65.0286 96.5954 64.965 96.5178 64.7376 96.344C64.3837 96.0814 64.279 95.8276 64.3731 95.518C64.4968 95.1295 64.8974 94.9395 65.4952 95.1298C65.768 95.2167 65.9936 95.3546 66.126 95.4938L65.8618 95.9213C65.7644 95.8109 65.5437 95.6436 65.3511 95.5823C65.1546 95.5197 65.0527 95.5623 65.0183 95.6704C64.9838 95.7785 65.0315 95.851 65.2507 96.009ZM69.0797 96.3194L69.7336 96.5275L69.3576 97.7088L69.7265 99.7006L68.9803 99.463L68.904 98.6758C68.882 98.4395 68.8675 98.2629 68.8592 98.0529L68.8512 98.0504C68.7297 98.2102 68.6092 98.3526 68.4587 98.534L67.9453 99.1336L67.2111 98.8999L68.6973 97.5207L69.0797 96.3194ZM68.1007 97.1323C67.9325 97.6609 67.4161 98.1448 66.686 97.9124C66.008 97.6966 65.9182 97.0903 66.084 96.5697C66.1196 96.4576 66.1623 96.3653 66.1856 96.3198L67.5376 96.7502C67.5989 96.4742 67.3762 96.2578 67.0713 96.1608C66.8506 96.0905 66.6599 96.0651 66.4668 96.0609L66.5228 95.5936C66.7635 95.5732 67.037 95.6162 67.3218 95.7069C68.0306 95.9369 68.3085 96.4796 68.1007 97.1323ZM56.6057 86.3993L56.6258 86.4057L57.1873 88.0839L54.0738 94.4225L54.0538 94.4161L54.2275 93.3291C54.24 93.2758 54.2446 93.2199 54.2558 93.1706L55.1774 87.4441L56.6057 86.3993ZM43.5725 91.4633L42.8103 91.2207L42.549 89.9732C42.4734 89.614 42.4144 89.2027 42.3905 88.8335L42.3785 88.8296C42.2975 89.2228 42.1899 89.6163 42.0522 90.0488L41.7833 90.8937L41.1815 90.7022L42.0993 87.819L42.7853 88.0374L43.0487 89.3473C43.1231 89.7105 43.1891 90.1417 43.2264 90.524L43.2438 90.5251C43.3488 90.1396 43.4655 89.7313 43.6159 89.2588L43.8925 88.3899L44.4943 88.5814L43.5765 91.4646L43.5725 91.4633ZM40.6182 87.2946C41.232 87.49 41.5739 88.0399 41.3585 88.7166C41.1431 89.3934 40.5601 89.6841 39.8861 89.4695C39.2442 89.2652 38.9552 88.6881 39.1553 88.0594C39.3988 87.2946 40.0566 87.1159 40.6182 87.2946Z" fill="#D71A22"/>
<path d="M52.5725 98.2636L52.3389 98.9973L52.8059 99.1459L53.0394 98.4122L52.5725 98.2636ZM52.5068 99.7853L52.24 99.7004L51.7096 100.097C51.1026 100.55 50.7854 100.831 50.6835 101.152L50.5773 101.485C50.3926 102.065 50.6336 102.532 51.394 102.774C52.141 103.011 52.5804 102.762 52.7651 102.182L52.9456 101.615L52.4787 101.466L52.2897 102.06C52.192 102.366 51.9282 102.503 51.5014 102.367C51.0745 102.231 50.9381 101.967 51.0357 101.66L51.1504 101.3C51.2353 101.033 51.6498 100.747 51.9807 100.492L52.3794 100.186L52.5068 99.7853Z" fill="#D71A22"/>
<path d="M47.3729 99.1196C48.0221 97.0803 50.4415 96.0269 52.7721 96.7688C55.1027 97.5107 56.4691 99.7653 55.8188 101.808C55.1696 103.847 52.7502 104.901 50.4196 104.159C48.0849 103.416 46.7237 101.159 47.3729 99.1196Z" fill="#D71A22"/>
<path d="M52.5725 98.2636L52.3389 98.9973L52.8059 99.1459L53.0394 98.4122L52.5725 98.2636ZM52.5068 99.7853L52.24 99.7004L51.7096 100.097C51.1026 100.55 50.7854 100.831 50.6835 101.152L50.5773 101.485C50.3926 102.065 50.6336 102.532 51.394 102.774C52.141 103.011 52.5804 102.762 52.7651 102.182L52.9456 101.615L52.4787 101.466L52.2897 102.06C52.192 102.366 51.9282 102.503 51.5014 102.367C51.0745 102.231 50.9381 101.967 51.0357 101.66L51.1504 101.3C51.2353 101.033 51.6498 100.747 51.9807 100.492L52.3794 100.186L52.5068 99.7853Z" fill="#EEF5FF"/>
<path d="M42.76 10V9.56H43.32V10C43.32 10.3573 43.2107 10.6347 42.992 10.832C42.7733 11.024 42.4453 11.12 42.008 11.12C41.5707 11.12 41.24 11.024 41.016 10.832C40.792 10.6347 40.68 10.3573 40.68 10V6.8C40.68 6.44267 40.7893 6.168 41.008 5.976C41.2267 5.77867 41.5547 5.68 41.992 5.68C42.4293 5.68 42.76 5.77867 42.984 5.976C43.208 6.168 43.32 6.44267 43.32 6.8V7.56H42.76V6.8C42.76 6.37333 42.5067 6.16 42 6.16C41.4933 6.16 41.24 6.37333 41.24 6.8V10C41.24 10.4267 41.4933 10.64 42 10.64C42.5067 10.64 42.76 10.4267 42.76 10ZM44.7219 11V5.8H45.2819V10.52H46.7459V11H44.7219ZM48.8263 10.52V11H47.4663V10.52H47.8663V6.28H47.4663V5.8H48.8263V6.28H48.4263V10.52H48.8263ZM52.5428 11H50.1828V5.8H52.4628V6.28H50.7428V8.12H52.1428V8.6H50.7428V10.52H52.5428V11ZM54.3053 11H53.7453V5.8H54.3053L56.0413 9.8V5.8H56.6013V11H56.0413L54.3053 7V11ZM60.2784 5.8V6.28H59.2384V11H58.6784V6.28H57.6384V5.8H60.2784Z" fill="black"/>
<path d="M64.2794 10.52V11H62.9194V10.52H63.3194V6.28H62.9194V5.8H64.2794V6.28H63.8794V10.52H64.2794ZM66.1959 11H65.6359V5.8H66.1959L67.9319 9.8V5.8H68.4919V11H67.9319L66.1959 7V11ZM71.3771 11H70.0891V5.8H71.3771C71.7931 5.8 72.1077 5.89867 72.3211 6.096C72.5397 6.29333 72.6491 6.568 72.6491 6.92V9.88C72.6491 10.2373 72.5424 10.5147 72.3291 10.712C72.1157 10.904 71.7984 11 71.3771 11ZM72.0891 9.88V6.92C72.0891 6.74933 72.0251 6.6 71.8971 6.472C71.7744 6.344 71.6011 6.28 71.3771 6.28H70.6491V10.52H71.3771C71.6011 10.52 71.7744 10.4587 71.8971 10.336C72.0251 10.208 72.0891 10.056 72.0891 9.88ZM76.4881 11H74.1281V5.8H76.4081V6.28H74.6881V8.12H76.0881V8.6H74.6881V10.52H76.4881V11ZM76.0561 4.656L75.7521 4.96L74.8481 5.416L74.6401 5.208L75.6241 4.224L76.0561 4.656ZM79.6506 10V9.56H80.2106V10C80.2106 10.3573 80.1013 10.6347 79.8826 10.832C79.664 11.024 79.336 11.12 78.8986 11.12C78.4613 11.12 78.1306 11.024 77.9066 10.832C77.6826 10.6347 77.5706 10.3573 77.5706 10V6.8C77.5706 6.44267 77.68 6.168 77.8986 5.976C78.1173 5.77867 78.4453 5.68 78.8826 5.68C79.32 5.68 79.6506 5.77867 79.8746 5.976C80.0986 6.168 80.2106 6.44267 80.2106 6.8V7.56H79.6506V6.8C79.6506 6.37333 79.3973 6.16 78.8906 6.16C78.384 6.16 78.1306 6.37333 78.1306 6.8V10C78.1306 10.4267 78.384 10.64 78.8906 10.64C79.3973 10.64 79.6506 10.4267 79.6506 10ZM82.7325 10.52V11H81.3725V10.52H81.7725V6.28H81.3725V5.8H82.7325V6.28H82.3325V10.52H82.7325ZM86.6331 10C86.6331 10.7467 86.1824 11.12 85.2811 11.12C84.3797 11.12 83.9291 10.7467 83.9291 10V9.32H84.4891V10.032C84.4891 10.224 84.5557 10.3733 84.6891 10.48C84.8224 10.5867 85.0197 10.64 85.2811 10.64C85.5424 10.64 85.7397 10.5867 85.8731 10.48C86.0064 10.3733 86.0731 10.2293 86.0731 10.048C86.0731 9.86133 86.0517 9.71467 86.0091 9.608C85.9717 9.496 85.8917 9.37867 85.7691 9.256L84.3611 7.88C84.1957 7.71467 84.0811 7.55467 84.0171 7.4C83.9584 7.24 83.9291 7.04 83.9291 6.8C83.9291 6.44267 84.0384 6.168 84.2571 5.976C84.4811 5.77867 84.8171 5.68 85.2651 5.68C86.1237 5.68 86.5531 6.05333 86.5531 6.8V7.48H85.9931V6.768C85.9931 6.576 85.9291 6.42667 85.8011 6.32C85.6784 6.21333 85.4917 6.16 85.2411 6.16C84.9904 6.16 84.8011 6.21333 84.6731 6.32C84.5504 6.42667 84.4891 6.57333 84.4891 6.76C84.4891 6.94667 84.5077 7.09333 84.5451 7.2C84.5824 7.30667 84.6651 7.41867 84.7931 7.536L86.2251 8.912C86.3797 9.08267 86.4864 9.248 86.5451 9.408C86.6037 9.56267 86.6331 9.76 86.6331 10Z" fill="#D71A22"/>
<path d="M50.24 118L50.24 118.44L49.68 118.44L49.68 118C49.68 117.643 49.7893 117.365 50.008 117.168C50.2267 116.976 50.5547 116.88 50.992 116.88C51.4293 116.88 51.76 116.976 51.984 117.168C52.208 117.365 52.32 117.643 52.32 118L52.32 121.2C52.32 121.557 52.2107 121.832 51.992 122.024C51.7733 122.221 51.4453 122.32 51.008 122.32C50.5707 122.32 50.24 122.221 50.016 122.024C49.792 121.832 49.68 121.557 49.68 121.2L49.68 120.44L50.24 120.44L50.24 121.2C50.24 121.627 50.4933 121.84 51 121.84C51.5067 121.84 51.76 121.627 51.76 121.2L51.76 118C51.76 117.573 51.5067 117.36 51 117.36C50.4933 117.36 50.24 117.573 50.24 118ZM48.2781 117L48.2781 122.2L47.7181 122.2L47.7181 117.48L46.2541 117.48L46.2541 117L48.2781 117ZM44.1737 117.48L44.1737 117L45.5337 117L45.5337 117.48L45.1337 117.48L45.1337 121.72L45.5337 121.72L45.5337 122.2L44.1737 122.2L44.1737 121.72L44.5737 121.72L44.5737 117.48L44.1737 117.48ZM40.4572 117L42.8172 117L42.8172 122.2L40.5372 122.2L40.5372 121.72L42.2572 121.72L42.2572 119.88L40.8572 119.88L40.8572 119.4L42.2572 119.4L42.2572 117.48L40.4572 117.48L40.4572 117ZM38.6947 117L39.2547 117L39.2547 122.2L38.6947 122.2L36.9587 118.2L36.9587 122.2L36.3987 122.2L36.3987 117L36.9587 117L38.6947 121L38.6947 117ZM32.7216 122.2L32.7216 121.72L33.7616 121.72L33.7616 117L34.3216 117L34.3216 121.72L35.3616 121.72L35.3616 122.2L32.7216 122.2Z" fill="black"/>
<path d="M28.7206 117.48L28.7206 117L30.0806 117L30.0806 117.48L29.6806 117.48L29.6806 121.72L30.0806 121.72L30.0806 122.2L28.7206 122.2L28.7206 121.72L29.1206 121.72L29.1206 117.48L28.7206 117.48ZM26.8041 117L27.3641 117L27.3641 122.2L26.8041 122.2L25.0681 118.2L25.0681 122.2L24.5081 122.2L24.5081 117L25.0681 117L26.8041 121L26.8041 117ZM21.6229 117L22.9109 117L22.9109 122.2L21.6229 122.2C21.2069 122.2 20.8923 122.101 20.6789 121.904C20.4603 121.707 20.3509 121.432 20.3509 121.08L20.3509 118.12C20.3509 117.763 20.4576 117.485 20.6709 117.288C20.8843 117.096 21.2016 117 21.6229 117ZM20.9109 118.12L20.9109 121.08C20.9109 121.251 20.9749 121.4 21.1029 121.528C21.2256 121.656 21.3989 121.72 21.6229 121.72L22.3509 121.72L22.3509 117.48L21.6229 117.48C21.3989 117.48 21.2256 117.541 21.1029 117.664C20.9749 117.792 20.9109 117.944 20.9109 118.12ZM16.5119 117L18.8719 117L18.8719 122.2L16.5919 122.2L16.5919 121.72L18.3119 121.72L18.3119 119.88L16.9119 119.88L16.9119 119.4L18.3119 119.4L18.3119 117.48L16.5119 117.48L16.5119 117ZM16.9439 123.344L17.2479 123.04L18.1519 122.584L18.3599 122.792L17.3759 123.776L16.9439 123.344ZM13.3494 118L13.3494 118.44L12.7894 118.44L12.7894 118C12.7894 117.643 12.8987 117.365 13.1174 117.168C13.336 116.976 13.664 116.88 14.1014 116.88C14.5387 116.88 14.8694 116.976 15.0934 117.168C15.3174 117.365 15.4294 117.643 15.4294 118L15.4294 121.2C15.4294 121.557 15.32 121.832 15.1014 122.024C14.8827 122.221 14.5547 122.32 14.1174 122.32C13.68 122.32 13.3494 122.221 13.1254 122.024C12.9014 121.832 12.7894 121.557 12.7894 121.2L12.7894 120.44L13.3494 120.44L13.3494 121.2C13.3494 121.627 13.6027 121.84 14.1094 121.84C14.616 121.84 14.8694 121.627 14.8694 121.2L14.8694 118C14.8694 117.573 14.616 117.36 14.1094 117.36C13.6027 117.36 13.3494 117.573 13.3494 118ZM10.2675 117.48L10.2675 117L11.6275 117L11.6275 117.48L11.2275 117.48L11.2275 121.72L11.6275 121.72L11.6275 122.2L10.2675 122.2L10.2675 121.72L10.6675 121.72L10.6675 117.48L10.2675 117.48ZM6.36694 118C6.36694 117.253 6.8176 116.88 7.71894 116.88C8.62027 116.88 9.07094 117.253 9.07094 118L9.07094 118.68L8.51094 118.68L8.51094 117.968C8.51094 117.776 8.44427 117.627 8.31094 117.52C8.1776 117.413 7.98027 117.36 7.71894 117.36C7.4576 117.36 7.26027 117.413 7.12694 117.52C6.9936 117.627 6.92694 117.771 6.92694 117.952C6.92694 118.139 6.94827 118.285 6.99094 118.392C7.02827 118.504 7.10827 118.621 7.23094 118.744L8.63894 120.12C8.80427 120.285 8.91894 120.445 8.98294 120.6C9.0416 120.76 9.07094 120.96 9.07094 121.2C9.07094 121.557 8.9616 121.832 8.74294 122.024C8.51894 122.221 8.18294 122.32 7.73494 122.32C6.87627 122.32 6.44694 121.947 6.44694 121.2L6.44694 120.52L7.00694 120.52L7.00694 121.232C7.00694 121.424 7.07094 121.573 7.19894 121.68C7.3216 121.787 7.50827 121.84 7.75894 121.84C8.0096 121.84 8.19894 121.787 8.32694 121.68C8.4496 121.573 8.51094 121.427 8.51094 121.24C8.51094 121.053 8.49227 120.907 8.45494 120.8C8.4176 120.693 8.33494 120.581 8.20694 120.464L6.77494 119.088C6.62027 118.917 6.5136 118.752 6.45494 118.592C6.39627 118.437 6.36694 118.24 6.36694 118Z" fill="#D71A22"/>
<path d="M9.07003 8.25C9.07003 8.55 8.89003 8.73 8.50603 8.73C8.11603 8.73 7.93003 8.55 7.93003 8.25V5.85C7.93003 5.55 8.11003 5.37 8.49403 5.37C8.88403 5.37 9.07003 5.55 9.07003 5.85V6.42H9.49003V5.85C9.49003 5.328 9.16603 5.01 8.49403 5.01C7.82203 5.01 7.51003 5.328 7.51003 5.85V8.25C7.51003 8.772 7.83403 9.09 8.50603 9.09C9.17803 9.09 9.49003 8.772 9.49003 8.25V7.92H9.07003V8.25ZM11.3814 8.64H11.0814V5.46H11.3814V5.1H10.3614V5.46H10.6614V8.64H10.3614V9H11.3814V8.64Z" fill="#D71A22"/>
<path d="M84.93 119.75C84.93 119.45 85.11 119.27 85.494 119.27C85.884 119.27 86.07 119.45 86.07 119.75L86.07 122.15C86.07 122.45 85.89 122.63 85.506 122.63C85.116 122.63 84.93 122.45 84.93 122.15L84.93 121.58L84.51 121.58L84.51 122.15C84.51 122.672 84.834 122.99 85.506 122.99C86.178 122.99 86.49 122.672 86.49 122.15L86.49 119.75C86.49 119.228 86.166 118.91 85.494 118.91C84.822 118.91 84.51 119.228 84.51 119.75L84.51 120.08L84.93 120.08L84.93 119.75ZM82.6186 119.36L82.9186 119.36L82.9186 122.54L82.6186 122.54L82.6186 122.9L83.6386 122.9L83.6386 122.54L83.3386 122.54L83.3386 119.36L83.6386 119.36L83.6386 119L82.6186 119L82.6186 119.36Z" fill="#D71A22"/>
</svg>
