<svg width="93" height="129" viewBox="0 0 93 129" fill="none" xmlns="http://www.w3.org/2000/svg">
<path d="M88.7301 129H4.26988C1.87458 129 0 127.044 0 124.779V4.22104C0 1.85313 1.97872 0 4.26988 0H88.7301C91.1254 0 93 1.95608 93 4.22104V124.779C93 127.147 91.1254 129 88.7301 129Z" fill="#C8E1FF"/>
<path d="M87.2 126.8H6.1C3.8 126.8 2 124.9 2 122.7V5.60001C2 3.30001 3.9 1.5 6.1 1.5H87.2C89.5 1.5 91.3 3.40001 91.3 5.60001V122.7C91.3 124.9 89.5 126.8 87.2 126.8Z" fill="#EEF5FF"/>
<path d="M56.864 8.84V8.36H58.32V11H58.08L57.872 10.488C57.76 10.68 57.6133 10.8347 57.432 10.952C57.2507 11.064 57.0533 11.12 56.84 11.12C56.0667 11.12 55.68 10.7467 55.68 10V6.8C55.68 6.44267 55.7893 6.168 56.008 5.976C56.2267 5.77867 56.5547 5.68 56.992 5.68C57.4293 5.68 57.76 5.77867 57.984 5.976C58.208 6.168 58.32 6.44267 58.32 6.8V7.24H57.76V6.8C57.76 6.37333 57.5067 6.16 57 6.16C56.4933 6.16 56.24 6.37333 56.24 6.8V10C56.24 10.2027 56.2827 10.36 56.368 10.472C56.4533 10.584 56.608 10.64 56.832 10.64C57.0613 10.64 57.272 10.5493 57.464 10.368C57.6613 10.1867 57.76 10.0107 57.76 9.84V8.84H56.864ZM61.88 10V5.8H62.44V10C62.44 10.3573 62.3253 10.6347 62.096 10.832C61.872 11.024 61.5333 11.12 61.08 11.12C60.632 11.12 60.2933 11.024 60.064 10.832C59.8347 10.6347 59.72 10.3573 59.72 10V5.8H60.28V10C60.28 10.4267 60.5467 10.64 61.08 10.64C61.6133 10.64 61.88 10.4267 61.88 10ZM66.3163 11H63.9563V5.8H66.2363V6.28H64.5163V8.12H65.9163V8.6H64.5163V10.52H66.3163V11ZM65.8843 4.656L65.5803 4.96L64.6763 5.416L64.4683 5.208L65.4523 4.224L65.8843 4.656ZM68.0788 11H67.5188V5.8H68.7268C69.1428 5.8 69.4574 5.89867 69.6708 6.096C69.8894 6.29333 69.9988 6.568 69.9988 6.92V8.04C69.9988 8.584 69.7641 8.93067 69.2948 9.08L70.2788 11H69.6628L68.7268 9.16H68.0788V11ZM69.4388 8.04V6.92C69.4388 6.71733 69.3774 6.56 69.2548 6.448C69.1321 6.336 68.9561 6.28 68.7268 6.28H68.0788V8.68H68.7268C69.2014 8.68 69.4388 8.46667 69.4388 8.04ZM72.5216 10.52V11H71.1616V10.52H71.5616V6.28H71.1616V5.8H72.5216V6.28H72.1216V10.52H72.5216ZM76.4221 10C76.4221 10.7467 75.9715 11.12 75.0701 11.12C74.1688 11.12 73.7181 10.7467 73.7181 10V9.32H74.2781V10.032C74.2781 10.224 74.3448 10.3733 74.4781 10.48C74.6115 10.5867 74.8088 10.64 75.0701 10.64C75.3315 10.64 75.5288 10.5867 75.6621 10.48C75.7955 10.3733 75.8621 10.2293 75.8621 10.048C75.8621 9.86133 75.8408 9.71467 75.7981 9.608C75.7608 9.496 75.6808 9.37867 75.5581 9.256L74.1501 7.88C73.9848 7.71467 73.8701 7.55467 73.8061 7.4C73.7475 7.24 73.7181 7.04 73.7181 6.8C73.7181 6.44267 73.8275 6.168 74.0461 5.976C74.2701 5.77867 74.6061 5.68 75.0541 5.68C75.9128 5.68 76.3421 6.05333 76.3421 6.8V7.48H75.7821V6.768C75.7821 6.576 75.7181 6.42667 75.5901 6.32C75.4675 6.21333 75.2808 6.16 75.0301 6.16C74.7795 6.16 74.5901 6.21333 74.4621 6.32C74.3395 6.42667 74.2781 6.57333 74.2781 6.76C74.2781 6.94667 74.2968 7.09333 74.3341 7.2C74.3715 7.30667 74.4541 7.41867 74.5821 7.536L76.0141 8.912C76.1688 9.08267 76.2755 9.248 76.3341 9.408C76.3928 9.56267 76.4221 9.76 76.4221 10ZM80.4625 6.8V10C80.4625 10.3573 80.3478 10.6347 80.1185 10.832C79.8945 11.024 79.5558 11.12 79.1025 11.12C78.6545 11.12 78.3158 11.024 78.0865 10.832C77.8572 10.6347 77.7425 10.3573 77.7425 10V6.8C77.7425 6.44267 77.8545 6.168 78.0785 5.976C78.3078 5.77867 78.6465 5.68 79.0945 5.68C79.5478 5.68 79.8892 5.77867 80.1185 5.976C80.3478 6.168 80.4625 6.44267 80.4625 6.8ZM79.9025 10V6.8C79.9025 6.37333 79.6358 6.16 79.1025 6.16C78.5692 6.16 78.3025 6.37333 78.3025 6.8V10C78.3025 10.4267 78.5692 10.64 79.1025 10.64C79.6358 10.64 79.9025 10.4267 79.9025 10ZM82.5006 11H81.9406V5.8H82.5006L84.2366 9.8V5.8H84.7966V11H84.2366L82.5006 7V11Z" fill="#2B9EE7"/>
<path d="M34.136 118.16L33.24 118.16L33.24 117.16C33.24 116.84 33.68 116.36 34.168 116.36C34.648 116.36 34.76 116.64 34.76 117L34.76 120.2C34.76 120.6 34.52 120.84 34.008 120.84C33.488 120.84 33.24 120.6 33.24 120.2L33.24 119.76L32.68 119.76L32.68 120.2C32.68 120.896 33.112 121.32 34.008 121.32C34.904 121.32 35.32 120.896 35.32 120.2L35.32 117C35.32 116.368 35.024 115.88 34.16 115.88C33.72 115.88 33.344 116.144 33.128 116.512L32.92 116L32.68 116L32.68 118.64L34.136 118.64L34.136 118.16ZM29.12 117C29.12 116.6 29.376 116.36 29.912 116.36C30.456 116.36 30.72 116.6 30.72 117L30.72 121.2L31.28 121.2L31.28 117C31.28 116.304 30.832 115.88 29.912 115.88C28.992 115.88 28.56 116.304 28.56 117L28.56 121.2L29.12 121.2L29.12 117ZM24.6837 116L24.6837 116.48L26.4837 116.48L26.4837 118.4L25.0837 118.4L25.0837 118.88L26.4837 118.88L26.4837 120.72L24.7637 120.72L24.7637 121.2L27.0437 121.2L27.0437 116L24.6837 116ZM25.1157 122.344L25.5477 122.776L26.5317 121.792L26.3237 121.584L25.4197 122.04L25.1157 122.344ZM22.9212 116L22.9212 117.84L22.2732 117.84L21.3372 116L20.7212 116L21.7052 117.92C21.2332 118.072 21.0012 118.44 21.0012 118.96L21.0012 120.08C21.0012 120.768 21.4252 121.2 22.2732 121.2L23.4812 121.2L23.4812 116L22.9212 116ZM21.5612 118.96C21.5612 118.56 21.7932 118.32 22.2732 118.32L22.9212 118.32L22.9212 120.72L22.2732 120.72C21.8012 120.72 21.5612 120.472 21.5612 120.08L21.5612 118.96ZM18.4784 116.48L18.8784 116.48L18.8784 120.72L18.4784 120.72L18.4784 121.2L19.8384 121.2L19.8384 120.72L19.4384 120.72L19.4384 116.48L19.8384 116.48L19.8384 116L18.4784 116L18.4784 116.48ZM16.4179 119.464C16.6899 119.712 16.7219 119.896 16.7219 120.232C16.7219 120.6 16.4819 120.84 15.9699 120.84C15.4579 120.84 15.2179 120.6 15.2179 120.232L15.2179 119.52L14.6579 119.52L14.6579 120.2C14.6579 120.896 15.0499 121.32 15.9459 121.32C16.8579 121.32 17.2819 120.896 17.2819 120.2C17.2819 119.736 17.1859 119.456 16.8499 119.12L15.4419 117.744C15.1779 117.488 15.1379 117.296 15.1379 116.968C15.1379 116.6 15.3939 116.36 15.9299 116.36C16.4659 116.36 16.7219 116.6 16.7219 116.968L16.7219 117.68L17.2819 117.68L17.2819 117C17.2819 116.304 16.8739 115.88 15.9299 115.88C14.9859 115.88 14.5779 116.304 14.5779 117C14.5779 117.472 14.6659 117.744 14.9859 118.088L16.4179 119.464ZM10.5375 120.2C10.5375 120.896 10.9855 121.32 11.9055 121.32C12.8255 121.32 13.2575 120.896 13.2575 120.2L13.2575 117C13.2575 116.304 12.8095 115.88 11.8895 115.88C10.9695 115.88 10.5375 116.304 10.5375 117L10.5375 120.2ZM11.0975 117C11.0975 116.592 11.3535 116.36 11.8895 116.36C12.4335 116.36 12.6975 116.6 12.6975 117L12.6975 120.2C12.6975 120.6 12.4415 120.84 11.9055 120.84C11.3615 120.84 11.0975 120.6 11.0975 120.2L11.0975 117ZM8.49937 116L8.49937 120L6.76337 116L6.20337 116L6.20337 121.2L6.76337 121.2L6.76337 117.2L8.49937 121.2L9.05937 121.2L9.05937 116L8.49937 116Z" fill="#2B9EE7"/>
<path d="M70.4226 84.6412L70.2898 84.6086C69.6202 84.447 68.9548 84.278 68.2906 84.0901C67.876 83.978 67.46 83.86 67.0497 83.7405L66.7161 85.1569C66.5491 85.8528 66.369 86.5459 66.1946 87.2375L65.6674 89.3197C65.4946 90.0171 65.2998 90.7018 65.1123 91.3908L64.4056 94.0295L63.372 91.4912L62.2641 88.7682C61.8915 87.8635 61.5404 86.9468 61.1851 86.0374L60.1162 83.2978C60.0783 83.2025 60.0403 83.1073 60.0066 83.0047C59.9052 83.3667 59.8096 83.7272 59.7008 84.085L58.6549 87.7262L58.4159 88.5467L57.7229 88.1123L55.2281 86.5546L53.9601 88.9965L53.8531 89.1988L53.6506 89.2531L48.5249 90.5583C47.058 90.939 45.5792 91.298 44.1061 91.6555L44.8347 94.3747C44.9836 94.9302 45.5558 95.2605 46.1112 95.1117L58.2436 91.8608L61.496 103.999C61.6448 104.554 62.217 104.885 62.7724 104.736L70.3805 102.697C70.9359 102.549 71.2663 101.976 71.1175 101.421L67.865 89.2828L79.9974 86.0319C80.5529 85.8831 80.8832 85.3109 80.7344 84.7554L79.998 82.0073L70.5078 84.6122L70.4226 84.6412Z" fill="#A8C909"/>
<path d="M53.1812 88.3805L54.5208 85.5349L54.769 85.0033L55.2957 85.3025L57.6045 86.6061L58.2126 83.7148C58.4634 82.4756 58.761 81.2487 59.0381 80.0148L59.6202 77.397L60.6708 79.906C61.0492 80.8092 61.445 81.7077 61.8061 82.6155L62.9139 85.3385C63.2808 86.2448 63.6592 87.1479 64.0103 88.0646L64.1074 88.3114L64.5771 86.778C64.7908 86.0944 64.9913 85.4082 65.2124 84.7288L65.8739 82.6851L66.1157 81.9444L66.7785 82.2195C67.4136 82.4834 68.0401 82.762 68.6682 83.0463C69.2654 83.308 69.8614 83.5885 70.4517 83.8707L79.8457 81.4156L78.7 77.14C78.5512 76.5846 77.979 76.2542 77.4236 76.4031L65.2796 79.657L62.0303 67.5304C61.8815 66.975 61.3093 66.6446 60.7539 66.7934L53.1516 68.8305C52.5962 68.9793 52.2658 69.5515 52.4146 70.1069L55.667 82.2451L43.5289 85.4975C42.9734 85.6463 42.6431 86.2185 42.7919 86.774L43.9282 91.0148C45.3827 90.5879 46.8429 90.1594 48.3036 89.7556L53.1812 88.3805Z" fill="#A8C909"/>
<path d="M52.2936 89.6042L48.5206 90.5655C47.0537 90.9462 45.5749 91.3052 44.1018 91.6627L44.8304 94.382C44.9792 94.9374 45.5514 95.2677 46.1069 95.1189L51.7652 93.6028C51.8747 92.2526 52.0456 90.9232 52.2936 89.6042Z" fill="#A8C909"/>
<path d="M62.6085 69.6884L62.0303 67.5304C61.8814 66.975 61.3092 66.6446 60.7538 66.7935L53.1515 68.8305C52.5961 68.9793 52.2658 69.5515 52.4146 70.1069L55.2019 80.5094C57.041 76.5193 59.5496 72.852 62.6085 69.6884Z" fill="#A8C909"/>
<path d="M54.3074 82.6094L43.5288 85.4975C42.9734 85.6464 42.643 86.2185 42.7918 86.774L43.9282 91.0148C45.3826 90.5879 46.8429 90.1594 48.3035 89.7556L52.5073 88.5734C52.9524 86.5319 53.5523 84.5356 54.3074 82.6094Z" fill="#A8C909"/>
<path d="M7.398 7.38H8.07V8.13C8.07 8.37 7.74 8.73 7.374 8.73C7.014 8.73 6.93 8.52 6.93 8.25V5.85C6.93 5.55 7.11 5.37 7.494 5.37C7.884 5.37 8.07 5.55 8.07 5.85V6.18H8.49V5.85C8.49 5.328 8.166 5.01 7.494 5.01C6.822 5.01 6.51 5.328 6.51 5.85V8.25C6.51 8.724 6.732 9.09 7.38 9.09C7.71 9.09 7.992 8.892 8.154 8.616L8.31 9H8.49V7.02H7.398V7.38Z" fill="#2B9EE7"/>
<path d="M84.602 122.62L83.93 122.62L83.93 121.87C83.93 121.63 84.26 121.27 84.626 121.27C84.986 121.27 85.07 121.48 85.07 121.75L85.07 124.15C85.07 124.45 84.89 124.63 84.506 124.63C84.116 124.63 83.93 124.45 83.93 124.15L83.93 123.82L83.51 123.82L83.51 124.15C83.51 124.672 83.834 124.99 84.506 124.99C85.178 124.99 85.49 124.672 85.49 124.15L85.49 121.75C85.49 121.276 85.268 120.91 84.62 120.91C84.29 120.91 84.008 121.108 83.846 121.384L83.69 121L83.51 121L83.51 122.98L84.602 122.98L84.602 122.62Z" fill="#2B9EE7"/>
<path d="M20.4337 42.5175L20.5719 42.4835C21.2686 42.3154 21.9609 42.1395 22.6521 41.9441C23.0834 41.8274 23.5163 41.7046 23.9432 41.5803L24.2903 43.054C24.464 43.7781 24.6515 44.4993 24.8328 45.2189L25.3815 47.3854C25.5612 48.1111 25.7639 48.8235 25.959 49.5403L26.6944 52.2859L27.7698 49.6449L28.9226 46.8116C29.3103 45.8702 29.6756 44.9164 30.0452 43.9702L31.1574 41.1196C31.1969 41.0205 31.2364 40.9214 31.2714 40.8147C31.377 41.1913 31.4765 41.5664 31.5896 41.9387L32.6779 45.7273L32.9265 46.5811L33.6477 46.1291L36.2434 44.5084L37.5628 47.0491L37.6741 47.2596L37.8848 47.3161L43.2181 48.6742C44.7444 49.0702 46.2831 49.4438 47.8158 49.8158L47.0577 52.6451C46.9028 53.223 46.3075 53.5668 45.7296 53.4119L33.1059 50.0294L29.7218 62.6591C29.5669 63.237 28.9715 63.5808 28.3936 63.4259L20.4775 61.3048C19.8996 61.1499 19.5559 60.5546 19.7107 59.9767L23.0948 47.347L10.4711 43.9645C9.89323 43.8096 9.54949 43.2142 9.70434 42.6363L10.4705 39.7769L20.3451 42.4873L20.4337 42.5175Z" fill="#A8C909"/>
<path d="M38.3733 46.4083L36.9794 43.4475L36.7211 42.8944L36.1731 43.2056L33.7708 44.5621L33.1381 41.5536C32.8771 40.2643 32.5675 38.9877 32.2792 37.7039L31.6734 34.9801L30.5804 37.5906C30.1866 38.5304 29.7748 39.4653 29.3991 40.4098L28.2464 43.2431C27.8647 44.1861 27.4709 45.1258 27.1057 46.0796L27.0046 46.3365L26.5159 44.7409C26.2936 44.0296 26.0849 43.3156 25.8549 42.6088L25.1665 40.4823L24.9149 39.7116L24.2253 39.9978C23.5646 40.2724 22.9126 40.5623 22.2591 40.8581C21.6378 41.1304 21.0176 41.4223 20.4034 41.7158L10.629 39.1613L11.8211 34.7126C11.9759 34.1347 12.5713 33.791 13.1492 33.9459L25.7849 37.3316L29.1658 24.7139C29.3206 24.136 29.916 23.7923 30.4939 23.9471L38.404 26.0666C38.9819 26.2215 39.3257 26.8169 39.1708 27.3948L35.7867 40.0245L48.4164 43.4086C48.9943 43.5634 49.3381 44.1588 49.1832 44.7367L48.0009 49.1493C46.4875 48.7051 44.9681 48.2592 43.4483 47.8391L38.3733 46.4083Z" fill="#A8C909"/>
<path d="M39.2967 47.6815L43.2226 48.6818C44.7488 49.0779 46.2875 49.4515 47.8203 49.8234L47.0621 52.6528C46.9073 53.2307 46.3119 53.5744 45.734 53.4196L39.8466 51.842C39.7326 50.4372 39.5548 49.054 39.2967 47.6815Z" fill="#A8C909"/>
<path d="M28.5642 26.9593L29.1658 24.7139C29.3207 24.136 29.9161 23.7923 30.494 23.9471L38.4041 26.0666C38.982 26.2215 39.3257 26.8168 39.1709 27.3947L36.2707 38.2185C34.3571 34.0668 31.747 30.251 28.5642 26.9593Z" fill="#A8C909"/>
<path d="M37.2015 40.4035L48.4165 43.4085C48.9944 43.5634 49.3382 44.1588 49.1833 44.7367L48.001 49.1492C46.4876 48.705 44.9683 48.2592 43.4485 47.8391L39.0745 46.609C38.6113 44.4847 37.9872 42.4077 37.2015 40.4035Z" fill="#A8C909"/>
</svg>
