<svg width="93" height="129" viewBox="0 0 93 129" fill="none" xmlns="http://www.w3.org/2000/svg">
<path d="M88.7301 129H4.26988C1.87458 129 0 127.044 0 124.779V4.22104C0 1.85313 1.97872 0 4.26988 0H88.7301C91.1254 0 93 1.95608 93 4.22104V124.779C93 127.147 91.1254 129 88.7301 129Z" fill="#C8E1FF"/>
<path d="M87.2 126.6H6.1C3.8 126.6 2 124.7 2 122.5V5.39998C2 3.09998 3.9 1.29999 6.1 1.29999H87.2C89.5 1.29999 91.3 3.19998 91.3 5.39998V122.5C91.3 124.7 89.5 126.6 87.2 126.6Z" fill="#EEF5FF"/>
<path d="M45.4195 48.5946C45.5808 48.0609 45.7178 47.5957 45.8335 47.2487C47.7655 41.4118 48.855 27.3777 41.3279 25.8962C32.3028 24.1199 34.1335 36.848 34.0722 40.4521C34.0002 44.6191 34.1735 49.0728 36.5126 52.6832C37.3951 54.044 39.4128 56.028 41.2722 55.6486C43.3299 55.2276 44.6496 51.1346 45.4195 48.5946Z" fill="#D71A22"/>
<path d="M22.9163 31.8089C19.2656 33.8526 20.292 37.4443 20.095 41.0628C20.0149 42.5492 19.6171 44.0183 19.4595 45.4661C18.4776 44.0164 18.0604 42.2687 17.5544 40.6193C16.5049 37.2018 15.6706 34.1922 16.3974 30.5974C16.8583 28.3117 23.3197 24.8581 25.5363 24.1093C28.6922 23.0433 27.8917 25.9185 27.2431 29.3317L22.9163 31.8089Z" fill="#D71A22"/>
<path d="M45.7335 41.0927C46.1313 43.3404 45.2845 46.0937 43.3969 47.3531C40.8388 49.0629 39.3659 46.7119 38.9675 44.2459C38.6454 42.2576 38.97 38.692 41.1215 37.6229C43.1523 36.6166 45.4083 39.2486 45.7335 41.0927Z" fill="#F7B6A0"/>
<path d="M42.1135 47.0627L28.5508 49.2352L31.2696 66.0058L44.8285 63.8328L42.1135 47.0627Z" fill="#F7B6A0"/>
<path d="M39.4766 57.01C40.3791 53.9526 40.7256 50.9523 39.9213 47.4153L28.5508 49.2351L30.9131 63.8122C34.3949 62.6952 38.5147 60.2665 39.4766 57.01Z" fill="#F2937C"/>
<path d="M41.0502 48.1201C40.2772 51.5725 38.9369 54.5198 36.1674 56.8894C33.4568 59.2074 30.5022 60.6447 27.2143 58.7273C24.5975 57.1998 22.6542 54.6734 21.3633 52.0196C18.3925 45.9171 18.4294 36.8013 21.6942 30.9756C25.2804 24.5783 34.1842 24.4496 38.5723 30.2448C42.1454 34.9648 42.2986 42.5462 41.0502 48.1201Z" fill="#F7B6A0"/>
<path d="M42.9497 45.3816C42.8002 45.3816 42.657 45.2964 42.5901 45.1527C41.4968 42.7937 41.6532 40.3712 42.9622 39.3916C43.1361 39.2623 43.3831 39.2946 43.5157 39.4694C43.6477 39.6435 43.6127 39.8904 43.4375 40.0204C42.4568 40.7549 42.3999 42.8646 43.3081 44.8243C43.4 45.0215 43.3137 45.2553 43.1148 45.3455C43.0629 45.3691 43.006 45.3816 42.9497 45.3816Z" fill="#F2937C"/>
<path d="M42.3511 42.1307C42.2417 42.1307 42.1316 42.0853 42.0528 41.9958C41.9096 41.8328 41.9265 41.5834 42.091 41.441C42.8684 40.7668 44.2112 41.0355 44.604 41.1331C44.816 41.1854 44.9442 41.3993 44.891 41.6102C44.8373 41.8204 44.6252 41.9497 44.412 41.8956C43.7771 41.737 42.9747 41.719 42.6107 42.0343C42.5363 42.099 42.445 42.1307 42.3511 42.1307Z" fill="#F2937C"/>
<path d="M24.2965 43.0412C24.3709 43.7608 24.0788 44.3809 23.6442 44.4251C23.2089 44.4692 22.7967 43.9225 22.7235 43.2017C22.6491 42.4821 22.9405 41.8614 23.3765 41.8179C23.8112 41.7731 24.2233 42.321 24.2965 43.0412Z" fill="#21263D"/>
<path d="M33.7131 42.0852C33.7869 42.8054 33.4948 43.4243 33.0595 43.4691C32.6255 43.512 32.2127 42.9647 32.1395 42.2445C32.0663 41.5249 32.3565 40.9042 32.7931 40.8606C33.2278 40.8171 33.6393 41.3644 33.7131 42.0852Z" fill="#21263D"/>
<path d="M35.4563 44.415C35.5094 44.9269 34.6088 45.4375 33.4436 45.5569C32.2778 45.6757 31.2909 45.356 31.2389 44.8442C31.1864 44.3323 32.0877 43.8211 33.2535 43.7035C34.4174 43.5847 35.4031 43.9038 35.4563 44.415Z" fill="#F2937C"/>
<path d="M25.1528 46.0564C25.2053 46.5676 24.3047 47.0801 23.1389 47.1976C21.9743 47.3152 20.988 46.9961 20.9367 46.4849C20.8842 45.9736 21.7842 45.463 22.9494 45.3442C24.1146 45.2255 25.1015 45.5451 25.1528 46.0564Z" fill="#F2937C"/>
<path d="M27.3993 47.7045C26.8858 47.7045 26.3898 47.5926 26.0415 47.299C25.8169 47.1112 25.4736 46.6771 25.6887 45.8978C26.0071 44.7342 26.2579 43.9132 26.4468 43.2956C26.8808 41.872 26.9584 41.6158 26.8139 40.7195C26.7795 40.5043 26.9252 40.3035 27.1429 40.2686C27.3518 40.235 27.5607 40.38 27.5951 40.5945C27.7689 41.6699 27.6489 42.0623 27.2035 43.5232C27.0172 44.1359 26.7682 44.9512 26.4505 46.1049C26.3367 46.5179 26.4943 46.6497 26.5531 46.6982C26.9233 47.0117 27.996 46.9775 28.7578 46.6292C28.9554 46.5378 29.1906 46.623 29.2825 46.8214C29.3732 47.0192 29.2869 47.2524 29.0886 47.3432C28.6508 47.5453 28.0122 47.7045 27.3993 47.7045Z" fill="#F2937C"/>
<path d="M21.6847 41.0243C21.4176 41.0243 21.1931 40.8196 21.1744 40.5497C21.1537 40.2698 21.367 40.0254 21.6491 40.0055C23.6042 39.8675 24.7938 39.0838 25.114 38.5931C25.2672 38.3561 25.5837 38.289 25.8226 38.4432C26.0603 38.5962 26.1272 38.9115 25.9733 39.1472C25.4373 39.9694 23.9144 40.8675 21.7216 41.023C21.7091 41.0236 21.6972 41.0243 21.6847 41.0243Z" fill="#FF0000"/>
<path d="M32.7249 39.919C31.6729 39.919 30.6197 39.516 29.9392 38.8841C29.7316 38.6919 29.7209 38.3685 29.9129 38.1639C30.1074 37.9574 30.432 37.9481 30.6378 38.1384C31.4678 38.9096 33.1527 39.2137 34.1647 38.4649C34.3942 38.2976 34.7138 38.3449 34.8827 38.5713C35.0528 38.7977 35.0046 39.1167 34.7763 39.2847C34.1784 39.7269 33.4523 39.919 32.7249 39.919Z" fill="#FF0000"/>
<path d="M36.203 36.6552C38.1757 39.008 38.9349 40.8041 39.4872 43.764C40.4129 43.6172 40.6824 43.9723 40.947 42.9026C41.1459 42.099 41.0345 39.0335 41.5799 38.3674C42.8865 36.7677 44.6002 38.5148 45.038 39.4657C45.038 39.4657 43.6314 29.667 40.0601 23.6162C36.8197 18.0921 22.202 21.4916 22.202 21.4916C20.8222 21.6875 15.9582 21.6216 15.9582 21.6216C15.9582 21.6216 16.2203 25.2811 20.0342 27.7664C20.0342 27.7664 17.0096 27.6352 16.0902 25.806C16.0902 25.806 14.1175 33.2569 22.7949 33.9112C22.7949 33.9112 31.733 34.3024 34.6257 32.2108C37.128 30.4016 35.6401 36.0867 36.203 36.6552Z" fill="#D71A22"/>
<path d="M28.5051 53.0333C26.3517 51.902 27.1173 47.0702 29.5884 49.3446C30.9062 50.5605 31.2464 54.4725 28.5051 53.0333Z" fill="#21263D"/>
<path d="M30.038 49.9242C30.9418 51.4697 30.8961 54.2909 28.5044 53.0339C28.3299 52.9431 28.1829 52.8206 28.0453 52.6863C28.2549 51.4822 28.8734 50.413 30.038 49.9242Z" fill="#E7475B"/>
<path d="M24.8295 51.6296C24.8295 51.6296 21.4152 50.92 21.6866 52.2273C21.6866 52.2273 22.0025 53.5141 24.8295 51.6296Z" fill="#BBD8E9"/>
<path d="M22.5172 53.9812C22.5172 53.9812 19.0379 54.2244 19.6571 55.4085C19.6571 55.4085 20.3157 56.5622 22.5172 53.9812Z" fill="#BBD8E9"/>
<path d="M25.9971 53.7318C25.9971 53.7318 22.6548 54.7232 23.5197 55.7444C23.5197 55.7444 24.4135 56.7277 25.9971 53.7318Z" fill="#BBD8E9"/>
<path d="M33.9102 33.4161C33.9102 33.4161 33.5956 36.8685 34.8697 36.4512C34.8697 36.4512 36.1187 35.9904 33.9102 33.4161Z" fill="#BBD8E9"/>
<path d="M39.0376 36.6831C39.0376 36.6831 38.7224 40.1374 39.997 39.7182C39.997 39.7188 41.2466 39.2579 39.0376 36.6831Z" fill="#BBD8E9"/>
<path d="M37.7229 43.4815C37.7229 43.4815 37.4083 46.9352 38.6823 46.5166C38.6823 46.5172 39.9313 46.0563 37.7229 43.4815Z" fill="#BBD8E9"/>
<path d="M54.1368 79.3312C53.9781 79.856 53.8434 80.3134 53.7296 80.6547C51.8299 86.3943 50.7585 100.195 58.1602 101.651C67.0348 103.398 65.2347 90.8821 65.295 87.338C65.3657 83.2404 65.1953 78.861 62.8952 75.3108C62.0274 73.9726 60.0434 72.0217 58.2149 72.3948C56.1915 72.8088 54.8939 76.8336 54.1368 79.3312Z" fill="#D71A22"/>
<path d="M76.2649 95.837C79.8548 93.8274 78.8456 90.2955 79.0393 86.7374C79.118 85.2757 79.5092 83.8312 79.6641 82.4074C80.6297 83.833 81.0399 85.5515 81.5375 87.1734C82.5695 90.534 83.3899 93.4935 82.6752 97.0284C82.222 99.2759 75.8683 102.672 73.6887 103.408C70.5853 104.457 71.3725 101.629 72.0103 98.2729L76.2649 95.837Z" fill="#D71A22"/>
<path d="M53.828 86.7081C53.4369 84.4978 54.2696 81.7904 56.1257 80.552C58.6411 78.8707 60.0895 81.1825 60.4813 83.6074C60.798 85.5626 60.4788 89.0688 58.3632 90.1201C56.3662 91.1096 54.1478 88.5214 53.828 86.7081Z" fill="#F7B6A0"/>
<path d="M57.3876 80.8375L70.7242 78.7013L68.0508 62.2102L54.7179 64.347L57.3876 80.8375Z" fill="#F7B6A0"/>
<path d="M59.9806 71.056C59.0931 74.0625 58.7524 77.0127 59.5433 80.4908L70.7242 78.7013L68.4013 64.3672C64.9776 65.4656 60.9265 67.8538 59.9806 71.056Z" fill="#F2937C"/>
<path d="M58.4332 79.7979C59.1934 76.403 60.5113 73.5047 63.2346 71.1746C65.9001 68.8953 68.8054 67.4819 72.0385 69.3674C74.6118 70.8695 76.5226 73.3537 77.792 75.9633C80.7133 81.9641 80.677 90.9279 77.4667 96.6565C73.9402 102.947 65.1848 103.074 60.8699 97.3751C57.3563 92.7339 57.2056 85.2788 58.4332 79.7979Z" fill="#F7B6A0"/>
<path d="M56.5654 82.4906C56.7124 82.4906 56.8532 82.5744 56.919 82.7156C57.9941 85.0354 57.8403 87.4174 56.5531 88.3807C56.3821 88.5079 56.1392 88.4761 56.0088 88.3042C55.879 88.133 55.9135 87.8902 56.0857 87.7624C57.05 87.0401 57.106 84.9656 56.213 83.0386C56.1226 82.8447 56.2075 82.6147 56.403 82.5261C56.4541 82.5028 56.5101 82.4906 56.5654 82.4906Z" fill="#F2937C"/>
<path d="M57.1539 85.6873C57.2616 85.6873 57.3698 85.7319 57.4473 85.82C57.5881 85.9802 57.5715 86.2255 57.4098 86.3655C56.6453 87.0285 55.3249 86.7643 54.9386 86.6683C54.7302 86.6169 54.6041 86.4065 54.6564 86.1992C54.7092 85.9925 54.9177 85.8653 55.1275 85.9185C55.7517 86.0744 56.5408 86.0922 56.8987 85.7821C56.9719 85.7185 57.0617 85.6873 57.1539 85.6873Z" fill="#F2937C"/>
<path d="M74.9076 84.792C74.8344 84.0844 75.1216 83.4747 75.5491 83.4312C75.9771 83.3878 76.3824 83.9254 76.4544 84.6342C76.5275 85.3418 76.2409 85.9522 75.8123 85.995C75.3848 86.039 74.9795 85.5002 74.9076 84.792Z" fill="#21263D"/>
<path d="M65.6479 85.732C65.5753 85.0238 65.8625 84.4153 66.2906 84.3713C66.7174 84.3291 67.1233 84.8673 67.1953 85.5755C67.2672 86.2831 66.9819 86.8934 66.5526 86.9362C66.1251 86.979 65.7205 86.4408 65.6479 85.732Z" fill="#21263D"/>
<path d="M63.9339 83.4411C63.8816 82.9378 64.7672 82.4357 65.913 82.3182C67.0594 82.2014 68.0299 82.5158 68.0809 83.0191C68.1326 83.5224 67.2463 84.0251 66.1 84.1407C64.9554 84.2575 63.9862 83.9438 63.9339 83.4411Z" fill="#F2937C"/>
<path d="M74.0657 81.8271C74.014 81.3244 74.8996 80.8204 76.046 80.7048C77.1912 80.5892 78.161 80.903 78.2115 81.4057C78.2631 81.9084 77.3781 82.4105 76.2324 82.5273C75.0866 82.6441 74.1161 82.3298 74.0657 81.8271Z" fill="#F2937C"/>
<path d="M71.8564 80.2064C72.3613 80.2064 72.849 80.3165 73.1916 80.6052C73.4124 80.7899 73.75 81.2167 73.5385 81.983C73.2254 83.1273 72.9788 83.9346 72.7931 84.5419C72.3663 85.9418 72.29 86.1937 72.4321 87.075C72.4659 87.2866 72.3226 87.4842 72.1086 87.5184C71.9032 87.5514 71.6977 87.4089 71.6639 87.1979C71.4929 86.1405 71.611 85.7546 72.0489 84.318C72.2322 83.7156 72.477 82.9139 72.7894 81.7794C72.9013 81.3733 72.7463 81.2437 72.6885 81.196C72.3244 80.8877 71.2697 80.9214 70.5206 81.2638C70.3263 81.3537 70.095 81.27 70.0046 81.0749C69.9154 80.8804 70.0003 80.651 70.1953 80.5617C70.6258 80.363 71.2537 80.2064 71.8564 80.2064Z" fill="#F2937C"/>
<path d="M77.4759 86.7754C77.7385 86.7754 77.9593 86.9766 77.9778 87.242C77.9981 87.5173 77.7883 87.7576 77.511 87.7772C75.5884 87.9129 74.4187 88.6835 74.1038 89.1661C73.9531 89.3991 73.6419 89.4651 73.407 89.3135C73.1733 89.163 73.1075 88.8529 73.2588 88.6212C73.7858 87.8126 75.2834 86.9295 77.4396 86.7766C77.4519 86.776 77.4636 86.7754 77.4759 86.7754Z" fill="#FF0000"/>
<path d="M66.6197 87.8621C67.6541 87.8621 68.6898 88.2584 69.3589 88.8798C69.5631 89.0688 69.5736 89.3868 69.3848 89.588C69.1935 89.791 68.8743 89.8002 68.672 89.6131C67.8558 88.8547 66.199 88.5557 65.2039 89.292C64.9782 89.4565 64.6639 89.41 64.4979 89.1874C64.3306 88.9648 64.3779 88.6511 64.6024 88.4859C65.1904 88.0511 65.9044 87.8621 66.6197 87.8621Z" fill="#FF0000"/>
<path d="M63.1996 91.0716C61.2599 88.758 60.5132 86.9918 59.9702 84.0813C59.0599 84.2256 58.7949 83.8764 58.5347 84.9283C58.3392 85.7185 58.4486 88.7329 57.9123 89.3879C56.6276 90.9609 54.9424 89.243 54.5119 88.3079C54.5119 88.3079 55.8951 97.9432 59.4068 103.893C62.5932 109.325 76.9673 105.982 76.9673 105.982C78.3241 105.79 83.107 105.855 83.107 105.855C83.107 105.855 82.8493 102.256 79.099 99.8122C79.099 99.8122 82.0732 99.9413 82.9773 101.74C82.9773 101.74 84.917 94.4132 76.3843 93.7699C76.3843 93.7699 67.5951 93.3852 64.7507 95.4419C62.29 97.221 63.7531 91.6306 63.1996 91.0716Z" fill="#D71A22"/>
<path d="M70.7691 74.9664C72.8866 76.0788 72.1338 80.8302 69.7039 78.5936C68.4081 77.398 68.0735 73.5512 70.7691 74.9664Z" fill="#21263D"/>
<path d="M69.2617 78.0237C68.373 76.5039 68.4179 73.7298 70.7697 74.9658C70.9413 75.0551 71.0858 75.1756 71.2211 75.3077C71.0151 76.4917 70.4068 77.543 69.2617 78.0237Z" fill="#E7475B"/>
<path d="M74.3836 76.3467C74.3836 76.3467 77.7409 77.0445 77.474 75.759C77.474 75.759 77.1634 74.4936 74.3836 76.3467Z" fill="#BBD8E9"/>
<path d="M76.6573 74.0343C76.6573 74.0343 80.0786 73.7952 79.4698 72.6308C79.4698 72.6308 78.8222 71.4963 76.6573 74.0343Z" fill="#BBD8E9"/>
<path d="M73.2353 74.2796C73.2353 74.2796 76.5219 73.3047 75.6714 72.3005C75.6714 72.3005 74.7925 71.3336 73.2353 74.2796Z" fill="#BBD8E9"/>
<path d="M65.4542 94.2567C65.4542 94.2567 65.7636 90.8618 64.5108 91.2722C64.5108 91.2722 63.2826 91.7254 65.4542 94.2567Z" fill="#BBD8E9"/>
<path d="M60.4123 91.0441C60.4123 91.0441 60.7223 87.6474 59.4689 88.0596C59.4689 88.059 58.2401 88.5122 60.4123 91.0441Z" fill="#BBD8E9"/>
<path d="M61.7051 84.359C61.7051 84.359 62.0145 80.9629 60.7617 81.3745C60.7617 81.3739 59.5335 81.8271 61.7051 84.359Z" fill="#BBD8E9"/>
<path d="M42.496 4.8H43.336L44.512 10H43.952L43.68 8.8H42.152L41.88 10H41.32L42.496 4.8ZM42.912 5.424L42.256 8.32H43.568L42.912 5.424ZM46.1881 10H45.6281V4.8H46.8361C47.2521 4.8 47.5668 4.89867 47.7801 5.096C47.9988 5.29333 48.1081 5.568 48.1081 5.92V7.04C48.1081 7.584 47.8735 7.93067 47.4041 8.08L48.3881 10H47.7721L46.8361 8.16H46.1881V10ZM47.5481 7.04V5.92C47.5481 5.71733 47.4868 5.56 47.3641 5.448C47.2415 5.336 47.0655 5.28 46.8361 5.28H46.1881V7.68H46.8361C47.3108 7.68 47.5481 7.46667 47.5481 7.04ZM50.0709 10H49.5109V4.8H50.7189C51.1349 4.8 51.4496 4.89867 51.6629 5.096C51.8816 5.29333 51.9909 5.568 51.9909 5.92V7.04C51.9909 7.584 51.7563 7.93067 51.2869 8.08L52.2709 10H51.6549L50.7189 8.16H50.0709V10ZM51.4309 7.04V5.92C51.4309 5.71733 51.3696 5.56 51.2469 5.448C51.1243 5.336 50.9483 5.28 50.7189 5.28H50.0709V7.68H50.7189C51.1936 7.68 51.4309 7.46667 51.4309 7.04ZM55.7538 10H53.3938V4.8H55.6738V5.28H53.9538V7.12H55.3538V7.6H53.9538V9.52H55.7538V10ZM54.6098 3.92L53.9058 4.416L53.6978 4.208L54.4818 3.304H54.7378L55.5218 4.208L55.3138 4.416L54.6098 3.92ZM59.0363 4.8V5.28H57.9963V10H57.4363V5.28H56.3963V4.8H59.0363Z" fill="black"/>
<path d="M62.4772 10H61.9172V4.8H62.7572L63.6692 8.232L64.5892 4.8H65.4292V10H64.8692V5.696L63.9332 9.2H63.4132L62.4772 5.696V10ZM67.7226 4.8H68.5626L69.7386 10H69.1786L68.9066 8.8H67.3786L67.1066 10H66.5466L67.7226 4.8ZM68.1386 5.424L67.4826 8.32H68.7946L68.1386 5.424ZM70.8547 10V4.8H71.4147V9.52H72.8787V10H70.8547ZM74.5351 4.8H75.3751L76.5511 10H75.9911L75.7191 8.8H74.1911L73.9191 10H73.3591L74.5351 4.8ZM74.9511 5.424L74.2951 8.32H75.6071L74.9511 5.424ZM78.9552 10H77.6672V4.8H78.9552C79.3712 4.8 79.6859 4.89867 79.8992 5.096C80.1179 5.29333 80.2272 5.568 80.2272 5.92V8.88C80.2272 9.23733 80.1205 9.51467 79.9072 9.712C79.6939 9.904 79.3765 10 78.9552 10ZM79.6672 8.88V5.92C79.6672 5.74933 79.6032 5.6 79.4752 5.472C79.3525 5.344 79.1792 5.28 78.9552 5.28H78.2272V9.52H78.9552C79.1792 9.52 79.3525 9.45867 79.4752 9.336C79.6032 9.208 79.6672 9.056 79.6672 8.88ZM82.8263 9.52V10H81.4663V9.52H81.8663V5.28H81.4663V4.8H82.8263V5.28H82.4263V9.52H82.8263ZM86.5428 10H84.1828V4.8H86.4628V5.28H84.7428V7.12H86.1428V7.6H84.7428V9.52H86.5428V10Z" fill="#D71A22"/>
<path d="M7.12206 5.1L6.24006 9H6.66006L6.86406 8.1H8.01006L8.21406 9H8.63406L7.75206 5.1H7.12206ZM7.43406 5.568L7.92606 7.74H6.94206L7.43406 5.568ZM9.89115 9V5.772L10.5932 8.4H10.9832L11.6852 5.772V9H12.1052V5.1H11.4752L10.7852 7.674L10.1012 5.1H9.47115V9H9.89115Z" fill="#FF0000"/>
<path d="M84.02 121V124.228L84.722 121.6H85.112L85.814 124.228V121H86.234V124.9H85.604L84.914 122.326L84.23 124.9H83.6V121H84.02ZM87.954 124.9L87.072 121H87.492L87.696 121.9H88.842L89.046 121H89.466L88.584 124.9H87.954ZM88.266 124.432L88.758 122.26H87.774L88.266 124.432Z" fill="#FF0000"/>
<path d="M50.504 122.2L49.664 122.2L48.488 117L49.048 117L49.32 118.2L50.848 118.2L51.12 117L51.68 117L50.504 122.2ZM50.088 121.576L50.744 118.68L49.432 118.68L50.088 121.576ZM46.8119 117L47.3719 117L47.3719 122.2L46.1639 122.2C45.7479 122.2 45.4332 122.101 45.2199 121.904C45.0012 121.707 44.8919 121.432 44.8919 121.08L44.8919 119.96C44.8919 119.416 45.1265 119.069 45.5959 118.92L44.6119 117L45.2279 117L46.1639 118.84L46.8119 118.84L46.8119 117ZM45.4519 119.96L45.4519 121.08C45.4519 121.283 45.5132 121.44 45.6359 121.552C45.7585 121.664 45.9345 121.72 46.1639 121.72L46.8119 121.72L46.8119 119.32L46.1639 119.32C45.6892 119.32 45.4519 119.533 45.4519 119.96ZM42.9291 117L43.4891 117L43.4891 122.2L42.2811 122.2C41.8651 122.2 41.5504 122.101 41.3371 121.904C41.1184 121.707 41.0091 121.432 41.0091 121.08L41.0091 119.96C41.0091 119.416 41.2437 119.069 41.7131 118.92L40.7291 117L41.3451 117L42.2811 118.84L42.9291 118.84L42.9291 117ZM41.5691 119.96L41.5691 121.08C41.5691 121.283 41.6304 121.44 41.7531 121.552C41.8757 121.664 42.0517 121.72 42.2811 121.72L42.9291 121.72L42.9291 119.32L42.2811 119.32C41.8064 119.32 41.5691 119.533 41.5691 119.96ZM37.2462 117L39.6062 117L39.6062 122.2L37.3262 122.2L37.3262 121.72L39.0462 121.72L39.0462 119.88L37.6462 119.88L37.6462 119.4L39.0462 119.4L39.0462 117.48L37.2462 117.48L37.2462 117ZM38.3902 123.08L39.0942 122.584L39.3022 122.792L38.5182 123.696L38.2622 123.696L37.4782 122.792L37.6862 122.584L38.3902 123.08ZM33.9637 122.2L33.9637 121.72L35.0037 121.72L35.0037 117L35.5637 117L35.5637 121.72L36.6037 121.72L36.6037 122.2L33.9637 122.2Z" fill="black"/>
<path d="M30.5228 117L31.0828 117L31.0828 122.2L30.2428 122.2L29.3308 118.768L28.4108 122.2L27.5708 122.2L27.5708 117L28.1308 117L28.1308 121.304L29.0668 117.8L29.5868 117.8L30.5228 121.304L30.5228 117ZM25.2774 122.2L24.4374 122.2L23.2614 117L23.8214 117L24.0934 118.2L25.6214 118.2L25.8934 117L26.4534 117L25.2774 122.2ZM24.8614 121.576L25.5174 118.68L24.2054 118.68L24.8614 121.576ZM22.1453 117L22.1453 122.2L21.5853 122.2L21.5853 117.48L20.1213 117.48L20.1213 117L22.1453 117ZM18.4649 122.2L17.6249 122.2L16.4489 117L17.0089 117L17.2809 118.2L18.8089 118.2L19.0809 117L19.6409 117L18.4649 122.2ZM18.0489 121.576L18.7049 118.68L17.3929 118.68L18.0489 121.576ZM14.0448 117L15.3328 117L15.3328 122.2L14.0448 122.2C13.6288 122.2 13.3141 122.101 13.1008 121.904C12.8821 121.707 12.7728 121.432 12.7728 121.08L12.7728 118.12C12.7728 117.763 12.8795 117.485 13.0928 117.288C13.3061 117.096 13.6235 117 14.0448 117ZM13.3328 118.12L13.3328 121.08C13.3328 121.251 13.3968 121.4 13.5248 121.528C13.6475 121.656 13.8208 121.72 14.0448 121.72L14.7728 121.72L14.7728 117.48L14.0448 117.48C13.8208 117.48 13.6475 117.541 13.5248 117.664C13.3968 117.792 13.3328 117.944 13.3328 118.12ZM10.1737 117.48L10.1737 117L11.5337 117L11.5337 117.48L11.1337 117.48L11.1337 121.72L11.5337 121.72L11.5337 122.2L10.1737 122.2L10.1737 121.72L10.5737 121.72L10.5737 117.48L10.1737 117.48ZM6.45719 117L8.81719 117L8.81719 122.2L6.53719 122.2L6.53719 121.72L8.25719 121.72L8.25719 119.88L6.85719 119.88L6.85719 119.4L8.25719 119.4L8.25719 117.48L6.45719 117.48L6.45719 117Z" fill="#D71A22"/>
</svg>
