<svg width="91" height="126" viewBox="0 0 91 126" fill="none" xmlns="http://www.w3.org/2000/svg">
<path d="M85.9 125.3H4.79999C2.49999 125.3 0.700012 123.4 0.700012 121.2V4.1C0.700012 1.8 2.59999 0 4.79999 0H85.9C88.2 0 90 1.9 90 4.1V121.2C90.1 123.5 88.2 125.3 85.9 125.3Z" fill="#EEF5FF"/>
<path d="M3.29623 11.1446V10.1147L4.42917 8.46681C4.63516 8.15783 4.73814 7.95185 4.84114 7.74586C4.94413 7.53987 5.04714 7.33389 5.04714 7.23089C5.15013 7.02491 5.15014 6.81892 5.15014 6.61293C5.15014 6.40694 5.15014 6.09796 5.15014 5.78898C5.15014 5.48 5.15014 5.27402 5.15014 5.06803C5.15014 4.86204 5.15014 4.75905 5.15014 4.65605C5.15014 4.55306 5.15014 4.45007 5.15014 4.45007C5.15014 4.45007 5.15013 4.34707 5.04714 4.34707C5.04714 4.24408 4.94414 4.24408 4.94414 4.24408C4.84114 4.24408 4.84116 4.24408 4.63517 4.24408C4.53217 4.24408 4.42916 4.24408 4.32617 4.24408C4.22318 4.24408 4.22317 4.34707 4.22317 4.34707C4.22317 4.34707 4.22319 4.45007 4.1202 4.45007C4.01721 4.45007 4.1202 4.55306 4.1202 4.65605C4.1202 4.75905 4.1202 4.86204 4.1202 4.96503C4.1202 5.06803 4.1202 5.27402 4.1202 5.48C4.1202 5.68599 4.1202 5.89198 4.1202 5.99497C4.1202 6.09796 4.1202 6.20096 4.1202 6.30395H3.29623C3.29623 6.20096 3.29623 6.09796 3.29623 5.99497C3.29623 5.89198 3.29623 5.68599 3.29623 5.583C3.29623 5.37701 3.29623 5.06803 3.29623 4.96503C3.29623 4.75905 3.29623 4.55306 3.29623 4.45007C3.29623 4.34707 3.29624 4.14109 3.39923 4.03809C3.39923 3.9351 3.50223 3.83211 3.50223 3.72911C3.60523 3.62612 3.60521 3.52313 3.7082 3.52313C3.8112 3.42013 3.81121 3.42013 3.9142 3.42013C4.01719 3.42013 4.12018 3.31714 4.22317 3.31714C4.32616 3.31714 4.53215 3.31714 4.73814 3.31714C5.15011 3.31714 5.45911 3.31714 5.5621 3.42013C5.76809 3.52313 5.87108 3.62612 5.97407 3.83211C5.97407 3.9351 6.07707 4.03809 6.07707 4.14109C6.07707 4.24408 6.07708 4.34707 6.18007 4.55306C6.18007 4.65605 6.18007 4.86204 6.18007 5.06803C6.18007 5.27402 6.18007 5.583 6.18007 5.89198C6.18007 6.09796 6.18007 6.40694 6.18007 6.50994C6.18007 6.71592 6.18007 6.81892 6.18007 6.92191C6.18007 7.02491 6.18007 7.1279 6.18007 7.23089C6.18007 7.33389 6.18006 7.43688 6.07707 7.53987C6.07707 7.64287 5.97407 7.74586 5.97407 7.84885C5.97407 7.95185 5.87107 8.05484 5.87107 8.15783C5.76808 8.26083 5.7681 8.36382 5.6651 8.46681C5.56211 8.56981 5.4591 8.77579 5.3561 8.87879L4.42917 10.2177C4.42917 10.2177 4.42917 10.2177 4.42917 10.3207H6.18007V11.2476H3.29623V11.1446Z" fill="black"/>
<path d="M9.37284 10.8374C9.37284 10.9404 9.26987 10.9404 9.26987 11.0434C9.26987 11.1464 9.16686 11.1464 9.06387 11.1464C8.96088 11.1464 8.8579 11.2494 8.7549 11.2494C8.65191 11.2494 8.44592 11.2494 8.23994 11.2494C8.03395 11.2494 7.82796 11.2494 7.72497 11.2494C7.62197 11.2494 7.51896 11.2494 7.41597 11.1464C7.31298 11.1464 7.31299 11.0434 7.21 11.0434C7.21 10.9404 7.107 10.9404 7.107 10.8374C7.00401 10.7344 7.004 10.6314 7.004 10.4254C7.004 10.2194 6.901 10.0135 6.901 9.80747C6.901 9.49849 6.901 9.18951 6.901 8.77753C6.901 8.36556 6.901 7.85059 6.901 7.23263C6.901 6.61467 6.901 6.0997 6.901 5.68773C6.901 5.27575 6.901 4.96677 6.901 4.65779C6.901 4.34881 6.90101 4.14282 7.004 4.03983C7.004 3.93684 7.107 3.73085 7.107 3.62786C7.107 3.52486 7.21 3.52486 7.21 3.42187C7.21 3.31887 7.31298 3.31887 7.41597 3.31887C7.51896 3.31887 7.62197 3.21588 7.72497 3.21588C7.82796 3.21588 8.03395 3.21588 8.23994 3.21588C8.44592 3.21588 8.65191 3.21588 8.7549 3.21588C8.8579 3.21588 8.96088 3.21588 9.06387 3.31887C9.16686 3.31887 9.16688 3.42187 9.26987 3.42187C9.26987 3.52486 9.37284 3.52486 9.37284 3.62786C9.37284 3.73085 9.47584 3.83384 9.47584 4.03983C9.47584 4.24582 9.57884 4.4518 9.57884 4.65779C9.57884 4.96677 9.57884 5.27575 9.57884 5.68773C9.57884 6.0997 9.57884 6.61467 9.57884 7.23263C9.57884 7.85059 9.57884 8.36556 9.57884 8.77753C9.57884 9.18951 9.57884 9.49849 9.57884 9.80747C9.57884 10.1164 9.57883 10.3224 9.47584 10.4254C9.37285 10.6314 9.37284 10.7344 9.37284 10.8374ZM8.5489 10.0135C8.5489 9.91046 8.5489 9.91046 8.5489 9.80747C8.5489 9.70447 8.5489 9.60148 8.5489 9.39549C8.5489 9.18951 8.5489 8.98352 8.5489 8.57154C8.5489 8.26256 8.5489 7.7476 8.5489 7.23263C8.5489 6.61467 8.5489 6.0997 8.5489 5.79072C8.5489 5.48174 8.5489 5.17276 8.5489 4.96677C8.5489 4.76078 8.5489 4.65779 8.5489 4.5548C8.5489 4.4518 8.5489 4.4518 8.5489 4.34881C8.5489 4.24582 8.4459 4.14282 8.4459 4.14282C8.34291 4.14282 8.23993 4.14282 8.13694 4.14282C8.03394 4.14282 7.93093 4.14282 7.82794 4.14282C7.72494 4.14282 7.72497 4.24582 7.72497 4.34881C7.72497 4.4518 7.72496 4.4518 7.62197 4.5548C7.62197 4.65779 7.62197 4.76078 7.62197 4.96677C7.62197 5.17276 7.62197 5.37875 7.62197 5.79072C7.62197 6.0997 7.62197 6.61467 7.62197 7.23263C7.62197 7.85059 7.62197 8.26256 7.62197 8.57154C7.62197 8.88052 7.62197 9.18951 7.62197 9.39549C7.62197 9.60148 7.62197 9.70447 7.62197 9.80747C7.62197 9.91046 7.62197 9.91046 7.72497 10.0135C7.72497 10.1164 7.82794 10.2194 7.82794 10.2194C7.93093 10.2194 8.03394 10.2194 8.13694 10.2194C8.23993 10.2194 8.34291 10.2194 8.4459 10.2194C8.4459 10.2194 8.5489 10.2194 8.5489 10.0135Z" fill="black"/>
<path d="M12.7716 10.8374C12.7716 10.9404 12.6686 10.9404 12.6686 11.0434C12.6686 11.1464 12.5656 11.1464 12.4626 11.1464C12.3596 11.1464 12.2567 11.2494 12.1537 11.2494C12.0507 11.2494 11.8447 11.2494 11.6387 11.2494C11.4327 11.2494 11.2267 11.2494 11.1237 11.2494C11.0207 11.2494 10.9178 11.2494 10.8148 11.1464C10.7118 11.1464 10.7118 11.0434 10.6088 11.0434C10.6088 10.9404 10.5058 10.9404 10.5058 10.8374C10.4028 10.7344 10.4028 10.6314 10.4028 10.4254C10.4028 10.2194 10.2998 10.0135 10.2998 9.80747C10.2998 9.49849 10.2998 9.18951 10.2998 8.77753C10.2998 8.36556 10.2998 7.85059 10.2998 7.23263C10.2998 6.61467 10.2998 6.0997 10.2998 5.68773C10.2998 5.27575 10.2998 4.96677 10.2998 4.65779C10.2998 4.34881 10.2998 4.14282 10.4028 4.03983C10.4028 3.93684 10.5058 3.73085 10.5058 3.62786C10.5058 3.52486 10.6088 3.52486 10.6088 3.42187C10.6088 3.31887 10.7118 3.31887 10.8148 3.31887C10.9178 3.31887 11.0207 3.21588 11.1237 3.21588C11.2267 3.21588 11.4327 3.21588 11.6387 3.21588C11.8447 3.21588 12.0507 3.21588 12.1537 3.21588C12.2567 3.21588 12.3596 3.21588 12.4626 3.31887C12.5656 3.31887 12.5656 3.42187 12.6686 3.42187C12.6686 3.52486 12.7716 3.52486 12.7716 3.62786C12.7716 3.73085 12.8746 3.83384 12.8746 4.03983C12.8746 4.24582 12.9776 4.4518 12.9776 4.65779C12.9776 4.96677 12.9776 5.27575 12.9776 5.68773C12.9776 6.0997 12.9776 6.61467 12.9776 7.23263C12.9776 7.85059 12.9776 8.36556 12.9776 8.77753C12.9776 9.18951 12.9776 9.49849 12.9776 9.80747C12.9776 10.1164 12.9776 10.3224 12.8746 10.4254C12.8746 10.6314 12.7716 10.7344 12.7716 10.8374ZM12.0507 10.0135C12.0507 9.91046 12.0507 9.91046 12.0507 9.80747C12.0507 9.70447 12.0507 9.60148 12.0507 9.39549C12.0507 9.18951 12.0507 8.98352 12.0507 8.57154C12.0507 8.26256 12.0507 7.7476 12.0507 7.23263C12.0507 6.61467 12.0507 6.0997 12.0507 5.79072C12.0507 5.48174 12.0507 5.17276 12.0507 4.96677C12.0507 4.76078 12.0507 4.65779 12.0507 4.5548C12.0507 4.4518 12.0507 4.4518 12.0507 4.34881C12.0507 4.24582 11.9477 4.14282 11.9477 4.14282C11.8447 4.14282 11.7417 4.14282 11.6387 4.14282C11.5357 4.14282 11.4327 4.14282 11.3297 4.14282C11.2267 4.24582 11.1237 4.24582 11.1237 4.34881C11.1237 4.4518 11.1237 4.4518 11.0207 4.5548C11.0207 4.65779 11.0207 4.76078 11.0207 4.96677C11.0207 5.17276 11.0207 5.37875 11.0207 5.79072C11.0207 6.0997 11.0207 6.61467 11.0207 7.23263C11.0207 7.85059 11.0207 8.26256 11.0207 8.57154C11.0207 8.88052 11.0207 9.18951 11.0207 9.39549C11.0207 9.60148 11.0207 9.70447 11.0207 9.80747C11.0207 9.91046 11.0207 9.91046 11.1237 10.0135C11.1237 10.1164 11.2267 10.2194 11.2267 10.2194C11.3297 10.2194 11.4327 10.2194 11.5357 10.2194C11.6387 10.2194 11.7417 10.2194 11.8447 10.2194C11.9477 10.2194 11.9477 10.2194 12.0507 10.0135Z" fill="black"/>
<path d="M87 115.054V116.083L85.8671 117.731C85.6611 118.04 85.5581 118.246 85.4551 118.452C85.3522 118.658 85.2491 118.864 85.2491 118.967C85.1462 119.173 85.1461 119.379 85.1461 119.585C85.1461 119.791 85.1461 120.1 85.1461 120.409C85.1461 120.718 85.1461 120.924 85.1461 121.13C85.1461 121.336 85.1461 121.439 85.1461 121.542C85.1461 121.645 85.1461 121.748 85.1461 121.748C85.1461 121.748 85.1462 121.851 85.2491 121.851C85.2491 121.954 85.3521 121.954 85.3521 121.954C85.4551 121.954 85.4551 121.954 85.6611 121.954C85.7641 121.954 85.8671 121.954 85.9701 121.954C86.0731 121.954 86.0731 121.851 86.0731 121.851C86.0731 121.851 86.0731 121.748 86.1761 121.748C86.2791 121.748 86.1761 121.645 86.1761 121.542C86.1761 121.439 86.1761 121.336 86.1761 121.233C86.1761 121.13 86.1761 120.924 86.1761 120.718C86.1761 120.512 86.1761 120.306 86.1761 120.203C86.1761 120.1 86.1761 119.997 86.1761 119.894H87C87 119.997 87 120.1 87 120.203C87 120.306 87 120.512 87 120.615C87 120.821 87 121.13 87 121.233C87 121.439 87 121.645 87 121.748C87 121.851 87 122.057 86.897 122.16C86.897 122.263 86.794 122.366 86.794 122.469C86.6911 122.572 86.691 122.675 86.588 122.675C86.4851 122.778 86.4851 122.778 86.3821 122.778C86.2791 122.778 86.1761 122.881 86.0731 122.881C85.9701 122.881 85.7641 122.881 85.5581 122.881C85.1461 122.881 84.8372 122.881 84.7342 122.778C84.5282 122.675 84.4252 122.572 84.3222 122.366C84.3222 122.263 84.2192 122.16 84.2192 122.057C84.2192 121.954 84.2192 121.851 84.1162 121.645C84.1162 121.542 84.1162 121.336 84.1162 121.13C84.1162 120.924 84.1162 120.615 84.1162 120.306C84.1162 120.1 84.1162 119.791 84.1162 119.688C84.1162 119.482 84.1162 119.379 84.1162 119.276C84.1162 119.173 84.1162 119.07 84.1162 118.967C84.1162 118.864 84.1162 118.761 84.2192 118.658C84.2192 118.555 84.3222 118.452 84.3222 118.349C84.3222 118.246 84.4252 118.143 84.4252 118.04C84.5282 117.937 84.5282 117.834 84.6312 117.731C84.7342 117.628 84.8372 117.422 84.9402 117.319L85.8671 115.98C85.8671 115.98 85.8671 115.98 85.8671 115.878H84.2192V114.951H87V115.054Z" fill="black"/>
<path d="M80.9234 115.363C80.9234 115.26 81.0264 115.26 81.0264 115.157C81.0264 115.054 81.1294 115.054 81.2324 115.054C81.3354 115.054 81.4384 114.951 81.5414 114.951C81.6444 114.951 81.8503 114.951 82.0563 114.951C82.2623 114.951 82.4683 114.951 82.5713 114.951C82.6743 114.951 82.7773 114.951 82.8803 115.054C82.9833 115.054 82.9833 115.157 83.0863 115.157C83.0863 115.26 83.1893 115.26 83.1893 115.363C83.2923 115.466 83.2923 115.569 83.2923 115.775C83.2923 115.98 83.3953 116.186 83.3953 116.392C83.3953 116.701 83.3953 117.01 83.3953 117.422C83.3953 117.834 83.3953 118.349 83.3953 118.967C83.3953 119.585 83.3953 120.1 83.3953 120.512C83.3953 120.924 83.3953 121.233 83.3953 121.542C83.3953 121.851 83.3953 122.057 83.2923 122.16C83.2923 122.263 83.1893 122.469 83.1893 122.572C83.1893 122.675 83.0863 122.675 83.0863 122.778C83.0863 122.881 82.9833 122.881 82.8803 122.881C82.7773 122.881 82.6743 122.984 82.5713 122.984C82.4683 122.984 82.2623 122.984 82.0563 122.984C81.8503 122.984 81.6444 122.984 81.5414 122.984C81.4384 122.984 81.3354 122.984 81.2324 122.881C81.1294 122.881 81.1294 122.778 81.0264 122.778C81.0264 122.675 80.9234 122.675 80.9234 122.572C80.9234 122.469 80.8204 122.366 80.8204 122.16C80.8204 121.954 80.7174 121.748 80.7174 121.542C80.7174 121.233 80.7174 120.924 80.7174 120.512C80.7174 120.1 80.7174 119.585 80.7174 118.967C80.7174 118.349 80.7174 117.834 80.7174 117.422C80.7174 117.01 80.7174 116.701 80.7174 116.392C80.7174 116.083 80.7174 115.877 80.8204 115.775C80.8204 115.569 80.9234 115.466 80.9234 115.363ZM81.7474 116.186C81.7474 116.289 81.7474 116.289 81.7474 116.392C81.7474 116.495 81.7474 116.598 81.7474 116.804C81.7474 117.01 81.7474 117.216 81.7474 117.628C81.7474 117.937 81.7474 118.452 81.7474 118.967C81.7474 119.585 81.7474 120.1 81.7474 120.409C81.7474 120.718 81.7474 121.027 81.7474 121.233C81.7474 121.439 81.7474 121.542 81.7474 121.645C81.7474 121.748 81.7474 121.748 81.7474 121.851C81.7474 121.954 81.8504 122.057 81.8504 122.057C81.9534 122.057 82.0563 122.057 82.1593 122.057C82.2623 122.057 82.3653 122.057 82.4683 122.057C82.5713 122.057 82.5713 121.954 82.5713 121.851C82.5713 121.748 82.5713 121.748 82.6743 121.645C82.6743 121.542 82.6743 121.439 82.6743 121.233C82.6743 121.027 82.6743 120.821 82.6743 120.409C82.6743 120.1 82.6743 119.585 82.6743 118.967C82.6743 118.349 82.6743 117.937 82.6743 117.628C82.6743 117.319 82.6743 117.01 82.6743 116.804C82.6743 116.598 82.6743 116.495 82.6743 116.392C82.6743 116.289 82.6743 116.289 82.5713 116.186C82.5713 116.083 82.4683 115.98 82.4683 115.98C82.3653 115.98 82.2623 115.98 82.1593 115.98C82.0563 115.98 81.9534 115.98 81.8504 115.98C81.7474 115.98 81.7474 115.98 81.7474 116.186Z" fill="black"/>
<path d="M77.5246 115.363C77.5246 115.26 77.6276 115.26 77.6276 115.157C77.6276 115.054 77.7306 115.054 77.8336 115.054C77.9366 115.054 78.0396 114.951 78.1426 114.951C78.2456 114.951 78.4516 114.951 78.6576 114.951C78.8636 114.951 79.0695 114.951 79.1725 114.951C79.2755 114.951 79.3785 114.951 79.4815 115.054C79.5845 115.054 79.5845 115.157 79.6875 115.157C79.6875 115.26 79.7905 115.26 79.7905 115.363C79.8935 115.466 79.8935 115.569 79.8935 115.775C79.8935 115.981 79.9965 116.187 79.9965 116.393C79.9965 116.702 79.9965 117.01 79.9965 117.422C79.9965 117.834 79.9965 118.349 79.9965 118.967C79.9965 119.585 79.9965 120.1 79.9965 120.512C79.9965 120.924 79.9965 121.233 79.9965 121.542C79.9965 121.851 79.9965 122.057 79.8935 122.16C79.8935 122.263 79.7905 122.469 79.7905 122.572C79.7905 122.675 79.6875 122.675 79.6875 122.778C79.6875 122.881 79.5845 122.881 79.4815 122.881C79.3785 122.881 79.2755 122.984 79.1725 122.984C79.0695 122.984 78.8636 122.984 78.6576 122.984C78.4516 122.984 78.2456 122.984 78.1426 122.984C78.0396 122.984 77.9366 122.984 77.8336 122.881C77.7306 122.881 77.7306 122.778 77.6276 122.778C77.6276 122.675 77.5246 122.675 77.5246 122.572C77.5246 122.469 77.4216 122.366 77.4216 122.16C77.4216 121.954 77.3186 121.748 77.3186 121.542C77.3186 121.233 77.3186 120.924 77.3186 120.512C77.3186 120.1 77.3186 119.585 77.3186 118.967C77.3186 118.349 77.3186 117.834 77.3186 117.422C77.3186 117.01 77.3186 116.702 77.3186 116.393C77.3186 116.084 77.3186 115.878 77.4216 115.775C77.4216 115.569 77.4216 115.466 77.5246 115.363ZM78.2456 116.187C78.2456 116.29 78.2456 116.29 78.2456 116.393C78.2456 116.496 78.2456 116.599 78.2456 116.805C78.2456 117.01 78.2456 117.216 78.2456 117.628C78.2456 117.937 78.2456 118.452 78.2456 118.967C78.2456 119.585 78.2456 120.1 78.2456 120.409C78.2456 120.718 78.2456 121.027 78.2456 121.233C78.2456 121.439 78.2456 121.542 78.2456 121.645C78.2456 121.748 78.2456 121.748 78.2456 121.851C78.2456 121.954 78.3486 122.057 78.3486 122.057C78.4516 122.057 78.5546 122.057 78.6576 122.057C78.7606 122.057 78.8635 122.057 78.9665 122.057C79.0695 122.057 79.0695 121.954 79.0695 121.851C79.0695 121.748 79.0695 121.748 79.1725 121.645C79.1725 121.542 79.1725 121.439 79.1725 121.233C79.1725 121.027 79.1725 120.821 79.1725 120.409C79.1725 120.1 79.1725 119.585 79.1725 118.967C79.1725 118.349 79.1725 117.937 79.1725 117.628C79.1725 117.319 79.1725 117.01 79.1725 116.805C79.1725 116.599 79.1725 116.496 79.1725 116.393C79.1725 116.29 79.1725 116.29 79.0695 116.187C79.0695 116.084 78.9665 115.981 78.9665 115.981C78.8635 115.981 78.7606 115.981 78.6576 115.981C78.5546 115.981 78.4516 115.981 78.3486 115.981C78.3486 115.981 78.3486 115.981 78.2456 116.187Z" fill="black"/>
<path d="M86.0863 38.7785C85.6743 38.4696 85.3653 38.1606 85.0563 37.8516C84.4384 37.1307 83.9234 36.2037 83.6144 35.2768C83.4084 34.2468 83.4084 33.2169 83.9234 32.29C84.2324 31.878 84.5414 31.466 84.9533 31.157C85.3653 30.848 85.8803 30.7451 86.3953 30.7451C86.9102 30.7451 87.4252 31.054 87.7342 31.363C88.1461 31.775 88.3521 32.187 88.4551 32.7019C88.7641 33.6289 88.6611 34.6588 88.1461 35.5858C87.6312 36.4097 86.9102 37.0277 85.9833 37.3366C85.1593 37.6456 84.2324 37.6456 83.4084 37.5426C82.5845 37.4396 81.7605 37.1307 81.0396 36.7187C79.5977 35.9977 78.3618 35.0708 77.2288 34.4528C76.0959 33.7319 74.963 33.3199 73.83 33.1139C72.8001 32.9079 71.8732 33.1139 71.1522 33.4229C70.4313 33.7319 70.0193 34.0408 69.7103 34.3498C69.6073 34.4528 69.6073 34.4528 69.5043 34.5558C69.5043 34.6588 69.4013 34.6588 69.4013 34.6588C69.2983 34.7618 69.2983 34.7618 69.2983 34.7618C69.2983 34.7618 69.2983 34.7618 69.4013 34.6588C69.4013 34.6588 69.5043 34.5558 69.5043 34.4528C69.5043 34.3498 69.6073 34.3498 69.7103 34.2468C70.0193 33.9379 70.4313 33.5259 71.1522 33.2169C71.8732 32.9079 72.8001 32.8049 73.83 32.9079C74.86 33.1139 76.0959 33.5259 77.2288 34.2468C78.3618 34.9678 79.5977 35.7917 81.0396 36.5127C81.7605 36.8217 82.4815 37.1307 83.3055 37.3366C84.1294 37.4396 85.0564 37.4396 85.8803 37.1307C86.7042 36.8217 87.5282 36.3067 87.9402 35.4828C88.3521 34.6588 88.4551 33.6289 88.2491 32.8049C88.1461 32.393 87.9401 31.878 87.5282 31.569C87.2192 31.26 86.7042 31.054 86.2923 30.951C85.7773 30.951 85.3653 31.054 84.9533 31.363C84.5414 31.672 84.2324 31.981 83.9234 32.393C83.4084 33.2169 83.4084 34.3498 83.6144 35.2768C83.8204 36.2037 84.3354 37.1307 84.9533 37.8516" fill="#0A100C"/>
<path d="M86.9103 39.2935C86.6013 39.1905 86.3953 38.9846 86.0863 38.7786Z" fill="#0A100C"/>
<path d="M15.7417 61.5401L15.5357 24.3595H72.6971V61.9521L15.7417 61.5401Z" fill="#2996D3"/>
<path d="M27.483 54.4335C29.6458 54.3306 31.9117 54.8455 34.1776 55.0515L32.9416 54.7425C32.7356 52.6827 33.5596 50.5198 35.1045 48.9749C36.6494 47.533 38.8123 46.709 40.8721 47.018C42.417 47.224 43.9619 47.945 45.5068 47.636C48.3907 47.121 49.8326 43.7222 52.6134 42.6923C56.1152 41.3534 60.1319 44.4432 63.5307 43.0013C64.8696 42.3833 65.8996 41.1474 67.2385 40.4264C68.3714 39.8085 69.9163 39.6025 70.8433 40.3234V32.2899C69.9163 34.0408 67.6505 34.9678 65.5906 34.7618C63.4277 34.5558 61.4709 33.5259 59.617 32.3929C57.7631 31.363 55.8062 30.2301 53.6433 29.9211C50.5535 29.5091 47.6697 30.848 44.6829 31.775C42.0051 32.4959 39.1213 32.8049 36.4434 32.084C36.3404 32.084 36.2374 31.981 36.1344 31.981C35.8254 32.2899 35.4135 32.5989 35.0015 32.8049C32.7356 33.9378 29.7488 32.3929 27.586 33.8349C26.3501 34.6588 25.9381 36.3067 25.0111 37.5426C23.3632 39.8085 19.2435 40.4264 16.9776 38.8815V57.3174V59.6862H18.2136C20.4794 56.6994 23.8782 54.6395 27.483 54.4335ZM62.6038 38.0576C62.7068 37.9546 62.9128 37.8516 63.1187 37.8516C63.1187 37.8516 63.1187 37.8516 63.2217 37.8516C63.7367 37.7486 64.3547 37.9546 64.6636 38.4696C65.0756 39.0875 64.7666 40.0145 64.1487 40.4264C63.4277 40.7354 62.5008 40.4264 62.2948 39.7055C62.0888 39.0875 62.3978 38.4696 62.8097 38.1606L62.6038 38.0576Z" fill="#FAFAFA"/>
<path d="M70.9463 40.4265C70.0193 39.7055 68.3714 39.8085 67.3415 40.5295C66.0026 41.3534 65.0756 42.4863 63.6337 43.1043C60.2349 44.5462 56.1152 41.4564 52.7164 42.7953C50.0386 43.8253 48.4937 47.224 45.6099 47.739C44.065 48.048 42.5201 47.327 40.9752 47.1211C38.9153 46.9151 36.6494 47.636 35.2075 49.0779C33.6626 50.5198 32.8387 52.6827 33.0446 54.8456L34.2806 55.1546C36.0315 55.3605 37.6794 55.3605 39.3273 54.8456C44.065 53.3007 46.6398 47.224 51.5835 46.7091C54.3643 46.4001 57.0421 47.945 59.823 47.43C61.9858 47.0181 63.8397 45.4732 65.5906 44.1342C67.3415 42.8983 69.1954 41.6624 71.2552 42.3834V40.6325C71.0493 40.5295 71.0493 40.5295 70.9463 40.4265Z" fill="#D71A22"/>
<path d="M65.4876 44.1342C63.6337 45.4732 61.8828 47.0181 59.7199 47.43C57.0421 47.945 54.2613 46.4001 51.4804 46.7091C46.5368 47.327 43.9619 53.3007 39.2242 54.8456C37.5763 55.3605 35.9284 55.3605 34.1776 55.1546C32.0147 54.9486 29.7488 54.3306 27.483 54.5366C23.8782 54.7426 20.3764 56.8024 18.4196 59.7893H19.6555C20.7884 58.5533 22.3333 57.7294 23.9812 57.3174C26.35 56.6995 29.0279 57.2144 31.0877 58.6563C31.6027 58.9653 32.0147 59.3773 32.4266 59.7893H41.3871C41.7991 59.5833 42.2111 59.3773 42.623 59.1713C44.2709 58.3473 46.1248 57.7294 47.8757 58.1414C49.0086 58.3473 50.0386 58.9653 50.6565 59.7893H60.3379C60.6469 59.1713 61.1618 58.6563 61.8828 58.4503C62.6038 58.2444 63.4277 58.3473 64.0457 57.8324C64.7666 57.3174 64.8696 56.2875 65.1786 55.4635C66.0026 53.1977 68.6804 51.6528 71.0492 52.0647V42.3834C69.0923 41.5594 67.2385 42.7953 65.4876 44.1342ZM56.9391 57.8324C55.3942 58.5533 53.3343 57.7294 52.7164 56.0815C52.3044 54.8456 52.8194 53.3007 53.9523 52.5797L53.7463 52.6827C54.0553 52.4767 54.3643 52.2707 54.6733 52.1677C54.7762 52.1677 54.8793 52.0647 54.9823 52.0647H54.8793C56.1152 51.7558 57.5571 52.2707 58.175 53.4037C59.102 54.9486 58.484 57.1114 56.9391 57.8324ZM67.6504 46.9151C67.2385 47.1211 66.7235 46.9151 66.5175 46.5031C66.4145 46.1941 66.5175 45.7821 66.8265 45.5762H66.7235C66.8265 45.4732 66.9295 45.4732 67.0325 45.4732C67.3415 45.3702 67.7534 45.5762 67.9594 45.7821C68.2684 46.0911 68.0624 46.7091 67.6504 46.9151Z" fill="#D71A22"/>
<path d="M65.2816 55.5666C64.9726 56.3905 64.8696 57.4204 64.1487 57.9354C63.5307 58.3474 62.7068 58.2444 61.9858 58.5534C61.2649 58.7594 60.7499 59.2743 60.4409 59.8923H71.2552V52.2708C68.6804 51.6528 66.1056 53.1977 65.2816 55.5666Z" fill="#D71A22"/>
<path d="M23.9812 57.3174C22.3333 57.7294 20.7884 58.5534 19.6555 59.7893H32.4266C32.0147 59.3773 31.4997 59.0683 31.0877 58.6564C29.1309 57.2145 26.453 56.6995 23.9812 57.3174Z" fill="#D71A22"/>
<path d="M47.9787 58.1414C46.2278 57.7295 44.3739 58.3474 42.726 59.1714C42.314 59.3774 41.9021 59.5834 41.4901 59.7893H50.7595C50.0386 58.9654 49.0086 58.3474 47.9787 58.1414Z" fill="#D71A22"/>
<path d="M44.168 28.5822C42.5201 28.6852 40.8722 28.3762 39.4303 29.2002C38.1943 29.8181 37.3704 31.26 36.3405 32.187C36.4434 32.187 36.5464 32.29 36.6494 32.29C39.3273 33.0109 42.2111 32.7019 44.8889 31.981C47.8757 31.157 50.7595 29.8181 53.8494 30.1271C56.0122 30.4361 57.9691 31.569 59.823 32.5989C61.6768 33.6289 63.6337 34.7618 65.7966 34.9678C67.8565 35.1738 70.1223 34.2468 71.0492 32.4959V31.775V25.9044H47.9787C47.6697 27.4493 45.8159 28.4792 44.168 28.5822Z" fill="#D71A22"/>
<path d="M62.0888 39.6026C62.2948 40.3235 63.2217 40.6325 63.9427 40.3235C64.6636 40.0146 64.8696 38.9846 64.4576 38.3667C64.1486 37.8517 63.5307 37.6457 63.0157 37.7487C63.0157 37.7487 63.0157 37.7487 62.9127 37.7487C62.7067 37.7487 62.6037 37.8517 62.3978 37.9547L62.5008 37.8517C62.1918 38.3667 61.8828 38.9846 62.0888 39.6026Z" fill="#D71A22"/>
<path d="M54.8793 52.1678C54.7763 52.1678 54.6733 52.1678 54.5703 52.2708C54.2613 52.3738 53.9523 52.4768 53.6433 52.7857L53.8493 52.6828C52.8194 53.5067 52.2014 54.9486 52.6134 56.1845C53.2313 57.8324 55.2912 58.6564 56.8361 57.9354C58.381 57.2145 58.999 54.9486 58.0721 53.5067C57.5571 52.3738 56.1152 51.9618 54.8793 52.1678Z" fill="#D71A22"/>
<path d="M54.8793 52.1678C54.7763 52.1678 54.6733 52.1678 54.5703 52.2708C54.2613 52.3738 53.9523 52.4768 53.6433 52.7857L53.8493 52.6828C52.8194 53.5067 52.2014 54.9486 52.6134 56.1845C53.2313 57.8324 55.2912 58.6564 56.8361 57.9354C58.381 57.2145 58.999 54.9486 58.0721 53.5067C57.5571 52.3738 56.1152 51.9618 54.8793 52.1678Z" fill="#EA7880"/>
<path d="M67.9594 45.7822C67.7534 45.4732 67.4444 45.3702 67.0325 45.4732C66.9295 45.4732 66.8265 45.5762 66.7235 45.5762H66.8265C66.5175 45.7822 66.4145 46.1941 66.5175 46.5031C66.7235 46.9151 67.2385 47.1211 67.6504 46.9151C68.0624 46.7091 68.2684 46.0912 67.9594 45.7822Z" fill="#D71A22"/>
<path d="M25.3201 37.6456C26.247 36.4097 26.659 34.8648 27.8949 33.9379C29.9548 32.496 33.0446 33.9379 35.3105 32.9079C35.7225 32.702 36.1344 32.393 36.4434 32.084C37.4734 31.0541 38.2973 29.7151 39.5332 29.0972C40.9751 28.3762 42.726 28.5822 44.2709 28.4792C45.9188 28.3762 47.6697 27.3463 47.8757 25.8014H39.3272H17.1836V38.8816C17.1836 38.8816 17.1836 38.8816 17.2866 38.8816C19.5525 40.5295 23.6722 39.9115 25.3201 37.6456Z" fill="#D71A22"/>
<path d="M70.9463 40.4265C70.0193 39.7055 68.3714 39.8085 67.3415 40.5295C66.0026 41.3534 65.0756 42.4863 63.6337 43.1043C60.2349 44.5462 56.1152 41.4564 52.7164 42.7953C50.0386 43.8253 48.4937 47.224 45.6099 47.739C44.065 48.048 42.5201 47.327 40.9752 47.1211C38.9153 46.9151 36.6494 47.636 35.2075 49.0779C33.6626 50.5198 32.8387 52.6827 33.0446 54.8456L34.2806 55.1546C36.0315 55.3605 37.6794 55.3605 39.3273 54.8456C44.065 53.3007 46.6398 47.224 51.5835 46.7091C54.3643 46.4001 57.0421 47.945 59.823 47.43C61.9858 47.0181 63.8397 45.4732 65.5906 44.1342C67.3415 42.8983 69.1954 41.6624 71.2552 42.3834V40.6325C71.0493 40.5295 71.0493 40.5295 70.9463 40.4265Z" fill="#EA7880"/>
<path d="M39.2234 25.9044H17.0798V38.9846C17.0798 38.9846 17.0798 38.9846 17.1828 38.9846C19.5517 40.5295 23.5684 39.9115 25.2163 37.6456C26.1432 36.4097 26.5552 34.8648 27.7911 33.9379C29.851 32.496 32.9408 33.9379 35.2067 32.9079C35.6186 32.702 36.0306 32.393 36.3396 32.084C37.3695 31.0541 38.1935 29.7151 39.4294 29.0972C40.8713 28.3762 42.6222 28.5822 44.1671 28.4792C45.815 28.3762 47.5659 27.3463 47.7719 25.8014" fill="#EA7880"/>
<path d="M64.5606 42.4863C64.3546 41.8683 63.2217 37.2336 61.0589 28.7881C51.4805 31.26 37.4733 34.7618 21.9213 38.7785V38.6755C23.1572 43.4132 24.2902 48.0479 25.4231 52.3737H25.3201C47.8757 46.709 63.4277 42.7953 64.5606 42.4863C63.4277 42.7953 47.8757 46.709 25.4231 52.4767C24.2902 48.1509 23.1572 43.5162 21.9213 38.7785C37.4733 34.8648 51.5835 31.26 61.0589 28.8911C63.3247 37.2336 64.4576 41.8683 64.5606 42.4863Z" fill="#0A100C"/>
<path d="M64.9309 41.7561L63.9327 42.0096L64.1862 43.0079L65.1845 42.7543L64.9309 41.7561Z" fill="#375A64"/>
<path d="M25.7974 51.8582L24.7992 52.1118L25.0528 53.11L26.051 52.8564L25.7974 51.8582Z" fill="#375A64"/>
<path d="M61.4143 27.9591L60.416 28.2126L60.6696 29.2109L61.6678 28.9573L61.4143 27.9591Z" fill="#375A64"/>
<path d="M41.6492 33.0149L40.651 33.2685L40.9045 34.2667L41.9028 34.0131L41.6492 33.0149Z" fill="#375A64"/>
<path d="M45.1405 46.7111L44.1423 46.9647L44.3958 47.9629L45.3941 47.7093L45.1405 46.7111Z" fill="#375A64"/>
<path d="M24.0364 44.7364L23.0382 44.99L23.2918 45.9882L24.29 45.7346L24.0364 44.7364Z" fill="#375A64"/>
<path d="M63.159 34.7309L62.1608 34.9844L62.4143 35.9826L63.4125 35.7291L63.159 34.7309Z" fill="#375A64"/>
<path d="M22.2938 38.1665L21.2956 38.4201L21.5491 39.4183L22.5473 39.1647L22.2938 38.1665Z" fill="#375A64"/>
<path d="M33.8686 47.8419C33.7656 47.7389 33.6626 47.6359 33.5596 47.4299C33.5596 47.224 33.5596 47.121 33.6626 46.915L36.0314 42.0743C36.3404 41.3533 36.5464 40.8384 36.4434 40.4264C36.3404 39.9114 36.0314 39.4994 35.7225 39.2935C35.4135 39.0875 35.0015 38.9845 34.4865 39.0875C34.1775 39.1905 33.9716 39.2935 33.7656 39.4994C33.5596 39.7054 33.4566 40.0144 33.3536 40.3234C33.2506 40.6324 33.2506 40.9414 33.3536 41.2503C33.3536 41.4563 33.3536 41.5593 33.2506 41.7653C33.1476 41.8683 33.0446 41.9713 32.8387 42.0743C32.6327 42.0743 32.5297 42.0743 32.3237 41.9713C32.2207 41.8683 32.1177 41.7653 32.0147 41.5593C31.9117 41.0443 31.9117 40.5294 32.0147 40.0144C32.1177 39.4994 32.4267 39.0875 32.7357 38.7785C33.1476 38.4695 33.5596 38.1605 34.0746 38.0575C34.5895 37.9545 35.1045 37.9545 35.6195 38.0575C36.0314 38.1605 36.4434 38.4695 36.8554 38.7785C37.2674 39.0875 37.3703 39.6024 37.5763 40.2204C37.6793 40.5294 37.6793 40.9413 37.5763 41.3533C37.4733 41.7653 37.2673 42.1773 37.0614 42.5892L35.1045 46.4L38.5033 45.5761C38.7093 45.5761 38.8123 45.5761 39.0183 45.6791C39.1213 45.782 39.2242 45.885 39.3272 46.091C39.3272 46.297 39.3272 46.4 39.2242 46.606C39.1212 46.709 39.0182 46.812 38.8123 46.915L34.3836 48.0479C34.1776 47.9449 33.9716 47.9449 33.8686 47.8419Z" fill="#2996D3"/>
<path d="M40.9751 44.8551C40.2542 44.1342 39.7392 43.1043 39.3272 41.5594C38.9153 40.1174 38.9153 38.8815 39.2242 37.9546C39.5332 37.0276 40.1512 36.4097 40.9751 36.2037C41.5931 36.1007 42.1081 36.1007 42.623 36.4097C43.138 36.7187 43.653 37.1306 44.0649 37.7486C44.4769 38.3666 44.7859 39.1905 44.9919 40.1174C45.1979 41.0444 45.3009 41.9713 45.3009 42.6923C45.3009 43.4132 45.0949 44.0312 44.6829 44.5462C44.3739 45.0611 43.8589 45.3701 43.241 45.4731C42.52 45.7821 41.6961 45.5761 40.9751 44.8551ZM44.0649 43.0013C44.1679 42.2803 44.0649 41.4564 43.8589 40.4264C43.55 39.3965 43.241 38.5725 42.829 38.0576C42.417 37.4396 41.9021 37.2336 41.3871 37.4396C40.8721 37.5426 40.5632 37.9546 40.4602 38.6755C40.3572 39.3965 40.4602 40.2204 40.6661 41.2504C40.9751 42.2803 41.2841 43.1043 41.6961 43.6192C42.1081 44.1342 42.623 44.3402 43.138 44.2372C43.653 44.1342 43.962 43.7222 44.0649 43.0013Z" fill="#2996D3"/>
<path d="M47.8757 43.1042C47.1548 42.3833 46.6398 41.3533 46.2278 39.8084C45.8159 38.3665 45.8159 37.1306 46.1248 36.2037C46.4338 35.2767 47.0518 34.6588 47.8757 34.4528C48.4937 34.3498 49.0087 34.3498 49.5236 34.6588C50.0386 34.9677 50.5535 35.3797 50.9655 35.9977C51.3775 36.6156 51.6865 37.4396 51.8925 38.3665C52.0985 39.2935 52.2015 40.2204 52.2015 40.9414C52.2015 41.6623 51.9955 42.2803 51.5835 42.7952C51.2745 43.3102 50.7595 43.6192 50.1416 43.7222C49.4206 44.0312 48.5967 43.8252 47.8757 43.1042ZM50.9655 41.2503C51.0685 40.5294 50.9655 39.7054 50.7596 38.6755C50.4506 37.6456 50.1416 36.8216 49.7296 36.3067C49.3176 35.6887 48.8027 35.4827 48.2877 35.6887C47.7727 35.7917 47.4637 36.2037 47.3607 36.9246C47.2578 37.6456 47.3608 38.4695 47.5667 39.4995C47.8757 40.5294 48.1847 41.3533 48.5967 41.8683C49.0087 42.3833 49.5236 42.5893 50.0386 42.4863C50.5536 42.3833 50.8625 41.9713 50.9655 41.2503Z" fill="#2996D3"/>
<g opacity="0.3">
<g opacity="0.3">
<path opacity="0.3" d="M65.2816 55.5665C64.9726 56.3904 64.8696 57.4204 64.1487 57.9353C63.5307 58.3473 62.7068 58.2443 61.9858 58.5533C61.2649 58.7593 60.7499 59.2743 60.4409 59.8922H71.2552V52.2707C68.6804 51.6527 66.1056 53.1976 65.2816 55.5665Z" fill="black"/>
</g>
</g>
<g opacity="0.3">
<g opacity="0.3">
<path opacity="0.3" d="M67.9594 45.7822C67.7534 45.4732 67.4444 45.3702 67.0325 45.4732C66.9295 45.4732 66.8265 45.5762 66.7235 45.5762H66.8265C66.5175 45.7822 66.4145 46.1941 66.5175 46.5031C66.7235 46.9151 67.2385 47.1211 67.6504 46.9151C68.0624 46.7091 68.2684 46.0912 67.9594 45.7822Z" fill="black"/>
</g>
</g>
<g opacity="0.3">
<g opacity="0.3">
<path opacity="0.3" d="M23.9812 57.3174C22.3333 57.7294 20.7884 58.5533 19.6555 59.7892H32.4266C32.0147 59.3773 31.4997 59.0683 31.0877 58.6563C29.1309 57.2144 26.453 56.6994 23.9812 57.3174Z" fill="black"/>
</g>
</g>
<g opacity="0.3">
<g opacity="0.3">
<path opacity="0.3" d="M47.9787 58.1414C46.2278 57.7294 44.3739 58.3474 42.726 59.1713C42.314 59.3773 41.9021 59.5833 41.4901 59.7893H50.7595C50.0386 58.9653 49.0086 58.3474 47.9787 58.1414Z" fill="black"/>
</g>
</g>
<path d="M65.5905 5.5116H37.2673V16.5319H65.5905V5.5116Z" fill="#FAFAFA"/>
<path d="M65.4876 16.532C65.4876 16.532 65.4876 16.429 65.4876 16.326C65.4876 16.223 65.4876 16.017 65.4876 15.708C65.4876 15.193 65.4876 14.4721 65.4876 13.5451C65.4876 11.6913 65.4876 8.91044 65.4876 5.51165L65.5906 5.61464C58.484 5.61464 48.4937 5.61464 37.2674 5.61464L37.3704 5.51165C37.3704 9.32241 37.3704 13.0302 37.3704 16.532L37.2674 16.429C45.4039 16.429 52.5104 16.429 57.5571 16.429C60.0289 16.429 62.0888 16.429 63.4277 16.429C64.1487 16.429 64.6636 16.429 64.9726 16.429C65.1786 16.429 65.2816 16.429 65.3846 16.429C65.4876 16.532 65.4876 16.532 65.4876 16.532C65.4876 16.532 65.4876 16.532 65.3846 16.532C65.2816 16.532 65.1786 16.532 64.9726 16.532C64.5606 16.532 64.0457 16.532 63.4277 16.532C62.0888 16.532 60.0289 16.532 57.5571 16.532C52.5104 16.532 45.4039 16.532 37.2674 16.532H37.1644V16.429C37.1644 13.0302 37.1644 9.32241 37.1644 5.40866V5.30566H37.2674C48.3907 5.30566 58.484 5.30566 65.5906 5.30566H65.6936V5.40866C65.6936 8.80744 65.6936 11.5883 65.6936 13.4422C65.6936 14.3691 65.6936 15.09 65.6936 15.605C65.6936 15.811 65.6936 16.017 65.6936 16.12C65.4876 16.429 65.4876 16.532 65.4876 16.532Z" fill="#0A100C"/>
<path d="M65.5905 5.5116H37.2673V7.88045H65.5905V5.5116Z" fill="#0A100C"/>
<path d="M43.3439 9.73431H40.5631V12.5151H43.3439V9.73431Z" fill="#0A100C"/>
<path d="M45.0948 11.3823H42.314V14.1631H45.0948V11.3823Z" fill="#0A100C"/>
<path d="M50.0385 9.73431H47.2577V12.5151H50.0385V9.73431Z" fill="#0A100C"/>
<path d="M51.6864 11.3823H48.9056V14.1631H51.6864V11.3823Z" fill="#F5F5F5"/>
<path d="M51.6864 14.163C51.6864 14.163 51.6864 14.06 51.6864 13.957C51.6864 13.751 51.6864 13.6481 51.6864 13.3391C51.6864 12.8241 51.6864 12.2061 51.6864 11.3822L51.7894 11.4852C50.9655 11.4852 50.0385 11.4852 49.0086 11.4852L49.1116 11.3822V11.4852V11.6912C49.1116 11.7942 49.1116 11.8972 49.1116 12.1032C49.1116 12.3091 49.1116 12.6181 49.1116 12.8241C49.1116 13.3391 49.1116 13.751 49.1116 14.163L49.0086 14.06C49.8325 14.06 50.5535 14.06 50.9655 14.06C51.1714 14.06 51.3774 14.06 51.5834 14.06C51.5834 14.163 51.6864 14.163 51.6864 14.163C51.6864 14.163 51.5834 14.163 51.4804 14.163C51.3774 14.163 51.1714 14.163 50.9655 14.163C50.4505 14.163 49.7295 14.163 48.9056 14.163H48.8026V14.06C48.8026 13.6481 48.8026 13.2361 48.8026 12.7211C48.8026 12.5151 48.8026 12.2061 48.8026 12.0002C48.8026 11.8972 48.8026 11.7942 48.8026 11.5882V11.3822V11.2792C48.6996 11.3822 48.9056 11.1762 48.9056 11.1762C49.9355 11.1762 50.8625 11.1762 51.6864 11.1762H51.7894V11.2792C51.7894 12.1032 51.7894 12.8241 51.7894 13.3391C51.7894 13.5451 51.7894 13.751 51.7894 13.854C51.6864 14.06 51.6864 14.163 51.6864 14.163Z" fill="#0A100C"/>
<path d="M56.2182 9.73431H53.4373V12.5151H56.2182V9.73431Z" fill="#F5F5F5"/>
<path d="M56.1152 12.5151C56.1152 12.5151 56.1152 12.4121 56.1152 12.3091C56.1152 12.1032 56.1152 12.0002 56.1152 11.6912C56.1152 11.1762 56.1152 10.5583 56.1152 9.73431L56.2182 9.8373C55.3942 9.8373 54.4673 9.8373 53.4374 9.8373L53.5403 9.73431V9.8373V10.0433C53.5403 10.1463 53.5403 10.2493 53.5403 10.4553C53.5403 10.6612 53.5403 10.9702 53.5403 11.1762C53.5403 11.6912 53.5403 12.1032 53.5403 12.5151L53.4374 12.4121C54.2613 12.4121 54.9822 12.4121 55.3942 12.4121C55.6002 12.4121 55.8062 12.4121 56.0122 12.4121C56.1152 12.5151 56.1152 12.5151 56.1152 12.5151C56.1152 12.5151 56.0122 12.5151 55.9092 12.5151C55.8062 12.5151 55.6002 12.5151 55.3942 12.5151C54.8793 12.5151 54.1583 12.5151 53.3344 12.5151H53.2314V12.4121C53.2314 12.0002 53.2314 11.5882 53.2314 11.0732C53.2314 10.8672 53.2314 10.5583 53.2314 10.3523C53.2314 10.2493 53.2314 10.1463 53.2314 9.94029V9.73431V9.63131C53.1284 9.73431 53.3344 9.52832 53.3344 9.52832C54.3643 9.52832 55.2912 9.52832 56.1152 9.52832H56.2182V9.63131C56.2182 10.4553 56.2182 11.1762 56.2182 11.6912C56.2182 11.8972 56.2182 12.1032 56.2182 12.2062C56.2182 12.4121 56.2182 12.5151 56.1152 12.5151Z" fill="#0A100C"/>
<path d="M57.866 11.3822H55.0852V14.163H57.866V11.3822Z" fill="#F5F5F5"/>
<path d="M57.866 14.163C57.866 14.163 57.866 14.06 57.866 13.957C57.866 13.751 57.866 13.648 57.866 13.339C57.866 12.824 57.866 12.2061 57.866 11.3821L57.969 11.4851C57.1451 11.4851 56.2181 11.4851 55.1882 11.4851L55.2912 11.3821V11.4851V11.6911C55.2912 11.7941 55.2912 11.8971 55.2912 12.1031C55.2912 12.3091 55.2912 12.6181 55.2912 12.824C55.2912 13.339 55.2912 13.751 55.2912 14.163L55.1882 14.06C56.0121 14.06 56.7331 14.06 57.145 14.06C57.351 14.06 57.557 14.06 57.763 14.06C57.763 14.163 57.866 14.163 57.866 14.163C57.866 14.163 57.763 14.163 57.66 14.163C57.557 14.163 57.351 14.163 57.145 14.163C56.6301 14.163 55.9091 14.163 55.0852 14.163H54.9822V14.06C54.9822 13.648 54.9822 13.236 54.9822 12.7211C54.9822 12.5151 54.9822 12.2061 54.9822 12.0001C54.9822 11.8971 54.9822 11.7941 54.9822 11.5881V11.3821V11.2791C54.8792 11.3821 55.0852 11.1761 55.0852 11.1761C56.1151 11.1761 57.0421 11.1761 57.866 11.1761H57.969V11.2791C57.969 12.1031 57.969 12.824 57.969 13.339C57.969 13.545 57.969 13.751 57.969 13.854C57.866 14.06 57.866 14.163 57.866 14.163Z" fill="#0A100C"/>
<path d="M56.2181 11.3822H55.0852V12.5151H56.2181V11.3822Z" fill="#0A100C"/>
<path d="M61.8828 9.73431H59.102V12.5151H61.8828V9.73431Z" fill="#0A100C"/>
<path d="M63.5307 11.3822H60.7498V14.163H63.5307V11.3822Z" fill="#0A100C"/>
<path d="M61.8828 11.3822H60.7498V12.5151H61.8828V11.3822Z" fill="#FAFAFA"/>
<path d="M85.1593 22.8129H57.9691V33.4212H85.1593V22.8129Z" fill="#FAFAFA"/>
<path d="M85.2623 33.4229H57.9691V22.7116H85.2623V33.4229ZM58.0721 33.3199H85.1593V22.8146H58.0721V33.3199Z" fill="#1C1C1B"/>
<path d="M85.1593 22.8129H57.9691V25.0787H85.1593V22.8129Z" fill="#0A100C"/>
<path d="M62.1918 27.8613H59.5139V30.5391H62.1918V27.8613Z" fill="#F5F5F5"/>
<path d="M62.1918 30.5391C62.1918 30.5391 62.1918 30.4361 62.1918 30.3331C62.1918 30.2301 62.1918 30.0242 62.1918 29.8182C62.1918 29.3032 62.1918 28.6852 62.1918 27.8613L62.2948 27.9643C61.4708 27.9643 60.5439 27.9643 59.6169 27.9643L59.7199 27.8613V27.9643V28.1703C59.7199 28.2733 59.7199 28.3763 59.7199 28.4793C59.7199 28.6852 59.7199 28.9942 59.7199 29.2002C59.7199 29.6122 59.7199 30.0242 59.7199 30.4361L59.6169 30.3331C60.4409 30.3331 61.0589 30.3331 61.5738 30.3331C61.7798 30.3331 61.9858 30.3331 62.0888 30.3331C62.1918 30.5391 62.1918 30.5391 62.1918 30.5391C62.1918 30.5391 61.9858 30.5391 61.4708 30.5391C60.9559 30.5391 60.3379 30.5391 59.5139 30.5391H59.4109V30.4361C59.4109 30.0242 59.4109 29.6122 59.4109 29.2002C59.4109 28.9942 59.4109 28.7882 59.4109 28.4793C59.4109 28.3763 59.4109 28.2733 59.4109 28.1703V27.9643V27.8613C59.308 27.9643 59.5139 27.7583 59.5139 27.7583C60.5439 27.7583 61.3678 27.7583 62.1918 27.7583H62.2948V27.8613C62.2948 28.6852 62.2948 29.4062 62.2948 29.8182C62.2948 30.3331 62.2948 30.5391 62.1918 30.5391Z" fill="#0A100C"/>
<path d="M59.5139 30.5391C59.5139 30.5391 60.0289 29.9212 60.7498 29.0972C61.4708 28.3763 62.0888 27.7583 62.1918 27.8613C62.1918 27.8613 61.6768 28.4793 60.9558 29.3032C60.2349 30.0242 59.6169 30.6421 59.5139 30.5391Z" fill="#D71A22"/>
<path d="M65.6936 27.8613H63.0157V30.5391H65.6936V27.8613Z" fill="#0A100C"/>
<path d="M69.1953 27.8613H66.5175V30.5391H69.1953V27.8613Z" fill="#375A64"/>
<path d="M72.6971 27.8613H70.0193V30.5391H72.6971V27.8613Z" fill="#D71A22"/>
<path d="M76.1989 27.8613H73.5211V30.5391H76.1989V27.8613Z" fill="#D71A22"/>
<g opacity="0.5">
<g opacity="0.5">
<path opacity="0.5" d="M76.1989 27.8613H73.5211V30.5391H76.1989V27.8613Z" fill="white"/>
</g>
</g>
<path d="M79.7007 27.8613H77.0228V30.5391H79.7007V27.8613Z" fill="#D71A22"/>
<g opacity="0.3">
<g opacity="0.3">
<path opacity="0.3" d="M79.7007 27.8613H77.0228V30.5391H79.7007V27.8613Z" fill="black"/>
</g>
</g>
<path d="M83.2025 27.8613H80.5246V30.5391H83.2025V27.8613Z" fill="#D71A22"/>
<g opacity="0.7">
<g opacity="0.7">
<path opacity="0.7" d="M83.2025 27.8613H80.5246V30.5391H83.2025V27.8613Z" fill="black"/>
</g>
</g>
<path d="M78.0528 59.4803C79.3042 59.4803 80.3186 58.4658 80.3186 57.2144C80.3186 55.963 79.3042 54.9485 78.0528 54.9485C76.8014 54.9485 75.7869 55.963 75.7869 57.2144C75.7869 58.4658 76.8014 59.4803 78.0528 59.4803Z" fill="#0A100C"/>
<path d="M78.8767 57.2145C78.8767 57.6264 78.4648 58.0384 78.0528 58.0384C77.6408 58.0384 77.2288 57.6264 77.2288 57.2145C77.2288 56.8025 77.6408 56.3905 78.0528 56.3905C78.4648 56.3905 78.8767 56.8025 78.8767 57.2145Z" fill="#375A64"/>
<path d="M73.3 68.2V74.8L65.9 85.6C64.6 87.5 63.7 89 63 90.3C62.4 91.5 61.9 92.7 61.5 93.8C61.1 94.9 60.9 96.2 60.8 97.6C60.7 99 60.6 100.7 60.6 102.8C60.6 104.6 60.6 106.1 60.6 107.3C60.6 108.4 60.7 109.3 60.7 109.9C60.8 110.5 60.9 111 61 111.3C61.1 111.6 61.3 111.9 61.4 112.2C61.7 112.6 62 112.9 62.4 113.1C62.8 113.3 63.4 113.3 64.2 113.3C65.1 113.3 65.7 113.2 66 113.1C66.4 112.9 66.7 112.6 66.9 112.2C67 111.9 67.2 111.7 67.3 111.4C67.4 111.1 67.5 110.7 67.6 110.1C67.7 109.5 67.7 108.8 67.7 107.9C67.7 107 67.7 105.8 67.7 104.4C67.7 102.9 67.7 101.8 67.7 101.1C67.7 100.5 67.7 99.9 67.6 99.4H73.1C73.2 100.1 73.2 100.8 73.2 101.5C73.2 102.2 73.2 103.2 73.2 104.4C73.2 106 73.2 107.5 73.1 108.7C73.1 109.9 73 111 72.9 111.9C72.8 112.8 72.7 113.6 72.5 114.3C72.3 115 72 115.5 71.7 116C71.3 116.6 70.9 117.1 70.5 117.5C70.1 117.9 69.7 118.2 69.1 118.5C68.5 118.7 67.8 118.9 67 119C66.2 119.1 65.2 119.2 64 119.2C61.5 119.2 59.7 118.9 58.5 118.4C57.4 117.9 56.5 117 55.9 115.6C55.6 115 55.4 114.4 55.2 113.7C55 113.1 54.9 112.3 54.8 111.4C54.7 110.5 54.6 109.3 54.6 108C54.6 106.7 54.5 105 54.5 103C54.5 101.4 54.5 100 54.5 98.9C54.5 97.8 54.6 96.9 54.6 96.2C54.7 95.5 54.8 94.8 54.9 94.2C55 93.6 55.2 93.1 55.4 92.5C55.6 91.8 55.9 91.2 56.1 90.6C56.4 90 56.7 89.4 57.1 88.7C57.5 88 57.9 87.3 58.4 86.4C58.9 85.6 59.5 84.6 60.2 83.5L65.9 74.8C65.8 74.6 65.8 74.5 65.8 74.4H54.7V68.4H73.3V68.2Z" fill="#D71A22"/>
<path d="M34.5 70.1C34.8 69.6 35.1 69.1 35.4 68.8C35.7 68.4 36.1 68.2 36.7 68C37.2 67.8 37.9 67.7 38.8 67.6C39.7 67.5 40.9 67.5 42.3 67.5C43.7 67.5 44.9 67.5 45.8 67.6C46.7 67.7 47.4 67.8 47.9 68C48.4 68.2 48.8 68.5 49.2 68.8C49.5 69.2 49.8 69.6 50.1 70.1C50.5 70.8 50.7 71.6 50.9 72.6C51.1 73.6 51.3 74.9 51.4 76.7C51.5 78.4 51.6 80.6 51.7 83.3C51.7 86 51.8 89.3 51.8 93.4C51.8 97.4 51.8 100.8 51.7 103.5C51.7 106.2 51.6 108.4 51.4 110.1C51.3 111.8 51.1 113.2 50.9 114.1C50.7 115.1 50.4 115.9 50.1 116.5C49.8 117 49.6 117.5 49.2 117.8C48.9 118.2 48.5 118.4 47.9 118.6C47.4 118.8 46.7 118.9 45.8 119C44.9 119.1 43.7 119.1 42.3 119.1C40.9 119.1 39.7 119.1 38.8 119C37.9 118.9 37.2 118.8 36.7 118.6C36.2 118.4 35.8 118.1 35.4 117.8C35.1 117.4 34.8 117 34.5 116.5C34.2 115.8 33.9 115 33.7 114.1C33.5 113.1 33.3 111.8 33.2 110.1C33.1 108.4 33 106.2 32.9 103.5C32.9 100.8 32.8 97.5 32.8 93.4C32.8 89.4 32.8 86 32.9 83.3C32.9 80.6 33 78.4 33.2 76.7C33.3 75 33.5 73.6 33.7 72.6C33.9 71.5 34.1 70.7 34.5 70.1ZM39.3 75.2C39.2 75.6 39.1 76.1 39 76.6C38.9 77.1 38.8 78 38.8 79.2C38.7 80.4 38.7 82.1 38.7 84.3C38.7 86.5 38.7 89.4 38.7 93.1C38.7 97.1 38.7 100.2 38.7 102.4C38.7 104.6 38.8 106.4 38.8 107.6C38.9 108.8 38.9 109.6 39 110.1C39.1 110.6 39.2 111 39.3 111.4C39.6 112.1 39.9 112.6 40.3 112.8C40.7 113 41.3 113.1 42.2 113.1C43.1 113.1 43.8 113 44.1 112.8C44.5 112.6 44.8 112.1 45.1 111.4C45.2 111 45.3 110.6 45.4 110.1C45.5 109.6 45.6 108.8 45.6 107.6C45.7 106.4 45.7 104.7 45.7 102.4C45.7 100.2 45.7 97.1 45.7 93.1C45.7 89.4 45.7 86.5 45.7 84.3C45.7 82.1 45.6 80.4 45.6 79.2C45.5 78 45.5 77.1 45.4 76.6C45.3 76.1 45.2 75.6 45.1 75.2C44.8 74.5 44.5 74 44.1 73.8C43.7 73.6 43.1 73.5 42.2 73.5C41.3 73.5 40.6 73.6 40.3 73.8C39.9 74 39.6 74.5 39.3 75.2Z" fill="black"/>
<path d="M12.4 70.1C12.7 69.6 13 69.1 13.3 68.8C13.6 68.4 14 68.2 14.6 68C15.1 67.8 15.8 67.7 16.7 67.6C17.6 67.5 18.8 67.5 20.2 67.5C21.6 67.5 22.8 67.5 23.7 67.6C24.6 67.7 25.3 67.8 25.8 68C26.3 68.2 26.7 68.5 27.1 68.8C27.4 69.2 27.7 69.6 28 70.1C28.4 70.8 28.6 71.6 28.8 72.6C29 73.6 29.2 74.9 29.3 76.7C29.4 78.4 29.5 80.6 29.6 83.3C29.6 86 29.7 89.3 29.7 93.4C29.7 97.4 29.7 100.8 29.6 103.5C29.6 106.2 29.5 108.4 29.3 110.1C29.2 111.8 29 113.2 28.8 114.1C28.6 115.1 28.3 115.9 28 116.5C27.7 117 27.5 117.5 27.1 117.8C26.8 118.2 26.4 118.4 25.8 118.6C25.3 118.8 24.6 118.9 23.7 119C22.8 119.1 21.6 119.1 20.2 119.1C18.8 119.1 17.6 119.1 16.7 119C15.8 118.9 15.1 118.8 14.6 118.6C14.1 118.4 13.7 118.1 13.3 117.8C13 117.4 12.7 117 12.4 116.5C12.1 115.8 11.8 115 11.6 114.1C11.4 113.1 11.2 111.8 11.1 110.1C11 108.4 10.9 106.2 10.8 103.5C10.8 100.8 10.7 97.5 10.7 93.4C10.7 89.4 10.7 86 10.8 83.3C10.8 80.6 10.9 78.4 11.1 76.7C11.2 75 11.4 73.6 11.6 72.6C11.8 71.5 12.1 70.7 12.4 70.1ZM17.3 75.2C17.2 75.6 17.1 76.1 17 76.6C16.9 77.1 16.8 78 16.8 79.2C16.7 80.4 16.7 82.1 16.7 84.3C16.7 86.5 16.7 89.4 16.7 93.1C16.7 97.1 16.7 100.2 16.7 102.4C16.7 104.6 16.8 106.4 16.8 107.6C16.9 108.8 16.9 109.6 17 110.1C17.1 110.6 17.2 111 17.3 111.4C17.6 112.1 17.9 112.6 18.3 112.8C18.7 113 19.3 113.1 20.2 113.1C21.1 113.1 21.8 113 22.1 112.8C22.5 112.6 22.8 112.1 23.1 111.4C23.2 111 23.3 110.6 23.4 110.1C23.5 109.6 23.6 108.8 23.6 107.6C23.7 106.4 23.7 104.7 23.7 102.4C23.7 100.2 23.7 97.1 23.7 93.1C23.7 89.4 23.7 86.5 23.7 84.3C23.7 82.1 23.6 80.4 23.6 79.2C23.5 78 23.5 77.1 23.4 76.6C23.3 76.1 23.2 75.6 23.1 75.2C22.8 74.5 22.5 74 22.1 73.8C21.7 73.6 21.1 73.5 20.2 73.5C19.3 73.5 18.6 73.6 18.3 73.8C17.9 74 17.6 74.5 17.3 75.2Z" fill="#2B9EE7"/>
</svg>
