<svg width="93" height="129" viewBox="0 0 93 129" fill="none" xmlns="http://www.w3.org/2000/svg">
<path d="M88.7301 129H4.26988C1.87458 129 0 127.044 0 124.779V4.22104C0 1.85313 1.97872 0 4.26988 0H88.7301C91.1254 0 93 1.95608 93 4.22104V124.779C93 127.147 91.1254 129 88.7301 129Z" fill="#C8E1FF"/>
<path d="M86.9 126.8H5.80002C3.50002 126.8 1.70001 124.9 1.70001 122.7V5.60001C1.70001 3.30001 3.60002 1.5 5.80002 1.5H86.9C89.2 1.5 91 3.40001 91 5.60001V122.7C91 124.9 89.2 126.8 86.9 126.8Z" fill="#EEF5FF"/>
<path d="M17.0078 45.0672C15.9903 42.0322 16.0479 39.053 17.1781 36.2046L14.2014 35.1187L14.1618 35.1037L14.123 35.0862C13.8991 34.9837 13.6036 34.8515 13.3004 34.7443C13.2357 34.721 13.17 34.6995 13.1043 34.678C11.6749 38.4571 11.5921 42.6154 12.8818 46.4533C14.3719 50.8923 17.5024 54.4834 21.6947 56.5669C25.6477 58.5314 30.0991 58.9319 34.3149 57.7208L32.9262 53.5882C29.8198 54.4305 26.5519 54.1136 23.6424 52.6677C20.4831 51.0971 18.1271 48.3982 17.0078 45.0672Z" fill="#2B9EE7"/>
<path d="M37.1143 25.2368C32.9211 23.1529 28.1694 22.8274 23.7318 24.3182C23.2096 24.4933 22.7007 24.6925 22.2029 24.9132L23.6004 29.073C24.0934 28.8359 24.596 28.62 25.1188 28.4447C28.4494 27.3263 32.0177 27.5716 35.1675 29.1364C38.3268 30.707 40.6829 33.4059 41.8031 36.7362C42.8836 39.954 42.6867 43.3989 41.2541 46.4765C42.6503 46.9061 44.0481 47.3418 45.4452 47.7777C47.1266 43.8249 47.3012 39.4345 45.9289 35.3494C44.4374 30.9121 41.308 27.3209 37.1162 25.2377L37.1143 25.2368Z" fill="#2B9EE7"/>
<path d="M20.7621 20.6267L13.6812 30.8017L25.4555 34.5925L23.6004 29.073L22.2029 24.9132L20.7621 20.6267Z" fill="#A8C909"/>
<path d="M32.9262 53.5882L34.3149 57.7208L35.7369 61.9528L42.8323 51.8208L31.0438 47.9865L32.9262 53.5882Z" fill="#A8C909"/>
<path d="M75.7709 93.0672C76.7884 90.0322 76.7307 87.053 75.6005 84.2046L78.5773 83.1187L78.6168 83.1037L78.6557 83.0862C78.8796 82.9837 79.175 82.8515 79.4782 82.7443C79.543 82.721 79.6086 82.6995 79.6743 82.678C81.1037 86.4571 81.1865 90.6154 79.8969 94.4533C78.4068 98.8923 75.2762 102.483 71.0839 104.567C67.1309 106.531 62.6796 106.932 58.4638 105.721L59.8525 101.588C62.9588 102.43 66.2268 102.114 69.1362 100.668C72.2955 99.0971 74.6515 96.3982 75.7709 93.0672Z" fill="#2B9EE7"/>
<path d="M55.6643 73.2368C59.8575 71.1529 64.6092 70.8274 69.0468 72.3182C69.569 72.4933 70.0779 72.6925 70.5757 72.9132L69.1783 77.073C68.6852 76.8359 68.1827 76.62 67.6598 76.4447C64.3293 75.3263 60.7609 75.5716 57.6111 77.1364C54.4518 78.707 52.0958 81.4059 50.9755 84.7362C49.895 87.954 50.0919 91.3989 51.5245 94.4765C50.1283 94.9061 48.7305 95.3418 47.3334 95.7777C45.652 91.8249 45.4774 87.4345 46.8497 83.3494C48.3412 78.9121 51.4706 75.3209 55.6624 73.2377L55.6643 73.2368Z" fill="#2B9EE7"/>
<path d="M72.0165 68.6267L79.0974 78.8017L67.3231 82.5925L69.1783 77.073L70.5757 72.9132L72.0165 68.6267Z" fill="#A8C909"/>
<path d="M59.8525 101.588L58.4638 105.721L57.0417 109.953L49.9463 99.8208L61.7348 95.9865L59.8525 101.588Z" fill="#A8C909"/>
<path d="M44.36 12V10.16H45.008L45.944 12H46.56L45.576 10.08C46.048 9.928 46.28 9.56 46.28 9.04V7.92C46.28 7.232 45.856 6.8 45.008 6.8H43.8V12H44.36ZM45.72 9.04C45.72 9.44 45.488 9.68 45.008 9.68H44.36V7.28H45.008C45.48 7.28 45.72 7.528 45.72 7.92V9.04ZM50.0428 12V11.52H48.2428V9.6H49.6428V9.12H48.2428V7.28H49.9628V6.8H47.6828V12H50.0428ZM52.5333 12C53.3973 12 53.8053 11.576 53.8053 10.88V7.92C53.8053 7.232 53.3813 6.8 52.5333 6.8H51.2453V12H52.5333ZM53.2453 10.88C53.2453 11.2 53.0133 11.52 52.5333 11.52H51.8053V7.28H52.5333C53.0053 7.28 53.2453 7.608 53.2453 7.92V10.88ZM57.6444 12V11.52H55.8444V9.6H57.2444V9.12H55.8444V7.28H57.5644V6.8H55.2844V12H57.6444ZM57.2124 5.656L56.7804 5.224L55.7964 6.208L56.0044 6.416L56.9084 5.96L57.2124 5.656ZM59.4069 12V7.696L60.3429 11.2H60.8629L61.7989 7.696V12H62.3589V6.8H61.5189L60.5989 10.232L59.6869 6.8H58.8469V12H59.4069ZM64.6523 6.8L63.4763 12H64.0363L64.3083 10.8H65.8363L66.1083 12H66.6683L65.4923 6.8H64.6523ZM65.0683 7.424L65.7243 10.32H64.4123L65.0683 7.424ZM68.3444 12V10.16H68.9924L69.9284 12H70.5444L69.5604 10.08C70.0324 9.928 70.2644 9.56 70.2644 9.04V7.92C70.2644 7.232 69.8404 6.8 68.9924 6.8H67.7844V12H68.3444ZM69.7044 9.04C69.7044 9.44 69.4724 9.68 68.9924 9.68H68.3444V7.28H68.9924C69.4644 7.28 69.7044 7.528 69.7044 7.92V9.04ZM72.2272 12V10.16H72.8752L73.8112 12H74.4272L73.4432 10.08C73.9152 9.928 74.1472 9.56 74.1472 9.04V7.92C74.1472 7.232 73.7232 6.8 72.8752 6.8H71.6672V12H72.2272ZM73.5872 9.04C73.5872 9.44 73.3552 9.68 72.8752 9.68H72.2272V7.28H72.8752C73.3472 7.28 73.5872 7.528 73.5872 7.92V9.04ZM76.246 6.8L75.07 12H75.63L75.902 10.8H77.43L77.702 12H78.262L77.086 6.8H76.246ZM76.662 7.424L77.318 10.32H76.006L76.662 7.424ZM80.4421 9.84H81.3381V10.84C81.3381 11.16 80.8981 11.64 80.4101 11.64C79.9301 11.64 79.8181 11.36 79.8181 11V7.8C79.8181 7.4 80.0581 7.16 80.5701 7.16C81.0901 7.16 81.3381 7.4 81.3381 7.8V8.24H81.8981V7.8C81.8981 7.104 81.4661 6.68 80.5701 6.68C79.6741 6.68 79.2581 7.104 79.2581 7.8V11C79.2581 11.632 79.5541 12.12 80.4181 12.12C80.8581 12.12 81.2341 11.856 81.4501 11.488L81.6581 12H81.8981V9.36H80.4421V9.84ZM85.7381 12V11.52H83.9381V9.6H85.3381V9.12H83.9381V7.28H85.6581V6.8H83.3781V12H85.7381Z" fill="#2B9EE7"/>
<path d="M45.64 117L45.64 118.84L44.992 118.84L44.056 117L43.44 117L44.424 118.92C43.952 119.072 43.72 119.44 43.72 119.96L43.72 121.08C43.72 121.768 44.144 122.2 44.992 122.2L46.2 122.2L46.2 117L45.64 117ZM44.28 119.96C44.28 119.56 44.512 119.32 44.992 119.32L45.64 119.32L45.64 121.72L44.992 121.72C44.52 121.72 44.28 121.472 44.28 121.08L44.28 119.96ZM39.9572 117L39.9572 117.48L41.7572 117.48L41.7572 119.4L40.3572 119.4L40.3572 119.88L41.7572 119.88L41.7572 121.72L40.0372 121.72L40.0372 122.2L42.3172 122.2L42.3172 117L39.9572 117ZM37.4667 117C36.6027 117 36.1947 117.424 36.1947 118.12L36.1947 121.08C36.1947 121.768 36.6187 122.2 37.4667 122.2L38.7547 122.2L38.7547 117L37.4667 117ZM36.7547 118.12C36.7547 117.8 36.9867 117.48 37.4667 117.48L38.1947 117.48L38.1947 121.72L37.4667 121.72C36.9947 121.72 36.7547 121.392 36.7547 121.08L36.7547 118.12ZM32.3556 117L32.3556 117.48L34.1556 117.48L34.1556 119.4L32.7556 119.4L32.7556 119.88L34.1556 119.88L34.1556 121.72L32.4356 121.72L32.4356 122.2L34.7156 122.2L34.7156 117L32.3556 117ZM32.7876 123.344L33.2196 123.776L34.2036 122.792L33.9956 122.584L33.0916 123.04L32.7876 123.344ZM30.5931 117L30.5931 121.304L29.6571 117.8L29.1371 117.8L28.2011 121.304L28.2011 117L27.6411 117L27.6411 122.2L28.4811 122.2L29.4011 118.768L30.3131 122.2L31.1531 122.2L31.1531 117L30.5931 117ZM25.3477 122.2L26.5237 117L25.9637 117L25.6917 118.2L24.1637 118.2L23.8917 117L23.3317 117L24.5077 122.2L25.3477 122.2ZM24.9317 121.576L24.2757 118.68L25.5877 118.68L24.9317 121.576ZM21.6556 117L21.6556 118.84L21.0076 118.84L20.0716 117L19.4556 117L20.4396 118.92C19.9676 119.072 19.7356 119.44 19.7356 119.96L19.7356 121.08C19.7356 121.768 20.1596 122.2 21.0076 122.2L22.2156 122.2L22.2156 117L21.6556 117ZM20.2956 119.96C20.2956 119.56 20.5276 119.32 21.0076 119.32L21.6556 119.32L21.6556 121.72L21.0076 121.72C20.5356 121.72 20.2956 121.472 20.2956 121.08L20.2956 119.96ZM17.7728 117L17.7728 118.84L17.1248 118.84L16.1888 117L15.5728 117L16.5568 118.92C16.0848 119.072 15.8528 119.44 15.8528 119.96L15.8528 121.08C15.8528 121.768 16.2768 122.2 17.1248 122.2L18.3328 122.2L18.3328 117L17.7728 117ZM16.4128 119.96C16.4128 119.56 16.6448 119.32 17.1248 119.32L17.7728 119.32L17.7728 121.72L17.1248 121.72C16.6528 121.72 16.4128 121.472 16.4128 121.08L16.4128 119.96ZM13.754 122.2L14.93 117L14.37 117L14.098 118.2L12.57 118.2L12.298 117L11.738 117L12.914 122.2L13.754 122.2ZM13.338 121.576L12.682 118.68L13.994 118.68L13.338 121.576ZM9.55787 119.16L8.66187 119.16L8.66187 118.16C8.66187 117.84 9.10187 117.36 9.58987 117.36C10.0699 117.36 10.1819 117.64 10.1819 118L10.1819 121.2C10.1819 121.6 9.94187 121.84 9.42987 121.84C8.90987 121.84 8.66187 121.6 8.66187 121.2L8.66187 120.76L8.10187 120.76L8.10187 121.2C8.10187 121.896 8.53387 122.32 9.42987 122.32C10.3259 122.32 10.7419 121.896 10.7419 121.2L10.7419 118C10.7419 117.368 10.4459 116.88 9.58187 116.88C9.14187 116.88 8.76587 117.144 8.54987 117.512L8.34187 117L8.10187 117L8.10187 119.64L9.55787 119.64L9.55787 119.16ZM4.26187 117L4.26187 117.48L6.06187 117.48L6.06187 119.4L4.66187 119.4L4.66187 119.88L6.06187 119.88L6.06187 121.72L4.34187 121.72L4.34187 122.2L6.62187 122.2L6.62187 117L4.26187 117Z" fill="#2B9EE7"/>
<path d="M7.02 10V8.62H7.506L8.208 10H8.67L7.932 8.56C8.286 8.446 8.46 8.17 8.46 7.78V6.94C8.46 6.424 8.142 6.1 7.506 6.1H6.6V10H7.02ZM8.04 7.78C8.04 8.08 7.866 8.26 7.506 8.26H7.02V6.46H7.506C7.86 6.46 8.04 6.646 8.04 6.94V7.78Z" fill="#2B9EE7"/>
<path d="M85.98 120L85.98 121.38L85.494 121.38L84.792 120L84.33 120L85.068 121.44C84.714 121.554 84.54 121.83 84.54 122.22L84.54 123.06C84.54 123.576 84.858 123.9 85.494 123.9L86.4 123.9L86.4 120L85.98 120ZM84.96 122.22C84.96 121.92 85.134 121.74 85.494 121.74L85.98 121.74L85.98 123.54L85.494 123.54C85.14 123.54 84.96 123.354 84.96 123.06L84.96 122.22Z" fill="#2B9EE7"/>
</svg>
