<svg width="93" height="129" viewBox="0 0 93 129" fill="none" xmlns="http://www.w3.org/2000/svg">
<path d="M88.7301 129H4.26988C1.87458 129 0 127.044 0 124.779V4.22104C0 1.85313 1.97872 0 4.26988 0H88.7301C91.1254 0 93 1.95608 93 4.22104V124.779C93 127.147 91.1254 129 88.7301 129Z" fill="#C8E1FF"/>
<path d="M87.9 127H6.79999C4.49999 127 2.70001 125.1 2.70001 122.9V5.79999C2.70001 3.49999 4.59999 1.70001 6.79999 1.70001H87.9C90.2 1.70001 92 3.59999 92 5.79999V122.9C92.1 125.2 90.2 127 87.9 127Z" fill="#EEF5FF"/>
<path d="M60 82.9802L75.9355 121H86L78.0323 81L60 82.9802Z" fill="#228845"/>
<path d="M36 48.9208L20.0645 9H10L17.9677 51L36 48.9208Z" fill="#248747"/>
<path d="M16.4944 23C16.4944 23.4 16.2544 23.64 15.7424 23.64C15.2224 23.64 14.9744 23.4 14.9744 23V19.8C14.9744 19.4 15.2144 19.16 15.7264 19.16C16.2464 19.16 16.4944 19.4 16.4944 19.8V20.56H17.0544V19.8C17.0544 19.104 16.6224 18.68 15.7264 18.68C14.8304 18.68 14.4144 19.104 14.4144 19.8V23C14.4144 23.696 14.8464 24.12 15.7424 24.12C16.6384 24.12 17.0544 23.696 17.0544 23V22.56H16.4944V23ZM21.0563 19.8C21.0563 19.104 20.6083 18.68 19.6883 18.68C18.7683 18.68 18.3363 19.104 18.3363 19.8V23C18.3363 23.696 18.7843 24.12 19.7043 24.12C20.6243 24.12 21.0563 23.696 21.0563 23V19.8ZM20.4963 23C20.4963 23.408 20.2403 23.64 19.7043 23.64C19.1603 23.64 18.8963 23.4 18.8963 23V19.8C18.8963 19.4 19.1523 19.16 19.6883 19.16C20.2323 19.16 20.4963 19.4 20.4963 19.8V23ZM22.5344 24H24.5584V23.52H23.0944V18.8H22.5344V24ZM25.5188 24H27.5428V23.52H26.0788V18.8H25.5188V24ZM29.1991 18.8L28.0231 24H28.5831L28.8551 22.8H30.3831L30.6551 24H31.2151L30.0391 18.8H29.1991ZM29.6151 19.424L30.2711 22.32H28.9591L29.6151 19.424ZM32.3313 18.8V24H33.6193C34.4833 24 34.8913 23.576 34.8913 22.88V22.16C34.8913 21.672 34.6753 21.392 34.2433 21.272C34.6273 21.144 34.8113 20.872 34.8113 20.4V19.92C34.8113 19.232 34.3873 18.8 33.5393 18.8H32.3313ZM34.3313 22.88C34.3313 23.2 34.0993 23.52 33.6193 23.52H32.8913V21.48H33.6193C34.0913 21.48 34.3313 21.848 34.3313 22.16V22.88ZM34.2513 20.4C34.2513 20.72 34.0193 21.08 33.5393 21.08H32.8913V19.28H33.5393C34.0113 19.28 34.2513 19.608 34.2513 19.92V20.4ZM38.9703 19.8C38.9703 19.104 38.5223 18.68 37.6023 18.68C36.6823 18.68 36.2503 19.104 36.2503 19.8V23C36.2503 23.696 36.6983 24.12 37.6183 24.12C38.5383 24.12 38.9703 23.696 38.9703 23V19.8ZM38.4103 23C38.4103 23.408 38.1543 23.64 37.6183 23.64C37.0743 23.64 36.8103 23.4 36.8103 23V19.8C36.8103 19.4 37.0663 19.16 37.6023 19.16C38.1463 19.16 38.4103 19.4 38.4103 19.8V23ZM41.0084 24V22.16H41.6564L42.5924 24H43.2084L42.2244 22.08C42.6964 21.928 42.9284 21.56 42.9284 21.04V19.92C42.9284 19.232 42.5044 18.8 41.6564 18.8H40.4484V24H41.0084ZM42.3684 21.04C42.3684 21.44 42.1364 21.68 41.6564 21.68H41.0084V19.28H41.6564C42.1284 19.28 42.3684 19.528 42.3684 19.92V21.04ZM45.0273 18.8L43.8513 24H44.4113L44.6833 22.8H46.2113L46.4833 24H47.0433L45.8673 18.8H45.0273ZM45.4433 19.424L46.0993 22.32H44.7873L45.4433 19.424ZM49.7628 18.8H47.1228V19.28H48.1628V24H48.7228V19.28H49.7628V18.8ZM53.16 24V23.52H51.36V21.6H52.76V21.12H51.36V19.28H53.08V18.8H50.8V24H53.16ZM56.4425 23C56.4425 23.4 56.1865 23.64 55.6505 23.64C55.1065 23.64 54.8425 23.4 54.8425 23V18.8H54.2825V23C54.2825 23.696 54.7305 24.12 55.6505 24.12C56.5705 24.12 57.0025 23.696 57.0025 23V18.8H56.4425V23ZM59.0788 24V22.16H59.7268L60.6628 24H61.2788L60.2948 22.08C60.7668 21.928 60.9988 21.56 60.9988 21.04V19.92C60.9988 19.232 60.5748 18.8 59.7268 18.8H58.5188V24H59.0788ZM60.4388 21.04C60.4388 21.44 60.2068 21.68 59.7268 21.68H59.0788V19.28H59.7268C60.1988 19.28 60.4388 19.528 60.4388 19.92V21.04ZM66.6053 24V23.52H64.8053V21.6H66.2053V21.12H64.8053V19.28H66.5253V18.8H64.2453V24H66.6053ZM68.3678 24V20L70.1038 24H70.6638V18.8H70.1038V22.8L68.3678 18.8H67.8078V24H68.3678ZM76.7047 19.8C76.7047 19.104 76.2567 18.68 75.3367 18.68C74.4167 18.68 73.9847 19.104 73.9847 19.8V23C73.9847 23.696 74.4327 24.12 75.3527 24.12C76.2727 24.12 76.7047 23.696 76.7047 23V19.8ZM76.1447 23C76.1447 23.408 75.8887 23.64 75.3527 23.64C74.8087 23.64 74.5447 23.4 74.5447 23V19.8C74.5447 19.4 74.8007 19.16 75.3367 19.16C75.8807 19.16 76.1447 19.4 76.1447 19.8V23ZM78.7428 24V22.16H79.3908L80.3268 24H80.9428L79.9588 22.08C80.4308 21.928 80.6628 21.56 80.6628 21.04V19.92C80.6628 19.232 80.2388 18.8 79.3908 18.8H78.1828V24H78.7428ZM80.1028 21.04C80.1028 21.44 79.8708 21.68 79.3908 21.68H78.7428V19.28H79.3908C79.8628 19.28 80.1028 19.528 80.1028 19.92V21.04Z" fill="black"/>
<path d="M78.5056 103C78.5056 102.6 78.7456 102.36 79.2576 102.36C79.7776 102.36 80.0256 102.6 80.0256 103L80.0256 106.2C80.0256 106.6 79.7856 106.84 79.2736 106.84C78.7536 106.84 78.5056 106.6 78.5056 106.2L78.5056 105.44L77.9456 105.44L77.9456 106.2C77.9456 106.896 78.3776 107.32 79.2736 107.32C80.1696 107.32 80.5856 106.896 80.5856 106.2L80.5856 103C80.5856 102.304 80.1536 101.88 79.2576 101.88C78.3616 101.88 77.9456 102.304 77.9456 103L77.9456 103.44L78.5056 103.44L78.5056 103ZM73.9437 106.2C73.9437 106.896 74.3917 107.32 75.3117 107.32C76.2317 107.32 76.6637 106.896 76.6637 106.2L76.6637 103C76.6637 102.304 76.2157 101.88 75.2957 101.88C74.3757 101.88 73.9437 102.304 73.9437 103L73.9437 106.2ZM74.5037 103C74.5037 102.592 74.7597 102.36 75.2957 102.36C75.8397 102.36 76.1037 102.6 76.1037 103L76.1037 106.2C76.1037 106.6 75.8477 106.84 75.3117 106.84C74.7677 106.84 74.5037 106.6 74.5037 106.2L74.5037 103ZM72.4656 102L70.4416 102L70.4416 102.48L71.9056 102.48L71.9056 107.2L72.4656 107.2L72.4656 102ZM69.4812 102L67.4572 102L67.4572 102.48L68.9212 102.48L68.9212 107.2L69.4812 107.2L69.4812 102ZM65.8009 107.2L66.9769 102L66.4169 102L66.1449 103.2L64.6169 103.2L64.3449 102L63.7849 102L64.9609 107.2L65.8009 107.2ZM65.3849 106.576L64.7289 103.68L66.0409 103.68L65.3849 106.576ZM62.6687 107.2L62.6687 102L61.3807 102C60.5167 102 60.1087 102.424 60.1087 103.12L60.1087 103.84C60.1087 104.328 60.3247 104.608 60.7567 104.728C60.3727 104.856 60.1887 105.128 60.1887 105.6L60.1887 106.08C60.1887 106.768 60.6127 107.2 61.4607 107.2L62.6687 107.2ZM60.6687 103.12C60.6687 102.8 60.9007 102.48 61.3807 102.48L62.1087 102.48L62.1087 104.52L61.3807 104.52C60.9087 104.52 60.6687 104.152 60.6687 103.84L60.6687 103.12ZM60.7487 105.6C60.7487 105.28 60.9807 104.92 61.4607 104.92L62.1087 104.92L62.1087 106.72L61.4607 106.72C60.9887 106.72 60.7487 106.392 60.7487 106.08L60.7487 105.6ZM56.0297 106.2C56.0297 106.896 56.4777 107.32 57.3977 107.32C58.3177 107.32 58.7497 106.896 58.7497 106.2L58.7497 103C58.7497 102.304 58.3017 101.88 57.3817 101.88C56.4617 101.88 56.0297 102.304 56.0297 103L56.0297 106.2ZM56.5897 103C56.5897 102.592 56.8457 102.36 57.3817 102.36C57.9257 102.36 58.1897 102.6 58.1897 103L58.1897 106.2C58.1897 106.6 57.9337 106.84 57.3977 106.84C56.8537 106.84 56.5897 106.6 56.5897 106.2L56.5897 103ZM53.9916 102L53.9916 103.84L53.3436 103.84L52.4076 102L51.7916 102L52.7756 103.92C52.3036 104.072 52.0716 104.44 52.0716 104.96L52.0716 106.08C52.0716 106.768 52.4956 107.2 53.3436 107.2L54.5516 107.2L54.5516 102L53.9916 102ZM52.6316 104.96C52.6316 104.56 52.8636 104.32 53.3436 104.32L53.9916 104.32L53.9916 106.72L53.3436 106.72C52.8716 106.72 52.6316 106.472 52.6316 106.08L52.6316 104.96ZM49.9727 107.2L51.1487 102L50.5887 102L50.3167 103.2L48.7887 103.2L48.5167 102L47.9567 102L49.1327 107.2L49.9727 107.2ZM49.5567 106.576L48.9007 103.68L50.2127 103.68L49.5567 106.576ZM45.2372 107.2L47.8772 107.2L47.8772 106.72L46.8372 106.72L46.8372 102L46.2772 102L46.2772 106.72L45.2372 106.72L45.2372 107.2ZM41.84 102L41.84 102.48L43.64 102.48L43.64 104.4L42.24 104.4L42.24 104.88L43.64 104.88L43.64 106.72L41.92 106.72L41.92 107.2L44.2 107.2L44.2 102L41.84 102ZM38.5575 103C38.5575 102.6 38.8135 102.36 39.3495 102.36C39.8935 102.36 40.1575 102.6 40.1575 103L40.1575 107.2L40.7175 107.2L40.7175 103C40.7175 102.304 40.2695 101.88 39.3495 101.88C38.4295 101.88 37.9975 102.304 37.9975 103L37.9975 107.2L38.5575 107.2L38.5575 103ZM35.9212 102L35.9212 103.84L35.2732 103.84L34.3372 102L33.7212 102L34.7052 103.92C34.2332 104.072 34.0012 104.44 34.0012 104.96L34.0012 106.08C34.0012 106.768 34.4252 107.2 35.2732 107.2L36.4812 107.2L36.4812 102L35.9212 102ZM34.5612 104.96C34.5612 104.56 34.7932 104.32 35.2732 104.32L35.9212 104.32L35.9212 106.72L35.2732 106.72C34.8012 106.72 34.5612 106.472 34.5612 106.08L34.5612 104.96ZM28.3947 102L28.3947 102.48L30.1947 102.48L30.1947 104.4L28.7947 104.4L28.7947 104.88L30.1947 104.88L30.1947 106.72L28.4747 106.72L28.4747 107.2L30.7547 107.2L30.7547 102L28.3947 102ZM26.6322 102L26.6322 106L24.8962 102L24.3362 102L24.3362 107.2L24.8962 107.2L24.8962 103.2L26.6322 107.2L27.1922 107.2L27.1922 102L26.6322 102ZM18.2953 106.2C18.2953 106.896 18.7433 107.32 19.6633 107.32C20.5833 107.32 21.0153 106.896 21.0153 106.2L21.0153 103C21.0153 102.304 20.5673 101.88 19.6473 101.88C18.7273 101.88 18.2953 102.304 18.2953 103L18.2953 106.2ZM18.8553 103C18.8553 102.592 19.1113 102.36 19.6473 102.36C20.1913 102.36 20.4553 102.6 20.4553 103L20.4553 106.2C20.4553 106.6 20.1993 106.84 19.6633 106.84C19.1193 106.84 18.8553 106.6 18.8553 106.2L18.8553 103ZM16.2572 102L16.2572 103.84L15.6092 103.84L14.6732 102L14.0572 102L15.0412 103.92C14.5692 104.072 14.3372 104.44 14.3372 104.96L14.3372 106.08C14.3372 106.768 14.7612 107.2 15.6092 107.2L16.8172 107.2L16.8172 102L16.2572 102ZM14.8972 104.96C14.8972 104.56 15.1292 104.32 15.6092 104.32L16.2572 104.32L16.2572 106.72L15.6092 106.72C15.1372 106.72 14.8972 106.472 14.8972 106.08L14.8972 104.96Z" fill="black"/>
<path d="M48.0837 76.6113C44.9336 76.6113 41.9884 77.4883 39.479 79.0107V79.8269H56.6894V79.0107C54.1789 77.4883 51.2338 76.6113 48.0837 76.6113Z" fill="#FED100"/>
<path d="M58.9664 79.8269H37.2002V93.4316H58.9664V79.8269Z" fill="#2B9EE7"/>
<path d="M60.4707 93.4316H35.6977V95.4902H60.4707V93.4316Z" fill="#2B9EE7"/>
<path d="M49.8036 63.2477C49.2683 63.4479 48.6893 63.5571 48.0838 63.5571C47.4792 63.5571 46.9002 63.4479 46.3649 63.2486L46.3678 63.242C46.3678 62.235 45.8847 61.1852 44.9175 60.4487L44.8995 60.4392C41.5197 58.168 38.7938 54.9989 37.0635 51.2736L37.0626 51.2745C34.0368 44.8148 32.3464 37.6053 32.3464 30.0009H63.8211C63.8211 37.6053 62.1307 44.8148 59.104 51.2736L59.1031 51.2726C57.3728 54.9979 54.6469 58.167 51.2671 60.4383L51.25 60.4478C50.2829 61.1852 49.7998 62.235 49.7998 63.241L49.8036 63.2477Z" fill="#FED100"/>
<path d="M49.5472 63.335C49.5472 64.2889 49.9667 65.0833 50.6311 65.667H50.633C50.8637 65.8786 51.0079 66.1805 51.0079 66.5183C51.0079 67.159 50.4888 67.6782 49.8481 67.6782C49.8367 67.6782 49.8253 67.6782 49.8149 67.6772H46.3525C46.3411 67.6772 46.3297 67.6782 46.3193 67.6782C45.6786 67.6782 45.1595 67.159 45.1595 66.5183C45.1595 66.1805 45.3037 65.8796 45.5344 65.667H45.5363C46.2006 65.0842 46.6202 64.2889 46.6202 63.335H49.5472Z" fill="#FED100"/>
<path d="M51.0165 77.5993C50.0864 77.8736 49.1031 78.0207 48.0838 78.0207C47.0644 78.0207 46.0811 77.8736 45.151 77.5993L45.1595 77.5718V75.6517C45.8875 73.931 46.2899 72.0384 46.2899 70.0529C46.2899 69.2357 46.2216 68.4346 46.0906 67.6554H50.076C49.945 68.4356 49.8766 69.2366 49.8766 70.0529C49.8766 72.0394 50.2791 73.931 51.007 75.6517V77.5718L51.0165 77.5993Z" fill="#FFDB31"/>
<path d="M36.9657 60.0501C36.1637 60.0501 35.3874 59.7625 34.7799 59.2414C34.2883 58.82 34.2323 58.0797 34.6537 57.5881C35.0751 57.0964 35.8154 57.0404 36.3071 57.4618C36.4361 57.5729 36.6554 57.7058 36.9657 57.7058C37.5248 57.7058 37.9794 57.2511 37.9794 56.6921C37.9794 56.6124 37.9699 56.5326 37.9519 56.4567C37.7934 55.8967 37.4916 55.3852 37.0758 54.9723C36.962 54.8859 36.8794 54.7958 36.8272 54.7369L26.5653 45.1071C23.1655 41.9171 20.6731 36.921 22.7698 32.9527C23.6638 31.2595 25.4501 30.148 27.3569 30.0826C27.3853 30.0807 27.4138 30.0797 27.4423 30.0797H27.5353C27.5628 30.0797 27.5903 30.0807 27.6179 30.0826C30.4557 30.1756 32.7365 32.5133 32.7365 35.3739C32.7365 36.7046 32.241 37.9764 31.3413 38.9549C30.9028 39.4314 30.1615 39.4627 29.685 39.0252C29.2086 38.5867 29.1773 37.8454 29.6148 37.369C30.1159 36.8242 30.3921 36.1152 30.3921 35.3739C30.3921 33.7632 29.0947 32.4506 27.4897 32.425C26.3925 32.4421 25.358 33.0761 24.8436 34.048C23.3326 36.9086 25.5089 40.8997 28.1712 43.3978L38.4654 53.0589C38.4948 53.0864 38.5195 53.112 38.5403 53.1348C38.5669 53.1557 38.5935 53.1784 38.6182 53.2022C39.3841 53.9226 39.9365 54.8366 40.2165 55.8455C40.2193 55.855 40.2212 55.8645 40.2241 55.874C40.2905 56.1407 40.3247 56.4159 40.3247 56.6921C40.3237 58.5438 38.8175 60.0501 36.9657 60.0501ZM36.8557 54.7644C36.8575 54.7663 36.8594 54.7673 36.8604 54.7692L36.8557 54.7644ZM37.8181 52.8833C37.8181 52.8833 37.819 52.8833 37.8181 52.8833C37.819 52.8833 37.8181 52.8833 37.8181 52.8833Z" fill="#FED100"/>
<path d="M55.8438 56.6921C55.8438 56.4159 55.8779 56.1407 55.9444 55.874C55.9472 55.8645 55.9491 55.855 55.952 55.8455C56.2319 54.8366 56.7843 53.9226 57.5503 53.2022C57.5759 53.1784 57.6015 53.1557 57.629 53.1348C57.6499 53.112 57.6746 53.0864 57.704 53.0589L67.9982 43.3978C70.6595 40.8997 72.8368 36.9086 71.3258 34.048C70.8114 33.0751 69.7768 32.4421 68.6797 32.425C67.0747 32.4497 65.7772 33.7632 65.7772 35.3739C65.7772 36.1152 66.0534 36.8232 66.5546 37.369C66.9931 37.8454 66.9617 38.5876 66.4843 39.0252C66.0079 39.4637 65.2657 39.4323 64.8281 38.9549C63.9284 37.9754 63.4329 36.7036 63.4329 35.3739C63.4329 32.5133 65.7137 30.1756 68.5515 30.0826C68.579 30.0807 68.6066 30.0797 68.6341 30.0797H68.7271C68.7556 30.0797 68.7841 30.0807 68.8125 30.0826C70.7184 30.148 72.5056 31.2604 73.3996 32.9527C75.4962 36.921 73.0038 41.9171 69.6041 45.1071L59.3413 54.7369C59.2891 54.7958 59.2065 54.885 59.0926 54.9723C58.6769 55.3852 58.3751 55.8958 58.2166 56.4567C58.1985 56.5326 58.189 56.6124 58.189 56.6921C58.189 57.2511 58.6437 57.7058 59.2027 57.7058C59.5131 57.7058 59.7323 57.5738 59.8614 57.4618C60.353 57.0404 61.0933 57.0964 61.5147 57.5881C61.9362 58.0797 61.8802 58.82 61.3885 59.2414C60.7811 59.7625 60.0047 60.0501 59.2027 60.0501C57.35 60.0501 55.8438 58.5438 55.8438 56.6921ZM59.3071 54.7692C59.309 54.7682 59.3099 54.7663 59.3118 54.7644L59.3071 54.7692Z" fill="#FED100"/>
<path d="M37.2002 93.4316H58.9664V79.8269C58.9673 79.8269 51.6923 93.4316 37.2002 93.4316Z" fill="#2B9EE7"/>
<path d="M56.0212 82.9666H40.1472V90.7399H56.0212V82.9666Z" fill="#FED100"/>
<path d="M23.6591 34.5026C24.6092 32.705 26.5065 31.5233 28.5319 31.454C28.5623 31.4521 28.5917 31.4512 28.623 31.4512H28.7217C28.7511 31.4512 28.7806 31.4521 28.81 31.454C29.4241 31.474 30.0135 31.5945 30.563 31.7976C29.7534 31.0478 28.6818 30.5761 27.503 30.5372C27.4784 30.5353 27.4537 30.5343 27.429 30.5343H27.3455C27.3199 30.5343 27.2942 30.5353 27.2686 30.5372C25.5621 30.596 23.9619 31.5917 23.1608 33.1074C22.299 34.7389 22.3038 36.5641 22.8552 38.338C22.7821 37.0168 23.0184 35.7146 23.6591 34.5026Z" fill="#FFDF5A"/>
<path d="M40.3247 56.3542C41.6535 57.9146 43.1929 59.2908 44.8995 60.4383L44.9175 60.4478C45.8847 61.1852 46.3678 62.235 46.3678 63.241L46.3649 63.2477C46.9002 63.447 47.4792 63.5561 48.0838 63.5561C48.6884 63.5561 49.2683 63.447 49.8036 63.2467L49.8017 63.2401C49.8017 62.2331 50.2848 61.1833 51.2519 60.4468L51.269 60.4373C54.6488 58.1661 57.3747 54.997 59.1049 51.2717L59.1059 51.2726C62.1317 44.8139 63.823 37.6044 63.823 30C56.8669 57.5492 40.4006 56.3542 40.3247 56.3542Z" fill="#FCC200"/>
<path d="M15.4999 14.7227C15.198 14.7227 14.9157 14.7928 14.6752 14.9144V14.9796H16.3247V14.9144C16.0841 14.7928 15.8018 14.7227 15.4999 14.7227Z" fill="white"/>
<path d="M16.5429 14.9796H14.4568V16.0661H16.5429V14.9796Z" fill="white"/>
<path d="M16.6871 16.0662H14.3128V16.2306H16.6871V16.0662Z" fill="white"/>
<path d="M15.6647 13.6554C15.6134 13.6714 15.5579 13.6802 15.4999 13.6802C15.4419 13.6802 15.3864 13.6714 15.3351 13.6555L15.3354 13.655C15.3354 13.5746 15.2891 13.4907 15.1964 13.4319L15.1947 13.4311C14.8708 13.2497 14.6095 12.9966 14.4437 12.6991L14.4436 12.6992C14.1536 12.1832 13.9916 11.6074 13.9916 11.0001H17.0082C17.0082 11.6074 16.8462 12.1832 16.5561 12.6991L16.556 12.699C16.3901 12.9966 16.1289 13.2497 15.805 13.4311L15.8033 13.4318C15.7106 13.4907 15.6643 13.5746 15.6643 13.6549L15.6647 13.6554Z" fill="white"/>
<path d="M15.6401 13.6624C15.6401 13.7386 15.6803 13.802 15.744 13.8487H15.7442C15.7663 13.8656 15.7801 13.8897 15.7801 13.9167C15.7801 13.9678 15.7304 14.0093 15.669 14.0093C15.6679 14.0093 15.6668 14.0093 15.6658 14.0092H15.3339C15.3329 14.0092 15.3318 14.0093 15.3308 14.0093C15.2694 14.0093 15.2196 13.9678 15.2196 13.9167C15.2196 13.8897 15.2334 13.8656 15.2555 13.8487H15.2557C15.3194 13.8021 15.3596 13.7386 15.3596 13.6624H15.6401Z" fill="white"/>
<path d="M15.781 14.8016C15.6918 14.8236 15.5976 14.8353 15.4999 14.8353C15.4022 14.8353 15.308 14.8236 15.2188 14.8016L15.2196 14.7995V14.6461C15.2894 14.5087 15.328 14.3575 15.328 14.1989C15.328 14.1337 15.3214 14.0697 15.3089 14.0074H15.6908C15.6783 14.0698 15.6717 14.1337 15.6717 14.1989C15.6717 14.3576 15.7103 14.5087 15.7801 14.6461V14.7995L15.781 14.8016Z" fill="white"/>
<path d="M14.4343 13.4008C14.3575 13.4008 14.2831 13.3778 14.2248 13.3362C14.1777 13.3025 14.1724 13.2434 14.2128 13.2041C14.2531 13.1649 14.3241 13.1604 14.3712 13.1941C14.3836 13.2029 14.4046 13.2135 14.4343 13.2135C14.4879 13.2135 14.5315 13.1772 14.5315 13.1326C14.5315 13.1262 14.5306 13.1199 14.5289 13.1138C14.5137 13.0691 14.4847 13.0282 14.4449 12.9952C14.434 12.9883 14.4261 12.9811 14.4211 12.9764L13.4375 12.2073C13.1117 11.9525 12.8728 11.5535 13.0738 11.2366C13.1595 11.1013 13.3307 11.0126 13.5134 11.0073C13.5161 11.0072 13.5189 11.0071 13.5216 11.0071H13.5305C13.5331 11.0071 13.5358 11.0072 13.5384 11.0073C13.8104 11.0148 14.029 11.2015 14.029 11.4299C14.029 11.5362 13.9815 11.6378 13.8953 11.716C13.8533 11.754 13.7822 11.7565 13.7365 11.7216C13.6909 11.6865 13.6879 11.6273 13.7298 11.5893C13.7778 11.5458 13.8043 11.4892 13.8043 11.4299C13.8043 11.3013 13.68 11.1965 13.5261 11.1944C13.421 11.1958 13.3218 11.2464 13.2725 11.324C13.1277 11.5525 13.3363 11.8713 13.5915 12.0708L14.5781 12.8424C14.5809 12.8446 14.5833 12.8467 14.5853 12.8485C14.5878 12.8501 14.5903 12.852 14.5927 12.8539C14.6661 12.9114 14.7191 12.9844 14.7459 13.065C14.7462 13.0657 14.7464 13.0665 14.7466 13.0672C14.753 13.0885 14.7563 13.1105 14.7563 13.1326C14.7562 13.2805 14.6118 13.4008 14.4343 13.4008ZM14.4238 12.9786C14.424 12.9788 14.4242 12.9789 14.4242 12.979L14.4238 12.9786ZM14.516 12.8284C14.516 12.8284 14.5161 12.8284 14.516 12.8284C14.5161 12.8284 14.516 12.8284 14.516 12.8284Z" fill="white"/>
<path d="M16.2437 13.1319C16.2437 13.1098 16.2469 13.0878 16.2533 13.0665C16.2536 13.0658 16.2537 13.065 16.254 13.0642C16.2809 12.9837 16.3338 12.9107 16.4072 12.8531C16.4097 12.8512 16.4121 12.8494 16.4148 12.8477C16.4168 12.8459 16.4191 12.8439 16.4219 12.8417L17.4086 12.0701C17.6636 11.8705 17.8723 11.5518 17.7275 11.3233C17.6782 11.2456 17.579 11.1951 17.4739 11.1937C17.32 11.1957 17.1957 11.3006 17.1957 11.4292C17.1957 11.4884 17.2222 11.545 17.2702 11.5886C17.3122 11.6266 17.3092 11.6859 17.2635 11.7208C17.2178 11.7559 17.1467 11.7534 17.1047 11.7152C17.0185 11.637 16.971 11.5354 16.971 11.4292C16.971 11.2007 17.1896 11.014 17.4616 11.0066C17.4642 11.0065 17.4669 11.0064 17.4695 11.0064H17.4784C17.4811 11.0064 17.4839 11.0065 17.4866 11.0066C17.6693 11.0118 17.8405 11.1007 17.9262 11.2358C18.1272 11.5528 17.8883 11.9518 17.5625 12.2066L16.5789 12.9757C16.5739 12.9804 16.5659 12.9875 16.555 12.9945C16.5152 13.0275 16.4863 13.0683 16.4711 13.1131C16.4693 13.1191 16.4684 13.1255 16.4684 13.1319C16.4684 13.1765 16.512 13.2128 16.5656 13.2128C16.5953 13.2128 16.6163 13.2023 16.6287 13.1933C16.6758 13.1597 16.7468 13.1641 16.7872 13.2034C16.8276 13.2427 16.8222 13.3018 16.7751 13.3355C16.7169 13.3771 16.6424 13.4001 16.5656 13.4001C16.388 13.4001 16.2437 13.2798 16.2437 13.1319ZM16.5756 12.9783C16.5758 12.9782 16.5759 12.9781 16.576 12.9779L16.5756 12.9783Z" fill="white"/>
<path d="M14.632 11.1145H14.1215C14.1215 11.548 14.2232 11.9618 14.4078 12.3401C14.38 12.2246 14.3653 12.1051 14.3653 11.9827C14.3652 11.668 14.4619 11.3721 14.632 11.1145Z" fill="white"/>
<path d="M14.4568 16.0661H16.5429V14.9796C16.543 14.9796 15.8458 16.0661 14.4568 16.0661Z" fill="white"/>
<path d="M16.2607 15.2303H14.7393V15.8512H16.2607V15.2303Z" fill="white"/>
<path d="M13.159 11.3596C13.2501 11.216 13.4319 11.1217 13.626 11.1161C13.6289 11.116 13.6317 11.1159 13.6348 11.1159H13.6442C13.647 11.1159 13.6499 11.116 13.6527 11.1161C13.7115 11.1177 13.768 11.1273 13.8207 11.1436C13.7431 11.0837 13.6404 11.046 13.5274 11.0429C13.525 11.0427 13.5227 11.0427 13.5203 11.0427H13.5123C13.5099 11.0427 13.5074 11.0427 13.5049 11.0429C13.3414 11.0476 13.188 11.1271 13.1112 11.2482C13.0286 11.3785 13.0291 11.5242 13.082 11.6659C13.075 11.5604 13.0976 11.4564 13.159 11.3596Z" fill="white"/>
<path d="M14.7563 13.1049C14.8836 13.2295 15.0312 13.3394 15.1947 13.431L15.1964 13.4318C15.2891 13.4907 15.3354 13.5745 15.3354 13.6549L15.3352 13.6554C15.3865 13.6713 15.442 13.6801 15.4999 13.6801C15.5578 13.6801 15.6134 13.6713 15.6647 13.6554L15.6645 13.6548C15.6645 13.5744 15.7108 13.4906 15.8035 13.4317L15.8052 13.431C16.1291 13.2496 16.3904 12.9965 16.5562 12.6989L16.5563 12.699C16.8463 12.1832 17.0084 11.6073 17.0084 11C16.3417 13.2003 14.7635 13.1049 14.7563 13.1049Z" fill="white"/>
<path d="M79.5001 115.508C79.802 115.508 80.0843 115.438 80.3248 115.316V115.251H78.6753V115.316C78.9159 115.438 79.1982 115.508 79.5001 115.508Z" fill="white"/>
<path d="M78.4571 115.251H80.5432V114.164H78.4571V115.251Z" fill="white"/>
<path d="M78.3129 114.164H80.6872V114H78.3129V114.164Z" fill="white"/>
<path d="M79.3353 116.575C79.3866 116.559 79.4421 116.55 79.5001 116.55C79.5581 116.55 79.6135 116.559 79.6649 116.575L79.6646 116.576C79.6646 116.656 79.7109 116.74 79.8036 116.799L79.8053 116.799C80.1292 116.981 80.3905 117.234 80.5563 117.531L80.5564 117.531C80.8464 118.047 81.0084 118.623 81.0084 119.23H77.9918C77.9918 118.623 78.1538 118.047 78.4439 117.531L78.444 117.532C78.6098 117.234 78.8711 116.981 79.195 116.799L79.1967 116.799C79.2893 116.74 79.3356 116.656 79.3356 116.576L79.3353 116.575Z" fill="white"/>
<path d="M79.3598 116.568C79.3598 116.492 79.3196 116.429 79.256 116.382H79.2558C79.2337 116.365 79.2199 116.341 79.2199 116.314C79.2199 116.263 79.2696 116.221 79.331 116.221C79.3321 116.221 79.3332 116.221 79.3342 116.221H79.666C79.6671 116.221 79.6682 116.221 79.6692 116.221C79.7306 116.221 79.7804 116.263 79.7804 116.314C79.7804 116.341 79.7666 116.365 79.7444 116.382H79.7443C79.6806 116.428 79.6404 116.492 79.6404 116.568H79.3598Z" fill="white"/>
<path d="M79.219 115.429C79.3082 115.407 79.4024 115.395 79.5001 115.395C79.5978 115.395 79.692 115.407 79.7812 115.429L79.7804 115.431V115.584C79.7106 115.722 79.672 115.873 79.672 116.032C79.672 116.097 79.6786 116.161 79.6911 116.223H79.3092C79.3217 116.161 79.3283 116.097 79.3283 116.032C79.3283 115.873 79.2897 115.722 79.2199 115.584V115.431L79.219 115.429Z" fill="white"/>
<path d="M80.5657 116.83C80.6425 116.83 80.7169 116.853 80.7752 116.894C80.8223 116.928 80.8276 116.987 80.7872 117.026C80.7469 117.066 80.6759 117.07 80.6288 117.036C80.6164 117.028 80.5954 117.017 80.5657 117.017C80.5121 117.017 80.4685 117.053 80.4685 117.098C80.4685 117.104 80.4694 117.111 80.4711 117.117C80.4863 117.161 80.5153 117.202 80.5551 117.235C80.566 117.242 80.5739 117.249 80.5789 117.254L81.5625 118.023C81.8883 118.278 82.1272 118.677 81.9262 118.994C81.8405 119.129 81.6693 119.218 81.4866 119.223C81.4839 119.223 81.4811 119.223 81.4784 119.223H81.4695C81.4669 119.223 81.4642 119.223 81.4616 119.223C81.1896 119.216 80.971 119.029 80.971 118.801C80.971 118.694 81.0185 118.593 81.1047 118.515C81.1467 118.477 81.2178 118.474 81.2635 118.509C81.3091 118.544 81.3121 118.603 81.2702 118.641C81.2222 118.685 81.1957 118.741 81.1957 118.801C81.1957 118.929 81.32 119.034 81.4739 119.036C81.579 119.035 81.6782 118.984 81.7275 118.907C81.8723 118.678 81.6637 118.359 81.4085 118.16L80.4219 117.388C80.4191 117.386 80.4167 117.384 80.4147 117.382C80.4122 117.38 80.4097 117.379 80.4073 117.377C80.3339 117.319 80.2809 117.246 80.2541 117.166C80.2538 117.165 80.2536 117.164 80.2534 117.163C80.247 117.142 80.2437 117.12 80.2437 117.098C80.2438 116.95 80.3882 116.83 80.5657 116.83ZM80.5762 117.252C80.576 117.252 80.5758 117.252 80.5758 117.252L80.5762 117.252ZM80.484 117.402C80.484 117.402 80.4839 117.402 80.484 117.402C80.4839 117.402 80.484 117.402 80.484 117.402Z" fill="white"/>
<path d="M78.7564 117.099C78.7564 117.121 78.7531 117.143 78.7467 117.164C78.7464 117.165 78.7463 117.166 78.746 117.166C78.7192 117.247 78.6662 117.32 78.5928 117.377C78.5904 117.379 78.5879 117.381 78.5853 117.383C78.5833 117.385 78.5809 117.387 78.5781 117.389L77.5915 118.161C77.3364 118.36 77.1277 118.679 77.2725 118.907C77.3218 118.985 77.421 119.036 77.5261 119.037C77.68 119.035 77.8043 118.93 77.8043 118.801C77.8043 118.742 77.7778 118.686 77.7298 118.642C77.6878 118.604 77.6908 118.545 77.7366 118.51C77.7822 118.475 77.8534 118.477 77.8953 118.515C77.9815 118.594 78.029 118.695 78.029 118.801C78.029 119.03 77.8104 119.217 77.5384 119.224C77.5358 119.224 77.5332 119.224 77.5305 119.224H77.5216C77.5189 119.224 77.5161 119.224 77.5134 119.224C77.3308 119.219 77.1595 119.13 77.0738 118.995C76.8728 118.678 77.1117 118.279 77.4375 118.024L78.4212 117.255C78.4262 117.25 78.4341 117.243 78.445 117.236C78.4848 117.203 78.5138 117.162 78.5289 117.118C78.5307 117.111 78.5316 117.105 78.5316 117.099C78.5316 117.054 78.488 117.018 78.4344 117.018C78.4047 117.018 78.3837 117.028 78.3713 117.037C78.3242 117.071 78.2532 117.066 78.2128 117.027C78.1725 116.988 78.1778 116.929 78.2249 116.895C78.2832 116.853 78.3576 116.831 78.4344 116.831C78.612 116.831 78.7564 116.951 78.7564 117.099ZM78.4244 117.252C78.4242 117.252 78.4242 117.253 78.424 117.253L78.4244 117.252Z" fill="white"/>
<path d="M80.368 119.116H80.8785C80.8785 118.683 80.7768 118.269 80.5922 117.89C80.62 118.006 80.6346 118.125 80.6346 118.248C80.6348 118.563 80.538 118.858 80.368 119.116Z" fill="white"/>
<path d="M80.5432 114.164H78.4571V115.251C78.457 115.251 79.1542 114.164 80.5432 114.164Z" fill="white"/>
<path d="M78.7394 115H80.2608V114.379H78.7394V115Z" fill="white"/>
<path d="M81.841 118.871C81.7499 119.015 81.5681 119.109 81.374 119.114C81.3711 119.115 81.3682 119.115 81.3652 119.115H81.3558C81.353 119.115 81.3501 119.115 81.3473 119.114C81.2885 119.113 81.232 119.103 81.1793 119.087C81.2569 119.147 81.3596 119.185 81.4726 119.188C81.4749 119.188 81.4773 119.188 81.4797 119.188H81.4877C81.4901 119.188 81.4926 119.188 81.495 119.188C81.6586 119.183 81.812 119.103 81.8887 118.982C81.9713 118.852 81.9709 118.706 81.918 118.565C81.925 118.67 81.9024 118.774 81.841 118.871Z" fill="white"/>
<path d="M80.2437 117.126C80.1164 117.001 79.9688 116.891 79.8053 116.8L79.8036 116.799C79.7109 116.74 79.6646 116.656 79.6646 116.576L79.6648 116.575C79.6135 116.559 79.558 116.551 79.5001 116.551C79.4422 116.551 79.3866 116.559 79.3353 116.575L79.3355 116.576C79.3355 116.656 79.2892 116.74 79.1965 116.799L79.1948 116.8C78.8709 116.981 78.6096 117.234 78.4438 117.532L78.4437 117.532C78.1537 118.047 77.9916 118.623 77.9916 119.231C78.6583 117.03 80.2365 117.126 80.2437 117.126Z" fill="white"/>
</svg>
