<svg width="93" height="129" viewBox="0 0 93 129" fill="none" xmlns="http://www.w3.org/2000/svg">
<path d="M88.7301 129H4.26988C1.87458 129 0 127.044 0 124.779V4.22104C0 1.85313 1.97872 0 4.26988 0H88.7301C91.1254 0 93 1.95608 93 4.22104V124.779C93 127.147 91.1254 129 88.7301 129Z" fill="#C8E1FF"/>
<path d="M87.2 127H6.10001C3.80001 127 2 125.1 2 122.9V5.79999C2 3.49999 3.90001 1.70001 6.10001 1.70001H87.2C89.5 1.70001 91.3 3.59999 91.3 5.79999V122.9C91.4 125.2 89.5 127 87.2 127Z" fill="#EEF5FF"/>
<path d="M60 85.9802L75.9355 124H86L78.0323 84L60 85.9802Z" fill="#228845"/>
<path d="M36 48.9208L20.0645 9H10L17.9677 51L36 48.9208Z" fill="#248747"/>
<path d="M17.9996 12.4559L17.5299 12.8371C17.4914 12.8066 17.4514 12.7778 17.4099 12.749C16.626 12.2323 15.3606 12.229 14.5812 12.7439C14.5353 12.7744 14.4938 12.8049 14.4538 12.8371L14.0004 12.4559V13.6806C14.0033 14.0177 14.2004 14.3531 14.5901 14.6106C15.3739 15.1272 16.6394 15.1306 17.4188 14.6157C17.8099 14.3582 18.0026 14.0177 17.9996 13.6789V12.4559Z" fill="#DCE4E4"/>
<path d="M17.4188 13.2555C16.6409 13.7687 15.374 13.767 14.5901 13.2504C13.8063 12.7337 13.8033 11.8969 14.5812 11.3837C15.3591 10.8704 16.626 10.8721 17.4099 11.3888C18.1937 11.9054 18.1967 12.7422 17.4188 13.2555Z" fill="#F1F4F4"/>
<path d="M80.9996 117.456L80.5299 117.837C80.4914 117.807 80.4514 117.778 80.4099 117.749C79.626 117.232 78.3606 117.229 77.5812 117.744C77.5353 117.774 77.4938 117.805 77.4538 117.837L77.0004 117.456V118.681C77.0033 119.018 77.2004 119.353 77.5901 119.611C78.3739 120.127 79.6394 120.131 80.4188 119.616C80.8099 119.358 81.0026 119.018 80.9996 118.679V117.456Z" fill="#DCE4E4"/>
<path d="M80.4188 118.255C79.6409 118.769 78.374 118.767 77.5901 118.25C76.8063 117.734 76.8033 116.897 77.5812 116.384C78.3591 115.87 79.626 115.872 80.4099 116.389C81.1937 116.905 81.1967 117.742 80.4188 118.255Z" fill="#F1F4F4"/>
<path d="M60.4276 90.6405C59.9541 93.2447 57.6881 95.0034 55.3544 94.5975L32.4915 90.5729C30.1579 90.167 28.6359 87.7319 29.0756 85.1277L37.3617 38.0152C37.8014 35.411 40.1012 33.6524 42.4349 34.0582L65.2978 38.0491C67.6314 38.4549 69.1533 40.89 68.7137 43.4942L60.4276 90.6405Z" fill="#2B9EE7"/>
<path d="M59.6158 89.5582C59.1762 92.061 57.0455 93.7858 54.8471 93.38L33.4047 89.6597C31.2063 89.2877 29.7858 86.9202 30.2255 84.4175L38.1734 39.0975C38.6131 36.5948 40.7438 34.8699 42.9422 35.2758L64.3508 39.0299C66.5491 39.4019 67.9696 41.7694 67.5299 44.2721L59.6158 89.5582Z" fill="#EEF5FF"/>
<path d="M49.8078 45.05C49.3343 47.688 46.8316 49.4467 44.2274 48.9732C41.5893 48.4997 39.8306 45.9969 40.3041 43.3927C40.7776 40.7547 43.2804 38.996 45.8846 39.4695C48.5226 39.9092 50.2475 42.4119 49.8078 45.05Z" fill="#C6C6C6"/>
<path d="M48.9293 44.4074C48.5235 46.7748 46.2575 48.3644 43.89 47.9248C41.5225 47.5189 39.933 45.2529 40.3726 42.8854C40.7785 40.518 43.0445 38.9284 45.4119 39.3681C47.7794 39.7739 49.3352 42.0399 48.9293 44.4074Z" fill="#2B9EE7"/>
<path d="M41.2511 42.6149C41.5893 40.6532 43.4495 39.3342 45.4111 39.7063C47.3727 40.0445 40.8791 44.5765 41.2511 42.6149Z" fill="white"/>
<path d="M48.5564 41.7355C48.6241 42.209 48.6579 42.7163 48.5564 43.2236C48.1506 45.5911 45.8846 47.1807 43.5171 46.741C42.0967 46.5042 40.9468 45.5573 40.3718 44.3735C40.6762 46.1322 42.029 47.5865 43.8892 47.9247C46.2566 48.3306 48.4888 46.7748 48.9285 44.4074C49.0976 43.4604 48.9285 42.5472 48.5564 41.7355Z" fill="#C6C6C6"/>
<path d="M64.1479 47.5527C63.6744 50.1908 61.1716 51.9494 58.5674 51.476C55.9294 51.0025 54.1707 48.4997 54.6442 45.8955C55.1177 43.2575 57.6204 41.4988 60.2246 41.9723C62.8288 42.4458 64.5875 44.9485 64.1479 47.5527Z" fill="#C6C6C6"/>
<path d="M63.2694 46.9101C62.8635 49.2776 60.5975 50.8672 58.2301 50.4275C55.8626 50.0216 54.273 47.7557 54.7127 45.3882C55.1186 43.0207 57.3846 41.4312 59.752 41.8708C62.0857 42.3105 63.6752 44.5427 63.2694 46.9101Z" fill="#2B9EE7"/>
<path d="M55.5574 45.1514C55.8956 43.1898 57.7557 41.8708 59.7173 42.2428C61.6789 42.5472 55.2192 47.0792 55.5574 45.1514Z" fill="white"/>
<path d="M62.8965 44.2721C62.9641 44.7456 62.9979 45.2529 62.8965 45.7602C62.4906 48.1277 60.2246 49.7173 57.8572 49.2776C56.4367 49.0408 55.2868 48.0939 54.7118 46.9101C55.0162 48.6688 56.369 50.1231 58.2292 50.4613C60.5967 50.8672 62.8288 49.3114 63.2685 46.9439C63.4376 45.997 63.2685 45.05 62.8965 44.2721Z" fill="#C6C6C6"/>
<path d="M47.7109 56.8872C47.2374 59.5253 44.7347 61.284 42.1305 60.8105C39.4924 60.337 37.7338 57.8342 38.2072 55.23C38.6807 52.592 41.1835 50.8333 43.7877 51.3068C46.4257 51.7803 48.1844 54.283 47.7109 56.8872Z" fill="#C6C6C6"/>
<path d="M46.8324 56.2447C46.4266 58.6121 44.1606 60.2017 41.7931 59.762C39.4256 59.3562 37.8361 57.0902 38.2757 54.7227C38.6816 52.3553 40.9476 50.7657 43.315 51.2054C45.6825 51.645 47.2721 53.8772 46.8324 56.2447Z" fill="#2B9EE7"/>
<path d="M39.1543 54.4522C39.4925 52.4906 41.3526 51.1715 43.3142 51.5436C45.2758 51.8818 38.816 56.4138 39.1543 54.4522Z" fill="white"/>
<path d="M46.4595 53.6066C46.5272 54.0801 46.561 54.5874 46.4595 55.0948C46.0537 57.4622 43.7877 59.0518 41.4202 58.6121C39.9998 58.3754 38.8499 57.4284 38.2749 56.2447C38.5793 58.0034 39.9321 59.4577 41.7923 59.7959C44.1597 60.2017 46.3919 58.646 46.8316 56.2785C47.0007 55.2977 46.8654 54.3845 46.4595 53.6066Z" fill="#C6C6C6"/>
<path d="M62.051 59.4238C61.5775 62.0619 59.0747 63.8206 56.4705 63.3471C53.8325 62.8736 52.0738 60.3708 52.5473 57.7666C53.0208 55.1286 55.5235 53.3699 58.1277 53.8434C60.7658 54.2831 62.5245 56.7858 62.051 59.4238Z" fill="#C6C6C6"/>
<path d="M61.1724 58.7813C60.7666 61.1487 58.5006 62.7383 56.1331 62.2986C53.7656 61.8928 52.1761 59.6268 52.6157 57.2593C53.0216 54.8919 55.2876 53.3023 57.655 53.7419C60.0225 54.1478 61.5783 56.4138 61.1724 58.7813Z" fill="#2B9EE7"/>
<path d="M53.4943 56.9888C53.8325 55.0271 55.6926 53.7081 57.6542 54.0802C59.6159 54.4184 53.1561 58.9504 53.4943 56.9888Z" fill="white"/>
<path d="M60.7996 56.1094C60.8672 56.5829 60.901 57.0902 60.7996 57.5975C60.3937 59.965 58.1277 61.5546 55.7603 61.1149C54.3398 60.8781 53.1899 59.9312 52.6149 58.7474C52.9193 60.5061 54.2721 61.9604 56.1323 62.2986C58.4998 62.7045 60.7319 61.1487 61.1716 58.7813C61.3407 57.8343 61.2054 56.9211 60.7996 56.1094Z" fill="#C6C6C6"/>
<path d="M45.6478 68.7584C45.1743 71.3964 42.6716 73.1551 40.0674 72.6816C37.4294 72.2081 35.6707 69.7054 36.1442 67.1012C36.6177 64.4632 39.1204 62.7045 41.7246 63.178C44.3626 63.6176 46.0875 66.1204 45.6478 68.7584Z" fill="#C6C6C6"/>
<path d="M44.7693 68.1158C44.3635 70.4833 42.0975 72.0729 39.73 71.6332C37.3626 71.2273 35.773 68.9613 36.2126 66.5939C36.6185 64.2264 38.8845 62.6368 41.252 63.0765C43.6194 63.4824 45.1752 65.7484 44.7693 68.1158Z" fill="#2B9EE7"/>
<path d="M37.0912 66.3233C37.4294 64.3617 39.2895 63.0427 41.2511 63.4147C43.2127 63.7529 36.7191 68.2849 37.0912 66.3233Z" fill="white"/>
<path d="M44.3965 65.444C44.4641 65.9175 44.4979 66.4248 44.3965 66.9321C43.9906 69.2995 41.7246 70.8891 39.3572 70.4495C37.9367 70.2127 36.7868 69.2657 36.2118 68.082C36.5162 69.8407 37.869 71.295 39.7292 71.6332C42.0967 72.039 44.3288 70.4833 44.7685 68.1158C44.9376 67.1688 44.7685 66.2557 44.3965 65.444Z" fill="#C6C6C6"/>
<path d="M59.9879 71.2612C59.5144 73.8992 57.0116 75.6579 54.4074 75.1844C51.7694 74.7109 50.0107 72.2081 50.4842 69.6039C50.9577 66.9659 53.4605 65.2072 56.0647 65.6807C58.6689 66.1204 60.4276 68.6231 59.9879 71.2612Z" fill="#C6C6C6"/>
<path d="M59.1094 70.6186C58.7035 72.986 56.4375 74.5756 54.07 74.1359C51.7026 73.7301 50.113 71.4641 50.5527 69.0966C50.9585 66.7292 53.2245 65.1396 55.592 65.5792C57.9256 66.0189 59.5152 68.2511 59.1094 70.6186Z" fill="#2B9EE7"/>
<path d="M51.3974 68.8261C51.7356 66.8645 53.5957 65.5454 55.5574 65.9175C57.519 66.2557 51.0592 70.7877 51.3974 68.8261Z" fill="white"/>
<path d="M58.7365 67.9467C58.8042 68.4202 58.838 68.9275 58.7365 69.4348C58.3307 71.8023 56.0647 73.3919 53.6972 72.9522C52.2767 72.7155 51.1268 71.7685 50.5519 70.5847C50.8563 72.3434 52.2091 73.7977 54.0692 74.1359C56.4367 74.5418 58.6689 72.986 59.1086 70.6186C59.2777 69.6716 59.1086 68.7584 58.7365 67.9467Z" fill="#C6C6C6"/>
<path d="M43.5509 80.5957C43.0774 83.2337 40.5747 84.9924 37.9705 84.5189C35.3325 84.0454 33.5738 81.5427 34.0473 78.9385C34.5208 76.3004 37.0235 74.5418 39.6277 75.0153C42.2657 75.4549 44.0244 77.9577 43.5509 80.5957Z" fill="#C6C6C6"/>
<path d="M42.6724 79.9531C42.2665 82.3206 40.0005 83.9101 37.6331 83.4705C35.2656 83.0646 33.676 80.7986 34.1157 78.4312C34.5215 76.0637 36.7875 74.4741 39.155 74.9138C41.5225 75.3196 43.112 77.5856 42.6724 79.9531Z" fill="#2B9EE7"/>
<path d="M34.9942 78.1606C35.3325 76.199 37.1926 74.88 39.1542 75.252C41.1158 75.5902 34.656 80.1222 34.9942 78.1606Z" fill="white"/>
<path d="M42.2995 77.2813C42.3672 77.7548 42.401 78.2621 42.2995 78.7694C41.8937 81.1368 39.6277 82.7264 37.2602 82.2868C35.8398 82.05 34.6899 81.103 34.1149 79.9193C34.4193 81.678 35.7721 83.1323 37.6323 83.4705C39.9997 83.8763 42.2319 82.3206 42.6716 79.9531C42.8407 79.0061 42.7054 78.093 42.2995 77.2813Z" fill="#C6C6C6"/>
<path d="M57.891 83.0984C57.4175 85.7365 54.9148 87.4952 52.3105 87.0217C49.6725 86.5482 47.9138 84.0454 48.3873 81.4412C48.8608 78.8032 51.3636 77.0445 53.9678 77.518C56.6058 77.9915 58.3645 80.4942 57.891 83.0984Z" fill="#C6C6C6"/>
<path d="M57.0125 82.4559C56.6066 84.8233 54.3406 86.4129 51.9732 85.9732C49.6057 85.5674 48.0161 83.3014 48.4558 80.9339C48.8616 78.5665 51.1276 76.9769 53.4951 77.4166C55.8626 77.8562 57.4521 80.0884 57.0125 82.4559Z" fill="#2B9EE7"/>
<path d="M49.3343 80.6972C49.6725 78.7356 51.5327 77.4166 53.4943 77.7886C55.4559 78.093 48.9961 82.625 49.3343 80.6972Z" fill="white"/>
<path d="M56.6396 79.8178C56.7073 80.2913 56.7411 80.7986 56.6396 81.3059C56.2338 83.6734 53.9678 85.263 51.6003 84.8233C50.1799 84.5866 49.0299 83.6396 48.455 82.4558C48.7594 84.2145 50.1122 85.6688 51.9724 86.007C54.3398 86.4129 56.572 84.8571 57.0117 82.4897C57.1808 81.5089 57.0455 80.5957 56.6396 79.8178Z" fill="#C6C6C6"/>
<path d="M62.2108 105.464C62.4828 105.712 62.5148 105.896 62.5148 106.232C62.5148 106.6 62.2748 106.84 61.7628 106.84C61.2508 106.84 61.0108 106.6 61.0108 106.232L61.0108 105.52L60.4508 105.52L60.4508 106.2C60.4508 106.896 60.8428 107.32 61.7388 107.32C62.6508 107.32 63.0748 106.896 63.0748 106.2C63.0748 105.736 62.9788 105.456 62.6428 105.12L61.2348 103.744C60.9708 103.488 60.9308 103.296 60.9308 102.968C60.9308 102.6 61.1868 102.36 61.7228 102.36C62.2588 102.36 62.5148 102.6 62.5148 102.968L62.5148 103.68L63.0748 103.68L63.0748 103C63.0748 102.304 62.6668 101.88 61.7228 101.88C60.7788 101.88 60.3708 102.304 60.3708 103C60.3708 103.472 60.4588 103.744 60.7788 104.088L62.2108 105.464ZM56.3305 106.2C56.3305 106.896 56.7785 107.32 57.6985 107.32C58.6185 107.32 59.0505 106.896 59.0505 106.2L59.0505 103C59.0505 102.304 58.6025 101.88 57.6825 101.88C56.7625 101.88 56.3305 102.304 56.3305 103L56.3305 106.2ZM56.8905 103C56.8905 102.592 57.1465 102.36 57.6825 102.36C58.2265 102.36 58.4905 102.6 58.4905 103L58.4905 106.2C58.4905 106.6 58.2345 106.84 57.6985 106.84C57.1545 106.84 56.8905 106.6 56.8905 106.2L56.8905 103ZM54.2923 102L54.2923 106.304L53.3563 102.8L52.8363 102.8L51.9003 106.304L51.9003 102L51.3403 102L51.3403 107.2L52.1803 107.2L53.1003 103.768L54.0123 107.2L54.8523 107.2L54.8523 102L54.2923 102ZM49.183 102L49.183 106L47.447 102L46.887 102L46.887 107.2L47.447 107.2L47.447 103.2L49.183 107.2L49.743 107.2L49.743 102L49.183 102ZM44.1698 102.48L44.5698 102.48L44.5698 106.72L44.1698 106.72L44.1698 107.2L45.5298 107.2L45.5298 106.72L45.1298 106.72L45.1298 102.48L45.5298 102.48L45.5298 102L44.1698 102L44.1698 102.48ZM42.2533 102L42.2533 104.4L40.9333 104.4L40.9333 104.88L42.2533 104.88L42.2533 106.72L40.6133 106.72L40.6133 107.2L42.8133 107.2L42.8133 102L42.2533 102ZM37.133 102L37.133 102.48L38.933 102.48L38.933 104.4L37.533 104.4L37.533 104.88L38.933 104.88L38.933 106.72L37.213 106.72L37.213 107.2L39.493 107.2L39.493 102L37.133 102ZM38.757 108.04L37.853 107.584L37.645 107.792L38.629 108.776L39.061 108.344L38.757 108.04ZM35.3705 102L35.3705 103.84L34.7225 103.84L33.7865 102L33.1705 102L34.1545 103.92C33.6825 104.072 33.4505 104.44 33.4505 104.96L33.4505 106.08C33.4505 106.768 33.8745 107.2 34.7225 107.2L35.9305 107.2L35.9305 102L35.3705 102ZM34.0105 104.96C34.0105 104.56 34.2425 104.32 34.7225 104.32L35.3705 104.32L35.3705 106.72L34.7225 106.72C34.2505 106.72 34.0105 106.472 34.0105 106.08L34.0105 104.96ZM29.6877 102L29.6877 102.48L31.4877 102.48L31.4877 104.4L30.0877 104.4L30.0877 104.88L31.4877 104.88L31.4877 106.72L29.7677 106.72L29.7677 107.2L32.0477 107.2L32.0477 102L29.6877 102Z" fill="black"/>
<path d="M30.7892 20.536C30.5172 20.288 30.4852 20.104 30.4852 19.768C30.4852 19.4 30.7252 19.16 31.2372 19.16C31.7492 19.16 31.9892 19.4 31.9892 19.768V20.48H32.5492V19.8C32.5492 19.104 32.1572 18.68 31.2612 18.68C30.3492 18.68 29.9252 19.104 29.9252 19.8C29.9252 20.264 30.0212 20.544 30.3572 20.88L31.7652 22.256C32.0292 22.512 32.0692 22.704 32.0692 23.032C32.0692 23.4 31.8132 23.64 31.2772 23.64C30.7412 23.64 30.4852 23.4 30.4852 23.032V22.32H29.9252V23C29.9252 23.696 30.3332 24.12 31.2772 24.12C32.2212 24.12 32.6292 23.696 32.6292 23C32.6292 22.528 32.5412 22.256 32.2212 21.912L30.7892 20.536ZM36.6695 19.8C36.6695 19.104 36.2215 18.68 35.3015 18.68C34.3815 18.68 33.9495 19.104 33.9495 19.8V23C33.9495 23.696 34.3975 24.12 35.3175 24.12C36.2375 24.12 36.6695 23.696 36.6695 23V19.8ZM36.1095 23C36.1095 23.408 35.8535 23.64 35.3175 23.64C34.7735 23.64 34.5095 23.4 34.5095 23V19.8C34.5095 19.4 34.7655 19.16 35.3015 19.16C35.8455 19.16 36.1095 19.4 36.1095 19.8V23ZM38.7077 24V19.696L39.6437 23.2H40.1637L41.0997 19.696V24H41.6597V18.8H40.8197L39.8997 22.232L38.9877 18.8H38.1477V24H38.7077ZM43.817 24V20L45.553 24H46.113V18.8H45.553V22.8L43.817 18.8H43.257V24H43.817ZM48.8302 23.52H48.4302V19.28H48.8302V18.8H47.4702V19.28H47.8702V23.52H47.4702V24H48.8302V23.52ZM50.7467 24V21.6H52.0667V21.12H50.7467V19.28H52.3867V18.8H50.1867V24H50.7467ZM55.867 24V23.52H54.067V21.6H55.467V21.12H54.067V19.28H55.787V18.8H53.507V24H55.867ZM54.243 17.96L55.147 18.416L55.355 18.208L54.371 17.224L53.939 17.656L54.243 17.96ZM57.6295 24V22.16H58.2775L59.2135 24H59.8295L58.8455 22.08C59.3175 21.928 59.5495 21.56 59.5495 21.04V19.92C59.5495 19.232 59.1255 18.8 58.2775 18.8H57.0695V24H57.6295ZM58.9895 21.04C58.9895 21.44 58.7575 21.68 58.2775 21.68H57.6295V19.28H58.2775C58.7495 19.28 58.9895 19.528 58.9895 19.92V21.04ZM63.3123 24V23.52H61.5123V21.6H62.9123V21.12H61.5123V19.28H63.2323V18.8H60.9523V24H63.3123Z" fill="black"/>
<path d="M53.2575 37L53.0671 38.1271L53.8117 38.2633L54.0021 37.1362L53.2575 37Z" fill="#2B9EE7"/>
<path d="M45.3106 88.5569L44.5889 88.4138L44.9669 86.1251L45.6886 86.2682L45.3106 88.5569ZM46.0666 83.9795L45.3449 83.8364L45.7229 81.5478L46.4446 81.6908L46.0666 83.9795ZM46.857 79.4021L46.1353 79.2591L46.5133 76.9704L47.235 77.1134L46.857 79.4021ZM47.613 74.8247L46.8913 74.6817L47.2693 72.393L47.991 72.536L47.613 74.8247ZM48.4034 70.2474L47.6817 70.1043L48.0597 67.8156L48.7814 67.9587L48.4034 70.2474ZM49.1594 65.7058L48.4377 65.5627L48.8157 63.274L49.5374 63.4171L49.1594 65.7058ZM49.9498 61.1284L49.2281 60.9853L49.6061 58.6966L50.3278 58.8397L49.9498 61.1284ZM50.7058 56.551L49.9841 56.408L50.3621 54.1193L51.0838 54.2623L50.7058 56.551ZM51.4961 51.9736L50.7745 51.8306L51.1525 49.5419L51.8742 49.6849L51.4961 51.9736ZM52.2522 47.3963L51.5305 47.2532L51.9085 44.9645L52.6302 45.1076L52.2522 47.3963ZM53.0082 42.8189L52.2865 42.7116L52.6645 40.4229L53.3862 40.566L53.0082 42.8189Z" fill="#2B9EE7"/>
<path d="M44.1904 90.7267L44 91.8537L44.7446 91.9899L44.935 90.8629L44.1904 90.7267Z" fill="#2B9EE7"/>
</svg>
