<svg width="94" height="129" viewBox="0 0 94 129" fill="none" xmlns="http://www.w3.org/2000/svg">
<path d="M89.3026 129H4.29742C1.88667 129 0 127.044 0 124.779V4.22104C0 1.85313 1.99149 0 4.29742 0H89.3026C91.7133 0 93.6 1.95608 93.6 4.22104V124.779C93.6 127.147 91.7133 129 89.3026 129Z" fill="#C8E1FF"/>
<path d="M87.6 126.6H6.50003C4.20003 126.6 2.40002 124.7 2.40002 122.5V5.39998C2.40002 3.09998 4.30003 1.29999 6.50003 1.29999H87.6C89.9 1.29999 91.7 3.19998 91.7 5.39998V122.5C91.7 124.7 89.9 126.6 87.6 126.6Z" fill="#EEF5FF"/>
<path d="M28.1874 18.6588L28.1876 18.6588C30.1722 19.0123 31.7047 19.1845 33.0735 19.3383C33.5283 19.3894 33.9651 19.4385 34.3943 19.4915C36.1142 19.704 37.7317 19.9812 39.9611 20.709C40.9262 21.024 41.8551 21.3561 42.7587 21.6792C42.904 21.7312 43.0486 21.7829 43.1926 21.8342C44.2306 22.2044 45.2372 22.5569 46.2194 22.8466C48.1828 23.4257 50.0697 23.7605 51.9568 23.4813C52.8733 23.3456 53.6863 23.2381 54.3848 23.1903C55.0861 23.1424 55.654 23.1562 56.0864 23.2538C56.5155 23.3507 56.7814 23.5227 56.9282 23.7696C57.0786 24.0224 57.1356 24.4057 57.0286 24.9922C56.8135 26.1716 56.0978 27.4742 55.3225 28.8361C55.28 28.9109 55.2372 28.9859 55.1944 29.061C54.4691 30.3328 53.7194 31.6473 53.3867 32.8889C53.0351 34.2012 52.9771 36.0733 52.9531 37.8488C52.9499 38.0898 52.9472 38.3288 52.9446 38.5646C52.9278 40.0903 52.9124 41.4791 52.7416 42.3647C52.6001 43.0984 52.3042 44.1412 51.9618 45.348C51.8197 45.8486 51.6696 46.3775 51.5192 46.9243C51.0101 48.7752 50.5024 50.8158 50.3226 52.5801C50.1938 53.8443 50.1234 55.2786 50.0581 56.6091C50.033 57.1193 50.0087 57.6142 49.9821 58.0784C49.934 58.9203 49.8786 59.659 49.799 60.2145C49.7591 60.4928 49.7143 60.7165 49.6642 60.8807C49.6392 60.9627 49.6146 61.0238 49.5919 61.067C49.5703 61.1083 49.556 61.1222 49.5544 61.1237C49.4341 61.2149 49.2282 61.2977 48.9398 61.3434C48.6539 61.3887 48.3047 61.3947 47.9168 61.3471C47.1411 61.252 46.2285 60.9452 45.3818 60.3398C43.5827 59.0532 40.8744 57.9489 38.1572 58.03C36.8576 58.0688 34.0449 57.8001 31.149 57.2735C28.2455 56.7456 25.3164 55.9683 23.7569 55.0132C20.5046 53.0211 16.1569 52.1744 13.8311 52.2487C12.689 52.2853 11.568 52.2924 10.652 52.1234C9.72997 51.9533 9.08646 51.6181 8.80043 51.0314C8.52975 50.4762 8.73734 49.9204 9.32799 49.0912C9.52765 48.8108 9.75963 48.5143 10.0157 48.1868C10.1335 48.0362 10.2565 47.879 10.3837 47.7139C10.784 47.1945 11.2176 46.6078 11.6388 45.9327L11.6394 45.9317C12.4958 44.5444 13.1809 42.5258 13.6603 40.6874C14.1399 38.8483 14.4226 37.1541 14.4608 36.4026C14.497 35.6917 14.773 33.6356 15.1147 31.5008C15.4561 29.3674 15.8572 27.1916 16.1395 26.233L16.1402 26.231L16.1445 26.2174L16.1612 26.1643C16.1759 26.1177 16.1974 26.0491 16.2248 25.9607C16.2796 25.7839 16.3581 25.5278 16.4531 25.2102C16.643 24.5752 16.8989 23.6939 17.1628 22.7091C17.6889 20.7455 18.2527 18.3487 18.3813 16.6729L18.3847 16.6291C18.4467 15.8206 18.4943 15.1995 18.5705 14.7335C18.6501 14.2466 18.7526 13.9947 18.8763 13.8735C18.9742 13.7776 19.1312 13.7236 19.4825 13.8035C19.8372 13.8842 20.3216 14.0871 20.9981 14.4133C21.95 14.8724 22.4143 15.3981 22.9174 15.9676C23.1014 16.176 23.2907 16.3903 23.5109 16.6093C24.3332 17.427 25.4893 18.1761 28.1874 18.6588Z" fill="white" stroke="#2B9EE7" stroke-width="0.5"/>
<path d="M10.504 38.4489C10.504 38.4489 9.25346 46.0601 15.2888 47.6773C21.3241 49.2944 23.6652 43.5015 23.6652 43.5015L41.0842 48.1689C41.0842 48.1689 40.3841 55.2961 49.7443 51.9629C53.1787 50.7255 53.7025 48.182 50.9141 48.3821C50.9141 48.3821 53.0009 46.6784 54.1597 48.8308C55.3185 50.9831 54.9707 54.0474 49.5501 57.5943C44.1295 61.1412 34.5318 61.0428 32.3025 54.4463C30.0731 47.8497 27.4867 53.5769 27.4867 53.5769C27.4867 53.5769 23.1772 60.6316 13.3225 54.6231C3.46771 48.6145 10.504 38.4489 10.504 38.4489Z" fill="#991721"/>
<path d="M24.6171 31.7056C24.6171 31.7056 21.3245 51.4522 29.666 53.6873C38.0075 55.9224 44.0258 41.1161 45.0783 37.1881C46.1308 33.2602 46.4729 31.9836 46.4729 31.9836L26.0117 26.501L24.6171 31.7056Z" fill="#F9BBA3"/>
<path d="M19.7181 34.2871C19.7181 34.2871 17.0503 39.7294 14.1208 40.26C14.1208 40.26 16.7975 37.925 17.1694 36.3407C17.4791 34.7923 19.0935 19.5427 32.9434 21.0436C32.9434 21.0436 32.2383 19.7495 30.3054 18.9159C28.3726 18.0822 26.4373 16.669 25.7873 15.7581C25.0883 14.8341 24.4789 12.9868 24.4789 12.9868C24.4789 12.9868 24.7903 14.9647 29.3238 16.4952C33.8572 18.0257 39.8612 18.582 41.1369 26.186C41.1369 26.186 47.0414 25.3474 50.004 29.4039C52.9665 33.4605 52.6835 37.0683 51.3152 42.1747C51.3152 42.1747 51.7309 37.2867 49.7799 35.3431C49.7799 35.3431 45.9469 43.3675 51.9954 44.9355C51.9954 44.9355 47.5964 45.6513 46.156 41.2133C46.156 41.2133 47.1046 46.3089 43.3978 50.5255C39.691 54.7421 36.9041 56.3108 35.8075 61.3847C34.711 66.4586 35.0654 68.0797 35.0654 68.0797C35.0654 68.0797 32.7383 63.6146 35.2636 57.1342C37.7888 50.6539 40.0886 48.7442 40.8637 46.6364C41.5898 44.5155 41.5753 43.196 40.4236 40.6245C39.321 38.0662 38.0652 35.0985 38.1224 33.9035C38.1224 33.9035 30.2373 44.9876 23.4905 46.8109C16.7436 48.6342 16.0317 48.0449 16.0317 48.0449C16.0317 48.0449 20.437 47.1096 19.7181 34.2871Z" fill="#D71A22"/>
<path d="M36.7168 44.8411C37.9905 45.1824 39.2999 44.4258 39.6414 43.1513C39.9829 41.8768 39.2272 40.567 37.9535 40.2257C36.6799 39.8844 35.3705 40.641 35.029 41.9155C34.6875 43.19 35.4432 44.4998 36.7168 44.8411Z" fill="white"/>
<path d="M37.0326 43.6627C37.6559 43.8297 38.2966 43.4595 38.4637 42.8358C38.6309 42.2121 38.2611 41.5712 37.6378 41.4041C37.0145 41.2371 36.3737 41.6073 36.2066 42.231C36.0395 42.8547 36.4093 43.4957 37.0326 43.6627Z" fill="#553111"/>
<path d="M37.9404 40.2749C36.959 40.0119 35.967 40.3776 35.4358 41.1825C36.0762 41.933 37.3412 42.9034 39.4739 43.5801C39.5624 43.446 39.6019 43.2987 39.6414 43.1514C39.9344 41.8617 39.1671 40.6036 37.9404 40.2749Z" fill="#F59385"/>
<path d="M35.7835 38.1182L36.3052 37.1529C36.3052 37.1529 39.4828 39.4252 40.962 39.4005C40.962 39.4005 39.9198 40.5422 35.7835 38.1182Z" fill="#553111"/>
<path d="M29.0249 48.6214C29.0249 48.6214 31.2091 49.8908 31.8004 50.6281C32.3917 51.3654 32.8308 50.9042 32.8835 50.7078C32.8835 50.7078 32.9923 50.1054 32.2598 49.6987C31.4783 49.2788 29.8626 48.6354 29.0249 48.6214Z" fill="#F59385"/>
<path d="M30.2787 45.9051C30.2787 45.9051 30.2129 46.1506 30.4941 46.2786C30.7754 46.4066 31.2565 46.3776 30.9656 46.0892C30.6257 45.7876 30.2691 45.7446 30.2787 45.9051Z" fill="#F59385"/>
<path d="M33.419 46.7465C33.419 46.7465 33.3532 46.992 33.0456 46.9622C32.7381 46.9325 32.3359 46.6668 32.732 46.5625C33.1772 46.4713 33.5075 46.6124 33.419 46.7465Z" fill="#F59385"/>
<path d="M66.1077 111.217L66.1075 111.217C64.123 110.863 62.5904 110.691 61.2216 110.537C60.7668 110.486 60.3301 110.437 59.9008 110.384C58.181 110.171 56.5634 109.894 54.3341 109.166C53.3689 108.851 52.4401 108.519 51.5364 108.196C51.3912 108.144 51.2466 108.092 51.1026 108.041C50.0645 107.671 49.058 107.318 48.0758 107.029C46.1123 106.45 44.2254 106.115 42.3384 106.394C41.4218 106.53 40.6088 106.637 39.9104 106.685C39.2091 106.733 38.6412 106.719 38.2088 106.622C37.7796 106.525 37.5137 106.353 37.3669 106.106C37.2166 105.853 37.1595 105.47 37.2665 104.883C37.4816 103.704 38.1973 102.401 38.9726 101.039C39.0152 100.964 39.0579 100.889 39.1008 100.814C39.8261 99.5425 40.5757 98.2281 40.9084 96.9865C41.26 95.6742 41.318 93.8021 41.342 92.0266C41.3453 91.7856 41.3479 91.5465 41.3505 91.3107C41.3674 89.785 41.3827 88.3962 41.5535 87.5106C41.695 86.7769 41.9909 85.7342 42.3334 84.5273C42.4754 84.0267 42.6255 83.4978 42.7759 82.951C43.285 81.1001 43.7928 79.0596 43.9725 77.2952C44.1013 76.031 44.1717 74.5967 44.2371 73.2662C44.2621 72.756 44.2864 72.2611 44.313 71.797C44.3612 70.955 44.4165 70.2163 44.4961 69.6608C44.536 69.3826 44.5808 69.1588 44.6309 68.9946C44.656 68.9127 44.6805 68.8515 44.7032 68.8083C44.7249 68.7671 44.7391 68.7532 44.7408 68.7516C44.8611 68.6604 45.0669 68.5776 45.3553 68.5319C45.6413 68.4866 45.9904 68.4807 46.3783 68.5282C47.154 68.6233 48.0666 68.9301 48.9133 69.5356C50.7125 70.8221 53.4207 71.9264 56.138 71.8454C57.4375 71.8066 60.2502 72.0753 63.1461 72.6018C66.0496 73.1297 68.9787 73.907 70.5382 74.8622C73.7906 76.8542 78.1382 77.701 80.464 77.6266C81.6061 77.5901 82.7271 77.583 83.6432 77.752C84.5652 77.9221 85.2087 78.2573 85.4947 78.844C85.7654 79.3992 85.5578 79.9549 84.9672 80.7842C84.7675 81.0645 84.5355 81.3611 84.2794 81.6885C84.1616 81.8391 84.0387 81.9963 83.9114 82.1614C83.5112 82.6809 83.0775 83.2675 82.6564 83.9426L82.6558 83.9436C81.7993 85.3309 81.1143 87.3496 80.6349 89.188C80.1553 91.0271 79.8726 92.7212 79.8343 93.4727C79.7982 94.1836 79.5221 96.2398 79.1805 98.3745C78.8391 100.508 78.4379 102.684 78.1556 103.642L78.155 103.644L78.1507 103.658L78.1339 103.711C78.1193 103.758 78.0978 103.826 78.0704 103.915C78.0156 104.091 77.937 104.348 77.8421 104.665C77.6521 105.3 77.3962 106.181 77.1323 107.166C76.6062 109.13 76.0424 111.527 75.9138 113.202L75.9105 113.246C75.8484 114.055 75.8008 114.676 75.7246 115.142C75.645 115.629 75.5426 115.881 75.4188 116.002C75.3209 116.098 75.1639 116.152 74.8126 116.072C74.4579 115.991 73.9735 115.788 73.297 115.462C72.3452 115.003 71.8808 114.477 71.3778 113.908C71.1937 113.699 71.0044 113.485 70.7842 113.266C69.962 112.448 68.8058 111.699 66.1077 111.217Z" fill="white" stroke="#2B9EE7" stroke-width="0.5"/>
<path d="M83.7911 91.4265C83.7911 91.4265 85.0417 83.8152 79.0063 82.1981C72.971 80.5809 70.63 86.3738 70.63 86.3738L53.2109 81.7064C53.2109 81.7064 53.9111 74.5792 44.5508 77.9125C41.1164 79.1498 40.5927 81.6933 43.381 81.4932C43.381 81.4932 41.2942 83.1969 40.1354 81.0446C38.9767 78.8922 39.3244 75.8279 44.745 72.281C50.1656 68.7341 59.7633 68.8325 61.9927 75.429C64.222 82.0256 66.8084 76.2984 66.8084 76.2984C66.8084 76.2984 71.1179 69.2437 80.9727 75.2523C90.8274 81.2608 83.7911 91.4265 83.7911 91.4265Z" fill="#991721"/>
<path d="M69.6781 98.1698C69.6781 98.1698 72.9707 78.4232 64.6292 76.1881C56.2877 73.953 50.2693 88.7593 49.2168 92.6872C48.1643 96.6152 47.8223 97.8918 47.8223 97.8918L68.2835 103.374L69.6781 98.1698Z" fill="#F9BBA3"/>
<path d="M74.5771 95.5882C74.5771 95.5882 77.2449 90.146 80.1744 89.6154C80.1744 89.6154 77.4977 91.9504 77.1258 93.5347C76.8161 95.0831 75.2017 110.333 61.3518 108.832C61.3518 108.832 62.0569 110.126 63.9897 110.959C65.9226 111.793 67.8579 113.206 68.5078 114.117C69.2069 115.041 69.8163 116.889 69.8163 116.889C69.8163 116.889 69.5048 114.911 64.9714 113.38C60.438 111.85 54.4339 111.293 53.1582 103.689C53.1582 103.689 47.2537 104.528 44.2912 100.471C41.3287 96.4149 41.6117 92.807 42.98 87.7007C42.98 87.7007 42.5643 92.5887 44.5152 94.5323C44.5152 94.5323 48.3483 86.5079 42.2998 84.9398C42.2998 84.9398 46.6988 84.2241 48.1392 88.6621C48.1392 88.6621 47.1906 83.5665 50.8973 79.3499C54.6041 75.1333 57.391 73.5645 58.4876 68.4906C59.5842 63.4168 59.2297 61.7957 59.2297 61.7957C59.2297 61.7957 61.5569 66.2608 59.0316 72.7411C56.5064 79.2214 54.2066 81.1312 53.4314 83.239C52.7053 85.3599 52.7199 86.6794 53.8716 89.2509C54.9742 91.8092 56.23 94.7769 56.1727 95.9719C56.1727 95.9719 64.0579 84.8878 70.8047 83.0645C77.5515 81.2412 78.2635 81.8305 78.2635 81.8305C78.2635 81.8305 73.8582 82.7657 74.5771 95.5882Z" fill="#D71A22"/>
<path d="M57.5783 85.0343C56.3047 84.693 54.9953 85.4495 54.6538 86.724C54.3123 87.9985 55.068 89.3083 56.3416 89.6496C57.6153 89.9909 58.9247 89.2344 59.2662 87.9599C59.6077 86.6854 58.852 85.3755 57.5783 85.0343Z" fill="white"/>
<path d="M57.2626 86.2126C56.6393 86.0456 55.9985 86.4159 55.8314 87.0395C55.6643 87.6632 56.0341 88.3042 56.6574 88.4712C57.2807 88.6382 57.9214 88.268 58.0885 87.6443C58.2557 87.0206 57.8859 86.3797 57.2626 86.2126Z" fill="#553111"/>
<path d="M56.3548 89.6005C57.3361 89.8635 58.3282 89.4978 58.8594 88.6929C58.219 87.9424 56.9539 86.9719 54.8213 86.2953C54.7327 86.4294 54.6933 86.5767 54.6538 86.724C54.3608 88.0137 55.1281 89.2718 56.3548 89.6005Z" fill="#F59385"/>
<path d="M58.5116 91.7572L57.99 92.7225C57.99 92.7225 54.8124 90.4502 53.3332 90.4748C53.3332 90.4748 54.3754 89.3332 58.5116 91.7572Z" fill="#553111"/>
<path d="M65.2703 81.254C65.2703 81.254 63.0861 79.9846 62.4948 79.2473C61.9035 78.51 61.4643 78.9712 61.4117 79.1676C61.4117 79.1676 61.3029 79.7699 62.0354 80.1767C62.8169 80.5966 64.4326 81.24 65.2703 81.254Z" fill="#F59385"/>
<path d="M64.0165 83.9703C64.0165 83.9703 64.0823 83.7248 63.801 83.5968C63.5198 83.4688 63.0387 83.4978 63.3296 83.7862C63.6695 84.0878 64.0261 84.1307 64.0165 83.9703Z" fill="#F59385"/>
<path d="M60.8762 83.1288C60.8762 83.1288 60.942 82.8833 61.2495 82.9131C61.5571 82.9429 61.9592 83.2085 61.5631 83.3129C61.118 83.4041 60.7876 83.263 60.8762 83.1288Z" fill="#F59385"/>
<path d="M35.3769 117.48L35.3769 117L36.7369 117L36.7369 117.48L36.3369 117.48L36.3369 121.72L36.7369 121.72L36.7369 122.2L35.3769 122.2L35.3769 121.72L35.7769 121.72L35.7769 117.48L35.3769 117.48ZM33.4603 117L34.0203 117L34.0203 122.2L33.4603 122.2L31.7243 118.2L31.7243 122.2L31.1643 122.2L31.1643 117L31.7243 117L33.4603 121L33.4603 117ZM27.0232 118C27.0232 117.253 27.4739 116.88 28.3752 116.88C29.2765 116.88 29.7272 117.253 29.7272 118L29.7272 118.68L29.1672 118.68L29.1672 117.968C29.1672 117.776 29.1005 117.627 28.9672 117.52C28.8339 117.413 28.6365 117.36 28.3752 117.36C28.1139 117.36 27.9165 117.413 27.7832 117.52C27.6499 117.627 27.5832 117.771 27.5832 117.952C27.5832 118.139 27.6045 118.285 27.6472 118.392C27.6845 118.504 27.7645 118.621 27.8872 118.744L29.2952 120.12C29.4605 120.285 29.5752 120.445 29.6392 120.6C29.6979 120.76 29.7272 120.96 29.7272 121.2C29.7272 121.557 29.6179 121.832 29.3992 122.024C29.1752 122.221 28.8392 122.32 28.3912 122.32C27.5325 122.32 27.1032 121.947 27.1032 121.2L27.1032 120.52L27.6632 120.52L27.6632 121.232C27.6632 121.424 27.7272 121.573 27.8552 121.68C27.9779 121.787 28.1645 121.84 28.4152 121.84C28.6659 121.84 28.8552 121.787 28.9832 121.68C29.1059 121.573 29.1672 121.427 29.1672 121.24C29.1672 121.053 29.1485 120.907 29.1112 120.8C29.0739 120.693 28.9912 120.581 28.8632 120.464L27.4312 119.088C27.2765 118.917 27.1699 118.752 27.1112 118.592C27.0525 118.437 27.0232 118.24 27.0232 118ZM22.9828 121.2L22.9828 118C22.9828 117.643 23.0975 117.365 23.3268 117.168C23.5508 116.976 23.8895 116.88 24.3428 116.88C24.7908 116.88 25.1295 116.976 25.3588 117.168C25.5881 117.365 25.7028 117.643 25.7028 118L25.7028 121.2C25.7028 121.557 25.5908 121.832 25.3668 122.024C25.1375 122.221 24.7988 122.32 24.3508 122.32C23.8975 122.32 23.5561 122.221 23.3268 122.024C23.0975 121.832 22.9828 121.557 22.9828 121.2ZM23.5428 118L23.5428 121.2C23.5428 121.627 23.8095 121.84 24.3428 121.84C24.8761 121.84 25.1428 121.627 25.1428 121.2L25.1428 118C25.1428 117.573 24.8761 117.36 24.3428 117.36C23.8095 117.36 23.5428 117.573 23.5428 118ZM20.9447 117L21.5047 117L21.5047 122.2L20.6647 122.2L19.7527 118.768L18.8327 122.2L17.9927 122.2L17.9927 117L18.5527 117L18.5527 121.304L19.4887 117.8L20.0087 117.8L20.9447 121.304L20.9447 117ZM15.8353 117L16.3953 117L16.3953 122.2L15.8353 122.2L14.0993 118.2L14.0993 122.2L13.5393 122.2L13.5393 117L14.0993 117L15.8353 121L15.8353 117ZM10.8222 117.48L10.8222 117L12.1822 117L12.1822 117.48L11.7822 117.48L11.7822 121.72L12.1822 121.72L12.1822 122.2L10.8222 122.2L10.8222 121.72L11.2222 121.72L11.2222 117.48L10.8222 117.48ZM7.10562 117L9.46562 117L9.46562 122.2L7.18562 122.2L7.18562 121.72L8.90562 121.72L8.90562 119.88L7.50562 119.88L7.50562 119.4L8.90562 119.4L8.90562 117.48L7.10562 117.48L7.10562 117Z" fill="#D71A22"/>
<path d="M59.1231 10.52V11H57.7631V10.52H58.1631V6.28H57.7631V5.8H59.1231V6.28H58.7231V10.52H59.1231ZM61.0397 11H60.4797V5.8H61.0397L62.7757 9.8V5.8H63.3357V11L62.7757 11L61.0397 7V11ZM67.4768 10C67.4768 10.7467 67.0261 11.12 66.1248 11.12C65.2235 11.12 64.7728 10.7467 64.7728 10V9.32H65.3328V10.032C65.3328 10.224 65.3995 10.3733 65.5328 10.48C65.6661 10.5867 65.8635 10.64 66.1248 10.64C66.3861 10.64 66.5835 10.5867 66.7168 10.48C66.8501 10.3733 66.9168 10.2293 66.9168 10.048C66.9168 9.86133 66.8955 9.71467 66.8528 9.608C66.8155 9.496 66.7355 9.37867 66.6128 9.256L65.2048 7.88C65.0395 7.71467 64.9248 7.55467 64.8608 7.4C64.8021 7.24 64.7728 7.04 64.7728 6.8C64.7728 6.44267 64.8821 6.168 65.1008 5.976C65.3248 5.77867 65.6608 5.68 66.1088 5.68C66.9675 5.68 67.3968 6.05333 67.3968 6.8V7.48H66.8368V6.768C66.8368 6.576 66.7728 6.42667 66.6448 6.32C66.5221 6.21333 66.3355 6.16 66.0848 6.16C65.8341 6.16 65.6448 6.21333 65.5168 6.32C65.3941 6.42667 65.3328 6.57333 65.3328 6.76C65.3328 6.94667 65.3515 7.09333 65.3888 7.2C65.4261 7.30667 65.5088 7.41867 65.6368 7.536L67.0688 8.912C67.2235 9.08267 67.3301 9.248 67.3888 9.408C67.4475 9.56267 67.4768 9.76 67.4768 10ZM71.5172 6.8V10C71.5172 10.3573 71.4025 10.6347 71.1732 10.832C70.9492 11.024 70.6105 11.12 70.1572 11.12C69.7092 11.12 69.3705 11.024 69.1412 10.832C68.9119 10.6347 68.7972 10.3573 68.7972 10V6.8C68.7972 6.44267 68.9092 6.168 69.1332 5.976C69.3625 5.77867 69.7012 5.68 70.1492 5.68C70.6025 5.68 70.9439 5.77867 71.1732 5.976C71.4025 6.168 71.5172 6.44267 71.5172 6.8ZM70.9572 10V6.8C70.9572 6.37333 70.6905 6.16 70.1572 6.16C69.6239 6.16 69.3572 6.37333 69.3572 6.8V10C69.3572 10.4267 69.6239 10.64 70.1572 10.64C70.6905 10.64 70.9572 10.4267 70.9572 10ZM73.5553 11H72.9953V5.8H73.8353L74.7473 9.232L75.6673 5.8L76.5073 5.8V11H75.9473V6.696L75.0113 10.2H74.4913L73.5553 6.696V11ZM78.6647 11H78.1047V5.8H78.6647L80.4007 9.8V5.8H80.9607V11H80.4007L78.6647 7V11ZM83.6778 10.52V11H82.3178V10.52H82.7178V6.28H82.3178V5.8H83.6778V6.28H83.2778V10.52H83.6778ZM87.3944 11H85.0344V5.8L87.3144 5.8V6.28L85.5944 6.28V8.12H86.9944V8.6H85.5944V10.52H87.3944V11Z" fill="#D71A22"/>
<path d="M8.44 8.64H8.14V5.46H8.44V5.1H7.42V5.46H7.72V8.64H7.42V9H8.44V8.64Z" fill="#D71A22"/>
<path d="M87.44 124.64V125H86.42V124.64H86.72V121.46H86.42V121.1H87.44V121.46H87.14V124.64H87.44Z" fill="#D71A22"/>
</svg>
