<svg width="93" height="129" viewBox="0 0 93 129" fill="none" xmlns="http://www.w3.org/2000/svg">
<path d="M88.7301 129H4.26988C1.87458 129 0 127.044 0 124.779V4.22104C0 1.85313 1.97872 0 4.26988 0H88.7301C91.1254 0 93 1.95608 93 4.22104V124.779C93 127.147 91.1254 129 88.7301 129Z" fill="#C8E1FF"/>
<path d="M87.2 126.6H6.10001C3.80001 126.6 2 124.7 2 122.5V5.39998C2 3.09998 3.90001 1.29999 6.10001 1.29999H87.2C89.5 1.29999 91.3 3.19998 91.3 5.39998V122.5C91.4 124.7 89.5 126.6 87.2 126.6Z" fill="#EEF5FF"/>
<path d="M40.496 5.8H41.336L42.512 11H41.952L41.68 9.8H40.152L39.88 11H39.32L40.496 5.8ZM40.912 6.424L40.256 9.32H41.568L40.912 6.424ZM43.6281 5.8H44.8361C45.2521 5.8 45.5668 5.89867 45.7801 6.096C45.9988 6.29333 46.1081 6.568 46.1081 6.92V7.4C46.1081 7.85333 45.9188 8.144 45.5401 8.272C45.9721 8.38933 46.1881 8.68533 46.1881 9.16V9.88C46.1881 10.2373 46.0815 10.5147 45.8681 10.712C45.6548 10.904 45.3375 11 44.9161 11H43.6281V5.8ZM45.6281 9.88V9.16C45.6281 8.98933 45.5641 8.83467 45.4361 8.696C45.3081 8.552 45.1348 8.48 44.9161 8.48H44.1881V10.52H44.9161C45.1401 10.52 45.3135 10.4587 45.4361 10.336C45.5641 10.208 45.6281 10.056 45.6281 9.88ZM45.5481 7.4V6.92C45.5481 6.74933 45.4841 6.6 45.3561 6.472C45.2335 6.344 45.0601 6.28 44.8361 6.28H44.1881V8.08H44.8361C45.0601 8.08 45.2335 8.01067 45.3561 7.872C45.4841 7.73333 45.5481 7.576 45.5481 7.4ZM50.2112 10C50.2112 10.7467 49.7605 11.12 48.8592 11.12C47.9579 11.12 47.5072 10.7467 47.5072 10V9.32H48.0672V10.032C48.0672 10.224 48.1339 10.3733 48.2672 10.48C48.4005 10.5867 48.5979 10.64 48.8592 10.64C49.1205 10.64 49.3179 10.5867 49.4512 10.48C49.5845 10.3733 49.6512 10.2293 49.6512 10.048C49.6512 9.86133 49.6299 9.71467 49.5872 9.608C49.5499 9.496 49.4699 9.37867 49.3472 9.256L47.9392 7.88C47.7739 7.71467 47.6592 7.55467 47.5952 7.4C47.5365 7.24 47.5072 7.04 47.5072 6.8C47.5072 6.44267 47.6165 6.168 47.8352 5.976C48.0592 5.77867 48.3952 5.68 48.8432 5.68C49.7019 5.68 50.1312 6.05333 50.1312 6.8V7.48H49.5712V6.768C49.5712 6.576 49.5072 6.42667 49.3792 6.32C49.2565 6.21333 49.0699 6.16 48.8192 6.16C48.5685 6.16 48.3792 6.21333 48.2512 6.32C48.1285 6.42667 48.0672 6.57333 48.0672 6.76C48.0672 6.94667 48.0859 7.09333 48.1232 7.2C48.1605 7.30667 48.2432 7.41867 48.3712 7.536L49.8032 8.912C49.9579 9.08267 50.0645 9.248 50.1232 9.408C50.1819 9.56267 50.2112 9.76 50.2112 10ZM54.0116 11H51.6516V5.8H53.9316V6.28H52.2116V8.12H53.6116V8.6H52.2116V10.52H54.0116V11ZM55.7741 11H55.2141V5.8H55.7741L57.5101 9.8V5.8H58.0701V11H57.5101L55.7741 7V11ZM61.6272 10V9.56H62.1872V10C62.1872 10.3573 62.0779 10.6347 61.8592 10.832C61.6405 11.024 61.3125 11.12 60.8752 11.12C60.4379 11.12 60.1072 11.024 59.8832 10.832C59.6592 10.6347 59.5472 10.3573 59.5472 10V6.8C59.5472 6.44267 59.6565 6.168 59.8752 5.976C60.0939 5.77867 60.4219 5.68 60.8592 5.68C61.2965 5.68 61.6272 5.77867 61.8512 5.976C62.0752 6.168 62.1872 6.44267 62.1872 6.8V7.56H61.6272V6.8C61.6272 6.37333 61.3739 6.16 60.8672 6.16C60.3605 6.16 60.1072 6.37333 60.1072 6.8V10C60.1072 10.4267 60.3605 10.64 60.8672 10.64C61.3739 10.64 61.6272 10.4267 61.6272 10ZM65.9491 11H63.5891V5.8H65.8691V6.28H64.1491V8.12H65.5491V8.6H64.1491V10.52H65.9491V11Z" fill="black"/>
<path d="M70.2833 11H68.9953V5.8H70.2833C70.6993 5.8 71.014 5.89867 71.2273 6.096C71.446 6.29333 71.5553 6.568 71.5553 6.92V9.88C71.5553 10.2373 71.4486 10.5147 71.2353 10.712C71.022 10.904 70.7046 11 70.2833 11ZM70.9953 9.88V6.92C70.9953 6.74933 70.9313 6.6 70.8033 6.472C70.6806 6.344 70.5073 6.28 70.2833 6.28H69.5553V10.52H70.2833C70.5073 10.52 70.6806 10.4587 70.8033 10.336C70.9313 10.208 70.9953 10.056 70.9953 9.88ZM72.9144 5.672H73.6344V6.432L73.2424 7.44L72.9864 7.392L73.1064 6.552L72.9144 6.48V5.672ZM76.2325 10.52V11H74.8725V10.52H75.2725V6.28H74.8725V5.8H76.2325V6.28H75.8325V10.52H76.2325ZM78.8771 11H77.5891V5.8H78.8771C79.2931 5.8 79.6077 5.89867 79.8211 6.096C80.0397 6.29333 80.1491 6.568 80.1491 6.92V9.88C80.1491 10.2373 80.0424 10.5147 79.8291 10.712C79.6157 10.904 79.2984 11 78.8771 11ZM79.5891 9.88V6.92C79.5891 6.74933 79.5251 6.6 79.3971 6.472C79.2744 6.344 79.1011 6.28 78.8771 6.28H78.1491V10.52H78.8771C79.1011 10.52 79.2744 10.4587 79.3971 10.336C79.5251 10.208 79.5891 10.056 79.5891 9.88ZM83.9881 11H81.6281V5.8H83.9081V6.28H82.1881V8.12H83.5881V8.6H82.1881V10.52H83.9881V11ZM83.5561 4.656L83.2521 4.96L82.3481 5.416L82.1401 5.208L83.1241 4.224L83.5561 4.656ZM87.5506 11H85.1906V5.8H87.4706V6.28H85.7506V8.12H87.1506V8.6H85.7506V10.52H87.5506V11Z" fill="#D71A22"/>
<path d="M53.504 122.2L52.664 122.2L51.488 117L52.048 117L52.32 118.2L53.848 118.2L54.12 117L54.68 117L53.504 122.2ZM53.088 121.576L53.744 118.68L52.432 118.68L53.088 121.576ZM50.3719 122.2L49.1639 122.2C48.7479 122.2 48.4332 122.101 48.2199 121.904C48.0012 121.707 47.8919 121.432 47.8919 121.08L47.8919 120.6C47.8919 120.147 48.0812 119.856 48.4599 119.728C48.0279 119.611 47.8119 119.315 47.8119 118.84L47.8119 118.12C47.8119 117.763 47.9185 117.485 48.1319 117.288C48.3452 117.096 48.6625 117 49.0839 117L50.3719 117L50.3719 122.2ZM48.3719 118.12L48.3719 118.84C48.3719 119.011 48.4359 119.165 48.5639 119.304C48.6919 119.448 48.8652 119.52 49.0839 119.52L49.8119 119.52L49.8119 117.48L49.0839 117.48C48.8599 117.48 48.6865 117.541 48.5639 117.664C48.4359 117.792 48.3719 117.944 48.3719 118.12ZM48.4519 120.6L48.4519 121.08C48.4519 121.251 48.5159 121.4 48.6439 121.528C48.7665 121.656 48.9399 121.72 49.1639 121.72L49.8119 121.72L49.8119 119.92L49.1639 119.92C48.9399 119.92 48.7665 119.989 48.6439 120.128C48.5159 120.267 48.4519 120.424 48.4519 120.6ZM43.7888 118C43.7888 117.253 44.2395 116.88 45.1408 116.88C46.0421 116.88 46.4928 117.253 46.4928 118L46.4928 118.68L45.9328 118.68L45.9328 117.968C45.9328 117.776 45.8661 117.627 45.7328 117.52C45.5995 117.413 45.4021 117.36 45.1408 117.36C44.8795 117.36 44.6821 117.413 44.5488 117.52C44.4155 117.627 44.3488 117.771 44.3488 117.952C44.3488 118.139 44.3701 118.285 44.4128 118.392C44.4501 118.504 44.5301 118.621 44.6528 118.744L46.0608 120.12C46.2261 120.285 46.3408 120.445 46.4048 120.6C46.4635 120.76 46.4928 120.96 46.4928 121.2C46.4928 121.557 46.3835 121.832 46.1648 122.024C45.9408 122.221 45.6048 122.32 45.1568 122.32C44.2981 122.32 43.8688 121.947 43.8688 121.2L43.8688 120.52L44.4288 120.52L44.4288 121.232C44.4288 121.424 44.4928 121.573 44.6208 121.68C44.7435 121.787 44.9301 121.84 45.1808 121.84C45.4315 121.84 45.6208 121.787 45.7488 121.68C45.8715 121.573 45.9328 121.427 45.9328 121.24C45.9328 121.053 45.9141 120.907 45.8768 120.8C45.8395 120.693 45.7568 120.581 45.6288 120.464L44.1968 119.088C44.0421 118.917 43.9355 118.752 43.8768 118.592C43.8181 118.437 43.7888 118.24 43.7888 118ZM39.9884 117L42.3484 117L42.3484 122.2L40.0684 122.2L40.0684 121.72L41.7884 121.72L41.7884 119.88L40.3884 119.88L40.3884 119.4L41.7884 119.4L41.7884 117.48L39.9884 117.48L39.9884 117ZM38.2259 117L38.7859 117L38.7859 122.2L38.2259 122.2L36.4899 118.2L36.4899 122.2L35.9299 122.2L35.9299 117L36.4899 117L38.2259 121L38.2259 117ZM32.3728 118L32.3728 118.44L31.8128 118.44L31.8128 118C31.8128 117.643 31.9221 117.365 32.1408 117.168C32.3595 116.976 32.6875 116.88 33.1248 116.88C33.5621 116.88 33.8928 116.976 34.1168 117.168C34.3408 117.365 34.4528 117.643 34.4528 118L34.4528 121.2C34.4528 121.557 34.3435 121.832 34.1248 122.024C33.9061 122.221 33.5781 122.32 33.1408 122.32C32.7035 122.32 32.3728 122.221 32.1488 122.024C31.9248 121.832 31.8128 121.557 31.8128 121.2L31.8128 120.44L32.3728 120.44L32.3728 121.2C32.3728 121.627 32.6261 121.84 33.1328 121.84C33.6395 121.84 33.8928 121.627 33.8928 121.2L33.8928 118C33.8928 117.573 33.6395 117.36 33.1328 117.36C32.6261 117.36 32.3728 117.573 32.3728 118ZM28.0509 117L30.4109 117L30.4109 122.2L28.1309 122.2L28.1309 121.72L29.8509 121.72L29.8509 119.88L28.4509 119.88L28.4509 119.4L29.8509 119.4L29.8509 117.48L28.0509 117.48L28.0509 117Z" fill="black"/>
<path d="M23.7167 117L25.0047 117L25.0047 122.2L23.7167 122.2C23.3007 122.2 22.986 122.101 22.7727 121.904C22.554 121.707 22.4447 121.432 22.4447 121.08L22.4447 118.12C22.4447 117.763 22.5514 117.485 22.7647 117.288C22.978 117.096 23.2954 117 23.7167 117ZM23.0047 118.12L23.0047 121.08C23.0047 121.251 23.0687 121.4 23.1967 121.528C23.3194 121.656 23.4927 121.72 23.7167 121.72L24.4447 121.72L24.4447 117.48L23.7167 117.48C23.4927 117.48 23.3194 117.541 23.1967 117.664C23.0687 117.792 23.0047 117.944 23.0047 118.12ZM21.0856 122.328L20.3656 122.328L20.3656 121.568L20.7576 120.56L21.0136 120.608L20.8936 121.448L21.0856 121.52L21.0856 122.328ZM17.7675 117.48L17.7675 117L19.1275 117L19.1275 117.48L18.7275 117.48L18.7275 121.72L19.1275 121.72L19.1275 122.2L17.7675 122.2L17.7675 121.72L18.1675 121.72L18.1675 117.48L17.7675 117.48ZM15.1229 117L16.4109 117L16.4109 122.2L15.1229 122.2C14.7069 122.2 14.3923 122.101 14.1789 121.904C13.9603 121.707 13.8509 121.432 13.8509 121.08L13.8509 118.12C13.8509 117.763 13.9576 117.485 14.1709 117.288C14.3843 117.096 14.7016 117 15.1229 117ZM14.4109 118.12L14.4109 121.08C14.4109 121.251 14.4749 121.4 14.6029 121.528C14.7256 121.656 14.8989 121.72 15.1229 121.72L15.8509 121.72L15.8509 117.48L15.1229 117.48C14.8989 117.48 14.7256 117.541 14.6029 117.664C14.4749 117.792 14.4109 117.944 14.4109 118.12ZM10.0119 117L12.3719 117L12.3719 122.2L10.0919 122.2L10.0919 121.72L11.8119 121.72L11.8119 119.88L10.4119 119.88L10.4119 119.4L11.8119 119.4L11.8119 117.48L10.0119 117.48L10.0119 117ZM10.4439 123.344L10.7479 123.04L11.6519 122.584L11.8599 122.792L10.8759 123.776L10.4439 123.344ZM6.44937 117L8.80937 117L8.80937 122.2L6.52937 122.2L6.52937 121.72L8.24937 121.72L8.24937 119.88L6.84937 119.88L6.84937 119.4L8.24937 119.4L8.24937 117.48L6.44937 117.48L6.44937 117Z" fill="#D71A22"/>
<path d="M7.122 5.1L6.24 9H6.66L6.864 8.1H8.01L8.214 9H8.634L7.752 5.1H7.122ZM7.434 5.568L7.926 7.74H6.942L7.434 5.568ZM10.3111 8.64H10.0111V5.46H10.3111V5.1H9.29109V5.46H9.59109V8.64H9.29109V9H10.3111V8.64Z" fill="#D71A22"/>
<path d="M86.878 124.9L87.76 121L87.34 121L87.136 121.9L85.99 121.9L85.786 121L85.366 121L86.248 124.9L86.878 124.9ZM86.566 124.432L86.074 122.26L87.058 122.26L86.566 124.432ZM83.6889 121.36L83.9889 121.36L83.9889 124.54L83.6889 124.54L83.6889 124.9L84.7089 124.9L84.7089 124.54L84.4089 124.54L84.4089 121.36L84.7089 121.36L84.7089 121L83.6889 121L83.6889 121.36Z" fill="#D71A22"/>
<path d="M11.37 45.394C11.2988 45.0198 11.1477 44.644 10.8057 44.5349C10.1531 44.3264 9.35284 44.0461 8.98749 43.8315C8.64567 43.6303 8.83701 42.9211 9.01434 42.5316C9.19336 42.1416 9.50933 41.996 9.81909 42.1391C10.1536 42.2935 10.5271 42.4319 11.343 42.8956C11.8451 43.1813 11.7041 43.6115 12.2725 45.0091C12.1974 45.2968 11.6407 45.5261 11.37 45.394Z" fill="#FBCA8E"/>
<path d="M10.4414 42.7007C9.65472 42.099 9.22221 41.7041 8.93327 41.4055C8.64647 41.1081 8.5376 40.9536 8.38676 41.1355C8.23592 41.3174 8.91743 42.2023 8.91743 42.2023C8.91743 42.2023 7.30114 41.7959 7.22262 42.2433C7.12192 42.8214 7.08744 43.1322 7.61257 43.4098C8.13601 43.6879 9.20428 43.7724 9.74819 44.0593C10.2942 44.3475 10.5948 43.7475 10.4414 42.7007Z" fill="#FBCA8E"/>
<path d="M6.47538 38.2803C6.39037 38.0146 6.31927 37.7469 6.26084 37.4794C6.20242 37.2119 6.18754 36.9451 6.21405 36.678C6.24057 36.4108 6.32147 36.1378 6.45462 35.8578C6.58777 35.5779 6.79776 35.295 7.08414 35.0076C7.19952 34.8877 7.36548 34.7215 7.58461 34.512C7.80375 34.3025 8.01434 34.0682 8.2176 33.8071C8.42132 33.5476 8.58212 33.2763 8.7 32.9933C8.82001 32.7115 8.83537 32.4365 8.75037 32.1708C8.65682 31.8803 8.46974 31.684 8.18669 31.586C7.90365 31.488 7.6108 31.4865 7.30691 31.5837C7.07942 31.6565 6.89744 31.7638 6.76097 31.9057C6.6245 32.0476 6.51614 32.1999 6.4368 32.3659C6.35701 32.5302 6.29661 32.6929 6.2573 32.8535C6.21753 33.0123 6.17349 33.1489 6.1264 33.261L3.30737 32.3626C3.38954 31.4845 3.71701 30.7183 4.28888 30.0607C4.86075 29.4031 5.60167 28.9287 6.51378 28.6387C6.9952 28.4841 7.5047 28.3995 8.04306 28.381C8.58142 28.3626 9.09942 28.4417 9.5954 28.6189C10.0914 28.7961 10.5416 29.0905 10.9454 29.5059C11.3509 29.9208 11.6665 30.4829 11.8922 31.1923C12.0866 31.8 12.1535 32.3902 12.0907 32.9615C12.0278 33.5328 11.7739 34.0985 11.3243 34.6614C11.1062 34.9411 10.8741 35.1956 10.6271 35.429C10.3802 35.6623 10.1563 35.8876 9.95382 36.1052C9.75179 36.3245 9.59559 36.5332 9.48492 36.7366C9.37594 36.9396 9.35357 37.1425 9.41782 37.3452L6.47538 38.2803ZM8.10351 43.184L7.10817 40.0666L10.0526 39.1256L11.0475 42.2413L8.10351 43.184Z" fill="#2B9EE7"/>
<path d="M24.5876 40.1293C22.9735 40.9173 20.6945 41.8161 19.2198 45.8464C17.7467 49.8762 16.4251 52.9242 16.0902 54.0011C15.7536 55.0785 15.4868 56.7831 16.9411 57.768C18.3954 58.7529 19.9652 56.6753 21.1526 54.2217C22.3401 51.768 23.5008 49.0238 24.1082 47.1379C24.7161 45.2537 25.2108 40.7141 24.5876 40.1293Z" fill="#D71A22"/>
<path d="M11.0125 45.2945C11.3546 45.2248 12.1419 44.8479 12.4103 44.5871C13.0748 45.6481 14.6696 48.2754 15.9869 50.2021C17.7688 52.8074 20.6331 55.1774 19.0122 56.9746C17.5624 58.5845 16.391 58.0551 14.84 55.1179C13.152 51.9166 11.0125 45.2945 11.0125 45.2945Z" fill="#D71A22"/>
<path d="M35.4004 29.7013C34.0658 31.8069 30.1308 39.4968 29.8552 40.4601C29.5796 41.4233 34.3693 46.0905 34.8758 44.7954C35.5108 43.1764 37.9778 37.6194 38.9478 34.566C39.6954 32.2141 39.9753 30.5908 40.014 29.7119C40.0843 28.1475 39.6146 27.0857 38.3628 27.0963C37.3173 27.1085 36.2897 28.3001 35.4004 29.7013Z" fill="#D71A22"/>
<path d="M26.2935 39.1285C22.6288 40.0563 21.0813 42.3282 21.2734 45.1408C21.4649 47.9518 24.9944 61.725 25.452 63.1728C25.909 64.6189 35.4722 63.2362 40.1319 59.1743C39.3481 57.1185 35.5032 45.4549 35.1171 44.2693C34.731 43.0837 32.2834 37.6107 26.2935 39.1285Z" fill="#FF664E"/>
<path d="M28.0893 39.5311L26.4061 34.5178L23.4757 35.464L24.4042 40.5565C25.3946 40.7327 27.2606 40.2334 28.0893 39.5311Z" fill="#EEAB67"/>
<path d="M20.5511 33.3162C21.1048 34.0698 21.2764 34.7199 20.7915 35.1138C20.3084 35.5071 19.0328 35.5098 18.4791 34.7561C17.9233 34.0013 17.867 33.0725 18.3502 32.6791C18.8334 32.2857 19.9974 32.5626 20.5511 33.3162Z" fill="#FBCA8E"/>
<path d="M19.4655 34.6861C20.693 37.4496 23.2757 38.8257 26.1068 37.7802C28.6817 36.8279 29.502 32.6419 28.6595 29.2572C27.8171 25.8726 25.2887 23.7017 22.1156 24.6184C17.2575 26.0228 16.8792 28.8627 19.4655 34.6861Z" fill="#FBCA8E"/>
<path d="M27.501 31.1344C27.3933 32.0646 27.5678 32.7121 28.1844 32.8149C28.7988 32.9166 29.907 32.2862 30.0147 31.356C30.1224 30.4258 29.7106 29.5902 29.0962 29.4886C28.4802 29.3874 27.6091 30.206 27.501 31.1344Z" fill="#FBCA8E"/>
<path d="M23.1915 31.9814C23.9224 31.6162 24.6093 31.5664 24.9099 32.1001C25.2105 32.6338 24.5243 33.1962 23.9029 33.4467C23.2815 33.6972 22.6228 32.2663 23.1915 31.9814Z" fill="url(#paint0_linear)"/>
<path d="M22.8817 32.1832C23.1412 31.9825 23.4399 31.8199 23.7695 31.7374C24.0923 31.6567 24.4653 31.6345 24.7873 31.8356C24.9433 31.9376 25.0547 32.1347 25.0401 32.3264C25.0323 32.5163 24.9529 32.6823 24.8515 32.8201C24.6515 33.1002 24.3768 33.2978 24.0938 33.4651C24.3351 33.2442 24.5715 33.0119 24.7332 32.744C24.8107 32.6109 24.8719 32.4643 24.8681 32.3245C24.8715 32.1846 24.8001 32.0614 24.6835 31.9849C24.5694 31.904 24.4165 31.8662 24.2662 31.8512C24.1138 31.835 23.9552 31.8493 23.7994 31.8737C23.4857 31.9284 23.1788 32.0409 22.8817 32.1832Z" fill="#A56052"/>
<path d="M22.2859 29.9824C22.5007 30.4925 23.222 31.9677 21.7652 32.4981C20.3067 33.029 20.1702 31.1291 20.1702 31.1291C20.1702 31.1291 21.6228 30.2388 22.2859 29.9824Z" fill="url(#paint1_linear)"/>
<path d="M22.3504 32.1745C22.3516 32.2915 22.2585 32.3872 22.1415 32.3884C22.0245 32.3896 21.9287 32.2965 21.9275 32.1795C21.9263 32.0625 22.0194 31.9667 22.1364 31.9656C22.2534 31.9644 22.3492 32.0574 22.3504 32.1745Z" fill="#643619"/>
<path d="M21.9376 29.9761C20.2592 30.5615 19.5064 31.4958 20.5915 31.1913C21.6765 30.8867 23.0454 29.5895 21.9376 29.9761Z" fill="#994D1D"/>
<path d="M23.9631 29.5255C24.0367 30.0741 24.1631 31.7113 25.6877 31.4297C27.2139 31.1475 26.3681 29.4409 26.3681 29.4409C26.3681 29.4409 24.663 29.4107 23.9631 29.5255Z" fill="url(#paint2_linear)"/>
<path d="M25.0175 31.448C25.0758 31.5494 25.2046 31.5848 25.306 31.5265C25.4075 31.4681 25.4428 31.3394 25.3845 31.2379C25.3262 31.1364 25.1974 31.1011 25.096 31.1594C24.9945 31.2178 24.9592 31.3465 25.0175 31.448Z" fill="#643619"/>
<path d="M24.2586 29.3439C26.0019 28.9973 27.1246 29.4208 26.035 29.7086C24.947 29.9959 23.1094 29.5721 24.2586 29.3439Z" fill="#994D1D"/>
<path d="M21.0065 33.1327C21.0377 33.2469 20.7658 33.4221 20.3978 33.5223C20.0297 33.6226 19.7071 33.6112 19.6755 33.4952C19.6444 33.3809 19.9162 33.2058 20.2843 33.1055C20.6523 33.0053 20.9749 33.0167 21.0065 33.1327Z" fill="#F4A29D"/>
<path d="M28.0213 31.2219C28.0524 31.3362 27.7806 31.5114 27.4125 31.6116C27.0445 31.7119 26.7218 31.7005 26.6902 31.5845C26.6591 31.4702 26.9309 31.2951 27.299 31.1948C27.6654 31.095 27.9897 31.106 28.0213 31.2219Z" fill="#F4A29D"/>
<path d="M20.2422 36.6228C21.2476 37.8617 22.3934 38.6418 23.4945 38.7607C25.4888 38.9775 26.9884 38.3326 28.1165 37.2184C30.6559 34.7106 27.7248 26.3093 27.7248 26.3093L26.9231 26.7064C26.9231 26.7064 28.6762 32.2675 28.1456 33.4013C27.9195 33.8836 26.3655 33.4872 24.579 33.954C22.4678 34.5074 20.9922 35.9166 20.5702 35.5803C20.0653 35.178 18.7029 32.3899 18.4798 28.9593C18.3907 27.5917 17.1726 29.2702 17.1726 29.2702C17.1726 29.2702 18.9427 35.0198 20.2422 36.6228Z" fill="#B06523"/>
<path d="M19.9994 24.8554L20.429 24.3249C20.9792 23.5414 23.2024 22.2788 24.2615 22.7539C24.0574 22.8131 24.2332 22.8952 24.0297 22.9633C25.294 22.9059 27.3898 22.8857 28.2353 25.4463C28.6189 26.6092 28.8805 28.2854 28.9632 29.4706C28.6983 29.5716 28.6783 29.4453 28.5091 29.6791C28.3781 29.861 28.3561 29.9392 28.3278 30.0805C28.0206 28.7471 27.1066 27.0752 25.8678 26.2916C25.2897 25.9255 24.161 26.4676 23.4781 26.5056C22.6226 26.5527 21.7886 26.473 21.0247 26.1142C20.1414 25.7013 19.635 25.4926 19.9994 24.8554Z" fill="#B06523"/>
<path d="M20.9121 24.1699C21.7554 24.2237 22.8128 24.1559 23.4543 24.7809L23.1942 24.7741C24.2667 25.5236 22.58 28.8155 22.1311 29.613C21.6178 30.5254 20.7974 31.1388 19.9699 31.5935C19.9076 31.4444 19.8777 31.2684 19.8703 31.0953C19.8821 30.9928 19.8835 30.8985 19.8713 30.8206C19.8659 30.9069 19.8645 31.0012 19.8703 31.0953C19.8389 31.371 19.7372 31.7002 19.6354 31.8832C19.3968 32.3128 18.9058 33.5857 19.0562 34.4293C16.8138 30.4385 15.9365 28.0129 17.4461 25.6682C18.2126 24.4792 20.3337 24.1343 20.9121 24.1699Z" fill="#B06523"/>
<path d="M23.1643 35.7655C23.3957 35.7205 23.6374 35.7197 23.8702 35.7393C24.1021 35.7556 24.3273 35.7737 24.5535 35.7626C25.0079 35.7472 25.4607 35.6599 25.9296 35.6116C25.7131 35.7049 25.4912 35.7852 25.262 35.8386C25.0343 35.897 24.7988 35.9341 24.5594 35.9433C24.32 35.9526 24.0795 35.9242 23.8508 35.88C23.6221 35.8358 23.3985 35.7902 23.1643 35.7655Z" fill="#46271E"/>
<path d="M28.9773 22.0796C28.4449 21.8148 27.6428 20.9845 26.6828 20.9463C25.7229 20.9081 24.9173 21.4633 24.4661 22.5177C24.0145 23.5704 24.3806 23.7613 24.5549 23.5658C24.7274 23.3708 25.4916 22.2727 26.0071 22.1304C26.5225 21.9882 27.1535 22.4753 28.0609 22.5856C28.9733 22.6945 29.0536 22.4722 28.9773 22.0796Z" fill="#FBCA8E"/>
<path d="M28.6894 21.4468C28.6574 21.7732 28.3628 22.3156 27.8513 22.7239C29.994 23.9564 34.2359 29.0779 35.4117 30.6044C36.5876 32.1309 39.0856 31.7845 39.7685 30.2355C40.4248 28.7479 40.1779 27.2915 36.2336 25.1381C32.6944 23.2064 28.6894 21.4468 28.6894 21.4468Z" fill="#D71A22"/>
<path d="M11.3173 43.5435C10.6965 43.8624 10.2775 43.1263 10.2998 42.7375C10.3221 42.3487 10.2411 41.9321 10.089 41.6323C9.93697 41.3325 9.86818 40.9938 10.1163 40.8775C10.3628 40.7616 10.4411 41.1952 10.7517 41.858C11.0626 42.5225 12.0045 43.1902 11.3173 43.5435Z" fill="#FBCA8E"/>
<path d="M74.2255 92.4471C74.0455 92.7826 73.9266 93.1697 74.1238 93.4695C74.4997 94.0419 74.9452 94.7629 75.0942 95.1594C75.2333 95.5306 74.6386 95.9614 74.2559 96.1525C73.8716 96.343 73.5345 96.2575 73.3838 95.9515C73.2209 95.6212 73.0178 95.2788 72.6754 94.4054C72.4649 93.8677 72.845 93.6221 73.2822 92.1786C73.5214 92.0023 74.0982 92.1743 74.2255 92.4471Z" fill="#FBCA8E"/>
<path d="M73.2533 95.1237C73.4863 96.086 73.574 96.6648 73.6108 97.0785C73.6466 97.4899 73.6341 97.6784 73.8657 97.6319C74.0972 97.5854 74.1241 96.4693 74.1241 96.4693C74.1241 96.4693 75.1245 97.8015 75.4668 97.5032C75.9086 97.1174 76.1308 96.8975 75.8974 96.3516C75.6655 95.8064 74.8886 95.0689 74.6464 94.504C74.4033 93.9367 73.7925 94.2139 73.2533 95.1237Z" fill="#FBCA8E"/>
<path d="M73.5554 101.052C73.4544 101.312 73.3413 101.565 73.2185 101.81C73.0957 102.054 72.9395 102.271 72.7509 102.462C72.5623 102.653 72.3278 102.814 72.0483 102.948C71.7687 103.082 71.4277 103.169 71.0244 103.213C70.8594 103.233 70.626 103.258 70.3239 103.283C70.0219 103.308 69.711 103.358 69.3888 103.433C69.0673 103.506 68.7718 103.616 68.5022 103.762C68.2318 103.905 68.0469 104.109 67.9459 104.369C67.8359 104.654 67.8578 104.924 68.0161 105.178C68.1744 105.432 68.401 105.617 68.6983 105.733C68.9208 105.819 69.1297 105.85 69.325 105.826C69.5202 105.802 69.7002 105.751 69.8663 105.672C70.0316 105.595 70.1808 105.506 70.3123 105.406C70.4431 105.308 70.5632 105.229 70.6703 105.172L72.2958 107.643C71.6798 108.273 70.9436 108.663 70.0857 108.814C69.2278 108.966 68.3537 108.868 67.4627 108.52C66.9914 108.337 66.5423 108.083 66.1124 107.759C65.6824 107.434 65.3297 107.047 65.0558 106.598C64.7818 106.148 64.6171 105.636 64.5645 105.059C64.5103 104.482 64.6186 103.847 64.8893 103.154C65.1204 102.559 65.4396 102.059 65.8476 101.654C66.2557 101.25 66.8087 100.97 67.5121 100.815C67.8574 100.735 68.1978 100.683 68.5365 100.657C68.8751 100.631 69.1907 100.597 69.4849 100.555C69.7798 100.512 70.0323 100.448 70.2462 100.359C70.4586 100.27 70.6035 100.127 70.6811 99.9287L73.5554 101.052ZM75.3739 96.2183L74.187 99.2665L71.3074 98.1461L72.4936 95.0995L75.3739 96.2183Z" fill="#2B9EE7"/>
<path d="M60.6446 88.2262C62.3943 88.6289 64.7302 89.3636 68.4105 87.1594C72.0892 84.9544 75.0328 83.4171 75.9702 82.7909C76.9092 82.1655 78.1885 81.0087 77.6778 79.3289C77.1671 77.6491 74.6409 78.2763 72.1753 79.4361C69.7096 80.596 67.0821 81.9984 65.4243 83.0818C63.7671 84.1636 60.528 87.3799 60.6446 88.2262Z" fill="#D71A22"/>
<path d="M74.4407 92.7491C74.131 92.5882 73.2822 92.386 72.9097 92.4199C73.0606 91.1776 73.4735 88.1332 73.6615 85.8078C73.9152 82.6629 73.1799 79.0203 75.5695 78.643C77.7084 78.3038 78.2857 79.4518 77.6439 82.7093C76.9424 86.2582 74.4407 92.7491 74.4407 92.7491Z" fill="#D71A22"/>
<path d="M45.6853 89.5296C48.0464 88.7328 55.9397 85.232 56.7595 84.6568C57.5794 84.0816 56.7926 77.4432 55.5845 78.1311C54.0731 78.9897 48.6618 81.7563 45.9881 83.5189C43.9282 84.8762 42.6898 85.9616 42.1072 86.6202C41.0688 87.7916 40.7661 88.9119 41.7454 89.6909C42.5655 90.3389 44.1132 90.0592 45.6853 89.5296Z" fill="#D71A22"/>
<path d="M58.6896 87.9312C62.1206 89.5147 64.7517 88.7225 66.3711 86.4163C67.9899 84.1116 73.9084 71.1901 74.4633 69.7774C75.0175 68.3664 66.7172 63.4271 60.5423 63.6532C59.8587 65.7434 55.5118 77.2241 55.0663 78.3881C54.6208 79.5522 53.0809 85.3439 58.6896 87.9312Z" fill="#FF664E"/>
<path d="M57.5475 86.489L55.7029 91.4429L58.5748 92.5504L61.0556 88.0095C60.3969 87.2499 58.633 86.4644 57.5475 86.489Z" fill="#EEAB67"/>
<path d="M59.4968 96.0583C59.5405 95.1246 59.8159 94.5115 60.4403 94.5104C61.0631 94.5086 62.0559 95.3087 62.0122 96.2424C61.9694 97.1785 61.429 97.9356 60.8062 97.9374C60.1834 97.9392 59.4531 96.9921 59.4968 96.0583Z" fill="#FBCA8E"/>
<path d="M61.2017 95.6766C61.9856 92.7574 60.8442 90.064 57.9869 89.0961C55.3874 88.2169 52.1177 90.9537 50.6439 94.1134C49.1702 97.2732 49.7696 100.55 52.8116 101.833C57.4697 103.797 59.5494 101.828 61.2017 95.6766Z" fill="#FBCA8E"/>
<path d="M52.7246 93.3834C53.3932 92.7283 53.6647 92.1155 53.2503 91.6478C52.8368 91.1825 51.5793 90.9755 50.9107 91.6305C50.2421 92.2856 50.0366 93.1938 50.45 93.6591C50.8651 94.1251 52.0567 94.0368 52.7246 93.3834Z" fill="#FBCA8E"/>
<path d="M56.6058 95.4351C55.8082 95.2592 55.2431 94.8661 55.3452 94.2623C55.4472 93.6586 56.3341 93.6531 56.9744 93.8492C57.6148 94.0453 57.2268 95.5714 56.6058 95.4351Z" fill="url(#paint3_linear)"/>
<path d="M56.9733 95.4732C56.6455 95.4659 56.3112 95.4044 56.0032 95.2613C55.7016 95.1211 55.3978 94.9037 55.2741 94.5449C55.217 94.3677 55.2544 94.1444 55.3862 94.0046C55.5117 93.862 55.6778 93.7829 55.8433 93.7397C56.1748 93.6477 56.5125 93.667 56.8376 93.7149C56.5112 93.7348 56.1814 93.7667 55.8873 93.8731C55.7434 93.9278 55.6037 94.0033 55.5187 94.1143C55.4281 94.2208 55.4061 94.3615 55.4485 94.4943C55.4864 94.6288 55.5814 94.7543 55.6888 94.8605C55.797 94.969 55.9292 95.0576 56.0656 95.1366C56.3438 95.2913 56.653 95.397 56.9733 95.4732Z" fill="#A56052"/>
<path d="M56.0524 97.5579C56.2063 97.0265 56.5734 95.4266 58.0389 95.9306C59.506 96.4352 58.4174 97.9973 58.4174 97.9973C58.4174 97.9973 56.7288 97.7757 56.0524 97.5579Z" fill="url(#paint4_linear)"/>
<path d="M57.3807 95.814C57.4533 95.7224 57.5859 95.7065 57.6775 95.7792C57.7692 95.8518 57.7851 95.9844 57.7124 96.076C57.6397 96.1677 57.5072 96.1836 57.4155 96.1109C57.3239 96.0382 57.308 95.9057 57.3807 95.814Z" fill="#643619"/>
<path d="M56.3191 97.7818C57.9912 98.3824 59.1638 98.1298 58.1291 97.6841C57.0945 97.2384 55.2152 97.3856 56.3191 97.7818Z" fill="#994D1D"/>
<path d="M54.4619 96.8582C54.7497 96.3857 55.681 95.034 54.3192 94.2942C52.9559 93.5536 52.5399 95.4116 52.5399 95.4116C52.5399 95.4116 53.8459 96.5073 54.4619 96.8582Z" fill="url(#paint5_linear)"/>
<path d="M54.8515 94.7014C54.8699 94.5859 54.7921 94.4775 54.6766 94.459C54.5611 94.4405 54.4527 94.5183 54.4342 94.6339C54.4157 94.7494 54.4935 94.8578 54.609 94.8763C54.7246 94.8948 54.833 94.8169 54.8515 94.7014Z" fill="#643619"/>
<path d="M54.1181 96.8135C52.5455 95.9866 51.9394 94.9516 52.967 95.4132C53.9931 95.874 55.1545 97.3589 54.1181 96.8135Z" fill="#994D1D"/>
<path d="M59.0274 95.9146C59.0751 95.8063 59.3964 95.8411 59.7454 95.9947C60.0945 96.1482 60.338 96.36 60.2896 96.4699C60.2419 96.5783 59.9206 96.5434 59.5716 96.3899C59.2225 96.2364 58.979 96.0246 59.0274 95.9146Z" fill="#F4A29D"/>
<path d="M52.3753 92.9882C52.423 92.8798 52.7443 92.9147 53.0934 93.0682C53.4424 93.2218 53.6859 93.4335 53.6375 93.5435C53.5899 93.6518 53.2685 93.617 52.9195 93.4634C52.5721 93.3106 52.3269 93.0982 52.3753 92.9882Z" fill="#F4A29D"/>
<path d="M61.816 93.6833C61.8139 92.0884 61.4141 90.7617 60.6333 89.9769C59.22 88.5544 57.6492 88.1125 56.072 88.2689C52.522 88.6207 49.5165 96.9918 49.5165 96.9918L50.3891 97.1874C50.3891 97.1874 52.5239 91.7639 53.6492 91.2166C54.1281 90.9841 55.0864 92.2692 56.768 93.0299C58.7565 93.9275 60.7892 93.7604 60.9056 94.2871C61.045 94.9172 60.3503 97.9403 58.3664 100.746C57.5757 101.865 59.5777 101.327 59.5777 101.327C59.5777 101.327 61.8178 95.746 61.816 93.6833Z" fill="#B06523"/>
<path d="M54.605 102.98L53.9376 103.122C53.0174 103.384 50.496 102.967 49.9718 101.932C50.1676 102.015 50.0826 101.84 50.2836 101.915C49.2651 101.165 47.6239 99.8627 48.5771 97.3413C49.0103 96.1966 49.8611 94.7296 50.5421 93.7567C50.8115 93.8448 50.7476 93.9555 51.0261 93.8802C51.2423 93.8212 51.3086 93.7743 51.4194 93.6823C50.8196 94.9116 50.4784 96.7854 50.9483 98.1733C51.1673 98.8213 52.3852 99.1098 52.9397 99.5097C53.634 100.011 54.232 100.598 54.5999 101.357C55.0266 102.233 55.2888 102.714 54.605 102.98Z" fill="#B06523"/>
<path d="M53.4648 102.938C52.8433 102.366 51.979 101.754 51.8737 100.865L52.0714 101.034C51.7094 99.7769 55.09 98.2797 55.9403 97.9423C56.9129 97.5561 57.9361 97.5954 58.865 97.7625C58.8197 97.9175 58.7322 98.073 58.6291 98.2122C58.5555 98.2844 58.4952 98.3568 58.4556 98.425C58.5141 98.3613 58.5744 98.289 58.6291 98.2122C58.8269 98.0177 59.113 97.8259 59.3071 97.7477C59.7627 97.5639 60.9446 96.8836 61.3582 96.1335C60.5911 100.645 59.7475 103.081 57.1001 103.954C55.7568 104.395 53.8918 103.33 53.4648 102.938Z" fill="#B06523"/>
<path d="M59.0064 92.512C58.7983 92.4014 58.61 92.2501 58.4414 92.0884C58.2714 91.93 58.1079 91.7743 57.9251 91.6406C57.5624 91.3669 57.1556 91.15 56.761 90.8927C56.9879 90.9563 57.2107 91.0334 57.4224 91.1361C57.6361 91.2339 57.8423 91.3532 58.0342 91.4965C58.226 91.6399 58.3951 91.8132 58.545 91.9913C58.6949 92.1695 58.84 92.3456 59.0064 92.512Z" fill="#46271E"/>
<path d="M45.8835 99.4908C46.1307 100.031 46.2317 101.181 46.9536 101.814C47.6755 102.448 48.6506 102.523 49.6642 101.987C50.6771 101.453 50.5127 101.075 50.2544 101.117C49.9977 101.16 48.7133 101.533 48.2234 101.319C47.7334 101.105 47.5495 100.33 46.9137 99.6739C46.2732 99.0155 46.0711 99.1377 45.8835 99.4908Z" fill="#FBCA8E"/>
<path d="M45.7092 100.164C45.9394 99.9301 46.5093 99.6938 47.1636 99.6983C46.2736 97.3932 46.1981 90.7462 46.2444 88.8207C46.2907 86.8952 44.1319 85.5936 42.6272 86.3677C41.1818 87.1109 40.4578 88.3978 42.1685 92.5514C43.7038 96.2778 45.7092 100.164 45.7092 100.164Z" fill="#D71A22"/>
<path d="M73.1028 93.9181C73.7857 94.0607 73.6483 94.8961 73.3865 95.1842C73.1247 95.4723 72.9257 95.8469 72.8553 96.1755C72.785 96.504 72.6254 96.8105 72.3595 96.7448C72.0951 96.6799 72.3068 96.2937 72.4824 95.5834C72.6586 94.8716 72.3466 93.7604 73.1028 93.9181Z" fill="#FBCA8E"/>
<defs>
<linearGradient id="paint0_linear" x1="24.8072" y1="31.9362" x2="23.5339" y2="32.7489" gradientUnits="userSpaceOnUse">
<stop stop-color="#D38278"/>
<stop offset="1" stop-color="#F6B9AD" stop-opacity="0"/>
</linearGradient>
<linearGradient id="paint1_linear" x1="21.1736" y1="30.3876" x2="21.7274" y2="32.1872" gradientUnits="userSpaceOnUse">
<stop stop-color="#DA9C68"/>
<stop offset="1" stop-color="#DA9C68" stop-opacity="0"/>
</linearGradient>
<linearGradient id="paint2_linear" x1="25.1265" y1="29.3108" x2="25.5619" y2="31.1427" gradientUnits="userSpaceOnUse">
<stop stop-color="#DA9C68"/>
<stop offset="1" stop-color="#DA9C68" stop-opacity="0"/>
</linearGradient>
<linearGradient id="paint3_linear" x1="55.3219" y1="94.4542" x2="56.8224" y2="94.6234" gradientUnits="userSpaceOnUse">
<stop stop-color="#D38278"/>
<stop offset="1" stop-color="#F6B9AD" stop-opacity="0"/>
</linearGradient>
<linearGradient id="paint4_linear" x1="57.1714" y1="97.9425" x2="57.8728" y2="96.1959" gradientUnits="userSpaceOnUse">
<stop stop-color="#DA9C68"/>
<stop offset="1" stop-color="#DA9C68" stop-opacity="0"/>
</linearGradient>
<linearGradient id="paint5_linear" x1="53.4229" y1="96.2934" x2="54.2365" y2="94.5962" gradientUnits="userSpaceOnUse">
<stop stop-color="#DA9C68"/>
<stop offset="1" stop-color="#DA9C68" stop-opacity="0"/>
</linearGradient>
</defs>
</svg>
