<svg width="93" height="129" viewBox="0 0 93 129" fill="none" xmlns="http://www.w3.org/2000/svg">
<path d="M88.7301 129H4.26988C1.87458 129 0 127.044 0 124.779V4.22104C0 1.85313 1.97872 0 4.26988 0H88.7301C91.1254 0 93 1.95608 93 4.22104V124.779C93 127.147 91.1254 129 88.7301 129Z" fill="#C8E1FF"/>
<path d="M87.2 126.8H6.10001C3.80001 126.8 2 124.9 2 122.7V5.60001C2 3.30001 3.90001 1.5 6.10001 1.5H87.2C89.5 1.5 91.3 3.40001 91.3 5.60001V122.7C91.4 124.9 89.5 126.8 87.2 126.8Z" fill="#EEF5FF"/>
<path d="M44.08 117.48L44.08 117L45.44 117L45.44 117.48L45.04 117.48L45.04 121.72L45.44 121.72L45.44 122.2L44.08 122.2L44.08 121.72L44.48 121.72L44.48 117.48L44.08 117.48ZM42.1634 117L42.7234 117L42.7234 122.2L42.1634 122.2L40.4274 118.2L40.4274 122.2L39.8674 122.2L39.8674 117L40.4274 117L42.1634 121L42.1634 117ZM35.7263 118C35.7263 117.253 36.177 116.88 37.0783 116.88C37.9796 116.88 38.4303 117.253 38.4303 118L38.4303 118.68L37.8703 118.68L37.8703 117.968C37.8703 117.776 37.8036 117.627 37.6703 117.52C37.537 117.413 37.3396 117.36 37.0783 117.36C36.817 117.36 36.6196 117.413 36.4863 117.52C36.353 117.627 36.2863 117.771 36.2863 117.952C36.2863 118.139 36.3076 118.285 36.3503 118.392C36.3876 118.504 36.4676 118.621 36.5903 118.744L37.9983 120.12C38.1636 120.285 38.2783 120.445 38.3423 120.6C38.401 120.76 38.4303 120.96 38.4303 121.2C38.4303 121.557 38.321 121.832 38.1023 122.024C37.8783 122.221 37.5423 122.32 37.0943 122.32C36.2356 122.32 35.8063 121.947 35.8063 121.2L35.8063 120.52L36.3663 120.52L36.3663 121.232C36.3663 121.424 36.4303 121.573 36.5583 121.68C36.681 121.787 36.8676 121.84 37.1183 121.84C37.369 121.84 37.5583 121.787 37.6863 121.68C37.809 121.573 37.8703 121.427 37.8703 121.24C37.8703 121.053 37.8516 120.907 37.8143 120.8C37.777 120.693 37.6943 120.581 37.5663 120.464L36.1343 119.088C35.9796 118.917 35.873 118.752 35.8143 118.592C35.7556 118.437 35.7263 118.24 35.7263 118ZM33.8059 117L34.3659 117L34.3659 122.2L33.1579 122.2C32.7419 122.2 32.4273 122.101 32.2139 121.904C31.9953 121.707 31.8859 121.432 31.8859 121.08L31.8859 119.72C31.8859 119.363 31.9926 119.085 32.2059 118.888C32.4193 118.696 32.7366 118.6 33.1579 118.6L33.8059 118.6L33.8059 117ZM32.4459 119.72L32.4459 121.08C32.4459 121.283 32.5073 121.44 32.6299 121.552C32.7526 121.664 32.9286 121.72 33.1579 121.72L33.8059 121.72L33.8059 119.08L33.1579 119.08C32.6833 119.08 32.4459 119.293 32.4459 119.72ZM29.4862 117.48L29.4862 117L30.8462 117L30.8462 117.48L30.4462 117.48L30.4462 121.72L30.8462 121.72L30.8462 122.2L29.4862 122.2L29.4862 121.72L29.8862 121.72L29.8862 117.48L29.4862 117.48ZM27.5697 117L28.1297 117L28.1297 122.2L26.9217 122.2C26.5057 122.2 26.191 122.101 25.9777 121.904C25.759 121.707 25.6497 121.432 25.6497 121.08L25.6497 119.96C25.6497 119.416 25.8844 119.069 26.3537 118.92L25.3697 117L25.9857 117L26.9217 118.84L27.5697 118.84L27.5697 117ZM26.2097 119.96L26.2097 121.08C26.2097 121.283 26.271 121.44 26.3937 121.552C26.5164 121.664 26.6924 121.72 26.9217 121.72L27.5697 121.72L27.5697 119.32L26.9217 119.32C26.447 119.32 26.2097 119.533 26.2097 119.96ZM23.5509 122.2L22.7109 122.2L21.5349 117L22.0949 117L22.3669 118.2L23.8949 118.2L24.1669 117L24.7269 117L23.5509 122.2ZM23.1349 121.576L23.7909 118.68L22.4789 118.68L23.1349 121.576ZM18.8153 122.2L18.8153 121.72L19.8553 121.72L19.8553 117L20.4153 117L20.4153 121.72L21.4553 121.72L21.4553 122.2L18.8153 122.2ZM16.6581 117.48L16.6581 117L18.0181 117L18.0181 117.48L17.6181 117.48L17.6181 121.72L18.0181 121.72L18.0181 122.2L16.6581 122.2L16.6581 121.72L17.0581 121.72L17.0581 117.48L16.6581 117.48ZM12.7016 121.2L12.7016 118C12.7016 117.643 12.8162 117.365 13.0456 117.168C13.2696 116.976 13.6082 116.88 14.0616 116.88C14.5096 116.88 14.8482 116.976 15.0776 117.168C15.3069 117.365 15.4216 117.643 15.4216 118L15.4216 121.2C15.4216 121.557 15.3096 121.832 15.0856 122.024C14.8562 122.221 14.5176 122.32 14.0696 122.32C13.6162 122.32 13.2749 122.221 13.0456 122.024C12.8162 121.832 12.7016 121.557 12.7016 121.2ZM13.2616 118L13.2616 121.2C13.2616 121.627 13.5282 121.84 14.0616 121.84C14.5949 121.84 14.8616 121.627 14.8616 121.2L14.8616 118C14.8616 117.573 14.5949 117.36 14.0616 117.36C13.5282 117.36 13.2616 117.573 13.2616 118ZM10.6634 117L11.2234 117L11.2234 122.2L10.6634 122.2L8.92744 118.2L8.92744 122.2L8.36744 122.2L8.36744 117L8.92744 117L10.6634 121L10.6634 117Z" fill="#2B9EE7"/>
<path d="M44.72 108L45.28 108L45.28 113.2L44.072 113.2C43.656 113.2 43.3413 113.101 43.128 112.904C42.9093 112.707 42.8 112.432 42.8 112.08L42.8 110.72C42.8 110.363 42.9067 110.085 43.12 109.888C43.3333 109.696 43.6507 109.6 44.072 109.6L44.72 109.6L44.72 108ZM43.36 110.72L43.36 112.08C43.36 112.283 43.4213 112.44 43.544 112.552C43.6667 112.664 43.8427 112.72 44.072 112.72L44.72 112.72L44.72 110.08L44.072 110.08C43.5973 110.08 43.36 110.293 43.36 110.72ZM40.4003 108.48L40.4003 108L41.7603 108L41.7603 108.48L41.3603 108.48L41.3603 112.72L41.7603 112.72L41.7603 113.2L40.4003 113.2L40.4003 112.72L40.8003 112.72L40.8003 108.48L40.4003 108.48ZM38.4837 108L39.0437 108L39.0437 113.2L38.4837 113.2L36.7477 109.2L36.7477 113.2L36.1877 113.2L36.1877 108L36.7477 108L38.4837 112L38.4837 108ZM32.5106 113.2L32.5106 112.72L33.5506 112.72L33.5506 108L34.1106 108L34.1106 112.72L35.1506 112.72L35.1506 113.2L32.5106 113.2ZM29.1134 108L31.4734 108L31.4734 113.2L29.1934 113.2L29.1934 112.72L30.9134 112.72L30.9134 110.88L29.5134 110.88L29.5134 110.4L30.9134 110.4L30.9134 108.48L29.1134 108.48L29.1134 108ZM27.3509 108L27.9109 108L27.9109 113.2L26.7029 113.2C26.2869 113.2 25.9723 113.101 25.7589 112.904C25.5403 112.707 25.4309 112.432 25.4309 112.08L25.4309 110.96C25.4309 110.416 25.6656 110.069 26.1349 109.92L25.1509 108L25.7669 108L26.7029 109.84L27.3509 109.84L27.3509 108ZM25.9909 110.96L25.9909 112.08C25.9909 112.283 26.0523 112.44 26.1749 112.552C26.2976 112.664 26.4736 112.72 26.7029 112.72L27.3509 112.72L27.3509 110.32L26.7029 110.32C26.2283 110.32 25.9909 110.533 25.9909 110.96ZM21.6681 108L24.0281 108L24.0281 113.2L21.7481 113.2L21.7481 112.72L23.4681 112.72L23.4681 110.88L22.0681 110.88L22.0681 110.4L23.4681 110.4L23.4681 108.48L21.6681 108.48L21.6681 108ZM17.9216 109C17.9216 108.253 18.3723 107.88 19.2736 107.88C20.175 107.88 20.6256 108.253 20.6256 109L20.6256 109.68L20.0656 109.68L20.0656 108.968C20.0656 108.776 19.999 108.627 19.8656 108.52C19.7323 108.413 19.535 108.36 19.2736 108.36C19.0123 108.36 18.815 108.413 18.6816 108.52C18.5483 108.627 18.4816 108.771 18.4816 108.952C18.4816 109.139 18.503 109.285 18.5456 109.392C18.583 109.504 18.663 109.621 18.7856 109.744L20.1936 111.12C20.359 111.285 20.4736 111.445 20.5376 111.6C20.5963 111.76 20.6256 111.96 20.6256 112.2C20.6256 112.557 20.5163 112.832 20.2976 113.024C20.0736 113.221 19.7376 113.32 19.2896 113.32C18.431 113.32 18.0016 112.947 18.0016 112.2L18.0016 111.52L18.5616 111.52L18.5616 112.232C18.5616 112.424 18.6256 112.573 18.7536 112.68C18.8763 112.787 19.063 112.84 19.3136 112.84C19.5643 112.84 19.7536 112.787 19.8816 112.68C20.0043 112.573 20.0656 112.427 20.0656 112.24C20.0656 112.053 20.047 111.907 20.0096 111.8C19.9723 111.693 19.8896 111.581 19.7616 111.464L18.3296 110.088C18.175 109.917 18.0683 109.752 18.0096 109.592C17.951 109.437 17.9216 109.24 17.9216 109ZM14.4012 113.2L14.4012 112.72L15.4412 112.72L15.4412 108L16.0012 108L16.0012 112.72L17.0412 112.72L17.0412 113.2L14.4012 113.2Z" fill="black"/>
<path d="M51.8965 51.9246L42.6245 45L43.9797 56.3693L46.5054 53.7339L48.7106 57.5294L50.5097 56.5194L48.3046 52.724L51.8965 51.9246Z" fill="#A8C909"/>
<path d="M50.92 11.52V12H49.56V11.52H49.96V7.28H49.56V6.8H50.92V7.28H50.52V11.52H50.92ZM52.8366 12H52.2766V6.8H52.8366L54.5726 10.8V6.8H55.1326V12H54.5726L52.8366 8V12ZM59.2737 11C59.2737 11.7467 58.823 12.12 57.9217 12.12C57.0204 12.12 56.5697 11.7467 56.5697 11V10.32H57.1297V11.032C57.1297 11.224 57.1964 11.3733 57.3297 11.48C57.463 11.5867 57.6604 11.64 57.9217 11.64C58.183 11.64 58.3804 11.5867 58.5137 11.48C58.647 11.3733 58.7137 11.2293 58.7137 11.048C58.7137 10.8613 58.6924 10.7147 58.6497 10.608C58.6124 10.496 58.5324 10.3787 58.4097 10.256L57.0017 8.88C56.8364 8.71467 56.7217 8.55467 56.6577 8.4C56.599 8.24 56.5697 8.04 56.5697 7.8C56.5697 7.44267 56.679 7.168 56.8977 6.976C57.1217 6.77867 57.4577 6.68 57.9057 6.68C58.7644 6.68 59.1937 7.05333 59.1937 7.8V8.48H58.6337V7.768C58.6337 7.576 58.5697 7.42667 58.4417 7.32C58.319 7.21333 58.1324 7.16 57.8817 7.16C57.631 7.16 57.4417 7.21333 57.3137 7.32C57.191 7.42667 57.1297 7.57333 57.1297 7.76C57.1297 7.94667 57.1484 8.09333 57.1857 8.2C57.223 8.30667 57.3057 8.41867 57.4337 8.536L58.8657 9.912C59.0204 10.0827 59.127 10.248 59.1857 10.408C59.2444 10.5627 59.2737 10.76 59.2737 11ZM61.1941 12H60.6341V6.8H61.8421C62.2581 6.8 62.5727 6.89867 62.7861 7.096C63.0047 7.29333 63.1141 7.568 63.1141 7.92V9.28C63.1141 9.63733 63.0074 9.91467 62.7941 10.112C62.5807 10.304 62.2634 10.4 61.8421 10.4H61.1941V12ZM62.5541 9.28V7.92C62.5541 7.71733 62.4927 7.56 62.3701 7.448C62.2474 7.336 62.0714 7.28 61.8421 7.28H61.1941V9.92H61.8421C62.3167 9.92 62.5541 9.70667 62.5541 9.28ZM65.5138 11.52V12H64.1538V11.52H64.5538V7.28H64.1538V6.8H65.5138V7.28H65.1138V11.52H65.5138ZM67.4303 12H66.8703V6.8H68.0783C68.4943 6.8 68.809 6.89867 69.0223 7.096C69.241 7.29333 69.3503 7.568 69.3503 7.92V9.04C69.3503 9.584 69.1156 9.93067 68.6463 10.08L69.6303 12H69.0143L68.0783 10.16H67.4303V12ZM68.7903 9.04V7.92C68.7903 7.71733 68.729 7.56 68.6063 7.448C68.4836 7.336 68.3076 7.28 68.0783 7.28H67.4303V9.68H68.0783C68.553 9.68 68.7903 9.46667 68.7903 9.04ZM71.4491 6.8H72.2891L73.4651 12H72.9051L72.6331 10.8H71.1051L70.8331 12H70.2731L71.4491 6.8ZM71.8651 7.424L71.2091 10.32H72.5211L71.8651 7.424ZM76.1847 6.8V7.28H75.1447V12H74.5847V7.28H73.5447V6.8H76.1847ZM78.3419 11.52V12H76.9819V11.52H77.3819V7.28H76.9819V6.8H78.3419V7.28H77.9419V11.52H78.3419ZM82.2984 7.8V11C82.2984 11.3573 82.1838 11.6347 81.9544 11.832C81.7304 12.024 81.3918 12.12 80.9384 12.12C80.4904 12.12 80.1518 12.024 79.9224 11.832C79.6931 11.6347 79.5784 11.3573 79.5784 11V7.8C79.5784 7.44267 79.6904 7.168 79.9144 6.976C80.1438 6.77867 80.4824 6.68 80.9304 6.68C81.3838 6.68 81.7251 6.77867 81.9544 6.976C82.1838 7.168 82.2984 7.44267 82.2984 7.8ZM81.7384 11V7.8C81.7384 7.37333 81.4718 7.16 80.9384 7.16C80.4051 7.16 80.1384 7.37333 80.1384 7.8V11C80.1384 11.4267 80.4051 11.64 80.9384 11.64C81.4718 11.64 81.7384 11.4267 81.7384 11ZM84.3366 12H83.7766V6.8H84.3366L86.0726 10.8V6.8H86.6326V12H86.0726L84.3366 8V12Z" fill="#2B9EE7"/>
<path d="M50.28 21H49.72V15.8H50.928C51.344 15.8 51.6587 15.8987 51.872 16.096C52.0907 16.2933 52.2 16.568 52.2 16.92V18.28C52.2 18.6373 52.0933 18.9147 51.88 19.112C51.6667 19.304 51.3493 19.4 50.928 19.4H50.28V21ZM51.64 18.28V16.92C51.64 16.7173 51.5787 16.56 51.456 16.448C51.3333 16.336 51.1573 16.28 50.928 16.28H50.28V18.92H50.928C51.4027 18.92 51.64 18.7067 51.64 18.28ZM54.5997 20.52V21H53.2397V20.52H53.6397V16.28H53.2397V15.8H54.5997V16.28H54.1997V20.52H54.5997ZM56.5163 21H55.9563V15.8H56.5163L58.2523 19.8V15.8H58.8123V21H58.2523L56.5163 17V21ZM62.4894 15.8V16.28H61.4494V21H60.8894V16.28H59.8494V15.8H62.4894ZM65.8866 21H63.5266V15.8H65.8066V16.28H64.0866V18.12H65.4866V18.6H64.0866V20.52H65.8866V21ZM67.6491 21H67.0891V15.8H68.2971C68.7131 15.8 69.0277 15.8987 69.2411 16.096C69.4597 16.2933 69.5691 16.568 69.5691 16.92V18.04C69.5691 18.584 69.3344 18.9307 68.8651 19.08L69.8491 21H69.2331L68.2971 19.16H67.6491V21ZM69.0091 18.04V16.92C69.0091 16.7173 68.9477 16.56 68.8251 16.448C68.7024 16.336 68.5264 16.28 68.2971 16.28H67.6491V18.68H68.2971C68.7717 18.68 69.0091 18.4667 69.0091 18.04ZM73.3319 21H70.9719V15.8H73.2519V16.28H71.5319V18.12H72.9319V18.6H71.5319V20.52H73.3319V21ZM77.0784 20C77.0784 20.7467 76.6277 21.12 75.7264 21.12C74.825 21.12 74.3744 20.7467 74.3744 20V19.32H74.9344V20.032C74.9344 20.224 75.001 20.3733 75.1344 20.48C75.2677 20.5867 75.465 20.64 75.7264 20.64C75.9877 20.64 76.185 20.5867 76.3184 20.48C76.4517 20.3733 76.5184 20.2293 76.5184 20.048C76.5184 19.8613 76.497 19.7147 76.4544 19.608C76.417 19.496 76.337 19.3787 76.2144 19.256L74.8064 17.88C74.641 17.7147 74.5264 17.5547 74.4624 17.4C74.4037 17.24 74.3744 17.04 74.3744 16.8C74.3744 16.4427 74.4837 16.168 74.7024 15.976C74.9264 15.7787 75.2624 15.68 75.7104 15.68C76.569 15.68 76.9984 16.0533 76.9984 16.8V17.48H76.4384V16.768C76.4384 16.576 76.3744 16.4267 76.2464 16.32C76.1237 16.2133 75.937 16.16 75.6864 16.16C75.4357 16.16 75.2464 16.2133 75.1184 16.32C74.9957 16.4267 74.9344 16.5733 74.9344 16.76C74.9344 16.9467 74.953 17.0933 74.9904 17.2C75.0277 17.3067 75.1104 17.4187 75.2384 17.536L76.6704 18.912C76.825 19.0827 76.9317 19.248 76.9904 19.408C77.049 19.5627 77.0784 19.76 77.0784 20ZM80.5988 15.8V16.28H79.5588V21H78.9988V16.28H77.9588V15.8H80.5988Z" fill="black"/>
<path d="M8.44003 9.64H8.14003V6.46H8.44003V6.1H7.42003V6.46H7.72003V9.64H7.42003V10H8.44003V9.64ZM9.81745 10V8.8H10.3035C10.9515 8.8 11.2575 8.482 11.2575 7.96V6.94C11.2575 6.424 10.9395 6.1 10.3035 6.1H9.39745V10H9.81745ZM10.8375 7.96C10.8375 8.26 10.6635 8.44 10.3035 8.44H9.81745V6.46H10.3035C10.6575 6.46 10.8375 6.646 10.8375 6.94V7.96Z" fill="#2B9EE7"/>
<path d="M86.56 120.36L86.86 120.36L86.86 123.54L86.56 123.54L86.56 123.9L87.58 123.9L87.58 123.54L87.28 123.54L87.28 120.36L87.58 120.36L87.58 120L86.56 120L86.56 120.36ZM85.1826 120L85.1826 121.2L84.6966 121.2C84.0486 121.2 83.7426 121.518 83.7426 122.04L83.7426 123.06C83.7426 123.576 84.0606 123.9 84.6966 123.9L85.6026 123.9L85.6026 120L85.1826 120ZM84.1626 122.04C84.1626 121.74 84.3366 121.56 84.6966 121.56L85.1826 121.56L85.1826 123.54L84.6966 123.54C84.3426 123.54 84.1626 123.354 84.1626 123.06L84.1626 122.04Z" fill="#2B9EE7"/>
<path d="M24.3567 27.8469C16.4249 29.9722 11.7216 38.1187 13.8469 46.0504C15.4226 51.9312 20.3109 56.0272 25.9623 56.9018C25.6513 55.9085 25.3602 54.6967 25.3302 53.5383C25.2911 52.3039 25.0851 45.2149 25.0851 45.2149C25.0851 45.2149 24.3779 44.4175 24.0162 43.0676C23.4471 40.9434 24.2556 39.022 25.7939 38.6098C27.1019 38.2594 27.9933 39.0748 28.3073 40.2467C28.6578 41.5547 28.3478 43.7463 28.4066 45.682C28.4602 47.3051 29.9107 48.2398 31.4175 47.8361C34.1382 47.1071 35.0329 43.1214 33.9254 38.9881C33.0814 35.8384 30.3264 34.0532 26.4756 35.085C22.1225 36.2514 20.2815 40.2214 21.2545 43.8525C21.5909 45.1082 22.1927 45.889 22.9505 46.415C23.2962 46.6588 23.3717 46.7731 23.3728 47.1542C23.3697 47.4354 23.3838 48.1158 23.3883 48.3837C23.3922 48.7752 23.1329 48.9793 22.7616 48.933C20.5338 48.6551 19.0137 46.7072 18.352 44.2377C17.2585 40.1567 19.3918 34.3475 26.2143 32.5194C31.6975 31.0502 36.3703 34.0487 37.5114 38.3076C39.0199 43.9373 37.0183 48.9822 32.4036 50.2187C30.8549 50.6336 29.1761 50.1863 28.4187 49.3686C28.4187 49.3686 28.4676 52.8996 28.4607 53.5855C28.4545 54.776 28.1524 56.0346 27.841 57.0489C29.229 57.0807 30.6559 56.9227 32.0686 56.5442C40.0003 54.4189 44.7037 46.2724 42.5784 38.3406C40.435 30.4249 32.2885 25.7215 24.3567 27.8469Z" fill="#A8C909"/>
<path d="M66.5346 105.842C74.7462 105.842 81.3978 99.1907 81.3978 90.9792C81.3978 84.8909 77.7362 79.6693 72.5037 77.3618C72.5471 78.4018 72.5146 79.6476 72.2437 80.7743C71.9621 81.9768 70.3263 88.8775 70.3263 88.8775C70.3263 88.8775 70.8029 89.8308 70.8029 91.2283C70.8029 93.4275 69.5246 95.0741 67.9321 95.0741C66.578 95.0741 65.928 94.0558 65.928 92.8425C65.928 91.4883 66.7946 89.4517 67.2388 87.5667C67.6071 85.9851 66.448 84.7067 64.888 84.7067C62.0714 84.7067 60.1756 88.325 60.1756 92.6041C60.1756 95.8649 62.3747 98.3024 66.3613 98.3024C70.8679 98.3024 73.6737 94.9441 73.6737 91.185C73.6737 89.885 73.2946 88.975 72.6987 88.2709C72.4279 87.9459 72.3846 87.8159 72.4821 87.4475C72.5579 87.1767 72.7204 86.5159 72.7854 86.2559C72.8829 85.8767 73.1862 85.7467 73.5329 85.8876C75.6129 86.7325 76.577 89.0075 76.577 91.5642C76.577 95.7891 73.0129 100.848 65.9497 100.848C60.2731 100.848 56.5356 96.7424 56.5356 92.3333C56.5356 86.505 59.7747 82.1501 64.5522 82.1501C66.1555 82.1501 67.6613 83.0168 68.1813 84.0026C68.1813 84.0026 69.0479 80.5793 69.2321 79.9185C69.5463 78.7701 70.1638 77.6326 70.7271 76.7335C69.3946 76.3435 67.9755 76.1268 66.513 76.1268C58.3014 76.1268 51.6498 82.7784 51.6498 90.99C51.6715 99.1907 58.3231 105.842 66.5346 105.842Z" fill="#A8C909"/>
<path d="M46.1651 75.4572L53.3289 84.5456L54.9625 73.213L51.8407 75.1048L50.693 70.8679L48.6938 71.3778L49.8415 75.6147L46.1651 75.4572Z" fill="#A8C909"/>
</svg>
