<svg width="93" height="129" viewBox="0 0 93 129" fill="none" xmlns="http://www.w3.org/2000/svg">
<path d="M88.7301 129H4.26988C1.87458 129 0 127.044 0 124.779V4.22104C0 1.85313 1.97872 0 4.26988 0H88.7301C91.1254 0 93 1.95608 93 4.22104V124.779C93 127.147 91.1254 129 88.7301 129Z" fill="#C8E1FF"/>
<path d="M86.9 127.3H5.80002C3.50002 127.3 1.70001 125.4 1.70001 123.2V6.1C1.70001 3.8 3.60002 2 5.80002 2H86.9C89.2 2 91 3.9 91 6.1V123.2C91 125.5 89.2 127.3 86.9 127.3Z" fill="#EEF5FF"/>
<path d="M8.21623 11.1596C8.21623 11.2626 8.21623 11.2626 8.21623 11.3656C8.21623 11.4686 8.21623 11.5716 8.21623 11.6745C8.21623 11.8805 8.21623 12.0865 8.21623 12.2925C8.21623 12.3955 8.21623 12.6015 8.21623 12.7045C8.21623 12.8075 8.21623 12.9105 8.21623 12.9105C8.21623 13.0135 8.21622 13.0135 8.31922 13.1165C8.31922 13.2194 8.42222 13.2194 8.42222 13.3224C8.42222 13.4254 8.6282 13.3224 8.73119 13.3224C8.83419 13.3224 8.93718 13.3224 9.04018 13.2194C9.14317 13.2194 9.14317 13.1165 9.14317 13.0135C9.14317 12.9105 9.14317 12.9105 9.24616 12.8075C9.24616 12.7045 9.24616 12.6015 9.24616 12.4985C9.24616 12.3955 9.24616 12.1895 9.24616 11.9835C9.24616 11.7775 9.24616 11.4686 9.24616 11.0566C9.24616 10.8506 9.24616 10.6446 9.24616 10.4386C9.24616 10.3356 9.24616 10.1296 9.24616 10.0266C9.24616 9.92365 9.24616 9.82066 9.24616 9.82066C9.24616 9.82066 9.24616 9.71767 9.14317 9.71767C9.14317 9.61467 9.04018 9.61467 9.04018 9.61467C8.93718 9.61467 8.93718 9.61467 8.83419 9.61467C8.73119 9.61467 8.6282 9.61467 8.6282 9.61467C8.52521 9.61467 8.52521 9.61467 8.52521 9.71767C8.42222 9.82066 8.31922 9.92365 8.31922 10.0266L7.59827 9.82066L7.80425 6.42188H10.3791V7.24582H8.6282L8.52521 8.99671C8.6282 8.89372 8.73119 8.89372 8.83419 8.79073C8.93718 8.79073 9.14317 8.68773 9.34915 8.68773C9.55514 8.68773 9.65814 8.68773 9.76113 8.79073C9.86412 8.79073 9.96712 8.89372 10.0701 8.99671C10.1731 9.09971 10.1731 9.2027 10.2761 9.30569C10.2761 9.40869 10.3791 9.51168 10.3791 9.61467C10.3791 9.71767 10.3791 9.92365 10.4821 10.1296C10.4821 10.3356 10.4821 10.6446 10.4821 10.9536C10.4821 11.3656 10.4821 11.6745 10.4821 11.9835C10.4821 12.2925 10.4821 12.4985 10.4821 12.7045C10.4821 12.9105 10.4821 13.1165 10.3791 13.2194C10.3791 13.3224 10.2761 13.5284 10.2761 13.6314C10.1731 13.8374 10.0701 14.0434 9.86412 14.1464C9.65813 14.2494 9.34916 14.2494 9.04018 14.2494C8.7312 14.2494 8.5252 14.2494 8.31922 14.1464C8.11323 14.0434 8.01024 13.9404 7.90725 13.7344C7.80426 13.5284 7.70126 13.3224 7.70126 13.0135C7.70126 12.7045 7.59827 12.2925 7.59827 11.8805C7.59827 11.6745 7.59827 11.5716 7.59827 11.4686C7.59827 11.3656 7.59827 11.2626 7.59827 11.1596H8.21623Z" fill="black"/>
<path d="M13.4689 13.8374C13.4689 13.9404 13.3659 13.9404 13.3659 14.0434C13.3659 14.1464 13.2629 14.1464 13.1599 14.1464C13.0569 14.1464 12.9539 14.2494 12.8509 14.2494C12.748 14.2494 12.542 14.2494 12.336 14.2494C12.13 14.2494 11.924 14.2494 11.821 14.2494C11.718 14.2494 11.615 14.2494 11.512 14.1464C11.409 14.1464 11.409 14.0434 11.306 14.0434C11.306 13.9404 11.2031 13.9404 11.2031 13.8374C11.1001 13.7344 11.1001 13.6314 11.1001 13.4254C11.1001 13.2194 10.9971 13.0135 10.9971 12.8075C10.9971 12.4985 10.9971 12.1895 10.9971 11.7775C10.9971 11.3656 10.9971 10.8506 10.9971 10.2326C10.9971 9.61467 10.9971 9.0997 10.9971 8.68773C10.9971 8.27575 10.9971 7.96677 10.9971 7.65779C10.9971 7.34881 10.9971 7.14282 11.1001 7.03983C11.1001 6.93684 11.2031 6.73085 11.2031 6.62786C11.2031 6.52486 11.306 6.52486 11.306 6.42187C11.306 6.31887 11.409 6.31887 11.512 6.31887C11.615 6.31887 11.718 6.21588 11.821 6.21588C11.924 6.21588 12.13 6.21588 12.336 6.21588C12.542 6.21588 12.748 6.21588 12.8509 6.21588C12.9539 6.21588 13.0569 6.21588 13.1599 6.31887C13.2629 6.31887 13.2629 6.42187 13.3659 6.42187C13.3659 6.52486 13.4689 6.52486 13.4689 6.62786C13.4689 6.73085 13.5719 6.83384 13.5719 7.03983C13.5719 7.24582 13.6749 7.4518 13.6749 7.65779C13.6749 7.96677 13.6749 8.27575 13.6749 8.68773C13.6749 9.0997 13.6749 9.61467 13.6749 10.2326C13.6749 10.8506 13.6749 11.3656 13.6749 11.7775C13.6749 12.1895 13.6749 12.4985 13.6749 12.8075C13.6749 13.1164 13.6749 13.3224 13.5719 13.4254C13.5719 13.6314 13.4689 13.7344 13.4689 13.8374ZM12.645 13.0135C12.645 12.9105 12.645 12.9105 12.645 12.8075C12.645 12.7045 12.645 12.6015 12.645 12.3955C12.645 12.1895 12.645 11.9835 12.645 11.5715C12.645 11.2626 12.645 10.7476 12.645 10.2326C12.645 9.61467 12.645 9.0997 12.645 8.79072C12.645 8.48174 12.645 8.17276 12.645 7.96677C12.645 7.76078 12.645 7.65779 12.645 7.5548C12.645 7.4518 12.645 7.4518 12.645 7.34881C12.645 7.24582 12.542 7.14282 12.542 7.14282C12.439 7.14282 12.336 7.14282 12.233 7.14282C12.13 7.14282 12.027 7.14282 11.924 7.14282C11.821 7.14282 11.821 7.24582 11.821 7.34881C11.821 7.4518 11.821 7.4518 11.718 7.5548C11.718 7.65779 11.718 7.76078 11.718 7.96677C11.718 8.17276 11.718 8.37875 11.718 8.79072C11.718 9.0997 11.718 9.61467 11.718 10.2326C11.718 10.8506 11.718 11.2626 11.718 11.5715C11.718 11.8805 11.718 12.1895 11.718 12.3955C11.718 12.6015 11.718 12.7045 11.718 12.8075C11.718 12.9105 11.718 12.9105 11.821 13.0135C11.821 13.1164 11.924 13.2194 11.924 13.2194C12.027 13.2194 12.13 13.2194 12.233 13.2194C12.336 13.2194 12.439 13.2194 12.542 13.2194C12.542 13.2194 12.645 13.2194 12.645 13.0135Z" fill="black"/>
<path d="M84.8734 120.04C84.8734 119.937 84.8734 119.937 84.8734 119.834C84.8734 119.731 84.8734 119.628 84.8734 119.525C84.8734 119.319 84.8734 119.114 84.8734 118.908C84.8734 118.805 84.8734 118.599 84.8734 118.496C84.8734 118.393 84.8734 118.29 84.8734 118.29C84.8734 118.187 84.8734 118.187 84.7704 118.084C84.7704 117.981 84.6674 117.981 84.6674 117.878C84.6674 117.775 84.4614 117.878 84.3584 117.878C84.2554 117.878 84.1524 117.878 84.0494 117.981C83.9465 117.981 83.9465 118.084 83.9465 118.187C83.9465 118.29 83.9465 118.29 83.8435 118.393C83.8435 118.496 83.8435 118.599 83.8435 118.702C83.8435 118.805 83.8435 119.011 83.8435 119.217C83.8435 119.422 83.8435 119.731 83.8435 120.143C83.8435 120.349 83.8435 120.555 83.8435 120.761C83.8435 120.864 83.8435 121.07 83.8435 121.173C83.8435 121.276 83.8435 121.379 83.8435 121.379C83.8435 121.379 83.8435 121.482 83.9465 121.482C83.9465 121.585 84.0494 121.585 84.0494 121.585C84.1524 121.585 84.1524 121.585 84.2554 121.585C84.3584 121.585 84.4614 121.585 84.4614 121.585C84.5644 121.585 84.5644 121.585 84.5644 121.482C84.6674 121.379 84.7704 121.276 84.7704 121.173L85.4914 121.379L85.2854 124.778H82.7105V123.851H84.4614L84.5644 122.1C84.4614 122.203 84.3584 122.203 84.2554 122.306C84.1524 122.306 83.9465 122.409 83.7405 122.409C83.5345 122.409 83.4315 122.409 83.3285 122.306C83.2255 122.306 83.1225 122.203 83.0195 122.1C82.9165 121.997 82.9165 121.894 82.8135 121.791C82.8135 121.688 82.7105 121.585 82.7105 121.482C82.7105 121.379 82.7105 121.173 82.6075 120.967C82.6075 120.761 82.6075 120.452 82.6075 120.143C82.6075 119.731 82.6075 119.422 82.6075 119.114C82.6075 118.805 82.6075 118.599 82.6075 118.393C82.6075 118.187 82.6075 117.981 82.7105 117.878C82.7105 117.775 82.8135 117.569 82.8135 117.466C82.9165 117.26 83.0195 117.054 83.2255 116.951C83.4315 116.848 83.7405 116.848 84.0494 116.848C84.3584 116.848 84.5644 116.848 84.7704 116.951C84.9764 117.054 85.0794 117.157 85.1824 117.363C85.2854 117.569 85.3884 117.775 85.3884 118.084C85.3884 118.393 85.4914 118.805 85.4914 119.217C85.4914 119.422 85.4914 119.525 85.4914 119.628C85.4914 119.731 85.4914 119.834 85.4914 119.937H84.8734V120.04Z" fill="black"/>
<path d="M79.6207 117.361C79.6207 117.258 79.7237 117.258 79.7237 117.155C79.7237 117.052 79.8267 117.052 79.9297 117.052C80.0327 117.052 80.1357 116.949 80.2387 116.949C80.3417 116.949 80.5477 116.949 80.7537 116.949C80.9596 116.949 81.1656 116.949 81.2686 116.949C81.3716 116.949 81.4746 116.949 81.5776 117.052C81.6806 117.052 81.6806 117.155 81.7836 117.155C81.7836 117.258 81.8866 117.258 81.8866 117.361C81.9896 117.464 81.9896 117.567 81.9896 117.773C81.9896 117.979 82.0926 118.185 82.0926 118.391C82.0926 118.7 82.0926 119.009 82.0926 119.421C82.0926 119.833 82.0926 120.348 82.0926 120.966C82.0926 121.584 82.0926 122.099 82.0926 122.511C82.0926 122.923 82.0926 123.232 82.0926 123.54C82.0926 123.849 82.0926 124.055 81.9896 124.158C81.9896 124.261 81.8866 124.467 81.8866 124.57C81.8866 124.673 81.7836 124.673 81.7836 124.776C81.7836 124.879 81.6806 124.879 81.5776 124.879C81.4746 124.879 81.3716 124.982 81.2686 124.982C81.1656 124.982 80.9596 124.982 80.7537 124.982C80.5477 124.982 80.3417 124.982 80.2387 124.982C80.1357 124.982 80.0327 124.982 79.9297 124.879C79.8267 124.879 79.8267 124.776 79.7237 124.776C79.7237 124.673 79.6207 124.673 79.6207 124.57C79.6207 124.467 79.5177 124.364 79.5177 124.158C79.5177 123.952 79.4147 123.746 79.4147 123.54C79.4147 123.232 79.4147 122.923 79.4147 122.511C79.4147 122.099 79.4147 121.584 79.4147 120.966C79.4147 120.348 79.4147 119.833 79.4147 119.421C79.4147 119.009 79.4147 118.7 79.4147 118.391C79.4147 118.082 79.4147 117.876 79.5177 117.773C79.5177 117.567 79.6207 117.464 79.6207 117.361ZM80.3417 118.185C80.3417 118.288 80.3417 118.288 80.3417 118.391C80.3417 118.494 80.3417 118.597 80.3417 118.803C80.3417 119.009 80.3417 119.215 80.3417 119.627C80.3417 119.936 80.3417 120.451 80.3417 120.966C80.3417 121.584 80.3417 122.099 80.3417 122.408C80.3417 122.717 80.3417 123.026 80.3417 123.232C80.3417 123.438 80.3417 123.54 80.3417 123.643C80.3417 123.746 80.3417 123.746 80.3417 123.849C80.3417 123.952 80.4447 124.055 80.4447 124.055C80.5477 124.055 80.6507 124.055 80.7537 124.055C80.8566 124.055 80.9596 124.055 81.0626 124.055C81.1656 124.055 81.1656 123.952 81.1656 123.849C81.1656 123.746 81.1656 123.746 81.2686 123.643C81.2686 123.54 81.2686 123.438 81.2686 123.232C81.2686 123.026 81.2686 122.82 81.2686 122.408C81.2686 122.099 81.2686 121.584 81.2686 120.966C81.2686 120.348 81.2686 119.936 81.2686 119.627C81.2686 119.318 81.2686 119.009 81.2686 118.803C81.2686 118.597 81.2686 118.494 81.2686 118.391C81.2686 118.288 81.2686 118.288 81.1656 118.185C81.1656 118.082 81.0626 117.979 81.0626 117.979C80.9596 117.979 80.8566 117.979 80.7537 117.979C80.6507 117.979 80.5477 117.979 80.4447 117.979C80.4447 117.979 80.4447 117.979 80.3417 118.185Z" fill="black"/>
<path d="M84.5345 40.7785C84.1225 40.4696 83.8135 40.1606 83.5045 39.8516C82.8866 39.1307 82.3716 38.2037 82.0626 37.2768C81.8566 36.2468 81.8566 35.2169 82.3716 34.29C82.6806 33.878 82.9896 33.466 83.4015 33.157C83.8135 32.848 84.3285 32.7451 84.8435 32.7451C85.3584 32.7451 85.8734 33.054 86.1824 33.363C86.5943 33.775 86.8003 34.187 86.9033 34.7019C87.2123 35.6289 87.1093 36.6588 86.5943 37.5858C86.0794 38.4097 85.3584 39.0277 84.4315 39.3366C83.6075 39.6456 82.6806 39.6456 81.8566 39.5426C81.0327 39.4396 80.2087 39.1307 79.4878 38.7187C78.0459 37.9977 76.81 37.0708 75.677 36.4528C74.5441 35.7319 73.4112 35.3199 72.2782 35.1139C71.2483 34.9079 70.3214 35.1139 69.6004 35.4229C68.8795 35.7319 68.4675 36.0408 68.1585 36.3498C68.0555 36.4528 68.0555 36.4528 67.9525 36.5558C67.9525 36.6588 67.8495 36.6588 67.8495 36.6588C67.7465 36.7618 67.7465 36.7618 67.7465 36.7618C67.7465 36.7618 67.7465 36.7618 67.8495 36.6588C67.8495 36.6588 67.9525 36.5558 67.9525 36.4528C67.9525 36.3498 68.0555 36.3498 68.1585 36.2468C68.4675 35.9379 68.8795 35.5259 69.6004 35.2169C70.3214 34.9079 71.2483 34.8049 72.2782 34.9079C73.3082 35.1139 74.5441 35.5259 75.677 36.2468C76.81 36.9678 78.0459 37.7917 79.4878 38.5127C80.2087 38.8217 80.9297 39.1307 81.7536 39.3366C82.5776 39.4396 83.5045 39.4396 84.3285 39.1307C85.1524 38.8217 85.9764 38.3067 86.3884 37.4828C86.8003 36.6588 86.9033 35.6289 86.6973 34.8049C86.5943 34.393 86.3884 33.878 85.9764 33.569C85.6674 33.26 85.1524 33.054 84.7405 32.951C84.2255 32.951 83.8135 33.054 83.4015 33.363C82.9896 33.672 82.6806 33.981 82.3716 34.393C81.8566 35.2169 81.8566 36.3498 82.0626 37.2768C82.2686 38.2037 82.7836 39.1307 83.4015 39.8516" fill="#0A100C"/>
<path d="M85.2554 41.2935C84.9464 41.1905 84.7404 40.9846 84.4315 40.7786Z" fill="#0A100C"/>
<path d="M14.0869 63.5401L13.8809 26.3595H71.1453V63.9521L14.0869 63.5401Z" fill="#2996D3"/>
<path d="M25.9311 56.4335C28.094 56.3306 30.3598 56.8455 32.6257 57.0515L31.3898 56.7425C31.1838 54.6827 32.0077 52.5198 33.5526 50.9749C35.0975 49.533 37.2604 48.709 39.3203 49.018C40.8652 49.224 42.4101 49.945 43.955 49.636C46.8388 49.121 48.2807 45.7222 51.0615 44.6923C54.5633 43.3534 58.5801 46.4432 61.9789 45.0013C63.3178 44.3833 64.3477 43.1474 65.6866 42.4264C66.8195 41.8085 68.3644 41.6025 69.2914 42.3234V34.2899C68.3644 36.0408 66.0986 36.9678 64.0387 36.7618C61.8759 36.5558 59.919 35.5259 58.0651 34.3929C56.2112 33.363 54.2543 32.2301 52.0915 31.9211C49.0017 31.5091 46.1178 32.848 43.131 33.775C40.4532 34.4959 37.5694 34.8049 34.8916 34.084C34.7886 34.084 34.6856 33.981 34.5826 33.981C34.2736 34.2899 33.8616 34.5989 33.4497 34.8049C31.1838 35.9378 28.197 34.3929 26.0341 35.8349C24.7982 36.6588 24.3862 38.3067 23.4593 39.5426C21.8114 41.8085 17.6916 42.4264 15.4258 40.8815V59.3174V61.6862H16.6617C18.8246 58.6994 22.3264 56.6395 25.9311 56.4335ZM60.9489 40.0576C61.0519 39.9546 61.2579 39.8516 61.4639 39.8516C61.4639 39.8516 61.4639 39.8516 61.5669 39.8516C62.0818 39.7486 62.6998 39.9546 63.0088 40.4696C63.4208 41.0875 63.1118 42.0145 62.4938 42.4264C61.7729 42.7354 60.8459 42.4264 60.6399 41.7055C60.4339 41.0875 60.7429 40.4696 61.1549 40.1606L60.9489 40.0576Z" fill="#FAFAFA"/>
<path d="M69.3944 42.4265C68.4674 41.7055 66.8195 41.8085 65.7896 42.5295C64.4507 43.3534 63.5237 44.4863 62.0818 45.1043C58.683 46.5462 54.5633 43.4564 51.1645 44.7953C48.4867 45.8253 46.9418 49.224 44.058 49.739C42.5131 50.048 40.9682 49.327 39.4233 49.1211C37.3634 48.9151 35.0975 49.636 33.6556 51.0779C32.1107 52.5198 31.2868 54.6827 31.4928 56.8456L32.7287 57.1546C34.4796 57.3605 36.1275 57.3605 37.7754 56.8456C42.5131 55.3007 45.0879 49.224 50.0316 48.7091C52.8124 48.4001 55.4902 49.945 58.2711 49.43C60.4339 49.0181 62.2878 47.4732 64.0387 46.1342C65.7896 44.8983 67.6435 43.6624 69.7034 44.3834V42.6325C69.4974 42.5295 69.3944 42.5295 69.3944 42.4265Z" fill="#D71A22"/>
<path d="M63.9357 46.1342C62.0818 47.4732 60.3309 49.0181 58.1681 49.43C55.4902 49.945 52.7094 48.4001 49.9286 48.7091C44.9849 49.327 42.4101 55.3007 37.6724 56.8456C36.0245 57.3605 34.3766 57.3605 32.6257 57.1546C30.4628 56.9486 28.197 56.3306 25.9311 56.5366C22.3263 56.7426 18.8246 58.8024 16.8677 61.7893H18.1036C19.2365 60.5533 20.7814 59.7294 22.4293 59.3174C24.7982 58.6995 27.476 59.2144 29.5359 60.6563C30.0508 60.9653 30.4628 61.3773 30.8748 61.7893H39.8352C40.2472 61.5833 40.6592 61.3773 41.0712 61.1713C42.719 60.3473 44.5729 59.7294 46.3238 60.1414C47.4568 60.3473 48.4867 60.9653 49.1046 61.7893H58.786C59.095 61.1713 59.61 60.6563 60.3309 60.4503C61.0519 60.2444 61.8758 60.3473 62.4938 59.8324C63.2148 59.3174 63.3177 58.2875 63.6267 57.4635C64.4507 55.1977 67.1285 53.6528 69.4974 54.0647V44.3834C67.4375 43.5594 65.6866 44.7953 63.9357 46.1342ZM55.3872 59.8324C53.8423 60.5533 51.7825 59.7294 51.1645 58.0815C50.7525 56.8456 51.2675 55.3007 52.4004 54.5797L52.1945 54.6827C52.5034 54.4767 52.8124 54.2707 53.1214 54.1677C53.2244 54.1677 53.3274 54.0647 53.4304 54.0647H53.3274C54.5633 53.7558 56.0052 54.2707 56.6232 55.4037C57.5501 56.9486 56.9321 59.1114 55.3872 59.8324ZM66.0986 48.9151C65.6866 49.1211 65.1716 48.9151 64.9656 48.5031C64.8626 48.1941 64.9656 47.7821 65.2746 47.5762H65.1716C65.2746 47.4732 65.3776 47.4732 65.4806 47.4732C65.7896 47.3702 66.2016 47.5762 66.4076 47.7821C66.6135 48.0911 66.5106 48.7091 66.0986 48.9151Z" fill="#D71A22"/>
<path d="M63.6267 57.5666C63.3177 58.3905 63.2147 59.4204 62.4938 59.9354C61.8758 60.3474 61.0519 60.2444 60.3309 60.5534C59.61 60.7594 59.095 61.2743 58.786 61.8923H69.6003V54.2708C67.1285 53.6528 64.4507 55.1977 63.6267 57.5666Z" fill="#D71A22"/>
<path d="M22.4292 59.3174C20.7814 59.7294 19.2364 60.5534 18.1035 61.7893H30.8747C30.4627 61.3773 29.9478 61.0683 29.5358 60.6564C27.4759 59.2145 24.7981 58.6995 22.4292 59.3174Z" fill="#D71A22"/>
<path d="M46.3238 60.1414C44.5729 59.7295 42.719 60.3474 41.0711 61.1714C40.6592 61.3774 40.2472 61.5834 39.8352 61.7893H49.1046C48.4867 60.9654 47.4567 60.3474 46.3238 60.1414Z" fill="#D71A22"/>
<path d="M42.6161 30.5822C40.9682 30.6852 39.3203 30.3762 37.8784 31.2002C36.6425 31.8181 35.8185 33.26 34.7886 34.187C34.8916 34.187 34.9946 34.29 35.0976 34.29C37.7754 35.0109 40.6592 34.7019 43.337 33.981C46.3238 33.157 49.2077 31.8181 52.2975 32.1271C54.4603 32.4361 56.4172 33.569 58.2711 34.5989C60.125 35.6289 62.0819 36.7618 64.2447 36.9678C66.3046 37.1738 68.5705 36.2468 69.4974 34.4959V33.775V27.9044H46.2209C46.1179 29.4493 44.161 30.4792 42.6161 30.5822Z" fill="#D71A22"/>
<path d="M60.5369 41.6026C60.7429 42.3235 61.6698 42.6325 62.3908 42.3235C63.1118 42.0146 63.3177 40.9846 62.9058 40.3667C62.5968 39.8517 61.9788 39.6457 61.4639 39.7487C61.4639 39.7487 61.4639 39.7487 61.3609 39.7487C61.1549 39.7487 61.0519 39.8517 60.8459 39.9547L60.9489 39.8517C60.6399 40.3667 60.3309 40.9846 60.5369 41.6026Z" fill="#D71A22"/>
<path d="M53.2244 54.1678C53.1214 54.1678 53.0184 54.1678 52.9154 54.2708C52.6064 54.3738 52.2974 54.4768 51.9884 54.7857L52.1944 54.6828C51.1645 55.5067 50.5465 56.9486 50.9585 58.1845C51.5765 59.8324 53.6363 60.6564 55.1812 59.9354C56.7261 59.2145 57.3441 56.9486 56.4172 55.5067C55.9022 54.3738 54.4603 53.9618 53.2244 54.1678Z" fill="#D71A22"/>
<path d="M53.2244 54.1678C53.1214 54.1678 53.0184 54.1678 52.9154 54.2708C52.6064 54.3738 52.2974 54.4768 51.9884 54.7857L52.1944 54.6828C51.1645 55.5067 50.5465 56.9486 50.9585 58.1845C51.5765 59.8324 53.6363 60.6564 55.1812 59.9354C56.7261 59.2145 57.3441 56.9486 56.4172 55.5067C55.9022 54.3738 54.4603 53.9618 53.2244 54.1678Z" fill="#EA7880"/>
<path d="M66.4075 47.7822C66.2016 47.4732 65.8926 47.3702 65.4806 47.4732C65.3776 47.4732 65.2746 47.5762 65.1716 47.5762H65.2746C64.9656 47.7822 64.8626 48.1941 64.9656 48.5031C65.1716 48.9151 65.6866 49.1211 66.0986 48.9151C66.5105 48.7091 66.6135 48.0912 66.4075 47.7822Z" fill="#D71A22"/>
<path d="M23.6644 39.6456C24.5913 38.4097 25.0033 36.8648 26.2392 35.9379C28.2991 34.496 31.3889 35.9379 33.6548 34.9079C34.0667 34.702 34.4787 34.393 34.7877 34.084C35.8176 33.0541 36.6416 31.7151 37.8775 31.0972C39.3194 30.3762 41.0703 30.5822 42.6152 30.4792C44.2631 30.3762 46.014 29.3463 46.22 27.8014H37.6715H15.5279V40.8816C15.5279 40.8816 15.5279 40.8816 15.6309 40.8816C17.9997 42.5295 22.0165 41.9115 23.6644 39.6456Z" fill="#D71A22"/>
<path d="M69.3944 42.4265C68.4674 41.7055 66.8195 41.8085 65.7896 42.5295C64.4507 43.3534 63.5237 44.4863 62.0818 45.1043C58.683 46.5462 54.5633 43.4564 51.1645 44.7953C48.4867 45.8253 46.9418 49.224 44.058 49.739C42.5131 50.048 40.9682 49.327 39.4233 49.1211C37.3634 48.9151 35.0975 49.636 33.6556 51.0779C32.1107 52.5198 31.2868 54.6827 31.4928 56.8456L32.7287 57.1546C34.4796 57.3605 36.1275 57.3605 37.7754 56.8456C42.5131 55.3007 45.0879 49.224 50.0316 48.7091C52.8124 48.4001 55.4902 49.945 58.2711 49.43C60.4339 49.0181 62.2878 47.4732 64.0387 46.1342C65.7896 44.8983 67.6435 43.6624 69.7034 44.3834V42.6325C69.4974 42.5295 69.3944 42.5295 69.3944 42.4265Z" fill="#EA7880"/>
<path d="M37.6715 27.9044H15.5279V40.9846C15.5279 40.9846 15.5279 40.9846 15.6309 40.9846C17.9997 42.5295 22.0165 41.9115 23.6644 39.6456C24.5913 38.4097 25.0033 36.8648 26.2392 35.9379C28.2991 34.496 31.3889 35.9379 33.6548 34.9079C34.0667 34.702 34.4787 34.393 34.7877 34.084C35.8176 33.0541 36.6416 31.7151 37.8775 31.0972C39.3194 30.3762 41.0703 30.5822 42.6152 30.4792C44.2631 30.3762 46.014 29.3463 46.22 27.8014" fill="#EA7880"/>
<path d="M63.0088 44.4863C62.8028 43.8683 61.6698 39.2336 59.507 30.7881C49.9286 33.26 35.9215 36.7618 20.3694 40.7785V40.6755C21.6054 45.4132 22.7383 50.0479 23.8712 54.3737H23.7682C46.3238 48.709 61.8758 44.7953 63.0088 44.4863C61.8758 44.7953 46.3238 48.709 23.8712 54.4767C22.7383 50.1509 21.6054 45.5162 20.3694 40.7785C35.9215 36.8648 50.0316 33.26 59.507 30.8911C61.6698 39.2336 62.8028 43.8683 63.0088 44.4863Z" fill="#0A100C"/>
<path d="M63.2836 43.7696L62.2853 44.0231L62.5389 45.0213L63.5371 44.7678L63.2836 43.7696Z" fill="#375A64"/>
<path d="M24.2491 53.8429L23.2509 54.0964L23.5045 55.0946L24.5027 54.8411L24.2491 53.8429Z" fill="#375A64"/>
<path d="M59.8667 29.9482L58.8685 30.2018L59.122 31.2L60.1203 30.9464L59.8667 29.9482Z" fill="#375A64"/>
<path d="M40.1017 35.0031L39.1035 35.2567L39.357 36.2549L40.3552 36.0014L40.1017 35.0031Z" fill="#375A64"/>
<path d="M43.593 48.6993L42.5948 48.9529L42.8484 49.9511L43.8466 49.6975L43.593 48.6993Z" fill="#375A64"/>
<path d="M22.389 46.75L21.3907 47.0035L21.6443 48.0018L22.6425 47.7482L22.389 46.75Z" fill="#375A64"/>
<path d="M61.5151 36.7581L60.5168 37.0117L60.7704 38.0099L61.7686 37.7564L61.5151 36.7581Z" fill="#375A64"/>
<path d="M20.7455 40.1515L19.7473 40.405L20.0008 41.4032L20.999 41.1497L20.7455 40.1515Z" fill="#375A64"/>
<path d="M36.6424 48.4C36.1275 48.297 35.6125 47.9881 35.3035 47.5761C34.8915 47.1641 34.6856 46.6491 34.4796 46.1342C34.4796 45.9282 34.4796 45.8252 34.5825 45.6192C34.6855 45.4132 34.7885 45.4132 34.9945 45.3102C35.2005 45.3102 35.3035 45.3102 35.5095 45.4132C35.6125 45.5162 35.7155 45.6192 35.8185 45.8252C35.9215 46.1342 36.0245 46.4432 36.3334 46.6491C36.5394 46.8551 36.8484 47.0611 37.1574 47.1641C37.4664 47.2671 37.7753 47.2671 38.1873 47.1641C38.4963 47.0611 38.8053 46.9581 39.0113 46.6491C39.2173 46.4432 39.4232 46.1342 39.5262 45.8252C39.6292 45.5162 39.6292 45.2072 39.5262 44.7953C39.4232 44.4863 39.3203 44.1773 39.0113 43.9713C38.8053 43.7653 38.4963 43.5593 38.1873 43.4563C37.8783 43.3534 37.5694 43.3534 37.1574 43.4563L35.2005 43.9713C34.9945 43.9713 34.8915 43.9713 34.6855 43.8683C34.5826 43.7653 34.4796 43.6623 34.3766 43.4563L33.5526 40.2636C33.5526 40.0576 33.5526 39.9546 33.6556 39.7486C33.7586 39.6456 33.8616 39.5426 34.0676 39.4396L38.0843 38.4097C38.2903 38.4097 38.3933 38.4097 38.5993 38.5127C38.7023 38.6157 38.8053 38.7186 38.9083 38.9246C38.9083 39.1306 38.9083 39.2336 38.8053 39.4396C38.7023 39.5426 38.5993 39.6456 38.3933 39.7486L34.9945 40.5725L35.5095 42.6324L36.8484 42.3234C37.4664 42.2204 37.9813 42.2204 38.4963 42.3234C39.0113 42.4264 39.5262 42.7354 39.8352 43.1474C40.1442 43.5593 40.4532 44.0743 40.6592 44.5893C40.8652 45.1042 40.7622 45.7222 40.6592 46.2372C40.5562 46.7521 40.2472 47.2671 39.8352 47.5761C39.4232 47.9881 38.9083 48.1941 38.3933 48.4C37.7753 48.606 37.2604 48.606 36.6424 48.4Z" fill="#2996D3"/>
<path d="M43.131 45.9282C42.41 45.2072 41.8951 44.1773 41.4831 42.6324C41.0711 41.1905 41.0711 39.9546 41.3801 39.0276C41.6891 38.1007 42.307 37.4827 43.234 37.2767C43.8519 37.1738 44.3669 37.1738 44.8819 37.4827C45.3968 37.7917 45.9118 38.2037 46.3238 38.8216C46.7358 39.4396 47.0447 40.2636 47.2507 41.1905C47.4567 42.1174 47.5597 43.0444 47.5597 43.7653C47.5597 44.4863 47.3537 45.1043 46.9417 45.6192C46.5298 46.1342 46.1178 46.4432 45.4998 46.5462C44.5729 46.8551 43.7489 46.6492 43.131 45.9282ZM46.2208 44.0743C46.3238 43.3534 46.2208 42.5294 46.0148 41.4995C45.7058 40.4695 45.3968 39.6456 44.9849 39.1306C44.5729 38.6157 44.0579 38.3067 43.543 38.5127C43.028 38.6157 42.719 39.0276 42.616 39.7486C42.513 40.4695 42.616 41.2935 42.822 42.3234C43.131 43.3534 43.44 44.1773 43.8519 44.6923C44.2639 45.2072 44.7789 45.4132 45.2939 45.3102C45.7058 45.2073 46.0148 44.7953 46.2208 44.0743Z" fill="#2996D3"/>
<path d="M63.6267 57.5665C63.3177 58.3904 63.2147 59.4204 62.4938 59.9353C61.8758 60.3473 61.0519 60.2443 60.3309 60.5533C59.61 60.7593 59.095 61.2743 58.786 61.8922H69.6003V54.2707C67.1285 53.6527 64.4507 55.1976 63.6267 57.5665Z" fill="#A3111B"/>
<g opacity="0.3">
<g opacity="0.3">
<path opacity="0.3" d="M66.4075 47.7822C66.2016 47.4732 65.8926 47.3702 65.4806 47.4732C65.3776 47.4732 65.2746 47.5762 65.1716 47.5762H65.2746C64.9656 47.7822 64.8626 48.1941 64.9656 48.5031C65.1716 48.9151 65.6866 49.1211 66.0986 48.9151C66.5105 48.7091 66.6135 48.0912 66.4075 47.7822Z" fill="black"/>
</g>
</g>
<g opacity="0.3">
<g opacity="0.3">
<path opacity="0.3" d="M22.4292 59.3174C20.7814 59.7294 19.2364 60.5533 18.1035 61.7892H30.8747C30.4627 61.3773 29.9478 61.0683 29.5358 60.6563C27.4759 59.2144 24.7981 58.6994 22.4292 59.3174Z" fill="#A3111B"/>
</g>
</g>
<g opacity="0.3">
<g opacity="0.3">
<path opacity="0.3" d="M46.3238 60.1414C44.5729 59.7294 42.719 60.3474 41.0711 61.1713C40.6592 61.3773 40.2472 61.5833 39.8352 61.7893H49.1046C48.4867 60.9653 47.4567 60.3474 46.3238 60.1414Z" fill="#A3111B"/>
</g>
</g>
<path d="M63.9357 7.5116H35.6125V18.5319H63.9357V7.5116Z" fill="#FAFAFA"/>
<path d="M63.9357 18.532C63.9357 18.532 63.9357 18.429 63.9357 18.326C63.9357 18.223 63.9357 18.017 63.9357 17.708C63.9357 17.193 63.9357 16.4721 63.9357 15.5451C63.9357 13.6913 63.9357 10.9104 63.9357 7.51165L64.0387 7.61464C56.9322 7.61464 46.9418 7.61464 35.7155 7.61464L35.8185 7.51165C35.8185 11.3224 35.8185 15.0302 35.8185 18.532L35.7155 18.429C43.852 18.429 50.9585 18.429 56.0052 18.429C58.4771 18.429 60.5369 18.429 61.8758 18.429C62.5968 18.429 63.1118 18.429 63.4207 18.429C63.6267 18.429 63.7297 18.429 63.8327 18.429C63.8327 18.532 63.9357 18.532 63.9357 18.532C63.9357 18.532 63.9357 18.532 63.8327 18.532C63.7297 18.532 63.6267 18.532 63.4207 18.532C63.0088 18.532 62.4938 18.532 61.8758 18.532C60.5369 18.532 58.4771 18.532 56.0052 18.532C50.9585 18.532 43.852 18.532 35.7155 18.532H35.6125V18.429C35.6125 15.0302 35.6125 11.3224 35.6125 7.40866V7.30566H35.7155C46.8388 7.30566 56.9322 7.30566 64.0387 7.30566H64.1417V7.40866C64.1417 10.8074 64.1417 13.5883 64.1417 15.4422C64.1417 16.3691 64.1417 17.09 64.1417 17.605C64.1417 17.811 64.1417 18.017 64.1417 18.12C63.9357 18.429 63.9357 18.532 63.9357 18.532Z" fill="#0A100C"/>
<path d="M63.9357 7.5116H35.6125V9.88045H63.9357V7.5116Z" fill="#0A100C"/>
<path d="M41.7921 11.7343H39.0112V14.5151H41.7921V11.7343Z" fill="#0A100C"/>
<path d="M43.44 13.3823H40.6592V16.1631H43.44V13.3823Z" fill="#0A100C"/>
<path d="M48.3837 11.7343H45.6028V14.5151H48.3837V11.7343Z" fill="#0A100C"/>
<path d="M50.0316 13.3823H47.2507V16.1631H50.0316V13.3823Z" fill="#F5F5F5"/>
<path d="M50.0316 16.163C50.0316 16.163 50.0316 16.06 50.0316 15.957C50.0316 15.751 50.0316 15.6481 50.0316 15.3391C50.0316 14.8241 50.0316 14.2061 50.0316 13.3822L50.1346 13.4852C49.3106 13.4852 48.3837 13.4852 47.3537 13.4852L47.4567 13.3822V13.4852V13.6912C47.4567 13.7942 47.4567 13.8972 47.4567 14.1032C47.4567 14.3091 47.4567 14.6181 47.4567 14.8241C47.4567 15.3391 47.4567 15.751 47.4567 16.163L47.3537 16.06C48.1777 16.06 48.8986 16.06 49.3106 16.06C49.5166 16.06 49.7226 16.06 49.9286 16.06C50.0316 16.163 50.0316 16.163 50.0316 16.163C50.0316 16.163 49.9286 16.163 49.8256 16.163C49.7226 16.163 49.5166 16.163 49.3106 16.163C48.7956 16.163 48.0747 16.163 47.2507 16.163H47.1477V16.06C47.1477 15.6481 47.1477 15.2361 47.1477 14.7211C47.1477 14.5151 47.1477 14.2061 47.1477 14.0002C47.1477 13.8972 47.1477 13.7942 47.1477 13.5882V13.3822V13.2792C47.0447 13.3822 47.2507 13.1762 47.2507 13.1762C48.2807 13.1762 49.2076 13.1762 50.0316 13.1762H50.1346V13.2792C50.1346 14.1032 50.1346 14.8241 50.1346 15.3391C50.1346 15.5451 50.1346 15.751 50.1346 15.854C50.0316 16.06 50.0316 16.163 50.0316 16.163Z" fill="#0A100C"/>
<path d="M54.5633 11.7343H51.7825V14.5151H54.5633V11.7343Z" fill="#F5F5F5"/>
<path d="M54.5633 14.5151C54.5633 14.5151 54.5633 14.4121 54.5633 14.3091C54.5633 14.1032 54.5633 14.0002 54.5633 13.6912C54.5633 13.1762 54.5633 12.5583 54.5633 11.7343L54.6663 11.8373C53.8423 11.8373 52.9154 11.8373 51.8855 11.8373L51.9885 11.7343V11.8373V12.0433C51.9885 12.1463 51.9885 12.2493 51.9885 12.4553C51.9885 12.6612 51.9885 12.9702 51.9885 13.1762C51.9885 13.6912 51.9885 14.1032 51.9885 14.5151L51.8855 14.4121C52.7094 14.4121 53.4304 14.4121 53.8423 14.4121C54.0483 14.4121 54.2543 14.4121 54.4603 14.4121C54.4603 14.5151 54.5633 14.5151 54.5633 14.5151C54.5633 14.5151 54.4603 14.5151 54.3573 14.5151C54.2543 14.5151 54.0483 14.5151 53.8423 14.5151C53.3274 14.5151 52.6064 14.5151 51.7825 14.5151H51.6795V14.4121C51.6795 14.0002 51.6795 13.5882 51.6795 13.0732C51.6795 12.8672 51.6795 12.5583 51.6795 12.3523C51.6795 12.2493 51.6795 12.1463 51.6795 11.9403V11.7343V11.6313C51.5765 11.7343 51.7825 11.5283 51.7825 11.5283C52.8124 11.5283 53.7393 11.5283 54.5633 11.5283H54.6663V11.6313C54.6663 12.4553 54.6663 13.1762 54.6663 13.6912C54.6663 13.8972 54.6663 14.1032 54.6663 14.2062C54.5633 14.4121 54.5633 14.5151 54.5633 14.5151Z" fill="#0A100C"/>
<path d="M56.2112 13.3822H53.4304V16.163H56.2112V13.3822Z" fill="#F5F5F5"/>
<path d="M56.2112 16.163C56.2112 16.163 56.2112 16.06 56.2112 15.957C56.2112 15.751 56.2112 15.648 56.2112 15.339C56.2112 14.824 56.2112 14.2061 56.2112 13.3821L56.3142 13.4851C55.4902 13.4851 54.5633 13.4851 53.5334 13.4851L53.6363 13.3821V13.4851V13.6911C53.6363 13.7941 53.6363 13.8971 53.6363 14.1031C53.6363 14.3091 53.6363 14.6181 53.6363 14.824C53.6363 15.339 53.6363 15.751 53.6363 16.163L53.5334 16.06C54.3573 16.06 55.0783 16.06 55.4902 16.06C55.6962 16.06 55.9022 16.06 56.1082 16.06C56.2112 16.163 56.2112 16.163 56.2112 16.163C56.2112 16.163 56.1082 16.163 56.0052 16.163C55.9022 16.163 55.6962 16.163 55.4902 16.163C54.9753 16.163 54.2543 16.163 53.4304 16.163H53.3274V16.06C53.3274 15.648 53.3274 15.236 53.3274 14.7211C53.3274 14.5151 53.3274 14.2061 53.3274 14.0001C53.3274 13.8971 53.3274 13.7941 53.3274 13.5881V13.3821V13.2791C53.2244 13.3821 53.4304 13.1761 53.4304 13.1761C54.4603 13.1761 55.3872 13.1761 56.2112 13.1761H56.3142V13.2791C56.3142 14.1031 56.3142 14.824 56.3142 15.339C56.3142 15.545 56.3142 15.751 56.3142 15.854C56.2112 16.06 56.2112 16.163 56.2112 16.163Z" fill="#0A100C"/>
<path d="M54.5633 13.3822H53.4304V14.5151H54.5633V13.3822Z" fill="#0A100C"/>
<path d="M60.2279 11.7343H57.4471V14.5151H60.2279V11.7343Z" fill="#0A100C"/>
<path d="M61.8758 13.3822H59.095V16.163H61.8758V13.3822Z" fill="#0A100C"/>
<path d="M60.2279 13.3822H59.095V14.5151H60.2279V13.3822Z" fill="#FAFAFA"/>
<path d="M83.6057 24.8129H56.4154V35.4212H83.6057V24.8129Z" fill="#FAFAFA"/>
<path d="M83.6075 35.4229H56.3142V24.7116H83.6075V35.4229ZM56.4172 35.3199H83.5045V24.8146H56.4172V35.3199Z" fill="#1C1C1B"/>
<path d="M83.6057 24.8129H56.4154V27.0787H83.6057V24.8129Z" fill="#0A100C"/>
<path d="M60.6399 29.8613H57.9621V32.5391H60.6399V29.8613Z" fill="#F5F5F5"/>
<path d="M60.6399 32.5391C60.6399 32.5391 60.6399 32.4361 60.6399 32.3331C60.6399 32.2301 60.6399 32.0242 60.6399 31.8182C60.6399 31.3032 60.6399 30.6852 60.6399 29.8613V29.9643C59.816 29.9643 58.889 29.9643 57.9621 29.9643L58.0651 29.8613V29.9643V30.1703C58.0651 30.2733 58.0651 30.3763 58.0651 30.4793C58.0651 30.6852 58.0651 30.9942 58.0651 31.2002C58.0651 31.6122 58.0651 32.0242 58.0651 32.4361L57.9621 32.3331C58.786 32.3331 59.404 32.3331 59.919 32.3331C60.125 32.3331 60.3309 32.3331 60.4339 32.3331C60.5369 32.5391 60.6399 32.5391 60.6399 32.5391C60.6399 32.5391 60.4339 32.5391 59.919 32.5391C59.404 32.5391 58.786 32.5391 57.9621 32.5391H57.8591V32.4361C57.8591 32.0242 57.8591 31.6122 57.8591 31.2002C57.8591 30.9942 57.8591 30.7882 57.8591 30.4793C57.8591 30.3763 57.8591 30.2733 57.8591 30.1703V29.9643V29.8613C57.7561 29.9643 57.9621 29.7583 57.9621 29.7583C58.992 29.7583 59.816 29.7583 60.6399 29.7583H60.7429V29.8613C60.7429 30.6852 60.7429 31.4062 60.7429 31.8182C60.6399 32.3331 60.6399 32.5391 60.6399 32.5391Z" fill="#0A100C"/>
<path d="M57.9621 32.5391C57.9621 32.5391 58.4771 31.9212 59.198 31.0972C59.919 30.3763 60.5369 29.7583 60.6399 29.8613C60.6399 29.8613 60.125 30.4793 59.404 31.3032C58.5801 32.0242 57.9621 32.6421 57.9621 32.5391Z" fill="#D71A22"/>
<path d="M64.1417 29.8613H61.4639V32.5391H64.1417V29.8613Z" fill="#0A100C"/>
<path d="M67.6435 29.8613H64.9656V32.5391H67.6435V29.8613Z" fill="#375A64"/>
<path d="M71.1452 29.8613H68.4674V32.5391H71.1452V29.8613Z" fill="#D71A22"/>
<path d="M74.6471 29.8613H71.9692V32.5391H74.6471V29.8613Z" fill="#D71A22"/>
<g opacity="0.5">
<g opacity="0.5">
<path opacity="0.5" d="M74.6471 29.8613H71.9692V32.5391H74.6471V29.8613Z" fill="white"/>
</g>
</g>
<path d="M78.0458 29.8613H75.368V32.5391H78.0458V29.8613Z" fill="#D71A22"/>
<g opacity="0.3">
<g opacity="0.3">
<path opacity="0.3" d="M78.0458 29.8613H75.368V32.5391H78.0458V29.8613Z" fill="black"/>
</g>
</g>
<path d="M81.5476 29.8613H78.8698V32.5391H81.5476V29.8613Z" fill="#D71A22"/>
<g opacity="0.7">
<g opacity="0.7">
<path opacity="0.7" d="M81.5476 29.8613H78.8698V32.5391H81.5476V29.8613Z" fill="black"/>
</g>
</g>
<path d="M76.3979 61.4803C77.6493 61.4803 78.6637 60.4658 78.6637 59.2144C78.6637 57.963 77.6493 56.9485 76.3979 56.9485C75.1465 56.9485 74.132 57.963 74.132 59.2144C74.132 60.4658 75.1465 61.4803 76.3979 61.4803Z" fill="#0A100C"/>
<path d="M77.2219 59.2145C77.2219 59.6264 76.81 60.0384 76.398 60.0384C75.986 60.0384 75.574 59.6264 75.574 59.2145C75.574 58.8025 75.986 58.3905 76.398 58.3905C76.913 58.3905 77.2219 58.8025 77.2219 59.2145Z" fill="#375A64"/>
<path d="M63.9 89.4C63.9 89 64 88.5 64 87.9C64 87.4 64 86.7 64 86C64 84.5 64 83.3 64 82.3C64 81.4 63.9 80.6 63.9 79.9C63.8 79.3 63.7 78.7 63.6 78.3C63.5 77.9 63.3 77.4 63.1 77C62.9 76.5 62.6 76.1 62.1 75.9C61.7 75.7 61 75.6 60 75.6C59.1 75.6 58.4 75.7 58.1 76C57.8 76.2 57.5 76.6 57.3 77.1C57.1 77.5 57 78 56.9 78.5C56.8 79 56.7 79.7 56.7 80.6C56.7 81.5 56.6 82.7 56.6 84.2C56.6 85.7 56.6 87.8 56.6 90.3C56.6 91.9 56.6 93.2 56.6 94.2C56.6 95.2 56.7 96 56.7 96.6C56.8 97.2 56.9 97.6 57 97.9C57.1 98.2 57.3 98.4 57.4 98.7C57.7 99.1 58 99.3 58.3 99.4C58.6 99.5 59.1 99.6 59.9 99.6C60.6 99.6 61.1 99.6 61.4 99.5C61.7 99.4 62 99.3 62.4 99C63.1 98.5 63.6 97.9 63.9 97.2L68.7 98.7L67.6 120.3H51.4V114.3H62.4L63.1 103.3L62.8 103.2C62.4 103.7 61.8 104.1 61.1 104.4C60.4 104.7 59.4 104.8 58.1 104.8C56.8 104.8 55.9 104.7 55.2 104.4C54.5 104.1 53.9 103.6 53.3 102.9C52.9 102.4 52.5 101.8 52.2 101.2C51.9 100.6 51.7 99.8 51.5 98.9C51.3 98 51.2 96.8 51.1 95.5C51 94.2 51 92.5 51 90.5C51 88.1 51 86 51.1 84.2C51.2 82.4 51.3 80.9 51.4 79.5C51.5 78.2 51.7 77 51.9 76C52.1 75 52.4 74.2 52.7 73.5C53.3 72 54.2 70.9 55.4 70.3C56.6 69.7 58.4 69.4 60.7 69.4C62.4 69.4 63.8 69.6 65 70.1C66.1 70.6 67.1 71.4 67.7 72.6C68.3 73.8 68.9 75.4 69.2 77.4C69.5 79.4 69.7 81.9 69.7 84.9C69.7 86 69.7 86.9 69.7 87.5C69.7 88.1 69.6 88.7 69.5 89.4H63.9Z" fill="#D71A22"/>
<path d="M30.4 72.1C30.7 71.6 31 71.1 31.3 70.8C31.6 70.4 32 70.2 32.6 70C33.1 69.8 33.8 69.7 34.7 69.6C35.6 69.5 36.8 69.5 38.2 69.5C39.7 69.5 40.8 69.5 41.7 69.6C42.6 69.7 43.3 69.8 43.8 70C44.3 70.2 44.7 70.5 45.1 70.8C45.4 71.2 45.7 71.6 46 72.1C46.4 72.8 46.6 73.6 46.8 74.6C47 75.6 47.2 76.9 47.3 78.7C47.4 80.4 47.5 82.6 47.6 85.3C47.6 88 47.7 91.3 47.7 95.4C47.7 99.4 47.7 102.8 47.6 105.5C47.6 108.2 47.5 110.4 47.3 112.1C47.1 113.8 47 115.2 46.8 116.1C46.6 117.1 46.3 117.9 46 118.5C45.7 119 45.5 119.5 45.1 119.8C44.8 120.2 44.4 120.4 43.8 120.6C43.3 120.8 42.6 120.9 41.7 121C40.8 121.1 39.6 121.1 38.2 121.1C36.7 121.1 35.6 121.1 34.7 121C33.8 120.9 33.1 120.8 32.6 120.6C32.1 120.4 31.7 120.1 31.3 119.8C31 119.4 30.7 119 30.4 118.5C30.1 117.8 29.8 117 29.6 116.1C29.4 115.1 29.2 113.8 29.1 112.1C29 110.4 28.9 108.2 28.8 105.5C28.8 102.8 28.7 99.5 28.7 95.4C28.7 91.4 28.7 88 28.8 85.3C28.8 82.6 28.9 80.4 29.1 78.7C29.2 77 29.4 75.6 29.6 74.6C29.8 73.5 30.1 72.7 30.4 72.1ZM35.3 77.2C35.2 77.6 35.1 78.1 35 78.6C34.9 79.1 34.8 80 34.8 81.2C34.7 82.4 34.7 84.1 34.7 86.3C34.7 88.5 34.7 91.4 34.7 95.1C34.7 99.1 34.7 102.2 34.7 104.4C34.7 106.6 34.8 108.4 34.8 109.6C34.9 110.8 34.9 111.6 35 112.1C35.1 112.6 35.2 113 35.3 113.4C35.6 114.1 35.9 114.6 36.3 114.8C36.7 115 37.3 115.1 38.2 115.1C39.1 115.1 39.8 115 40.1 114.8C40.5 114.6 40.8 114.1 41.1 113.4C41.2 113 41.3 112.6 41.4 112.1C41.5 111.6 41.6 110.8 41.6 109.6C41.7 108.4 41.7 106.7 41.7 104.4C41.7 102.2 41.7 99.1 41.7 95.1C41.7 91.4 41.7 88.5 41.7 86.3C41.7 84.1 41.6 82.4 41.6 81.2C41.5 80 41.5 79.1 41.4 78.6C41.3 78.1 41.2 77.6 41.1 77.2C40.8 76.5 40.5 76 40.1 75.8C39.7 75.6 39.1 75.5 38.2 75.5C37.3 75.5 36.6 75.6 36.3 75.8C35.8 76 35.5 76.5 35.3 77.2Z" fill="#D71A22"/>
</svg>
