<svg width="94" height="129" viewBox="0 0 94 129" fill="none" xmlns="http://www.w3.org/2000/svg">
<path d="M89.3026 129H4.29742C1.88667 129 0 127.044 0 124.779V4.22104C0 1.85313 1.99149 0 4.29742 0H89.3026C91.7133 0 93.6 1.95608 93.6 4.22104V124.779C93.6 127.147 91.7133 129 89.3026 129Z" fill="#C8E1FF"/>
<path d="M87.6 127.3H6.50003C4.20003 127.3 2.40002 125.4 2.40002 123.2V6.1C2.40002 3.8 4.30003 2 6.50003 2H87.6C89.9 2 91.7 3.9 91.7 6.1V123.2C91.7 125.5 89.9 127.3 87.6 127.3Z" fill="#EEF5FF"/>
<path d="M8.01699 14.1464L9.56189 7.34878V7.24579H7.70801V6.31885H10.5918V6.93681L9.04693 14.0434H8.01699V14.1464Z" fill="black"/>
<path d="M11.6218 11.1595C11.6218 11.2625 11.6218 11.2625 11.6218 11.3655C11.6218 11.4685 11.6218 11.5715 11.6218 11.6745C11.6218 11.8805 11.6218 12.0865 11.6218 12.2924C11.6218 12.3954 11.6218 12.6014 11.6218 12.7044C11.6218 12.8074 11.6218 12.9104 11.6218 12.9104C11.6218 13.0134 11.6218 13.0134 11.7248 13.1164C11.7248 13.2194 11.8278 13.2194 11.8278 13.3224C11.8278 13.4254 12.0338 13.3224 12.1368 13.3224C12.2398 13.3224 12.3428 13.3224 12.4458 13.2194C12.5488 13.2194 12.5487 13.1164 12.5487 13.0134C12.5487 12.9104 12.5488 12.9104 12.6517 12.8074C12.6517 12.7044 12.6517 12.6014 12.6517 12.4984C12.6517 12.3954 12.6517 12.1895 12.6517 11.9835C12.6517 11.7775 12.6517 11.4685 12.6517 11.0565C12.6517 10.8505 12.6517 10.6445 12.6517 10.4386C12.6517 10.3356 12.6517 10.1296 12.6517 10.0266C12.6517 9.92359 12.6517 9.8206 12.6517 9.8206C12.6517 9.8206 12.6517 9.71761 12.5487 9.71761C12.5487 9.61461 12.4458 9.61461 12.4458 9.61461C12.3428 9.61461 12.3428 9.61461 12.2398 9.61461C12.1368 9.61461 12.0338 9.61461 12.0338 9.61461C11.9308 9.61461 11.9308 9.61461 11.9308 9.71761C11.8278 9.8206 11.7248 9.92359 11.7248 10.0266L11.0038 9.8206L11.2098 6.42181H13.7847V7.24576H12.0338L11.9308 8.99665C12.0338 8.89366 12.1368 8.89366 12.2398 8.79066C12.3428 8.79066 12.5488 8.68767 12.7547 8.68767C12.9607 8.68767 13.0637 8.68767 13.1667 8.79066C13.2697 8.79066 13.3727 8.89366 13.4757 8.99665C13.5787 9.09965 13.5787 9.20264 13.6817 9.30563C13.6817 9.40863 13.7847 9.51162 13.7847 9.61461C13.7847 9.71761 13.7847 9.92359 13.8877 10.1296C13.8877 10.3356 13.8877 10.6445 13.8877 10.9535C13.8877 11.3655 13.8877 11.6745 13.8877 11.9835C13.8877 12.2924 13.8877 12.4984 13.8877 12.7044C13.8877 12.9104 13.8877 13.1164 13.7847 13.2194C13.7847 13.3224 13.6817 13.5284 13.6817 13.6314C13.5787 13.8373 13.4757 14.0433 13.2697 14.1463C13.0637 14.2493 12.7547 14.2493 12.4458 14.2493C12.1368 14.2493 11.9308 14.2493 11.7248 14.1463C11.5188 14.0433 11.4158 13.9403 11.3128 13.7344C11.2098 13.5284 11.1068 13.3224 11.1068 13.0134C11.1068 12.7044 11.0038 12.2924 11.0038 11.8805C11.0038 11.6745 11.0038 11.5715 11.0038 11.4685C11.0038 11.3655 11.0038 11.2625 11.0038 11.1595H11.6218Z" fill="black"/>
<path d="M85.292 117.054L83.7471 123.851V123.954H85.601V124.881H82.7172V124.263L84.2621 117.157H85.292V117.054Z" fill="black"/>
<path d="M81.6873 120.04C81.6873 119.937 81.6873 119.937 81.6873 119.834C81.6873 119.731 81.6873 119.628 81.6873 119.525C81.6873 119.319 81.6873 119.114 81.6873 118.908C81.6873 118.805 81.6873 118.599 81.6873 118.496C81.6873 118.393 81.6873 118.29 81.6873 118.29C81.6873 118.187 81.6873 118.187 81.5843 118.084C81.5843 117.981 81.4813 117.981 81.4813 117.878C81.4813 117.775 81.2753 117.878 81.1723 117.878C81.0693 117.878 80.9663 117.878 80.8634 117.981C80.7604 117.981 80.7604 118.084 80.7604 118.187C80.7604 118.29 80.7603 118.29 80.6574 118.393C80.6574 118.496 80.6574 118.599 80.6574 118.702C80.6574 118.805 80.6574 119.011 80.6574 119.217C80.6574 119.422 80.6574 119.731 80.6574 120.143C80.6574 120.349 80.6574 120.555 80.6574 120.761C80.6574 120.864 80.6574 121.07 80.6574 121.173C80.6574 121.276 80.6574 121.379 80.6574 121.379C80.6574 121.379 80.6574 121.482 80.7604 121.482C80.7604 121.585 80.8634 121.585 80.8634 121.585C80.9663 121.585 80.9663 121.585 81.0693 121.585C81.1723 121.585 81.2753 121.585 81.2753 121.585C81.3783 121.585 81.3783 121.585 81.3783 121.482C81.4813 121.379 81.5843 121.276 81.5843 121.173L82.3053 121.379L82.0993 124.778H79.5244V123.851H81.2753L81.3783 122.1C81.2753 122.203 81.1723 122.203 81.0693 122.306C80.9663 122.306 80.7603 122.409 80.5544 122.409C80.3484 122.409 80.2454 122.409 80.1424 122.306C80.0394 122.306 79.9364 122.203 79.8334 122.1C79.7304 121.997 79.7304 121.894 79.6274 121.791C79.6274 121.688 79.5244 121.585 79.5244 121.482C79.5244 121.379 79.5244 121.173 79.4214 120.967C79.4214 120.761 79.4214 120.452 79.4214 120.143C79.4214 119.731 79.4214 119.422 79.4214 119.114C79.4214 118.805 79.4214 118.599 79.4214 118.393C79.4214 118.187 79.4214 117.981 79.5244 117.878C79.5244 117.775 79.6274 117.569 79.6274 117.466C79.7304 117.26 79.8334 117.054 80.0394 116.951C80.2454 116.848 80.5544 116.848 80.8634 116.848C81.1723 116.848 81.3783 116.848 81.5843 116.951C81.7903 117.054 81.8933 117.157 81.9963 117.363C82.0992 117.569 82.2023 117.775 82.2023 118.084C82.2023 118.393 82.3053 118.805 82.3053 119.217C82.3053 119.422 82.3053 119.525 82.3053 119.628C82.3053 119.731 82.3053 119.834 82.3053 119.937H81.6873V120.04Z" fill="black"/>
<path d="M84.5412 40.7785C84.1292 40.4696 83.8202 40.1606 83.5112 39.8516C82.8933 39.1307 82.3783 38.2037 82.0693 37.2768C81.8633 36.2468 81.8634 35.2169 82.3783 34.29C82.6873 33.878 82.9963 33.466 83.4083 33.157C83.8202 32.848 84.3352 32.7451 84.8502 32.7451C85.3651 32.7451 85.8801 33.054 86.1891 33.363C86.601 33.775 86.807 34.187 86.91 34.7019C87.219 35.6289 87.116 36.6588 86.601 37.5858C86.0861 38.4097 85.3651 39.0277 84.4382 39.3366C83.6142 39.6456 82.6873 39.6456 81.8634 39.5426C81.0394 39.4396 80.2154 39.1307 79.4945 38.7187C78.0526 37.9977 76.8167 37.0708 75.6837 36.4528C74.5508 35.7319 73.4179 35.3199 72.2849 35.1139C71.255 34.9079 70.3281 35.1139 69.6071 35.4229C68.8862 35.7319 68.4742 36.0408 68.1652 36.3498C68.0622 36.4528 68.0622 36.4528 67.9592 36.5558C67.9592 36.6588 67.8562 36.6588 67.8562 36.6588C67.7532 36.7618 67.7532 36.7618 67.7532 36.7618C67.7532 36.7618 67.7532 36.7618 67.8562 36.6588C67.8562 36.6588 67.9592 36.5558 67.9592 36.4528C67.9592 36.3498 68.0622 36.3498 68.1652 36.2468C68.4742 35.9379 68.8862 35.5259 69.6071 35.2169C70.3281 34.9079 71.255 34.8049 72.2849 34.9079C73.3149 35.1139 74.5508 35.5259 75.6837 36.2468C76.8167 36.9678 78.0526 37.7917 79.4945 38.5127C80.2154 38.8217 80.9364 39.1307 81.7604 39.3366C82.5843 39.4396 83.5112 39.4396 84.3352 39.1307C85.1591 38.8217 85.9831 38.3067 86.3951 37.4828C86.807 36.6588 86.91 35.6289 86.704 34.8049C86.601 34.393 86.3951 33.878 85.9831 33.569C85.6741 33.26 85.1591 33.054 84.7472 32.951C84.2322 32.951 83.8202 33.054 83.4083 33.363C82.9963 33.672 82.6873 33.981 82.3783 34.393C81.8634 35.2169 81.8633 36.3498 82.0693 37.2768C82.2753 38.2037 82.7903 39.1307 83.4083 39.8516" fill="#0A100C"/>
<path d="M85.3651 41.2935C85.0562 41.1905 84.8501 40.9846 84.5412 40.7786Z" fill="#0A100C"/>
<path d="M14.1966 63.5401L13.9907 26.3595H71.152V63.9521L14.1966 63.5401Z" fill="#2996D3"/>
<path d="M26.0409 56.4335C28.2037 56.3306 30.4696 56.8455 32.7354 57.0515L31.4995 56.7425C31.2935 54.6827 32.1175 52.5198 33.6624 50.9749C35.2073 49.533 37.3701 48.709 39.43 49.018C40.9749 49.224 42.5198 49.945 44.0647 49.636C46.9485 49.121 48.3904 45.7222 51.1713 44.6923C54.673 43.3534 58.6898 46.4432 62.0886 45.0013C63.4275 44.3833 64.4574 43.1474 65.7964 42.4264C66.9293 41.8085 68.4742 41.6025 69.4011 42.3234V34.2899C68.4742 36.0408 66.2083 36.9678 64.1485 36.7618C61.9856 36.5558 60.0287 35.5259 58.1748 34.3929C56.3209 33.26 54.3641 32.2301 52.2012 31.9211C49.1114 31.5091 46.2276 32.848 43.2408 33.775C40.5629 34.4959 37.6791 34.8049 35.0013 34.084C34.8983 34.084 34.7953 33.981 34.6923 33.981C34.3833 34.2899 33.9714 34.5989 33.5594 34.8049C31.2935 35.9378 28.3067 34.3929 26.1439 35.8349C24.9079 36.6588 24.496 38.3067 23.569 39.5426C21.9211 41.8085 17.8014 42.4264 15.5355 40.8815V59.3174V61.6862H16.7714C18.9343 58.6994 22.3331 56.6395 26.0409 56.4335ZM61.0587 40.0576C61.1616 39.9546 61.3676 39.8516 61.5736 39.8516C61.5736 39.8516 61.5736 39.8516 61.6766 39.8516C62.1916 39.7486 62.8095 39.9546 63.1185 40.4696C63.5305 41.0875 63.2215 42.0145 62.6036 42.4264C61.8826 42.7354 60.9557 42.4264 60.7497 41.7055C60.5437 41.0875 60.8527 40.4696 61.2646 40.1606L61.0587 40.0576Z" fill="#FAFAFA"/>
<path d="M69.4011 42.4265C68.4742 41.7055 66.8263 41.8085 65.7964 42.5295C64.4575 43.3534 63.5305 44.4863 62.0886 45.1043C58.6898 46.5462 54.5701 43.4564 51.1713 44.7953C48.4935 45.8253 46.9486 49.224 44.0647 49.739C42.5198 50.048 40.9749 49.327 39.43 49.1211C37.3702 48.9151 35.1043 49.636 33.6624 51.0779C32.1175 52.5198 31.2936 54.6827 31.4995 56.8456L32.7355 57.1546C34.4863 57.3605 36.1342 57.3605 37.7821 56.8456C42.5198 55.3007 45.0947 49.224 50.0384 48.7091C52.8192 48.4001 55.497 49.945 58.2778 49.43C60.4407 49.0181 62.2946 47.4732 64.0455 46.1342C65.7964 44.8983 67.6502 43.6624 69.7101 44.3834V42.6325C69.5041 42.5295 69.5041 42.5295 69.4011 42.4265Z" fill="#D71A22"/>
<path d="M63.9425 46.1342C62.0886 47.4732 60.3377 49.0181 58.1748 49.43C55.497 49.945 52.7162 48.4001 49.9354 48.7091C44.9917 49.327 42.4168 55.3007 37.6791 56.8456C36.0312 57.3605 34.3833 57.3605 32.6324 57.1546C30.4696 56.9486 28.2037 56.3306 25.9379 56.5366C22.3331 56.7426 18.8313 58.8024 16.8745 61.7893H18.1104C19.2433 60.5533 20.7882 59.7294 22.4361 59.3174C24.8049 58.6995 27.4828 59.2144 29.5426 60.6563C30.0576 60.9653 30.4696 61.3773 30.8816 61.7893H39.842C40.254 61.5833 40.666 61.3773 41.0779 61.1713C42.7258 60.3473 44.5797 59.7294 46.3306 60.1414C47.4635 60.3473 48.4934 60.9653 49.1114 61.7893H58.7928C59.1018 61.1713 59.6168 60.6563 60.3377 60.4503C61.0587 60.2444 61.8826 60.3473 62.5006 59.8324C63.2215 59.3174 63.3245 58.2875 63.6335 57.4635C64.4574 55.1977 67.1353 53.6528 69.5041 54.0647V44.3834C67.5473 43.5594 65.7964 44.7953 63.9425 46.1342ZM55.497 59.8324C53.9521 60.5533 51.8922 59.7294 51.2743 58.0815C50.8623 56.8456 51.3773 55.3007 52.5102 54.5797L52.3042 54.6827C52.6132 54.4767 52.9222 54.2707 53.2311 54.1677C53.3341 54.1677 53.4371 54.0647 53.5401 54.0647H53.4371C54.6731 53.7558 56.115 54.2707 56.7329 55.4037C57.5569 56.9486 56.9389 59.1114 55.497 59.8324ZM66.1053 48.9151C65.6934 49.1211 65.1784 48.9151 64.9724 48.5031C64.8694 48.1941 64.9724 47.7821 65.2814 47.5762H65.1784C65.2814 47.4732 65.3844 47.4732 65.4874 47.4732C65.7964 47.3702 66.2083 47.5762 66.4143 47.7821C66.7233 48.0911 66.5173 48.7091 66.1053 48.9151Z" fill="#D71A22"/>
<path d="M63.7365 57.5666C63.4275 58.3905 63.3245 59.4204 62.6036 59.9354C61.9856 60.3474 61.1616 60.2444 60.4407 60.5534C59.7197 60.7594 59.2048 61.2743 58.8958 61.8923H69.7101V54.2708C67.2383 53.6528 64.5604 55.1977 63.7365 57.5666Z" fill="#D71A22"/>
<path d="M22.5391 59.3174C20.8912 59.7294 19.3462 60.5534 18.2133 61.7893H30.9845C30.5725 61.3773 30.0576 61.0683 29.6456 60.6564C27.5857 59.2145 24.9079 58.6995 22.5391 59.3174Z" fill="#D71A22"/>
<path d="M46.4336 60.1414C44.6827 59.7295 42.8288 60.3474 41.1809 61.1714C40.769 61.3774 40.357 61.5834 39.945 61.7893H49.2144C48.5965 60.9654 47.5665 60.3474 46.4336 60.1414Z" fill="#D71A22"/>
<path d="M42.7258 30.5822C41.0779 30.6852 39.43 30.3762 37.9881 31.2002C36.7522 31.8181 35.9282 33.26 34.8983 34.187C35.0013 34.187 35.1043 34.29 35.2073 34.29C37.8851 35.0109 40.7689 34.7019 43.4467 33.981C46.4335 33.157 49.3174 31.8181 52.4072 32.1271C54.57 32.4361 56.5269 33.569 58.3808 34.5989C60.2347 35.6289 62.1916 36.7618 64.3544 36.9678C66.4143 37.1738 68.6801 36.2468 69.6071 34.4959V33.775V27.9044H46.5365C46.2276 29.4493 44.2707 30.4792 42.7258 30.5822Z" fill="#D71A22"/>
<path d="M60.6467 41.6026C60.8527 42.3235 61.7796 42.6325 62.5006 42.3235C63.2215 42.0146 63.4275 40.9846 63.0155 40.3667C62.7066 39.8517 62.0886 39.6457 61.5736 39.7487C61.5736 39.7487 61.5736 39.7487 61.4706 39.7487C61.2646 39.7487 61.1617 39.8517 60.9557 39.9547L61.0587 39.8517C60.6467 40.3667 60.4407 40.9846 60.6467 41.6026Z" fill="#D71A22"/>
<path d="M53.3341 54.1678C53.2311 54.1678 53.1281 54.1678 53.0252 54.2708C52.7162 54.3738 52.4072 54.4768 52.0982 54.7857L52.3042 54.6828C51.2743 55.5067 50.6563 56.9486 51.0683 58.1845C51.6862 59.8324 53.7461 60.6564 55.291 59.9354C56.8359 59.2145 57.4539 56.9486 56.5269 55.5067C56.012 54.3738 54.5701 53.9618 53.3341 54.1678Z" fill="#D71A22"/>
<path d="M53.3341 54.1678C53.2311 54.1678 53.1281 54.1678 53.0252 54.2708C52.7162 54.3738 52.4072 54.4768 52.0982 54.7857L52.3042 54.6828C51.2743 55.5067 50.6563 56.9486 51.0683 58.1845C51.6862 59.8324 53.7461 60.6564 55.291 59.9354C56.8359 59.2145 57.4539 56.9486 56.5269 55.5067C56.012 54.3738 54.5701 53.9618 53.3341 54.1678Z" fill="#EA7880"/>
<path d="M66.5173 47.7822C66.3113 47.4732 66.0024 47.3702 65.5904 47.4732C65.4874 47.4732 65.3844 47.5762 65.2814 47.5762H65.3844C65.0754 47.7822 64.9724 48.1941 65.0754 48.5031C65.2814 48.9151 65.7964 49.1211 66.2084 48.9151C66.5173 48.7091 66.7233 48.0912 66.5173 47.7822Z" fill="#D71A22"/>
<path d="M23.7743 39.6465C24.7012 38.4106 25.1132 36.8657 26.3491 35.9387C28.409 34.4968 31.4988 35.9387 33.7646 34.9088C34.1766 34.7028 34.5886 34.3938 34.8976 34.0849C35.9275 33.0549 36.7514 31.716 37.9874 31.098C39.4293 30.3771 41.1802 30.5831 42.7251 30.4801C44.3729 30.3771 46.1238 29.3471 46.3298 27.8022H37.7814H15.6378V40.8824C15.6378 40.8824 15.6378 40.8824 15.7408 40.8824C18.0066 42.5303 22.1264 41.9124 23.7743 39.6465Z" fill="#D71A22"/>
<path d="M69.4011 42.4265C68.4742 41.7055 66.8263 41.8085 65.7964 42.5295C64.4575 43.3534 63.5305 44.4863 62.0886 45.1043C58.6898 46.5462 54.5701 43.4564 51.1713 44.7953C48.4935 45.8253 46.9486 49.224 44.0647 49.739C42.5198 50.048 40.9749 49.327 39.43 49.1211C37.3702 48.9151 35.1043 49.636 33.6624 51.0779C32.1175 52.5198 31.2936 54.6827 31.4995 56.8456L32.7355 57.1546C34.4863 57.3605 36.1342 57.3605 37.7821 56.8456C42.5198 55.3007 45.0947 49.224 50.0384 48.7091C52.8192 48.4001 55.497 49.945 58.2778 49.43C60.4407 49.0181 62.2946 47.4732 64.0455 46.1342C65.7964 44.8983 67.6502 43.6624 69.7101 44.3834V42.6325C69.5041 42.5295 69.5041 42.5295 69.4011 42.4265Z" fill="#EA7880"/>
<path d="M37.6791 27.9044H15.5355V40.9846C15.5355 40.9846 15.5355 40.9846 15.6385 40.9846C18.0074 42.5295 22.0241 41.9115 23.672 39.6456C24.5989 38.4097 25.0109 36.8648 26.2468 35.9379C28.3067 34.496 31.3965 35.9379 33.6624 34.9079C34.0743 34.702 34.4863 34.393 34.7953 34.084C35.8252 33.0541 36.6492 31.7151 37.8851 31.0972C39.327 30.3762 41.0779 30.5822 42.6228 30.4792C44.2707 30.3762 46.0216 29.3463 46.2276 27.8014" fill="#EA7880"/>
<path d="M63.1186 44.4863C62.9126 43.8683 61.7796 39.2336 59.6168 30.7881C50.0384 33.26 36.0313 36.7618 20.4792 40.7785V40.6755C21.7152 45.4132 22.8481 50.0479 23.981 54.3737H23.878C46.4336 48.709 61.8826 44.7953 63.1186 44.4863C61.9856 44.7953 46.4336 48.709 23.981 54.4767C22.8481 50.1509 21.7152 45.5162 20.4792 40.7785C36.0313 36.8648 50.1414 33.26 59.6168 30.8911C61.7796 39.2336 62.9126 43.8683 63.1186 44.4863Z" fill="#0A100C"/>
<path d="M63.3906 43.7635L62.3924 44.017L62.646 45.0152L63.6442 44.7617L63.3906 43.7635Z" fill="#375A64"/>
<path d="M24.2567 53.8622L23.2585 54.1158L23.512 55.114L24.5102 54.8604L24.2567 53.8622Z" fill="#375A64"/>
<path d="M59.8739 29.9675L58.8757 30.2211L59.1293 31.2193L60.1275 30.9657L59.8739 29.9675Z" fill="#375A64"/>
<path d="M40.2087 34.9969L39.2105 35.2505L39.4641 36.2487L40.4623 35.9951L40.2087 34.9969Z" fill="#375A64"/>
<path d="M43.7001 48.6931L42.7019 48.9467L42.9555 49.9449L43.9537 49.6914L43.7001 48.6931Z" fill="#375A64"/>
<path d="M22.4962 46.7439L21.498 46.9974L21.7516 47.9956L22.7498 47.7421L22.4962 46.7439Z" fill="#375A64"/>
<path d="M61.6211 36.7475L60.6229 37.0011L60.8764 37.9993L61.8746 37.7457L61.6211 36.7475Z" fill="#375A64"/>
<path d="M20.8528 40.1464L19.8546 40.4L20.1081 41.3982L21.1063 41.1446L20.8528 40.1464Z" fill="#375A64"/>
<path d="M36.0313 48.812C35.9283 48.709 35.8253 48.606 35.7223 48.4C35.7223 48.297 35.7223 48.1941 35.7223 47.9881L37.3702 39.9546L33.7654 40.8815C33.5594 40.8815 33.4564 40.8815 33.2505 40.7785C33.1475 40.6755 33.0445 40.5725 32.9415 40.3665C32.9415 40.1606 32.9415 40.0576 33.0445 39.8516C33.1475 39.6456 33.2504 39.6456 33.4564 39.5426L37.9882 38.4097C38.1941 38.4097 38.2971 38.4097 38.5031 38.5127C38.6061 38.6157 38.7091 38.7186 38.8121 38.9246C38.8121 39.0276 38.8121 39.1306 38.8121 39.2336L37.0612 48.297C37.0612 48.4 36.9582 48.503 36.8552 48.606C36.7522 48.709 36.6492 48.709 36.5462 48.812C36.3403 48.915 36.2373 48.915 36.0313 48.812Z" fill="#2996D3"/>
<path d="M43.5498 46.7522C43.0348 46.6492 42.5198 46.3402 42.2108 45.9283C41.9019 45.5163 41.5929 45.0013 41.3869 44.4864C41.3869 44.2804 41.3869 44.1774 41.4899 43.9714C41.5929 43.7654 41.6959 43.7654 41.9019 43.6624C42.1079 43.6624 42.2108 43.6624 42.4168 43.7654C42.6228 43.8684 42.6228 43.9714 42.7258 44.1774C42.8288 44.4864 42.9318 44.7953 43.2408 45.0013C43.4468 45.2073 43.7558 45.4133 44.0647 45.5163C44.3737 45.6193 44.6827 45.6193 45.0947 45.5163C45.4036 45.4133 45.7126 45.3103 45.9186 45.0013C46.1246 44.7953 46.3306 44.4864 46.4336 44.1774C46.5366 43.8684 46.5366 43.5594 46.4336 43.1474C46.3306 42.8385 46.2276 42.5295 45.9186 42.3235C45.7126 42.1175 45.4036 41.9115 45.0947 41.8085C44.7857 41.7055 44.4767 41.7055 44.0647 41.8085L42.1079 42.3235C41.9019 42.3235 41.7989 42.3235 41.5929 42.2205C41.4899 42.1175 41.3869 42.0145 41.2839 41.8085L40.46 38.6157C40.46 38.4097 40.46 38.3067 40.563 38.1008C40.666 37.9978 40.7689 37.8948 40.9749 37.7918L44.9917 36.7618C45.1977 36.7618 45.3006 36.7618 45.5066 36.8648C45.7126 36.9678 45.7126 37.0708 45.8156 37.2768C45.8156 37.4828 45.8156 37.5858 45.7126 37.7918C45.6096 37.8948 45.5066 37.9978 45.3007 38.1008L41.9019 38.9247L42.4168 40.9846L43.7558 40.6756C44.3737 40.5726 44.8887 40.5726 45.4037 40.6756C45.9186 40.7786 46.4336 41.0876 46.7426 41.4995C47.0516 41.9115 47.3605 42.4265 47.5665 42.9414C47.6695 43.5594 47.6695 44.0744 47.5665 44.5893C47.4635 45.1043 47.1545 45.6193 46.7426 45.9283C46.3306 46.3402 45.8156 46.5462 45.3007 46.7522C44.5797 46.8552 44.0647 46.8552 43.5498 46.7522Z" fill="#2996D3"/>
<path d="M63.7365 57.5665C63.4275 58.3904 63.3245 59.4204 62.6036 59.9353C61.9856 60.3473 61.1616 60.2443 60.4407 60.5533C59.7197 60.7593 59.2048 61.2743 58.8958 61.8922H69.7101V54.2707C67.2383 53.6527 64.5604 55.1976 63.7365 57.5665Z" fill="#A3111B"/>
<g opacity="0.3">
<g opacity="0.3">
<path opacity="0.3" d="M66.5173 47.7822C66.3113 47.4732 66.0024 47.3702 65.5904 47.4732C65.4874 47.4732 65.3844 47.5762 65.2814 47.5762H65.3844C65.0754 47.7822 64.9724 48.1941 65.0754 48.5031C65.2814 48.9151 65.7964 49.1211 66.2084 48.9151C66.5173 48.7091 66.7233 48.0912 66.5173 47.7822Z" fill="black"/>
</g>
</g>
<g opacity="0.3">
<g opacity="0.3">
<path opacity="0.3" d="M22.5391 59.3174C20.8912 59.7294 19.3462 60.5533 18.2133 61.7892H30.9845C30.5725 61.3773 30.0576 61.0683 29.6456 60.6563C27.5857 59.2144 24.9079 58.6994 22.5391 59.3174Z" fill="#A3111B"/>
</g>
</g>
<g opacity="0.3">
<g opacity="0.3">
<path opacity="0.3" d="M46.4336 60.1414C44.6827 59.7294 42.8288 60.3474 41.1809 61.1713C40.769 61.3773 40.357 61.5833 39.945 61.7893H49.2144C48.5965 60.9653 47.5665 60.3474 46.4336 60.1414Z" fill="#A3111B"/>
</g>
</g>
<path d="M64.0454 7.51166H35.7222V18.532H64.0454V7.51166Z" fill="#FAFAFA"/>
<path d="M63.9424 18.532C63.9424 18.532 63.9424 18.429 63.9424 18.326C63.9424 18.223 63.9424 18.0171 63.9424 17.7081C63.9424 17.1931 63.9424 16.4721 63.9424 15.5452C63.9424 13.6913 63.9424 10.9105 63.9424 7.51171L64.0454 7.61471C56.9389 7.61471 46.9485 7.61471 35.7222 7.61471L35.8252 7.51171C35.8252 11.3225 35.8252 15.0302 35.8252 18.532L35.7222 18.429C43.8587 18.429 50.9653 18.429 56.012 18.429C58.4838 18.429 60.5437 18.429 61.8826 18.429C62.6035 18.429 63.1185 18.429 63.4275 18.429C63.6335 18.429 63.7365 18.429 63.8394 18.429C63.9424 18.532 63.9424 18.532 63.9424 18.532C63.9424 18.532 63.9424 18.532 63.8394 18.532C63.7365 18.532 63.6335 18.532 63.4275 18.532C63.0155 18.532 62.5005 18.532 61.8826 18.532C60.5437 18.532 58.4838 18.532 56.012 18.532C50.9653 18.532 43.8587 18.532 35.7222 18.532H35.6192V18.429C35.6192 15.0302 35.6192 11.3225 35.6192 7.40872V7.30573H35.7222C46.8455 7.30573 56.9389 7.30573 64.0454 7.30573H64.1484V7.40872C64.1484 10.8075 64.1484 13.5883 64.1484 15.4422C64.1484 16.3692 64.1484 17.0901 64.1484 17.6051C64.1484 17.8111 64.1484 18.0171 64.1484 18.12C64.0454 18.429 63.9424 18.532 63.9424 18.532Z" fill="#0A100C"/>
<path d="M64.0454 7.51166H35.7222V9.88051H64.0454V7.51166Z" fill="#0A100C"/>
<path d="M41.9018 11.7344H39.121V14.5152H41.9018V11.7344Z" fill="#0A100C"/>
<path d="M43.5497 13.3823H40.7689V16.1631H43.5497V13.3823Z" fill="#0A100C"/>
<path d="M48.4934 11.7344H45.7126V14.5152H48.4934V11.7344Z" fill="#0A100C"/>
<path d="M50.1413 13.3823H47.3605V16.1631H50.1413V13.3823Z" fill="#F5F5F5"/>
<path d="M50.1413 16.1631C50.1413 16.1631 50.1413 16.0601 50.1413 15.9571C50.1413 15.7511 50.1413 15.6481 50.1413 15.3391C50.1413 14.8242 50.1413 14.2062 50.1413 13.3823L50.2443 13.4853C49.4203 13.4853 48.4934 13.4853 47.4635 13.4853L47.5664 13.3823V13.4853V13.6912C47.5664 13.7942 47.5664 13.8972 47.5664 14.1032C47.5664 14.3092 47.5664 14.6182 47.5664 14.8242C47.5664 15.3391 47.5664 15.7511 47.5664 16.1631L47.4635 16.0601C48.2874 16.0601 49.0084 16.0601 49.4203 16.0601C49.6263 16.0601 49.8323 16.0601 50.0383 16.0601C50.0383 16.1631 50.1413 16.1631 50.1413 16.1631C50.1413 16.1631 50.0383 16.1631 49.9353 16.1631C49.8323 16.1631 49.6263 16.1631 49.4203 16.1631C48.9054 16.1631 48.1844 16.1631 47.3605 16.1631H47.2575V16.0601C47.2575 15.6481 47.2575 15.2361 47.2575 14.7212C47.2575 14.5152 47.2575 14.2062 47.2575 14.0002C47.2575 13.8972 47.2575 13.7942 47.2575 13.5882V13.3823V13.2793C47.1545 13.3823 47.3605 13.1763 47.3605 13.1763C48.3904 13.1763 49.3173 13.1763 50.1413 13.1763H50.2443V13.2793C50.2443 14.1032 50.2443 14.8242 50.2443 15.3391C50.2443 15.5451 50.2443 15.7511 50.2443 15.8541C50.1413 16.0601 50.1413 16.1631 50.1413 16.1631Z" fill="#0A100C"/>
<path d="M54.673 11.7344H51.8922V14.5152H54.673V11.7344Z" fill="#F5F5F5"/>
<path d="M54.673 14.5152C54.673 14.5152 54.673 14.4122 54.673 14.3092C54.673 14.1032 54.673 14.0002 54.673 13.6912C54.673 13.1763 54.673 12.5583 54.673 11.7344L54.776 11.8374C53.952 11.8374 53.0251 11.8374 51.9952 11.8374L52.0982 11.7344V11.8374V12.0433C52.0982 12.1463 52.0982 12.2493 52.0982 12.4553C52.0982 12.6613 52.0982 12.9703 52.0982 13.1763C52.0982 13.6912 52.0982 14.1032 52.0982 14.5152L51.9952 14.4122C52.8191 14.4122 53.5401 14.4122 53.9521 14.4122C54.158 14.4122 54.364 14.4122 54.57 14.4122C54.57 14.5152 54.673 14.5152 54.673 14.5152C54.673 14.5152 54.57 14.5152 54.467 14.5152C54.364 14.5152 54.158 14.5152 53.9521 14.5152C53.4371 14.5152 52.7161 14.5152 51.8922 14.5152H51.7892V14.4122C51.7892 14.0002 51.7892 13.5883 51.7892 13.0733C51.7892 12.8673 51.7892 12.5583 51.7892 12.3523C51.7892 12.2493 51.7892 12.1463 51.7892 11.9404V11.7344V11.6314C51.6862 11.7344 51.8922 11.5284 51.8922 11.5284C52.9221 11.5284 53.8491 11.5284 54.673 11.5284H54.776V11.6314C54.776 12.4553 54.776 13.1763 54.776 13.6912C54.776 13.8972 54.776 14.1032 54.776 14.2062C54.673 14.4122 54.673 14.5152 54.673 14.5152Z" fill="#0A100C"/>
<path d="M56.3209 13.3823H53.5401V16.1631H56.3209V13.3823Z" fill="#F5F5F5"/>
<path d="M56.3209 16.163C56.3209 16.163 56.3209 16.06 56.3209 15.957C56.3209 15.751 56.3209 15.6481 56.3209 15.3391C56.3209 14.8241 56.3209 14.2061 56.3209 13.3822L56.4239 13.4852C55.6 13.4852 54.673 13.4852 53.6431 13.4852L53.7461 13.3822V13.4852V13.6912C53.7461 13.7942 53.7461 13.8972 53.7461 14.1032C53.7461 14.3091 53.7461 14.6181 53.7461 14.8241C53.7461 15.3391 53.7461 15.751 53.7461 16.163L53.6431 16.06C54.467 16.06 55.188 16.06 55.6 16.06C55.8059 16.06 56.0119 16.06 56.2179 16.06C56.2179 16.163 56.3209 16.163 56.3209 16.163C56.3209 16.163 56.2179 16.163 56.1149 16.163C56.0119 16.163 55.8059 16.163 55.6 16.163C55.085 16.163 54.364 16.163 53.5401 16.163H53.4371V16.06C53.4371 15.6481 53.4371 15.2361 53.4371 14.7211C53.4371 14.5151 53.4371 14.2061 53.4371 14.0002C53.4371 13.8972 53.4371 13.7942 53.4371 13.5882V13.3822V13.2792C53.3341 13.3822 53.5401 13.1762 53.5401 13.1762C54.57 13.1762 55.497 13.1762 56.3209 13.1762H56.4239V13.2792C56.4239 14.1032 56.4239 14.8241 56.4239 15.3391C56.4239 15.5451 56.4239 15.751 56.4239 15.854C56.3209 16.06 56.3209 16.163 56.3209 16.163Z" fill="#0A100C"/>
<path d="M54.673 13.3823H53.5401V14.5152H54.673V13.3823Z" fill="#0A100C"/>
<path d="M60.3376 11.7344H57.5568V14.5152H60.3376V11.7344Z" fill="#0A100C"/>
<path d="M61.9855 13.3823H59.2047V16.1631H61.9855V13.3823Z" fill="#0A100C"/>
<path d="M60.3376 13.3823H59.2047V14.5152H60.3376V13.3823Z" fill="#FAFAFA"/>
<path d="M83.7155 24.8129H56.5252V35.4212H83.7155V24.8129Z" fill="#FAFAFA"/>
<path d="M83.7172 35.4229H56.424V24.7116H83.7172V35.4229ZM56.5269 35.3199H83.6142V24.8146H56.5269V35.3199V35.3199Z" fill="#1C1C1B"/>
<path d="M83.7155 24.8129H56.5252V27.0787H83.7155V24.8129Z" fill="#0A100C"/>
<path d="M60.7497 29.8613H58.0718V32.5391H60.7497V29.8613Z" fill="#F5F5F5"/>
<path d="M60.7497 32.5391C60.7497 32.5391 60.7497 32.4361 60.7497 32.3331C60.7497 32.2301 60.7497 32.0242 60.7497 31.8182C60.7497 31.3032 60.7497 30.6852 60.7497 29.8613L60.8527 29.9643C60.0287 29.9643 59.1018 29.9643 58.1748 29.9643L58.2778 29.8613V29.9643V30.1703C58.2778 30.2733 58.2778 30.3763 58.2778 30.4793C58.2778 30.6852 58.2778 30.9942 58.2778 31.2002C58.2778 31.6122 58.2778 32.0242 58.2778 32.4361L58.1748 32.3331C58.9988 32.3331 59.6167 32.3331 60.1317 32.3331C60.3377 32.3331 60.5437 32.3331 60.6467 32.3331C60.6467 32.5391 60.7497 32.5391 60.7497 32.5391C60.7497 32.5391 60.5437 32.5391 60.0287 32.5391C59.5137 32.5391 58.8958 32.5391 58.0718 32.5391H57.9688V32.4361C57.9688 32.0242 57.9688 31.6122 57.9688 31.2002C57.9688 30.9942 57.9688 30.7882 57.9688 30.4793C57.9688 30.3763 57.9688 30.2733 57.9688 30.1703V29.9643V29.8613C57.8658 29.9643 58.0718 29.7583 58.0718 29.7583C59.1018 29.7583 59.9257 29.7583 60.7497 29.7583H60.8527V29.8613C60.8527 30.6852 60.8527 31.4062 60.8527 31.8182C60.7497 32.3331 60.7497 32.5391 60.7497 32.5391Z" fill="#0A100C"/>
<path d="M58.0718 32.5391C58.0718 32.5391 58.5868 31.9212 59.3078 31.0972C60.0287 30.3763 60.6467 29.7583 60.7497 29.8613C60.7497 29.8613 60.2347 30.4793 59.5137 31.3032C58.6898 32.0242 58.0718 32.6421 58.0718 32.5391Z" fill="#D71A22"/>
<path d="M64.2515 29.8613H61.5736V32.5391H64.2515V29.8613Z" fill="#0A100C"/>
<path d="M67.6502 29.8613H64.9724V32.5391H67.6502V29.8613Z" fill="#375A64"/>
<path d="M71.152 29.8613H68.4742V32.5391H71.152V29.8613Z" fill="#D71A22"/>
<path d="M74.6538 29.8613H71.976V32.5391H74.6538V29.8613Z" fill="#D71A22"/>
<g opacity="0.5">
<g opacity="0.5">
<path opacity="0.5" d="M74.6538 29.8613H71.976V32.5391H74.6538V29.8613Z" fill="white"/>
</g>
</g>
<path d="M78.1556 29.8613H75.4778V32.5391H78.1556V29.8613Z" fill="#D71A22"/>
<g opacity="0.3">
<g opacity="0.3">
<path opacity="0.3" d="M78.1556 29.8613H75.4778V32.5391H78.1556V29.8613Z" fill="black"/>
</g>
</g>
<path d="M81.6574 29.8613H78.9796V32.5391H81.6574V29.8613Z" fill="#D71A22"/>
<g opacity="0.7">
<g opacity="0.7">
<path opacity="0.7" d="M81.6574 29.8613H78.9796V32.5391H81.6574V29.8613Z" fill="black"/>
</g>
</g>
<path d="M76.5077 61.4803C77.7591 61.4803 78.7736 60.4658 78.7736 59.2144C78.7736 57.963 77.7591 56.9485 76.5077 56.9485C75.2563 56.9485 74.2418 57.963 74.2418 59.2144C74.2418 60.4658 75.2563 61.4803 76.5077 61.4803Z" fill="#0A100C"/>
<path d="M77.3316 59.2145C77.3316 59.6264 76.9197 60.0384 76.5077 60.0384C76.0957 60.0384 75.6837 59.6264 75.6837 59.2145C75.6837 58.8025 76.0957 58.3905 76.5077 58.3905C76.9197 58.3905 77.3316 58.8025 77.3316 59.2145Z" fill="#375A64"/>
<path d="M65.5 70.2L55.7 113.7L55.9 114.2H68V120.2H49.3V115.9L59.1 70.2H65.5Z" fill="#2B9EE7"/>
<path d="M42.4 89.4C42.4 89 42.5 88.5 42.5 87.9C42.5 87.4 42.5 86.7 42.5 86C42.5 84.5 42.5 83.3 42.5 82.3C42.5 81.4 42.4 80.6 42.4 79.9C42.3 79.3 42.2 78.7 42.1 78.3C42 77.9 41.8 77.4 41.6 77C41.4 76.5 41.1 76.1 40.6 75.9C40.2 75.7 39.5 75.6 38.5 75.6C37.6 75.6 36.9 75.7 36.6 76C36.3 76.2 36 76.6 35.8 77.1C35.6 77.5 35.5 78 35.4 78.5C35.3 79 35.2 79.7 35.2 80.6C35.2 81.5 35.1 82.7 35.1 84.2C35.1 85.7 35.1 87.8 35.1 90.3C35.1 91.9 35.1 93.2 35.1 94.2C35.1 95.2 35.2 96 35.2 96.6C35.3 97.2 35.4 97.6 35.5 97.9C35.6 98.2 35.8 98.4 35.9 98.7C36.2 99.1 36.5 99.3 36.8 99.4C37.1 99.5 37.6 99.6 38.4 99.6C39.1 99.6 39.6 99.6 39.9 99.5C40.2 99.4 40.5 99.3 40.9 99C41.6 98.5 42.1 97.9 42.4 97.2L47.2 98.7L46.1 120.3H29.9V114.3H40.9L41.6 103.3L41.3 103.2C40.9 103.7 40.3 104.1 39.6 104.4C38.9 104.7 37.9 104.8 36.6 104.8C35.3 104.8 34.4 104.7 33.7 104.4C33 104.1 32.4 103.6 31.8 102.9C31.4 102.4 31 101.8 30.7 101.2C30.4 100.6 30.2 99.8 30 98.9C29.8 98 29.7 96.8 29.6 95.5C29.5 94.2 29.5 92.5 29.5 90.5C29.5 88.1 29.5 86 29.6 84.2C29.7 82.4 29.8 80.9 29.9 79.5C30 78.2 30.2 77 30.4 76C30.6 75 30.9 74.2 31.2 73.5C31.8 72 32.7 70.9 33.9 70.3C35.1 69.7 36.9 69.4 39.2 69.4C40.9 69.4 42.3 69.6 43.5 70.1C44.6 70.6 45.6 71.4 46.2 72.6C46.9 73.8 47.4 75.4 47.7 77.4C48 79.4 48.2 81.9 48.2 84.9C48.2 86 48.2 86.9 48.2 87.5C48.2 88.1 48.1 88.7 48 89.4H42.4Z" fill="black"/>
</svg>
