<svg width="93" height="129" viewBox="0 0 93 129" fill="none" xmlns="http://www.w3.org/2000/svg">
<path d="M88.7301 129H4.26988C1.87458 129 0 127.044 0 124.779V4.22104C0 1.85313 1.97872 0 4.26988 0H88.7301C91.1254 0 93 1.95608 93 4.22104V124.779C93 127.147 91.1254 129 88.7301 129Z" fill="#C8E1FF"/>
<path d="M86.9 126.8H5.79999C3.49999 126.8 1.70001 124.9 1.70001 122.7V5.60001C1.70001 3.30001 3.59999 1.5 5.79999 1.5H86.9C89.2 1.5 91 3.40001 91 5.60001V122.7C91.1 124.9 89.2 126.8 86.9 126.8Z" fill="#EEF5FF"/>
<path d="M34.438 43.2944C33.9818 44.6333 32.5266 45.3493 31.1872 44.8928C29.8478 44.4364 29.133 42.9816 29.5894 41.6422C30.0456 40.3034 31.5006 39.588 32.8394 40.0442C34.1783 40.5004 34.8943 41.9556 34.438 43.2944Z" fill="#231F20"/>
<path d="M18.6977 41.4943C20.1097 41.4068 21.1834 40.1912 21.0959 38.7792C21.0084 37.3672 19.7927 36.2935 18.3807 36.381C16.9687 36.4686 15.8951 37.6842 15.9826 39.0962C16.0701 40.5082 17.2857 41.5819 18.6977 41.4943Z" fill="#231F20"/>
<path d="M18.8067 44.5377C18.4328 45.6351 17.24 46.2216 16.1426 45.8477C15.0452 45.4737 14.4587 44.2809 14.8326 43.1835C15.2066 42.0861 16.3993 41.4996 17.4967 41.8736C18.5942 42.2475 19.1806 43.4403 18.8067 44.5377Z" fill="#231F20"/>
<path d="M18.8031 44.5501L14.829 43.1959L12.8446 49.0195L16.8187 50.3737L18.8031 44.5501Z" fill="#231F20"/>
<path d="M13.9946 42.3695C14.1475 41.9209 13.9076 41.433 13.459 41.2801C13.0104 41.1273 12.5226 41.3672 12.3697 41.8158C12.3691 41.8175 12.3685 41.8192 12.3679 41.821L10.2366 48.0758L11.8609 48.6293L13.9925 42.3739C13.9937 42.3724 13.9941 42.3712 13.9946 42.3695Z" fill="#231F20"/>
<path d="M21.8064 49.8976L19.5071 49.1141C19.2239 49.0176 18.995 48.8056 18.8768 48.5308L16.8869 43.8913C16.6571 43.3551 16.9049 42.7342 17.4412 42.5043C17.9774 42.2744 18.533 42.5298 18.7628 43.0661L20.6325 47.2656L22.4873 47.8976C23.0392 48.0857 23.3347 48.6858 23.1465 49.2382C22.959 49.7903 22.3583 50.0857 21.8064 49.8976Z" fill="#231F20"/>
<path d="M46.9275 49.6497C47.8637 48.589 47.7628 46.9703 46.7022 46.0341C45.6416 45.0979 44.0229 45.1987 43.0867 46.2593C42.1504 47.3199 42.2513 48.9387 43.3119 49.8749C44.3725 50.8111 45.9912 50.7103 46.9275 49.6497Z" fill="#231F20"/>
<path d="M41.3757 52.2283C41.0018 53.3257 41.5882 54.5185 42.6856 54.8924C43.783 55.2663 44.9758 54.6799 45.3498 53.5824C45.7237 52.485 45.1372 51.2923 44.0398 50.9183C42.9424 50.5444 41.7496 51.1309 41.3757 52.2283Z" fill="#231F20"/>
<path d="M45.3456 53.5946L41.3716 52.2404L39.3871 58.064L43.3612 59.4182L45.3456 53.5946Z" fill="#231F20"/>
<path d="M46.5111 53.4496C46.6639 53.001 47.1518 52.7612 47.6004 52.914C48.049 53.0669 48.2889 53.5547 48.136 54.0033C48.1354 54.0051 48.1348 54.0068 48.1342 54.0086L46.0029 60.2633L44.3785 59.7098L46.5101 53.4545C46.5101 53.4525 46.5105 53.4514 46.5111 53.4496Z" fill="#231F20"/>
<path d="M38.0272 55.425L35.7279 54.6415C35.176 54.4534 34.8805 53.8533 35.0687 53.3008C35.2568 52.7489 35.8569 52.4534 36.4094 52.6417L38.2641 53.2737L42.4184 51.0349C42.9279 50.7505 43.415 50.9424 43.6987 51.4517C43.9831 51.9612 43.8002 52.6043 43.2907 52.8886L38.8819 55.3477C38.6212 55.4933 38.3104 55.5215 38.0272 55.425Z" fill="#231F20"/>
<path d="M32.947 53.1919C32.9407 53.1897 32.9349 53.1878 32.9285 53.1856C32.3801 52.9871 32.0961 52.3818 32.294 51.8333C32.3025 51.8103 32.3104 51.7871 32.3181 51.7644C32.9638 49.8697 32.0935 47.8521 30.3786 47.2678C28.6632 46.6832 26.7428 47.7492 26.097 49.6445C25.9089 50.1964 25.3088 50.492 24.7563 50.3037C24.2045 50.1157 23.9089 49.5156 24.0972 48.9631C25.1185 45.9657 28.2418 44.3083 31.0599 45.2686C33.8779 46.2288 35.3393 49.4485 34.3179 52.4459C34.3058 52.4813 34.2932 52.5165 34.2806 52.5517C34.0844 53.0931 33.4908 53.3772 32.947 53.1919Z" fill="#231F20"/>
<path d="M32.8866 47.3969L28.313 45.8384L26.4393 51.3371L31.0129 52.8955L32.8866 47.3969Z" fill="#231F20"/>
<path d="M37.636 57.0366L37.7927 56.577C37.9125 56.2253 37.7246 55.8433 37.373 55.7234L19.2679 49.554C18.9162 49.4342 18.5342 49.622 18.4143 49.9737L18.2577 50.4333C18.2563 50.4374 18.2557 50.4411 18.1649 50.7074L37.5421 57.3103C37.6329 57.044 37.6348 57.0401 37.636 57.0366Z" fill="#231F20"/>
<path d="M44.8678 43.3754C48.9504 44.7666 52.956 43.8519 53.8146 41.3324C54.6731 38.8129 52.0595 35.6426 47.9769 34.2515C43.8942 32.8603 39.8886 33.775 39.0301 36.2945C38.1716 38.814 40.7852 41.9842 44.8678 43.3754Z" fill="#A8C909"/>
<path d="M44.268 41.1819L42.788 44.2802L41.1084 41.2944L44.268 41.1819Z" fill="#A8C909"/>
<path d="M21.4469 35.3946C25.5295 36.7858 29.5351 35.8711 30.3937 33.3516C31.2522 30.8321 28.6386 27.6618 24.5559 26.2707C20.4733 24.8795 16.4677 25.7942 15.6092 28.3137C14.7507 30.8332 17.3643 34.0034 21.4469 35.3946Z" fill="#A8C909"/>
<path d="M23.2613 34.0237L22.5421 37.3812L25.6954 36.0424L23.2613 34.0237Z" fill="#A8C909"/>
<path d="M34.2627 34.9362C38.537 36.3927 42.7306 35.435 43.6294 32.7973C44.5283 30.1595 41.7919 26.8404 37.5177 25.384C33.2434 23.9275 29.0498 24.8851 28.1509 27.5229C27.2521 30.1606 29.9884 33.4797 34.2627 34.9362Z" fill="#2B9EE7"/>
<path d="M32.8905 34.0094L33.8519 37.0768L36.3673 35.1067L32.8905 34.0094Z" fill="#2B9EE7"/>
<path d="M47.0026 87.8223C47.3961 86.4637 48.8165 85.681 50.1757 86.0747C51.5348 86.4685 52.3164 87.8885 51.9227 89.2477C51.5291 90.6062 50.1088 91.3884 48.7503 90.9948C47.3917 90.6012 46.609 89.1808 47.0026 87.8223Z" fill="#231F20"/>
<path d="M62.8094 88.8899C61.403 89.0428 60.3869 90.307 60.5399 91.7134C60.6929 93.1198 61.957 94.1359 63.3634 93.983C64.7698 93.83 65.7859 92.5658 65.633 91.1594C65.48 89.753 64.2158 88.7369 62.8094 88.8899Z" fill="#231F20"/>
<path d="M62.5593 85.8548C62.8819 84.7412 64.0462 84.1 65.1598 84.4226C66.2734 84.7452 66.9146 85.9095 66.592 87.0231C66.2694 88.1367 65.1051 88.7779 63.9915 88.4553C62.8779 88.1327 62.2367 86.9684 62.5593 85.8548Z" fill="#231F20"/>
<path d="M62.5623 85.8423L66.595 87.0106L68.307 81.1011L64.2743 79.9329L62.5623 85.8423Z" fill="#231F20"/>
<path d="M67.4668 87.7974C67.3349 88.2526 67.5972 88.7288 68.0524 88.8607C68.5076 88.9926 68.9838 88.7303 69.1157 88.2751C69.1162 88.2733 69.1167 88.2716 69.1172 88.2698L70.956 81.9228L69.3077 81.4453L67.4688 87.7929C67.4677 87.7945 67.4673 87.7956 67.4668 87.7974Z" fill="#231F20"/>
<path d="M59.3141 80.6399L61.6472 81.3158C61.9346 81.3991 62.1731 81.6003 62.3039 81.8693L64.507 86.4114C64.7615 86.9364 64.5428 87.5682 64.0177 87.8227C63.4927 88.0772 62.926 87.8479 62.6715 87.3228L60.6088 83.2146L58.7268 82.6694C58.1667 82.5071 57.8437 81.9214 58.0061 81.3608C58.1677 80.8006 58.754 80.4777 59.3141 80.6399Z" fill="#231F20"/>
<path d="M34.2316 82.0536C33.3456 83.1565 33.5215 84.7688 34.6244 85.6548C35.7273 86.5408 37.3396 86.3649 38.2256 85.262C39.1116 84.1591 38.9357 82.5468 37.8328 81.6608C36.7299 80.7748 35.1176 80.9507 34.2316 82.0536Z" fill="#231F20"/>
<path d="M39.6577 79.2201C39.9803 78.1065 39.3391 76.9422 38.2255 76.6196C37.1119 76.297 35.9476 76.9382 35.625 78.0518C35.3024 79.1654 35.9436 80.3297 37.0572 80.6523C38.1708 80.9749 39.3351 80.3337 39.6577 79.2201Z" fill="#231F20"/>
<path d="M35.6286 78.0395L39.6613 79.2077L41.3732 73.2983L37.3406 72.13L35.6286 78.0395Z" fill="#231F20"/>
<path d="M34.4712 78.2384C34.3393 78.6936 33.8631 78.9559 33.4079 78.824C32.9527 78.6921 32.6904 78.2159 32.8223 77.7607C32.8228 77.7589 32.8233 77.7572 32.8238 77.7554L34.6626 71.4085L36.3109 71.886L34.4719 78.2335C34.472 78.2355 34.4717 78.2366 34.4712 78.2384Z" fill="#231F20"/>
<path d="M42.8542 75.8714L45.1874 76.5474C45.7474 76.7096 46.0705 77.2953 45.9081 77.8559C45.7458 78.416 45.1601 78.7391 44.5995 78.5766L42.7174 78.0314L38.6715 80.4606C38.1758 80.7683 37.6803 80.5992 37.3732 80.1036C37.0655 79.6079 37.2183 78.957 37.7141 78.6494L42.004 75.9883C42.2577 75.8307 42.5669 75.7882 42.8542 75.8714Z" fill="#231F20"/>
<path d="M48.0325 77.8663C48.039 77.8682 48.0449 77.8699 48.0514 77.8717C48.6083 78.0446 48.9202 78.636 48.748 79.1931C48.7405 79.2165 48.7337 79.2401 48.7271 79.263C48.17 81.1857 49.133 83.1607 50.8732 83.6648C52.6139 84.1691 54.4827 83.0152 55.0399 81.0919C55.2021 80.5319 55.7878 80.2088 56.3485 80.3712C56.9085 80.5334 57.2316 81.1192 57.0692 81.6798C56.188 84.7214 53.145 86.522 50.2854 85.6935C47.4258 84.8651 45.8166 81.7167 46.6978 78.6751C46.7082 78.6392 46.7192 78.6035 46.7302 78.5677C46.901 78.0178 47.4808 77.7064 48.0325 77.8663Z" fill="#231F20"/>
<path d="M48.3619 83.6522L53.0029 84.9967L54.6194 79.4171L49.9784 78.0726L48.3619 83.6522Z" fill="#231F20"/>
<path d="M43.1702 74.2434L43.0351 74.7098C42.9317 75.0666 43.1371 75.4395 43.4939 75.5429L61.8658 80.8653C62.2227 80.9687 62.5956 80.7633 62.699 80.4065L62.8341 79.9401C62.8353 79.936 62.8357 79.9323 62.914 79.662L43.2513 73.9656C43.173 74.2359 43.1712 74.2398 43.1702 74.2434Z" fill="#231F20"/>
<path d="M36.5803 88.2255C32.4375 87.0253 28.4787 88.125 27.738 90.6816C26.9973 93.2382 29.7553 96.2837 33.8981 97.4839C38.0408 98.6841 41.9997 97.5845 42.7403 95.0278C43.481 92.4712 40.723 89.4257 36.5803 88.2255Z" fill="#A8C909"/>
<path d="M37.2812 90.3888L38.6158 87.2252L40.4322 90.1298L37.2812 90.3888Z" fill="#A8C909"/>
<path d="M60.3463 95.1107C56.2036 93.9105 52.2447 95.0101 51.5041 97.5668C50.7634 100.123 53.5214 103.169 57.6641 104.369C61.8069 105.569 65.7657 104.47 66.5064 101.913C67.2471 99.3564 64.4891 96.3109 60.3463 95.1107Z" fill="#A8C909"/>
<path d="M58.5976 96.5643L59.1601 93.177L56.0724 94.6608L58.5976 96.5643Z" fill="#A8C909"/>
<path d="M47.5657 96.1634C43.2284 94.9069 39.0837 96.0581 38.3083 98.7348C37.5328 101.411 40.4203 104.6 44.7575 105.856C49.0948 107.113 53.2395 105.962 54.0149 103.285C54.7904 100.608 51.9029 97.42 47.5657 96.1634Z" fill="#2B9EE7"/>
<path d="M48.9793 97.0255L47.8766 94.006L45.4554 96.0908L48.9793 97.0255Z" fill="#2B9EE7"/>
<path d="M60.36 12H59.8V6.8H61.008C61.424 6.8 61.7387 6.89867 61.952 7.096C62.1707 7.29333 62.28 7.568 62.28 7.92V9.04C62.28 9.584 62.0453 9.93067 61.576 10.08L62.56 12H61.944L61.008 10.16H60.36V12ZM61.72 9.04V7.92C61.72 7.71733 61.6587 7.56 61.536 7.448C61.4133 7.336 61.2373 7.28 61.008 7.28H60.36V9.68H61.008C61.4827 9.68 61.72 9.46667 61.72 9.04ZM66.0428 12H63.6828V6.8H65.9628V7.28H64.2428V9.12H65.6428V9.6H64.2428V11.52H66.0428V12ZM65.6108 5.656L65.3068 5.96L64.4028 6.416L64.1948 6.208L65.1788 5.224L65.6108 5.656ZM69.3253 11V6.8H69.8853V11C69.8853 11.3573 69.7706 11.6347 69.5413 11.832C69.3173 12.024 68.9786 12.12 68.5253 12.12C68.0773 12.12 67.7386 12.024 67.5093 11.832C67.28 11.6347 67.1653 11.3573 67.1653 11V6.8H67.7253V11C67.7253 11.4267 67.992 11.64 68.5253 11.64C69.0586 11.64 69.3253 11.4267 69.3253 11ZM71.9616 12H71.4016V6.8H71.9616L73.6976 10.8V6.8H74.2576V12H73.6976L71.9616 8V12ZM76.9747 11.52V12H75.6147V11.52H76.0147V7.28H75.6147V6.8H76.9747V7.28H76.5747V11.52H76.9747ZM80.9313 7.8V11C80.9313 11.3573 80.8166 11.6347 80.5873 11.832C80.3633 12.024 80.0246 12.12 79.5713 12.12C79.1233 12.12 78.7846 12.024 78.5553 11.832C78.3259 11.6347 78.2113 11.3573 78.2113 11V7.8C78.2113 7.44267 78.3233 7.168 78.5473 6.976C78.7766 6.77867 79.1153 6.68 79.5633 6.68C80.0166 6.68 80.3579 6.77867 80.5873 6.976C80.8166 7.168 80.9313 7.44267 80.9313 7.8ZM80.3713 11V7.8C80.3713 7.37333 80.1046 7.16 79.5713 7.16C79.0379 7.16 78.7713 7.37333 78.7713 7.8V11C78.7713 11.4267 79.0379 11.64 79.5713 11.64C80.1046 11.64 80.3713 11.4267 80.3713 11ZM82.9694 12H82.4094V6.8H82.9694L84.7054 10.8V6.8H85.2654V12H84.7054L82.9694 8V12Z" fill="#2B9EE7"/>
<path d="M32.64 117L32.64 118.84L31.992 118.84L31.056 117L30.44 117L31.424 118.92C30.952 119.072 30.72 119.44 30.72 119.96L30.72 121.08C30.72 121.768 31.144 122.2 31.992 122.2L33.2 122.2L33.2 117L32.64 117ZM31.28 119.96C31.28 119.56 31.512 119.32 31.992 119.32L32.64 119.32L32.64 121.72L31.992 121.72C31.52 121.72 31.28 121.472 31.28 121.08L31.28 119.96ZM26.9572 117L26.9572 117.48L28.7572 117.48L28.7572 119.4L27.3572 119.4L27.3572 119.88L28.7572 119.88L28.7572 121.72L27.0372 121.72L27.0372 122.2L29.3172 122.2L29.3172 117L26.9572 117ZM27.3892 123.344L27.8212 123.776L28.8052 122.792L28.5972 122.584L27.6932 123.04L27.3892 123.344ZM23.6747 118C23.6747 117.6 23.9307 117.36 24.4667 117.36C25.0107 117.36 25.2747 117.6 25.2747 118L25.2747 122.2L25.8347 122.2L25.8347 118C25.8347 117.304 25.3867 116.88 24.4667 116.88C23.5467 116.88 23.1147 117.304 23.1147 118L23.1147 122.2L23.6747 122.2L23.6747 118ZM21.0384 117L21.0384 121L19.3024 117L18.7424 117L18.7424 122.2L19.3024 122.2L19.3024 118.2L21.0384 122.2L21.5984 122.2L21.5984 117L21.0384 117ZM16.0253 117.48L16.4253 117.48L16.4253 121.72L16.0253 121.72L16.0253 122.2L17.3853 122.2L17.3853 121.72L16.9853 121.72L16.9853 117.48L17.3853 117.48L17.3853 117L16.0253 117L16.0253 117.48ZM12.0687 121.2C12.0687 121.896 12.5167 122.32 13.4367 122.32C14.3567 122.32 14.7887 121.896 14.7887 121.2L14.7887 118C14.7887 117.304 14.3407 116.88 13.4207 116.88C12.5007 116.88 12.0687 117.304 12.0687 118L12.0687 121.2ZM12.6287 118C12.6287 117.592 12.8847 117.36 13.4207 117.36C13.9647 117.36 14.2287 117.6 14.2287 118L14.2287 121.2C14.2287 121.6 13.9727 121.84 13.4367 121.84C12.8927 121.84 12.6287 121.6 12.6287 121.2L12.6287 118ZM10.0306 117L10.0306 121L8.29462 117L7.73462 117L7.73462 122.2L8.29462 122.2L8.29462 118.2L10.0306 122.2L10.5906 122.2L10.5906 117L10.0306 117Z" fill="#2B9EE7"/>
<path d="M8.02 10H7.6V6.1H8.506C8.818 6.1 9.054 6.174 9.214 6.322C9.378 6.47 9.46 6.676 9.46 6.94V7.78C9.46 8.188 9.284 8.448 8.932 8.56L9.67 10H9.208L8.506 8.62H8.02V10ZM9.04 7.78V6.94C9.04 6.788 8.994 6.67 8.902 6.586C8.81 6.502 8.678 6.46 8.506 6.46H8.02V8.26H8.506C8.862 8.26 9.04 8.1 9.04 7.78ZM12.0721 9.25V6.1H12.4921V9.25C12.4921 9.518 12.4061 9.726 12.2341 9.874C12.0661 10.018 11.8121 10.09 11.4721 10.09C11.1361 10.09 10.8821 10.018 10.7101 9.874C10.5381 9.726 10.4521 9.518 10.4521 9.25V6.1H10.8721V9.25C10.8721 9.57 11.0721 9.73 11.4721 9.73C11.8721 9.73 12.0721 9.57 12.0721 9.25Z" fill="#2B9EE7"/>
<path d="M84.98 120L85.4 120L85.4 123.9L84.494 123.9C84.182 123.9 83.946 123.826 83.786 123.678C83.622 123.53 83.54 123.324 83.54 123.06L83.54 122.22C83.54 121.812 83.716 121.552 84.068 121.44L83.33 120L83.792 120L84.494 121.38L84.98 121.38L84.98 120ZM83.96 122.22L83.96 123.06C83.96 123.212 84.006 123.33 84.098 123.414C84.19 123.498 84.322 123.54 84.494 123.54L84.98 123.54L84.98 121.74L84.494 121.74C84.138 121.74 83.96 121.9 83.96 122.22ZM80.9279 120.75L80.9279 123.9L80.5079 123.9L80.5079 120.75C80.5079 120.482 80.5939 120.274 80.7659 120.126C80.9339 119.982 81.1879 119.91 81.5279 119.91C81.8639 119.91 82.1179 119.982 82.2899 120.126C82.4619 120.274 82.5479 120.482 82.5479 120.75L82.5479 123.9L82.1279 123.9L82.1279 120.75C82.1279 120.43 81.9279 120.27 81.5279 120.27C81.1279 120.27 80.9279 120.43 80.9279 120.75Z" fill="#2B9EE7"/>
</svg>
