<?xml version="1.0" encoding="utf-8"?>
<!-- Generator: Adobe Illustrator 24.1.2, SVG Export Plug-In . SVG Version: 6.00 Build 0)  -->
<svg version="1.1" id="Layer_1" xmlns="http://www.w3.org/2000/svg" xmlns:xlink="http://www.w3.org/1999/xlink" x="0px" y="0px"
	 viewBox="0 0 841.9 595.3" style="enable-background:new 0 0 841.9 595.3;" xml:space="preserve">
<style type="text/css">
	.st0{clip-path:url(#SVGID_2_);}
	.st1{fill:#FFFFFF;}
</style>
<g>
	<defs>
		<rect id="SVGID_1_" x="-48.7" y="-9.1" width="933.7" height="623.2"/>
	</defs>
	<clipPath id="SVGID_2_">
		<use xlink:href="#SVGID_1_"  style="overflow:visible;"/>
	</clipPath>
	<g class="st0">
		<path class="st1" d="M158,279c0-10.5,4.8-19,14.8-25.8c4.5-3.1,8.6-6.6,12.2-10.4c6-6.4,12.1-13.1,17.9-19.5
			c5.1-5.7,10.5-11.6,15.8-17.3c5.8-6.3,13.4-10.3,21.8-11.7c7.4-1.2,15-1.5,22.3-1.8c10.5-0.5,20.5-3,30.7-7.8l1.8-0.9
			c9.8-4.6,20-9.4,30.3-13.6c4.2-1.7,8.6-3.1,12.9-4.5c5.1-1.6,10.3-3.3,15.1-5.4c17.8-7.9,36.2-16.2,55.9-21.6
			c9.7-2.7,22.1-6.9,31.3-15.8c4.7-4.5,10-8.6,15.1-12.6l0.3-0.2c6.8-5.3,17.4-11.8,31.1-7.2l1.9,0.6c5.7,1.9,11.6,3.9,17,6.5
			c11.5,5.6,22.2,13.6,33.9,25.1c8.3,8.2,12.3,17.3,12.1,27.9l0,0.6c-0.1,5-0.2,10.2,0.1,15.2c0.3,6.5,1.5,13.1,8,17.2
			c4.7,3,9.8,5.7,14.7,8.2l1.9,1c9.2,4.8,18.2,11,28.3,19.5c7.4,6.3,14.4,12.9,20.3,18.5c3,2.8,5.9,5.8,8.7,8.7
			c4.3,4.4,8.8,9,13.6,13.1c9.5,8.3,21.9,12.7,37.7,13.5c14.1,0.7,27.2-2.4,41.6-6.1c11.6-3,21.6-3.3,31.7-1
			c14.9,3.4,30.6,8.5,49.5,16c11,4.4,21.1,4.9,30.8,1.7c9.7-3.2,15.6-10.1,19.1-22.2c3.2-11.1,7-22.9,14.4-33.7
			c6.6-9.6,15.8-22,28.4-32.2c5.3-4.3,10.7-8.2,17.7-9.5c0.6-0.1,1.1,0.2,1.2,0.7c0.1,0.5-0.2,1-0.8,1.1c-6.5,1.2-11.5,4.8-16.7,9.1
			c-12.5,10.1-21.6,22.3-28.1,31.8c-7.2,10.5-10.9,22.2-14.1,33.2c-2.5,8.6-7,19-20.4,23.4c-10,3.3-20.9,2.8-32.3-1.8
			c-18.8-7.4-34.4-12.5-49.2-15.9c-9.6-2.2-19.4-1.9-30.6,1c-14.6,3.8-27.9,6.9-42.3,6.2c-16.4-0.8-29.2-5.4-39.1-14
			c-4.8-4.2-9.3-8.8-13.7-13.2c-2.8-2.9-5.7-5.8-8.7-8.7c-5.8-5.6-12.8-12.1-20.2-18.4c-9.9-8.4-18.8-14.6-27.9-19.3l-1.9-1
			c-5-2.6-10.2-5.3-14.9-8.4c-7.1-4.6-8.4-11.7-8.8-18.6c-0.3-5.1-0.2-10.3-0.1-15.3l0-0.6c0.2-10.1-3.5-18.9-11.5-26.7
			c-11.5-11.3-22.2-19.2-33.4-24.7c-5.3-2.6-11.1-4.5-16.7-6.4l-1.9-0.6c-9.8-3.3-18.7-1.2-29,6.9l-0.3,0.2
			c-5.1,4-10.3,8.1-14.9,12.5c-9.5,9.2-22.2,13.5-32.2,16.3c-19.6,5.4-37.9,13.6-55.6,21.5c-4.9,2.2-10.2,3.9-15.3,5.5
			c-4.2,1.3-8.6,2.7-12.7,4.4c-10.2,4.2-20.4,8.9-30.2,13.6l-1.8,0.9c-10.5,4.9-20.8,7.5-31.5,8c-7.3,0.3-14.8,0.7-22.1,1.8
			c-7.9,1.3-15.1,5.1-20.6,11c-5.3,5.7-10.6,11.6-15.8,17.3c-5.8,6.4-11.9,13.1-17.9,19.6c-3.7,3.9-7.9,7.5-12.5,10.7
			c-10,6.9-14.6,15.6-13.9,26.5c0.2,3,0.3,6.1,0.3,9.1c0.1,4.6,0.2,9.4,0.8,14.1c0.6,5,3.1,11.6,11.6,14.6
			c5.5,1.9,10.2,3.2,14.6,3.9c11.8,1.9,22.4,6.4,31.5,13.5c12.2,9.5,26.4,12.1,43.5,8.1c19.8-4.7,36.5-11.1,51-19.7
			c11.5-6.8,15.9-16.2,13.7-29.4c-1.8-11.1-3.2-22.9,1.6-34.7c5.8-14.1,25.8-26.4,45.2-21.6c5.3,1.3,10.4,3.1,15.5,4.8
			c1.8,0.6,3.6,1.2,5.4,1.8c9.3,3,18.9,4.6,29.3,4.9l1,0c7.8,0.2,16,0.4,23.6,3.4c10.6,4.1,16.5,12,21.6,19.8
			c4.3,6.6,8.5,13.4,12.5,20l2.8,4.6c7.8,12.7,19,23.7,35.2,34.5c6.8,4.6,13.7,9.7,20.3,15.4c10.2,8.7,19.6,12.7,30.5,12.9
			c2.7,0,5.4,0.2,8,0.4c3.8,0.3,7.8,0.5,11.7,0.4c15.7-0.6,30.1,1.9,43.9,7.6c13,5.4,27.6,6.9,47.3,4.9c13.4-1.4,26.5-4.5,39.2-7.5
			c3.7-0.9,7.3-1.7,11-2.6c10.2-2.3,20.1-3.6,29.3-3.9c11.8-0.4,23.2,2.2,33.6,7.8c6.8,3.6,14.8,7.6,23.8,9.1l1.8,0.3
			c2.6,0.5,5.3,1,7.8,0.9c17.2-0.4,31.9,2.9,45,9.9c12.3,6.6,26.4,9.6,44.4,9.5c0.6,0,1,0.4,1,0.9c0,0,0,0,0,0c0,0.5-0.5,0.9-1,0.9
			c-18.4,0.1-32.8-3-45.4-9.8c-12.7-6.8-27.1-10-43.9-9.6c-2.8,0.1-5.6-0.5-8.3-1l-1.8-0.3c-9.4-1.6-17.5-5.7-24.5-9.4
			c-10.1-5.4-21.1-7.9-32.5-7.5c-9.1,0.3-18.8,1.6-28.9,3.9c-3.7,0.8-7.3,1.7-11,2.5c-12.8,3-26,6.1-39.5,7.5
			c-20.1,2.1-35,0.5-48.4-5c-13.6-5.6-27.6-8.1-43-7.4c-4,0.2-8-0.1-11.9-0.4c-2.6-0.2-5.3-0.3-7.9-0.4
			c-11.5-0.2-21.3-4.3-31.8-13.4c-6.6-5.6-13.4-10.8-20.1-15.3c-16.4-11-27.8-22.1-35.8-35.1l-2.8-4.6c-4-6.6-8.2-13.4-12.5-19.9
			c-4.9-7.5-10.6-15.2-20.7-19c-7.3-2.8-15.2-3-22.9-3.2l-1,0c-10.6-0.3-20.4-1.9-29.9-5c-1.8-0.6-3.6-1.2-5.4-1.8
			c-5-1.7-10.1-3.4-15.3-4.7c-18.4-4.6-37.3,7.1-42.8,20.4c-4.7,11.4-3.3,23-1.5,33.8c2.3,14.1-2.3,24-14.6,31.2
			c-14.7,8.7-31.6,15.2-51.6,19.9c-17.8,4.2-32.6,1.4-45.4-8.5c-8.8-6.9-19.1-11.3-30.5-13.1c-4.5-0.7-9.4-2-15-4
			c-7.5-2.6-11.9-8.2-12.9-16.1c-0.6-4.7-0.7-9.6-0.8-14.3c-0.1-3-0.2-6-0.3-9.1C158.1,280.6,158,279.8,158,279z"/>
		<path class="st1" d="M-69.4,479.3c0-0.9,0.7-1.7,1.8-1.8c1.4-0.2,2.8-0.4,4.3-0.6c3.2-0.5,6.4-1,9.8-1.1l0.9,0
			c10.6-0.5,21.5-1,32.2-0.8c11.2,0.2,22.8-1.5,36.4-5.2c8.3-2.3,17.3-4.5,26.5-5.3c14.3-1.3,28.6,0.5,42.4,5.1
			c12.8,4.3,26.2,4.8,39.6,1.4c12.2-3,25-6,38.1-8.8c3.6-0.8,7.3-1.4,10.9-2c3.7-0.6,7.6-1.3,11.3-2.1c9.7-2.2,13.7-6.4,12.9-13.8
			c-0.4-3.5,0-7.2,1.1-10.3c1.1-3.2,3.2-6.6,5.8-9.4c1.5-1.7,4.2-2.7,7.3-2.8c2.9-0.1,5.4,0.8,7,2.3c3.2,3.2,6.1,6.8,8.2,10.4
			c4.7,8.1,1.6,15.6-1.4,22.9l-0.2,0.5c-1,2.5-1.6,6.3-0.5,8.6c5,9.9,12.5,17.9,22.3,23.9c9.5,5.7,20.5,7,35.9,4.1
			c7.5-1.4,14.7-4.2,21.5-8.4c12-7.4,26.1-15.7,41.9-21.3c10.9-3.8,18.2-9.3,22.4-16.8c3-5.3,5.1-11.2,7.1-16.9l0.3-0.8
			c4.5-12.7,13.8-19.4,28.5-20.7c4.7-0.4,9.4-1.2,14.1-2c3-0.5,6-1,9-1.4c4.3-0.6,8.7-1,13-1.4l3.9-0.4c4-0.4,7.9,0.8,11,3.3
			c3.5,2.8,5.5,6.9,5.5,10.8c-0.1,5.7-0.7,10-2.1,13.7c-2.3,6.2-5.2,12.4-8,18.3c-0.9,2-1.9,4-2.8,6c-5.2,11.5-13.8,19.2-25.4,23
			c-4.1,1.3-8.3,2.6-12.4,3.7c-3.7,1.1-7.5,2.2-11.3,3.4c-12.3,3.9-18.2,9.7-19.3,18.7c-0.4,3.7-0.3,7.5,0.5,10.9
			c3.5,16.1,13,27.8,28,34.6c4.2,1.9,9,3.3,13.6,4.6c2.3,0.7,4.6,1.3,6.8,2c7.4,2.4,11.5,8.1,10.7,14.7c-1.1,8.1-2.7,17.5-8.2,25.7
			c-7.4,11.1-15.5,23-24.3,34.3c-5.6,7.2-14,11.6-23.6,12.3c-8.4,0.6-15.2,0.9-21.4,0.9c-15.9,0-27.8-6.4-35.3-19
			c-1.3-2.1-2.3-4.4-3.3-6.6c-0.9-2-1.7-3.9-2.8-5.7c-7.4-13.1-18-23.8-27.3-32.5c-10.7-10-23.1-18.7-38-26.6
			c-13-6.9-24.5-7.8-37.3-3.1c-16.6,6.2-34.4,12-54.4,17.7l-4.8,1.4c-15.7,4.4-32,9-46.6,16.6c-14.7,7.7-24.5,16.5-30.8,27.8
			c-9.9,17.9-17.3,37.2-22,57.6c-1.9,8.4,1.8,13.6,11.2,15.3c4.6,0.9,9.5,1.3,14.2,1.8c2.9,0.3,5.9,0.6,8.8,0.9
			c14.2,1.8,28,5.3,41,10.3c16.1,6.2,29.1,7.6,42.2,4.8c5.4-1.2,10.9-1.5,16.3-1.8l0.8,0c10.9-0.6,22.3,1.1,34.9,5.5
			c10.8,3.7,24.1,9.6,31.7,22.3c0.5,0.9,0.2,2-0.8,2.5c-1,0.5-2.2,0.1-2.8-0.8c-5.4-9.1-14.6-15.4-29.6-20.6
			c-12-4.1-22.8-5.8-33.1-5.2l-0.8,0c-5.2,0.3-10.6,0.6-15.6,1.7c-13.8,3-28.1,1.4-44.8-5c-12.7-4.9-26.1-8.2-39.9-10
			c-2.9-0.4-5.8-0.7-8.7-0.9c-4.8-0.5-9.8-0.9-14.6-1.8c-11.6-2.2-16.8-9.3-14.4-19.6c4.8-20.7,12.3-40.3,22.3-58.5
			c6.6-12,16.9-21.3,32.4-29.4c15-7.8,31.5-12.4,47.4-16.9l4.8-1.4c19.9-5.6,37.6-11.4,54.1-17.6c13.9-5.2,26.9-4.2,41,3.3
			c15.2,8,27.9,16.9,38.8,27.2c9.5,8.9,20.3,19.9,28,33.4c1.1,2,2,4,2.9,6c1,2.2,1.9,4.3,3.1,6.2c6.7,11.3,17.4,17,31.7,17
			c6.1,0,12.8-0.3,21.1-0.9c8.5-0.6,15.6-4.3,20.5-10.7c8.7-11.3,16.8-23.1,24.2-34.1c4.6-6.9,6.4-14.7,7.6-24.3
			c0.7-4.9-2.4-9-8-10.8c-2.2-0.7-4.4-1.3-6.7-2c-4.8-1.4-9.7-2.8-14.2-4.8c-16.2-7.4-26.4-19.9-30.2-37.2c-0.8-3.7-1-7.9-0.5-11.9
			c1.2-10.4,8.2-17.3,22-21.7c3.8-1.2,7.6-2.3,11.4-3.4c4-1.2,8.2-2.4,12.3-3.7c10.6-3.5,18.2-10.3,23-20.9c0.9-2,1.9-4,2.8-6
			c2.7-5.9,5.6-12,7.9-18.1c1.2-3.3,1.8-7.3,1.9-12.6c-0.1-2.9-1.5-6-4.1-8.1c-2.2-1.8-5-2.6-7.8-2.4l-3.9,0.4
			c-4.2,0.4-8.6,0.8-12.8,1.4c-3,0.4-6,0.9-8.9,1.4c-4.7,0.8-9.6,1.6-14.4,2c-13,1.1-20.9,6.9-24.9,18.1l-0.3,0.8
			c-2.1,5.8-4.2,11.9-7.3,17.4c-4.7,8.3-12.7,14.4-24.6,18.6c-15.4,5.4-29.3,13.6-41,20.9c-7.3,4.5-15,7.5-23,9
			c-11.1,2.1-25.6,3.5-39-4.7c-10.5-6.3-18.4-14.9-23.7-25.4c-1.7-3.5-0.9-8.3,0.4-11.3l0.2-0.5c2.8-6.9,5.5-13.4,1.6-20
			c-2-3.4-4.6-6.7-7.6-9.7c-0.7-0.7-2.2-1.1-3.8-1.1c-1.8,0-3.4,0.6-4.2,1.4c-2.2,2.4-4,5.3-5,8.1c-0.9,2.7-1.3,5.8-1,8.9
			c1,9.2-4.4,15.1-16,17.7c-3.8,0.9-7.7,1.5-11.5,2.1c-3.5,0.6-7.2,1.2-10.7,1.9c-13.1,2.8-25.8,5.8-37.9,8.8
			c-14.3,3.5-28.5,3-42.2-1.5c-13.2-4.4-26.9-6.1-40.6-4.9c-8.9,0.8-17.6,2.9-25.7,5.1c-14,3.8-26,5.5-37.7,5.3
			c-10.6-0.1-21.5,0.3-32,0.8l-0.9,0c-3.1,0.1-6.1,0.6-9.3,1.1c-1.5,0.2-2.9,0.4-4.4,0.6c-1.1,0.1-2.2-0.6-2.3-1.6
			C-69.4,479.5-69.4,479.4-69.4,479.3z"/>
		<path class="st1" d="M470.7,592.4c0-1.7,0.3-3.3,1-4.8c1.9-4.3,6.3-7.4,13.1-9.2c6.4-1.7,13.4-2.6,20.2-2.7
			c12.3-0.2,24.7,0.3,36.6,0.8c10,0.4,18.7,2.6,26,6.5c15.8,8.4,30,16.7,43.6,25.1c13.7,8.5,27.4,14.3,41.9,17.6
			c15.2,3.4,28.6,2.4,41-3.3c8.2-3.7,16.9-7.3,25.8-10.6c14.8-5.5,27.1-6.4,38.9-2.7c3.5,1.1,7,2.4,10.3,3.7c3.7,1.4,7.6,2.9,11.4,4
			c4.2,1.2,6.9,1.5,8,0.6c1-0.7,1.3-2.7,1-5.7c-0.1-1.4-1-2.9-1.8-4.4l-0.4-0.7c-4.6-8.5-4.6-17,0-25.3c0.9-1.6,1.8-3.1,2.7-4.6
			c1.8-3,3.6-6.1,5-9.3c4.4-10.1,5.2-18.9,2.4-26.8c-1.9-5.3-4.5-10.1-7.6-13.9c-11.1-13.7-21.1-29.1-32.3-49.9
			c-4.4-8.1-10.1-15.8-15.7-23.2l-0.9-1.2c-6.2-8.4-15.3-12.2-26.1-10.9c-9.4,1.1-19.5,3.1-30.2,6c-16.5,4.5-31.8,4.5-46.7-0.1
			l-3.4-1.1c-6.5-2-13.3-4.2-20.1-5.4c-12-2.1-19.9-0.2-25.6,6.2c-1.2,1.3-2.3,2.7-3.5,4c-2.4,2.8-4.8,5.6-7.5,8.3
			c-8.6,8.9-20.6,13.7-30.3,17.6c-19.4,7.8-36,8.4-52.1,1.9c-9.2-3.7-15-8.6-17.3-14.6c-2.3-5.8-1.2-12.6,3.1-20.1l0.8-1.4
			c3-5.3,6.2-10.7,9-16.1c4-7.7,4.8-14.9,2.4-22c-0.7-2.2-1.5-4.4-2.3-6.7c-1.8-5-3.6-10.2-5-15.4c-1.4-5.2-2.1-11.1,2.8-16.1
			c5.3-5.4,17.1-6.9,25.9-0.6c5,3.6,9.3,8.1,13.1,12c6,6.2,13.5,9,22.5,8.4c3.8-0.3,7.5-1.3,11.5-2.4c2.3-0.6,4.6-1.3,7-1.8
			c1.5-0.3,3.1-0.6,4.6-1c6.3-1.3,12.8-2.7,19.3-3.4c10.6-1.1,20.7,1.2,30,3.8c9.6,2.7,22.4,5.7,35.7,4.8l3-0.2
			c5-0.3,10.3-0.7,15.4-0.6c4.7,0,9.4,0.2,14,0.4c3.1,0.1,6.2,0.3,9.2,0.4c9.6,0.3,19.2,2.7,30.5,7.6c16.6,7.3,33.1,9.2,50.5,5.7
			c7.4-1.5,15.1-1.7,23.1-1.8c4.7-0.1,9.5,0.1,14.1,0.4c3.5,0.2,7.1,0.3,10.6,0.4c8.8,0.1,17.5,1.6,26.4,4.6l3.8,1.3
			c14,4.7,28.5,9.6,42.6,14.6c4.1,1.4,8,3.3,11.8,5.1c1.7,0.8,3.4,1.6,5.2,2.4c1,0.5,1.4,1.6,0.9,2.5c-0.5,0.9-1.7,1.3-2.8,0.8
			c-1.8-0.8-3.5-1.6-5.3-2.4c-3.7-1.7-7.5-3.5-11.4-4.9c-14.1-5-28.5-9.9-42.5-14.6l-3.8-1.3c-8.4-2.8-16.6-4.3-25-4.3
			c-3.6,0-7.2-0.2-10.8-0.4c-4.5-0.2-9.3-0.4-13.8-0.4c-7.7,0.1-15.2,0.4-22.3,1.8c-18.1,3.6-36,1.5-53.2-6
			c-10.8-4.8-19.7-7-28.8-7.3c-3.1-0.1-6.2-0.2-9.3-0.4c-4.5-0.2-9.2-0.4-13.8-0.4c-5,0-10.1,0.3-15.1,0.6l-3,0.2
			c-14,0.9-27.3-2.2-37.2-5c-8.9-2.5-18.5-4.7-28.3-3.7c-6.3,0.6-12.7,2-18.8,3.3c-1.6,0.3-3.1,0.7-4.7,1c-2.2,0.5-4.5,1.1-6.7,1.7
			c-4,1.1-8.1,2.2-12.3,2.5c-10.2,0.7-19.2-2.6-25.9-9.6c-3.7-3.8-7.9-8.2-12.6-11.6c-7.7-5.5-16.7-3.5-20.3,0.1
			c-3.4,3.5-3.2,7.7-1.9,12.8c1.4,5.1,3.2,10.2,4.9,15.2c0.8,2.2,1.6,4.5,2.3,6.7c2.7,7.9,1.8,16-2.6,24.6c-2.8,5.5-6,11-9.1,16.3
			l-0.8,1.4c-3.8,6.5-4.8,12.3-2.9,17.2c2,5,7.1,9.3,15.2,12.5c14.9,6,30.4,5.4,48.7-1.9c11.4-4.6,21.5-9,28.9-16.6
			c2.5-2.6,5-5.5,7.3-8.2c1.2-1.4,2.3-2.7,3.5-4c8.8-9.9,21.1-9,29.6-7.5c7.1,1.2,14,3.4,20.6,5.5l3.4,1c14.1,4.4,28.5,4.4,44.2,0.1
			c10.9-3,21.3-5.1,30.9-6.2c12.3-1.4,22.9,3.1,30,12.5l0.9,1.2c5.6,7.6,11.5,15.4,16,23.7c11.1,20.6,21,35.8,31.9,49.4
			c3.3,4.2,6.2,9.3,8.2,15c3.1,8.8,2.3,18.4-2.5,29.3c-1.5,3.4-3.4,6.6-5.2,9.7c-0.9,1.5-1.8,3-2.6,4.6c-4.1,7.4-4.1,14.6,0,22.1
			l0.4,0.7c0.9,1.7,2,3.6,2.2,5.6c0.3,2.8,0.4,6.8-2.5,8.9c-3.1,2.2-8,1.1-11.9,0c-4-1.2-8-2.7-11.8-4.1c-3.3-1.3-6.7-2.6-10-3.6
			c-10.8-3.4-22.2-2.5-36,2.6c-8.8,3.3-17.4,6.8-25.5,10.5c-13.3,6-27.7,7.2-43.9,3.5c-15-3.4-29.1-9.3-43.2-18.1
			c-13.4-8.4-27.6-16.5-43.3-25c-6.7-3.6-14.8-5.6-24.1-6c-11.9-0.5-24.2-1-36.4-0.8c-6.5,0.1-13.1,1-19.2,2.6
			c-5.5,1.4-9,3.8-10.4,7c-1.5,3.5-0.6,8.1,2.7,13c2.2,3.3,4.7,6.6,7.1,9.8c2.5,3.4,5.2,6.9,7.5,10.4c5.7,8.5,8.8,18,11.8,27.2
			c0.6,1.7,1.1,3.5,1.7,5.2c4,11.9,12.5,19.4,25.8,22.9c1.6,0.4,3.2,0.8,4.8,1.2c6.3,1.6,12.8,3.3,19.1,5.5
			c10.5,3.7,19.4,10.8,26.6,20.9c4.8,6.7,9.4,13.7,13.9,20.5c2,3,4,6,5.9,9c0.6,0.9,0.3,2-0.7,2.5c-1,0.5-2.2,0.2-2.8-0.6
			c-2-3-4-6-6-9c-4.4-6.7-9-13.7-13.8-20.4c-6.8-9.6-14.9-15.9-24.7-19.4c-6-2.2-12.4-3.8-18.7-5.4c-1.6-0.4-3.2-0.8-4.8-1.2
			c-14.8-3.9-24.1-12.2-28.6-25.4c-0.6-1.7-1.2-3.5-1.7-5.3c-2.9-9-6-18.2-11.4-26.4c-2.3-3.5-4.9-6.9-7.4-10.3
			c-2.4-3.2-5-6.6-7.3-10C472.1,599.9,470.7,596,470.7,592.4z"/>
		<path class="st1" d="M236.1-31.2c0-7.7,3.6-14.3,6.7-19.3c7.4-11.7,19-20.1,35.5-25.5c12.7-4.2,23.6-2.6,32.6,4.6
			c5.7,4.6,11.1,9.4,16.3,14.1c4,3.5,8.6,7.3,13.9,7.3c3.9,0,7.9-2,12.3-6c10.2-9.3,15.6-21.4,16.8-38.1
			c0.8-10.6-3.1-20.8-11.9-31.1c-3.1-3.6-5.9-7.4-8.7-11.2c-1.3-1.7-2.5-3.4-3.8-5.1c-0.3-0.4-0.2-1,0.3-1.3
			c0.5-0.3,1.1-0.2,1.4,0.2c1.3,1.7,2.5,3.4,3.8,5.1c2.7,3.7,5.5,7.5,8.6,11.1c9.2,10.7,13.2,21.2,12.4,32.3
			c-1.3,17.1-6.9,29.6-17.4,39.2c-4.8,4.4-9.3,6.5-13.7,6.5c-6.1,0-11.1-4-15.4-7.8c-5.2-4.6-10.6-9.5-16.3-14
			c-8.5-6.8-18.4-8.2-30.5-4.2c-16,5.3-27.3,13.3-34.4,24.7c-3.1,4.9-6.6,11.4-6.4,18.8c0.1,7.1,2.8,10.6,9.7,12.6
			c5.8,1.7,12,2.8,18,3.7l1.6,0.3c4,0.7,8,1.2,12,1.8c5,0.7,10.1,1.4,15.1,2.3c10.5,1.9,16.7,8.7,18.4,20.1c1,6.9,1.8,14.1-1,21
			c-2.5,6.2-5.5,11.9-9,16.9l-2.2,3.2c-7,10-14.2,20.3-18.3,31.8c-3.1,8.6-3.7,16-1.9,23.3c2.6,10.7,14.2,19.3,28.8,21.4
			c11.6,1.6,21.8-1.9,33-6.2c8.1-3.2,16.2-5.2,25-6.2c13.5-1.6,25.4-3.6,34.9-11.2c3.4-2.7,6.6-6,10.2-10.4
			c6.7-8.1,10.9-16.3,12.7-25.1c3.6-17.3-2.5-29.3-18.1-35.6c-7.1-2.9-12.2-6.1-16.3-10.2c-3-3.1-3-6.5-2.6-9.1
			c0.2-1.3,1.3-2.4,3-3.2c2.9-1.3,6.9-1.4,9.7,0c5.3,2.5,10.2,5.2,14.4,8c7.9,5.2,16.5,10.3,26.8,12c16.3,2.6,37.2,4,54.8-8.6
			c6.8-4.8,12-9.5,16-14.3c9.4-11.3,21-21.1,35.4-30c4-2.4,6.1-5.4,6.5-9c0.7-6-3.3-10.6-11.2-13c-6.2-1.9-12.9-3-19.3-4.1l-1.7-0.3
			c-3.9-0.7-7.9-1.2-11.7-1.8c-3.9-0.6-8-1.1-12-1.8c-10.2-1.8-21.1-3.8-32.1-6.2c-9.4-2.1-18.7-5.3-22.3-14.6c-1.9-5-3-10.1-3-14.8
			c0-10-0.7-21.8-5.1-33.5c-1.7-4.5-3.6-9.1-5.4-13.6c-0.8-2.1-1.7-4.1-2.5-6.2c-0.2-0.5,0.1-1,0.6-1.2c0.5-0.2,1.1,0.1,1.3,0.6
			c0.8,2.1,1.7,4.1,2.5,6.2c1.8,4.4,3.7,9,5.4,13.6c4.5,11.9,5.1,23.9,5.2,34.1c0,4.5,1,9.4,2.9,14.2c3.3,8.5,12,11.5,20.9,13.5
			c11,2.4,21.9,4.4,32,6.2c3.9,0.7,8,1.3,11.9,1.8c3.9,0.5,7.9,1.1,11.8,1.8l1.7,0.3c6.5,1.1,13.2,2.3,19.6,4.2
			c9,2.7,13.5,8,12.6,14.9c-0.5,4.2-2.9,7.5-7.4,10.3c-14.2,8.8-25.7,18.5-34.9,29.6c-4.1,4.9-9.5,9.7-16.4,14.7
			c-18.2,13-39.8,11.6-56.5,9c-10.7-1.7-19.5-7-27.6-12.3c-4.2-2.7-8.9-5.3-14.2-7.8c-2.5-1.2-5.8-0.9-7.8,0
			c-1.1,0.5-1.8,1.2-1.9,1.8c-0.5,3.4,0.1,5.7,2.1,7.7c3.8,3.9,8.8,7,15.6,9.7c16.4,6.6,23,19.6,19.3,37.6
			c-1.9,8.9-6.2,17.6-13.1,25.8c-3.7,4.5-7,7.9-10.5,10.7c-9.9,8-22.2,10-36,11.7c-8.5,1-16.5,3-24.4,6.1c-11.5,4.5-22,8.1-34.1,6.4
			c-15.4-2.2-27.7-11.3-30.5-22.8c-1.8-7.6-1.2-15.2,2-24.2c4.2-11.7,11.5-22.1,18.5-32.2l2.2-3.2c3.4-4.8,6.3-10.4,8.8-16.5
			c2.6-6.5,1.9-13.5,0.9-20.2c-1.6-10.7-7.1-16.8-16.8-18.5c-5-0.9-10.1-1.6-15-2.3c-4-0.5-8-1.1-12.1-1.8l-1.6-0.3
			c-6.1-1-12.3-2-18.3-3.8c-7.8-2.3-11-6.5-11.1-14.4C236.1-30.8,236.1-31,236.1-31.2z"/>
		<path class="st1" d="M456.2-141.9c0-0.4,0.3-0.7,0.7-0.9c0.5-0.2,1.1,0.1,1.3,0.6c1.4,3.7,2.8,7.3,4.2,11
			c3.2,8.3,6.5,16.9,9.5,25.5c3.8,10.8,11.3,17.5,23.1,20.5c2.2,0.6,4.5,1.2,6.7,1.8c4.5,1.3,9.2,2.6,13.9,3.3
			c6.6,1,13.3,1.8,19.8,2.6c5.3,0.6,10.8,1.2,16.1,2c7.7,1.1,15.8,2.3,23.3,4.5c4.2,1.3,8.2,3,12.1,4.7c3.3,1.5,6.8,3,10.3,4.2
			c4.2,1.4,9.1,2,13.3,1.7c7.3-0.6,12.5-4.6,18.1-8.9c0.7-0.5,1.4-1.1,2.1-1.6c5.6-4.2,11.2-8.3,17.5-11c7.8-3.4,15.9-6.5,23.8-9.5
			c4.6-1.7,9.1-3.4,13.6-5.2l1.4-0.5c7.4-3,11-3.9,16.3,5.8c0.1,0.2,0.3,0.4,0.4,0.5c0.2,0.2,0.4,0.5,0.6,0.8l5.7,9.8
			c3.4,5.8,6.7,11.6,10.1,17.4c1.3,2.3,2.7,4.5,4.1,6.7c2.5,4,5.1,8.1,7.2,12.3c6.2,12.5,8.9,26.7,8.1,43.4
			c-0.6,11.9-5.9,20-16,24.4c-9.3,4-18.1,9-26.6,13.8c-2.8,1.6-5.5,3.1-8.3,4.7c-13.6,7.5-24.2,7.2-36.5-0.9
			c-3.8-2.5-7.2-5.5-10.5-8.5c-2.2-2-4.6-4-7-5.9c-4.5-3.5-8.7-6.2-12.7-8.2c-13.5-6.9-27.2-9.3-41.8-7.5
			c-6.7,0.8-13.8,2.1-20.3,5.6c-9.8,5.3-14.8,13.1-14.6,22.5c0.2,7,3.7,13.7,10.4,20c12.5,11.7,27.7,20.3,42.3,27.8
			c4.4,2.3,10.5,3.6,17.2,3.8c3.8,0.1,7.5-0.5,11.5-1.2c2.8-0.5,5.7-1,8.6-1.1c13.1-0.9,26.8-3.1,41.8-7c6.5-1.7,14.3-3.4,22-3.4
			c4.8,0,9.7,0.7,14.4,1.5c3.1,0.5,6.3,1,9.4,1.3c8,0.7,15.2,1.2,22.5,0.8c8.8-0.5,16.7-4.4,24-11.8c6-6.2,14.2-10.2,24.2-12.1
			c4-0.8,8.2-1.4,12.2-1.9c1.7-0.2,3.4-0.5,5.1-0.8c17.7-2.7,32.1-10.1,42.8-22.1c3.9-4.4,7.8-8.7,11.7-13c4.5-5,9-10,13.5-15.1
			c9.6-10.8,22.6-16.2,39.8-16.6c0.6,0,1,0.4,1.1,0.9c0.1,0.6-0.4,0.9-1,0.9c-16.5,0.4-29,5.6-38.2,15.9c-4.5,5-9,10.1-13.5,15.1
			c-3.9,4.3-7.8,8.7-11.7,13c-11,12.3-25.8,20-44.1,22.7c-1.7,0.3-3.4,0.5-5.2,0.8c-4,0.6-8.1,1.2-12.1,1.9
			c-9.6,1.8-17.4,5.7-23.1,11.6c-7.7,7.8-16,11.9-25.4,12.5c-7.4,0.4-14.7-0.1-22.8-0.8c-3.2-0.3-6.5-0.8-9.6-1.3
			c-4.6-0.7-9.4-1.5-14-1.5c-7.5,0-15,1.7-21.4,3.3c-15.1,3.9-28.9,6.2-42.2,7c-2.8,0.2-5.7,0.7-8.4,1.1c-3.9,0.6-7.9,1.3-11.9,1.2
			c-7-0.2-13.4-1.6-18.1-4c-14.8-7.6-30.2-16.2-42.8-28.1c-7.1-6.7-10.8-13.8-10.9-21.3c-0.3-10.2,5.1-18.5,15.6-24.1
			c6.9-3.7,14.2-5,21.1-5.9c14.9-1.9,29.3,0.7,43.1,7.7c4.1,2.1,8.4,4.9,13,8.4c2.5,1.9,4.8,4,7.1,6c3.2,2.9,6.6,5.9,10.3,8.3
			c11.7,7.7,21.3,7.9,34.2,0.8c2.8-1.5,5.5-3.1,8.3-4.6c8.6-4.8,17.4-9.8,26.8-13.9c9.3-4,14.3-11.7,14.8-22.8
			c0.8-16.5-1.8-30.4-7.9-42.6c-2.1-4.1-4.6-8.2-7.1-12.1c-1.4-2.2-2.8-4.5-4.1-6.7c-3.4-5.8-6.8-11.6-10.1-17.4l-5.7-9.8
			c-0.1-0.2-0.2-0.3-0.4-0.5c-0.2-0.3-0.4-0.5-0.6-0.8c-4.7-8.6-6.8-7.7-13.6-5l-1.4,0.5c-4.5,1.8-9.1,3.5-13.7,5.2
			c-7.8,3-16,6-23.7,9.4c-6.1,2.7-11.5,6.6-17.1,10.8c-0.7,0.5-1.4,1.1-2.1,1.6c-5.6,4.3-11.3,8.7-19.3,9.3
			c-4.5,0.4-9.7-0.3-14.2-1.8c-3.6-1.2-7.1-2.8-10.5-4.3c-3.8-1.7-7.8-3.4-11.8-4.6c-7.4-2.2-15.3-3.4-23-4.5
			c-5.3-0.8-10.8-1.4-16.1-2c-6.5-0.8-13.3-1.5-19.9-2.6c-4.8-0.8-9.6-2.1-14.2-3.4c-2.2-0.6-4.4-1.2-6.7-1.8
			C482-86.5,474-93.6,470-105.1c-3-8.5-6.3-17.1-9.5-25.5c-1.4-3.7-2.8-7.3-4.2-11C456.2-141.7,456.2-141.8,456.2-141.9z"/>
		<path class="st1" d="M173.3-18.2c0-0.3,0-0.6,0-0.8c0.3-2.5,1.7-4.7,4.3-6.5c1.2-0.9,2.6-1.4,3.9-1.8l0.5-0.2
			c15.9-6,29-14.9,39.9-27.4c7.2-8.2,16-15.4,24.6-22.3l2.7-2.2c3.7-3,7.7-5.6,11.6-8.2c3.2-2.1,6.5-4.2,9.5-6.5
			c10.4-7.9,16.5-19,22.3-29.8l0.4-0.7c2.2-4,4.5-8,6.7-12.1l3.1-5.5c0.5-0.9,1.7-1.3,2.8-0.8c1,0.5,1.4,1.6,0.9,2.5l-3.1,5.6
			c-2.3,4-4.5,8-6.7,12l-0.4,0.7c-6,11.1-12.3,22.5-23.4,31c-3.1,2.4-6.5,4.6-9.7,6.7c-3.8,2.5-7.8,5.1-11.3,7.9l-2.7,2.2
			c-8.4,6.8-17.1,13.9-24.1,21.8c-11.4,13-24.9,22.3-41.5,28.5l-0.5,0.2c-1.1,0.4-2.2,0.8-2.9,1.3c-1.6,1.1-2.6,2.5-2.7,4
			c-0.2,1.6,0.5,3.2,2,4.8c3.8,4,9.1,6.2,14.5,8.3c16,6.3,32.6,12.7,48.9,19.4c7.8,3.2,15.6,7.2,20.1,14.4
			c3.3,5.4,4.5,11.5,3.3,17.8c-1.3,6.9-2.7,13.8-4.1,20.6c-1.4,7.2-2.9,14.4-4.2,21.5l-0.5,2.8c-1,5.2-2.1,10.6-2.3,15.9
			c-0.9,18.7,7.6,28.9,28.5,34.2c12.4,3.1,25.1,2.3,37.3,1.4c9.9-0.7,18.7-3.8,28-7.1c3.7-1.3,7.6-2.7,11.5-3.9l4.3-1.3
			c5.4-1.7,11-3.4,16.6-4.8c20.4-5.4,35.5-15.2,46.3-30c2.6-3.6,5.5-7.2,8.3-10.6c3.3-4.1,6.8-8.4,9.8-12.8
			c8.3-12.1,20.5-19.5,37.4-22.8c4.4-0.9,9-2.2,15-4.3c10.2-3.6,16.4-11.6,22.3-19.3l2.1-2.8c5.8-7.5,11.7-15.2,20.7-20.3
			c5-2.8,10.4-5.1,15.6-7.4c2.8-1.2,5.8-2.5,8.6-3.8c1.5-0.7,3-1.4,4.5-2.1c5.4-2.5,10.9-5,16-8c6.1-3.6,7-7.1,3.4-12.4
			c-8.4-12.4-16.8-20.2-27.4-25.2c-8.1-3.8-16.9-5-26.9-6.1c-10.8-1.2-22.3-2.8-35.2-4.8c-8.4-1.4-15.9-3-22.9-4.9
			c-12.5-3.4-20.4-11.2-22.6-22.4c-3-15-7.7-29.5-13.7-43.2c-0.4-0.9-0.6-1.8-0.8-2.7c-0.1-0.4-0.2-0.7-0.3-1.1
			c-0.3-1,0.4-2,1.5-2.2c1.1-0.2,2.2,0.3,2.5,1.3c0.1,0.4,0.2,0.8,0.3,1.2c0.2,0.8,0.4,1.5,0.6,2.1c6.1,13.9,10.8,28.6,13.9,43.9
			c2,9.9,8.7,16.5,19.8,19.6c6.9,1.9,14.2,3.5,22.4,4.8c12.7,2.1,24.2,3.6,34.9,4.8c10.3,1.1,19.6,2.4,28.3,6.5
			c11.3,5.3,20.2,13.5,29,26.5c4.7,7,3.2,12.7-4.7,17.3c-5.2,3.1-10.9,5.7-16.4,8.2c-1.5,0.7-3,1.4-4.5,2.1
			c-2.9,1.4-5.9,2.6-8.7,3.9c-5.1,2.2-10.4,4.5-15.2,7.2c-8.3,4.6-13.8,11.7-19.5,19.2l-2.1,2.8c-6.3,8.2-12.8,16.6-24.2,20.6
			c-6.2,2.2-11,3.6-15.6,4.5c-15.7,3.1-27.1,10-34.8,21.1c-3.1,4.5-6.6,8.8-10,13c-2.7,3.4-5.6,6.9-8.2,10.4
			c-11.3,15.5-27.2,25.8-48.6,31.5c-5.5,1.5-11,3.2-16.4,4.8l-4.3,1.3c-3.8,1.2-7.6,2.5-11.3,3.8c-9.2,3.3-18.6,6.7-29.2,7.4
			c-12,0.8-25.6,1.8-38.7-1.6c-22.7-5.7-32.5-17.4-31.5-37.8c0.3-5.5,1.3-11,2.4-16.3l0.5-2.8c1.4-7.2,2.8-14.4,4.3-21.6
			c1.4-6.9,2.8-13.7,4.1-20.6c1-5.5,0.1-10.8-2.8-15.4c-3.7-5.9-10-9.4-18.2-12.8C225,10.5,208.4,4.1,192.4-2.2
			c-5.9-2.3-11.6-4.8-16-9.3C174.4-13.6,173.3-15.9,173.3-18.2z"/>
		<path class="st1" d="M-68.4,494.8c0-0.5,0.4-0.9,1-0.9c17.8-0.3,32.1,0.7,45.2,3.3c6.9,1.3,14.9,1.3,22.6-0.1
			c5.8-1,11.5-4,16.9-6.8l1.5-0.8c11-5.7,25.9-11.6,43.3-7.1l2.3,0.6c7.4,1.9,15.1,3.9,22.7,5c8.6,1.2,17.6,2.2,26.3,1.2
			c8.2-0.9,16.5-2.8,24.5-4.6c3.9-0.9,8-1.8,12-2.6c12.3-2.4,22.4-2.7,32-0.9c13.4,2.5,24.9,8.9,34.1,18.8
			c5.2,5.7,8.1,10.8,9.1,16.2c1.4,7.4-1.3,14-8.1,20.1c-10,9-22.6,15.8-39.9,21.2c-8.4,2.7-17,5.2-25.3,7.6
			c-16.9,4.9-34.5,10.1-51.1,16.6l-8.4,3.3c-7.9,3.1-16.1,6.4-24.2,9.4c-7.6,2.9-12.2,8.3-13.6,16c-0.7,3.6-1,7.3-1.4,10.9
			c-0.4,4.4-0.9,8.8-1.8,13.2c-2.4,11-4.9,19.7-8,27.3c-1.8,4.6-4.4,8.9-6.8,13.1c-1.8,3.1-3.6,6.2-5.2,9.4
			c-1.7,3.4-3.5,7.9-3.2,11.8c0.6,7.9,9,14.5,18.5,14.4c9.8-0.1,19.8-0.7,29.5-1.7c12.3-1.3,25.4-2,37.9,2.1
			c6.6,2.2,13,5.1,19.3,7.9c3.1,1.4,6.3,2.9,9.5,4.2c9.5,4,22.3,8.1,36.8,4.5c9.8-2.4,17.5-3.4,25-2.9c12.7,0.7,22.2,3.9,29.8,10
			c0,0,0.4,0,0.6,0c0.3,0,0.5,0,0.8,0c0.6,0.1,0.9,0.5,0.9,1c-0.1,0.5-0.6,0.9-1.1,0.8c-0.2,0-0.4,0-0.6,0c-0.6,0-1.4,0-1.9-0.5
			c-7.2-5.8-16.3-8.8-28.5-9.5c-7.2-0.4-14.7,0.5-24.3,2.9c-15.2,3.8-28.4-0.5-38.3-4.6c-3.2-1.4-6.5-2.8-9.6-4.3
			c-6.2-2.8-12.5-5.7-19-7.8c-12.1-4-24.9-3.3-37-2c-9.8,1.1-19.8,1.7-29.7,1.8c-10.6,0.1-19.8-7.1-20.5-16.1
			c-0.3-4.4,1.7-9,3.4-12.7c1.6-3.3,3.4-6.5,5.3-9.6c2.4-4.2,5-8.5,6.7-12.9c3-7.6,5.6-16.2,7.9-27.1c0.9-4.3,1.4-8.7,1.8-13
			c0.4-3.6,0.7-7.4,1.4-11.1c1.5-8.4,6.5-14.3,14.8-17.4c8.1-3.1,16.3-6.3,24.2-9.4l8.4-3.3c16.7-6.6,34.3-11.7,51.3-16.7
			c8.3-2.4,16.9-4.9,25.3-7.6c17-5.4,29.4-12,39.1-20.8c6.3-5.7,8.8-11.8,7.5-18.6c-0.9-5.1-3.7-10-8.7-15.4
			c-8.9-9.6-19.9-15.8-32.9-18.2c-9.3-1.7-19.2-1.5-31.1,0.9c-4,0.8-8,1.7-12,2.6c-8,1.8-16.4,3.7-24.7,4.6c-8.9,1-18.2,0-26.9-1.2
			c-7.8-1-15.5-3.1-23-5l-2.3-0.6c-13.2-3.4-25.6-1.3-41.7,6.9l-1.5,0.8c-5.6,2.9-11.4,5.9-17.6,7c-8,1.4-16.3,1.4-23.5,0.1
			c-12.9-2.5-27.1-3.6-44.7-3.2C-67.9,495.7-68.4,495.3-68.4,494.8C-68.4,494.8-68.4,494.8-68.4,494.8z"/>
		<path class="st1" d="M-68.4-31.6c0-0.1,0-0.1,0-0.2c0.1-0.5,0.7-0.8,1.2-0.7c8,1.7,15.5,5.2,24.5,11.2C-32.8-14.8-25.3-6.3-18,2
			c1.1,1.2,2.2,2.5,3.3,3.7c8.4,9.4,17.5,19.2,29,27c10.1,6.8,20.5,10.9,31,12.1c13,1.5,25.7-1.2,38.8-8.1c4.9-2.6,10.3-5.2,16-7
			c6-1.9,11.2-0.8,14.9,3.2c4.3,4.6,7.2,10.1,8.4,16.3c1.5,7.3,2.3,14.9,3,22c0.6,6.2,1.3,12.6,0.9,19c-0.2,5.1-0.7,10.2-1.2,15.2
			c-0.8,7.7-1.5,15.7-1.4,23.5c0.3,13.6,7.2,20.2,22.5,21.3c9.5,0.7,19.1,0.1,29.9-0.8c10.2-0.8,17.6-5.1,21.9-12.6
			c11.4-19.9,22.8-44,20.1-71.6c-0.7-7.8-3-14.4-6.8-20.3c-8.3-12.7-22.5-17.5-33.9-20.2c-4.4-1.1-8.9-2.1-13.3-3.1
			c-9.1-2.1-18.6-4.2-27.7-6.7c-16.9-4.7-23.8-16.6-20.1-34.3c2.1-9.9,7.8-18,13.5-25.4c10.5-13.7,25.6-21.4,46.2-23.7
			c8-0.9,15-2.7,21.5-5.4c14.1-6,26.5-14.6,38.4-22.9c1.9-1.3,3.8-2.6,5.7-3.9c13.1-9,21.6-21.5,25.4-37.2c0.2-1,0.8-1.9,1.4-2.7
			c0.2-0.3,0.5-0.7,0.7-1c0.3-0.5,0.9-0.6,1.4-0.4c0.5,0.2,0.7,0.8,0.5,1.2c-0.2,0.4-0.5,0.8-0.7,1.1c-0.5,0.7-1,1.5-1.1,2.2
			c-3.9,16.2-12.7,29-26.1,38.3c-1.9,1.3-3.8,2.6-5.7,3.9c-12.1,8.4-24.6,17-38.8,23.2c-6.6,2.9-13.9,4.7-22.1,5.6
			c-20,2.2-34.6,9.7-44.7,22.9c-5.6,7.3-11.2,15.2-13.2,24.7c-3.6,16.9,2.7,27.8,18.7,32.3c9.1,2.5,18.5,4.7,27.6,6.7
			c4.4,1,8.9,2,13.3,3.1c11.8,2.8,26.5,7.8,35.2,21.1c4,6.1,6.3,13,7,21c2.7,28.1-8.8,52.4-20.3,72.6c-4.6,8-12.7,12.7-23.5,13.6
			c-10.8,0.9-20.6,1.5-30.3,0.8c-16.3-1.2-24-8.6-24.4-23.1c-0.2-7.9,0.6-15.9,1.4-23.7c0.5-4.9,1-10.1,1.2-15.1
			c0.3-6.3-0.3-12.6-0.9-18.8c-0.7-7.1-1.5-14.6-3-21.9c-1.2-5.9-3.9-11.1-8-15.4c-3.2-3.4-7.4-4.2-12.7-2.6
			c-5.6,1.7-10.8,4.3-15.6,6.9c-13.5,7.1-26.7,9.8-40.1,8.3c-10.9-1.2-21.7-5.4-32-12.4C1.3,26.2-7.9,16.3-16.4,6.8
			c-1.1-1.2-2.2-2.5-3.3-3.7c-7.2-8.2-14.6-16.6-24.2-23c-8.8-5.9-16.1-9.2-23.8-10.8C-68-30.8-68.4-31.2-68.4-31.6z"/>
		<g>
			<path class="st1" d="M587.1,161.4c0-2.8,0.3-5.7,1-8.6c3-13.9,12.7-23.1,29.7-28.1c10.9-3.2,21.7-4.9,30.8-6.1
				c10.4-1.4,20.4-5,31.7-11.3c11.8-6.6,23.3-9.5,35.1-8.9c3.7,0.2,7.5,0.5,11.1,0.8c4.9,0.4,10,0.8,15,0.9c9.1,0.3,19.8,0.5,30.5,0
				c8.8-0.4,15.2-3.1,19.5-8.3c1.8-2.1,3.9-4.1,5.9-6c0.7-0.6,1.4-1.3,2-1.9c8.3-8.1,19.3-12.5,30-16c17.6-5.8,30.4-14.7,39-27.3
				c5.6-8.2,11.5-16.1,17.3-23.3c7.5-9.3,18.5-14.7,32.7-16.2c0.6-0.1,1.1,0.3,1.1,0.8c0.1,0.5-0.3,1-0.9,1
				c-13.6,1.4-24.2,6.7-31.3,15.5c-5.8,7.2-11.6,15-17.2,23.2c-8.9,13-22,22.1-40,28.1c-12.1,4-21.7,8.1-29.2,15.5
				c-0.7,0.7-1.4,1.3-2,2c-2,1.9-4,3.8-5.8,5.9c-4.7,5.6-11.6,8.6-21.1,9c-10.8,0.5-21.6,0.3-30.7,0.1c-5.1-0.1-10.2-0.5-15.1-0.9
				c-3.6-0.3-7.4-0.6-11.1-0.7c-11.4-0.6-22.5,2.3-33.9,8.6c-11.5,6.4-21.8,10.1-32.5,11.5c-9,1.2-19.7,2.9-30.5,6
				c-16.2,4.7-25.4,13.5-28.3,26.7c-2.6,12.2,0.4,23,9.1,32.2l1.4,1.5c7.8,8.3,15.9,16.8,24.3,24.8c8.2,7.8,16.7,15.6,25,23
				c3.7,3.3,7.3,6.6,11,10c11.8,10.8,28.1,13.6,44.7,7.5c12.8-4.7,25.7-11,35.9-16.1c13.4-6.6,27.6-7.5,43.4-2.8
				c6.1,1.8,13,2.5,18.5,3.1c9.8,1,19-1.9,28.3-9c8.8-6.7,17.5-13.9,25.9-20.8l6.7-5.5c3.6-2.9,7.1-5.9,10.6-8.8
				c5.7-4.8,11.6-9.7,17.6-14.4c8.3-6.5,16.1-10.3,24.4-11.7c0.1-0.1,0.1-0.2,0.2-0.3c0.1-0.2,0.2-0.4,0.4-0.6
				c0.3-0.4,1-0.5,1.4-0.3c0.5,0.3,0.6,0.8,0.3,1.3c-0.1,0.1-0.2,0.3-0.2,0.4c-0.3,0.5-0.6,1.1-1.4,1.3c-8,1.3-15.5,4.9-23.6,11.3
				c-5.9,4.7-11.8,9.6-17.5,14.4c-3.5,3-7.1,5.9-10.7,8.8l-6.7,5.5c-8.4,6.9-17.1,14-25.9,20.8c-9.7,7.4-19.4,10.5-29.8,9.4
				c-5.6-0.6-12.6-1.3-18.9-3.2c-15.2-4.6-28.9-3.7-41.7,2.6c-10.3,5.1-23.2,11.5-36.2,16.2c-17.4,6.4-34.5,3.5-46.9-7.9
				c-3.6-3.3-7.3-6.6-10.9-10c-8.3-7.5-16.8-15.3-25-23.1c-8.4-8.1-16.5-16.6-24.4-24.9l-1.4-1.5
				C590.6,179.1,587.1,170.7,587.1,161.4z"/>
		</g>
		<g>
			<path class="st1" d="M606.4,165.4c0-3.6,0.9-7,2.7-10.2c3.2-5.6,8.8-9.8,15.9-11.6c7.6-2,15.3-2.4,22.8-2.8
				c1.9-0.1,3.9-0.2,5.8-0.3c5.5-0.4,10-1.4,13.5-2.9c6-2.7,12.4-6.3,20-11.2c14.3-9.2,27.3-13.1,40.9-12.2
				c3.7,0.2,7.6,0.4,11.3,0.5c3,0.1,5.9,0.2,8.9,0.4c8.4,0.5,17.1,2.3,26.4,5.8c6.4,2.4,13.2,4.2,19,5.7c5.7,1.5,10.2,0,14.1-4.5
				c4-4.7,5.4-10.2,6.8-15.6c3.2-12.3,11-21,23.1-25.8c6.8-2.7,13.9-5.1,20.7-7.5c2.7-0.9,5.3-1.8,8-2.7
				c11.1-3.9,17.1-9.7,19.1-18.4c0.7-3.3,2-6.4,3.3-9.4c0.4-0.9,0.8-1.8,1.1-2.7c4.5-11.2,10.7-18.6,19.6-23.3
				c1.8-1,3.7-1.8,5.5-2.5c0.8-0.3,1.7-0.7,2.5-1.1c1-0.5,2.3-0.1,2.8,0.8c0.5,0.9,0.1,2-0.9,2.5c-0.8,0.4-1.7,0.7-2.5,1.1
				c-1.8,0.8-3.6,1.5-5.2,2.4c-8,4.3-13.7,11.1-17.9,21.4c-0.4,0.9-0.8,1.8-1.1,2.8c-1.3,3-2.5,5.9-3.1,8.9
				c-2.2,10-9.1,16.7-21.6,21.1c-2.7,0.9-5.3,1.8-8,2.8c-6.8,2.3-13.8,4.7-20.5,7.4c-11,4.3-17.7,11.9-20.7,23.3
				c-1.4,5.5-3.1,11.7-7.6,17c-4.9,5.8-11.2,7.7-18.5,5.8c-5.9-1.5-12.8-3.4-19.4-5.8c-8.9-3.3-17.1-5-25-5.5
				c-2.9-0.2-5.9-0.3-8.8-0.4c-3.7-0.1-7.6-0.3-11.4-0.5c-12.8-0.8-24.5,2.7-38.2,11.5c-7.8,5-14.3,8.6-20.5,11.5
				c-3.9,1.8-9,2.9-15,3.3c-2,0.1-3.9,0.2-5.9,0.4c-7.6,0.4-14.7,0.8-21.9,2.7c-5.9,1.5-10.7,5-13.3,9.7c-2.8,4.9-3,10.8-0.5,16.6
				c4.5,10.7,11,20,19.4,27.8c12,11.2,24.7,21.6,38.8,32.9c12.5,10.1,25.7,7.3,34.5,3.1c8.2-3.8,16.1-8.7,23.7-13.3
				c1.9-1.2,3.9-2.4,5.8-3.6l2-1.2c8.4-5.1,17.1-10.4,27.3-13c8.5-2.2,19.9-4.5,32.1-2.3c15.7,2.8,31.2-0.1,47.3-8.9
				c10-5.5,19.6-12.2,29.3-20.8c12.9-11.3,27.1-22.9,44.9-29.9c0.6-0.2,1.1-0.2,1.4-0.2c1.1,0.1,2,0.9,1.9,1.9c-0.1,1-0.9,1.7-2,1.7
				c0,0,0,0,0,0c-17.1,6.8-30.8,18-43.3,29c-10,8.7-19.8,15.6-30.1,21.3c-17.1,9.3-33.5,12.4-50.3,9.4c-11.3-2-22,0.1-30.1,2.3
				c-9.6,2.5-17.6,7.4-26.1,12.5l-2,1.2c-1.9,1.2-3.9,2.4-5.8,3.5c-7.7,4.7-15.7,9.6-24.1,13.6c-14.2,6.6-28.1,5.3-39.2-3.7
				c-14.1-11.4-26.9-21.8-39-33.1c-8.8-8.1-15.6-17.9-20.3-29.1C607,171.6,606.4,168.4,606.4,165.4z"/>
		</g>
		<path class="st1" d="M-68.4-19.3c0-0.1,0-0.3,0.1-0.4c0.2-0.5,0.8-0.7,1.4-0.5c1.1,0.5,2.3,0.9,3.4,1.3c2.5,0.9,5.1,1.9,7.5,3.1
			C-44.5-9.9-35.9-1.1-27.5,7.3l3.8,3.9c7.4,7.5,15.2,15.3,23.2,22.4c10.8,9.6,24.7,15.1,35.6,18.8c12,4.1,24.8,4,37.1,3.9
			c2.6,0,5.3,0,7.9,0c0.9,0,1.8,0,2.7,0c3,0,6-0.1,8.9,0.6c7.5,1.8,12.8,6.6,16.1,14.5c5.7,13.7,4.5,27.9,2.8,41.3l-0.4,3.2
			c-1.1,8.5-2.2,16.5-0.4,24.7c3.6,16.6,11,22.6,28.1,23c3.4,0.1,6.8,0.1,10.1,0.2c8,0.1,16.3,0.2,24.4,0.9
			c10.3,0.9,19.2,4.7,25.7,11.2c3.1,3.1,5.4,7,6.1,10.5c1.4,7-0.4,14.3-5.4,22.5c-9.8,15.9-23.7,26.9-41.4,33
			c-9.2,3.1-19.1,6.1-29.4,7c-8.8,0.7-17-2-24.5-8.1c-3.4-2.8-6.3-3.7-9.5-3.2c-2.2,0.4-4.5,1.3-6.5,2.5c-9.2,5.6-19.1,11-31.3,9.7
			c-16.1-1.7-28.2-4.2-39.3-8.2c-14.2-5.1-25-12.6-33.1-22.8c-7.8-9.9-12.9-20.5-18.2-32.3c-3.1-6.9-7.7-14.2-18-15.6
			c-3.3-0.4-6.9-0.3-10.3-0.2c-1.6,0.1-3.2,0.1-4.8,0.1c-0.6,0-1-0.4-1-0.9c0-0.5,0.5-0.9,1-0.9c1.6,0,3.2-0.1,4.8-0.1
			c3.5-0.1,7.2-0.2,10.7,0.2c11.3,1.5,16.2,9.3,19.6,16.7c5.3,11.7,10.4,22.2,18,32c7.8,9.9,18.3,17.2,32.2,22.2
			c10.9,3.9,22.9,6.4,38.8,8.1c11.5,1.2,20.7-3.8,29.9-9.4c2.2-1.3,4.8-2.3,7.3-2.8c5-0.9,8.8,1.7,11.2,3.6c7,5.7,14.7,8.2,22.9,7.6
			c9.5-0.8,18.4-3.3,28.9-6.9c17.3-5.9,30.8-16.7,40.4-32.2c4.8-7.8,6.5-14.7,5.2-21.3c-0.6-3.2-2.7-6.7-5.6-9.6
			c-6.2-6.1-14.6-9.8-24.4-10.6c-8-0.7-16.3-0.8-24.3-0.9c-3.4,0-6.8-0.1-10.2-0.2c-20.7-0.5-26.8-9.7-30.1-24.5
			c-1.9-8.5-0.7-17,0.4-25.2l0.4-3.2c1.7-13.2,2.8-27.1-2.7-40.4c-3-7.3-7.8-11.7-14.7-13.4c-2.6-0.6-5.5-0.6-8.3-0.5
			c-0.9,0-1.8,0-2.7,0c-2.6,0-5.3,0-7.9,0c-12.5,0.1-25.5,0.2-37.9-4C23.4,50.3,9.3,44.7-1.8,34.9c-8.1-7.2-15.9-15-23.3-22.5
			L-29,8.5C-37.3,0.2-45.8-8.4-57-14c-2.3-1.2-4.8-2.1-7.3-3.1c-1.2-0.4-2.3-0.9-3.5-1.3C-68.1-18.6-68.4-18.9-68.4-19.3z"/>
		<path class="st1" d="M80.9,664.5c0-1.7,0.2-3.5,0.5-5.4c2.5-16.5,10.5-31.6,16.3-41.6c9-15.4,24.4-26.2,45.9-32
			c15-4.1,30.4-7.7,45.3-11.2c7.3-1.7,14.5-3.4,21.8-5.2c15.6-3.8,28.9-2.5,40.8,4.1l0.5,0.3c8,4.4,16.2,9,23.7,14.3
			c17.5,12.4,27.9,26.6,31.7,43.5c3.2,13.9,10.3,22.7,21.9,27c6.5,2.4,14,5,21.5,6c22.5,3.2,41.3,12.7,55.8,28.2
			c6.4,6.8,12.2,13.5,13.8,22c1,4.9,1,10.1,1.1,15c0,2.2,0,4.4,0.1,6.6c0,0.5-0.4,0.9-1,1c-0.6,0-1-0.4-1.1-0.9
			c-0.1-2.2-0.1-4.4-0.1-6.7c-0.1-4.9-0.1-9.9-1-14.7c-1.6-8-7.2-14.5-13.4-21.1c-14.4-15.4-32.3-24.4-54.6-27.5
			c-7.7-1.1-15.4-3.7-21.9-6.1c-12.3-4.5-19.9-13.7-23.2-28.3c-3.7-16.4-13.9-30.3-31-42.4c-7.4-5.2-15.6-9.8-23.5-14.2l-0.5-0.3
			c-11.3-6.3-24.1-7.6-39.1-3.9c-7.3,1.8-14.5,3.5-21.8,5.2c-14.9,3.5-30.3,7.1-45.2,11.2c-20.9,5.7-35.9,16.1-44.7,31.1
			c-5.7,9.8-13.6,24.7-16.1,41c-1.6,10.2,0.2,16,14.5,21.2c10.9,4,22.4,7.1,33.5,10.1c4.4,1.2,8.8,2.4,13.2,3.7
			c12.1,3.5,24.2,1.6,35.4-1c17.5-4,35.1-3.3,52.4,1.9c1.4,0.4,2.8,0.8,4.2,1.2c6,1.7,12.2,3.5,17.6,6.4
			c14.3,7.7,23.7,18.6,27.7,32.4c0.1,0.5-0.2,1-0.7,1.1c-0.5,0.1-1.1-0.2-1.3-0.7c-3.9-13.3-12.9-23.9-26.8-31.3
			c-5.2-2.8-11.3-4.6-17.2-6.3c-1.4-0.4-2.8-0.8-4.2-1.2c-16.9-5.1-34.1-5.7-51.2-1.9c-11.6,2.6-24,4.5-36.6,0.9
			c-4.4-1.3-8.8-2.5-13.2-3.7c-11.2-3.1-22.7-6.2-33.7-10.2C84.6,677.6,80.9,672.2,80.9,664.5z"/>
		<g>
			<path class="st1" d="M-68.4,145.9c0-0.4,0.3-0.8,0.8-0.9c2.6-0.5,5.2-1.1,7.7-1.7c5.7-1.3,11.6-2.7,17.5-3.4
				c13.5-1.6,25.5,5.9,29.1,18.1c1.6,5.4,2.3,11,3,16.4c0.2,1.4,0.4,2.9,0.6,4.3l0.4,2.8c1.6,11.3,3,22,10.7,31.5
				c7.8,9.5,18.2,14.5,32.9,15.5c16.7,1.1,30.1-4.6,41.1-17.7l2.5-3c3.8-4.6,7.7-9.3,11.9-13.7c7.6-8.1,9.7-17.7,6.7-30.5
				c-3.8-15.6-5.3-31.8-4.5-48.1c0.1-2,0.3-4.1,0.4-6.1c0.3-4.2,0.7-8.5,0.4-12.7c-0.3-6.5-1.7-14.6-9.4-20
				c-4.7-3.3-10.7-5.3-18.7-6.4C45.5,68,26.8,62.3,7.7,53.2c-18.5-8.8-32.3-22.4-43.3-34.5c-7.3-8-17.4-17.8-31.6-23.5
				C-67.8-5-68-5.6-67.8-6c0.2-0.5,0.8-0.7,1.4-0.5c14.6,5.9,24.9,15.9,32.3,24.1c10.9,12,24.5,25.4,42.7,34c19,9,37.4,14.6,56.4,17
				c8.4,1.1,14.7,3.2,19.7,6.7c8.3,5.8,9.8,14.4,10.2,21.3c0.2,4.3-0.1,8.7-0.4,12.9c-0.2,2-0.3,4.1-0.4,6.1
				c-0.8,16.2,0.7,32.2,4.4,47.7c3.2,13.3,0.9,23.5-7.1,32c-4.1,4.4-8,9-11.8,13.6l-2.5,3c-11.4,13.6-25.4,19.6-42.9,18.4
				c-15.1-1-26.4-6.3-34.4-16.2c-8-9.8-9.6-21.3-11.1-32.3l-0.4-2.8c-0.2-1.4-0.4-2.9-0.6-4.3c-0.7-5.4-1.4-10.9-3-16.2
				c-3.3-11.3-14.4-18.2-26.8-16.8c-5.8,0.7-11.6,2-17.3,3.4c-2.6,0.6-5.2,1.2-7.8,1.8c-0.6,0.1-1.1-0.2-1.2-0.7
				C-68.4,146.1-68.4,146-68.4,145.9z"/>
		</g>
		<g>
			<path class="st1" d="M728.3-86.3c0-8.6,4-15.7,12.1-21.6l4.3-3.1c11.6-8.4,23.6-17.1,35.8-25.4c5.8-3.9,12.2-7.3,20-5.5
				c14.5,3.4,26,11.8,34.2,25c2.2,3.6,4.4,7.4,6.5,11c2.1,3.6,4.2,7.3,6.4,10.9c5,8.1,11,13,17.7,14.3c6.2,1.3,13.2-0.4,20.6-5.1
				c7.7-4.8,15-10.5,22-16c3.2-2.5,6.4-5,9.7-7.5c0.4-0.3,1.1-0.3,1.4,0.1c0.4,0.4,0.3,1-0.1,1.3c-3.2,2.4-6.4,4.9-9.6,7.5
				c-7.1,5.5-14.4,11.3-22.1,16.2c-8,5-15.5,6.8-22.3,5.4c-7.3-1.5-13.7-6.6-19-15.2c-2.2-3.6-4.4-7.4-6.5-11
				c-2.1-3.6-4.2-7.3-6.4-10.9c-8-12.9-18.7-20.8-32.9-24.1c-7-1.6-12.9,1.5-18.3,5.2c-12.1,8.2-24.1,16.9-35.7,25.4l-4.3,3.1
				c-12.3,8.9-14.6,20.6-7.1,36.7c1.7,3.6,3.5,7.2,5.3,10.6c4.4,8.5,9.1,17.3,11,26.9c2.5,12.5,4.9,23.5,7.4,33.8
				c3.6,14.9,11.4,24.5,24.1,29.2c19.9,7.4,37.8,5.8,54.8-5c13-8.3,22.9-19.5,32.4-30.3l0.4-0.4c10.6-12,24.2-19.2,40.7-21.4
				c0.9-0.1,1.9,0,2.8,0.1c1.9,0.2,3,0.3,4-1c0.3-0.4,1-0.5,1.4-0.2c0.5,0.3,0.6,0.9,0.3,1.3c-1.7,2.2-4,2-5.9,1.8
				c-0.8-0.1-1.5-0.2-2.2-0.1c-16.1,2.2-29,9-39.3,20.8l-0.4,0.4c-9.6,10.9-19.6,22.2-32.8,30.6c-17.4,11.1-36.5,12.8-56.8,5.2
				c-13.3-5-21.5-14.9-25.3-30.5c-2.5-10.3-4.9-21.4-7.4-33.9c-1.9-9.4-6.4-18.1-10.8-26.5c-1.8-3.5-3.7-7.1-5.4-10.7
				C729.7-75.3,728.3-81.1,728.3-86.3z"/>
		</g>
		<path class="st1" d="M508.5,610.5c0-10.2,5.9-16.6,17.5-19c12.8-2.6,25.8-1.2,37.6,4.1c8.7,3.9,17,8.6,25.1,13.1
			c2.4,1.3,4.7,2.6,7.1,3.9c3.6,2,7.2,4.1,10.7,6.2c4.2,2.5,8.6,5,13,7.4c10.3,5.5,21.8,8.7,33,11.9l4.3,1.2c10.5,3,18.8,4.3,26.8,4
			c5.3-0.2,11.2-0.2,18.3,0c1,0,2,0,3.1,0.1c4.1,0.1,8.4,0.1,12.4,0.9c16,3.2,29.1,21,26,35.2c-2.4,10.8-1.1,21.9,3.9,32.9
			c2.4,5.3,4.8,10.6,7.2,15.9l3.2,7c0.2,0.5,0,1-0.6,1.2c-0.5,0.2-1.1,0-1.3-0.5l-3.2-7c-2.4-5.3-4.8-10.6-7.2-15.9
			c-5.1-11.3-6.5-22.8-4-33.9c2.9-13.4-9.4-30-24.4-33.1c-3.8-0.8-8-0.8-12-0.9c-1,0-2.1,0-3.1-0.1c-7.1-0.2-12.9-0.2-18.2,0
			c-8.2,0.3-16.7-1-27.5-4.1l-4.3-1.2c-11.3-3.2-23-6.5-33.4-12.1c-4.4-2.4-8.8-4.9-13.1-7.4c-3.5-2-7.1-4.1-10.7-6.1
			c-2.4-1.3-4.7-2.6-7.1-3.9c-8.1-4.5-16.4-9.2-25-13c-11.3-5.1-23.9-6.5-36.2-4c-11,2.2-16.1,8.1-15.9,17.9
			c0.4,13.7,3.5,27.6,9.4,41.4c3.4,8,10.7,13.6,22.4,17.1c8.6,2.6,17,5.2,25.2,8.4c6.7,2.7,12.4,7.4,17.7,14.8
			c11.2,15.5,22.3,29,34,41.2c0.4,0.4,0.5,0.9,0.6,1.2c0,0.1,0.1,0.2,0.1,0.4c0.2,0.5-0.1,1-0.7,1.2c-0.5,0.2-1.1-0.1-1.3-0.6
			c-0.1-0.2-0.1-0.3-0.2-0.5c0-0.2-0.1-0.4-0.2-0.5c-11.7-12.3-22.9-25.8-34.1-41.4c-5.1-7.1-10.5-11.6-16.8-14.1
			c-8.1-3.2-16.5-5.8-25-8.4c-12.3-3.7-20-9.7-23.7-18.2c-6-14-9.2-28.1-9.5-42C508.6,611,508.5,610.8,508.5,610.5z"/>
		<g>
			<path class="st1" d="M-69.4,124.8c0-0.8,0.6-1.6,1.6-1.8c2.6-0.5,5.2-1.1,7.7-1.7c7.4-1.7,15.1-3.5,23.3-3.7
				c12.3-0.2,22.5,4.2,33.1,14.3c12,11.4,14.3,25.2,15,38.5c0.5,9.6,1.1,19.6,5.8,28.9c2.3,4.5,6.9,8.1,12.6,9.9
				c6,1.9,12.4,1.7,18-0.8c7.1-3.1,13-8,18.5-15.6c8-11,11.6-22.3,11-34.6c-0.2-4.2-0.4-8.3-0.6-12.5c-0.4-9-0.8-18.3-1.5-27.5
				c-0.4-6.2-1.2-12.2-2.4-17.8c-1.9-8.7-8.3-14.5-20.9-18.8C33.6,75.5,15,69.3-2.9,63.2c-6.9-2.3-13.8-4.6-20.7-7
				c-11-3.7-18.1-9.3-22.5-17.6C-52,27.4-58.8,19.9-67.5,15.1c-1.1-0.1-1.9-0.9-1.9-1.8c0-1,0.9-1.8,2.1-1.8c0.2,0,0.9-0.1,1.6,0.3
				c12.6,6.9,19.3,17.8,23.4,25.4c3.9,7.4,10.3,12.4,20.2,15.7c6.9,2.3,13.8,4.7,20.7,7c18,6,36.5,12.3,54.8,18.6
				c8.7,3,20.6,8.5,23.4,21.5c1.2,5.8,2.1,11.9,2.5,18.2c0.6,9.2,1,18.5,1.5,27.5c0.2,4.2,0.4,8.3,0.6,12.5
				c0.7,13-3.1,25.1-11.6,36.7c-5.9,8.1-12.3,13.5-20.1,16.9c-6.6,2.9-14.1,3.2-21.2,0.9c-6.8-2.2-12.2-6.5-14.9-11.8
				c-5.1-10-5.6-20.3-6.2-30.2C6.6,158.1,4.4,145-6.7,134.4c-9.7-9.3-19-13.3-30.1-13.1c-7.7,0.1-14.8,1.8-22.3,3.6
				c-2.6,0.6-5.2,1.2-7.8,1.8c-1.1,0.2-2.2-0.4-2.5-1.4C-69.4,125.1-69.4,125-69.4,124.8z"/>
		</g>
		<path class="st1" d="M-61.8-73.7c0-3.7,1.7-7.5,4.9-12c1.7-2.4,3.6-4.8,5.4-7.1c3-3.8,6.1-7.7,8.6-11.8c3-4.9,4.6-10.6,4.5-16.6
			c-0.1-4.8-0.1-9.6,0-14.4l0-6.2c0-0.5,0.5-0.9,1-0.9c0.6,0,1,0.4,1,0.9l0,6.3c0,4.8,0,9.6,0,14.4c0.1,6.3-1.5,12.3-4.8,17.5
			c-2.6,4.2-5.7,8.2-8.8,12c-1.8,2.3-3.7,4.7-5.4,7c-6.6,9.1-6.1,14.9,1.9,23c4.8,4.8,10.3,8.8,15.1,12.2c1.9,1.3,3.8,2.6,5.6,3.9
			c8,5.4,16.2,11,22.6,18.3C-3.6-20.2,2.4-12.9,7.5-6.6c5.2,6.4,10.9,12.9,19,17.3c11.7,6.2,18.5,5.9,26.6-1.3
			c4.2-3.7,7.9-8.8,11.7-15.9c4.5-8.7,9.3-16,14.5-22.5l3.7-4.6c7.2-8.9,14.7-18.1,21.3-27.5c1.2-1.8,2.4-3.5,3.6-5.3
			c3.8-5.8,7.8-11.8,13.5-16.8c9.1-8,20-15.2,34.4-22.4c10.3-5.2,20.3-6.9,30.8-5.2c6.2,1,13.2,0.9,20.3-0.4
			c20.8-3.6,33.6-14,38.2-30.8c0.1-0.5,0.7-0.8,1.2-0.7c0.6,0.1,0.9,0.6,0.8,1.1c-4.8,17.6-18.2,28.4-39.8,32.2
			c-7.3,1.3-14.6,1.4-21,0.4c-10-1.6-19.6,0-29.4,5c-14.2,7.2-25,14.2-33.9,22.2c-5.4,4.8-9.4,10.7-13.1,16.4
			c-1.2,1.8-2.4,3.6-3.6,5.3C99.4-50.7,92-41.5,84.7-32.6L81-28c-5.2,6.4-9.9,13.7-14.3,22.2C62.8,1.5,59,6.8,54.6,10.6
			c-8.9,7.9-16.5,8.3-29.1,1.6C17,7.7,10.9,0.7,5.8-5.5c-5-6.2-11-13.5-17.3-20.6c-6.2-7.1-14.4-12.6-22.2-18
			c-1.9-1.3-3.8-2.6-5.7-3.9c-4.9-3.4-10.5-7.6-15.4-12.4C-59.4-65.2-61.8-69.3-61.8-73.7z"/>
		<g>
			<path class="st1" d="M528.4,628.7c0-3,0.4-6,1.1-9.2c1.2-5.3,5-9.2,10.7-11c6.6-2.1,12.5-0.8,18,0.6c11.6,3,21.4,9.1,31,14.9
				l0.9,0.6c1.6,1,3.2,2,4.8,3c6.2,3.9,12.6,7.8,19.3,10.9c4.7,2.1,10,3.4,15.1,4.7c2.6,0.6,5.2,1.3,7.8,2.1
				c6.2,1.8,12.3,3.7,18.5,5.5c12.4,3.7,25.1,7.6,37.8,11c15.4,4.2,23.5,12.3,25.4,25.5c0.8,5.3,2.3,10.4,3.9,15.7
				c2.3,7.6,6.6,14.6,10.7,21.3c2.2,3.6,4.5,7.3,6.4,11c0.2,0.5,0,1-0.5,1.2c-0.5,0.2-1.1,0-1.4-0.4c-1.9-3.7-4.2-7.4-6.4-10.9
				c-4.2-6.8-8.6-13.9-10.9-21.7c-1.6-5.3-3.1-10.5-3.9-15.9c-1.9-12.4-9.5-20-24-24c-12.7-3.4-25.5-7.3-37.9-11.1
				c-6.1-1.9-12.3-3.7-18.5-5.5c-2.5-0.7-5.2-1.4-7.7-2c-5.2-1.3-10.6-2.6-15.5-4.8c-6.9-3.1-13.4-7.1-19.6-11c-1.6-1-3.2-2-4.8-3
				l-0.9-0.6c-9.4-5.8-19.1-11.7-30.4-14.7c-5.1-1.3-10.6-2.5-16.7-0.6c-6.4,2-8.7,6.3-9.4,9.6c-2.6,11.4-0.3,21.7,7,30.4
				c4.1,4.9,10.3,7.2,15.8,8.9c2.3,0.7,4.8,1.4,7.1,2c3.4,0.9,6.9,1.8,10.2,3c9.8,3.5,17.2,10,23.4,20.5c4,6.8,8.9,13.2,12.7,17.9
				c7.3,9.1,17.9,15.2,28.1,21.1l3.6,2.1c3.4,2,6.7,4.1,9.9,6.3c1.5,1,3,2,4.5,3c0.5,0.3,0.6,0.9,0.2,1.3c-0.3,0.4-1,0.5-1.4,0.2
				c-1.5-1-3-2-4.5-3c-3.2-2.1-6.4-4.3-9.8-6.2l-3.6-2.1c-10.4-6-21.2-12.1-28.7-21.5c-3.8-4.8-8.8-11.2-12.9-18.1
				c-5.9-10.1-13-16.3-22.3-19.7c-3.2-1.2-6.7-2.1-10-2.9c-2.4-0.6-4.8-1.3-7.2-2c-5.8-1.8-12.3-4.2-16.8-9.5
				C531.2,644.6,528.4,637,528.4,628.7z"/>
		</g>
		<path class="st1" d="M-68.4-45.6c0-0.1,0-0.3,0.1-0.4c0.2-0.5,0.9-0.6,1.4-0.4c2.3,1,4.6,2,7,2.9c5.1,2.1,10.3,4.3,15.3,6.8
			c16.9,8.8,28.1,22.5,38.9,35.7C2.4,9.1,12.4,20.5,26.5,27.8c11.4,5.9,28,7.7,39.4-1.4c5.8-4.6,10.3-9.9,13.8-16.2
			c2.4-4.2,4.6-8.7,6.7-12.9c2.6-5.2,5.3-10.5,8.3-15.6c11.6-19.7,23.6-36,36.5-49.9c11.1-11.9,25.6-18.4,44.1-19.7
			c6.5-0.5,13.2-0.9,19.6-2.2c9.1-1.9,18.1-5.4,28.4-11.2c11.2-6.3,21.8-12.9,27.6-23.5c2.1-3.8,3.5-7.9,5-11.9
			c0.7-1.9,1.3-3.7,2-5.5c0.2-0.5,0.8-0.7,1.3-0.6c0.5,0.2,0.8,0.7,0.6,1.2c-0.7,1.8-1.4,3.7-2,5.5c-1.4,4.1-2.9,8.3-5.1,12.1
			c-6.1,11-16.9,17.7-28.3,24.2c-10.4,5.9-19.7,9.5-29,11.4c-6.5,1.3-13.3,1.8-19.8,2.3c-18,1.3-32,7.5-42.8,19
			c-12.9,13.8-24.7,30-36.3,49.5c-3,5-5.6,10.3-8.2,15.5c-2.1,4.3-4.4,8.7-6.8,13c-3.6,6.5-8.3,11.9-14.3,16.7
			c-12.2,9.7-29.7,7.8-41.8,1.7C11,21.9,0.9,10.4-7.4,0.1C-18.1-13-29.1-26.5-45.7-35.1c-4.8-2.5-10.1-4.7-15.1-6.8
			c-2.3-1-4.7-1.9-7-2.9C-68.2-45-68.4-45.3-68.4-45.6z"/>
		<g>
			<path class="st1" d="M-68.4,469.3c0-0.4,0.3-0.8,0.8-0.9c2.4-0.4,4.9-0.8,7.3-1.2c5.7-0.9,11.6-1.9,17.4-2.7
				c5.4-0.7,10.7-1.4,16-1.3c23.2,0.4,42-1,59-4.3c7.8-1.5,15.9-2.7,23.7-3.8c5.7-0.8,11.5-1.6,17.3-2.6c2.9-0.5,6.1-1.9,8.9-3.8
				c3.8-2.6,3.6-6.6,2.7-10.4c-1.4-6.4-2.6-13-3.5-18.5l-0.7-3.8c-0.9-5.1-1.8-10.3-2.2-15.6c-0.8-9.6-6.5-16.6-18.3-22.5
				c-13.2-6.7-28-10.2-42.3-13.6c-3.1-0.7-6.2-1.5-9.3-2.2c-9.1-2.3-18-4.6-26.3-8c-17.4-7.2-33.2-4.5-48.3,8.3
				c-0.4,0.3-1.1,0.3-1.5,0c-0.4-0.4-0.4-0.9,0-1.3c15.8-13.4,32.3-16.2,50.6-8.7c8.2,3.4,16.9,5.7,26,7.9c3.1,0.8,6.2,1.5,9.2,2.2
				c14.4,3.4,29.3,7,42.8,13.8c12.4,6.2,18.5,13.8,19.4,24c0.4,5.1,1.3,10.4,2.2,15.4l0.7,3.8c0.9,5.5,2.1,12,3.5,18.4
				c0.9,4.2,1.2,9-3.5,12.2c-3.1,2.1-6.5,3.6-9.7,4.1c-5.8,1-11.6,1.8-17.3,2.6c-7.8,1.1-15.8,2.2-23.6,3.8
				c-17.2,3.4-36.1,4.8-59.5,4.4c-5.1-0.1-10.3,0.6-15.6,1.3c-5.8,0.8-11.7,1.8-17.4,2.7c-2.4,0.4-4.9,0.8-7.3,1.2
				c-0.6,0.1-1.1-0.2-1.2-0.7C-68.4,469.4-68.4,469.4-68.4,469.3z"/>
		</g>
		<g>
			<path class="st1" d="M778.9,706.3c0-6.1,2.3-11.4,6.8-16.1c11.6-11.9,27.1-19.7,45.9-23.1c10.5-1.9,20.5-3.7,28-10.8
				c1.5-1.4,3-2.8,4.6-4.2c5-4.5,10.1-9.2,14.5-14.3c8.4-9.5,16.4-19.6,24.1-29.4l2.1-2.6c4.9-6.2,4.7-9.6-0.9-15
				c-1.9-1.9-4.2-3.5-6.5-5.2l-3.4-2.4c-6-4.3-12.2-8.8-16-15.5c-5.9-10.4-7.7-21.6-5.6-35.3c1.7-11,7.5-19.4,17.8-25.7
				c8.8-5.4,19-7.9,28-10.2c0.5-0.1,1.1,0.1,1.3,0.6c0.2,0.5-0.2,1-0.7,1.1c-8.8,2.2-18.8,4.8-27.4,10c-9.8,6-15.4,14-17,24.4
				c-2,13.3-0.3,24.1,5.4,34.2c3.6,6.3,9.3,10.5,15.5,14.9l3.4,2.4c2.3,1.7,4.7,3.4,6.7,5.3c6.3,6.1,6.5,10.5,1.1,17.3l-2.1,2.6
				c-7.7,9.8-15.7,19.9-24.2,29.4c-4.5,5.1-9.7,9.8-14.7,14.4c-1.5,1.4-3,2.8-4.5,4.2c-8,7.5-18.7,9.4-29.1,11.3
				c-18.4,3.4-33.5,11-44.8,22.5c-6.3,6.4-7.8,14.2-4.7,23.7c1.6,4.8,3.3,9.6,5,14.2c0.8,2.1,1.6,4.3,2.3,6.4c0.2,0.5-0.1,1-0.7,1.2
				c-0.5,0.2-1.1-0.1-1.3-0.6c-0.8-2.1-1.5-4.3-2.3-6.4c-1.7-4.7-3.5-9.5-5.1-14.3C779.4,712.4,778.9,709.2,778.9,706.3z"/>
		</g>
		<g>
			<path class="st1" d="M778.2,465.9c0-15.7,8.7-29.7,25.9-41.6c13.1-9.1,28.2-6.2,38.4-3.3c4.5,1.3,8.9,2.6,13.4,4
				c5.8,1.8,11.8,3.6,17.7,5.2c11.6,3.2,23.7,7.2,33.9,15.2l1.4,1.1c4.2,3.2,8.4,6.5,10.2,11.6c0.2,0.5-0.1,1-0.7,1.1
				c-0.5,0.1-1.1-0.1-1.3-0.6c-1.6-4.7-5.5-7.6-9.6-10.8l-1.4-1.1c-9.9-7.7-21.8-11.7-33.2-14.8c-6-1.6-12-3.5-17.8-5.2
				c-4.4-1.3-8.9-2.7-13.3-4c-15.7-4.5-27-3.6-36.5,3c-17.5,12.1-25.7,25.8-25.1,41.8c0.7,17.2,9,29.9,24.9,37.9
				c8.1,4.1,16.4,3.3,25.5-2.3c14.5-8.9,30.6-13.4,48.7-18l1.5-0.4c10.9-2.8,22.1-5.6,31.7-11.4c1.2-0.7,2.2-1.7,3.3-2.8
				c0.5-0.5,1-1,1.5-1.5c0.4-0.4,1.1-0.4,1.5,0c0.4,0.4,0.4,0.9,0,1.3c-0.5,0.4-1,0.9-1.5,1.4c-1.1,1.1-2.2,2.2-3.7,3.1
				c-9.9,6-21.3,8.9-32.3,11.7l-1.5,0.4c-17.9,4.5-33.9,9-48.1,17.8c-9.8,6-18.9,6.8-27.7,2.4c-16.3-8.2-25.2-21.9-25.9-39.5
				C778.2,467,778.2,466.5,778.2,465.9z"/>
		</g>
		<g>
			<path class="st1" d="M-68.4,403.9c0-0.3,0-0.5,0.2-0.8l0.9-2.2c1.5-3.7,3.1-7.4,5-11c3.6-6.9,7.4-13.5,14-18.4
				c7.9-5.8,17.9-7.4,29.5-4.9c2.4,0.5,4.9,1,7.4,1.6c16.3,3.4,33.1,7,48.3,14.6c10.9,5.4,18.1,12.2,22,20.8
				c3.5,7.6,4.6,16.3,3.4,25.9c-0.7,5.6-2.9,9.4-6.7,11.6l-1.1,0.7c-3.6,2.1-7.3,4.2-11.4,5.5c-18.9,6.1-38.6,5.8-57.1,4.5
				c-2.3-0.2-4.6-0.3-6.8-0.5c-1.5-0.1-3-0.2-4.5-0.4c-2.4-0.2-4.8-0.4-7.1-0.6c-5.6-0.5-11.3-0.9-17-1.1c-4-0.1-8.1,0.2-12.1,0.4
				c-1.9,0.1-3.7,0.3-5.6,0.3c-0.6,0-1.1-0.4-1.1-0.9c0-0.5,0.4-0.9,1-1c1.8-0.1,3.7-0.2,5.5-0.3c4-0.3,8.2-0.6,12.3-0.4
				c5.7,0.2,11.5,0.6,17.1,1.1c2.4,0.2,4.7,0.4,7.1,0.6c1.5,0.1,3,0.2,4.5,0.4c2.3,0.2,4.5,0.4,6.8,0.5c18.3,1.2,37.7,1.5,56.3-4.4
				c3.8-1.2,7.5-3.3,11-5.4l1.1-0.7c3.3-1.9,5.1-5.2,5.8-10.3c1.2-9.2,0.1-17.6-3.3-25c-3.7-8.2-10.6-14.7-21.1-19.9
				c-15-7.5-31.6-11-47.7-14.4c-2.5-0.5-4.9-1-7.4-1.6c-11.1-2.4-20.2-0.9-27.7,4.5c-6.3,4.6-9.8,10.8-13.5,17.7
				c-1.8,3.5-3.4,7.3-5,10.9l-0.9,2.2c-0.1,0.2,0,0.6,0.1,1c0.1,0.3,0.1,0.6,0.2,0.8c0.1,0.5-0.4,1-0.9,1c-0.6,0-1.1-0.3-1.1-0.8
				c0-0.2-0.1-0.4-0.1-0.6C-68.3,404.7-68.4,404.3-68.4,403.9z"/>
		</g>
		<g>
			<path class="st1" d="M-24.6-72c0-0.9,0.1-1.8,0.2-2.7c0.7-4.3,1.8-8.3,3.5-12.1c5.4-12.1,7.8-24.9,7.3-39.2
				c-0.1-3.6-0.1-7.3-0.1-10.9c0-1.6,0-3.3,0-4.9c0-0.5,0.5-0.9,1-0.9c0.6,0,1,0.4,1,0.9c0,1.6,0,3.3,0,4.9c0,3.6-0.1,7.2,0.1,10.8
				c0.5,14.6-1.9,27.6-7.4,39.9c-1.6,3.6-2.7,7.5-3.4,11.6c-1.3,8.7,4.7,14.9,10.1,19.3c9.8,8,20,15.5,31.5,23.7c4.1,3,8.4,6,13.9,5
				c4.5-0.8,8.2-2.1,10.9-3.8c7.8-5,17.6-11.1,26-18c6.6-5.4,11.7-12.2,14.6-19.7c4.6-11.9,13-21.1,25.7-28.1
				c14.7-8.1,25.6-15.9,34.3-24.5c7.1-7,12.1-13.4,13.6-21.5c0.1-0.5,0.6-0.8,1.2-0.8c0.6,0.1,0.9,0.6,0.8,1.1
				c-1.7,9.1-7.8,16.1-14.1,22.4c-8.8,8.8-19.8,16.7-34.7,24.8c-12.3,6.8-20.5,15.6-24.9,27.1c-3,7.8-8.2,14.9-15.1,20.5
				c-8.5,6.9-18.3,13.1-26.2,18.1c-2.9,1.8-6.8,3.2-11.7,4.1c-6.4,1.2-11.3-2.3-15.6-5.4C6.5-38.3-3.8-45.8-13.6-53.9
				C-18.8-58.1-24.6-64-24.6-72z"/>
		</g>
		<g>
			<path class="st1" d="M818.3,330.8c0-0.4,0-0.8,0.1-1.2c0.4-1.9,1.8-3.5,4-4.7c2-1.1,5.1-2.7,8.2-3.2c6.6-1,13.9-1.9,22.3-2.7
				c14.3-1.3,22.6-7.2,26.8-19.1c3.2-9.1,3.7-18.7,4.1-27.9c0.1-2.5,0.2-5,0.4-7.5l0-0.6c0.6-8.2,1.2-16.7,4.3-24.7
				c4.7-11.7,12.3-26.2,29.5-34.4c0.5-0.2,1.1-0.1,1.4,0.4c0.3,0.4,0.1,1-0.4,1.2c-16.6,7.9-23.9,22-28.5,33.4
				c-3.1,7.7-3.7,16.1-4.2,24.2l0,0.6c-0.2,2.5-0.3,5-0.4,7.5c-0.5,9.4-0.9,19-4.2,28.4c-4.5,12.5-13.5,19-28.6,20.4
				c-8.3,0.8-15.5,1.7-22.1,2.7c-2.8,0.4-5.6,1.9-7.5,2.9c-1.7,0.9-2.7,2.1-3,3.5c-0.3,1.4,0.1,2.9,1.3,4.4
				c4.1,5.1,10.3,8.4,19.1,10.1c10.7,2,19.5,6.4,27.2,13.5c6.7,6.2,14,12.6,23.4,15.9c6.7,2.4,14,4.3,21.5,2.4
				c1.3-0.3,2.7-0.3,4-0.2c0.6,0,1.1,0.1,1.7,0.1c0.6,0,1,0.4,1,0.9c0,0.5-0.5,0.9-1,0.9c-0.6,0-1.2,0-1.8-0.1
				c-1.2-0.1-2.3-0.1-3.3,0.1c-8.1,2.1-15.8,0.1-22.8-2.4c-9.7-3.4-17.2-10-24.1-16.4c-7.3-6.9-15.9-11.1-26.1-13
				c-9.3-1.7-16-5.3-20.4-10.8C818.9,333.9,818.3,332.4,818.3,330.8z"/>
		</g>
		<path class="st1" d="M427.5,665.5c0-3.2,1.6-6.3,4.9-9.4c6.5-6.3,14.2-11.6,20.8-15.9c5.2-3.4,10.5-4.4,16.1-3.1
			c6.5,1.5,11.1,4.9,13.8,10.4c2.9,5.7,5.6,11.8,8.5,19.4c3.7,9.8,10.5,15.8,20.6,18.3l4.7,1.2c6.4,1.6,12.9,3.3,19.5,4.5
			c17.5,3.3,30.7,11.4,39.1,24.3c3,4.6,5.8,9.3,8.6,13.9c1.3,2.1,2.5,4.2,3.8,6.3c0.3,0.4,0.1,1-0.4,1.2c-0.5,0.2-1.1,0.1-1.4-0.4
			c-1.3-2.1-2.6-4.2-3.8-6.3c-2.7-4.6-5.6-9.3-8.5-13.8c-8.2-12.5-20.6-20.2-37.8-23.4c-6.6-1.2-13.2-2.9-19.6-4.5l-4.6-1.2
			c-10.8-2.7-18-9-22-19.4c-2.9-7.5-5.5-13.6-8.4-19.2c-2.5-4.9-6.6-8-12.5-9.4c-5.1-1.2-9.6-0.3-14.4,2.8
			c-6.5,4.3-14.1,9.5-20.5,15.7c-6.2,5.9-5.9,11.1,1,17.9c3.9,3.9,8.8,7.2,13.5,10.4l2.1,1.4c7.4,5.1,13.3,9.6,16.3,17.1
			c3,7.6,2.6,15.2,1.8,21.5c-0.3,2.5-1,5-1.6,7.4c-0.3,1.1-0.6,2.2-0.8,3.3c-0.1,0.5-0.7,0.8-1.2,0.7c-0.6-0.1-0.9-0.6-0.8-1.1
			c0.3-1.1,0.5-2.2,0.8-3.3c0.6-2.3,1.3-4.8,1.6-7.2c0.8-6.2,1.2-13.4-1.7-20.7c-2.8-7.1-8.5-11.4-15.6-16.3l-2.1-1.4
			c-4.8-3.2-9.7-6.6-13.7-10.6C429.5,672.5,427.5,668.9,427.5,665.5z"/>
		<g>
			<path class="st1" d="M-68.4,668.8c0-0.3,0.2-0.6,0.5-0.8c11.6-6.8,25-7.8,37.9-8.8l1.5-0.1c3.2-0.3,6.4-0.6,9.6-0.9
				c2.7-0.3,5.4-0.6,8.1-0.8l0.7-0.1c4.3-0.4,8.8-0.7,13.2-0.8c2.7,0,4.4,0.4,5.4,1.3c1.1,1,1.5,2.4,1.5,4.8c0,1.6,0,3.4-0.6,5.1
				c-3.5,11-7.4,23.4-6.4,36.2c0.7,8.7,4.3,14.8,11.4,19.1c8.4,5.1,17.9,5.8,26.1,5.9c10.3,0,20.4-2.7,30.1-5.4l1.1-0.3
				c11.5-3.1,22.6-3.7,33.1-1.6c8.4,1.7,16.3,5.6,24.2,11.9c0.5,0.4,1.2,0.7,2,1c0.4,0.2,0.8,0.3,1.2,0.5c0.5,0.2,0.7,0.8,0.5,1.2
				c-0.3,0.5-0.9,0.6-1.4,0.4c-0.3-0.2-0.7-0.3-1.1-0.4c-0.9-0.3-1.8-0.7-2.6-1.3c-7.6-6.1-15.2-9.9-23.3-11.5
				c-10.1-2-20.9-1.5-32,1.6l-1.1,0.3c-9.9,2.7-20.1,5.5-30.7,5.4c-8.5,0-18.4-0.8-27.3-6.2C5.8,719.9,1.9,713.4,1.2,704
				c-1.1-13.1,2.9-25.7,6.4-36.8c0.5-1.4,0.5-3.1,0.5-4.6c0-1.8-0.3-3-0.9-3.5c-0.6-0.6-1.9-0.8-4-0.8c-4.3,0-8.8,0.4-13,0.8
				l-0.7,0.1c-2.7,0.2-5.4,0.5-8.1,0.8c-3.2,0.3-6.5,0.7-9.7,0.9l-1.5,0.1c-12.7,1-25.8,2-37,8.5c-0.5,0.3-1.1,0.2-1.4-0.3
				C-68.3,669.2-68.4,669-68.4,668.8z"/>
		</g>
		<g>
			<path class="st1" d="M-68.4,196c0-0.1,0-0.2,0.1-0.3c0.2-0.5,0.8-0.7,1.3-0.6c15.2,4.9,25.7,15.2,35.8,25.1l0.6,0.6
				c1,1,2.1,2,3.1,3.1c6.2,6.2,12.6,12.6,20.4,17.5c2.6,1.6,5.2,3.3,7.8,5c5.2,3.3,10.5,6.8,16,9.8c11.3,6.3,18,14.4,19.8,24
				c1.6,8.5,1.6,17.2,0,25.3c-1.9,9.4-5.5,18.4-10.3,29.1c-2.1,4.6-7.2,7.3-14,7.4c-7.3,0.1-13.7-2.1-20.1-4.6
				c-14.5-5.5-27.7-6.7-40.3-3.4c-4.4,1.1-8.7,2.6-12.9,4.1c-1.9,0.7-3.9,1.3-5.8,2c-0.5,0.2-1.1-0.1-1.3-0.5
				c-0.2-0.5,0.1-1,0.6-1.2c1.9-0.6,3.9-1.3,5.8-2c4.2-1.5,8.6-3,13-4.1c13-3.4,26.6-2.3,41.6,3.5c6.2,2.4,12.4,4.5,19.3,4.5
				c6-0.1,10.4-2.3,12.1-6.2c4.7-10.6,8.3-19.6,10.2-28.8c1.6-7.8,1.6-16.3,0-24.6c-1.7-9.1-8.1-16.8-18.9-22.8
				c-5.5-3.1-10.9-6.6-16.1-9.9c-2.6-1.7-5.1-3.3-7.7-5c-8-5-14.5-11.5-20.8-17.7c-1-1-2-2-3.1-3l-0.6-0.6
				c-10-9.8-20.3-19.9-35-24.7C-68.1,196.8-68.4,196.4-68.4,196z"/>
		</g>
		<g>
			<path class="st1" d="M17-87.1c0-9.5,3.9-17.9,11.8-25c8.3-7.5,12.2-15.7,12-24.9c0-1.2,0.3-2.4,0.6-3.5c0.1-0.5,0.3-1,0.4-1.5
				c0.1-0.5,0.6-0.8,1.2-0.7c0.6,0.1,0.9,0.6,0.8,1.1c-0.1,0.5-0.2,1-0.4,1.6c-0.3,1.1-0.6,2.1-0.5,3.1c0.1,9.7-4,18.3-12.6,26.2
				c-7.8,7.1-11.5,15.6-11.1,25.2c0.3,6.8,5,12.2,12.1,14c5.6,1.4,11.5,1.9,16.5-4c2.3-2.7,4.2-6.2,5.8-10.7l0.3-0.9
				c2.7-7.5,5.4-15.2,15.8-17.7c4.2-1,8.5-1.7,13-2.2c8.7-1,18.9-2.6,28.3-7.3c13-6.6,20.6-14.8,23.7-25.9c0.2-0.7,0.8-1.1,1.3-1.4
				c0.2-0.1,0.3-0.2,0.4-0.3c0.4-0.4,1.1-0.4,1.5,0c0.4,0.4,0.4,0.9,0,1.3c-0.2,0.2-0.4,0.3-0.6,0.5c-0.2,0.1-0.5,0.4-0.6,0.5
				c-3.2,11.4-11.3,20.3-24.6,27c-9.7,4.9-20.1,6.5-29.1,7.5c-4.4,0.5-8.6,1.2-12.7,2.2c-9.3,2.2-11.8,9.1-14.4,16.4l-0.3,0.9
				c-1.7,4.7-3.7,8.4-6.1,11.2c-5.8,6.8-12.7,6.2-18.7,4.7c-8.1-2-13.3-8-13.6-15.6C17-86.1,17-86.6,17-87.1z"/>
		</g>
		<path class="st1" d="M283.5,674.9c0-1.4,0.6-2.4,1.2-2.9c1.1-1.1,2.8-1.5,4.9-1.4c3.2,0.2,6,0.5,8.5,0.9c4.5,0.7,9,1.4,13.5,2.1
			c11.3,1.8,23,3.6,34.4,5.8c33.1,6.5,51.2,24.5,57.1,56.5c0.1,0.5-0.3,1-0.8,1c-0.6,0.1-1.1-0.3-1.2-0.8
			c-5.7-31.1-23.3-48.6-55.5-55c-11.4-2.2-23-4.1-34.3-5.8c-4.5-0.7-9-1.4-13.5-2.1c-2.4-0.4-5.1-0.7-8.3-0.9
			c-1.4-0.1-2.6,0.2-3.2,0.8c-0.7,0.7-0.7,1.7-0.6,2.5c1,5.2,2.1,11.1,3.9,16.6c2.5,7.4,5.3,14.9,8,22.2c1.8,4.8,3.5,9.5,5.2,14.3
			c0.6,1.6,0.9,3.3,1.1,4.9c0.1,0.7,0.3,1.5,0.4,2.2c0.1,0.5-0.3,1-0.8,1.1c-0.6,0.1-1.1-0.2-1.2-0.7c-0.2-0.8-0.3-1.5-0.4-2.3
			c-0.3-1.6-0.5-3.2-1.1-4.6c-1.7-4.8-3.5-9.5-5.2-14.3c-2.7-7.3-5.4-14.8-8-22.2c-1.9-5.6-3-11.5-4-16.8
			C283.5,675.6,283.5,675.2,283.5,674.9z"/>
		<g>
			<path class="st1" d="M-68.4,321.7c0-0.4,0.3-0.8,0.7-0.9c4.2-1.1,8.3-2.2,12.5-3.2c9.7-2.5,19.6-5,29.4-7.8
				c6.5-1.9,14.6-4.8,20.3-11.4c9.8-11.3,9.2-24-1.6-34.8c-16.1-15.9-30.6-27.8-45.6-37.3c-3.2-2-6.6-3.8-10-5.5
				c-1.6-0.8-3.2-1.6-4.7-2.4c-0.5-0.3-0.6-0.8-0.4-1.3c0.3-0.4,0.9-0.6,1.4-0.3c1.5,0.8,3.1,1.6,4.7,2.4c3.4,1.7,6.9,3.5,10.1,5.6
				c15.2,9.6,29.8,21.5,46,37.6c11.4,11.3,12.1,25.2,1.7,37.1c-6.1,7-14.6,10.1-21.3,12c-9.7,2.8-19.7,5.4-29.4,7.9
				c-4.2,1.1-8.4,2.1-12.5,3.2c-0.5,0.1-1.1-0.1-1.3-0.6C-68.4,321.9-68.4,321.8-68.4,321.7z"/>
		</g>
		<g>
			<path class="st1" d="M906.3,293.9c0-5.2,0.5-10.4,1-15.3c0.3-2.8,0.9-5.6,1.4-8.3c0.5-2.7,1.1-5.6,1.4-8.4
				c0.1-1.4,0.3-2.9,0.4-4.3c1-10,2-20.2,6.6-29.8c0.2-0.5,0.8-0.7,1.4-0.5c0.5,0.2,0.8,0.7,0.5,1.2c-4.5,9.3-5.5,19.5-6.5,29.3
				c-0.1,1.4-0.3,2.9-0.4,4.3c-0.3,2.9-0.9,5.7-1.4,8.5c-0.5,2.7-1.1,5.5-1.4,8.2c-0.7,6.1-1.3,12.5-0.9,18.8
				c0.4,7.3,1.2,14.8,1.9,22c0.3,3,0.6,6.1,0.9,9.1c0.1,1,0.1,1.9,0.2,2.9c0.1,2.3,0.2,4.5,0.9,6.6c1.1,3.5,2.6,5.6,6.2,5.5
				c0.6,0,1,0.4,1.1,0.9c0.1,0.5-0.4,0.9-1,0.9c-6,0.2-7.5-4.6-8.3-6.9c-0.7-2.3-0.9-4.7-1-7c0-0.9-0.1-1.9-0.2-2.8
				c-0.3-3-0.6-6.1-0.9-9.1c-0.8-7.2-1.5-14.7-1.9-22.1C906.3,296.3,906.3,295.1,906.3,293.9z"/>
		</g>
		<path class="st1" d="M381.7-141.4c0-0.3,0.1-0.6,0.4-0.7c0.5-0.3,1.1-0.2,1.4,0.2c6.3,7.6,10.7,16.4,13.5,26.7
			c1.2,4.3,2.3,8.6,3.4,12.9c0.8,3.3,1.7,6.6,2.6,9.9c0.3,1.2,0.8,2.4,1.4,3.8c0.9,1.8,1.8,2.9,2.6,3c0.9,0.2,2.2-0.8,3-1.6
			c6.2-5.9,9.4-12.3,9.8-19.6c0.4-7.3-2.1-13.9-4.4-20.3c-1.2-3.3-2.2-6.8-3.2-10.1c-0.4-1.5-0.9-3-1.3-4.4c-0.1-0.5,0.2-1,0.7-1.1
			c0.5-0.1,1.1,0.2,1.3,0.6c0.5,1.5,0.9,3,1.3,4.5c1,3.3,1.9,6.7,3.2,10c2.4,6.6,4.9,13.4,4.5,21c-0.4,7.8-3.8,14.6-10.3,20.7
			c-1.8,1.7-3.4,2.4-4.9,2.1c-1.6-0.3-3-1.6-4.1-4.1c-0.7-1.5-1.2-2.8-1.5-4.1c-0.9-3.3-1.7-6.6-2.6-9.9c-1.1-4.3-2.2-8.6-3.4-12.9
			c-2.7-10.1-7-18.6-13.1-26C381.7-141.1,381.7-141.2,381.7-141.4z"/>
		<g>
			<path class="st1" d="M-68.4,508c0-0.1,0-0.1,0-0.2c0.1-0.5,0.6-0.8,1.2-0.7c11.7,2,21.3,5.4,29.5,10.2l2.3,1.4
				c6.5,3.8,13.3,7.8,17.1,14.4c5.8,10,2.5,20-2,29.2c-3.5,7.2-10.4,10.7-19.1,9.8c-6.6-0.7-13.3-1.6-19.8-2.4
				c-2.8-0.4-5.6-0.7-8.4-1.1c-0.6-0.1-1-0.5-0.9-1c0.1-0.5,0.6-0.8,1.2-0.8c2.8,0.4,5.6,0.7,8.4,1.1c6.5,0.8,13.1,1.7,19.7,2.4
				c7.7,0.8,13.9-2.4,17-8.7c4.3-8.9,7.5-18.3,2.1-27.7c-3.6-6.2-10.1-10-16.4-13.7l-2.4-1.4c-8-4.7-17.4-8-28.7-10
				C-68,508.8-68.4,508.4-68.4,508z"/>
		</g>
		<path class="st1" d="M492.7,736.1c0-0.1,0-0.1,0-0.2l0.3-1.7c0.2-1.2,0.4-2.4,0.7-3.6c0.3-1.5,0.6-3,0.8-4.6
			c0.6-3.5,1.2-7,2.3-10.4c2.6-8.1,9.2-12.6,19.6-13.4c4.9-0.3,10-0.3,15,0c10.1,0.7,18.8,4,25.8,9.8c7,5.8,12.4,13.2,17,23.2
			c0.2,0.5,0,1-0.6,1.2c-0.5,0.2-1.1,0-1.3-0.5c-4.5-9.8-9.7-16.9-16.5-22.5c-6.7-5.5-15-8.7-24.6-9.4c-4.9-0.3-9.8-0.3-14.6,0
			c-9.5,0.7-15.3,4.6-17.7,12.1c-1.1,3.3-1.7,6.8-2.2,10.2c-0.3,1.5-0.5,3.1-0.8,4.6c-0.2,1.2-0.5,2.4-0.7,3.6l-0.3,1.7
			c-0.1,0.5-0.6,0.8-1.2,0.8C493.1,736.9,492.7,736.5,492.7,736.1z"/>
		<path class="st1" d="M323,712.2c0-7.2,4.9-12.7,12.2-13.7c5.3-0.7,10.8-0.6,15.6,0.4c12.6,2.7,22,9.8,27.8,21
			c1.8,3.5,3.4,7.1,4.9,10.6c0.7,1.6,1.4,3.2,2.1,4.8c0.2,0.5,0,1-0.6,1.2c-0.5,0.2-1.1,0-1.3-0.5c-0.7-1.6-1.4-3.2-2.1-4.8
			c-1.5-3.5-3.1-7.1-4.8-10.5c-5.6-10.7-14.5-17.5-26.4-20c-4.5-1-9.8-1.1-14.8-0.4c-6.3,0.9-10.5,5.7-10.5,11.9c0,0.1,0,0.1,0,0.2
			c0.1,5.5,0.3,11.1,0.6,16.5c0.1,2.4,0.2,4.8,0.3,7.2c0,0.5-0.4,0.9-1,0.9c-0.6,0-1-0.4-1.1-0.9c-0.1-2.4-0.2-4.8-0.3-7.2
			c-0.3-5.4-0.5-11.1-0.6-16.6C323,712.3,323,712.2,323,712.2z"/>
		<g>
			<path class="st1" d="M819.4,736.1c0-0.1,0-0.3,0.1-0.4c0.3-0.5,0.5-1,0.8-1.5c0.6-1.1,1.1-2.3,1.7-3.3
				c8.3-14.1,20.3-20.4,35.5-18.7c10.1,1.1,20.2,3.2,30,5.2c2.9,0.6,5.7,1.2,8.6,1.7c5.3,1,10.6,2.3,15.7,3.5
				c2.4,0.6,4.7,1.1,7.1,1.7c0.6,0.1,0.9,0.6,0.7,1.1c-0.1,0.5-0.7,0.8-1.3,0.7c-2.4-0.5-4.7-1.1-7.1-1.7
				c-5.1-1.2-10.4-2.5-15.6-3.5c-2.9-0.6-5.7-1.2-8.6-1.7c-9.7-2-19.8-4.1-29.8-5.1c-14.3-1.5-25.6,4.5-33.5,17.8
				c-0.6,1-1.2,2.1-1.7,3.2c-0.3,0.5-0.5,1-0.8,1.6c-0.2,0.5-0.8,0.7-1.4,0.5C819.6,736.7,819.4,736.4,819.4,736.1z"/>
		</g>
		<g>
			<path class="st1" d="M887.1,538.6c0-1.4,0.1-2.9,0.3-4.3c1.3-10.5,6.8-18,16.9-23.1c3-1.5,6.2-2.9,9.2-4.3
				c1.4-0.6,2.7-1.2,4.1-1.9c0.5-0.2,1.1-0.1,1.4,0.4c0.3,0.4,0.1,1-0.4,1.2c-1.4,0.6-2.8,1.3-4.1,1.9c-3,1.4-6.1,2.8-9.1,4.3
				c-9.5,4.7-14.7,11.8-15.9,21.7c-1.8,14.5,6,27.5,20.8,34.7c2,1,3.9,2,5.8,3c0.9,0.5,1.8,0.9,2.7,1.4c0.5,0.3,0.7,0.8,0.4,1.3
				c-0.3,0.4-0.9,0.6-1.4,0.3c-0.9-0.5-1.8-0.9-2.7-1.4c-1.9-1-3.8-2-5.7-3C895.1,563.9,887.1,552.1,887.1,538.6z"/>
		</g>
		<g>
			<path class="st1" d="M889.2,682.3c0-3.2,1.1-6.6,3.1-10.7c0.8-1.6,1.6-3.3,2.4-4.9c6.1-12.4,12.4-25.2,22.6-35.9
				c0.4-0.4,1-0.4,1.4-0.1c0.4,0.3,0.5,0.9,0.1,1.3c-10,10.5-16.3,23.2-22.3,35.4c-0.8,1.6-1.6,3.3-2.4,4.9
				c-5.6,11.1-3.4,17.2,9.3,26c2.2,1.5,4.7,2.8,7.1,4c1.4,0.7,2.8,1.4,4.1,2.2c1,0.6,2,1.2,2.9,1.9c0.4,0.3,0.8,0.5,1.2,0.8
				c0.5,0.3,0.5,0.9,0.2,1.3c-0.3,0.4-1,0.5-1.4,0.2c-0.4-0.3-0.8-0.5-1.2-0.8c-0.9-0.6-1.8-1.2-2.7-1.7c-1.3-0.7-2.7-1.4-4.1-2.1
				c-2.5-1.3-5-2.6-7.3-4.1C893.3,693.6,889.2,688.6,889.2,682.3z"/>
		</g>
		<g>
			<path class="st1" d="M-68.4,300.6c0-0.4,0.3-0.8,0.8-0.9c11-2.2,22.4-5.3,31-13c6.8-6,7.3-13.9,1.4-21.1
				c-7.9-9.5-18.4-17.2-32.1-23.5c-0.5-0.2-0.7-0.8-0.4-1.2c0.3-0.4,0.9-0.6,1.4-0.4c14.1,6.5,24.8,14.3,32.9,24
				c6.5,7.9,5.9,16.9-1.6,23.5c-9,8-20.7,11.2-32,13.5c-0.6,0.1-1.1-0.2-1.2-0.7C-68.4,300.7-68.4,300.7-68.4,300.6z"/>
		</g>
		<g>
			<path class="st1" d="M901.1,536.6c0-8,4.4-14.7,13-19.3c0.8-0.4,1.5-1,2.2-1.6c0.4-0.3,0.7-0.6,1.1-0.9c0.4-0.3,1.1-0.3,1.4,0.1
				c0.4,0.4,0.3,1-0.1,1.3c-0.4,0.3-0.7,0.6-1,0.8c-0.8,0.7-1.6,1.3-2.6,1.9c-9.1,5-13.1,12.1-11.7,21.1c1.3,8.8,6.6,14.9,15.5,18.2
				c0.5,0.2,0.8,0.7,0.6,1.2c-0.2,0.5-0.8,0.7-1.3,0.5c-9.6-3.5-15.4-10.2-16.8-19.6C901.2,539,901.1,537.8,901.1,536.6z"/>
		</g>
		<path class="st1" d="M514.9,735.6c0-0.1,0-0.2,0.1-0.4c0.3-0.6,0.6-1.3,0.9-1.9c0.6-1.4,1.3-2.9,2.1-4.3c5-8.4,14.6-11,24.5-6.5
			c6.6,3,11.1,7.4,13.4,13.2c0.2,0.5-0.1,1-0.6,1.2c-0.5,0.2-1.1-0.1-1.3-0.6c-2.1-5.3-6.3-9.4-12.4-12.2c-9-4.1-17.3-1.9-21.8,5.7
			c-0.8,1.3-1.4,2.7-2,4.1c-0.3,0.7-0.6,1.3-0.9,2c-0.2,0.5-0.8,0.7-1.3,0.5C515.1,736.3,514.9,736,514.9,735.6z"/>
		<g>
			<path class="st1" d="M904.2-60.6c0-1.9,1-4.3,3.1-7.5c0.5-0.7,1-1.3,1.5-2c0.3-0.4,0.6-0.8,0.9-1.1c2-2.6,4-5.2,6-7.8l1.4-1.9
				c0.3-0.4,1-0.5,1.4-0.2c0.5,0.3,0.6,0.9,0.3,1.3l-1.4,1.9c-2,2.6-4,5.2-6,7.8c-0.3,0.4-0.7,0.8-1,1.2c-0.5,0.6-1,1.2-1.4,1.8
				c-2.6,3.9-3.4,6.4-2.5,7.9c0.9,1.6,3.6,2.5,8.6,3c0.9,0.1,1.8,0.3,2.6,0.6c0.4,0.1,0.7,0.2,1.1,0.3c0.5,0.1,0.9,0.6,0.7,1.1
				c-0.2,0.5-0.7,0.8-1.3,0.6c-0.4-0.1-0.8-0.2-1.2-0.3c-0.7-0.2-1.5-0.4-2.1-0.5c-5.9-0.6-9-1.8-10.3-4
				C904.4-59,904.2-59.8,904.2-60.6z"/>
		</g>
		<g>
			<path class="st1" d="M100.9-100.7c0-0.3,0.2-0.7,0.6-0.8c0.5-0.2,1.1,0,1.3,0.5c0.1,0.2,0.2,0.5,0.3,0.7c0.2,0.4,0.3,0.9,0.6,1.2
				c2.7,3.3,7.1,5.2,11.8,4.9c5-0.3,9.2-2.8,11.5-6.8c0.2-0.4,0.8-0.6,1.3-0.4c0.5,0.2,0.7,0.7,0.4,1.2c-2.6,4.5-7.6,7.4-13.1,7.8
				c-5.4,0.3-10.5-1.8-13.5-5.6c-0.4-0.5-0.6-1.1-0.8-1.6c-0.1-0.2-0.2-0.4-0.2-0.6C100.9-100.4,100.9-100.6,100.9-100.7z"/>
		</g>
		<g>
			<path class="st1" d="M-39.5-76.3c0-0.3,0.2-0.6,0.5-0.7c5.7-2.9,8.2-8.1,10.1-13.2c0.8-2.3,1.1-4.8,1.5-7.2
				c0.1-1.1,0.3-2.2,0.5-3.4c0.1-0.5,0.6-0.8,1.1-0.7c0.5,0.1,0.9,0.5,0.8,1c-0.2,1.1-0.3,2.2-0.5,3.3c-0.3,2.5-0.6,5.1-1.5,7.5
				c-2,5.4-4.7,10.9-11,14.1c-0.5,0.2-1.1,0.1-1.3-0.3C-39.5-76-39.5-76.2-39.5-76.3z"/>
		</g>
		<g>
			<path class="st1" d="M-67.9,717.6c0-0.2,0.1-0.4,0.3-0.6c0.4-0.4,1-0.4,1.5-0.1l1.6,1.3c6.3,4.9,12.8,10,16.9,17
				c0.3,0.4,0.1,1-0.4,1.2c-0.5,0.2-1.1,0.1-1.4-0.4c-3.9-6.7-10.2-11.7-16.4-16.5l-1.6-1.3C-67.8,718.1-67.9,717.9-67.9,717.6z"/>
		</g>
		<g>
			<path class="st1" d="M915.5,87.3c0-2.7,0.8-5.3,1.7-7.9c0.2-0.5,0.7-0.8,1.3-0.6c0.5,0.1,0.9,0.7,0.7,1.1
				c-1.3,3.8-2.2,7.3-1,10.9c0.4,1.2,0.6,2.5,0.8,3.7c0.1,0.5,0.2,1.1,0.3,1.6c0.1,0.5-0.3,1-0.8,1.1c-0.6,0.1-1.1-0.3-1.2-0.8
				c-0.1-0.6-0.2-1.1-0.3-1.7c-0.2-1.2-0.4-2.4-0.7-3.5C915.7,89.9,915.5,88.6,915.5,87.3z"/>
		</g>
		<path class="st1" d="M216.3-100.2c0-0.2,0.1-0.3,0.2-0.5c0.3-0.4,0.9-0.5,1.3-0.2c5.2,3.3,10.3,3.3,15.6,0c0.4-0.3,1-0.2,1.3,0.2
			c0.3,0.4,0.2,0.9-0.2,1.2c-5.9,3.7-11.9,3.7-17.8,0C216.5-99.7,216.3-100,216.3-100.2z"/>
		<path class="st1" d="M372.8,83.5c0-4.2,4.1-8.5,9.2-9.6c4.5-1,8.3,1.1,10.6,5.8c0.1,0.2,0.1,0.4,0.1,0.6c0,0.1,0,0.2,0,0.3
			c0,4.9-3.1,8.2-9.1,10c-2.3,0.7-4.8,0.3-6.9-1c-2.2-1.3-3.6-3.3-3.8-5.5C372.8,83.9,372.8,83.7,372.8,83.5z M390.6,80.3
			c-1.3-2.7-3.8-5.6-8.1-4.6c-4.3,1-7.9,4.8-7.6,8.3c0.1,1.6,1.2,3.1,2.9,4.1c1.6,1,3.5,1.2,5.1,0.8c5.3-1.5,7.7-4.2,7.7-8.3
			c0,0,0,0,0,0C390.5,80.5,390.6,80.3,390.6,80.3z"/>
		<path class="st1" d="M228.8,387.5c0-5.6,2.9-10.4,8.8-14.1c4.1-2.6,9-5.1,15.4-7.6c18.8-7.4,38.2-10.8,59.9-14.2
			c10.8-1.7,18.5-5.7,23.5-12.3c5.9-7.8,9-16.9,9-26.2c0,0,0,0,0-0.1c0-9-1.5-18-3.3-28c-1.9-10.6,1.6-20.9,9.2-26.9
			c6.7-5.3,16-6.9,26.2-4.3c18.2,4.6,33.5,7.8,49.7,9c12.6,0.9,22.7,6.2,29.9,15.8c8.4,11.1,13,23.8,16.8,35.9
			c1.5,4.9,2.6,10,3.6,14.9c0.5,2.2,0.9,4.5,1.4,6.7c0,0.1,0,0.3,0,0.4c0,0.1,0,0.1,0,0.2c0,1.7,0,3.4,0,5.1c0,3.8,0,7.7,0,11.5
			c0.1,6.4-2.6,11.3-8,14.3c-5,2.8-10.2,5.5-15.2,8.1c-5.9,3.1-12,6.2-17.7,9.6c-14.1,8.4-29.5,12.3-47,12.1
			c-9.4-0.1-16.6,3.4-20.1,9.9c-3.3,6.1-6.5,13-9.9,21.8c-3.3,8.6-8.7,19.1-21.3,24.6c-12.4,5.4-27,11.8-42,18
			c-4.1,1.7-8.6,3.3-13.9,2.5c-7.4-1.1-12.3-5.1-15.5-12.6c-5.2-12-12.7-23.2-20-33.9l-0.5-0.7c-5.8-8.6-11.2-18.4-16.9-30.8
			C229.5,393.1,228.8,390.2,228.8,387.5z M347.5,313c0,9.7-3.2,19.1-9.3,27.2c-5.3,7.1-13.4,11.4-24.8,13.1
			c-21.5,3.3-40.9,6.7-59.4,14.1c-6.3,2.5-11.1,4.8-15.1,7.4c-7.8,5-9.9,12.2-6,20.7c5.6,12.4,10.9,22.1,16.7,30.6l0.5,0.7
			c7.4,10.8,15,22,20.2,34.2c2.9,6.8,7.3,10.4,13.9,11.4c4.7,0.7,8.7-0.7,12.7-2.3c15-6.2,29.6-12.5,41.9-18
			c11.9-5.2,16.9-14.9,20.3-23.6c3.4-8.9,6.6-15.9,10-22c4-7.2,11.8-11.1,22-11c17.1,0.3,32.1-3.6,45.9-11.8
			c5.8-3.4,11.9-6.6,17.8-9.7c5-2.6,10.2-5.3,15.1-8.1c4.7-2.7,7.1-7.1,7-12.7c-0.1-3.9-0.1-7.7,0-11.6c0-1.7,0-3.4,0-5.1
			c0-0.1,0-0.1,0-0.2c0,0,0,0,0,0c-0.5-2.2-1-4.5-1.5-6.7c-1-4.9-2.1-9.9-3.6-14.7c-3.7-11.9-8.3-24.5-16.5-35.3
			c-6.8-9.1-16.4-14.1-28.3-15c-16.3-1.2-31.8-4.5-50.1-9.1c-9.5-2.4-18.1-1-24.3,3.9c-7,5.6-10.3,15.3-8.5,25.2
			C346,294.7,347.5,303.8,347.5,313C347.5,312.9,347.5,312.9,347.5,313z"/>
		<path class="st1" d="M258.8,398.4c0-5.7,3.4-10.5,10.4-15c8.5-5.5,18.7-6.6,27.7-7.1c9-0.4,18.7-0.1,28.8,0.9
			c7.8,0.8,17.2,2.8,21.1,11.9c0.6,1.5,1.1,3.1,1.5,4.6c0.2,0.7,0.4,1.4,0.6,2.1c0,0.2,0,0.3,0,0.5c0,0.1,0,0.2,0,0.4
			c-0.3,1.9-0.6,3.8-0.8,5.7c-0.6,4.1-1.2,8.3-2.2,12.4c-5,19.5-21.8,28.5-45,24.1c-17.6-3.3-31.3-14.2-39.6-31.5
			C259.5,404.1,258.8,401.1,258.8,398.4z M346.7,396.2c-0.2-0.7-0.4-1.4-0.6-2.1c-0.4-1.5-0.8-3-1.4-4.4
			c-3.4-8.1-11.7-9.9-19.4-10.7c-9.9-1-19.5-1.3-28.4-0.9c-9.1,0.4-18.6,1.6-26.6,6.7c-9.6,6.2-11.8,12.5-7.4,21.6
			c8,16.7,21.2,27.3,38.1,30.4c21.9,4.1,37.9-4.4,42.6-22.8c1-4,1.6-8.2,2.2-12.2C346.1,400.1,346.3,398.2,346.7,396.2
			C346.7,396.2,346.7,396.2,346.7,396.2z"/>
		<path class="st1" d="M235,250.7c0-0.5,0-1,0-1.5c0.2-3.5,2.4-7,5.9-9.4c3.6-2.5,8.1-3.6,12.2-2.9c9.9,1.7,17.6,7.1,23.6,16.5
			c2.8,4.3,4.6,9.2,6.3,14c0.8,2.1,1.5,4.2,2.4,6.3c0.1,0.2,0.1,0.4,0,0.5c0,0.1,0,0.2,0,0.4c-0.3,1.4-0.4,2.9-0.6,4.4
			c-0.4,3.3-0.8,6.7-2.1,9.8c-2.6,6.1-7.3,10.1-13,10.8c-5.2,0.7-10.4-1.6-14.3-6.1c-0.8-0.9-1.4-1.9-1.9-2.9l-0.2-0.3
			c-1.7-3-3.4-5.9-5.1-8.9c-2.9-5.1-5.8-10.2-8.7-15.2C236.5,260.5,235,255.6,235,250.7z M283.5,274c-0.8-2.1-1.6-4.1-2.4-6.2
			c-1.7-4.6-3.4-9.4-6.1-13.6c-5.7-8.9-13-14-22.2-15.6c-3.5-0.6-7.4,0.4-10.5,2.5c-3.1,2.1-4.9,5.1-5.1,8.1
			c-0.3,5.1,1.1,10.1,4.4,15.8c2.9,5.1,5.9,10.2,8.8,15.3c1.7,3,3.4,5.9,5.1,8.9l0.2,0.3c0.5,0.9,1.1,1.9,1.7,2.6
			c3.4,4,7.9,6,12.4,5.4c4.9-0.6,9-4.1,11.3-9.6c1.2-2.9,1.6-6.2,2-9.3C283.1,277.1,283.2,275.6,283.5,274
			C283.5,274.1,283.5,274.1,283.5,274z"/>
		<path class="st1" d="M108.6,646.8c0-2,0.1-4,0.3-6.1c0.9-11,4.4-20.1,10.5-27.7c11.7-14.7,29.3-19.4,46.5-22.3
			c10.3-1.7,20.9-3.5,31.7-4.3c8.9-0.6,18.4-1,27.4,0.5c21.8,3.7,37,16.1,46.6,37.7c1.4,3.2,2.2,6.7,3,10c0.3,1.5,0.7,3.1,1.1,4.6
			c0,0.1,0,0.3,0,0.4c0,0.1,0,0.1,0,0.2c0,1.6,0,3.2,0,4.8c0,3.8,0,7.7,0.1,11.5c0.1,2.1-0.5,3.6-1.6,4.6c-1.1,0.9-2.7,1.3-4.9,1.2
			c-1.4-0.1-2.8-0.2-4.3-0.3c-2.8-0.2-5.7-0.5-8.5-0.5c-15.6-0.4-30.7,3.4-45.3,7.1l-3.2,0.8c-5,1.3-10.1,2.8-15,4.4
			c-5.3,1.6-10.7,3.3-16.2,4.7c-8.9,2.2-15.7,3.1-22,3c-10.9-0.2-21.7-3.5-33.1-10.1c-7-4.1-11.1-9-12.2-14.6
			C108.9,653.3,108.6,650.2,108.6,646.8z M273.6,639.6C273.6,639.6,273.6,639.6,273.6,639.6c-0.4-1.5-0.8-3.1-1.1-4.6
			c-0.7-3.3-1.5-6.6-2.9-9.7c-9.3-21-24.1-33-45.1-36.6c-8.7-1.5-18-1.1-26.8-0.5c-10.7,0.8-21.3,2.6-31.5,4.3
			c-16.8,2.8-34,7.4-45.2,21.6c-5.9,7.3-9.2,16.1-10.1,26.8c-0.5,5.7-0.3,10.7,0.5,15.1c1,5.1,4.7,9.5,11.3,13.4
			c11,6.5,21.5,9.7,32,9.8c6,0.1,12.6-0.8,21.4-3c5.4-1.3,10.8-3,16-4.6c4.9-1.5,10-3.1,15.1-4.4l3.2-0.8c14.8-3.7,30-7.6,46-7.2
			c2.9,0.1,5.8,0.3,8.6,0.5c1.4,0.1,2.8,0.2,4.2,0.3c1.6,0.1,2.7-0.1,3.4-0.7c0.7-0.6,1-1.6,1-3.2c-0.1-3.8-0.1-7.8-0.1-11.5
			c0-1.6,0-3.2,0-4.7C273.6,639.8,273.6,639.7,273.6,639.6z"/>
		<path class="st1" d="M513.5,262.7c0-4.6,2.8-8.5,7.9-10.8c12.8-5.8,25.2-2.2,33.4,1c5.8,2.3,11.5,5,17.1,7.6
			c3.8,1.8,7.8,3.7,11.7,5.4c2.2,0.9,4.5,1.7,6.8,2.4c2.8,0.9,5.8,1.8,8.4,3.1c11,5.5,17.8,13.9,20.3,25.1c0,0.1,0,0.3,0,0.4
			c0,0.1,0,0.3,0,0.4c0,3.7-1.5,7.1-4.7,10.1c-6.7,6.4-16.3,8.9-27.1,7c-26.6-4.6-47.8-15.3-63.3-31.7c-5.6-5.9-8.7-11.1-10.2-16.6
			C513.6,264.9,513.5,263.8,513.5,262.7z M617.1,296.9C617.1,296.9,617.1,296.8,617.1,296.9c-2.4-10.7-8.9-18.7-19.3-23.9
			c-2.5-1.2-5.4-2.1-8.1-3c-2.3-0.7-4.8-1.5-7-2.4c-4-1.7-7.9-3.6-11.8-5.4c-5.5-2.6-11.1-5.3-16.9-7.5c-12.5-4.8-22.5-5.1-31.6-1
			c-5.5,2.5-7.8,6.8-6.4,12.2c1.4,5.2,4.4,10.1,9.8,15.8c15.1,16.1,36,26.6,62.1,31.1c7.1,1.2,17.3,1.1,25.2-6.5
			c2.9-2.8,4.2-5.6,4.1-9.1C617.1,297,617.1,296.9,617.1,296.9z"/>
		<g>
			<path class="st1" d="M615.9,547.7c0-3.7,1.3-7.6,6.6-10.2c6.2-3.1,12.6-4,19-2.6c13.7,2.9,22.4,10.2,25.9,21.7c0,0.2,0,0.3,0,0.5
				c0,0.1,0,0.3,0,0.4c-0.1,0.4-0.2,0.8-0.3,1.1c-0.2,0.8-0.5,1.5-0.6,2.3c-1.1,6-6.9,11.9-14.4,14.6c-7.5,2.7-15.5,1.8-21.8-2.6
				c-7.8-5.4-12.6-12.7-14.1-21.7C616,550.1,615.9,548.9,615.9,547.7z M665.5,557c-3.3-10.7-11.6-17.6-24.4-20.4
				c-6-1.3-11.7-0.5-17.6,2.4c-4.7,2.3-6.2,5.9-5.2,11.9c1.4,8.6,5.9,15.5,13.3,20.5c7.8,5.4,15.7,3.7,19.8,2.3
				c6.9-2.5,12.2-7.8,13.2-13.2c0.2-0.9,0.4-1.7,0.7-2.5C665.2,557.7,665.4,557.4,665.5,557z"/>
		</g>
		<g>
			<path class="st1" d="M609.4,673.4c0-5.4,3.4-11.5,9-12.8c4.6-1.1,10-1.4,16.1-1c9.7,0.7,18.3,4.5,27.1,8.7
				c11.3,5.4,22.6,11.9,25.7,25.3c0,0.1,0,0.3,0,0.4c0,0.1,0,0.1,0,0.2l0,3.1c0,8.9-5.2,13.5-15.3,13.7c-9.4,0.2-18.3-1.6-26.5-3.5
				c-21.1-4.9-32.8-15.4-35.8-32C609.5,674.9,609.4,674.2,609.4,673.4z M685.2,694.1C685.2,694.1,685.2,694.1,685.2,694.1
				c-2.8-12.7-13.7-18.9-24.6-24.1c-8.9-4.3-17-7.8-26.3-8.5c-5.8-0.4-11-0.1-15.4,0.9c-5.2,1.2-8.2,7.9-7.3,12.9
				c2.9,16,13.8,25.7,34.3,30.5c8,1.9,16.7,3.6,25.9,3.5c9-0.1,13.2-3.9,13.3-11.9l0-2.4l0-0.7C685.2,694.2,685.2,694.2,685.2,694.1
				z"/>
		</g>
		<path class="st1" d="M132.4,633c0-1.8,0.2-3.5,0.6-5.3c3.1-12.4,11.1-19,27-22.1c13.3-2.6,27.2-1.3,42.5,3.9
			c6.3,2.1,13.9,5.6,16.9,13.8c0.1,0.2,0.1,0.3,0,0.5c0,0,0,0.1,0,0.1c1.2,7.4-2,13.9-9.4,18.8c-16.8,11.1-32.5,16.4-49.4,16.6
			c-8.3,0.1-15.9-3.2-21.3-9.2C134.8,645.2,132.4,639.1,132.4,633z M217.4,623.8c-2.2-5.8-6.9-9.6-15.6-12.6
			c-14.9-5-28.4-6.3-41.3-3.8c-15.1,2.9-22.5,8.9-25.4,20.7c-1.7,7.1,0.5,14.8,5.9,20.8c5.1,5.6,12.1,8.6,19.7,8.5
			c16.4-0.2,31.7-5.3,48.2-16.2c6.7-4.4,9.7-10.3,8.6-17.1C217.3,624,217.4,623.9,217.4,623.8z"/>
		<path class="st1" d="M139.2,111.2c0-10.8,1-20.3,3.1-29.2l0.5-2.3c2.1-8.9,4.2-18.1,8.9-26.5c4.2-7.5,10.6-11.1,19.7-11.1
			c12.1,0,21,4.9,26.4,14.7c2.1,3.8,3.5,7.9,4.8,11.9c0.6,1.8,1.2,3.6,1.8,5.3c0.1,0.2,0.1,0.3,0,0.5c0,0.1,0,0.1,0,0.2
			c1,15.8-2.8,29.9-11.4,43.2c-8.9,13.5-19.4,19.6-34,19.5c-11.3-0.1-19.3-7.2-19.7-17.8C139.3,116.7,139.2,113.9,139.2,111.2z
			 M202.6,74.5c-0.7-1.8-1.2-3.5-1.8-5.3c-1.3-3.9-2.6-7.9-4.7-11.6C191,48.6,182.7,44,171.5,44c-8.2,0-14.1,3.3-17.8,10.1
			c-4.6,8.2-6.7,17.3-8.7,26l-0.5,2.3c-2.6,11-3.5,22.8-2.9,37.1c0.4,9.7,7.4,15.9,17.7,16c13.8,0.1,23.8-5.7,32.2-18.6
			c8.5-12.9,12.1-26.7,11.1-42.1C202.5,74.7,202.6,74.6,202.6,74.5z"/>
		<g>
			<path class="st1" d="M645.9,416.7c0-2.4,1.2-4.8,3.6-6.9c1.3-1.2,2.9-2,4.5-2.9l0.6-0.3c9.3-5.1,19.7-4.7,28.7-3.9
				c8.5,0.8,13.9,4.4,15.7,10.6c0,0.2,0,0.3,0,0.4c0,0,0,0.1,0,0.1c0.5,3.3-0.7,6.2-3.7,8.7c-6.1,5.2-13.6,6.9-20.7,8.3
				c-10.2,1.9-18.7-0.8-26.1-8.4C646.8,420.7,645.9,418.7,645.9,416.7z M697,413.8c-1.6-5.4-6.3-8.5-13.9-9.2
				c-8.7-0.8-18.7-1.2-27.4,3.6l-0.6,0.3c-1.5,0.8-3,1.6-4.1,2.6c-3.6,3.1-3.9,7-0.9,10.1c7,7.1,14.7,9.6,24.2,7.8
				c6.9-1.3,14-2.9,19.7-7.8c2.5-2.1,3.5-4.4,3.1-7.2C697,414,697,413.9,697,413.8z"/>
		</g>
		<g>
			<path class="st1" d="M618.8-22.8c0-2.5,1.2-4.9,3.5-7.2c12.9-12.3,25.1-20.4,38.4-25.5c12.6-4.8,24-3.7,34.1,3.3
				c8.4,5.9,14,13.2,17,22.5c0.1,0.2,0.1,0.3,0,0.5c0,0.1,0,0.1,0,0.2c0.4,6.1,0.3,12.5-5.8,17.4c-2.2,1.8-4.4,3.6-6.6,5.5
				c-5.4,4.5-10.9,9.1-16.6,13.4c-9.9,7.5-18.2,7.8-28.8,1l-1.2-0.8c-6.2-4-12.5-8.1-18.5-12.5c-4.3-3.2-8.5-6.9-12.5-11.1
				C619.8-18.2,618.8-20.5,618.8-22.8z M709.9-29.2c-2.9-8.9-8.3-16-16.3-21.6c-9.4-6.6-20.2-7.6-32-3.1c-13,5-25,13-37.7,25.1
				c-3.7,3.6-3.9,7.7-0.4,11.4c3.8,4.1,7.9,7.7,12.2,10.9C641.5-2.1,647.8,2,654,6l1.2,0.8c9.8,6.3,17.2,6.1,26.3-0.9
				c5.7-4.3,11.2-8.9,16.6-13.3c2.2-1.8,4.4-3.7,6.6-5.5c5.4-4.4,5.5-10.3,5.1-16C709.8-29,709.8-29.1,709.9-29.2z"/>
		</g>
		<path class="st1" d="M119.5,198.3c0-6.2,3.1-11.3,9-14.8c6.1-3.6,12.8-5.2,18.6-6.4c17.3-3.4,31.4,3.5,36.8,18.3
			c0.1,0.2,0.1,0.3,0,0.5c0.1,0.4,0.1,0.9,0.1,1.3c0.1,0.9,0.1,1.8-0.1,2.6c-3.7,14.1-15.3,24-31.9,27c-11.8,2.1-21.5-1.7-26.6-10.6
			c-2.7-4.8-4.6-9.7-5.5-14.3C119.6,200.6,119.5,199.4,119.5,198.3z M181.9,195.8c-5-13.7-18.1-20.2-34.3-17
			c-5.6,1.1-12.1,2.7-17.9,6.1c-6.4,3.8-9.1,9.5-7.8,16.6c0.8,4.4,2.6,9.2,5.3,13.8c4.7,8.2,13.4,11.6,24.4,9.6
			c15.8-2.9,26.8-12.2,30.3-25.6c0.2-0.6,0.1-1.4,0.1-2.1C181.8,196.7,181.7,196.2,181.9,195.8z"/>
		<path class="st1" d="M79,534c0-3.6,2.2-7.2,6.1-9.9c4-2.8,9.2-5.1,14.6-6.3c13.7-3.2,27.8-5.8,40-8c6.9-1.2,13.9-2.5,20.9-2.5
			c8.2,0,18.4,3,20.3,11.5c0,0.1,0,0.3,0,0.4c0,0.1,0,0.2,0,0.3c0,7.6-5.9,11.2-11.9,14.4c-9.1,4.8-19.2,7.4-28.9,9.8
			c-11.8,2.9-24.5,5.7-37.9,4.7c-5.1-0.4-10-1.5-14.1-3.2c-5.2-2.2-8.6-5.8-9.1-10C79.1,534.8,79,534.4,79,534z M178.9,519.2
			C178.9,519.2,178.9,519.2,178.9,519.2c-1.7-7.5-10.9-10.1-18.2-10.1c-6.8,0-13.7,1.3-20.5,2.5c-12.2,2.2-26.3,4.8-39.9,8
			c-5.1,1.2-10,3.3-13.9,6c-3.8,2.6-5.7,6.1-5.2,9.4c0.5,3.5,3.3,6.6,7.9,8.5c3.9,1.6,8.6,2.7,13.4,3c13,0.9,25.5-1.8,37.2-4.6
			c9.9-2.4,19.5-5,28.4-9.6c5.7-3,10.8-6.2,10.8-12.8c0,0,0,0,0,0v0C178.9,519.4,178.9,519.3,178.9,519.2z"/>
		<path class="st1" d="M163.6,101.2c0-4.3,2.4-10.1,6-11.8c1.5-0.7,4.2-0.3,5.4,0.5c1.1,0.7,1.6,1.9,2.2,2.9
			c0.2,0.4,0.4,0.8,0.6,1.2c0.1,0.2,0.2,0.4,0.1,0.7c0.1,0.2,0,0.4-0.1,0.6c-0.5,1-0.9,2-1.4,3c-1.1,2.4-2.1,4.9-3.8,7.1
			c-1,1.3-2.5,1.9-4.2,1.7c-1.9-0.2-3.7-1.4-4.4-3.1C163.8,103.3,163.6,102.3,163.6,101.2z M175.9,94.8c-0.2-0.4-0.4-0.7-0.6-1.1
			c-0.5-0.9-0.9-1.8-1.6-2.2c-0.7-0.5-2.5-0.7-3.2-0.4c-3.2,1.5-5.9,9.1-4.5,12.4c0.4,1,1.5,1.8,2.7,1.9c0.5,0.1,1.5,0,2.2-0.9
			c1.5-2,2.5-4.3,3.6-6.7C175,96.7,175.4,95.7,175.9,94.8z"/>
		<g>
			<path class="st1" d="M677.1,190.1c0-1.6,0.6-3.3,1.8-5c4.7-7.1,11.7-12.6,22.1-17.5c1.8-0.8,3.8-1.3,5.7-1.8l0.4-0.1
				c7.8-1.9,13.5,0.1,16.5,5.8c0.1,0.2,0.1,0.4,0.1,0.6c0,0.1,0,0.3,0,0.4c-0.2,0.7-0.3,1.5-0.3,2.2c-0.2,1.7-0.5,3.5-1.3,5
				c-4.6,8.4-11.8,14.8-21.6,18.9c-6.4,2.7-12.6,2.3-18.3-1.4C678.8,195.1,677.1,192.7,677.1,190.1z M721.7,172.1
				c-2.5-4.7-7.2-6.2-14-4.6l-0.4,0.1c-1.8,0.4-3.7,0.9-5.3,1.6c-10,4.7-16.8,10-21.3,16.8c-2.6,3.9-1.8,6.9,2.6,9.8
				c5.1,3.3,10.4,3.7,16.2,1.2c9.3-4,16.3-10,20.6-18.1c0.7-1.3,0.9-2.8,1.1-4.4C721.4,173.7,721.5,172.9,721.7,172.1
				C721.7,172.1,721.7,172.1,721.7,172.1z"/>
		</g>
		<path class="st1" d="M472.5,525.7c0-3.3,1.1-6.5,3.3-9.3c4.6-5.7,11.9-8,19.7-6.1c8.7,2.2,17.4,4.9,25.8,7.6l3.9,1.2
			c6.3,2,12.2,3.9,18.6,2.1l0.9-0.3c4.5-1.3,9.1-2.6,13.2-4.5c2.7-1.3,5.4-2.6,8.1-3.9c13.7-6.6,28-13.5,40.2-22.7
			c13.5-10.1,28.7-12.6,45.4-7.6c8.5,2.6,15.9,5.2,22.8,8c9.6,3.9,16.2,3.2,22.7-2.4c5.2-4.5,12.6-5.1,19.3-1.5
			c4.1,2.2,7.8,5.2,10.6,7.6c5.2,4.5,7.2,10.5,8.7,16.2c0,0.2,0,0.3,0,0.4c0,0.1,0,0.2,0,0.3c-0.2,3.2-1.4,5.7-3.6,7.4
			c-2.2,1.7-5.3,2.5-8.9,2.3c-5.8-0.3-11-2.1-16-3.8c-1-0.3-2-0.7-3.1-1c-1.4-0.5-3.8-0.3-4.8,0.4c-0.7,0.5-1.3,2.4-1.1,3.8
			c0.2,1.7,0.8,3.3,1.4,5c0.3,0.9,0.6,1.8,0.9,2.8c5.4,18.7,2.8,32.9-8.2,44.7c-5.8,6.2-12.2,12.8-19.4,18.5
			c-7.8,6.1-16.3,9.1-25.3,8.8c-9.9-0.3-19.3-3.6-28.6-10.1c-7.7-5.3-14.5-11.5-21.9-18.4c-10.7-10-24-17.5-40.6-22.7
			c-10.4-3.3-19.4-4.1-28.1-2.6c-11.9,2.1-21.8,3-32,0.9c-8.4-1.8-16.9-4.1-21.4-11.9C473.4,531.7,472.5,528.6,472.5,525.7z
			 M733.6,510.4C733.6,510.4,733.6,510.4,733.6,510.4c-1.5-5.5-3.3-11.1-8.2-15.3c-2.7-2.3-6.2-5.2-10.2-7.3
			c-5.9-3.1-12.3-2.6-16.8,1.2c-7.1,6.2-14.6,7-25,2.7c-6.8-2.8-14.2-5.3-22.6-7.9c-15.9-4.8-30.5-2.4-43.4,7.3
			c-12.4,9.3-26.7,16.2-40.6,22.9c-2.7,1.3-5.4,2.6-8,3.9c-4.2,2.1-9,3.4-13.6,4.7l-0.9,0.3c-7.1,2-13.6-0.1-19.9-2.1l-3.9-1.2
			c-8.4-2.6-17-5.4-25.7-7.5c-6.9-1.7-13.4,0.3-17.4,5.4c-3.7,4.7-3.9,10.6-0.5,16.5c4.1,7.1,12.1,9.3,20,10.9
			c9.8,2.1,19.5,1.1,31.1-0.9c9.2-1.6,18.4-0.8,29.2,2.6c16.9,5.3,30.4,12.9,41.4,23.1c7.4,6.9,14.1,13,21.7,18.3
			c8.9,6.2,17.9,9.4,27.4,9.7c8.5,0.3,16.3-2.4,23.8-8.3c7.1-5.6,13.5-12.1,19.2-18.3c10.5-11.3,13-25,7.8-43.1
			c-0.3-0.9-0.6-1.8-0.9-2.7c-0.6-1.7-1.2-3.5-1.5-5.4c-0.2-1.6,0.2-4.4,1.9-5.5c1.8-1.2,4.9-1.2,6.7-0.6c1,0.3,2.1,0.7,3.1,1
			c5.1,1.8,10,3.4,15.4,3.7c3.1,0.2,5.6-0.5,7.4-1.9c1.7-1.4,2.7-3.5,2.9-6.2C733.5,510.5,733.5,510.5,733.6,510.4z"/>
		<path class="st1" d="M339.5,203c0-1.5,0.7-3.2,2-4.8c3-3.7,5.7-6.2,8.6-8.1c4.7-3,9.5-5.8,14.2-8.5c3.5-2,6.9-4,10.4-6.1
			c15.8-9.7,34.7-15.1,57.8-16.5c11-0.7,22.2-1.9,33.5-3.5c13.7-2,18,0.1,21.9,10.8c0.1,0.2,0.1,0.3,0,0.5c0,0.1,0,0.2,0,0.3
			c-0.1,1.4-0.2,2.7-0.2,4.1c-0.2,3-0.3,6.1-0.8,9.1c-1.5,9-6,16.9-13.2,22.9c-9.5,8-21.4,13.2-32.8,17.8c-7.9,3.2-14.6,4.8-21.1,5
			c-10.8,0.4-20.3-3.3-28.6-6.6c-11.9-4.7-22.2-7.1-32.2-7.6c-4.7-0.2-9.3-1.4-13.6-2.6c-3-0.9-4.9-2.4-5.7-4.4
			C339.6,204.2,339.5,203.6,339.5,203z M485.8,166.8c-3.6-9.8-6.9-11.4-19.6-9.5c-11.3,1.7-22.6,2.9-33.6,3.5
			c-22.7,1.4-41.2,6.7-56.7,16.2c-3.4,2.1-6.9,4.1-10.4,6.1c-4.7,2.7-9.5,5.5-14.2,8.5c-2.7,1.7-5.3,4.2-8.1,7.7
			c-1.5,1.8-2,3.5-1.4,4.9c0.5,1.4,2,2.5,4.3,3.2c4.1,1.2,8.6,2.3,13,2.6c10.3,0.5,20.7,2.9,32.9,7.7c8.2,3.2,17.4,6.9,27.7,6.5
			c6.2-0.2,12.7-1.8,20.3-4.9c11.2-4.5,22.9-9.6,32.2-17.4c6.8-5.7,11.1-13.3,12.5-21.8c0.5-2.9,0.6-6,0.8-9
			c0.1-1.4,0.1-2.8,0.2-4.1C485.8,166.9,485.8,166.9,485.8,166.8z"/>
		<path class="st1" d="M359.6,327.3c0-5.7,0.2-11.5,0.5-17.1c0.1-3.5,0.3-7,0.4-10.4c0-1.6,0-3.2,0-4.9c-0.1-2.5-0.1-5,0.1-7.5
			c1-11.3,7.3-16.9,18.8-16.6c13,0.4,26.4,1.3,40,2.6c11.5,1.2,20.4,5.4,26.3,12.6c5.4,6.6,8,14.4,9.5,20.5c1,3.7,1.6,7.6,2.2,11.3
			c0.3,1.7,0.5,3.4,0.9,5c0,0.1,0,0.3,0,0.4c0,0.1,0,0.2,0,0.3c-0.2,1.4-0.2,2.8-0.3,4.3c-0.2,3.1-0.4,6.4-1.3,9.5
			c-4.8,17.7-18.3,29.5-42.5,37.1c-2.1,0.7-4.3,0.8-6.5,0.9c-10.3,0.7-19.2-2.6-26.8-5.8c-9.2-3.8-15.5-10.3-18.1-18.6
			c-1.8-5.9-2.9-12.4-3-19.5C359.6,330,359.6,328.6,359.6,327.3z M362.5,298.2c0,0.5,0,1.1,0,1.6c-0.1,3.5-0.2,7-0.4,10.4
			c-0.3,6.9-0.6,14.1-0.4,21.1c0.2,6.9,1.2,13.3,3,19.1c2.5,7.8,8.3,13.9,17,17.5c9.1,3.8,17,6.2,25.6,5.6c2.2-0.1,4.3-0.3,6.1-0.9
			c23.5-7.4,36.6-18.8,41.2-35.8c0.8-2.9,1-6.1,1.2-9.1c0.1-1.4,0.2-2.9,0.3-4.3c0,0,0-0.1,0-0.1c0,0,0,0,0-0.1
			c-0.3-1.7-0.6-3.4-0.9-5.1c-0.6-3.7-1.2-7.5-2.2-11.1c-1.5-5.9-4-13.6-9.2-19.8c-5.6-6.8-14-10.8-24.9-11.9
			c-13.6-1.4-27-2.3-39.9-2.6c-10.4-0.3-15.7,4.4-16.6,14.9c-0.2,2.4-0.2,4.9-0.1,7.3C362.5,295.9,362.5,297,362.5,298.2z"/>
		<path class="st1" d="M451.4,544.7c0-10.5,0.3-19.7,1-28c0.4-4.5,1.8-8.9,3.2-13.1l0.2-0.7c2.5-7.6,10.2-12.4,18.8-11.6l0.6,0.1
			c6.6,0.6,13.5,1.2,20.2,2.2c3.5,0.5,7,1.3,10.4,2c5.1,1.1,10.4,2.2,15.7,2.6c14.4,1.2,29-1.6,45.9-8.5c9.3-3.8,18.4-9.4,28.8-17.5
			c13.6-10.6,28.3-13.9,44.9-10c4.3,1,8.9,1.3,13.4,1.5c1.5,0.1,3.1,0.2,4.6,0.3c9.2,0.7,18.1-1.6,26.7-3.9l2-0.5
			c7.7-2,16-3.6,24.7-2.1c13.6,2.4,22.3,11.1,27.7,17.5c14.1,16.7,24.5,35.3,30.9,55.2c0.1,0.2,0.1,0.3,0,0.5c0,0.1,0,0.1,0,0.2l0,1
			c0,0.7,0,1.4,0,2c0.9,9.7-3.9,16.3-14,19.4c-1.5,0.4-2.9,0.9-4.3,1.4c-2.6,0.9-5.3,1.9-8.2,2.4c-9.1,1.9-16.9,6.4-25.1,14.7
			l-2.7,2.8c-10.1,10.2-20.6,20.7-31.4,30.6c-7.4,6.7-16.7,10.1-27.8,10.1c-12.4,0-24.7-3.5-36.5-10.5c-9.2-5.4-18.1-11.5-26.7-17.5
			c-2.3-1.6-4.7-3.2-7-4.9c-10.2-7-19-12.5-30.2-14.2c-11.5-1.8-21.1-3.1-30-3.9c-5.3-0.5-10.7-0.9-15.9-1.2
			c-6.6-0.4-13.4-0.9-20.1-1.6c-8.8-1-17.5-2.8-26-4.6l-3.2-0.7C455,554.9,451.3,550.7,451.4,544.7z M769.1,530.6
			c-6.3-19.6-16.6-38-30.5-54.5c-8.2-9.8-16.6-15.1-26.4-16.8c-8.2-1.4-16.2,0.2-23.7,2.1l-2,0.5c-8.8,2.3-17.9,4.7-27.5,3.9
			c-1.5-0.1-3-0.2-4.6-0.3c-4.6-0.3-9.3-0.5-13.8-1.6c-15.9-3.8-30-0.6-43.1,9.6c-10.5,8.2-19.9,13.9-29.3,17.8
			c-17,7-32.3,9.9-46.9,8.7c-5.4-0.4-10.8-1.6-16-2.6c-3.4-0.7-6.9-1.4-10.3-2c-6.6-1-13.4-1.6-20-2.2l-0.6-0.1
			c-7.6-0.7-14.4,3.6-16.6,10.3l-0.2,0.7c-1.4,4.2-2.8,8.5-3.1,12.8c-0.7,8.3-1,17.4-1,27.9c0,5.2,3,8.6,9,9.8l3.2,0.7
			c8.4,1.7,17.1,3.5,25.8,4.5c6.6,0.8,13.4,1.2,20,1.6c5.3,0.3,10.7,0.7,16,1.2c9,0.9,18.6,2.1,30.2,3.9c12.6,2,22.9,9,31.1,14.6
			c2.4,1.6,4.7,3.2,7.1,4.9c8.5,5.9,17.4,12,26.5,17.4c11.6,6.8,23.2,10.2,35.4,10.2c10.5,0,19.3-3.2,26.3-9.6
			c10.8-9.9,21.2-20.4,31.3-30.5l2.7-2.8c8.6-8.6,16.7-13.3,26.2-15.3c2.7-0.5,5.3-1.5,7.9-2.4c1.5-0.5,2.9-1,4.4-1.5
			c9.3-2.9,13.4-8.6,12.6-17.5c-0.1-0.7-0.1-1.5,0-2.2l0-0.9C769.1,530.8,769.1,530.7,769.1,530.6z"/>
		<path class="st1" d="M203.4,260c0-4.7,1.1-9.4,3.3-14.2c2.6-5.5,6.3-11.2,11.4-17.3c9.1-10.9,20.9-16.2,35.3-15.9
			c7,0.2,14.4,0.2,22.6,0c7-0.2,12.1-1.5,16.2-4.2c6.4-4.3,11.4-7.9,15.7-11.4c7.4-5.9,16.4-12.5,27.4-17.3c2.9-1.2,5.8-2.5,8.7-3.7
			c8.5-3.6,17.3-7.3,25.7-11.3c13.4-6.4,26.6-12.5,41.8-15.5c1.8-0.3,3.5-0.7,5.3-1c10.5-2,21.4-4.1,30.9-9
			c3.8-1.9,7.5-4.2,11.1-6.3c2.8-1.7,5.7-3.4,8.7-5c12.3-6.7,24.8-7,36-0.8c17.7,9.8,25.9,27.2,21.4,45.2l-0.3,1.1
			c-2,7.8-4,15.8-2.3,24c1.1,5.6,3,11.1,9.4,13.7c5.6,2.4,11.4,4.3,17.1,5.7c2.2,0.5,4.3,1,6.5,1.5c9.2,2,18.6,4,26.4,9.8
			c3.8,2.8,7.6,5.9,11.2,8.8c2.2,1.8,4.4,3.5,6.6,5.3c10.5,8.2,21.4,16.8,30.9,26.8c7.9,8.4,16,16.2,27.5,19
			c10.1,2.4,19.6,3.9,28.4,4.3c7.5,0.4,15.2,0.3,22.6,0.2c6.7-0.1,13.5-0.1,20.3,0.1c8.4,0.3,16.1,1.5,22.9,3.6
			c9.7,2.9,19.1,7,22.9,16.6c0.1,0.2,0.1,0.4,0,0.5c0,0.1,0,0.2,0,0.3c-0.3,5.5-4.8,7.9-8.9,10c-0.5,0.3-1,0.5-1.5,0.8
			c-3,1.6-6,3.1-9,4.7c-2.4,1.2-4.9,2.5-7.3,3.7l-5.6,3c-15.1,8-30.7,16.4-47.3,22.6c-12.9,4.8-24.4,5.9-35.2,3.4
			c-5.2-1.3-10.8-3.6-17.5-7.5c-11.3-6.5-22.6-9.4-34.5-9c-3.8,0.1-7.7,0.1-11.5,0.1c-3.1,0-6.2-0.1-9.3,0
			c-9.2,0.2-18.2-2.4-26.7-7.8c-24.6-15.4-43.3-29.7-58.9-44.9c-4.3-4.2-8.2-8.8-11.4-13.8c-4.1-6.1-7.9-12.5-11.5-18.6
			c-1.4-2.4-2.9-4.8-4.4-7.3c-5.1-8.4-11.4-12.8-20.5-14.2c-5.1-0.8-10-0.3-14.9,0.1c-2.5,0.2-5.1,0.5-7.7,0.5
			c-1.5,0-3.1,0.1-4.6,0.2c-4.8,0.2-9.7,0.5-14.3-0.4c-8.7-1.7-17-4.6-24.9-7.4c-7.9-2.9-16.5-5.5-25.7-5
			c-8.7,0.4-17.4,2.3-25.8,5.5c-14.8,5.6-22.6,14-23.9,25.7c-0.8,7.4-1.2,14.9-1.6,22.2c-0.2,3.1-0.3,6.3-0.5,9.4
			c-0.4,7.2-2.6,12.9-6.6,17.6c-7,8.2-16.7,14.2-29.6,18.2c-5.7,1.8-11.3,3.4-16.6,3c-11.3-0.8-19.9-6-25.6-15.6
			c-5.5-9.2-12.9-21.3-21.2-32.9C205.8,273.6,203.4,266.8,203.4,260z M524.1,162.8c0-13.8-7.8-26.3-21.6-33.9
			c-10.5-5.8-22.2-5.6-33.8,0.8c-2.9,1.6-5.8,3.3-8.6,5c-3.6,2.2-7.4,4.4-11.2,6.4c-9.8,5-20.8,7.1-31.5,9.2c-1.8,0.3-3.5,0.7-5.3,1
			c-14.9,2.9-28,8.9-41.2,15.3c-8.4,4.1-17.3,7.8-25.8,11.4c-2.9,1.2-5.8,2.4-8.7,3.7c-10.8,4.6-19.7,11.2-26.9,17
			c-4.4,3.5-9.4,7.2-15.8,11.5c-4.4,2.9-9.9,4.4-17.3,4.6c-8.3,0.2-15.8,0.2-22.8,0c-13.6-0.4-24.9,4.7-33.6,15.1
			c-5,6-8.7,11.6-11.2,16.9c-5.3,11.3-4.1,21.9,3.6,32.6c8.4,11.6,15.8,23.7,21.3,33c5.4,9,13.4,13.9,24,14.6
			c5,0.3,10.3-1.2,15.8-2.9c12.5-3.9,21.9-9.7,28.7-17.6c3.8-4.4,5.8-9.8,6.2-16.6c0.2-3.1,0.3-6.3,0.5-9.4
			c0.4-7.3,0.7-14.9,1.6-22.3c1.4-12.4,9.6-21.3,25.2-27.2c8.7-3.3,17.6-5.2,26.5-5.6c9.6-0.5,18.5,2.2,26.6,5.1
			c7.7,2.8,16,5.7,24.5,7.3c4.4,0.8,9.1,0.6,13.7,0.4c1.6-0.1,3.1-0.2,4.7-0.2c2.5-0.1,5.1-0.3,7.5-0.5c5-0.5,10.1-0.9,15.4-0.1
			c9.7,1.5,16.5,6.2,21.9,15.2c1.5,2.4,2.9,4.8,4.4,7.3c3.7,6.1,7.5,12.5,11.5,18.6c3.2,4.8,7,9.3,11.2,13.5
			c15.5,15.1,34.1,29.3,58.6,44.6c8.1,5.1,16.7,7.6,25.5,7.4c3.1-0.1,6.2,0,9.3,0c3.7,0,7.6,0.1,11.4-0.1c12.4-0.4,24,2.6,35.7,9.3
			c6.5,3.7,11.9,6.1,17,7.3c10.3,2.5,21.3,1.4,33.8-3.3c16.5-6.2,32-14.4,47-22.4l5.6-3c2.4-1.3,4.9-2.5,7.3-3.7c3-1.5,6-3,9-4.6
			c0.5-0.3,1-0.5,1.5-0.8c3.9-2,7.6-4,7.9-8.5c0-0.1,0-0.1,0-0.2c-3.7-9.3-13.1-12.8-21.6-15.4c-6.6-2-14.2-3.2-22.3-3.5
			c-6.7-0.3-13.6-0.2-20.2-0.1c-7.5,0.1-15.2,0.2-22.7-0.2c-8.9-0.5-18.6-1.9-28.8-4.4c-12.1-2.9-20.4-10.9-28.5-19.6
			c-9.3-9.9-20.2-18.4-30.6-26.6c-2.2-1.7-4.4-3.5-6.6-5.3c-3.6-2.9-7.4-5.9-11.2-8.7c-7.4-5.5-16.2-7.4-25.5-9.4
			c-2.2-0.5-4.4-1-6.6-1.5c-5.8-1.4-11.7-3.3-17.4-5.8c-7.2-3-9.4-9.3-10.5-15.1c-1.7-8.5,0.3-16.8,2.3-24.7l0.3-1.1
			C523.7,169,524.1,165.8,524.1,162.8z"/>
		<g>
			<path class="st1" d="M636.2,180.4c0-0.1,0-0.1,0-0.2c0-5.6,4.9-10.4,12.2-12.2c13.6-3.4,26.9-9.8,41.6-20.1
				c15.3-10.7,33.6-15.2,54.5-13.3c8.9,0.8,16.5,3.9,22.5,9.3c5.8,5.2,7.9,11.5,9.1,16.4c0,0.1,0,0.3,0,0.4c0,0.1,0,0.1,0,0.2
				c0,8.7-4,16.2-11.8,22.2c-3.4,2.6-7.1,5.1-10.7,7.4c-2.5,1.6-5,3.3-7.5,5c-4,2.8-7.9,5.7-11.9,8.6c-6.3,4.6-12.7,9.3-19.3,13.7
				c-14.6,9.7-28,11.1-41,4.1c-2.8-1.5-5.5-3.2-8-4.9l-2.3-1.6c-8.2-5.7-16.6-11.5-22-19.8C639.6,192.4,636.2,186.3,636.2,180.4z
				 M774,160.7C774,160.6,774,160.6,774,160.7c-1.7-7-4.2-11.6-8.5-15.5c-5.6-5-12.8-8-21.2-8.7c-20.3-1.8-38.2,2.5-53,12.9
				c-15,10.5-28.4,17-42.3,20.4c-4.9,1.2-10.7,4.7-10.7,10.5c0,0,0,0.1,0,0.1c0,4.1,1.8,9.2,5.1,14.2c5.1,8,13.4,13.7,21.4,19.3
				l2.3,1.6c2.4,1.7,5,3.3,7.8,4.8c12.4,6.7,24.7,5.4,38.7-4c6.6-4.4,13-9.1,19.2-13.7c4-2.9,7.9-5.8,11.9-8.6
				c2.5-1.7,5-3.4,7.5-5.1c3.6-2.3,7.2-4.7,10.6-7.3c7.3-5.6,11-12.6,11.1-20.8C774,160.8,774,160.7,774,160.7z"/>
		</g>
		<path class="st1" d="M391.3,192.6c0-0.1,0-0.2,0-0.3c0.1-2.9,2-5.9,5.1-7.9c8.2-5.4,16.1-7.6,24.3-6.8c6.8,0.7,15.4,1.5,18.6,9.8
			c0.1,0.2,0.1,0.4,0,0.5c0,0.2,0,0.3,0,0.5c-0.3,0.8-0.4,1.6-0.6,2.4c-0.4,1.8-0.9,3.7-2.1,5.3c-4.7,6.1-11.1,9.9-18.5,10.7
			c-7.7,0.9-15.9-1.5-22.4-6.5C392.1,197.4,391.3,194.6,391.3,192.6z M437.5,187.9c-2.9-7.1-10-7.8-16.9-8.5
			c-7.7-0.8-15.2,1.3-22.9,6.4c-2.6,1.7-4.2,4.2-4.3,6.5c-0.1,2.3,1.2,4.5,3.8,6.5c6.1,4.7,13.6,6.9,20.8,6.1
			c6.9-0.8,12.8-4.2,17.1-9.9c1-1.3,1.3-2.9,1.8-4.6C437,189.5,437.2,188.7,437.5,187.9z"/>
		<g>
			<path class="st1" d="M-8,93.5c0-2.8,1.7-7.3,12.6-8.2c9.1-0.7,18.5,0.8,29.6,5c12.9,4.8,20.4,13,22.4,24.3c0.3,2,0.8,4,1.3,5.9
				c0.2,0.9,0.4,1.9,0.7,2.8c0,0.1,0,0.3,0,0.4c0,0.1,0,0.2,0,0.3c-0.1,2.4-0.2,4.8-0.2,7.2c-0.1,5.6-0.3,11.3-0.9,17
				c-0.6,5.3-1.8,11.5-6.5,16.3c-1.7,1.8-3.6,2.6-5.5,2.6c-1.8-0.1-3.5-1-4.9-2.7c-1.7-2-3-3.9-4-5.8c-6.3-11.5-13.3-21.7-21.6-31.1
				c-7.1-8.1-13.9-16.4-20.2-24.7c-2-2.7-2.6-6.5-2.6-9.2C-8,93.6-8,93.5-8,93.5z M56.5,123.7C56.5,123.7,56.5,123.7,56.5,123.7
				c-0.2-1-0.4-1.9-0.7-2.9c-0.5-2-0.9-4-1.3-6c-1.9-10.7-9-18.4-21.2-22.9c-10.7-4-19.8-5.5-28.6-4.8C0.7,87.4-6.1,88.8-6,93.6
				c0.1,2.5,0.5,5.9,2.3,8.2c6.2,8.3,13,16.5,20.1,24.6c8.3,9.5,15.5,19.7,21.8,31.4c1,1.8,2.2,3.6,3.8,5.6c1,1.2,2.2,1.9,3.3,1.9
				c1.3,0,2.6-0.6,3.9-1.9c4.3-4.5,5.5-10.3,6-15.3c0.6-5.6,0.7-11.3,0.9-16.8c0.1-2.4,0.1-4.8,0.2-7.3
				C56.5,123.9,56.5,123.8,56.5,123.7z"/>
		</g>
		<g>
			<path class="st1" d="M-45.3,410c0-1.4,0.1-2.7,0.2-4c1.5-17.5,12.4-26.3,31.6-25.4c4.9,0.2,10.3,1.1,16.5,2.6
				c17.5,4.4,36.6,10.8,41.7,31.8c0,0.1,0,0.3,0,0.4c0,0.1,0,0.1,0,0.2c0.3,6.9-1.7,12.1-6.2,16.1c-6.7,6-15.2,7.1-23.4,7.6
				C5,440.1-5.8,439-18.7,435.8c-9.1-2.2-17.7-4.8-22.9-12.6C-44.5,418.9-45.3,414.3-45.3,410z M42.7,415.5
				C42.7,415.5,42.7,415.5,42.7,415.5c-4.4-18-19.3-25.2-40.3-30.5c-6-1.5-11.3-2.3-16-2.6c-17.9-0.9-28.1,7.3-29.5,23.7
				c-0.4,5-0.4,10.9,3.2,16.2c4.8,7.2,13,9.6,21.7,11.8c12.7,3.1,23.2,4.2,33.2,3.5c7.8-0.5,15.9-1.5,22.1-7.1
				c4.1-3.7,5.8-8.2,5.6-14.7C42.6,415.7,42.7,415.6,42.7,415.5z"/>
		</g>
		<g>
			<path class="st1" d="M765.8-77.4c0-3.8,1.3-7.5,3.9-11c3.7-5,9.2-8.4,17.8-10.9c5.5-1.6,10.6-1.4,15.6,0.9
				c6.3,2.8,9.3,7.9,12.2,12.8l0.5,0.9c1.8,3.1,3.6,6.2,5.3,9.3c2.7,4.9,5.5,10,8.7,14.8c1.5,2.3,3.2,4.5,4.8,6.7
				c4.2,5.6,8.5,11.3,10.5,18.2c0,0.1,0,0.3,0,0.4c0,0.1,0,0.1,0,0.2C845.3-21.2,838-11,823.2-5c-9.9,4-18.8,3.5-26.7-1.6
				c-5.5-3.6-9.2-8.6-11-14.7c-4.6-15.6-9.7-32.2-17.7-48.2C766.5-72.1,765.8-74.7,765.8-77.4z M843.1-35.3
				c-1.9-6.6-6.1-12.2-10.2-17.7c-1.6-2.2-3.3-4.5-4.9-6.8c-3.2-4.8-6-9.9-8.8-14.9c-1.7-3-3.4-6.2-5.2-9.2l-0.5-0.9
				c-2.9-4.9-5.6-9.5-11.3-12c-4.5-2-9.1-2.3-14-0.8c-8.1,2.4-13.3,5.6-16.7,10.2c-4,5.3-4.6,11.4-1.8,17.1
				c8.1,16.2,13.5,33.5,17.9,48.5c1.7,5.7,5.1,10.3,10.3,13.7c7.2,4.7,15.5,5.2,24.6,1.5c14-5.7,21-15.3,20.7-28.5
				C843.1-35.1,843.1-35.2,843.1-35.3z"/>
		</g>
		<g>
			<path class="st1" d="M-13.7,407.8c0-0.5,0.1-1,0.2-1.4c0.6-1.9,2.4-3.4,5-4.2c7.2-2.2,16.3,1.3,19.5,7.5c0.1,0.2,0.1,0.4,0.1,0.6
				c0,0.1,0,0.1,0,0.2c0.1,2.3-0.1,4.6-3.6,5.8c-5.6,1.8-15.9-0.5-19.4-4.3C-13.1,410.6-13.7,409.2-13.7,407.8z M9.1,410.3
				c-2.8-5.2-10.9-8.3-16.9-6.4c-2,0.6-3.3,1.7-3.7,3c-0.4,1.2,0,2.6,1.2,3.9c3,3.3,12.3,5.3,17.1,3.7c2.1-0.7,2.4-1.7,2.3-4
				C9.1,410.4,9.1,410.3,9.1,410.3z"/>
		</g>
		<g>
			<path class="st1" d="M745.5-82.2c0-6.3,3-12.1,9-17.3c7.9-6.8,17-12.4,28-17.2c14.6-6.3,25.9-4.5,36.7,5.8
				c5,4.8,7.9,10.6,10.7,16.3l1.2,2.5c4.8,9.5,10.3,20.3,21,27.2c6.2,4,12.8,7.5,19.6,10.9l1.3,0.6c3.2,1.6,6.5,3.2,7.6,7
				c0,0.1,0,0.3,0,0.4c0.1,0.2,0,0.4-0.1,0.6c-0.7,1.3-1.3,2.7-1.9,4c-1.4,2.9-2.8,5.9-4.6,8.8C865.6-18.9,857-6,844.2,4.2
				c-14.1,11.2-27.9,15.5-43.2,13.5c-11.9-1.6-20.9-7.2-27.3-17.2c-4.8-7.4-6.8-15.7-8.6-23.5l-0.3-1.5c-2.3-10.5-4.7-21.3-9.8-31.2
				c-2.9-5.6-5.5-11.7-7.9-18.5C746-77.1,745.5-79.7,745.5-82.2z M878.6-45.9c-0.9-3.1-3.5-4.4-6.6-5.9l-1.3-0.6
				c-6.9-3.5-13.5-7-19.8-11c-11.1-7.2-16.7-18.2-21.6-28l-1.2-2.5c-2.7-5.5-5.6-11.2-10.4-15.8c-10.2-9.8-20.5-11.4-34.3-5.4
				c-10.8,4.7-19.7,10.2-27.5,16.9c-7.9,6.8-10.2,14.4-7,23.3c2.4,6.8,5,12.8,7.9,18.3c5.3,10.1,7.7,21.1,10,31.7l0.3,1.5
				c1.8,8,3.7,15.9,8.3,23c6.1,9.5,14.6,14.8,25.9,16.3c14.7,1.9,27.9-2.2,41.6-13.1c12.5-10,21.1-22.8,29.4-36.2
				c1.7-2.7,3.1-5.7,4.5-8.6C877.4-43.3,878-44.6,878.6-45.9z"/>
		</g>
		<g>
			<path class="st1" d="M832.3,158.7c0-0.2,0-0.4,0-0.5c0.2-3.2,0.9-6.4,1.6-9.6l0.3-1.6c0.4-1.6,0.8-3.2,1.3-4.8
				c0.6-2.2,1.3-4.4,1.6-6.6c0.5-3.5,1-7,1.4-10.4c0.5-4.1,1-8.3,1.7-12.4c1.2-6.9,5.6-12.4,11.9-15.1c6.6-2.8,14.5-2.1,21.6,1.7
				c7.1,3.8,11.7,9.8,14.8,19.4c0.1,0.2,0.1,0.3,0,0.5c0,0,0,0.1,0,0.1c1.3,8.8-1.6,17-8.7,24.4c-6.3,6.5-11.8,11.4-17.5,15.4
				c-4.5,3.2-10,5.9-16.5,8.1c-3.6,1.2-7,0.9-9.6-0.8C833.7,164.8,832.3,162,832.3,158.7z M886.5,119.4c-3-9.1-7.2-14.7-13.9-18.3
				c-6.5-3.5-13.7-4.1-19.7-1.6c-5.8,2.4-9.6,7.3-10.7,13.7c-0.7,4.1-1.2,8.3-1.7,12.3c-0.4,3.4-0.8,7-1.4,10.5
				c-0.4,2.3-1,4.6-1.6,6.8c-0.4,1.6-0.9,3.1-1.2,4.7l-0.4,1.6c-0.7,3-1.4,6.2-1.5,9.3c-0.1,2.9,1,5.4,3.1,6.7
				c2,1.3,4.8,1.5,7.7,0.6c6.2-2,11.7-4.7,15.9-7.8c5.5-4,11-8.8,17.2-15.2c6.7-6.9,9.5-14.6,8.2-22.9
				C886.5,119.6,886.5,119.5,886.5,119.4z"/>
		</g>
		<path class="st1" d="M374.9,317.4c0-5.2,0.9-10.8,2.8-17c2.1-7,7.5-11.4,15.6-12.9c4.8-0.8,9.8-1.2,15-0.9
			c14.7,0.7,22.9,5.6,27.5,16.3c1.1,2.7,1.9,5.5,2.6,8.2c0.3,1.2,0.6,2.5,1,3.7c0,0.2,0,0.3,0,0.4c0,0.1,0,0.2,0,0.3
			c-0.2,1.6-0.2,3.2-0.3,4.8c-0.1,3.6-0.3,7.3-1.4,10.7c-2.8,8.1-10.9,21.5-33.5,19.6c-11.2-0.9-19.4-5.8-24.5-14.6
			C376.6,330.4,374.9,324.3,374.9,317.4z M437.5,315.3c-0.4-1.2-0.7-2.5-1-3.8c-0.7-2.7-1.4-5.4-2.5-8c-4.2-10-11.9-14.5-25.7-15.2
			c-5-0.2-10,0.1-14.5,0.9c-7.4,1.3-12.1,5.2-14,11.5c-4.2,13.8-3.6,24.8,1.9,34.5c4.7,8.3,12.2,12.8,22.8,13.6
			c21.1,1.7,28.7-10.8,31.3-18.4c1.1-3.2,1.2-6.8,1.4-10.2c0.1-1.6,0.1-3.3,0.3-4.9C437.5,315.4,437.5,315.4,437.5,315.3z"/>
		<path class="st1" d="M439.6-21.1c0-1.1,0.4-2.3,1.5-3.6c3.4-3.9,7.5-5.9,12.7-6c3.5-0.1,7-0.1,10.9,0c13.5,0.3,24.6,7.4,29.1,18.6
			c0.1,0.2,0.1,0.4,0,0.5c0,0.1,0,0.2,0,0.3c-0.9,6.2-3.8,11.1-8.5,14.2c-4.2,2.8-9.7,4-15.4,3.2c-12.2-1.7-26.2-12.8-29.4-23.4
			l-0.2-0.7C439.9-19,439.6-20,439.6-21.1z M491.8-11.6c-4.2-10.4-14.6-17.1-27.2-17.3c-3.8-0.1-7.4-0.1-10.8,0
			c-4.6,0.1-8.2,1.8-11.2,5.3c-1.5,1.8-1.1,3.2-0.4,5.1l0.2,0.8c3.1,9.9,16.3,20.5,27.8,22.1c5.1,0.7,10.1-0.3,13.9-2.8
			C488.3-1.3,490.9-5.8,491.8-11.6C491.7-11.5,491.7-11.5,491.8-11.6z"/>
		<path class="st1" d="M412.9,521.5c0-0.8,0.5-1.6,1-2.2c0.2-0.2,0.3-0.5,0.5-0.7c0.1-0.2,0.4-0.4,0.6-0.5c0.3-0.1,0.6,0,0.8,0.1
			l3.5,1.8c0.4,0.2,0.6,0.6,0.5,1c0.1,0.3,0,0.6-0.3,0.9l-3,2.6c-0.2,0.2-0.5,0.3-0.8,0.3c-0.3,0-0.6-0.1-0.7-0.3
			c-0.2-0.2-0.4-0.4-0.6-0.6c-0.6-0.6-1.4-1.2-1.5-2.1C412.9,521.6,412.9,521.6,412.9,521.5z M415.7,520.2
			C415.6,520.2,415.6,520.3,415.7,520.2c-0.3,0.5-0.8,1-0.7,1.3c0,0.2,0.6,0.7,0.9,0.9l1.6-1.4L415.7,520.2z"/>
		<path class="st1" d="M270.5,533.9c0-0.3,0-0.5,0-0.8c0.3-2.8,2.3-5.5,5.9-7.8c2.4-1.6,5.1-2.8,8-4.1c2.8-1.2,5.7-2.4,8.6-3.6
			c4.3-1.8,8.8-3.7,13.1-5.6c3.1-1.4,6.2-3,9.1-4.5c4.3-2.2,8.6-4.5,13.2-6.3c6.5-2.7,12-3.1,16.3-1.4c3.9,1.6,6.6,4.9,8.3,9.8
			c3.4,10.3,6.5,19.6,9.9,29c4.8,13.3,12.9,23.7,24.7,31.7l0.2,0.1c6.2,4.2,12.7,8.6,15.1,16.1c0.1,0.2,0.1,0.3,0,0.5
			c0,0.1,0,0.2,0,0.3c0,0.9,0,1.7,0,2.6c0,2,0,4-0.6,5.9c-3.2,9.9-8.8,17.7-16.6,23.2c-8.7,6.2-17.8,7.7-27.1,4.6
			c-6.9-2.3-11.6-6.8-15.7-11.3l-8.7-9.2c-13.1-14-26.7-28.5-40.2-42.6c-3.5-3.6-7.3-7.1-11-10.5c-2.5-2.3-5.2-4.7-7.7-7.1
			C272.2,539.8,270.5,536.8,270.5,533.9z M401,586.9c-2.2-6.8-8.4-11-14.3-15.1l-0.2-0.1c-12.2-8.3-20.5-19-25.4-32.6
			c-3.4-9.4-6.5-18.7-9.9-29c-1.4-4.4-3.9-7.3-7.1-8.6c-3.7-1.5-8.7-1-14.6,1.4c-4.5,1.8-8.8,4.1-13,6.2c-3,1.5-6.1,3.1-9.2,4.6
			c-4.3,2-8.8,3.9-13.2,5.7c-2.9,1.2-5.7,2.4-8.5,3.6c-2.9,1.3-5.5,2.4-7.7,3.9c-3.1,2-4.9,4.2-5.1,6.5c-0.3,2.5,1.2,5.3,4.3,8.3
			c2.5,2.4,5.1,4.8,7.6,7.1c3.7,3.4,7.6,6.9,11.1,10.6c13.5,14.1,27.1,28.6,40.2,42.6l8.7,9.2c4,4.3,8.4,8.6,14.9,10.7
			c8.6,2.8,17,1.4,25.1-4.4c7.5-5.3,12.8-12.8,15.9-22.3c0.5-1.7,0.5-3.5,0.5-5.4c0-0.9,0-1.8,0-2.7
			C400.9,587,400.9,586.9,401,586.9z"/>
		<path class="st1" d="M41.5,535.9c0-4.8,0.1-9.5,0.2-14.2l0.1-3.2c0.3-12.2,11.6-16.7,21.2-16.8l2.1,0c13-0.1,26.5-0.2,39.8-0.9
			c6.8-0.4,13.8-1.5,20.5-2.6c1.7-0.3,3.4-0.5,5.1-0.8c2.9-0.5,5.8-1,8.7-1.5c9.5-1.7,19.4-3.4,29.6-3c16.8,0.6,29.6,8.7,35,22.3
			c0.1,0.2,0.1,0.4,0,0.5c0,0,0,0.1,0,0.1c0.8,8.2-2.3,15.1-9.7,21c-5.9,4.7-12.6,8.3-20.1,10.6c-12.6,4-29.2,9.1-45.9,13.6
			c-16.2,4.4-33.5,8.6-52.2,7.7c-8.3-0.4-15.3-1.8-21.5-4.2c-7.4-2.8-11.9-8.1-12.3-14.4C41.6,545.5,41.5,540.7,41.5,535.9z
			 M201.6,515.7c-5.1-12.8-17.2-20.4-33.1-21c-9.9-0.4-19.7,1.4-29.1,3c-2.9,0.5-5.8,1-8.7,1.5c-1.7,0.3-3.4,0.5-5.1,0.8
			c-6.8,1.1-13.8,2.2-20.7,2.6c-13.3,0.7-26.8,0.8-39.9,0.9l-2.1,0c-8.7,0.1-18.9,4-19.2,15l-0.1,3.2c-0.2,9.3-0.4,18.9,0.2,28.4
			c0.4,5.7,4.3,10.2,11.1,12.8c6.1,2.3,12.7,3.6,20.8,4c18.3,0.9,35.4-3.3,51.4-7.6c16.7-4.5,33.3-9.7,45.8-13.6
			c7.2-2.3,13.8-5.7,19.5-10.3c6.8-5.5,9.8-11.8,9-19.5C201.6,515.9,201.6,515.8,201.6,515.7z"/>
		<g>
			<path class="st1" d="M128.8,452.4c-2.1,0-4.2-0.2-6.3-0.8c-8.6-2.1-15.4-8.4-18.6-17.3c-3.2-8.9-3.2-18.2-3.2-27.1
				c0-7.3,0.1-14.8-1.7-22c-3.7-15.1-12-20.8-21.7-27.4c-5-3.4-10.1-6.9-14.9-12c-11.5-12.2-12.6-20.2-4.7-34.5
				c7-12.7,8.1-31.9-3.5-42.6l-0.8-0.7l0.9-0.6c9-5.8,21,0.8,24.5,3c7.8,4.9,9.7,5,18.8,3.7c11.1-1.6,21.8-2.5,30.3,4.9
				c7.2,6.3,9.5,15.7,11.8,24.8c0.7,2.7,1.3,5.4,2.1,8c3.1,10.4,9.4,17.9,16.1,25.9c1.1,1.3,2.1,2.5,3.2,3.9
				c4.5,5.5,10,10,15.4,14.3c4.8,3.9,9.7,7.9,13.9,12.6c4.8,5.5,6.4,13.3,4.2,21.3c-2.6,9.6-9.9,17.6-18.6,20.6l-1.1,0.4
				c-8.5,2.9-13.6,4.6-16.6,13.6c-0.6,1.9-1.1,3.6-1.5,5.2c-1.6,5.7-2.8,9.8-8.8,15.3C142.6,449.7,135.7,452.4,128.8,452.4z
				 M56.1,268.2c11.3,11.4,10.1,30.9,3,43.8c-7.5,13.7-6.5,21,4.5,32.7c4.7,5,9.8,8.5,14.7,11.8c9.5,6.5,18.4,12.6,22.3,28.3
				c1.8,7.4,1.8,15,1.8,22.4c0,8.8-0.1,17.9,3.1,26.6c3,8.4,9.4,14.3,17.5,16.3c8.3,2.1,17.3-0.4,24-6.5c5.7-5.2,6.7-8.9,8.3-14.6
				c0.4-1.5,0.9-3.3,1.6-5.2c3.2-9.8,9.2-11.8,17.6-14.7l1.1-0.4c8.2-2.8,15.1-10.4,17.5-19.5c2-7.4,0.6-14.7-3.9-19.8
				c-4-4.6-8.7-8.4-13.7-12.4c-5.4-4.4-11-8.9-15.6-14.6c-1.1-1.3-2.1-2.6-3.2-3.8c-6.8-8.1-13.2-15.8-16.4-26.5
				c-0.8-2.6-1.5-5.4-2.1-8.1c-2.2-8.8-4.4-18-11.3-23.9c-8-7-18.3-6.1-29-4.5c-9.4,1.4-11.7,1.2-19.9-3.9
				C74.8,269.7,64.2,263.8,56.1,268.2z"/>
		</g>
		<g>
			<path class="st1" d="M135.6,390.5c-1.6,0-3.2-0.1-4.5-0.3c-9.5-1.7-11.9-10-14-17.4c-0.3-1-0.6-2-0.9-3c-0.6-1.9-2.2-4.3-4-6.9
				c-4-5.9-8.5-12.7-3.8-17.5c1.5-1.5,3.7-2.4,6.4-2.4c0,0,0,0,0,0c5,0,10.7,2.8,13.4,5.5l0,0l2,2.1c5,5.5,10.2,11.2,16.6,15.3
				c1.4,0.9,3,1.5,4.5,2.1c2.8,1,5.6,2.1,7.4,4.8c2.2,3.4,2.9,6.4,1.9,8.9c-1.2,3-4.6,5.3-10,6.6
				C146.4,389.5,140.6,390.5,135.6,390.5z M114.8,344.6C114.8,344.6,114.8,344.6,114.8,344.6c-2.3,0-4,0.6-5.3,1.9
				c-3.8,3.8,0.4,10,4,15.4c1.8,2.7,3.5,5.2,4.2,7.3c0.3,1,0.6,2,0.9,3.1c2.1,7.3,4.3,14.8,12.7,16.3c5.3,0.9,13.4-0.3,18.8-1.7
				c4.9-1.2,8-3.2,8.9-5.7c0.8-2,0.2-4.6-1.7-7.5c-1.5-2.3-4-3.2-6.7-4.2c-1.6-0.6-3.3-1.2-4.9-2.2c-6.5-4.2-11.8-10-16.9-15.6
				l-1.9-2.1C124.6,347.1,119.3,344.6,114.8,344.6z"/>
		</g>
		<g>
			<path class="st1" d="M131.7,425.5c-0.1,0-0.2,0-0.3,0c-10.4-0.2-13.1-10.6-14.3-19.7c-2.2-16.4-10.6-29.1-19.4-42.4
				c-1.2-1.8-2.4-3.6-3.6-5.4c-1.2-1.9-3.1-3.7-5.1-5.7c-3.9-3.8-7.9-7.8-7.9-12.8c0-2,0.6-3.9,1.2-5.6c0.6-1.8,1.1-3.4,1.1-5.2
				c0-6.7-3.7-15.9-7-21.6l-0.1-0.2l0-0.2c-0.4-4.3,2.4-7.5,7.6-8.5c1.7-0.3,3.8,0.3,5.6,0.8c0.5,0.2,1,0.3,1.4,0.4
				c1.4,0.4,3,0.6,4.6,0.9c3.7,0.6,7.5,1.3,10.4,3.1c5,3.1,7.5,9,9.9,14.8c1.5,3.5,2.9,6.8,4.7,9.4c6.6,9.2,15.9,13,25.8,17
				c2.8,1.1,5.7,2.3,8.5,3.6c12.5,5.8,28.2,21.8,25.3,37c-1.9,9.8-13.1,14.4-22.2,18.2c-2.2,0.9-4.3,1.8-6,2.6c-3.8,1.9-6,5.7-8,9.4
				C141.3,420.4,138.5,425.5,131.7,425.5z M78,306.4c3.4,5.9,7.1,15.3,7.1,22.2c0,2-0.6,3.9-1.2,5.7c-0.6,1.7-1.1,3.4-1.1,5.2
				c0,4.2,3.8,8,7.4,11.6c2.1,2,4,3.9,5.3,6c1.2,1.8,2.4,3.6,3.6,5.4c9,13.5,17.5,26.3,19.7,43.1c1.2,8.9,3.6,18.1,12.7,18.3
				c6,0.1,8.4-4.2,11.2-9.2c2.2-3.9,4.4-8,8.7-10c1.8-0.9,3.9-1.7,6.1-2.6c8.7-3.6,19.5-8,21.2-17c2.7-14.2-12.7-29.9-24.4-35.3
				c-2.8-1.3-5.7-2.5-8.5-3.6c-10.1-4.1-19.6-8-26.5-17.6c-2-2.8-3.5-6.3-4.9-9.7c-2.3-5.5-4.7-11.3-9.2-14
				c-2.7-1.6-6.3-2.3-9.9-2.9c-1.7-0.3-3.3-0.6-4.7-0.9c-0.5-0.1-1-0.3-1.5-0.4c-1.6-0.5-3.5-1.1-4.9-0.8
				C82.3,300.2,77.7,301.6,78,306.4z"/>
		</g>
		<g>
			<path class="st1" d="M693.7,331.4c-1.6,0-3.1,0-4.6-0.1c-1.2,0-2.3-0.1-3.2-0.1c-12.3,0-23.9-1.9-35.2-3.7
				c-7.6-1.2-15.5-2.5-23.5-3.2c-12-1-21.5-1.5-32.3-0.4c-1.8,0.2-3.8,0.5-5.9,0.8c-5.4,0.9-11.5,1.8-16,0.6
				c-4.2-1.1-9.3-5-13.8-8.5c-2.5-1.9-4.9-3.7-6.9-4.9c-6.2-3.7-12.5-7.9-18.6-12l-2.5-1.7c-1.5-1-3-2-4.4-2.9
				c-13.4-8.9-25-16.5-30-32.8c-3.2-10.3-4.4-24.1,1.7-31.8c3.3-4.2,8.4-6.2,15.1-5.8l0,0c11.6,1.2,23.6,6.2,34.2,10.7
				c1.8,0.8,3.6,1.5,5.3,2.2c4.9,2,9.5,4.8,14,7.4c4.2,2.5,8.5,5.1,12.9,7c1.7,0.7,3.3,1.4,4.8,2c5.1,2,9.6,3.8,14.4,7.7
				c2.8,2.3,6.1,4.1,9.3,5.8c3.3,1.8,6.6,3.6,9.5,6c2.9,2.3,3.5,4.4,4.2,6.6c0.4,1.2,0.8,2.4,1.5,3.9c5.2,9.6,17.2,17,26.4,21.4
				c9.5,4.6,22.4,10.8,33.4,12.1c3.9,0.5,7.9,0.1,11.8-0.2c3.1-0.3,6.4-0.5,9.6-0.4c0.4,0,1.3-0.3,2-0.6c1.6-0.6,3.2-1.2,4.3-0.5
				c1.7,1.2,2.7,2.6,2.9,4.2c0.3,2.5-1.3,4.8-2.7,6.3C707.7,330.8,700.3,331.4,693.7,331.4z M607.6,321.8c6.2,0,12.5,0.4,19.7,1
				c8.1,0.7,16,2,23.6,3.2c11.2,1.8,22.8,3.6,35,3.7c1,0,2.1,0,3.3,0.1c7.2,0.2,16.9,0.4,21.2-4.1c1.7-1.8,2.5-3.5,2.3-5
				c-0.1-1.1-0.9-2.2-2.2-3.1c-0.4-0.2-2,0.4-2.8,0.7c-1,0.4-1.9,0.7-2.6,0.7c-3.1-0.1-6.3,0.2-9.4,0.4c-4,0.3-8.1,0.7-12.1,0.2
				c-11.2-1.3-24.3-7.7-33.9-12.3c-9.4-4.6-21.8-12.1-27.2-22.1c-0.8-1.6-1.3-2.9-1.7-4.2c-0.7-2.1-1.2-3.8-3.7-5.8
				c-2.8-2.3-5.9-4-9.3-5.8c-3.2-1.8-6.6-3.6-9.5-6c-4.7-3.7-9-5.4-14-7.4c-1.5-0.6-3.1-1.2-4.8-2c-4.6-2-8.9-4.6-13.1-7.1
				c-4.4-2.7-9-5.4-13.8-7.3c-1.7-0.7-3.5-1.4-5.3-2.2c-10.5-4.4-22.4-9.3-33.7-10.5c-6.2-0.3-10.8,1.4-13.7,5.2
				c-5.7,7.2-4.3,20.8-1.4,30.3c4.8,15.7,16.1,23.2,29.3,31.9c1.5,1,2.9,1.9,4.4,2.9l2.5,1.7c6,4.1,12.3,8.3,18.5,11.9
				c2.1,1.2,4.5,3.1,7.1,5c4.4,3.3,9.4,7.1,13.3,8.2c4.2,1.1,10.1,0.2,15.3-0.6c2.1-0.3,4.1-0.7,6-0.8
				C599.1,322,603.3,321.8,607.6,321.8z"/>
		</g>
		<g>
			<path class="st1" d="M262.7,311.2c-7.4,0-14.2-1.8-17.6-5c-9.1-8.5-20.9-37.2-25.1-61.4c-1.8-10.2,3.5-17.6,15.2-21.3
				c11.1-3.5,23.6-2.1,34.1,4l0,0c7.1,4.1,16.5,10.3,20.5,16.8c7.8,12.3,5,39.5,0.1,53.6c-2,5.7-7.8,9.9-16.3,12.1
				C270.1,310.7,266.3,311.2,262.7,311.2z M247.6,223.2c-4,0-8,0.6-11.9,1.8c-11,3.5-15.8,10.1-14.1,19.5
				c4.2,23.9,15.7,52.2,24.6,60.5c4.8,4.4,16.6,5.9,27,3.3c4.6-1.2,12.8-4.1,15.2-11c4.9-14.1,7.3-40.7,0.1-52.2
				c-3.9-6.2-13-12.2-20-16.2l0,0C262,225.1,254.8,223.2,247.6,223.2z"/>
		</g>
		<g>
			<path class="st1" d="M518.9,454.8c-2.5,0-4.8-0.4-6.8-1.5c-3.3-1.8-5.4-4.2-6.1-7.1c-1.6-6.5,3.6-14.4,7.4-20.1
				c0.9-1.4,1.8-2.6,2.4-3.7c4.5-7.6,1.9-11.3-1.2-15.5c-1.2-1.7-2.4-3.4-3.2-5.3c-0.6-1.4-0.2-2.9,0.9-3.9c1.1-1,2.8-1.3,4.1-0.5
				c2.5,1.3,4.8,3,7,4.6c4.1,3,8,5.9,13,6.4c6.8,0.8,19.1-2,32.9-7.4c4.3-2.5,7.6-3.1,10.2-2.2c2.4,0.9,4.1,3.1,5.4,6.7
				c3,8.5,0.4,15.2-7.9,20.9c-4.6,3.2-9.6,5.9-14.4,8.5c-5.5,3-11.3,6.1-16.5,10C540.5,448.8,528.2,454.8,518.9,454.8z M514.9,398.2
				c-0.5,0-1,0.2-1.4,0.5c-0.6,0.6-0.8,1.4-0.5,2.1c0.7,1.8,1.9,3.4,3,5c3.1,4.3,6.2,8.8,1.2,17.3c-0.7,1.1-1.5,2.4-2.4,3.8
				c-3.7,5.5-8.7,13-7.2,18.9c0.6,2.5,2.4,4.5,5.3,6c8,4.3,25-3.2,32.3-8.5c5.4-4,11.1-7.1,16.7-10.2c4.8-2.6,9.7-5.3,14.2-8.4
				c7.8-5.4,10-11.2,7.3-19.1c-1.1-3.1-2.5-5-4.4-5.7c-2.2-0.8-5-0.2-8.9,2.1l-0.1,0c-14.1,5.5-26.7,8.4-33.8,7.6
				c-5.3-0.6-9.6-3.7-13.7-6.7c-2.2-1.6-4.4-3.2-6.8-4.5C515.5,398.3,515.2,398.2,514.9,398.2z"/>
		</g>
		<g>
			<path class="st1" d="M23.9,653.9c-0.8,0-1.6-0.1-2.6-0.3l0.3-1.6c2.6,0.5,4.5,0.2,5.5-0.9c2.7-3,0.3-11.3-1.5-17.4
				c-0.8-2.8-1.5-5.1-1.7-6.8c-1.6-12.7,1.8-18.6,6.9-27.4c0.9-1.6,1.9-3.3,3-5.2c2.7-5,3.6-8.2,2.7-10c-1-2.1-4.5-2.9-9.4-3.6
				c-1-0.1-2-0.2-2.9-0.2c-2.8-0.1-5.3-0.3-8.1-3.1c-1.4-1.4-1.8-3.1-2.2-4.8c-0.4-1.7-0.8-3.3-2.1-4.5c-2.2-2-4.3-2.8-6.5-2.5
				c-5.4,0.7-10.4,8.3-15.1,15.6c-4.1,6.3-7.9,12.2-12,13.8c-2.5,1-5.2,1.6-7.7,2.2c-2.8,0.7-5.7,1.4-8.4,2.5c-1.1,0.5-2.1,1-3,1.5
				c-1.9,0.9-3.6,1.8-6.1,2.5c-2.4,0.7-6.5,0.5-10.8,0.4c-7.3-0.2-16.4-0.5-17.6,3.4l-1.5-0.5c1.5-5,10.9-4.8,19.2-4.5
				c4.2,0.1,8.1,0.2,10.3-0.4c2.3-0.6,4-1.5,5.8-2.4c1-0.5,2-1,3.1-1.5c2.9-1.2,5.8-1.9,8.7-2.6c2.6-0.6,5.1-1.2,7.5-2.2
				c3.7-1.5,7.4-7.2,11.3-13.2c5-7.6,10.1-15.6,16.3-16.4c2.6-0.3,5.2,0.6,7.8,2.9c1.7,1.5,2.2,3.5,2.6,5.3c0.4,1.5,0.7,3,1.8,4.1
				c2.4,2.4,4.4,2.5,7.1,2.6c0.9,0,1.9,0.1,3,0.2c5.6,0.8,9.3,1.8,10.7,4.5c1.2,2.4,0.4,5.9-2.7,11.5c-1,1.9-2,3.6-3,5.2
				c-5.1,8.9-8.2,14.2-6.7,26.4c0.2,1.5,0.9,3.9,1.7,6.5c2,6.8,4.5,15.3,1.2,18.9C27.4,653.3,25.9,653.9,23.9,653.9z"/>
		</g>
		<g>
			<path class="st1" d="M566,133.1c-6.5,0-11.1-5.9-14.6-10.4l-0.3-0.4c-10.5-13.6-30.4-30.5-49.5-35.7c-4-1.1-8-1.8-11.8-2.5
				c-4.6-0.8-9.4-1.7-14.3-3.2c-2.1-0.6-3.6-2.4-3.9-4.6c-0.3-2.1,0.7-4.1,2.5-5.3c5-3.2,13.7-3,20.6-2.9c2.6,0,4.8,0.1,6.3-0.1
				c4.6-0.4,9.6-3,14.4-5.4c5.4-2.8,10.6-5.4,15.5-5.4c0,0,0,0,0.1,0l0.2,0c5.5,1.1,8.6,7.4,11.3,13c1.2,2.5,2.3,4.9,3.6,6.5
				c4.6,6.1,10.9,9.2,17.5,12.5c2.1,1,4.2,2,6.3,2.8c5.8,2.5,11.2,4.9,16,9.5c0.3,0.3,0.7,0.6,1.1,1c2.2,2,5.2,4.7,5,7.5
				c-0.4,4.8-3.2,4.7-5.1,4.6c-1-0.1-2-0.1-2.9,0.5c-2.5,1.7-3.9,4.6-5.3,7.6c-2,4.1-4.1,8.3-9.1,9.8
				C568.2,132.9,567.1,133.1,566,133.1z M490.4,70.5c-5.5,0-11.6,0.4-15,2.5c-1,0.6-1.5,1.7-1.3,2.9c0.1,0.9,0.8,2.1,2.1,2.5
				c4.7,1.5,9.4,2.3,14,3.1c3.9,0.7,8,1.4,12.1,2.6c19.6,5.3,40.1,22.7,50.8,36.6l0.3,0.4c3.8,4.9,8.5,11.1,15.3,9
				c3.9-1.2,5.7-4.7,7.5-8.5c1.6-3.2,3.2-6.4,6.1-8.5c1.5-1.1,3.1-1,4.4-0.9c1.8,0.1,2.3,0.1,2.5-2.3c0.1-1.6-2.5-4-4.2-5.5
				c-0.4-0.4-0.8-0.7-1.1-1c-4.4-4.3-9.7-6.6-15.2-9c-2.1-0.9-4.3-1.8-6.4-2.9c-6.9-3.4-13.3-6.6-18.3-13.2
				c-1.4-1.8-2.6-4.3-3.8-6.9c-2.4-5-5.2-10.7-9.4-11.6c-4.3,0-9.1,2.5-14.3,5.1c-5,2.6-10.2,5.2-15.3,5.7c-1.7,0.2-3.9,0.1-6.6,0.1
				C493.3,70.6,491.9,70.5,490.4,70.5z"/>
		</g>
	</g>
</g>
</svg>
