<svg xmlns="http://www.w3.org/2000/svg" viewBox="0 0 269.67 253.17"><defs><style>.cls-1,.cls-2{fill:#fff;}.cls-1{opacity:0.01;}</style></defs><g id="Layer_2" data-name="Layer 2"><g id="Layer_1-2" data-name="Layer 1"><rect class="cls-1" width="269.67" height="253.17"/><path class="cls-2" d="M134.84,82.19a44.32,44.32,0,1,0,44.27,44.31,44.34,44.34,0,0,0-44.27-44.31Zm0,76a31.67,31.67,0,1,1,31.62-31.67A31.68,31.68,0,0,1,134.84,158.17ZM236,126.5a6.39,6.39,0,0,0-2.81-5.25L200.46,99.31l7.67-38.7a6.35,6.35,0,0,0-1.74-5.7,6.23,6.23,0,0,0-5.69-1.74L162,60.84,140.09,28a6.55,6.55,0,0,0-10.51,0L107.64,60.84,69,53.13a6.22,6.22,0,0,0-5.69,1.74,6.36,6.36,0,0,0-1.74,5.7l7.67,38.74L36.45,121.25a6.32,6.32,0,0,0,0,10.51L69.22,153.7l-7.67,38.7a6.3,6.3,0,0,0,1.74,5.69A6.19,6.19,0,0,0,69,199.83l38.66-7.67L129.58,225a6.31,6.31,0,0,0,5.26,2.81,6.39,6.39,0,0,0,5.25-2.81L162,192.16l38.67,7.67a6,6,0,0,0,5.69-1.74,6.36,6.36,0,0,0,1.74-5.69l-7.67-38.7,32.77-21.94A6.41,6.41,0,0,0,236,126.5Zm-46.14,19a6.34,6.34,0,0,0-2.68,6.48l6.64,33.56-33.53-6.64a6.14,6.14,0,0,0-6.48,2.69l-19,28.46-19-28.42a6.29,6.29,0,0,0-5.25-2.81,6.41,6.41,0,0,0-1.23.12L75.82,185.6,82.46,152a6.35,6.35,0,0,0-2.69-6.48l-28.42-19,28.42-19.05A6.35,6.35,0,0,0,82.46,101L75.82,67.44l33.52,6.65a6.24,6.24,0,0,0,6.48-2.69l19-28.46,19,28.46a6.24,6.24,0,0,0,6.48,2.69l33.53-6.65L187.22,101a6.34,6.34,0,0,0,2.68,6.48l28.43,19.05-28.43,19Z"/></g></g></svg>