<svg xmlns="http://www.w3.org/2000/svg" viewBox="0 0 269.67 253.17"><defs><style>.cls-1,.cls-2{fill:#fff;}.cls-1{opacity:0.01;}</style></defs><g id="Layer_2" data-name="Layer 2"><g id="Layer_1-2" data-name="Layer 1"><rect class="cls-1" width="269.67" height="253.17"/><path class="cls-2" d="M175.52,101.91a6.32,6.32,0,1,0-5.46,11.4c5.58,2.68,9.05,7.77,9.05,13.28s-3.47,10.59-9.05,13.27a6.32,6.32,0,1,0,5.46,11.4c10-4.8,16.24-14.25,16.24-24.67S185.54,106.71,175.52,101.91ZM131.6,50.69A9.23,9.23,0,0,0,125,53.48L89.8,88.64H49.45A9.48,9.48,0,0,0,40,98.12v56.93a9.49,9.49,0,0,0,9.49,9.49H89.8L125,199.7a9.29,9.29,0,0,0,6.63,2.79,9.48,9.48,0,0,0,9.56-9.5V60.18A9.47,9.47,0,0,0,131.6,50.69Zm-3.09,134.67L95,151.89H52.61v-50.6H95l33.48-33.47V185.36Zm101.2-58.78c0-26.13-13.45-50-35.11-62.4a6.41,6.41,0,0,0-8.71,2.32,6.31,6.31,0,0,0,2.36,8.65C205.94,85.25,217,105,217,126.58s-11,41.34-28.7,51.44a6.31,6.31,0,0,0-2.36,8.64A6.42,6.42,0,0,0,194.6,189c21.66-12.35,35.11-36.27,35.11-62.41Z"/></g></g></svg>