<svg xmlns="http://www.w3.org/2000/svg" viewBox="0 0 160.86 143"><defs><style>.cls-1{fill:#85bce6;opacity:0.5;}.cls-2{fill:#fff;opacity:0.01;}.cls-3{fill:#88b8d8;opacity:0.25;}</style></defs><g id="Layer_2" data-name="Layer 2"><g id="Layer_1-2" data-name="Layer 1"><path class="cls-1" d="M115.28,64.59a.33.33,0,0,0-.28-.33,108.44,108.44,0,0,0-14.63-1.09c-7.77,0-17.79,2.44-19.54,2.44H79.28c-.81,0-3.43-.53-6.77-1.09a80.94,80.94,0,0,0-12.77-1.35,108.13,108.13,0,0,0-12.5.81c-1,.12-1.74.22-2.12.28a.34.34,0,0,0-.3.33l-.08,4.18a.4.4,0,0,0,.23.34l.47.16c.7.27.64,12.84,4.39,16,2.23,1.85,4.22,2.91,12.57,2.91,4.84,0,7.88-1.31,10.77-5.2,2.09-2.8,3.93-9.42,3.93-9.42.56-2.73,2.59-2.94,2.92-3h0c.06,0,2.35,0,3,3,0,0,1.85,6.62,3.93,9.42,2.89,3.89,5.93,5.2,10.77,5.2,8.35,0,10.33-1.06,12.57-2.91,3.75-3.15,3.69-15.72,4.39-16l.47-.16a.4.4,0,0,0,.23-.34Z"/><rect class="cls-2" y="140.79" width="160.86" height="1.94"/><path class="cls-1" d="M91,122.79l-.8.37c-.34.15-.68.3-1,.43a3.33,3.33,0,0,1-.4.16c-.4.16-.81.32-1.21.45s-1,.34-1.52.48-.71.2-1.06.28l-.07,0-1,.23-.28.05c-.29,0-.58.1-.86.13s-.83.11-1.24.13a2,2,0,0,1-.42,0l-1,0h0c-.32,0-.64,0-1,0a1.5,1.5,0,0,1-.37,0c-.29,0-.59,0-.9-.08l-.19,0-1.16-.18c-.32,0-.65-.13-1-.21a29.61,29.61,0,0,1-5.4-1.82,39.1,39.1,0,0,1-4.72-2.49l-.27-.16a4.63,4.63,0,0,0-2.43,4.09v6.26A4.67,4.67,0,0,0,63.8,134a34.71,34.71,0,0,1-4.74,4.57,32,32,0,0,1-3.69,2.57c-.43.27-.87.53-1.31.76a.06.06,0,0,0,0,0l-.74.41a3.24,3.24,0,0,1-.36.2l-.82.49h54.6c-.4-.28-5.19-4.12-5.58-4.44a33.63,33.63,0,0,1-5.06-5,4.55,4.55,0,0,0,.84-2.66v-6.26a4.65,4.65,0,0,0-2.15-3.92c-1,.62-2,1.19-3,1.68Z"/><path class="cls-1" d="M53,110.22c-.82-.93-1.62-1.89-2.38-2.88-.3-.36-.58-.73-.86-1.1-1-1.38-2-2.82-2.95-4.31l-.73-1.21-.84-1.47a57.8,57.8,0,0,1-2.8-5.76c-.12-.29-.24-.58-.35-.87s-.3-.75-.44-1.12c-.2-.54-.4-1.09-.58-1.63s-.36-1.1-.54-1.66-.32-1.07-.46-1.61-.32-1.16-.45-1.76a1.21,1.21,0,0,0-.05-.18c-.19-.83-.37-1.66-.52-2.5-.21-1.11-.37-2.24-.49-3.38q-.08-.54-.12-1.08c0-.38-.07-.75-.09-1.13,0-.69-.08-1.39-.1-2.09,0-.45,0-.91,0-1.36V57.35h83.72V73.12c0,.45,0,.91,0,1.36s0,.73,0,1.1,0,.66-.06,1,0,.47-.06.7,0,.28,0,.43,0,.52-.08.78c0,.49-.1,1-.17,1.47a2.58,2.58,0,0,1-.06.37c0,.24-.07.49-.11.74v0l-.18,1.07c-.1.49-.19,1-.29,1.47,0,0,0,0,0,.06a2.07,2.07,0,0,1,0,.22s0,0,0,.06l-.18.78a2.09,2.09,0,0,1-.08.34c0,.18-.08.37-.12.55a3,3,0,0,1-.1.32c0,.09,0,.19-.07.27-.21.84-.46,1.67-.72,2.49-.12.39-.25.77-.38,1.16,0,0,0,.08,0,.12l-.37,1-.12.32-.38,1c-.16.4-.32.79-.49,1.18s-.3.7-.45,1c0,.06,0,.11-.07.17-.18.37-.34.74-.52,1.1s-.36.76-.55,1.14c-.37.76-.77,1.51-1.17,2.24l-.56,1a59.69,59.69,0,0,1-5.25,7.65c-.26.34-.53.67-.8,1s-.77.91-1.17,1.36-.66.75-1,1.11c17.32-10,29.09-29.59,29.09-52.15C135.22,27.7,112.31,2,83.4.12h0l-.52,0-.43,0h0l-.93,0h-.09L80.06,0h0L78.74,0l-.87,0h-.11C48.36,1.34,24.89,27.32,24.89,59.18c0,22.57,11.79,42.19,29.11,52.16a1.66,1.66,0,0,1-.13-.14C53.57,110.88,53.27,110.56,53,110.22Z"/><path class="cls-3" d="M38.2,57.35V73.12c0,.45,0,.91,0,1.36,0,.7.05,1.4.1,2.09,0,.38,0,.75.09,1.13s.07.72.12,1.08c.12,1.14.28,2.27.49,3.38.15.84.33,1.67.52,2.5a1.21,1.21,0,0,1,.05.18c.13.6.28,1.18.45,1.76s.3,1.08.46,1.61.35,1.11.54,1.66.38,1.09.58,1.63c.14.37.28.75.44,1.12s.23.58.35.87a57.8,57.8,0,0,0,2.8,5.76l.84,1.47.73,1.21c.93,1.49,1.92,2.93,2.95,4.31.28.37.56.74.86,1.1.76,1,1.56,2,2.38,2.88.3.34.6.66.9,1a1.66,1.66,0,0,0,.13.14c.71.79,1.45,1.54,2.21,2.27.32.3.65.61,1,.9l1,.91Q60,117,61.8,118.34c.39.29.79.56,1.18.84.68.48,1.39.95,2.09,1.38l.27.16a39.1,39.1,0,0,0,4.72,2.49,29.61,29.61,0,0,0,5.4,1.82c.34.08.67.16,1,.21l1.16.18.19,0c.31,0,.61.07.9.08a1.5,1.5,0,0,0,.37,0c.31,0,.63,0,1,0h0l1,0a2,2,0,0,0,.42,0c.41,0,.82-.07,1.24-.13s.57-.08.86-.13l.28-.05,1-.23.07,0c.35-.08.71-.18,1.06-.28s1-.3,1.52-.48.81-.29,1.21-.45a3.33,3.33,0,0,0,.4-.16c.34-.13.68-.28,1-.43l.8-.37.77-.38c1-.49,2-1.06,3-1.68l.14-.08c.3-.17.6-.36.88-.55.53-.34,1-.69,1.57-1.06.31-.22.63-.44.94-.68.75-.55,1.49-1.13,2.23-1.74.29-.24.58-.47.86-.72s.71-.61,1.06-.92.43-.38.63-.59q1.55-1.42,3-3l0,0c.35-.36.69-.74,1-1.11s.79-.9,1.17-1.36.54-.65.8-1a59.69,59.69,0,0,0,5.25-7.65l.56-1c.4-.73.8-1.48,1.17-2.24.19-.38.38-.76.55-1.14s.34-.73.52-1.1c0-.06,0-.11.07-.17.15-.35.31-.7.45-1s.33-.78.49-1.18l.38-1,.12-.32.37-1s0-.08,0-.12c.13-.39.26-.77.38-1.16.26-.82.51-1.65.72-2.49,0-.08,0-.18.07-.27a3,3,0,0,0,.1-.32c0-.18.09-.37.12-.55a2.09,2.09,0,0,0,.08-.34l.18-.78s0,0,0-.06a2.07,2.07,0,0,0,0-.22s0,0,0-.06c.1-.48.19-1,.29-1.47l.18-1.07v0c0-.25.08-.5.11-.74a2.58,2.58,0,0,0,.06-.37c.07-.5.13-1,.17-1.47,0-.26.06-.53.08-.78s0-.28,0-.43.05-.47.06-.7,0-.66.06-1,0-.73,0-1.1,0-.91,0-1.36V57.35Zm76.94,11.76-.47.16c-.7.27-.64,12.84-4.39,16-2.24,1.85-4.22,2.91-12.57,2.91-4.84,0-7.88-1.31-10.77-5.2C84.86,80.17,83,73.55,83,73.55c-.6-2.92-2.89-3-3-3h0c-.33,0-2.36.23-2.92,3,0,0-1.84,6.62-3.93,9.42-2.89,3.89-5.93,5.2-10.77,5.2-8.35,0-10.34-1.06-12.57-2.91-3.75-3.15-3.69-15.72-4.39-16L45,69.11a.4.4,0,0,1-.23-.34l.08-4.18a.34.34,0,0,1,.3-.33c.38-.06,1.11-.16,2.12-.28a108.13,108.13,0,0,1,12.5-.81,80.94,80.94,0,0,1,12.77,1.35c3.34.56,6,1.09,6.77,1.09h1.55c1.75,0,11.77-2.44,19.54-2.44A108.44,108.44,0,0,1,115,64.26a.33.33,0,0,1,.28.33l.09,4.18A.4.4,0,0,1,115.14,69.11Z"/></g></g></svg>