<svg xmlns="http://www.w3.org/2000/svg" viewBox="0 0 269.67 253.17"><defs><style>.cls-1,.cls-2{fill:#86b4e0;}.cls-1{opacity:0.01;}</style></defs><g id="Layer_2" data-name="Layer 2"><g id="Layer_1-2" data-name="Layer 1"><rect class="cls-1" width="269.67" height="253.17"/><path class="cls-2" d="M109.53,67.82v14.7l12.65,10V60.19A9.5,9.5,0,0,0,106,53.47L91.31,68.13l10,7.87Zm60.09,7.35c17.55,10.08,28.46,29.81,28.46,51.43A62,62,0,0,1,193.93,149L204.17,157a74.35,74.35,0,0,0,6.56-30.44c0-26.13-13.32-50-34.79-62.42a6.34,6.34,0,0,0-6.32,11Zm12.17-37.83A100.74,100.74,0,0,1,236,126.6,99.56,99.56,0,0,1,224.41,173l10.08,7.94a112,112,0,0,0,14.19-54.31,113.46,113.46,0,0,0-61-100.49,6.35,6.35,0,0,0-5.93,11.23Zm-30.71,76a15.82,15.82,0,0,1,7.86,8.1L172,131.7a25.2,25.2,0,0,0,.75-5.14c0-10.44-6.25-19.88-16.25-24.67a6.33,6.33,0,0,0-5.45,11.43ZM260.14,217.2,17.43,26.11a3.11,3.11,0,0,0-4.43.48L9.05,31.53A3.14,3.14,0,0,0,9.52,36L252.24,227.09a3.14,3.14,0,0,0,4.42-.48l4-4.94A3.16,3.16,0,0,0,260.14,217.2Zm-78.35-1.34a6.34,6.34,0,0,0-2.65,8.54,6.24,6.24,0,0,0,5.62,3.36,6.71,6.71,0,0,0,3-.71A113.3,113.3,0,0,0,211,210.68l-10.16-8a101.86,101.86,0,0,1-19,13.16Zm-72.26-30.48L76.05,151.9H33.63V101.3H72L56,88.65H30.47A9.47,9.47,0,0,0,21,98.14v56.92a9.49,9.49,0,0,0,9.49,9.49H70.83L106,199.73a9.24,9.24,0,0,0,6.64,2.77,9.48,9.48,0,0,0,9.57-9.49V140.79l-12.65-10v54.55Z"/></g></g></svg>