<svg xmlns="http://www.w3.org/2000/svg" viewBox="0 0 269.67 253.17"><defs><style>.cls-1,.cls-2{fill:#fff;}.cls-1{opacity:0.01;}</style></defs><g id="Layer_2" data-name="Layer 2"><g id="Layer_1-2" data-name="Layer 1"><rect class="cls-1" width="269.67" height="253.17"/><path class="cls-2" d="M187,88.64H120.61a4.77,4.77,0,0,1-4.75-4.75V80.73A4.76,4.76,0,0,1,120.61,76H187a4.75,4.75,0,0,1,4.74,4.74v3.16A4.76,4.76,0,0,1,187,88.64Zm4.74,20.55V106a4.75,4.75,0,0,0-4.74-4.74H120.61a4.76,4.76,0,0,0-4.75,4.74v3.16a4.77,4.77,0,0,0,4.75,4.75H187A4.76,4.76,0,0,0,191.76,109.19Zm25.58,105.94h1.3a4.77,4.77,0,0,1,4.75,4.75V223a4.76,4.76,0,0,1-4.75,4.74H77.91a31.61,31.61,0,0,1-31.62-31.62V57A31.61,31.61,0,0,1,77.91,25.39h136a9.47,9.47,0,0,1,9.49,9.49V180.35a9.53,9.53,0,0,1-5.89,8.77C216.07,195.49,215.76,207.15,217.34,215.13ZM96.89,177.19H210.74V38H96.89Zm-37.95,6.32a31.65,31.65,0,0,1,19-6.32h6.33V38H77.91a19,19,0,0,0-19,19Zm147.17,31.62a90.37,90.37,0,0,1,0-25.29H77.91c-25.3,0-25.3,25.29,0,25.29Z"/></g></g></svg>