<svg xmlns="http://www.w3.org/2000/svg" viewBox="0 0 269.67 253.17"><defs><style>.cls-1,.cls-2{fill:#fff;}.cls-1{opacity:0.01;}</style></defs><g id="Layer_2" data-name="Layer 2"><g id="Layer_1-2" data-name="Layer 1"><rect class="cls-1" width="269.67" height="253.17"/><path class="cls-2" d="M137.25,162.92a5.52,5.52,0,0,0,7.83,0l33.48-33.84a24,24,0,0,0-1.7-35.22c-5.5-4.59-18.86-11.27-35.66,5.73-16.84-17-30.2-10.32-35.65-5.73a24,24,0,0,0-1.7,35.22l33.4,33.84Zm-23.64-59.34C119,99,125.94,102.24,128.79,105l12.41,12.54L153.61,105c2.81-2.84,9.73-6,15.18-1.46a11.3,11.3,0,0,1,.83,16.6l-28.46,28.7-28.38-28.7A11.28,11.28,0,0,1,113.61,103.58Z"/><path class="cls-2" d="M214.88,16.18H54.79a8.4,8.4,0,0,0-8.4,8.41v204a8.4,8.4,0,0,0,8.4,8.4H214.88a8.41,8.41,0,0,0,8.41-8.4v-204A8.41,8.41,0,0,0,214.88,16.18ZM210.74,224H58.94V28h151.8Z"/></g></g></svg>