<svg xmlns="http://www.w3.org/2000/svg" viewBox="0 0 802.1 708.41"><defs><style>.cls-1{opacity:0.07;}.cls-2{fill:#7a7a7a;}</style></defs><g id="Layer_2" data-name="Layer 2"><g id="Layer_2-2" data-name="Layer 2"><g class="cls-1"><path class="cls-2" d="M189,339.86c0-8.46,3.9-15.26,11.86-20.74a60.2,60.2,0,0,0,9.79-8.35c4.85-5.18,9.69-10.53,14.37-15.7,4.14-4.57,8.42-9.3,12.7-13.9a30.26,30.26,0,0,1,17.53-9.37,157.76,157.76,0,0,1,17.94-1.48A63.81,63.81,0,0,0,297.87,264l1.47-.69c7.92-3.72,16.1-7.58,24.39-10.93,3.36-1.37,6.91-2.5,10.33-3.59a116.38,116.38,0,0,0,12.16-4.36c14.3-6.39,29.09-13,45-17.39,7.83-2.17,17.76-5.57,25.14-12.68a154.26,154.26,0,0,1,12.11-10.16l.21-.16c5.45-4.25,14-9.48,25-5.78l1.5.5A110.4,110.4,0,0,1,468.8,204c9.21,4.54,17.88,10.94,27.29,20.17,6.71,6.57,9.89,13.91,9.69,22.45v.45c-.08,4-.17,8.16.05,12.22.27,5.21,1.24,10.5,6.41,13.87,3.74,2.44,7.87,4.57,11.85,6.63l1.53.79a120,120,0,0,1,22.71,15.7c6,5.07,11.61,10.35,16.31,14.85,2.4,2.29,4.75,4.68,7,7,3.49,3.55,7.09,7.22,10.92,10.56,7.66,6.69,17.58,10.24,30.33,10.85,11.32.54,21.85-1.92,33.45-4.94,9.32-2.42,17.4-2.69,25.46-.84a273.76,273.76,0,0,1,39.78,12.84c8.89,3.52,17,4,24.74,1.39s12.57-8.1,15.38-17.83c2.59-9,5.62-18.44,11.54-27.08,5.29-7.73,12.68-17.66,22.87-25.88,4.26-3.44,8.56-6.61,14.23-7.63a.82.82,0,0,1,1,.57.73.73,0,0,1-.64.87c-5.27,1-9.21,3.86-13.45,7.28-10,8.1-17.33,17.91-22.57,25.56-5.8,8.47-8.79,17.82-11.35,26.68-2,6.89-5.66,15.26-16.4,18.84-8.08,2.69-16.82,2.21-26-1.42a271.46,271.46,0,0,0-39.52-12.76c-7.76-1.78-15.57-1.52-24.58.82-11.75,3.06-22.42,5.55-34,5-13.17-.63-23.44-4.32-31.4-11.27-3.87-3.38-7.49-7.07-11-10.64-2.26-2.3-4.61-4.69-7-7-4.69-4.48-10.29-9.74-16.24-14.79a118.82,118.82,0,0,0-22.41-15.49l-1.52-.79c-4-2.08-8.18-4.23-12-6.72-5.73-3.72-6.79-9.4-7.09-15-.22-4.11-.12-8.28,0-12.32v-.45c.2-8.15-2.85-15.15-9.26-21.43-9.29-9.1-17.83-15.42-26.87-19.87a108.54,108.54,0,0,0-13.43-5.15l-1.51-.5c-7.87-2.64-15.07-.94-23.33,5.51l-.21.16a151.8,151.8,0,0,0-12,10c-7.64,7.37-17.83,10.86-25.86,13.09-15.74,4.36-30.47,10.93-44.71,17.3a119.4,119.4,0,0,1-12.34,4.43c-3.39,1.08-6.9,2.2-10.21,3.54-8.24,3.33-16.4,7.18-24.3,10.9l-1.46.68a65.51,65.51,0,0,1-25.36,6.46,157.73,157.73,0,0,0-17.73,1.46A28.53,28.53,0,0,0,239,282.11c-4.27,4.59-8.55,9.32-12.68,13.88-4.69,5.18-9.53,10.53-14.39,15.72a61.6,61.6,0,0,1-10.05,8.58c-8.07,5.55-11.71,12.53-11.15,21.34.15,2.44.21,4.92.28,7.33.09,3.73.19,7.59.64,11.34A13.45,13.45,0,0,0,201,372a68.51,68.51,0,0,0,11.74,3.12A54.94,54.94,0,0,1,238.05,386c9.81,7.63,21.26,9.77,35,6.52,15.92-3.77,29.33-9,41-15.83,9.28-5.47,12.77-13,11-23.66-1.48-8.92-2.59-18.43,1.3-27.91,4.65-11.32,20.73-21.22,36.38-17.33,4.23,1.05,8.4,2.46,12.43,3.83,1.44.48,2.87,1,4.31,1.44A81.86,81.86,0,0,0,403,317l.77,0c6.3.16,12.82.33,19,2.69,8.56,3.28,13.28,9.66,17.39,15.91,3.47,5.3,6.82,10.77,10.06,16.06l2.28,3.73c6.29,10.24,15.28,19,28.29,27.72a172,172,0,0,1,16.34,12.42c8.17,7,15.72,10.21,24.49,10.37,2.16,0,4.34.18,6.45.32a91.47,91.47,0,0,0,9.37.29,81.84,81.84,0,0,1,35.31,6.12c10.48,4.34,22.21,5.54,38,3.92,10.75-1.11,21.32-3.6,31.54-6,2.94-.69,5.89-1.39,8.84-2.05a126,126,0,0,1,23.55-3.16,53.34,53.34,0,0,1,27,6.27c5.46,2.89,11.9,6.08,19.16,7.34l1.46.26a30.92,30.92,0,0,0,6.29.74c13.83-.29,25.65,2.3,36.16,7.93,9.9,5.31,21.23,7.74,35.67,7.68a.78.78,0,0,1,.83.73h0a.78.78,0,0,1-.82.74c-14.76.07-26.36-2.44-36.53-7.89s-21.77-8-35.27-7.71a32.49,32.49,0,0,1-6.67-.78l-1.44-.26c-7.52-1.3-14.1-4.57-19.68-7.52a51.63,51.63,0,0,0-26.15-6.06A125.81,125.81,0,0,0,651.57,410c-2.94.67-5.88,1.36-8.81,2-10.28,2.43-20.92,4.93-31.78,6.05-16.15,1.66-28.16.41-38.93-4a80,80,0,0,0-34.54-6,94.76,94.76,0,0,1-9.56-.29c-2.09-.14-4.25-.28-6.36-.32-9.22-.17-17.11-3.49-25.61-10.78a168.62,168.62,0,0,0-16.18-12.3c-13.21-8.81-22.35-17.77-28.75-28.19l-2.29-3.74c-3.23-5.28-6.57-10.74-10-16-4-6.05-8.51-12.21-16.61-15.3-5.89-2.26-12.25-2.42-18.4-2.58l-.77,0a83.35,83.35,0,0,1-24.06-4.05c-1.44-.47-2.88-1-4.33-1.45-4-1.35-8.13-2.75-12.28-3.78-14.79-3.68-30,5.7-34.39,16.41-3.76,9.17-2.66,18.46-1.21,27.19,1.87,11.31-1.85,19.29-11.73,25.11-11.82,7-25.39,12.21-41.49,16-14.3,3.38-26.24,1.15-36.5-6.83a53.09,53.09,0,0,0-24.54-10.54,70.47,70.47,0,0,1-12-3.2A14.84,14.84,0,0,1,190,360.46c-.46-3.81-.56-7.71-.66-11.47-.06-2.39-.12-4.86-.27-7.28C189.05,341.09,189,340.47,189,339.86Z"/><path class="cls-2" d="M6.18,500.91a1.55,1.55,0,0,1,1.42-1.46c1.14-.14,2.28-.31,3.42-.48a74.28,74.28,0,0,1,7.84-.89l.76,0c8.49-.38,17.27-.77,25.93-.65,9,.13,18.34-1.19,29.28-4.16A122.8,122.8,0,0,1,96.16,489a84.06,84.06,0,0,1,34.09,4.08,56.44,56.44,0,0,0,31.88,1.15c9.77-2.41,20.07-4.79,30.6-7.06,2.91-.63,5.88-1.13,8.76-1.6s6.09-1,9.06-1.67c7.79-1.74,11-5.17,10.36-11.11a19.23,19.23,0,0,1,.9-8.31,22.56,22.56,0,0,1,4.63-7.52,8.29,8.29,0,0,1,5.85-2.23,7.75,7.75,0,0,1,5.6,1.82,41.23,41.23,0,0,1,6.6,8.39c3.8,6.48,1.3,12.56-1.1,18.44l-.18.43c-.84,2-1.32,5.06-.4,6.9a46.76,46.76,0,0,0,17.91,19.2c7.6,4.62,16.5,5.64,28.84,3.31a51.23,51.23,0,0,0,17.28-6.78c9.63-5.91,21-12.6,33.66-17.08,8.75-3.09,14.65-7.52,18.05-13.53a84.31,84.31,0,0,0,5.68-13.56l.24-.66c3.59-10.19,11.08-15.63,22.87-16.63,3.77-.32,7.6-1,11.3-1.58,2.38-.4,4.83-.81,7.28-1.14,3.47-.47,7-.81,10.44-1.14l3.1-.3a12.1,12.1,0,0,1,8.85,2.65,11.22,11.22,0,0,1,4.4,8.72,32.1,32.1,0,0,1-1.7,11c-1.89,5-4.19,9.94-6.42,14.72-.75,1.61-1.5,3.22-2.23,4.83A32.94,32.94,0,0,1,402,501.2c-3.31,1.08-6.7,2.06-10,3-3,.86-6.06,1.75-9.05,2.7-9.88,3.16-14.66,7.79-15.51,15a26.94,26.94,0,0,0,.37,8.73c2.85,13,10.43,22.33,22.52,27.86a79.9,79.9,0,0,0,10.94,3.7c1.84.52,3.67,1,5.48,1.62,5.91,1.91,9.27,6.54,8.57,11.8-.87,6.52-2.16,14-6.59,20.68-6,8.94-12.47,18.48-19.56,27.6a25.94,25.94,0,0,1-19,9.86c-6.72.48-12.18.7-17.19.7-12.81,0-22.36-5.13-28.39-15.25a49.93,49.93,0,0,1-2.62-5.29c-.72-1.6-1.4-3.12-2.23-4.58-6-10.51-14.45-19.11-21.94-26.15a138.31,138.31,0,0,0-30.52-21.38c-10.48-5.55-19.73-6.31-30-2.47-13.33,5-27.64,9.66-43.75,14.21l-3.9,1.1C177,578.2,164,581.86,152.25,588s-19.72,13.27-24.74,22.38a179.92,179.92,0,0,0-17.67,46.3c-1.57,6.75,1.47,10.89,9,12.3,3.73.7,7.64,1.08,11.42,1.44,2.33.23,4.74.46,7.1.77a142.69,142.69,0,0,1,32.93,8.26c12.92,5,23.38,6.14,33.91,3.84a84.68,84.68,0,0,1,13.14-1.46l.62,0c8.78-.52,17.95.92,28,4.39,8.65,3,19.36,7.69,25.49,17.9a1.39,1.39,0,0,1-.68,2,1.74,1.74,0,0,1-2.23-.6c-4.38-7.3-11.72-12.41-23.77-16.55-9.63-3.31-18.34-4.68-26.63-4.19l-.62,0A81.4,81.4,0,0,0,205,686.12c-11.13,2.42-22.57,1.16-36-4a140.1,140.1,0,0,0-32.1-8c-2.32-.3-4.65-.52-7-.75-3.87-.37-7.86-.76-11.75-1.49-9.3-1.73-13.53-7.48-11.6-15.78a182.51,182.51,0,0,1,17.94-47c5.33-9.65,13.6-17.16,26-23.63,12-6.26,25.29-10,38.1-13.58l3.88-1.09c16-4.53,30.24-9.15,43.48-14.12,11.15-4.19,21.62-3.35,32.94,2.65a141.25,141.25,0,0,1,31.23,21.89c7.65,7.18,16.31,16,22.48,26.84.9,1.58,1.64,3.23,2.36,4.82a49.63,49.63,0,0,0,2.47,5c5.41,9.07,14,13.67,25.47,13.68,4.92,0,10.3-.22,16.93-.7a22.27,22.27,0,0,0,16.5-8.59c7-9.05,13.5-18.53,19.44-27.43,3.69-5.53,5.12-11.81,6.14-19.53.53-3.91-1.93-7.24-6.41-8.68-1.76-.56-3.56-1.08-5.36-1.59a81.38,81.38,0,0,1-11.43-3.88c-13.05-6-21.21-16-24.26-29.91a29.49,29.49,0,0,1-.42-9.6c1-8.38,6.61-13.92,17.68-17.47,3-1,6.15-1.87,9.15-2.73,3.25-.94,6.62-1.92,9.86-3,8.55-2.79,14.6-8.28,18.49-16.81.73-1.62,1.49-3.23,2.24-4.85,2.2-4.73,4.49-9.62,6.33-14.53a29.28,29.28,0,0,0,1.53-10.1,8.9,8.9,0,0,0-3.31-6.51,8.56,8.56,0,0,0-6.26-1.9l-3.12.3c-3.39.33-6.89.66-10.3,1.12-2.38.32-4.81.73-7.15,1.12-3.78.63-7.69,1.29-11.6,1.62-10.48.89-16.84,5.52-20,14.58l-.24.67a87.16,87.16,0,0,1-5.88,14c-3.78,6.68-10.25,11.57-19.78,14.93-12.37,4.37-23.52,10.95-33,16.77a54.39,54.39,0,0,1-18.47,7.23c-9,1.7-20.62,2.8-31.39-3.74a49.83,49.83,0,0,1-19.07-20.44c-1.39-2.78-.7-6.65.31-9.11l.18-.43c2.26-5.52,4.4-10.74,1.28-16.06a38.22,38.22,0,0,0-6.12-7.79,4.56,4.56,0,0,0-3.07-.84,5,5,0,0,0-3.37,1.14,19.55,19.55,0,0,0-4,6.54,16.68,16.68,0,0,0-.77,7.15c.79,7.39-3.54,12.17-12.85,14.24-3.07.69-6.22,1.21-9.26,1.71-2.83.47-5.76,1-8.58,1.57-10.5,2.27-20.76,4.64-30.5,7a60.07,60.07,0,0,1-33.92-1.23,80.19,80.19,0,0,0-32.61-3.91A120.69,120.69,0,0,0,75.79,496c-11.27,3.06-20.9,4.43-30.29,4.3-8.55-.12-17.27.27-25.71.64L19,501a73.17,73.17,0,0,0-7.46.85c-1.17.18-2.33.35-3.5.5a1.64,1.64,0,0,1-1.87-1.25A1.49,1.49,0,0,1,6.18,500.91Z"/><path class="cls-2" d="M440.43,591.83a9.56,9.56,0,0,1,.79-3.89c1.52-3.46,5.07-5.94,10.53-7.36A69.68,69.68,0,0,1,468,578.41c9.91-.16,19.85.24,29.46.63a48.49,48.49,0,0,1,20.94,5.22c12.7,6.8,24.15,13.39,35,20.18a108.08,108.08,0,0,0,33.67,14.12c12.19,2.77,23,1.91,33-2.61,6.6-3,13.58-5.86,20.74-8.53,11.88-4.42,21.82-5.1,31.29-2.15,2.83.89,5.61,2,8.29,3,3,1.14,6.09,2.33,9.18,3.24,3.38,1,5.56,1.17,6.47.52s1.06-2.13.79-4.54a10.44,10.44,0,0,0-1.45-3.51l-.32-.59a20,20,0,0,1,0-20.38c.7-1.25,1.43-2.49,2.17-3.73a70.37,70.37,0,0,0,4-7.48c3.54-8.1,4.16-15.15,1.9-21.57A38.21,38.21,0,0,0,697.11,539c-8.92-11-16.93-23.43-26-40.15-3.51-6.5-8.13-12.7-12.61-18.69l-.69-.94c-5-6.73-12.27-9.77-21-8.78a162.07,162.07,0,0,0-24.31,4.85C599.29,479,587,478.92,575,475.21l-2.71-.85a132.19,132.19,0,0,0-16.13-4.3c-9.66-1.7-16-.16-20.57,5q-1.41,1.6-2.8,3.23c-1.92,2.22-3.9,4.51-6,6.69-6.91,7.17-16.6,11-24.38,14.16-15.63,6.25-28.94,6.74-41.86,1.53-7.36-3-12.05-6.92-13.94-11.77-1.83-4.7-1-10.12,2.48-16.13l.65-1.12c2.44-4.22,5-8.59,7.23-13,3.2-6.22,3.84-12,1.93-17.67-.6-1.79-1.23-3.57-1.86-5.35-1.42-4-2.89-8.21-4-12.42s-1.68-9,2.25-12.94c4.29-4.36,13.7-5.58,20.86-.45a79.31,79.31,0,0,1,10.56,9.68,21.86,21.86,0,0,0,18.08,6.72,47.48,47.48,0,0,0,9.21-1.9c1.83-.5,3.73-1,5.65-1.41l3.72-.78a145.56,145.56,0,0,1,15.51-2.71c8.51-.85,16.61,1,24.1,3.07,7.74,2.16,18,4.57,28.72,3.89l2.41-.15c4-.26,8.24-.53,12.4-.51,3.76,0,7.57.18,11.25.35,2.48.11,5,.22,7.43.29,7.69.2,15.47,2.15,24.51,6.14a65.76,65.76,0,0,0,40.57,4.62,105.27,105.27,0,0,1,18.55-1.49c3.81-.06,7.65.12,11.37.3,2.8.13,5.69.27,8.52.3a67.76,67.76,0,0,1,21.19,3.67l3.06,1c11.25,3.79,22.89,7.7,34.25,11.75,3.27,1.16,6.42,2.64,9.46,4.07,1.39.65,2.78,1.3,4.17,1.93a1.38,1.38,0,0,1,.74,2,1.76,1.76,0,0,1-2.22.66c-1.42-.63-2.82-1.29-4.23-2-3-1.39-6-2.83-9.15-3.94-11.33-4-23-7.95-34.19-11.72l-3.06-1a64.16,64.16,0,0,0-20.06-3.49c-2.89,0-5.82-.17-8.66-.3-3.65-.17-7.44-.35-11.12-.29A101.69,101.69,0,0,0,691,440a70.28,70.28,0,0,1-42.76-4.85c-8.71-3.85-15.85-5.64-23.14-5.84-2.5-.06-5-.18-7.49-.29-3.65-.17-7.42-.34-11.11-.35-4,0-8.15.25-12.14.51l-2.42.15c-11.28.71-21.93-1.78-29.94-4-7.14-2-14.84-3.74-22.74-2.95A140.58,140.58,0,0,0,524.14,425c-1.25.26-2.49.53-3.74.78-1.8.37-3.64.88-5.42,1.36a52,52,0,0,1-9.92,2,25.52,25.52,0,0,1-20.85-7.75,76.91,76.91,0,0,0-10.13-9.3c-6.19-4.44-13.44-2.8-16.3.1s-2.61,6.16-1.51,10.33,2.54,8.22,4,12.2c.63,1.8,1.27,3.6,1.87,5.4,2.14,6.38,1.46,12.84-2.1,19.74-2.28,4.44-4.83,8.84-7.29,13.09l-.65,1.11c-3.05,5.27-3.82,9.92-2.3,13.82,1.59,4.06,5.69,7.44,12.18,10.06,12,4.84,24.44,4.35,39.15-1.54,9.19-3.67,17.28-7.21,23.22-13.38,2-2.12,4-4.39,5.88-6.58q1.4-1.64,2.83-3.25c7-7.94,17-7.26,23.8-6.06a133.32,133.32,0,0,1,16.58,4.42l2.7.84c11.3,3.5,22.92,3.51,35.52.06a164.16,164.16,0,0,1,24.86-5c9.88-1.12,18.44,2.46,24.12,10.07l.7.94c4.53,6.08,9.22,12.37,12.83,19,9,16.56,16.87,28.81,25.67,39.71a41.43,41.43,0,0,1,6.57,12c2.49,7.08,1.84,14.78-2,23.53a70.91,70.91,0,0,1-4.2,7.78c-.72,1.22-1.44,2.44-2.13,3.67-3.29,5.93-3.29,11.75,0,17.79l.31.56a12.59,12.59,0,0,1,1.78,4.53c.25,2.25.32,5.46-2,7.13s-6.4.9-9.56,0-6.4-2.17-9.45-3.34c-2.64-1-5.37-2.06-8.08-2.91-8.66-2.7-17.85-2-28.93,2.09-7.08,2.63-14,5.47-20.52,8.43-10.73,4.86-22.27,5.79-35.28,2.84a111.1,111.1,0,0,1-34.74-14.56c-10.8-6.75-22.19-13.31-34.82-20.06A44.79,44.79,0,0,0,497.33,582c-9.56-.38-19.45-.78-29.25-.63a65.51,65.51,0,0,0-15.4,2.06c-4.43,1.15-7.25,3-8.38,5.61-1.24,2.78-.45,6.51,2.2,10.46,1.81,2.68,3.81,5.34,5.75,7.92s4.15,5.51,6.06,8.38c4.57,6.87,7.07,14.51,9.48,21.9.46,1.4.92,2.81,1.39,4.21,3.24,9.6,10,15.63,20.75,18.44l3.84,1c5.07,1.3,10.32,2.64,15.32,4.42,8.41,3,15.61,8.65,21.4,16.78,3.86,5.42,7.57,11,11.16,16.47q2.39,3.6,4.78,7.2a1.39,1.39,0,0,1-.57,2,1.79,1.79,0,0,1-2.27-.51q-2.4-3.6-4.79-7.22c-3.58-5.41-7.27-11-11.11-16.38-5.48-7.71-12-12.82-19.83-15.62-4.84-1.74-10-3.05-15-4.33l-3.86-1c-11.88-3.12-19.4-9.79-23-20.43-.47-1.4-.93-2.81-1.39-4.23-2.36-7.21-4.79-14.67-9.16-21.21-1.86-2.81-3.94-5.57-6-8.25s-4-5.3-5.83-8A16.75,16.75,0,0,1,440.43,591.83Z"/><path class="cls-2" d="M251.76,90.47c0-6.16,2.86-11.5,5.38-15.49,5.94-9.43,15.27-16.13,28.53-20.48,10.18-3.34,19-2.11,26.19,3.68,4.59,3.69,8.94,7.57,13.14,11.32,3.19,2.84,6.94,5.87,11.19,5.85,3.11,0,6.33-1.58,9.86-4.8,8.21-7.48,12.52-17.21,13.55-30.63.67-8.52-2.48-16.68-9.59-25-2.49-2.9-4.76-6-7-9-1-1.37-2-2.74-3-4.1a.68.68,0,0,1,.22-1,.89.89,0,0,1,1.15.2c1,1.36,2,2.73,3.05,4.11,2.18,3,4.44,6,6.89,8.89,7.37,8.58,10.62,17.08,9.93,26-1.06,13.79-5.52,23.81-14,31.56-3.86,3.51-7.47,5.23-11,5.24-4.89,0-8.95-3.23-12.37-6.28-4.19-3.74-8.52-7.6-13.07-11.27-6.81-5.46-14.83-6.57-24.52-3.39-12.87,4.22-21.92,10.71-27.66,19.82-2.46,3.91-5.3,9.17-5.16,15.14.12,5.74,2.24,8.5,7.83,10.16a115.21,115.21,0,0,0,14.46,3l1.27.21c3.2.53,6.47,1,9.64,1.41,4,.55,8.14,1.12,12.17,1.86,8.44,1.54,13.41,7,14.78,16.13.83,5.52,1.45,11.37-.77,16.9a67.6,67.6,0,0,1-7.2,13.55l-1.8,2.57c-5.62,8-11.42,16.31-14.72,25.57-2.47,6.95-3,12.89-1.56,18.71,2.1,8.63,11.4,15.54,23.13,17.18,9.36,1.31,17.55-1.49,26.53-5a80.4,80.4,0,0,1,20.06-5c10.85-1.3,20.45-2.87,28.08-9a57.76,57.76,0,0,0,8.22-8.35c5.4-6.54,8.74-13.13,10.2-20.16,2.9-13.9-2-23.52-14.55-28.59-5.69-2.29-9.84-4.9-13.07-8.19a8,8,0,0,1-2.06-7.33,3.75,3.75,0,0,1,2.41-2.6,9.93,9.93,0,0,1,7.82,0,99.87,99.87,0,0,1,11.61,6.41c6.38,4.15,13.3,8.32,21.53,9.62,13.09,2.09,29.94,3.19,44.08-6.9a67.36,67.36,0,0,0,12.89-11.52c7.55-9.09,16.87-17,28.46-24.14,3.18-2,4.9-4.32,5.26-7.22.58-4.82-2.62-8.52-9-10.43a138.48,138.48,0,0,0-15.54-3.32l-1.39-.25c-3.11-.54-6.31-1-9.4-1.43s-6.43-.9-9.62-1.46c-8.17-1.44-17-3-25.82-5-7.59-1.66-15-4.23-17.95-11.76A33.83,33.83,0,0,1,417,44.57c0-8.06-.52-17.56-4.07-27C411.51,14,410,10.26,408.57,6.7q-1-2.49-2-5a.71.71,0,0,1,.5-.94.86.86,0,0,1,1.06.45l2,5c1.45,3.57,2.94,7.27,4.33,10.94,3.62,9.6,4.14,19.25,4.16,27.43A32,32,0,0,0,420.94,56c2.68,6.87,9.64,9.26,16.77,10.82,8.83,1.93,17.59,3.52,25.75,5,3.16.56,6.41,1,9.56,1.46s6.32.89,9.46,1.44l1.39.24a138.49,138.49,0,0,1,15.75,3.38c7.22,2.15,10.82,6.41,10.14,12-.41,3.35-2.36,6-5.95,8.27a112.55,112.55,0,0,0-28.08,23.8,68.83,68.83,0,0,1-13.18,11.8c-14.66,10.45-32,9.34-45.41,7.2-8.58-1.36-15.68-5.63-22.22-9.88a97.09,97.09,0,0,0-11.4-6.3,8.21,8.21,0,0,0-6.3,0c-.89.41-1.43.94-1.52,1.49-.41,2.7.09,4.55,1.67,6.16,3.06,3.13,7,5.62,12.5,7.82,13.15,5.31,18.51,15.75,15.5,30.2a48.33,48.33,0,0,1-10.5,20.76,58.79,58.79,0,0,1-8.45,8.57c-8,6.42-17.83,8-29,9.38a78.84,78.84,0,0,0-19.62,4.91c-9.22,3.61-17.65,6.48-27.44,5.11-12.41-1.73-22.25-9.1-24.49-18.32-1.48-6.08-1-12.26,1.6-19.47,3.35-9.43,9.22-17.8,14.89-25.89l1.8-2.58a66.31,66.31,0,0,0,7-13.27c2.09-5.22,1.49-10.86.69-16.2-1.28-8.6-5.69-13.47-13.47-14.89-4-.73-8.11-1.29-12.09-1.84-3.18-.44-6.47-.89-9.69-1.42l-1.27-.21a117,117,0,0,1-14.68-3.06c-6.24-1.86-8.83-5.2-9-11.54C251.77,90.73,251.76,90.6,251.76,90.47Z"/><path class="cls-2" d="M428.74,1.47a.75.75,0,0,1,.56-.7.86.86,0,0,1,1.05.47q1.68,4.43,3.39,8.84c2.58,6.7,5.26,13.63,7.66,20.51,3.05,8.71,9.11,14.09,18.54,16.45,1.81.46,3.61,1,5.4,1.46a101.35,101.35,0,0,0,11.2,2.67c5.29.84,10.71,1.46,16,2.06,4.25.49,8.65,1,13,1.62a127.36,127.36,0,0,1,18.74,3.64,83.74,83.74,0,0,1,9.69,3.82c2.69,1.18,5.47,2.41,8.29,3.35A27.91,27.91,0,0,0,552.86,67c5.84-.47,10.08-3.72,14.56-7.15.57-.44,1.14-.88,1.72-1.31,4.53-3.41,9-6.65,14.06-8.87,6.27-2.76,12.82-5.23,19.15-7.62,3.66-1.38,7.32-2.76,10.95-4.2l1.09-.44c6-2.41,8.81-3.15,13.1,4.69a3.45,3.45,0,0,0,.33.45,4.19,4.19,0,0,1,.44.6l4.57,7.88q4,7,8.14,14c1.07,1.81,2.18,3.59,3.3,5.38,2,3.19,4.07,6.49,5.77,9.88,5,10,7.13,21.45,6.49,34.93-.46,9.53-4.77,16.11-12.83,19.58a220.44,220.44,0,0,0-21.42,11.09c-2.22,1.25-4.44,2.5-6.68,3.74-10.93,6-19.43,5.8-29.34-.74a76.36,76.36,0,0,1-8.45-6.8c-1.81-1.6-3.67-3.26-5.61-4.76A65.62,65.62,0,0,0,562,130.76a56.26,56.26,0,0,0-33.56-6c-5.39.68-11.1,1.69-16.36,4.53-7.86,4.25-11.9,10.54-11.72,18.1.14,5.62,2.94,11,8.34,16.12,10,9.42,22.28,16.29,34,22.31a33,33,0,0,0,13.8,3.05,49.42,49.42,0,0,0,9.23-.94,69.11,69.11,0,0,1,7-.92,182.7,182.7,0,0,0,33.58-5.6A74.11,74.11,0,0,1,624,178.62a71.93,71.93,0,0,1,11.56,1.2c2.48.4,5.05.81,7.57,1a124.67,124.67,0,0,0,18.11.65c7.11-.4,13.42-3.51,19.3-9.5,4.85-5,11.41-8.24,19.47-9.77,3.24-.61,6.56-1.08,9.78-1.54l4.14-.61c14.26-2.16,25.84-8.14,34.4-17.75q4.68-5.25,9.39-10.49,5.43-6.06,10.84-12.12c7.7-8.66,18.16-13,32-13.35a.79.79,0,0,1,.85.72c.08.46-.35.74-.8.75-13.29.32-23.34,4.5-30.73,12.79q-5.4,6.07-10.84,12.13-4.69,5.24-9.38,10.49c-8.83,9.9-20.75,16-35.43,18.28l-4.15.61c-3.19.46-6.49.93-9.69,1.53-7.71,1.46-14,4.59-18.58,9.29-6.18,6.31-12.86,9.58-20.44,10a126.41,126.41,0,0,1-18.36-.65c-2.59-.22-5.19-.64-7.71-1A70.16,70.16,0,0,0,624,180.1a71.57,71.57,0,0,0-17.2,2.69,185.51,185.51,0,0,1-33.92,5.65,67.81,67.81,0,0,0-6.77.89,50.37,50.37,0,0,1-9.58,1,35,35,0,0,1-14.57-3.24c-11.87-6.08-24.25-13-34.41-22.58-5.69-5.35-8.65-11.1-8.79-17.1-.21-8.16,4.12-14.85,12.51-19.38,5.51-3,11.42-4,17-4.74a58.77,58.77,0,0,1,34.62,6.22,66.58,66.58,0,0,1,10.44,6.78c2,1.53,3.87,3.21,5.69,4.82a77.29,77.29,0,0,0,8.27,6.67c9.39,6.2,17.1,6.38,27.49.67,2.24-1.23,4.45-2.49,6.67-3.74A225.84,225.84,0,0,1,643,133.51c7.47-3.21,11.47-9.37,11.9-18.32.64-13.24-1.44-24.45-6.35-34.26-1.67-3.33-3.72-6.6-5.7-9.76-1.13-1.8-2.25-3.6-3.32-5.42-2.74-4.67-5.44-9.34-8.15-14l-4.56-7.88a4,4,0,0,0-.31-.41,4.16,4.16,0,0,1-.48-.67c-3.77-6.89-5.43-6.22-10.94-4l-1.1.44c-3.63,1.45-7.3,2.83-11,4.22-6.3,2.38-12.83,4.84-19,7.58-4.88,2.15-9.28,5.33-13.73,8.67-.58.43-1.14.87-1.71,1.3-4.48,3.44-9.12,7-15.49,7.5A29.68,29.68,0,0,1,541.6,67c-2.9-1-5.72-2.21-8.44-3.42a84.57,84.57,0,0,0-9.49-3.73A125.84,125.84,0,0,0,505.2,56.3c-4.28-.61-8.67-1.12-12.91-1.61-5.27-.6-10.72-1.23-16-2.07a102.26,102.26,0,0,1-11.4-2.71c-1.78-.5-3.57-1-5.36-1.45-10-2.51-16.44-8.21-19.67-17.43-2.4-6.86-5.06-13.78-7.64-20.47q-1.71-4.43-3.4-8.85A.67.67,0,0,1,428.74,1.47Z"/><path class="cls-2" d="M201.33,100.93c0-.22,0-.45,0-.67A7.49,7.49,0,0,1,204.8,95a13.79,13.79,0,0,1,3.14-1.49l.4-.14a77.67,77.67,0,0,0,32.06-22c5.77-6.6,12.88-12.37,19.76-17.94l2.14-1.73a107.11,107.11,0,0,1,9.35-6.58c2.56-1.67,5.2-3.4,7.62-5.24,8.4-6.38,13.26-15.31,18-23.95l.32-.6c1.77-3.25,3.59-6.47,5.42-9.7l2.51-4.45a1.76,1.76,0,0,1,2.22-.66,1.39,1.39,0,0,1,.74,2L305.93,7c-1.82,3.21-3.63,6.42-5.39,9.65l-.33.6c-4.85,8.91-9.87,18.13-18.79,24.91-2.51,1.91-5.21,3.67-7.81,5.37a106.88,106.88,0,0,0-9.08,6.38l-2.15,1.74C255.61,61.09,248.6,66.76,243,73.16A80.78,80.78,0,0,1,209.62,96.1l-.41.15a10.37,10.37,0,0,0-2.36,1.08,4.7,4.7,0,0,0-2.19,3.21,4.82,4.82,0,0,0,1.62,3.82c3.07,3.2,7.28,5,11.68,6.71,12.9,5,26.24,10.23,39.3,15.58,6.27,2.58,12.57,5.76,16.17,11.57A19.78,19.78,0,0,1,276,152.56q-1.59,8.31-3.27,16.6-1.74,8.66-3.42,17.32l-.43,2.25a89.43,89.43,0,0,0-1.87,12.76c-.7,15,6.15,23.23,22.92,27.46,10,2.52,20.15,1.82,30,1.15,8-.55,15-3.06,22.48-5.73,3-1.08,6.11-2.19,9.24-3.14l3.42-1c4.34-1.33,8.82-2.71,13.31-3.89,16.4-4.35,28.58-12.24,37.21-24.12,2.11-2.91,4.41-5.76,6.64-8.51,2.69-3.31,5.47-6.74,7.89-10.26,6.65-9.68,16.49-15.68,30.08-18.34a83.65,83.65,0,0,0,12-3.44c8.21-2.9,13.16-9.32,17.95-15.52l1.7-2.21c4.63-6,9.41-12.22,16.67-16.28a137.85,137.85,0,0,1,12.55-5.93c2.29-1,4.65-2,6.92-3.07,1.2-.57,2.42-1.13,3.63-1.68a141,141,0,0,0,12.83-6.44c4.88-2.89,5.66-5.68,2.77-10-6.73-10-13.52-16.26-22-20.24-6.49-3.05-13.63-4-21.62-4.89-8.71-1-18-2.23-28.26-3.89A173.69,173.69,0,0,1,447,57.57c-10.08-2.77-16.37-9-18.21-18a167.67,167.67,0,0,0-11-34.7,12.18,12.18,0,0,1-.66-2.14c-.07-.29-.14-.58-.22-.86A1.48,1.48,0,0,1,418.05,0a1.69,1.69,0,0,1,2,1.07c.09.32.17.64.24,1a10.28,10.28,0,0,0,.5,1.67A170.5,170.5,0,0,1,432,39c1.62,8,7,13.29,15.93,15.75a171.93,171.93,0,0,0,18,3.85c10.24,1.66,19.42,2.92,28.08,3.87,8.31.91,15.77,1.93,22.75,5.2,9.06,4.26,16.26,10.83,23.32,21.33,3.78,5.63,2.55,10.19-3.77,13.93a144.18,144.18,0,0,1-13.15,6.6l-3.61,1.67c-2.32,1.09-4.71,2.12-7,3.12a131.41,131.41,0,0,0-12.23,5.77c-6.68,3.74-11.06,9.43-15.7,15.46l-1.71,2.21c-5.06,6.57-10.3,13.35-19.45,16.58a88.28,88.28,0,0,1-12.55,3.59c-12.66,2.47-21.81,8-28,17-2.48,3.61-5.3,7.09-8,10.45-2.21,2.72-4.49,5.53-6.56,8.38-9.07,12.49-21.84,20.78-39,25.34-4.41,1.17-8.86,2.53-13.17,3.86L352.74,224c-3.05.92-6.12,2-9.08,3.08-7.37,2.63-15,5.36-23.46,5.94-9.65.66-20.58,1.4-31.13-1.26-18.29-4.61-26.09-14-25.32-30.42a91.23,91.23,0,0,1,1.91-13.14l.43-2.23c1.11-5.79,2.27-11.57,3.42-17.35,1.11-5.52,2.22-11,3.27-16.58a17.08,17.08,0,0,0-2.25-12.42c-3-4.78-8-7.58-14.66-10.31-13-5.35-26.35-10.54-39.23-15.56-4.77-1.86-9.34-3.83-12.87-7.49A7.77,7.77,0,0,1,201.33,100.93Z"/><path class="cls-2" d="M7,513.35a.77.77,0,0,1,.81-.73c14.27-.25,25.82.59,36.34,2.64a50.89,50.89,0,0,0,18.21,0c4.7-.84,9.22-3.18,13.6-5.45l1.24-.63c8.86-4.56,20.83-9.33,34.81-5.7l1.89.49a154,154,0,0,0,18.25,4c6.87.93,14.17,1.76,21.14,1A187.12,187.12,0,0,0,173,505.19c3.16-.71,6.43-1.44,9.66-2.07,9.85-1.95,18-2.18,25.74-.73a48.59,48.59,0,0,1,27.39,15.13c4.19,4.54,6.51,8.68,7.32,13,1.1,6-1,11.25-6.49,16.2-8,7.26-18.2,12.69-32.1,17.07-6.76,2.13-13.68,4.15-20.37,6.11-13.62,4-27.7,8.09-41.05,13.33l-6.73,2.65c-6.37,2.51-13,5.11-19.47,7.59-6.13,2.32-9.8,6.66-10.93,12.89-.52,2.9-.82,5.9-1.11,8.8a97.45,97.45,0,0,1-1.47,10.62,135.12,135.12,0,0,1-6.43,22,82.78,82.78,0,0,1-5.5,10.57c-1.44,2.46-2.93,5-4.17,7.58-1.34,2.76-2.84,6.35-2.61,9.5.47,6.36,7.27,11.67,14.83,11.6a236.8,236.8,0,0,0,23.7-1.4c9.88-1.08,20.42-1.63,30.49,1.68a152.16,152.16,0,0,1,15.48,6.36c2.51,1.14,5.09,2.32,7.66,3.4,7.66,3.23,17.95,6.55,29.62,3.65,7.91-2,14.1-2.7,20.07-2.36,10.23.58,17.83,3.12,23.93,8h.47c.22,0,.44,0,.64,0a.77.77,0,0,1,.72.82.81.81,0,0,1-.92.64h-.45a2.51,2.51,0,0,1-1.56-.37c-5.81-4.65-13.1-7.07-22.93-7.63-5.78-.33-11.8.38-19.52,2.3-12.2,3-22.85-.39-30.77-3.73-2.6-1.09-5.2-2.27-7.71-3.42a152,152,0,0,0-15.3-6.29c-9.74-3.2-20-2.66-29.72-1.59a237.42,237.42,0,0,1-23.88,1.4c-8.56.08-16-5.74-16.5-13-.25-3.51,1.33-7.27,2.74-10.18,1.27-2.62,2.77-5.19,4.22-7.68a80.11,80.11,0,0,0,5.41-10.39,133.15,133.15,0,0,0,6.36-21.76,95.46,95.46,0,0,0,1.45-10.47c.3-2.93.6-5.95,1.13-8.9,1.22-6.77,5.23-11.48,11.91-14,6.5-2.47,13.08-5.06,19.45-7.57l6.73-2.65c13.43-5.27,27.55-9.4,41.21-13.39,6.68-1.95,13.59-4,20.33-6.1,13.65-4.3,23.65-9.62,31.47-16.71,5.07-4.6,7-9.47,6-14.93-.76-4.08-3-8-7-12.34A47,47,0,0,0,208,503.82c-7.48-1.4-15.43-1.17-25,.73-3.21.64-6.47,1.36-9.62,2.07a188.31,188.31,0,0,1-19.85,3.71c-7.18.82-14.61,0-21.6-1a157.12,157.12,0,0,1-18.47-4l-1.88-.49C101,502.09,91,503.76,78,510.4L76.8,511c-4.49,2.32-9.14,4.73-14.11,5.62a52.76,52.76,0,0,1-18.88,0c-10.39-2-21.82-2.86-36-2.61a.79.79,0,0,1-.84-.72Z"/><path class="cls-2" d="M7,90.14A1.11,1.11,0,0,1,7,90a.83.83,0,0,1,1-.54c6.4,1.37,12.49,4.14,19.72,9,7.85,5.24,13.9,12.09,19.74,18.72.88,1,1.75,2,2.63,3,6.73,7.55,14.09,15.45,23.32,21.71a55.79,55.79,0,0,0,25,9.71c10.46,1.19,20.68-.94,31.22-6.49a77,77,0,0,1,12.87-5.63c4.86-1.51,9-.63,12,2.54A26.64,26.64,0,0,1,161.29,155a171.35,171.35,0,0,1,2.44,17.71,103.27,103.27,0,0,1,.76,15.28c-.2,4.07-.6,8.2-1,12.19a160.29,160.29,0,0,0-1.08,18.86c.24,10.91,5.82,16.2,18.08,17.14,7.62.58,15.39.06,24-.64,8.19-.66,14.11-4.06,17.59-10.11,9.19-16,18.3-35.35,16.18-57.54a35.4,35.4,0,0,0-5.45-16.29c-6.64-10.24-18.06-14.07-27.26-16.26-3.55-.85-7.11-1.65-10.68-2.45-7.33-1.66-14.91-3.37-22.25-5.42-13.58-3.81-19.16-13.35-16.13-27.61,1.69-8,6.29-14.46,10.86-20.43,8.42-11,20.56-17.25,37.12-19.08A59.85,59.85,0,0,0,221.77,56c11.3-4.86,21.27-11.77,30.91-18.45,1.52-1,3-2.11,4.56-3.15a49,49,0,0,0,20.4-29.91,7,7,0,0,1,1.09-2.17c.18-.28.36-.56.52-.84a.88.88,0,0,1,1.11-.33.7.7,0,0,1,.37,1c-.17.31-.37.61-.57.92a5.75,5.75,0,0,0-.9,1.73,50.52,50.52,0,0,1-21,30.77l-4.56,3.15C244,45.46,234,52.42,222.49,57.35a61.66,61.66,0,0,1-17.78,4.49c-16.05,1.78-27.82,7.81-36,18.45-4.47,5.84-9,12.18-10.61,19.87-2.89,13.61,2.16,22.34,15,25.93,7.3,2,14.86,3.75,22.17,5.4,3.57.8,7.14,1.61,10.7,2.46,9.51,2.26,21.31,6.23,28.26,16.94a36.75,36.75,0,0,1,5.66,16.91c2.16,22.56-7.06,42.14-16.35,58.33-3.7,6.43-10.24,10.21-18.91,10.91s-16.57,1.23-24.32.64c-13.11-1-19.34-6.91-19.6-18.58a164.72,164.72,0,0,1,1.09-19c.39-4,.79-8.08,1-12.12a102.33,102.33,0,0,0-.75-15.09,174,174,0,0,0-2.42-17.58,25.36,25.36,0,0,0-6.43-12.42c-2.55-2.71-6-3.41-10.2-2.1a74.66,74.66,0,0,0-12.56,5.51C119.6,152,109,154.19,98.2,153c-8.76-1-17.42-4.36-25.76-10-9.39-6.36-16.82-14.34-23.62-22l-2.63-3c-5.78-6.55-11.76-13.33-19.43-18.45-7-4.71-12.94-7.4-19.12-8.72A.75.75,0,0,1,7,90.14Z"/><path class="cls-2" d="M534,245.33a32.36,32.36,0,0,1,.77-6.94c2.44-11.2,10.24-18.58,23.85-22.57a164.6,164.6,0,0,1,24.76-4.89c8.34-1.12,16.44-4,25.49-9.05,9.5-5.31,18.73-7.66,28.24-7.18,3,.15,6,.38,9,.61,4,.3,8,.61,12.05.73,7.29.21,15.91.37,24.52,0,7.06-.34,12.19-2.51,15.69-6.66a66,66,0,0,1,4.75-4.86l1.62-1.57c6.64-6.5,15.53-10,24.15-12.86,14.16-4.67,24.41-11.85,31.34-22,4.52-6.61,9.21-12.92,13.93-18.76,6-7.45,14.87-11.84,26.31-13a.8.8,0,0,1,.91.64.74.74,0,0,1-.72.82c-11,1.16-19.42,5.35-25.16,12.45-4.7,5.81-9.36,12.09-13.86,18.67-7.12,10.42-17.65,17.81-32.18,22.59-9.73,3.2-17.45,6.55-23.5,12.47l-1.63,1.58a64.91,64.91,0,0,0-4.64,4.75c-3.81,4.51-9.35,6.88-16.92,7.24-8.68.41-17.33.25-24.66,0-4.06-.12-8.17-.43-12.14-.73-2.92-.23-5.94-.46-8.91-.61-9.16-.46-18.07,1.81-27.27,7s-17.56,8.12-26.12,9.26a163.94,163.94,0,0,0-24.5,4.84c-13,3.81-20.42,10.83-22.74,21.45-2.12,9.77.33,18.47,7.31,25.85l1.11,1.17c6.28,6.65,12.77,13.52,19.52,20,6.57,6.28,13.44,12.5,20.09,18.52,2.94,2.67,5.88,5.33,8.81,8,9.52,8.71,22.61,10.92,35.92,6.05,10.33-3.79,20.62-8.87,28.9-13,10.75-5.32,22.15-6,34.86-2.21a81.34,81.34,0,0,0,14.88,2.48c7.88.8,15.31-1.56,22.71-7.24,7.07-5.41,14-11.15,20.79-16.69l5.42-4.44c2.87-2.35,5.71-4.73,8.55-7.11,4.59-3.84,9.33-7.8,14.13-11.57,6.69-5.26,12.92-8.25,19.59-9.41.06-.08.12-.19.17-.27a3.11,3.11,0,0,1,.29-.47.87.87,0,0,1,1.14-.2.69.69,0,0,1,.23,1,2.32,2.32,0,0,0-.19.31,1.68,1.68,0,0,1-1.14,1c-6.44,1.09-12.48,4-19,9.1-4.79,3.76-9.52,7.71-14.09,11.54q-4.27,3.58-8.57,7.12l-5.42,4.44c-6.76,5.55-13.74,11.3-20.83,16.73-7.77,5.95-15.62,8.44-24,7.59a82.17,82.17,0,0,1-15.22-2.56c-12.24-3.68-23.21-3-33.53,2.11-8.31,4.1-18.66,9.21-29.07,13-14,5.11-27.72,2.78-37.74-6.39q-4.38-4-8.8-8c-6.66-6-13.54-12.26-20.12-18.55-6.77-6.48-13.28-13.36-19.58-20l-1.11-1.18C536.81,259.53,534,252.78,534,245.33Z"/><path class="cls-2" d="M549.48,248.5a16.5,16.5,0,0,1,2.14-8.19,20,20,0,0,1,12.74-9.3c6.11-1.58,12.31-1.93,18.3-2.26,1.56-.08,3.11-.17,4.67-.28a32.2,32.2,0,0,0,10.82-2.35,126.24,126.24,0,0,0,16.08-9c11.48-7.4,21.93-10.5,32.87-9.79,3,.2,6.09.32,9.08.43,2.39.09,4.77.18,7.16.31a72.69,72.69,0,0,1,21.19,4.63c5.15,1.89,10.59,3.34,15.29,4.56s8.22,0,11.35-3.64,4.36-8.24,5.5-12.58c2.6-9.91,8.84-16.88,18.53-20.71,5.48-2.17,11.16-4.11,16.65-6l6.4-2.21c8.9-3.12,13.77-7.83,15.32-14.81a45.47,45.47,0,0,1,2.68-7.58c.3-.73.61-1.45.9-2.17,3.61-9,8.62-15,15.78-18.77,1.46-.78,3-1.42,4.46-2,.66-.28,1.33-.56,2-.85a1.75,1.75,0,0,1,2.22.66,1.39,1.39,0,0,1-.74,2c-.67.3-1.36.59-2,.88-1.47.62-2.86,1.21-4.18,1.91-6.47,3.45-11,8.93-14.37,17.24-.3.74-.61,1.47-.92,2.21a42.87,42.87,0,0,0-2.52,7.13c-1.8,8.05-7.32,13.45-17.36,17-2.13.75-4.28,1.48-6.42,2.21-5.46,1.87-11.09,3.8-16.5,5.94-8.82,3.48-14.27,9.6-16.65,18.69-1.16,4.42-2.47,9.43-6.08,13.68a13.75,13.75,0,0,1-14.91,4.69c-4.78-1.23-10.32-2.72-15.63-4.66A68.93,68.93,0,0,0,663.14,211c-2.37-.13-4.74-.22-7.1-.31-3-.11-6.12-.23-9.18-.43-10.26-.67-19.73,2.17-30.69,9.23a126.23,126.23,0,0,1-16.53,9.22,35.52,35.52,0,0,1-12.06,2.67c-1.57.11-3.14.19-4.71.28-6.09.34-11.83.66-17.59,2.14a16.8,16.8,0,0,0-10.71,7.8,14.88,14.88,0,0,0-.42,13.31,64.86,64.86,0,0,0,15.59,22.37c9.69,9,19.86,17.33,31.19,26.48,10,8.11,20.62,5.85,27.74,2.52a194.08,194.08,0,0,0,19-10.72c1.56-1,3.12-1.92,4.68-2.86l1.59-1c6.74-4.09,13.71-8.33,21.92-10.47,6.85-1.8,16-3.63,25.79-1.88,12.62,2.26,25.07-.09,38.06-7.19a132.26,132.26,0,0,0,23.59-16.68c10.4-9.08,21.76-18.4,36.14-24a2.2,2.2,0,0,1,1.08-.13,1.57,1.57,0,0,1,1.56,1.54,1.52,1.52,0,0,1-1.59,1.4h0c-13.73,5.44-24.74,14.49-34.85,23.31a135.28,135.28,0,0,1-24.17,17.09c-13.74,7.5-27,10-40.45,7.57-9.09-1.63-17.71.11-24.2,1.81-7.7,2-14.16,5.94-21,10.09l-1.59,1c-1.56.94-3.11,1.9-4.66,2.85a197.79,197.79,0,0,1-19.37,10.91c-11.37,5.32-22.56,4.27-31.5-2.95-11.37-9.19-21.58-17.54-31.34-26.63A67.56,67.56,0,0,1,551.05,256,19.2,19.2,0,0,1,549.48,248.5Z"/><path class="cls-2" d="M7,100a.66.66,0,0,1,.07-.3.88.88,0,0,1,1.1-.37c.91.37,1.83.72,2.75,1.07A64.44,64.44,0,0,1,17,103c9.23,4.63,16.19,11.65,22.93,18.44L43,124.51c6,6,12.18,12.28,18.68,18,8.72,7.71,19.86,12.12,28.6,15.11,9.66,3.29,19.92,3.22,29.85,3.15,2.12,0,4.24,0,6.36,0,.72,0,1.44,0,2.16,0a28.42,28.42,0,0,1,7.15.48c6,1.48,10.26,5.29,12.91,11.66,4.58,11,3.62,22.42,2.26,33.18l-.34,2.56c-.9,6.81-1.75,13.24-.3,19.84,2.94,13.31,8.85,18.15,22.6,18.48,2.72.07,5.44.1,8.16.14,6.45.07,13.12.15,19.65.7,8.26.69,15.41,3.81,20.68,9a17.47,17.47,0,0,1,4.89,8.43c1.13,5.62-.28,11.53-4.33,18.09a61.32,61.32,0,0,1-33.3,26.52c-7.39,2.52-15.37,4.94-23.64,5.61-7,.57-13.66-1.61-19.66-6.48-2.74-2.22-5.09-3-7.61-2.58a15.54,15.54,0,0,0-5.23,2c-7.37,4.51-15.39,8.83-25.18,7.8-13-1.35-22.69-3.39-31.61-6.6-11.43-4.12-20.13-10.12-26.59-18.33-6.24-7.95-10.33-16.47-14.66-26-2.53-5.56-6.22-11.4-14.48-12.51a49.52,49.52,0,0,0-8.27-.17c-1.3,0-2.6.08-3.88.08a.74.74,0,1,1,0-1.47c1.26,0,2.54,0,3.82-.08a51.27,51.27,0,0,1,8.58.18c9.08,1.23,13.06,7.48,15.76,13.42,4.29,9.44,8.34,17.88,14.49,25.7,6.27,8,14.72,13.81,25.85,17.81,8.77,3.17,18.39,5.17,31.18,6.51,9.23,1,16.65-3,24.06-7.55a16.92,16.92,0,0,1,5.84-2.21c4-.7,7.08,1.34,9,2.93,5.65,4.58,11.84,6.63,18.4,6.1,7.62-.61,14.79-2.65,23.2-5.51a59.8,59.8,0,0,0,32.44-25.85c3.86-6.26,5.22-11.86,4.15-17.13a16,16,0,0,0-4.49-7.71,31.1,31.1,0,0,0-19.6-8.55c-6.47-.54-13.11-.62-19.53-.69-2.72,0-5.45-.07-8.18-.13-16.61-.41-21.56-7.83-24.17-19.68-1.5-6.83-.6-13.67.28-20.29l.34-2.56c1.34-10.58,2.28-21.81-2.17-32.5-2.45-5.89-6.31-9.4-11.8-10.75a27.63,27.63,0,0,0-6.68-.43c-.73,0-1.47,0-2.2,0q-3.17,0-6.34,0c-10.08.07-20.5.14-30.45-3.25-8.89-3-20.24-7.53-29.17-15.43C54,137.8,47.74,131.54,41.73,125.48l-3.09-3.11c-6.64-6.69-13.52-13.62-22.5-18.13a61.8,61.8,0,0,0-5.86-2.45c-.93-.36-1.86-.71-2.79-1.09A.73.73,0,0,1,7,100Z"/><path class="cls-2" d="M127,649.76a28.58,28.58,0,0,1,.38-4.36c2-13.27,8.47-25.42,13.12-33.41,7.24-12.41,19.65-21.07,36.9-25.75,12.06-3.27,24.45-6.19,36.43-9q8.76-2.06,17.51-4.17c12.54-3.06,23.26-2,32.77,3.31l.43.24a205.8,205.8,0,0,1,19.05,11.5c14.08,10,22.42,21.4,25.5,34.95,2.55,11.18,8.32,18.27,17.64,21.67A87.6,87.6,0,0,0,344,649.57c18.1,2.57,33.2,10.19,44.9,22.65,5.11,5.44,9.81,10.89,11.13,17.67a66,66,0,0,1,.86,12.06c0,1.78,0,3.55.12,5.32a.78.78,0,0,1-.79.76.79.79,0,0,1-.86-.7c-.08-1.78-.1-3.57-.12-5.36a65,65,0,0,0-.84-11.83c-1.25-6.42-5.81-11.69-10.77-17-11.59-12.35-25.95-19.59-43.89-22.14-6.2-.88-12.35-3-17.63-4.93-9.86-3.61-16-11.05-18.63-22.75-3-13.19-11.15-24.34-24.91-34.09a207.25,207.25,0,0,0-18.89-11.41l-.44-.23c-9.09-5.06-19.38-6.09-31.45-3.14-5.84,1.42-11.68,2.8-17.53,4.18-12,2.82-24.34,5.73-36.36,9-16.82,4.56-28.9,13-35.92,25-4.6,7.89-10.95,19.89-12.95,32.93-1.26,8.2.16,12.84,11.69,17,8.76,3.19,18,5.72,27,8.16,3.54,1,7.07,1.93,10.59,2.94,9.72,2.78,19.43,1.27,28.48-.78a81.63,81.63,0,0,1,42.13,1.54c1.12.34,2.25.66,3.38,1,4.83,1.4,9.82,2.85,14.16,5.19,11.53,6.19,19,15,22.29,26.09a.72.72,0,0,1-.59.89.84.84,0,0,1-1-.52c-3.15-10.73-10.4-19.21-21.54-25.2-4.18-2.25-9.08-3.67-13.82-5l-3.4-1a79.87,79.87,0,0,0-41.19-1.5c-9.29,2.1-19.28,3.65-29.39.75q-5.28-1.5-10.58-2.93c-9-2.45-18.27-5-27.1-8.2C130,660.3,127,655.93,127,649.76Z"/><path class="cls-2" d="M7,232.86a.77.77,0,0,1,.64-.72c2.08-.43,4.15-.92,6.22-1.4A126.49,126.49,0,0,1,28,228c10.87-1.26,20.49,4.74,23.38,14.58a86,86,0,0,1,2.43,13.2c.15,1.16.3,2.32.46,3.48l.32,2.28c1.25,9.11,2.43,17.71,8.62,25.32s14.64,11.62,26.43,12.43c13.44.92,24.24-3.74,33-14.23l2-2.45c3-3.66,6.18-7.44,9.53-11,6.12-6.48,7.82-14.26,5.36-24.49A136.76,136.76,0,0,1,136,208.45c.08-1.64.21-3.29.33-4.94a78.61,78.61,0,0,0,.36-10.18c-.28-5.21-1.38-11.74-7.54-16-3.81-2.66-8.6-4.29-15.07-5.12a150.47,150.47,0,0,1-45.9-13.87c-14.91-7.08-26-18-34.84-27.71-5.83-6.41-14-14.34-25.4-18.93a.71.71,0,0,1-.41-1,.88.88,0,0,1,1.09-.37c11.73,4.72,20.06,12.82,26,19.35C43.33,139.27,54.26,150,68.9,157a148.65,148.65,0,0,0,45.37,13.71c6.76.87,11.8,2.6,15.85,5.42,6.69,4.67,7.88,11.61,8.17,17.14a79.06,79.06,0,0,1-.36,10.34c-.12,1.64-.25,3.27-.33,4.91a135.94,135.94,0,0,0,3.57,38.31c2.58,10.72.77,18.9-5.71,25.75-3.31,3.51-6.44,7.27-9.46,10.92l-2,2.44c-9.15,10.94-20.42,15.79-34.47,14.83-12.14-.84-21.18-5.1-27.64-13s-7.7-17.11-8.92-26l-.32-2.28c-.16-1.16-.31-2.33-.47-3.5a84.42,84.42,0,0,0-2.38-13c-2.68-9.11-11.55-14.66-21.57-13.5a125,125,0,0,0-13.9,2.7c-2.09.48-4.17,1-6.27,1.41A.84.84,0,0,1,7,233,1,1,0,0,1,7,232.86Z"/><path class="cls-2" d="M647.47,46.16c0-6.91,3.23-12.64,9.71-17.34l3.45-2.5c9.35-6.78,19-13.78,28.76-20.41C694,2.74,699.22,0,705.5,1.5,717.17,4.25,726.41,11,733,21.62c1.8,2.92,3.53,5.93,5.19,8.84s3.39,5.9,5.18,8.8c4,6.54,8.82,10.42,14.2,11.52,5,1,10.6-.35,16.6-4.12a208.23,208.23,0,0,0,17.67-12.89c2.58-2,5.15-4,7.77-6a.91.91,0,0,1,1.17.09.68.68,0,0,1-.1,1c-2.61,2-5.18,4-7.75,6a211,211,0,0,1-17.8,13c-6.41,4-12.44,5.48-17.93,4.35-5.86-1.21-11-5.33-15.28-12.25-1.8-2.92-3.53-5.93-5.2-8.85s-3.38-5.89-5.17-8.79C725.1,12,716.45,5.6,705.07,2.92c-5.58-1.32-10.36,1.22-14.68,4.16-9.72,6.61-19.38,13.61-28.71,20.38L658.22,30c-9.9,7.17-11.71,16.54-5.69,29.5,1.34,2.87,2.85,5.75,4.31,8.54,3.57,6.83,7.27,13.9,8.83,21.64,2,10,4,18.91,6,27.18,2.87,12,9.19,19.66,19.33,23.45,16,6,30.37,4.64,44-4.05,10.45-6.65,18.38-15.64,26.06-24.34l.28-.32c8.49-9.63,19.48-15.42,32.68-17.23a8.65,8.65,0,0,1,2.22.06c1.52.17,2.42.21,3.18-.79a.9.9,0,0,1,1.15-.19.68.68,0,0,1,.22,1c-1.37,1.8-3.25,1.59-4.76,1.42a7.55,7.55,0,0,0-1.75-.07c-13,1.78-23.31,7.23-31.64,16.69l-.28.32c-7.75,8.78-15.76,17.86-26.4,24.63-14,8.89-29.34,10.3-45.65,4.21-10.67-4-17.32-12-20.31-24.5-2-8.29-3.94-17.19-6-27.23-1.53-7.55-5.18-14.53-8.71-21.28-1.47-2.8-3-5.69-4.33-8.6A33.29,33.29,0,0,1,647.47,46.16Z"/><path class="cls-2" d="M470.83,606.37c0-8.23,4.74-13.36,14.1-15.27a49.15,49.15,0,0,1,30.24,3.33c7,3.14,13.69,6.9,20.2,10.54,1.9,1.06,3.8,2.12,5.7,3.16,2.91,1.61,5.82,3.31,8.63,5,3.39,2,6.91,4,10.44,5.94,8.25,4.39,17.54,7,26.52,9.55l3.45,1c8.48,2.43,15.12,3.42,21.53,3.21,4.29-.14,9-.14,14.72,0l2.47,0a53.62,53.62,0,0,1,10,.74c12.87,2.61,23.42,16.9,20.9,28.33-1.92,8.68-.87,17.58,3.12,26.43q2.88,6.38,5.78,12.75l2.55,5.62a.72.72,0,0,1-.46,1,.87.87,0,0,1-1.08-.41l-2.55-5.62q-2.89-6.37-5.77-12.75c-4.11-9.13-5.19-18.3-3.21-27.27,2.36-10.73-7.55-24.15-19.64-26.6a52.13,52.13,0,0,0-9.64-.71l-2.48,0c-5.72-.14-10.36-.14-14.62,0-6.61.22-13.43-.79-22.09-3.27l-3.45-1c-9.08-2.57-18.46-5.22-26.86-9.7-3.57-1.9-7.1-4-10.51-6-2.8-1.64-5.7-3.33-8.59-4.92q-2.87-1.57-5.71-3.17c-6.48-3.63-13.18-7.37-20.07-10.48a47.29,47.29,0,0,0-29.12-3.2c-8.84,1.8-13,6.53-12.81,14.41a91.22,91.22,0,0,0,7.57,33.27c2.74,6.45,8.63,11,18,13.78,6.92,2.09,13.69,4.18,20.27,6.78,5.41,2.14,9.94,5.91,14.26,11.87a319.77,319.77,0,0,0,27.32,33.12,2.19,2.19,0,0,1,.48,1c0,.1.05.2.09.3a.73.73,0,0,1-.53.93.85.85,0,0,1-1-.47c0-.13-.09-.28-.13-.42a1.6,1.6,0,0,0-.13-.39,320.73,320.73,0,0,1-27.45-33.28c-4.13-5.7-8.44-9.3-13.54-11.31-6.52-2.58-13.24-4.66-20.13-6.74-9.87-3-16.09-7.76-19-14.64A92.64,92.64,0,0,1,470.84,607C470.83,606.78,470.83,606.58,470.83,606.37Z"/><path class="cls-2" d="M6.18,215.9a1.52,1.52,0,0,1,1.28-1.43c2.08-.43,4.15-.91,6.21-1.4,6-1.4,12.18-2.85,18.73-3,9.91-.17,18.12,3.38,26.64,11.5,9.61,9.16,11.48,20.29,12.07,31,.42,7.73.86,15.72,4.68,23.22,1.82,3.58,5.51,6.48,10.12,8a20.46,20.46,0,0,0,14.45-.61c5.7-2.47,10.41-6.46,14.84-12.54,6.43-8.83,9.31-17.91,8.82-27.78q-.26-5-.48-10c-.33-7.24-.68-14.73-1.17-22.07a99.26,99.26,0,0,0-2-14.29c-1.51-7-6.69-11.63-16.79-15.12-14.62-5.06-29.55-10.07-44-14.92L43,160.76c-8.83-3-14.58-7.47-18.07-14.13-4.75-9-10.2-15.09-17.14-19a1.55,1.55,0,0,1-1.56-1.46,1.57,1.57,0,0,1,1.66-1.48,2.08,2.08,0,0,1,1.26.23c10.1,5.52,15.55,14.31,18.77,20.45,3.11,5.93,8.28,9.94,16.26,12.63l16.66,5.6c14.45,4.86,29.39,9.87,44,14.94,7,2.41,16.57,6.84,18.83,17.3a101.72,101.72,0,0,1,2,14.67c.49,7.38.84,14.87,1.17,22.12.16,3.35.31,6.7.48,10.05.52,10.48-2.53,20.15-9.34,29.51-4.77,6.55-9.91,10.87-16.17,13.59a24.13,24.13,0,0,1-17,.73c-5.45-1.75-9.83-5.22-12-9.52-4.07-8-4.52-16.28-5-24.29-.56-10.1-2.3-20.62-11.19-29.09-7.82-7.46-15.27-10.72-24.16-10.57-6.15.11-11.88,1.45-17.94,2.87-2.1.49-4.2,1-6.31,1.42a1.67,1.67,0,0,1-2-1.1A1.33,1.33,0,0,1,6.18,215.9Z"/><path class="cls-2" d="M12.32,56.31c0-3,1.33-6,4-9.65,1.4-1.94,2.91-3.86,4.37-5.71a105.25,105.25,0,0,0,7-9.52,24.53,24.53,0,0,0,3.62-13.34c-.06-3.87-.05-7.73,0-11.6v-5a.83.83,0,0,1,1.65,0v5c0,3.85,0,7.71,0,11.57a25.94,25.94,0,0,1-3.82,14.08,109.28,109.28,0,0,1-7,9.65c-1.45,1.84-3,3.74-4.33,5.65-5.33,7.34-4.93,12,1.56,18.47A92.35,92.35,0,0,0,31.4,75.74q2.25,1.58,4.53,3.12c6.39,4.37,13,8.88,18.15,14.73S63.92,105.2,68,110.21s8.74,10.4,15.28,13.87c9.45,5,14.85,4.76,21.42-1,3.4-3,6.37-7.06,9.37-12.78a109.05,109.05,0,0,1,11.69-18.1l3-3.7c5.79-7.14,11.79-14.52,17.1-22.1,1-1.41,1.94-2.84,2.89-4.27,3.09-4.65,6.29-9.47,10.81-13.48,7.29-6.46,16.07-12.19,27.62-18,8.25-4.18,16.34-5.56,24.76-4.21a50.36,50.36,0,0,0,16.29-.3c16.7-2.92,27-11.25,30.73-24.76a.83.83,0,0,1,1-.54.73.73,0,0,1,.61.89c-3.86,14.11-14.63,22.81-32,25.85a52.14,52.14,0,0,1-16.9.31c-8-1.29-15.76,0-23.65,4-11.43,5.78-20.09,11.44-27.27,17.8-4.38,3.88-7.52,8.62-10.56,13.19-1,1.44-1.91,2.88-2.91,4.3-5.34,7.62-11.35,15-17.16,22.18l-3,3.7a107.43,107.43,0,0,0-11.53,17.86c-3.08,5.88-6.17,10.08-9.71,13.2-7.15,6.33-13.28,6.66-23.42,1.27-6.81-3.62-11.72-9.27-15.78-14.27S57.77,100.19,52.78,94.5,41.24,84.34,34.92,80q-2.28-1.56-4.55-3.13A94.14,94.14,0,0,1,18,66.9C14.19,63.1,12.32,59.8,12.32,56.31Z"/><path class="cls-2" d="M486.78,621a33.07,33.07,0,0,1,.87-7.39c1-4.26,4.05-7.4,8.64-8.83,5.34-1.67,10.06-.69,14.44.46,9.31,2.45,17.24,7.3,24.92,12l.73.44,3.86,2.39a131.91,131.91,0,0,0,15.55,8.73A75.32,75.32,0,0,0,568,632.53c2.07.51,4.21,1.05,6.28,1.66q7.44,2.19,14.85,4.45c9.93,3,20.2,6.11,30.39,8.87,12.37,3.35,18.87,9.86,20.46,20.47a88.72,88.72,0,0,0,3.12,12.62c1.85,6.11,5.3,11.73,8.63,17.16,1.77,2.87,3.59,5.85,5.17,8.87a.71.71,0,0,1-.4,1,.88.88,0,0,1-1.1-.36c-1.56-3-3.37-5.93-5.12-8.79-3.38-5.5-6.88-11.19-8.78-17.48a91,91,0,0,1-3.16-12.81c-1.49-10-7.62-16.09-19.3-19.25-10.21-2.77-20.5-5.88-30.44-8.89-4.94-1.49-9.88-3-14.84-4.45-2-.59-4.15-1.12-6.2-1.63a76,76,0,0,1-12.46-3.88,132,132,0,0,1-15.76-8.83c-1.28-.8-2.56-1.6-3.85-2.38l-.73-.45c-7.57-4.63-15.39-9.41-24.45-11.79-4.11-1.09-8.54-2-13.42-.49-5.16,1.6-7,5.09-7.57,7.73-2.11,9.2-.21,17.43,5.62,24.47,3.3,4,8.3,5.76,12.72,7.13,1.87.58,3.82,1.09,5.7,1.58,2.71.71,5.51,1.44,8.19,2.4,7.85,2.83,13.82,8.07,18.78,16.49a124,124,0,0,0,10.22,14.41c5.86,7.34,14.38,12.22,22.61,16.94l2.88,1.66c2.73,1.58,5.38,3.33,7.94,5,1.2.8,2.41,1.59,3.62,2.38a.68.68,0,0,1,.19,1,.9.9,0,0,1-1.16.17q-1.83-1.18-3.64-2.39c-2.54-1.68-5.17-3.42-7.85-5l-2.87-1.65c-8.37-4.8-17-9.76-23.07-17.32a127.68,127.68,0,0,1-10.33-14.58c-4.77-8.1-10.47-13.12-17.94-15.81-2.6-.94-5.36-1.66-8-2.36-1.9-.49-3.87-1-5.78-1.6-4.65-1.44-9.92-3.34-13.49-7.65A27.9,27.9,0,0,1,486.78,621Z"/><path class="cls-2" d="M7,78.84a.8.8,0,0,1,.08-.33.88.88,0,0,1,1.11-.33c1.85.8,3.72,1.58,5.59,2.35C17.88,82.23,22.1,84,26.06,86c13.62,7.07,22.59,18.08,31.27,28.73,6.61,8.11,14.61,17.24,25.94,23.08,9.14,4.71,22.47,6.17,31.64-1.15a44.16,44.16,0,0,0,11.14-13c1.91-3.4,3.69-7,5.41-10.38,2.08-4.15,4.23-8.44,6.64-12.52,9.35-15.83,19-28.94,29.38-40.09,9-9.59,20.56-14.77,35.48-15.84a122.72,122.72,0,0,0,15.73-1.8c7.32-1.49,14.56-4.34,22.8-9,9-5.07,17.51-10.33,22.19-18.86a66.84,66.84,0,0,0,4-9.55c.53-1.49,1.06-3,1.64-4.45a.85.85,0,0,1,1.05-.45.71.71,0,0,1,.51.93c-.58,1.46-1.1,2.94-1.63,4.42a66.37,66.37,0,0,1-4.07,9.75c-4.86,8.87-13.55,14.27-22.79,19.46-8.4,4.72-15.8,7.63-23.31,9.15a124.3,124.3,0,0,1-15.94,1.84c-14.48,1-25.71,6.05-34.37,15.31-10.34,11.07-19.89,24.1-29.19,39.83-2.39,4-4.52,8.31-6.59,12.44-1.73,3.44-3.51,7-5.45,10.44A45.51,45.51,0,0,1,116,137.79c-9.79,7.82-23.92,6.31-33.58,1.33-11.61-6-19.74-15.26-26.44-23.48-8.58-10.53-17.45-21.41-30.77-28.33-3.89-2-8.09-3.76-12.14-5.44-1.88-.78-3.76-1.56-5.62-2.37A.74.74,0,0,1,7,78.84Z"/><path class="cls-2" d="M7,492.86a.76.76,0,0,1,.68-.72l5.85-1c4.59-.76,9.32-1.54,14-2.18A85,85,0,0,1,40.38,488c18.67.32,33.74-.79,47.44-3.48,6.3-1.24,12.77-2.16,19-3,4.56-.64,9.27-1.31,13.87-2.09a18.89,18.89,0,0,0,7.14-3c3.06-2.1,2.85-5.27,2.18-8.39-1.13-5.19-2.05-10.43-2.8-14.87l-.54-3.09c-.71-4.08-1.45-8.31-1.81-12.51-.64-7.73-5.18-13.33-14.72-18.12-10.64-5.35-22.52-8.19-34-10.92-2.48-.59-5-1.19-7.44-1.8a149.47,149.47,0,0,1-21.12-6.45c-14-5.78-26.67-3.59-38.81,6.69a.9.9,0,0,1-1.17,0,.68.68,0,0,1,0-1c12.69-10.74,26-13,40.65-6.95a148.1,148.1,0,0,0,20.86,6.36c2.47.62,5,1.21,7.43,1.8C88.19,409.75,100.17,412.6,111,418c9.94,5,14.88,11.14,15.56,19.3.35,4.14,1.08,8.34,1.8,12.4l.53,3.09c.75,4.43,1.67,9.65,2.79,14.81.74,3.41,1,7.24-2.79,9.83a20.29,20.29,0,0,1-7.84,3.31c-4.63.79-9.35,1.46-13.92,2.1-6.24.89-12.69,1.8-18.94,3-13.83,2.72-29,3.84-47.83,3.53a83.24,83.24,0,0,0-12.55,1c-4.66.64-9.38,1.42-13.95,2.18-2,.32-3.91.65-5.87,1a.83.83,0,0,1-1-.6A.53.53,0,0,1,7,492.86Z"/><path class="cls-2" d="M688.16,683.36a18,18,0,0,1,5.43-12.91c9.34-9.55,21.76-15.8,36.94-18.58,8.47-1.55,16.48-3,22.55-8.68,1.21-1.13,2.44-2.25,3.66-3.37a154.29,154.29,0,0,0,11.69-11.46c6.74-7.67,13.17-15.77,19.38-23.6l1.68-2.12c4-5,3.78-7.69-.73-12.1a45,45,0,0,0-5.2-4.14l-2.7-1.95C776,581,771,577.35,768,572c-4.73-8.38-6.17-17.4-4.52-28.37,1.33-8.84,6-15.6,14.34-20.65,7.08-4.3,15.26-6.38,22.48-8.2a.83.83,0,0,1,1,.5.73.73,0,0,1-.57.91c-7.09,1.8-15.13,3.84-22,8-7.91,4.8-12.37,11.22-13.63,19.63-1.6,10.67-.22,19.41,4.36,27.51,2.87,5.08,7.51,8.43,12.43,12l2.7,2a47.29,47.29,0,0,1,5.38,4.29c5,4.9,5.24,8.42.86,13.94l-1.68,2.12c-6.23,7.85-12.66,16-19.43,23.65a153.78,153.78,0,0,1-11.81,11.59c-1.22,1.12-2.44,2.23-3.64,3.36-6.43,6-15.07,7.57-23.42,9.1-14.81,2.71-26.93,8.8-36,18.11-5.06,5.18-6.3,11.42-3.8,19.06,1.26,3.83,2.68,7.71,4.05,11.45.63,1.71,1.25,3.43,1.87,5.14a.72.72,0,0,1-.54.93.86.86,0,0,1-1-.48c-.61-1.71-1.24-3.42-1.86-5.13-1.38-3.76-2.8-7.64-4.06-11.5A24.05,24.05,0,0,1,688.16,683.36Z"/><path class="cls-2" d="M687.59,490.11c0-12.61,7-23.85,20.83-33.44,10.53-7.29,22.65-5,30.85-2.64,3.59,1,7.16,2.11,10.73,3.18,4.67,1.41,9.49,2.87,14.27,4.19,9.32,2.56,19.07,5.82,27.26,12.19l1.15.88c3.34,2.56,6.79,5.2,8.22,9.35a.71.71,0,0,1-.54.92.86.86,0,0,1-1-.49c-1.29-3.74-4.42-6.13-7.72-8.66l-1.15-.89c-8-6.19-17.52-9.38-26.67-11.9-4.8-1.32-9.63-2.78-14.31-4.19-3.57-1.08-7.13-2.15-10.71-3.18-12.64-3.63-21.68-2.89-29.32,2.41-14.08,9.75-20.67,20.76-20.17,33.58.54,13.79,7.27,24.05,20,30.49,6.47,3.28,13.17,2.68,20.49-1.82,11.64-7.18,24.63-10.81,39.18-14.5l1.22-.31c8.74-2.21,17.78-4.5,25.49-9.17a15.3,15.3,0,0,0,2.65-2.24c.4-.4.81-.8,1.23-1.17a.9.9,0,0,1,1.17,0,.68.68,0,0,1,0,1c-.4.36-.79.74-1.18,1.12a16.4,16.4,0,0,1-2.94,2.46c-7.93,4.81-17.1,7.13-26,9.38l-1.21.3c-14.41,3.66-27.27,7.25-38.7,14.3-7.89,4.86-15.17,5.48-22.25,1.89-13.08-6.61-20.28-17.58-20.83-31.72C687.6,491,687.59,490.56,687.59,490.11Z"/><path class="cls-2" d="M7,440.29a1.69,1.69,0,0,1,.13-.66l.75-1.77c1.24-2.94,2.53-6,4-8.88,2.9-5.56,5.94-10.87,11.29-14.77,6.38-4.64,14.36-6,23.72-3.94l5.91,1.26c13.07,2.76,26.59,5.61,38.81,11.72,8.75,4.37,14.53,9.84,17.68,16.73a38,38,0,0,1,2.76,20.81c-.58,4.53-2.34,7.59-5.4,9.34l-.92.52a47,47,0,0,1-9.18,4.46c-15.22,4.86-31.07,4.63-45.93,3.65-1.83-.12-3.66-.27-5.49-.42l-3.64-.28c-1.91-.14-3.83-.3-5.74-.46-4.48-.37-9.11-.76-13.66-.88-3.23-.1-6.54.13-9.74.35-1.49.1-3,.21-4.47.28a.79.79,0,0,1-.87-.7.78.78,0,0,1,.78-.77c1.48-.07,3-.17,4.43-.28,3.25-.22,6.61-.45,9.92-.36,4.6.13,9.26.52,13.76.89,1.91.16,3.82.32,5.73.46l3.64.29c1.83.14,3.65.29,5.47.41,14.68,1,30.32,1.21,45.25-3.57a46.06,46.06,0,0,0,8.85-4.3l.91-.53c2.65-1.52,4.13-4.15,4.66-8.27a36.58,36.58,0,0,0-2.65-20.08c-3-6.57-8.55-11.81-17-16-12-6-25.42-8.83-38.38-11.57q-3-.61-5.92-1.26c-9-1.94-16.24-.75-22.29,3.65-5.08,3.7-7.91,8.64-10.83,14.25-1.48,2.85-2.75,5.86-4,8.77l-.76,1.78a1.85,1.85,0,0,0,.09.76,5.78,5.78,0,0,1,.12.66.76.76,0,0,1-.74.8.8.8,0,0,1-.9-.66,4.91,4.91,0,0,0-.1-.5A4,4,0,0,1,7,440.29Z"/><path class="cls-2" d="M42.23,57.61a13.79,13.79,0,0,1,.17-2.18,37.93,37.93,0,0,1,2.82-9.7,69.09,69.09,0,0,0,5.85-31.52C51,11.28,51,8.31,51,5.44c0-1.32,0-2.65,0-4a.84.84,0,0,1,1.66,0c0,1.33,0,2.65,0,4,0,2.86-.05,5.82,0,8.72a70.46,70.46,0,0,1-6,32.11A36,36,0,0,0,44,55.63c-1.07,7,3.76,11.95,8.08,15.51C60,77.61,68.24,83.61,77.43,90.22c3.33,2.39,6.76,4.86,11.15,4a24.84,24.84,0,0,0,8.76-3,215.65,215.65,0,0,0,20.9-14.45A38.62,38.62,0,0,0,130,60.91c3.68-9.58,10.45-17,20.69-22.59,11.81-6.49,20.57-12.75,27.54-19.69,5.68-5.64,9.71-10.74,10.94-17.28a.82.82,0,0,1,.95-.6.74.74,0,0,1,.68.84c-1.38,7.3-6.26,13-11.33,18-7.09,7.05-16,13.39-27.91,20-9.9,5.44-16.44,12.58-20,21.81a39.94,39.94,0,0,1-12.15,16.47A216.91,216.91,0,0,1,98.3,92.42a26.79,26.79,0,0,1-9.39,3.3c-5.15.94-9.06-1.87-12.51-4.36C67.18,84.74,58.9,78.72,51,72.23,46.83,68.8,42.23,64.11,42.23,57.61Z"/><path class="cls-2" d="M719.85,381.52a4.59,4.59,0,0,1,.1-1,6,6,0,0,1,3.19-3.77,20.77,20.77,0,0,1,6.63-2.54c5.31-.84,11.17-1.56,17.89-2.18,11.53-1.07,18.18-5.82,21.59-15.39,2.6-7.32,3-15,3.33-22.43.1-2,.2-4,.34-6l0-.47c.46-6.62.94-13.46,3.48-19.83,3.77-9.39,9.86-21,23.69-27.63a.87.87,0,0,1,1.12.3.69.69,0,0,1-.33,1c-13.34,6.38-19.26,17.69-22.92,26.84-2.47,6.17-2.94,12.91-3.39,19.42l0,.47c-.14,2-.24,4-.34,6-.36,7.52-.74,15.31-3.41,22.81-3.58,10.07-10.88,15.29-23,16.41-6.68.62-12.5,1.33-17.77,2.17a19.2,19.2,0,0,0-6,2.34,4.5,4.5,0,0,0-2.43,2.81,4.13,4.13,0,0,0,1.06,3.51c3.27,4.13,8.3,6.77,15.38,8.09a42.39,42.39,0,0,1,21.86,10.88c5.38,5,11.27,10.15,18.77,12.81,5.41,1.91,11.25,3.47,17.28,1.9a10.73,10.73,0,0,1,3.25-.14c.45,0,.9.06,1.33.06a.74.74,0,1,1,0,1.47c-.47,0-1,0-1.45-.06a8.56,8.56,0,0,0-2.66.09c-6.51,1.68-12.67.06-18.36-1.95-7.81-2.77-13.85-8-19.36-13.16a40.73,40.73,0,0,0-21-10.46c-7.51-1.39-12.87-4.23-16.39-8.68A5.9,5.9,0,0,1,719.85,381.52Z"/><path class="cls-2" d="M405.68,650.56c0-2.56,1.33-5,4-7.59a114.39,114.39,0,0,1,16.74-12.82,15.93,15.93,0,0,1,12.95-2.49c5.26,1.24,8.9,4,11.14,8.36a160.32,160.32,0,0,1,6.8,15.59c3,7.87,8.42,12.67,16.55,14.69l3.74.94c5.11,1.29,10.39,2.63,15.65,3.6,14.1,2.62,24.68,9.18,31.45,19.5,2.41,3.67,4.69,7.47,6.89,11.16q1.53,2.55,3.07,5.09a.7.7,0,0,1-.33,1,.88.88,0,0,1-1.12-.3c-1-1.69-2.06-3.4-3.08-5.1-2.19-3.67-4.47-7.46-6.86-11.11-6.62-10.09-16.55-16.23-30.35-18.8-5.32-1-10.63-2.33-15.77-3.62l-3.73-.94c-8.7-2.16-14.48-7.27-17.68-15.63A156.64,156.64,0,0,0,449,636.63c-2-4-5.3-6.43-10.05-7.55a14,14,0,0,0-11.55,2.26A112.25,112.25,0,0,0,410.87,644c-4.95,4.77-4.73,8.93.77,14.35a76.62,76.62,0,0,0,10.82,8.35l1.69,1.15c5.93,4.08,10.67,7.69,13.07,13.76s2.1,12.2,1.45,17.32a47,47,0,0,1-1.29,5.93c-.23.87-.46,1.74-.66,2.62a.83.83,0,0,1-1,.57.74.74,0,0,1-.64-.87c.21-.89.44-1.77.67-2.65a44.3,44.3,0,0,0,1.25-5.77c.64-5,1-10.8-1.36-16.67-2.25-5.68-6.8-9.14-12.52-13.08l-1.68-1.14a77.9,77.9,0,0,1-11-8.53C407.25,656.2,405.68,653.33,405.68,650.56Z"/><path class="cls-2" d="M7,653.25a.73.73,0,0,1,.37-.62c9.35-5.48,20.1-6.3,30.5-7.1l1.22-.1c2.59-.2,5.16-.47,7.74-.74,2.18-.22,4.36-.45,6.54-.64l.57,0c3.47-.29,7.06-.6,10.61-.63,2.2,0,3.51.29,4.37,1s1.18,2,1.21,3.89a13.78,13.78,0,0,1-.45,4.07c-2.78,8.82-5.94,18.82-5.11,29.08.56,7,3.47,11.92,9.15,15.38,6.74,4.1,14.39,4.68,21,4.72,8.31,0,16.39-2.18,24.21-4.32l.91-.24a57.74,57.74,0,0,1,26.6-1.28c6.78,1.34,13.15,4.47,19.47,9.59a6,6,0,0,0,1.6.77l1,.38a.7.7,0,0,1,.36,1,.88.88,0,0,1-1.11.33c-.27-.12-.56-.23-.86-.34a7.07,7.07,0,0,1-2.07-1c-6.11-4.94-12.23-8-18.72-9.25a56.05,56.05,0,0,0-25.76,1.25l-.91.25c-7.93,2.17-16.14,4.41-24.7,4.38-6.86,0-14.82-.65-21.92-5-6.13-3.73-9.27-9-9.87-16.49-.85-10.5,2.35-20.64,5.17-29.58a12.4,12.4,0,0,0,.38-3.68c0-1.45-.2-2.38-.71-2.83s-1.5-.65-3.19-.63c-3.48,0-7,.34-10.48.63l-.56,0c-2.17.18-4.34.41-6.51.63-2.59.28-5.18.55-7.78.75L38,647c-10.2.79-20.74,1.6-29.74,6.87a.89.89,0,0,1-1.15-.21A.66.66,0,0,1,7,653.25Z"/><path class="cls-2" d="M7,273.13a.59.59,0,0,1,0-.25.86.86,0,0,1,1.06-.44c12.2,3.91,20.63,12.2,28.79,20.22l.49.48,2.48,2.45c5,5,10.16,10.11,16.43,14,2.09,1.31,4.16,2.65,6.23,4,4.14,2.69,8.43,5.47,12.83,7.91,9.09,5.06,14.45,11.56,15.94,19.33a52.42,52.42,0,0,1,0,20.32C89.74,368.73,86.86,376,83,384.62c-1.66,3.71-5.77,5.87-11.28,5.92-5.86,0-11-1.72-16.2-3.7-11.69-4.46-22.28-5.35-32.36-2.73-3.5.91-7,2.12-10.35,3.28-1.56.54-3.12,1.08-4.69,1.6a.86.86,0,0,1-1.06-.44.71.71,0,0,1,.49-.94c1.56-.51,3.11-1.05,4.66-1.59,3.4-1.18,6.92-2.39,10.49-3.32,10.46-2.72,21.41-1.81,33.47,2.78,5,1.92,10,3.63,15.53,3.59,4.81,0,8.37-1.87,9.77-5,3.81-8.52,6.67-15.72,8.2-23.15a51.31,51.31,0,0,0,0-19.8c-1.4-7.34-6.51-13.51-15.19-18.33-4.45-2.47-8.76-5.27-12.92-8-2.06-1.33-4.13-2.67-6.21-4-6.42-4-11.65-9.22-16.71-14.25l-2.48-2.45-.49-.49c-8-7.88-16.31-16-28.12-19.82A.74.74,0,0,1,7,273.13Z"/><path class="cls-2" d="M75.6,45.47c0-7.63,3.17-14.38,9.45-20.1,6.64-6.05,9.81-12.61,9.68-20a10.62,10.62,0,0,1,.47-2.84c.11-.4.21-.79.29-1.19a.82.82,0,0,1,1-.59.75.75,0,0,1,.67.85c-.09.42-.2.85-.31,1.27a8.57,8.57,0,0,0-.43,2.48c.09,7.82-3.19,14.71-10.15,21C80,32.13,77,38.93,77.28,46.66c.24,5.48,4,9.77,9.76,11.22,4.5,1.13,9.22,1.52,13.27-3.23A27.37,27.37,0,0,0,105,46.09l.25-.71c2.14-6,4.35-12.22,12.71-14.2a85.92,85.92,0,0,1,10.43-1.79c7-.77,15.19-2.07,22.75-5.87,10.47-5.27,16.52-11.88,19-20.8a2.26,2.26,0,0,1,1-1.14l.36-.27a.9.9,0,0,1,1.17,0,.68.68,0,0,1,0,1c-.15.13-.32.25-.5.38a2.34,2.34,0,0,0-.45.36c-2.58,9.2-9.06,16.3-19.81,21.71-7.81,3.93-16.19,5.26-23.36,6.05a84.08,84.08,0,0,0-10.2,1.75c-7.49,1.78-9.47,7.34-11.56,13.22l-.26.72a28.35,28.35,0,0,1-4.91,9c-4.65,5.46-10.21,5-15,3.76-6.5-1.63-10.7-6.45-11-12.58C75.61,46.3,75.6,45.88,75.6,45.47Z"/><path class="cls-2" d="M289.87,658.14a3.18,3.18,0,0,1,.94-2.35,5.05,5.05,0,0,1,3.92-1.14,68.51,68.51,0,0,1,6.83.72q5.42.87,10.84,1.71c9.09,1.42,18.5,2.89,27.66,4.7,26.59,5.26,41.17,19.69,45.89,45.4a.75.75,0,0,1-.69.84.82.82,0,0,1-.95-.6c-4.59-25-18.76-39.09-44.6-44.2-9.14-1.81-18.52-3.27-27.6-4.69q-5.42-.84-10.84-1.71a64.87,64.87,0,0,0-6.66-.7,3.43,3.43,0,0,0-2.58.66,2.15,2.15,0,0,0-.44,2,95.55,95.55,0,0,0,3.16,13.32c2,6,4.25,12,6.4,17.83,1.41,3.83,2.82,7.67,4.19,11.51a24.42,24.42,0,0,1,.93,4c.1.59.2,1.18.33,1.77a.74.74,0,0,1-.66.86.83.83,0,0,1-1-.59c-.13-.6-.23-1.21-.34-1.82a21.83,21.83,0,0,0-.86-3.73c-1.37-3.84-2.78-7.67-4.19-11.5-2.16-5.84-4.38-11.88-6.42-17.86A98.59,98.59,0,0,1,290,659,5.52,5.52,0,0,1,289.87,658.14Z"/><path class="cls-2" d="M7,374.17a.76.76,0,0,1,.59-.71c3.36-.88,6.71-1.74,10.08-2.6,7.76-2,15.79-4.05,23.59-6.3,5.19-1.5,11.73-3.9,16.34-9.18,7.91-9.1,7.43-19.29-1.32-28-12.91-12.81-24.56-22.33-36.67-30-2.54-1.61-5.32-3-8-4.4-1.27-.65-2.54-1.29-3.79-2a.7.7,0,0,1-.29-1,.9.9,0,0,1,1.14-.26c1.24.67,2.5,1.31,3.77,2,2.72,1.39,5.54,2.82,8.15,4.47,12.21,7.71,24,17.31,36.94,30.19,9.2,9.12,9.72,20.28,1.39,29.85C54,361.88,47.2,364.4,41.78,366c-7.83,2.26-15.87,4.32-23.65,6.31q-5,1.29-10.06,2.6a.85.85,0,0,1-1-.5A.69.69,0,0,1,7,374.17Z"/><path class="cls-2" d="M790.58,351.81a115.46,115.46,0,0,1,.84-12.33c.25-2.25.7-4.51,1.14-6.7s.89-4.48,1.12-6.73c.12-1.14.23-2.29.34-3.44.78-8,1.57-16.27,5.34-24a.86.86,0,0,1,1.08-.38.7.7,0,0,1,.43,1c-3.65,7.49-4.44,15.64-5.2,23.52-.11,1.15-.22,2.3-.34,3.45-.24,2.3-.7,4.61-1.15,6.85s-.87,4.39-1.11,6.58a95.49,95.49,0,0,0-.76,15.08c.31,5.91.93,11.91,1.54,17.71.25,2.45.51,4.9.74,7.35.08.77.12,1.54.16,2.32a19.91,19.91,0,0,0,.72,5.27c.93,2.81,2.09,4.53,5,4.45a.79.79,0,0,1,.85.72c.07.37-.35.74-.8.75-4.8.13-6-3.67-6.65-5.5a21.08,21.08,0,0,1-.79-5.63c0-.75-.08-1.51-.15-2.26-.24-2.44-.49-4.89-.75-7.33-.6-5.82-1.23-11.84-1.54-17.78C790.61,353.79,790.58,352.8,790.58,351.81Z"/><path class="cls-2" d="M368.83,1.83a.73.73,0,0,1,.34-.6.9.9,0,0,1,1.16.16,56,56,0,0,1,10.83,21.46q1.39,5.19,2.72,10.4,1,4,2.07,8a19.71,19.71,0,0,0,1.14,3.07c.7,1.48,1.43,2.33,2.11,2.44s1.74-.63,2.43-1.28c5-4.71,7.53-9.86,7.84-15.75s-1.67-11.18-3.58-16.35c-1-2.68-1.79-5.44-2.56-8.11-.35-1.19-.7-2.39-1.06-3.57a.74.74,0,0,1,.58-.91.85.85,0,0,1,1,.52c.37,1.19.72,2.39,1.07,3.59.77,2.65,1.56,5.39,2.53,8,2,5.3,4,10.77,3.66,16.88s-3,11.71-8.29,16.68c-1.43,1.36-2.71,1.92-3.93,1.73s-2.37-1.27-3.33-3.33a20.26,20.26,0,0,1-1.23-3.29q-1.05-4-2.07-8c-.89-3.47-1.78-6.93-2.71-10.39A54.63,54.63,0,0,0,369,2.26.66.66,0,0,1,368.83,1.83Z"/><path class="cls-2" d="M7,524a.71.71,0,0,1,0-.14.82.82,0,0,1,1-.58c9.37,1.61,17.13,4.3,23.72,8.22l1.89,1.12c5.26,3.08,10.7,6.27,13.78,11.56,4.68,8.06,2,16.06-1.64,23.51-2.79,5.75-8.4,8.62-15.39,7.88-5.31-.56-10.69-1.26-15.89-1.93l-6.74-.87a.75.75,0,0,1-.7-.83.81.81,0,0,1,.93-.62l6.75.86c5.19.67,10.56,1.37,15.85,1.93,6.21.66,11.19-1.89,13.67-7,3.46-7.12,6.06-14.74,1.69-22.25-2.88-4.95-8.14-8-13.22-11l-1.9-1.12c-6.4-3.81-14-6.43-23.11-8A.77.77,0,0,1,7,524Z"/><path class="cls-2" d="M458.1,707.3a.49.49,0,0,1,0-.12l.25-1.35c.18-1,.35-1.93.55-2.9.23-1.22.44-2.44.64-3.67a59.23,59.23,0,0,1,1.84-8.4c2.12-6.55,7.41-10.16,15.72-10.74a86.1,86.1,0,0,1,12,0A35.6,35.6,0,0,1,509.88,688c5.64,4.67,10,10.59,13.68,18.63a.71.71,0,0,1-.45,1,.86.86,0,0,1-1.08-.4c-3.6-7.84-7.82-13.59-13.28-18.11A33.91,33.91,0,0,0,489,681.58a85.61,85.61,0,0,0-11.77,0c-7.66.54-12.32,3.71-14.26,9.69a57.65,57.65,0,0,0-1.79,8.2c-.21,1.24-.41,2.48-.66,3.72-.19,1-.36,1.92-.54,2.88l-.25,1.35a.82.82,0,0,1-.95.6A.76.76,0,0,1,458.1,707.3Z"/><path class="cls-2" d="M321.66,688.08a10.88,10.88,0,0,1,9.8-11.05,36.85,36.85,0,0,1,12.57.35,31.48,31.48,0,0,1,22.37,16.91c1.45,2.8,2.71,5.72,3.93,8.54.56,1.28,1.11,2.56,1.68,3.84a.72.72,0,0,1-.46,1,.86.86,0,0,1-1.07-.42c-.58-1.27-1.13-2.56-1.69-3.85-1.21-2.8-2.46-5.7-3.89-8.45a29.92,29.92,0,0,0-21.26-16.1,35.08,35.08,0,0,0-11.92-.33,9.42,9.42,0,0,0-8.41,9.6.57.57,0,0,0,0,.13c.05,4.43.27,8.93.48,13.29.09,1.92.18,3.85.26,5.77a.8.8,0,0,1-.79.76.79.79,0,0,1-.86-.71q-.12-2.88-.26-5.76c-.22-4.36-.43-8.88-.49-13.33Z"/><path class="cls-2" d="M720.73,707.3a.68.68,0,0,1,.08-.31c.21-.4.41-.81.61-1.22.44-.92.89-1.82,1.4-2.7,6.69-11.3,16.3-16.37,28.58-15.07,8.13.86,16.26,2.53,24.13,4.15l6.9,1.4c4.24.83,8.5,1.86,12.61,2.85,1.89.46,3.79.91,5.68,1.35a.72.72,0,0,1,.59.9.84.84,0,0,1-1,.53c-1.91-.44-3.8-.9-5.7-1.36-4.1-1-8.33-2-12.53-2.84-2.31-.45-4.61-.92-6.92-1.4-7.82-1.6-15.92-3.26-24-4.12-11.53-1.22-20.58,3.59-26.91,14.3-.5.84-.93,1.72-1.36,2.59-.2.42-.4.84-.62,1.25a.86.86,0,0,1-1.09.37A.74.74,0,0,1,720.73,707.3Z"/><path class="cls-2" d="M775.18,548.52a27.14,27.14,0,0,1,.22-3.46c1-8.43,5.49-14.49,13.61-18.55,2.44-1.22,5-2.36,7.41-3.47l3.31-1.51a.87.87,0,0,1,1.12.32.7.7,0,0,1-.36,1l-3.32,1.51c-2.43,1.1-4.94,2.24-7.35,3.44C782.2,531.6,778,537.3,777,545.22c-1.44,11.65,4.81,22.08,16.72,27.91,1.57.76,3.11,1.58,4.64,2.4l2.13,1.13a.7.7,0,0,1,.3,1,.88.88,0,0,1-1.13.26c-.72-.37-1.44-.75-2.15-1.14-1.52-.8-3-1.61-4.58-2.37C781.64,568.88,775.18,559.37,775.18,548.52Z"/><path class="cls-2" d="M776.86,664.12a19.61,19.61,0,0,1,2.49-8.61c.66-1.31,1.3-2.61,1.95-3.93,4.91-10,10-20.24,18.18-28.84a.92.92,0,0,1,1.17-.08.68.68,0,0,1,.09,1c-8,8.43-13.06,18.62-17.93,28.48q-1,2-1.95,3.93c-4.48,9-2.73,13.84,7.5,20.89a50,50,0,0,0,5.69,3.21c1.11.57,2.23,1.14,3.32,1.75a25.23,25.23,0,0,1,2.3,1.49l.94.65a.68.68,0,0,1,.16,1,.89.89,0,0,1-1.15.15l-1-.67a24.73,24.73,0,0,0-2.16-1.4c-1.07-.6-2.17-1.16-3.27-1.72a53,53,0,0,1-5.87-3.32C780.15,673.2,776.86,669.11,776.86,664.12Z"/><path class="cls-2" d="M7,357.21a.76.76,0,0,1,.64-.72c8.85-1.78,18-4.27,25-10.43,5.48-4.84,5.88-11.2,1.09-17-6.32-7.63-14.77-13.82-25.85-18.9a.7.7,0,0,1-.35-1,.88.88,0,0,1,1.11-.32c11.3,5.19,20,11.52,26.42,19.34,5.24,6.34,4.76,13.58-1.26,18.91-7.25,6.42-16.66,9-25.75,10.82a.83.83,0,0,1-1-.56A.44.44,0,0,1,7,357.21Z"/><path class="cls-2" d="M786.47,547c0-6.46,3.56-11.8,10.42-15.55a11.26,11.26,0,0,0,1.8-1.31c.29-.25.58-.49.89-.72a.9.9,0,0,1,1.16.08.68.68,0,0,1-.09,1c-.28.21-.56.44-.83.67a13.78,13.78,0,0,1-2.06,1.5c-7.35,4-10.53,9.71-9.43,16.94s5.28,12,12.49,14.62a.71.71,0,0,1,.46,1,.86.86,0,0,1-1.08.4c-7.69-2.77-12.37-8.23-13.51-15.78A18.62,18.62,0,0,1,786.47,547Z"/><path class="cls-2" d="M476,706.94a.62.62,0,0,1,.07-.29c.25-.52.48-1,.72-1.57a37.6,37.6,0,0,1,1.71-3.42c4-6.78,11.71-8.83,19.7-5.22,5.3,2.4,8.92,6,10.75,10.61a.72.72,0,0,1-.51.94.85.85,0,0,1-1.05-.45c-1.69-4.27-5-7.56-9.94-9.78-7.21-3.27-13.91-1.51-17.49,4.59a34.75,34.75,0,0,0-1.64,3.29c-.24.53-.48,1.06-.74,1.59a.86.86,0,0,1-1.08.39A.74.74,0,0,1,476,706.94Z"/><path class="cls-2" d="M789,66.82c0-1.54.83-3.48,2.53-6a18.55,18.55,0,0,1,1.25-1.59c.25-.31.51-.61.75-.93l4.8-6.25,1.15-1.51a.89.89,0,0,1,1.15-.2.7.7,0,0,1,.22,1l-1.16,1.51q-2.39,3.13-4.8,6.27c-.25.33-.52.65-.79,1a17.67,17.67,0,0,0-1.15,1.47c-2.08,3.1-2.72,5.13-2,6.39s2.91,2,6.94,2.4a11.36,11.36,0,0,1,2.07.47c.28.09.57.17.85.24a.74.74,0,0,1,.57.91.84.84,0,0,1-1,.51l-.93-.26a8.86,8.86,0,0,0-1.72-.4c-4.7-.45-7.24-1.44-8.24-3.21A3.61,3.61,0,0,1,789,66.82Z"/><path class="cls-2" d="M143.11,34.6a.7.7,0,0,1,.48-.64.81.81,0,0,1,1,.39,5.65,5.65,0,0,1,.23.57,3.36,3.36,0,0,0,.45.93,11.79,11.79,0,0,0,18.78-1.57.82.82,0,0,1,1.05-.29.65.65,0,0,1,.33.93,13,13,0,0,1-10.55,6.23A12.79,12.79,0,0,1,144,36.65a4.6,4.6,0,0,1-.65-1.29c-.06-.17-.13-.34-.2-.5A.6.6,0,0,1,143.11,34.6Z"/><path class="cls-2" d="M30.2,54.18a.68.68,0,0,1,.39-.6c4.59-2.35,6.62-6.48,8.12-10.59a26.81,26.81,0,0,0,1.18-5.79c.11-.91.23-1.81.38-2.7a.76.76,0,0,1,.88-.58.71.71,0,0,1,.65.79c-.15.87-.26,1.76-.37,2.64a27.74,27.74,0,0,1-1.24,6.07c-1.6,4.37-3.78,8.78-8.83,11.36a.84.84,0,0,1-1.06-.26A.61.61,0,0,1,30.2,54.18Z"/><path class="cls-2" d="M7.4,692.46a.7.7,0,0,1,.21-.49.91.91,0,0,1,1.17-.06l1.31,1c5.07,3.95,10.3,8,13.55,13.67a.7.7,0,0,1-.35,1,.89.89,0,0,1-1.12-.32C19.07,701.89,14,697.9,9,694l-1.32-1A.71.71,0,0,1,7.4,692.46Z"/><path class="cls-2" d="M798,185.69a20.28,20.28,0,0,1,1.34-6.38.86.86,0,0,1,1-.5.73.73,0,0,1,.56.92c-1,3.06-1.81,5.83-.83,8.77a16.88,16.88,0,0,1,.63,3c.07.44.14.89.22,1.32a.75.75,0,0,1-.68.85.81.81,0,0,1-1-.61c-.09-.45-.15-.91-.22-1.36a17.1,17.1,0,0,0-.58-2.78A10,10,0,0,1,798,185.69Z"/><path class="cls-2" d="M235.89,34.93a.6.6,0,0,1,.14-.39.83.83,0,0,1,1.08-.17,10.94,10.94,0,0,0,12.53,0,.83.83,0,0,1,1.08.17.65.65,0,0,1-.19,1,12.64,12.64,0,0,1-14.31,0A.66.66,0,0,1,235.89,34.93Z"/><path class="cls-2" d="M361.67,182.67c0-3.35,3.27-6.84,7.39-7.75,3.64-.81,6.66.85,8.5,4.66a.69.69,0,0,1,0,.47.44.44,0,0,1,0,.2c0,3.92-2.46,6.63-7.33,8.05a7.07,7.07,0,0,1-5.57-.79,5.91,5.91,0,0,1-3-4.41C361.68,183,361.67,182.82,361.67,182.67ZM376,180.06c-1.06-2.14-3-4.49-6.53-3.71s-6.37,3.89-6.12,6.64a4.46,4.46,0,0,0,2.3,3.3,5.24,5.24,0,0,0,4.14.61c4.22-1.23,6.19-3.34,6.19-6.65v0S376,180.12,376,180.06Z"/><path class="cls-2" d="M245.94,427.06c0-4.51,2.37-8.37,7.05-11.38a72.08,72.08,0,0,1,12.41-6.11c15.08-6,30.73-8.71,48.17-11.41,8.71-1.36,14.88-4.6,18.87-9.93a35,35,0,0,0,7.23-21.08v0c0-7.23-1.2-14.46-2.64-22.48-1.52-8.51,1.31-16.79,7.39-21.61,5.41-4.29,12.89-5.52,21.05-3.47,14.6,3.67,27,6.31,40,7.26,10.15.74,18.23,5,24,12.69,6.73,8.91,10.48,19.13,13.53,28.85,1.23,3.93,2.08,8,2.9,12,.37,1.8.75,3.6,1.16,5.39a.69.69,0,0,1,0,.32.57.57,0,0,1,0,.18c0,1.37,0,2.75,0,4.13,0,3.09,0,6.19,0,9.28a12.31,12.31,0,0,1-6.41,11.51c-4,2.29-8.17,4.45-12.21,6.54-4.73,2.46-9.63,5-14.25,7.73-11.38,6.75-23.75,9.92-37.82,9.71-7.57-.11-13.32,2.73-16.2,8a142,142,0,0,0-7.93,17.55c-2.65,6.88-7,15.35-17.16,19.81-9.94,4.37-21.72,9.5-33.76,14.45-3.32,1.36-6.91,2.64-11.19,2-5.92-.9-9.87-4.12-12.44-10.12-4.14-9.67-10.23-18.62-16.11-27.27l-.4-.58a165.78,165.78,0,0,1-13.56-24.8A17,17,0,0,1,245.94,427.06Zm95.38-59.91a36.3,36.3,0,0,1-7.5,21.89c-4.26,5.69-10.79,9.14-20,10.56-17.32,2.7-32.87,5.41-47.78,11.32a69.69,69.69,0,0,0-12.11,6c-6.27,4-7.93,9.78-4.79,16.66a163.86,163.86,0,0,0,13.45,24.59l.39.58c5.92,8.71,12.05,17.71,16.24,27.51,2.34,5.46,5.89,8.38,11.18,9.19,3.81.59,7-.55,10.21-1.86,12-4.95,23.8-10.08,33.73-14.44,9.57-4.2,13.62-11.94,16.32-19a144.78,144.78,0,0,1,8-17.72c3.18-5.8,9.47-8.93,17.71-8.81,13.73.21,25.79-2.89,36.88-9.46,4.66-2.77,9.58-5.32,14.34-7.78,4-2.09,8.18-4.24,12.15-6.51a10.83,10.83,0,0,0,5.64-10.24c-.07-3.11-.05-6.21,0-9.32,0-1.37,0-2.75,0-4.12a.57.57,0,0,1,0-.18v0c-.41-1.8-.79-3.6-1.17-5.41-.81-3.91-1.66-8-2.87-11.83-3-9.6-6.7-19.69-13.3-28.42-5.5-7.29-13.17-11.34-22.78-12-13.12-1-25.59-3.62-40.28-7.31-7.6-1.91-14.52-.79-19.5,3.15-5.67,4.49-8.3,12.26-6.86,20.28s2.65,15.37,2.66,22.71Z"/><path class="cls-2" d="M270,435.85c0-4.59,2.73-8.47,8.33-12.09,6.8-4.39,15.06-5.34,22.25-5.68a155.82,155.82,0,0,1,23.12.7c6.27.63,13.85,2.28,16.93,9.54a27.09,27.09,0,0,1,1.19,3.71c.15.55.29,1.1.46,1.65a.77.77,0,0,1,0,.37.65.65,0,0,1,0,.28c-.25,1.52-.47,3-.68,4.57a91.72,91.72,0,0,1-1.78,10c-4,15.64-17.53,22.9-36.17,19.41-14.16-2.66-25.17-11.42-31.83-25.34A16.53,16.53,0,0,1,270,435.85Zm70.68-1.8c-.17-.56-.32-1.12-.47-1.68a25.53,25.53,0,0,0-1.12-3.53c-2.75-6.48-9.42-8-15.57-8.6a153.53,153.53,0,0,0-22.85-.69c-7.3.35-14.93,1.25-21.37,5.4-7.74,5-9.46,10.05-5.93,17.4,6.43,13.46,17,21.92,30.64,24.48,17.64,3.3,30.44-3.54,34.22-18.3a91.83,91.83,0,0,0,1.75-9.82c.21-1.53.43-3.07.68-4.59A.64.64,0,0,1,340.69,434.05Z"/><path class="cls-2" d="M250.92,317.07c0-.41,0-.82,0-1.23a10.28,10.28,0,0,1,4.74-7.6,13.57,13.57,0,0,1,9.78-2.33c7.93,1.35,14.15,5.68,19,13.23a55.7,55.7,0,0,1,5.07,11.23c.62,1.69,1.24,3.38,1.92,5a.64.64,0,0,1,0,.43.57.57,0,0,1,0,.29c-.2,1.16-.34,2.35-.47,3.53a28.38,28.38,0,0,1-1.69,7.88c-2.1,4.92-5.89,8.08-10.42,8.66-4.19.54-8.37-1.25-11.49-4.91a14.74,14.74,0,0,1-1.54-2.34l-.14-.24-4.09-7.17c-2.33-4.08-4.66-8.17-7-12.25C252.12,325,250.92,321,250.92,317.07Zm39,18.78c-.68-1.65-1.3-3.34-1.91-5a54.53,54.53,0,0,0-4.93-11c-4.61-7.16-10.46-11.25-17.89-12.51a11.74,11.74,0,0,0-8.46,2,8.89,8.89,0,0,0-4.1,6.52c-.26,4.11.85,8.14,3.51,12.7,2.37,4.07,4.7,8.17,7,12.26,1.37,2.39,2.73,4.78,4.1,7.16l.13.24a14.56,14.56,0,0,0,1.38,2.12c2.75,3.22,6.37,4.8,9.94,4.34,3.92-.5,7.24-3.32,9.12-7.73a27.16,27.16,0,0,0,1.58-7.5c.14-1.21.28-2.42.49-3.61A.43.43,0,0,1,289.9,335.85Z"/><path class="cls-2" d="M149.3,635.53c0-1.57.08-3.22.22-4.94.77-8.86,3.51-16.15,8.41-22.28,9.41-11.8,23.55-15.58,37.42-17.92,8.25-1.39,16.79-2.82,25.48-3.45,7.16-.52,14.79-.83,22,.41,17.49,3,29.74,12.92,37.46,30.33a43.27,43.27,0,0,1,2.4,8.06c.28,1.23.56,2.46.89,3.67a.69.69,0,0,1,0,.35.47.47,0,0,1,0,.17c0,1.28,0,2.55,0,3.83,0,3,0,6.15.05,9.23a4.29,4.29,0,0,1-1.32,3.67,5.37,5.37,0,0,1-4,1c-1.15-.07-2.29-.17-3.43-.26-2.25-.18-4.57-.36-6.85-.42-12.56-.34-24.71,2.74-36.45,5.73l-2.56.64c-4.06,1-8.12,2.29-12.06,3.51-4.23,1.31-8.6,2.67-13,3.74-7.19,1.76-12.63,2.51-17.65,2.44-8.78-.13-17.48-2.79-26.59-8.14-5.64-3.31-8.94-7.27-9.8-11.76A40,40,0,0,1,149.3,635.53ZM282,629.76h0c-.34-1.23-.62-2.47-.91-3.71a42.35,42.35,0,0,0-2.32-7.82c-7.49-16.9-19.34-26.53-36.23-29.43-7-1.2-14.5-.89-21.55-.38-8.6.62-17.09,2.05-25.31,3.43-13.53,2.28-27.3,5.95-36.38,17.33-4.71,5.9-7.36,12.94-8.1,21.53a44.29,44.29,0,0,0,.43,12.16c.79,4.13,3.76,7.65,9.08,10.77,8.84,5.19,17.25,7.77,25.7,7.9,4.86.07,10.16-.67,17.19-2.39,4.34-1.06,8.69-2.41,12.89-3.71,4-1.23,8-2.5,12.15-3.53l2.55-.65c11.87-3,24.14-6.12,37-5.78,2.32.06,4.68.25,6.95.43,1.13.09,2.27.18,3.4.25a3.73,3.73,0,0,0,2.7-.56A3.08,3.08,0,0,0,282,643c-.08-3.09-.06-6.24-.05-9.27,0-1.27,0-2.54,0-3.82A.47.47,0,0,1,282,629.76Z"/><path class="cls-2" d="M474.78,326.76c0-3.74,2.23-6.83,6.38-8.71,10.26-4.63,20.23-1.77,26.84.79,4.69,1.81,9.28,4,13.71,6.11,3.07,1.46,6.24,3,9.41,4.35a52.82,52.82,0,0,0,5.48,1.89,44.07,44.07,0,0,1,6.78,2.5c8.82,4.39,14.31,11.19,16.33,20.2a.58.58,0,0,1,0,.32,1.05,1.05,0,0,1,0,.36,11,11,0,0,1-3.77,8.11c-5.34,5.16-13.08,7.17-21.77,5.65-21.36-3.73-38.47-12.32-50.86-25.52-4.47-4.78-7-8.89-8.18-13.33A11.53,11.53,0,0,1,474.78,326.76Zm83.32,27.45v0c-1.92-8.57-7.14-15-15.52-19.21a42.37,42.37,0,0,0-6.51-2.38,55,55,0,0,1-5.66-2c-3.2-1.38-6.39-2.9-9.47-4.37-4.4-2.1-9-4.27-13.59-6.06-10-3.88-18.1-4.14-25.43-.82-4.45,2-6.27,5.48-5.15,9.77s3.54,8.13,7.84,12.72c12.14,12.94,28.93,21.36,49.9,25,5.74,1,13.91.92,20.25-5.2a9.55,9.55,0,0,0,3.33-7.28A.55.55,0,0,1,558.1,354.21Z"/><path class="cls-2" d="M557.13,555.85c0-3,1-6.11,5.29-8.23a22.79,22.79,0,0,1,15.31-2.09c11,2.37,18,8.23,20.85,17.44a.59.59,0,0,1,0,.37.55.55,0,0,1,0,.36c-.08.3-.18.61-.27.91a13.73,13.73,0,0,0-.49,1.85c-.85,4.85-5.51,9.57-11.61,11.74a19.24,19.24,0,0,1-17.52-2.06,25.63,25.63,0,0,1-11.3-17.47A17.29,17.29,0,0,1,557.13,555.85ZM597,563.34c-2.68-8.64-9.29-14.15-19.64-16.38a20.78,20.78,0,0,0-14.11,1.94c-3.75,1.88-5,4.75-4.2,9.55A24.18,24.18,0,0,0,569.7,575a17.31,17.31,0,0,0,15.89,1.86c5.58-2,9.83-6.24,10.59-10.6a16.49,16.49,0,0,1,.54-2C596.81,563.92,596.9,563.63,597,563.34Z"/><path class="cls-2" d="M551.94,657c0-4.35,2.72-9.23,7.19-10.27a43.53,43.53,0,0,1,12.92-.78c7.79.56,14.75,3.64,21.78,7,9.11,4.36,18.21,9.52,20.63,20.33a.68.68,0,0,1,0,.32.57.57,0,0,1,0,.18v2.47c0,7.18-4.18,10.88-12.31,11-7.56.12-14.69-1.29-21.27-2.84-16.93-4-26.35-12.37-28.8-25.71A9.74,9.74,0,0,1,551.94,657Zm60.91,16.61v0c-2.28-10.18-11-15.13-19.79-19.33-7.14-3.42-13.65-6.29-21.13-6.84a42.2,42.2,0,0,0-12.37.74c-4.17,1-6.56,6.35-5.83,10.34,2.36,12.87,11.13,20.66,27.59,24.52,6.47,1.52,13.46,2.9,20.82,2.78s10.65-3.14,10.69-9.53v-2.47A.57.57,0,0,1,612.85,673.56Z"/><path class="cls-2" d="M168.39,624.46a17.66,17.66,0,0,1,.51-4.22c2.47-10,9-15.32,21.68-17.78,10.71-2.07,21.88-1.06,34.17,3.11,5.05,1.71,11.15,4.51,13.58,11.06a.72.72,0,0,1,0,.41s0,0,0,.07c1,6-1.61,11.2-7.52,15.11-13.54,8.95-26.16,13.18-39.7,13.34A22.59,22.59,0,0,1,174,638.2,20.53,20.53,0,0,1,168.39,624.46ZM236.74,617c-1.75-4.69-5.52-7.71-12.58-10.1-12-4.06-22.85-5.05-33.23-3-12.16,2.35-18.07,7.18-20.41,16.65-1.41,5.68.36,11.93,4.74,16.72a20.85,20.85,0,0,0,15.86,6.82c13.18-.15,25.48-4.3,38.73-13.05,5.39-3.57,7.77-8.32,6.88-13.72A.66.66,0,0,1,236.74,617Z"/><path class="cls-2" d="M173.92,204.93a100.48,100.48,0,0,1,2.51-23.44l.43-1.86c1.68-7.13,3.4-14.51,7.18-21.28,3.35-6,8.52-8.92,15.81-8.93,9.71,0,16.85,4,21.25,11.81a54.17,54.17,0,0,1,3.85,9.53c.47,1.44,1,2.87,1.48,4.29a.64.64,0,0,1,0,.41.5.5,0,0,1,0,.13,54.89,54.89,0,0,1-9.19,34.71C210.15,221.19,201.71,226,189.93,226c-9.12,0-15.49-5.78-15.86-14.28Q173.92,208.2,173.92,204.93Zm50.92-29.47c-.53-1.41-1-2.85-1.48-4.29a52.91,52.91,0,0,0-3.74-9.29c-4.09-7.3-10.74-11-19.76-11-6.61,0-11.3,2.65-14.34,8.1-3.68,6.6-5.39,13.89-7,20.93l-.43,1.86c-2.09,8.83-2.83,18.31-2.33,29.85.34,7.77,5.92,12.82,14.22,12.86,11.12.05,19.11-4.56,25.92-14.95a53.67,53.67,0,0,0,9-33.88A.5.5,0,0,1,224.84,175.46Z"/><path class="cls-2" d="M581.28,450.57a7.4,7.4,0,0,1,2.86-5.54,19.53,19.53,0,0,1,3.61-2.33l.48-.26c7.46-4.13,15.84-3.77,23.1-3.11,6.84.63,11.21,3.56,12.64,8.49a.55.55,0,0,1,0,.36.19.19,0,0,1,0,.08c.38,2.67-.6,5-3,7-4.89,4.16-10.91,5.56-16.66,6.64-8.18,1.54-15.06-.67-21-6.75A6.52,6.52,0,0,1,581.28,450.57Zm41.09-2.39c-1.27-4.34-5-6.82-11.21-7.38-7-.64-15-1-22.06,2.89l-.48.26a19.45,19.45,0,0,0-3.32,2.13c-2.86,2.48-3.15,5.66-.74,8.12,5.6,5.71,11.78,7.7,19.42,6.27,5.52-1,11.29-2.37,15.87-6.27,2-1.72,2.82-3.55,2.5-5.76A.74.74,0,0,1,622.37,448.18Z"/><path class="cls-2" d="M559.49,97.18a8,8,0,0,1,2.8-5.74c10.39-9.91,20.2-16.43,30.88-20.53,10.09-3.88,19.31-3,27.42,2.67A34.68,34.68,0,0,1,634.28,91.7a.7.7,0,0,1,0,.38.68.68,0,0,1,0,.14c.32,4.91.22,10-4.63,14-1.79,1.45-3.56,2.92-5.33,4.39-4.33,3.59-8.8,7.3-13.38,10.77-8,6-14.66,6.25-23.18.77l-1-.64c-5-3.19-10.09-6.49-14.88-10a75.56,75.56,0,0,1-10-8.91A7.92,7.92,0,0,1,559.49,97.18Zm73.19-5.09a33.18,33.18,0,0,0-13.11-17.35c-7.59-5.3-16.25-6.13-25.75-2.48-10.46,4-20.1,10.43-30.32,20.18-3,2.87-3.13,6.22-.33,9.19a74.58,74.58,0,0,0,9.8,8.73c4.74,3.51,9.85,6.79,14.78,10l1,.64c7.88,5.07,13.81,4.87,21.15-.7,4.55-3.45,9-7.15,13.32-10.72,1.78-1.48,3.55-3,5.34-4.41,4.32-3.53,4.39-8.27,4.1-12.84A.75.75,0,0,1,632.68,92.09Z"/><path class="cls-2" d="M158,274.92c0-5,2.51-9.12,7.25-11.91s10.29-4.21,14.93-5.13c13.94-2.77,25.26,2.85,29.55,14.67a.72.72,0,0,1,0,.41,5.06,5.06,0,0,1,.06,1,6.6,6.6,0,0,1-.08,2.12c-2.94,11.36-12.28,19.27-25.63,21.68-9.52,1.73-17.32-1.37-21.41-8.48a36.6,36.6,0,0,1-4.4-11.5A15.38,15.38,0,0,1,158,274.92Zm50.14-2c-4-11-14.58-16.23-27.6-13.64-4.5.89-9.72,2.17-14.37,4.91-5.14,3-7.31,7.64-6.26,13.36a35.49,35.49,0,0,0,4.24,11.06c3.78,6.58,10.75,9.32,19.61,7.71,12.69-2.29,21.56-9.79,24.34-20.57a5.35,5.35,0,0,0,.05-1.71A3.51,3.51,0,0,1,208.18,273Z"/><path class="cls-2" d="M125.52,544.88c0-2.92,1.74-5.78,4.89-8a34.76,34.76,0,0,1,11.74-5.08c11-2.55,22.38-4.66,32.16-6.43a97.23,97.23,0,0,1,16.81-2c6.56,0,14.77,2.4,16.29,9.28a.69.69,0,0,1,0,.32.71.71,0,0,1,0,.21c0,6.07-4.71,9-9.53,11.56-7.32,3.83-15.48,6-23.21,7.88-9.52,2.33-19.71,4.54-30.44,3.78a36.8,36.8,0,0,1-11.35-2.55c-4.21-1.74-6.88-4.66-7.31-8A6.08,6.08,0,0,1,125.52,544.88ZM205.8,533v0c-1.33-6-8.73-8.11-14.66-8.1a95.52,95.52,0,0,0-16.45,2c-9.8,1.77-21.13,3.87-32.11,6.42a32.67,32.67,0,0,0-11.14,4.81c-3,2.1-4.55,4.88-4.2,7.59s2.69,5.32,6.37,6.85a35.27,35.27,0,0,0,10.78,2.41c10.47.75,20.5-1.43,29.88-3.73,7.93-1.94,15.65-4,22.8-7.73,4.59-2.4,8.71-5,8.71-10.29v0h0A.52.52,0,0,1,205.8,533Z"/><path class="cls-2" d="M193.53,196.93c0-3.42,1.95-8.14,4.79-9.5a5.12,5.12,0,0,1,4.34.43,5.83,5.83,0,0,1,1.76,2.36c.17.32.33.65.52.95a.65.65,0,0,1,.08.54.62.62,0,0,1-.05.46c-.39.81-.74,1.63-1.1,2.46a26.35,26.35,0,0,1-3.07,5.72,3.65,3.65,0,0,1-3.35,1.36,4.36,4.36,0,0,1-3.53-2.5A6,6,0,0,1,193.53,196.93Zm9.86-5.21-.48-.89a4.77,4.77,0,0,0-1.26-1.81,3.48,3.48,0,0,0-2.55-.29c-2.57,1.23-4.78,7.28-3.63,10a2.72,2.72,0,0,0,2.18,1.55,1.94,1.94,0,0,0,1.79-.72,24.81,24.81,0,0,0,2.89-5.42C202.67,193.3,203,192.5,203.39,191.72Z"/><path class="cls-2" d="M606.37,268.35a7.4,7.4,0,0,1,1.44-4.06c3.78-5.68,9.42-10.14,17.77-14a23.78,23.78,0,0,1,4.6-1.42l.32-.07c6.31-1.49,10.89.11,13.26,4.62a.7.7,0,0,1,0,.49.65.65,0,0,1,0,.31c-.12.58-.2,1.18-.28,1.77a11.39,11.39,0,0,1-1,4c-3.67,6.75-9.52,11.87-17.38,15.21a15,15,0,0,1-14.73-1.12C607.71,272.37,606.37,270.47,606.37,268.35ZM642.2,253.9c-2-3.75-5.82-5-11.27-3.71l-.33.08a21.89,21.89,0,0,0-4.25,1.29c-8.07,3.76-13.5,8-17.12,13.48-2.08,3.15-1.43,5.57,2.12,7.86a13.15,13.15,0,0,0,13,1c7.51-3.19,13.1-8.08,16.6-14.52a10.47,10.47,0,0,0,.9-3.57c.08-.63.17-1.26.3-1.87Z"/><path class="cls-2" d="M441.86,538.16a11.91,11.91,0,0,1,2.64-7.48c3.66-4.62,9.57-6.45,15.81-4.88,7,1.75,14,4,20.77,6.07l3.12,1c5,1.59,9.77,3.1,14.93,1.66l.72-.21a61.62,61.62,0,0,0,10.6-3.65l6.48-3.15c11.05-5.34,22.48-10.86,32.32-18.24,10.82-8.12,23.1-10.17,36.48-6.11,6.82,2.07,12.81,4.16,18.31,6.41,7.75,3.16,13.05,2.6,18.29-1.92,4.18-3.61,10.12-4.08,15.5-1.21a47.78,47.78,0,0,1,8.49,6.07c4.22,3.64,5.78,8.44,7,13a.6.6,0,0,1,0,.35.62.62,0,0,1,0,.21,7.83,7.83,0,0,1-2.86,6,10.38,10.38,0,0,1-7.16,1.87c-4.64-.27-8.83-1.71-12.88-3.09L628,530a5.46,5.46,0,0,0-3.84.3,3.81,3.81,0,0,0-.87,3.06,20.61,20.61,0,0,0,1.13,4.06c.25.73.51,1.47.72,2.22,4.37,15,2.28,26.44-6.56,35.93A136.91,136.91,0,0,1,603,590.45c-6.28,4.93-13.12,7.3-20.3,7.06-8-.27-15.51-2.91-23-8.1-6.17-4.28-11.62-9.25-17.61-14.83-8.64-8.06-19.31-14-32.61-18.23-8.38-2.64-15.57-3.29-22.63-2.06-9.53,1.67-17.55,2.43-25.72.72-6.72-1.42-13.58-3.31-17.17-9.55A14.68,14.68,0,0,1,441.86,538.16ZM651.73,525.9h0c-1.18-4.39-2.66-9-6.56-12.32A45.49,45.49,0,0,0,637,507.7c-4.71-2.5-9.88-2.12-13.5,1-5.74,5-11.76,5.62-20.12,2.2-5.46-2.22-11.4-4.29-18.16-6.34-12.8-3.89-24.54-1.92-34.88,5.83-10,7.48-21.48,13-32.6,18.42-2.16,1-4.32,2.08-6.47,3.14a64.1,64.1,0,0,1-10.9,3.77l-.73.2c-5.69,1.6-10.92-.07-16-1.68l-3.12-1c-6.73-2.12-13.69-4.31-20.66-6-5.54-1.38-10.77.23-14,4.32-3,3.8-3.15,8.51-.43,13.26,3.27,5.68,9.74,7.45,16.08,8.78,7.88,1.66,15.7.91,25-.72,7.37-1.29,14.83-.62,23.5,2.11,13.56,4.28,24.44,10.37,33.26,18.61,5.94,5.53,11.35,10.46,17.43,14.68,7.18,5,14.39,7.54,22,7.79,6.84.23,13.11-2,19.15-6.69a135.42,135.42,0,0,0,15.44-14.69c8.47-9.09,10.45-20.1,6.23-34.63-.21-.72-.45-1.43-.7-2.15a22,22,0,0,1-1.19-4.31c-.17-1.25.2-3.53,1.53-4.42a7.1,7.1,0,0,1,5.39-.5l2.48.83c4.11,1.41,8,2.74,12.39,3a8.62,8.62,0,0,0,5.95-1.5,6.44,6.44,0,0,0,2.3-5Z"/><path class="cls-2" d="M334.88,278.75a6.26,6.26,0,0,1,1.64-3.89,30.26,30.26,0,0,1,6.92-6.49c3.74-2.39,7.66-4.66,11.45-6.85,2.79-1.61,5.59-3.23,8.34-4.91,12.72-7.77,27.91-12.1,46.43-13.25,8.84-.54,17.88-1.49,26.9-2.82,11-1.63,14.47.08,17.59,8.7a.61.61,0,0,1,0,.4.58.58,0,0,1,0,.23c-.08,1.09-.14,2.19-.19,3.29a68.41,68.41,0,0,1-.66,7.36,30.13,30.13,0,0,1-10.59,18.38c-7.68,6.43-17.23,10.58-26.36,14.28a49.62,49.62,0,0,1-16.94,4.05c-8.68.33-16.3-2.68-23-5.33-9.6-3.79-17.82-5.73-25.85-6.11a47.4,47.4,0,0,1-10.91-2.13c-2.39-.69-4-1.91-4.55-3.52A4.11,4.11,0,0,1,334.88,278.75Zm117.68-29.1c-2.86-7.88-5.52-9.17-15.73-7.66-9.07,1.34-18.17,2.29-27.05,2.84-18.23,1.13-33.15,5.38-45.62,13-2.76,1.68-5.56,3.3-8.37,4.93-3.77,2.18-7.67,4.44-11.38,6.81a28.42,28.42,0,0,0-6.55,6.16c-1.18,1.43-1.58,2.8-1.16,4s1.61,2,3.48,2.57a45.79,45.79,0,0,0,10.48,2.06c8.25.39,16.65,2.37,26.44,6.23,6.55,2.59,14,5.52,22.28,5.21a48.08,48.08,0,0,0,16.33-3.92c9-3.65,18.41-7.73,25.91-14A28.67,28.67,0,0,0,451.7,260.3a64.78,64.78,0,0,0,.64-7.21c.06-1.11.12-2.21.2-3.32C452.55,249.73,452.55,249.69,452.56,249.65Z"/><path class="cls-2" d="M351.06,378.64c0-4.62.2-9.26.39-13.77.12-2.8.23-5.59.31-8.38,0-1.31,0-2.61,0-3.91a55.12,55.12,0,0,1,.09-6c.82-9.1,5.89-13.57,15.08-13.31,10.41.3,21.25,1,32.2,2.13,9.24.93,16.36,4.34,21.15,10.13,4.37,5.28,6.4,11.59,7.67,16.49.79,3,1.29,6.08,1.77,9.07.22,1.35.44,2.7.69,4a.7.7,0,0,1,0,.29,1,1,0,0,1,0,.25c-.13,1.14-.2,2.28-.28,3.43a38.67,38.67,0,0,1-1,7.61c-3.85,14.22-14.71,23.69-34.18,29.82a22.3,22.3,0,0,1-5.21.76c-8.26.53-15.46-2.13-21.57-4.66-7.44-3.08-12.48-8.25-14.59-15A57.26,57.26,0,0,1,351.1,382C351.08,380.85,351.06,379.75,351.06,378.64Zm2.36-23.4c0,.42,0,.85,0,1.28-.07,2.8-.19,5.6-.31,8.4-.23,5.58-.48,11.35-.35,17a55.9,55.9,0,0,0,2.38,15.33c2,6.28,6.71,11.14,13.7,14,7.35,3,13.66,5,20.6,4.53a21.71,21.71,0,0,0,4.93-.69c18.89-5.94,29.41-15.09,33.13-28.78a37.66,37.66,0,0,0,1-7.35c.08-1.16.16-2.33.28-3.48a.43.43,0,0,1,0-.11.13.13,0,0,1,0-.06c-.25-1.35-.47-2.7-.69-4.06-.48-3-1-6-1.75-8.94-1.24-4.77-3.2-10.9-7.39-16-4.51-5.44-11.24-8.65-20-9.54-10.91-1.11-21.69-1.82-32.06-2.12-8.38-.24-12.63,3.56-13.38,12a50,50,0,0,0-.08,5.87C353.4,353.45,353.42,354.34,353.42,355.24Z"/><path class="cls-2" d="M424.85,553.48c0-8.44.27-15.8.82-22.51a48,48,0,0,1,2.57-10.56l.18-.54c2-6.1,8.19-9.94,15.11-9.34l.49,0c5.33.46,10.85.93,16.22,1.76,2.82.43,5.64,1,8.38,1.6A101.1,101.1,0,0,0,481.23,516c11.6.93,23.31-1.25,36.86-6.86,7.45-3.08,14.82-7.55,23.18-14.05,11-8.54,22.78-11.16,36.12-8a62.23,62.23,0,0,0,10.8,1.24c1.24.08,2.48.15,3.71.24,7.4.57,14.56-1.3,21.48-3.11l1.61-.41c6.2-1.61,12.89-2.92,19.84-1.72,10.92,1.9,17.92,9,22.25,14.08a131.48,131.48,0,0,1,24.81,44.34.7.7,0,0,1,0,.38,1.1,1.1,0,0,1,0,.18v.79a12.49,12.49,0,0,0,0,1.62c.69,7.84-3.1,13.1-11.27,15.61-1.17.35-2.32.76-3.47,1.16a50.29,50.29,0,0,1-6.56,2c-7.33,1.49-13.57,5.13-20.21,11.82l-2.2,2.21c-8.14,8.19-16.55,16.65-25.26,24.6-5.91,5.4-13.42,8.13-22.32,8.13a57.4,57.4,0,0,1-29.33-8.41c-7.4-4.35-14.53-9.29-21.43-14.05-1.89-1.31-3.77-2.61-5.67-3.91-8.22-5.62-15.24-10-24.26-11.45C500.68,571,493,570,485.8,569.25c-4.25-.42-8.6-.69-12.81-1-5.3-.34-10.78-.69-16.14-1.32-7-.82-14.09-2.26-20.91-3.66l-2.58-.53C427.81,561.65,424.84,558.3,424.85,553.48Zm255.44-11.34a129.74,129.74,0,0,0-24.54-43.83c-6.61-7.85-13.36-12.15-21.24-13.52-6.6-1.14-13.06.13-19.06,1.68l-1.6.42c-7.07,1.84-14.38,3.75-22.09,3.16-1.22-.1-2.44-.17-3.67-.24A64.76,64.76,0,0,1,577,488.53c-12.77-3-24.09-.51-34.62,7.69-8.48,6.6-16,11.13-23.56,14.28-13.64,5.64-26,7.93-37.71,7a103,103,0,0,1-12.84-2.13c-2.71-.57-5.51-1.16-8.28-1.58-5.31-.82-10.79-1.29-16.1-1.75l-.49,0c-6.11-.53-11.61,2.88-13.36,8.29l-.18.54a47,47,0,0,0-2.51,10.26c-.55,6.67-.82,14-.82,22.4,0,4.19,2.38,6.88,7.22,7.87l2.59.53c6.78,1.38,13.79,2.82,20.75,3.64,5.31.62,10.77,1,16,1.3,4.23.27,8.6.55,12.88,1,7.25.7,14.95,1.71,24.25,3.17,10.15,1.59,18.38,7.21,25,11.74,1.9,1.29,3.78,2.6,5.67,3.9,6.87,4.75,14,9.67,21.33,14,9.34,5.5,18.63,8.17,28.42,8.17,8.44,0,15.55-2.59,21.13-7.68,8.69-7.93,17.09-16.38,25.21-24.55l2.2-2.22c6.89-6.93,13.39-10.71,21.09-12.28a48.79,48.79,0,0,0,6.32-1.9c1.17-.41,2.34-.82,3.53-1.19,7.47-2.29,10.8-6.89,10.16-14.09a14.91,14.91,0,0,1,0-1.77v-.76A1.1,1.1,0,0,1,680.29,542.14Z"/><path class="cls-2" d="M225.5,324.58a26.87,26.87,0,0,1,2.69-11.41,65.42,65.42,0,0,1,9.17-13.92c7.3-8.77,16.84-13.06,28.38-12.75,5.59.15,11.54.15,18.2,0,5.62-.14,9.74-1.21,13-3.39,5.12-3.44,9.13-6.35,12.63-9.14,5.92-4.74,13.16-10.09,22-13.88l7-3c6.84-2.87,13.92-5.84,20.66-9.09,10.73-5.18,21.38-10,33.57-12.43l4.27-.82c8.44-1.61,17.18-3.27,24.84-7.2,3-1.57,6-3.35,8.93-5.08,2.26-1.34,4.6-2.74,7-4,9.91-5.4,19.92-5.62,28.95-.62,14.24,7.89,20.82,21.83,17.19,36.37l-.22.89c-1.57,6.27-3.2,12.74-1.86,19.3.9,4.47,2.44,8.9,7.54,11.05A90.11,90.11,0,0,0,503.2,290c1.74.42,3.49.8,5.25,1.18,7.36,1.6,15,3.25,21.2,7.89,3.07,2.29,6.1,4.71,9,7.06,1.76,1.41,3.52,2.83,5.31,4.22,8.46,6.63,17.22,13.47,24.81,21.54,6.37,6.78,12.86,13,22.11,15.28a124.48,124.48,0,0,0,22.81,3.48c6,.31,12.2.24,18.17.18,5.35-.05,10.88-.11,16.32.1a73.2,73.2,0,0,1,18.42,2.9c7.77,2.36,15.38,5.61,18.43,13.36a.61.61,0,0,1,0,.42.76.76,0,0,1,0,.21c-.23,4.46-3.9,6.37-7.13,8.06-.41.21-.82.42-1.22.64-2.39,1.29-4.82,2.52-7.24,3.75-2,1-3.91,2-5.84,3l-4.53,2.4c-12.13,6.47-24.68,13.15-38,18.14-10.41,3.89-19.66,4.77-28.27,2.7a54.75,54.75,0,0,1-14.11-6A51,51,0,0,0,551,393.24c-3.07.1-6.2.08-9.22.05-2.49,0-5,0-7.45,0a38.48,38.48,0,0,1-21.46-6.24c-19.75-12.37-34.8-23.85-47.35-36.1a69,69,0,0,1-9.2-11.07c-3.27-4.91-6.33-10-9.29-15-1.16-1.95-2.32-3.9-3.5-5.84-4.11-6.76-9.18-10.3-16.45-11.45a48.13,48.13,0,0,0-11.94.08c-2,.19-4.09.38-6.18.43-1.23,0-2.48.09-3.73.16a49,49,0,0,1-11.49-.33,133.39,133.39,0,0,1-20-5.93c-6.38-2.31-13.3-4.39-20.7-4a69.15,69.15,0,0,0-20.78,4.4C320.4,306.86,314.1,313.61,313,323c-.67,5.92-1,12-1.26,17.83-.13,2.52-.25,5-.41,7.57A23.15,23.15,0,0,1,306,362.6c-5.67,6.62-13.46,11.42-23.82,14.65-4.58,1.44-9.05,2.7-13.38,2.41-9.08-.62-16-4.83-20.6-12.53-4.43-7.43-10.36-17.15-17.05-26.42C227.4,335.46,225.5,330.07,225.5,324.58ZM483.34,246.4c0-11.07-6.25-21.11-17.39-27.29-8.47-4.68-17.88-4.47-27.21.62-2.34,1.28-4.67,2.67-6.92,4-2.91,1.73-5.92,3.53-9,5.12-7.89,4-16.76,5.74-25.33,7.37l-4.25.82c-12,2.37-22.51,7.16-33.14,12.28-6.79,3.27-13.88,6.25-20.75,9.13l-7,3c-8.7,3.71-15.83,9-21.65,13.64-3.54,2.83-7.59,5.76-12.75,9.23-3.53,2.37-8,3.54-13.94,3.68-6.69.15-12.67.15-18.29,0a32.41,32.41,0,0,0-27,12.15,64.07,64.07,0,0,0-9,13.62c-4.23,9.07-3.3,17.63,2.87,26.18,6.72,9.31,12.68,19.07,17.12,26.52A23.08,23.08,0,0,0,269,378.19c4,.27,8.29-.95,12.7-2.33,10.05-3.13,17.59-7.76,23.06-14.15a21.85,21.85,0,0,0,5-13.37c.16-2.52.28-5,.41-7.56.29-5.88.59-11.95,1.26-17.9,1.13-10,7.75-17.14,20.24-21.84A70.52,70.52,0,0,1,353,296.53c7.73-.4,14.86,1.74,21.42,4.11a129.8,129.8,0,0,0,19.7,5.86,47.79,47.79,0,0,0,11.05.3c1.27-.07,2.54-.13,3.79-.16,2-.05,4.07-.24,6-.42a48.92,48.92,0,0,1,12.4-.07c7.81,1.24,13.24,5,17.61,12.2q1.77,2.92,3.51,5.85c2.95,4.94,6,10.05,9.25,14.93a67.48,67.48,0,0,0,9,10.83c12.47,12.17,27.43,23.58,47.09,35.89a36.76,36.76,0,0,0,20.47,6c2.49-.05,5,0,7.49,0,3,0,6.11.05,9.15-.05,10-.34,19.34,2.11,28.71,7.49a52.79,52.79,0,0,0,13.64,5.85c8.24,2,17.14,1.12,27.2-2.64,13.23-5,25.73-11.6,37.81-18l4.53-2.41c1.94-1,3.91-2,5.87-3,2.41-1.22,4.83-2.44,7.2-3.73.41-.22.82-.44,1.24-.65,3.15-1.64,6.13-3.19,6.31-6.85a.58.58,0,0,1,0-.14c-3-7.47-10.53-10.32-17.39-12.4a71.28,71.28,0,0,0-18-2.82c-5.4-.2-10.9-.15-16.23-.09-6,.06-12.2.12-18.29-.19a126.59,126.59,0,0,1-23.15-3.53c-9.71-2.35-16.39-8.79-22.94-15.75-7.51-8-16.21-14.8-24.63-21.38-1.79-1.4-3.56-2.82-5.33-4.24-2.91-2.34-5.92-4.75-9-7-5.94-4.42-13-6-20.53-7.59-1.77-.38-3.54-.77-5.29-1.19a91.2,91.2,0,0,1-14-4.64c-5.79-2.44-7.53-7.5-8.46-12.12-1.39-6.85.27-13.47,1.87-19.88l.23-.89A31,31,0,0,0,483.34,246.4Z"/><path class="cls-2" d="M573.46,260.53v-.12c0-4.48,3.9-8.33,9.84-9.81,11-2.73,21.6-7.86,33.45-16.16,12.26-8.59,27-12.18,43.79-10.68a30.56,30.56,0,0,1,18.05,7.45c4.68,4.18,6.35,9.23,7.28,13.16a.58.58,0,0,1,0,.32.36.36,0,0,1,0,.18c0,7-3.22,13-9.47,17.81-2.75,2.13-5.73,4.07-8.62,5.95-2,1.31-4,2.65-6,4-3.21,2.27-6.38,4.59-9.55,6.91-5,3.69-10.23,7.5-15.53,11-11.7,7.83-22.5,8.9-33,3.26a64,64,0,0,1-6.43-3.94l-1.85-1.29c-6.57-4.56-13.36-9.27-17.66-15.93C576.16,270.22,573.46,265.33,573.46,260.53Zm110.8-15.84v0c-1.33-5.62-3.37-9.33-6.83-12.42a28.79,28.79,0,0,0-17-7c-16.35-1.47-30.68,2-42.6,10.37s-22.84,13.64-34,16.42c-4,1-8.59,3.78-8.63,8.4v.11c0,3.31,1.44,7.37,4.08,11.45,4.14,6.41,10.8,11,17.25,15.51l1.85,1.3a61.46,61.46,0,0,0,6.27,3.83c10,5.37,19.89,4.36,31.15-3.17,5.27-3.53,10.45-7.33,15.47-11,3.17-2.33,6.35-4.66,9.57-6.93,2-1.41,4.06-2.76,6.07-4.07,2.85-1.87,5.81-3.8,8.51-5.88,5.87-4.52,8.86-10.14,8.89-16.7A1.13,1.13,0,0,1,684.26,244.69Z"/><path class="cls-2" d="M376.58,270.39c0-.09,0-.17,0-.25a8.49,8.49,0,0,1,4.14-6.36c6.56-4.33,13-6.12,19.56-5.45,5.5.56,12.35,1.25,15,7.85a.67.67,0,0,1,0,.42.62.62,0,0,1,0,.38c-.2.62-.36,1.26-.51,1.91a11,11,0,0,1-1.66,4.25,21.53,21.53,0,0,1-14.91,8.64,25,25,0,0,1-18-5.23C377.24,274.27,376.58,272,376.58,270.39Zm37.1-3.79c-2.3-5.67-8-6.25-13.57-6.81-6.17-.62-12.19,1.07-18.4,5.17a7.05,7.05,0,0,0-3.47,5.24c-.09,1.85.94,3.62,3,5.24A23.27,23.27,0,0,0,398,280.32a19.88,19.88,0,0,0,13.76-8,9.88,9.88,0,0,0,1.41-3.74C413.31,267.91,413.47,267.24,413.68,266.6Z"/><path class="cls-2" d="M55.52,190.67c0-2.22,1.39-5.86,10.17-6.57,7.34-.59,14.89.68,23.76,4,10.33,3.87,16.39,10.45,18,19.56.29,1.59.67,3.2,1,4.76.18.76.36,1.52.53,2.28a.69.69,0,0,1,0,.32.46.46,0,0,1,0,.2c-.08,1.94-.13,3.88-.18,5.82-.11,4.48-.23,9.11-.72,13.65-.46,4.29-1.45,9.21-5.24,13.14a6,6,0,0,1-4.46,2.07,5.36,5.36,0,0,1-4-2.13,29.3,29.3,0,0,1-3.26-4.71,133.78,133.78,0,0,0-17.34-25c-5.72-6.51-11.19-13.19-16.23-19.86-1.64-2.17-2.06-5.22-2.12-7.39A1,1,0,0,1,55.52,190.67ZM107.4,215v0c-.17-.76-.35-1.51-.53-2.26-.37-1.58-.76-3.21-1.05-4.84-1.52-8.57-7.24-14.77-17-18.43-8.61-3.23-15.91-4.46-23-3.89-3.29.26-8.78,1.37-8.66,5.23.06,2,.43,4.73,1.84,6.61,5,6.64,10.46,13.29,16.17,19.77a136.64,136.64,0,0,1,17.52,25.24,27.67,27.67,0,0,0,3.1,4.47,3.73,3.73,0,0,0,2.68,1.54,4.32,4.32,0,0,0,3.14-1.56c3.5-3.62,4.42-8.26,4.85-12.32.48-4.49.6-9.09.72-13.55,0-1.94.1-3.89.18-5.83A.77.77,0,0,1,107.4,215Z"/><path class="cls-2" d="M25.55,445.18c0-1.11.06-2.2.15-3.24,1.19-14.09,10-21.14,25.42-20.39a68.67,68.67,0,0,1,13.25,2.13c14.07,3.51,29.41,8.67,33.54,25.58a.62.62,0,0,1,0,.33.8.8,0,0,1,0,.15c.22,5.58-1.37,9.7-5,12.94-5.36,4.83-12.23,5.68-18.81,6.14-8.18.57-16.84-.35-27.23-2.89-7.3-1.78-14.2-3.9-18.41-10.12A18.4,18.4,0,0,1,25.55,445.18Zm70.75,4.41v0c-3.53-14.49-15.49-20.26-32.36-24.48A67.45,67.45,0,0,0,51,423c-14.39-.7-22.57,5.88-23.68,19-.34,4-.3,8.75,2.58,13,3.89,5.75,10.46,7.75,17.43,9.45C57.56,467,66,467.91,74,467.35c6.27-.43,12.81-1.24,17.77-5.7,3.29-3,4.68-6.64,4.48-11.86A.44.44,0,0,1,96.3,449.59Z"/><path class="cls-2" d="M677.68,53.33a14.62,14.62,0,0,1,3.13-8.81c3-4,7.42-6.72,14.31-8.77a17.42,17.42,0,0,1,12.55.7c5.08,2.26,7.49,6.34,9.82,10.28l.41.69c1.46,2.46,2.87,5,4.23,7.47,2.18,4,4.43,8,7,11.86,1.21,1.83,2.56,3.63,3.87,5.37,3.37,4.48,6.85,9.12,8.42,14.66a.73.73,0,0,1,0,.36.88.88,0,0,1,0,.16c.17,11.2-5.71,19.39-17.59,24.25-7.93,3.24-15.15,2.79-21.46-1.33a20.67,20.67,0,0,1-8.87-11.8c-3.66-12.54-7.78-25.86-14.26-38.75A14,14,0,0,1,677.68,53.33ZM739.8,87.14c-1.5-5.3-4.89-9.82-8.18-14.2-1.32-1.76-2.69-3.58-3.92-5.44-2.59-3.87-4.86-8-7.06-12-1.35-2.45-2.75-5-4.2-7.43l-.41-.69c-2.32-3.91-4.5-7.6-9.1-9.65a15.71,15.71,0,0,0-11.29-.63c-6.52,1.94-10.66,4.47-13.45,8.2a12.56,12.56,0,0,0-1.43,13.73c6.53,13,10.83,26.94,14.35,39a19.32,19.32,0,0,0,8.25,11c5.79,3.78,12.45,4.17,19.79,1.17,11.23-4.6,16.87-12.27,16.63-22.88A.62.62,0,0,1,739.8,87.14Z"/><path class="cls-2" d="M51,443.35a3.57,3.57,0,0,1,.19-1.16c.49-1.53,1.93-2.72,4-3.37,5.76-1.75,13.1,1.07,15.7,6a.65.65,0,0,1,0,.49.35.35,0,0,1,0,.14c.1,1.84,0,3.72-2.9,4.66-4.5,1.48-12.83-.36-15.63-3.45A5,5,0,0,1,51,443.35Zm18.36,2c-2.28-4.19-8.72-6.64-13.6-5.15a4.19,4.19,0,0,0-3,2.38,3.29,3.29,0,0,0,1,3.17c2.41,2.66,9.88,4.28,13.78,3,1.68-.55,1.92-1.39,1.82-3.21A1.21,1.21,0,0,1,69.31,445.37Z"/><path class="cls-2" d="M661.36,49.43c0-5.09,2.41-9.74,7.21-13.91A86,86,0,0,1,691.08,21.7c11.72-5.08,20.82-3.63,29.52,4.69,4,3.85,6.36,8.54,8.62,13.08l1,2c3.89,7.65,8.31,16.33,16.87,21.9a172.31,172.31,0,0,0,15.78,8.79l1,.5c2.57,1.26,5.22,2.57,6.08,5.67a.53.53,0,0,1,0,.35.62.62,0,0,1-.05.48c-.53,1.07-1,2.15-1.55,3.22a73,73,0,0,1-3.68,7.06c-6.77,10.88-13.69,21.32-24,29.5-11.35,9-22.39,12.47-34.76,10.85a29.37,29.37,0,0,1-22-13.84c-3.82-5.92-5.5-12.6-6.9-18.93l-.27-1.24C675,87.34,673,78.64,668.9,70.64a120.56,120.56,0,0,1-6.38-14.91A18.56,18.56,0,0,1,661.36,49.43Zm107,29.21c-.69-2.46-2.81-3.5-5.27-4.71l-1-.52a172.41,172.41,0,0,1-15.93-8.87c-8.92-5.8-13.43-14.66-17.41-22.48l-1-2c-2.21-4.43-4.49-9-8.32-12.68-8.23-7.87-16.48-9.18-27.59-4.36a84.26,84.26,0,0,0-22.08,13.55c-6.32,5.48-8.17,11.6-5.63,18.7A118,118,0,0,0,670.41,70c4.22,8.16,6.15,16.94,8,25.45l.27,1.24c1.43,6.47,3,12.75,6.71,18.47a27.77,27.77,0,0,0,20.79,13.12c11.85,1.55,22.47-1.78,33.42-10.49,10.08-8,16.93-18.35,23.62-29.12a66.67,66.67,0,0,0,3.6-6.91C767.34,80.74,767.84,79.68,768.36,78.64Z"/><path class="cls-2" d="M731.11,243.16c0-.15,0-.29,0-.43A44.1,44.1,0,0,1,732.4,235l.28-1.26c.28-1.28.64-2.55,1-3.83a44.79,44.79,0,0,0,1.29-5.32c.45-2.78.78-5.63,1.11-8.38.39-3.28.8-6.67,1.38-10A15.72,15.72,0,0,1,747,194.15c5.34-2.22,11.68-1.72,17.4,1.37s9.37,7.88,11.88,15.59a.7.7,0,0,1,0,.38l0,.08c1,7.11-1.32,13.71-7,19.59a103.51,103.51,0,0,1-14,12.4A49.42,49.42,0,0,1,742,250a8.86,8.86,0,0,1-7.71-.64A7.21,7.21,0,0,1,731.11,243.16Zm43.61-31.67c-2.39-7.31-5.83-11.84-11.15-14.72s-11-3.29-15.84-1.29a14.08,14.08,0,0,0-8.64,11c-.58,3.28-1,6.65-1.36,9.92-.33,2.76-.67,5.62-1.12,8.42a49.72,49.72,0,0,1-1.32,5.48c-.36,1.25-.71,2.5-1,3.76l-.28,1.26a43.53,43.53,0,0,0-1.25,7.46,5.9,5.9,0,0,0,2.52,5.41,7.13,7.13,0,0,0,6.17.45,48.15,48.15,0,0,0,12.8-6.24,101,101,0,0,0,13.81-12.21c5.38-5.55,7.61-11.76,6.63-18.44A.62.62,0,0,1,774.72,211.49Z"/><path class="cls-2" d="M363.42,370.7A47.09,47.09,0,0,1,365.68,357c1.71-5.62,6.05-9.19,12.56-10.34a55.69,55.69,0,0,1,12.09-.74c11.8.54,18.41,4.47,22.09,13.15a45.72,45.72,0,0,1,2.06,6.6c.26,1,.52,2,.81,3a.73.73,0,0,1,0,.36.65.65,0,0,1,0,.24c-.12,1.28-.17,2.58-.21,3.87a29.77,29.77,0,0,1-1.17,8.61c-2.26,6.53-8.76,17.27-26.9,15.79-9-.74-15.63-4.7-19.66-11.76A29.67,29.67,0,0,1,363.42,370.7ZM413.69,369c-.3-1-.56-2-.82-3a45.25,45.25,0,0,0-2-6.41c-3.42-8.05-9.59-11.7-20.64-12.19a53.89,53.89,0,0,0-11.68.71c-5.93,1-9.73,4.16-11.28,9.27-3.38,11.13-2.89,19.94,1.56,27.72,3.82,6.68,9.81,10.26,18.35,11,17,1.39,23.05-8.65,25.16-14.75a28.39,28.39,0,0,0,1.09-8.23c.05-1.32.1-2.64.22-3.94Z"/><path class="cls-2" d="M415.36,98.53a4.29,4.29,0,0,1,1.17-2.89,13.27,13.27,0,0,1,10.23-4.81c2.78-.06,5.65-.07,8.78,0,10.83.22,19.79,6,23.37,15a.68.68,0,0,1,0,.42.62.62,0,0,1,0,.27,15.89,15.89,0,0,1-6.8,11.41,17.78,17.78,0,0,1-12.38,2.55c-9.79-1.36-21.07-10.32-23.68-18.8l-.19-.6A8,8,0,0,1,415.36,98.53Zm42,7.69C454,97.84,445.6,92.51,435.5,92.3c-3.1-.06-5.94-.06-8.69,0a11.51,11.51,0,0,0-9,4.24c-1.23,1.43-.85,2.6-.36,4.08l.2.63c2.47,8,13.11,16.45,22.34,17.74a16,16,0,0,0,11.14-2.28,14.51,14.51,0,0,0,6.15-10.41A.24.24,0,0,1,457.33,106.22Z"/><path class="cls-2" d="M393.92,534.83a3.35,3.35,0,0,1,.8-1.8,6.54,6.54,0,0,0,.39-.58.8.8,0,0,1,.5-.37.87.87,0,0,1,.65.07l2.77,1.41a.71.71,0,0,1,.39.81.66.66,0,0,1-.22.7l-2.38,2.12a.84.84,0,0,1-.63.21.88.88,0,0,1-.6-.27,5.78,5.78,0,0,0-.5-.48,2.82,2.82,0,0,1-1.16-1.7A.49.49,0,0,1,393.92,534.83Zm2.22-1.05,0,0c-.25.36-.59.77-.54,1s.44.54.68.76l1.26-1.12Z"/><path class="cls-2" d="M279.48,544.8c0-.22,0-.43,0-.65.26-2.28,1.87-4.39,4.79-6.28a45.13,45.13,0,0,1,6.45-3.26c2.28-1,4.59-2,6.89-2.92,3.48-1.45,7.07-3,10.52-4.54,2.48-1.14,4.95-2.42,7.35-3.65,3.41-1.77,6.95-3.59,10.6-5.08,5.24-2.15,9.66-2.53,13.12-1.13,3.1,1.26,5.33,3.91,6.64,7.86,2.74,8.3,5.22,15.78,7.94,23.3A50.82,50.82,0,0,0,373.66,574l.16.11c5,3.41,10.18,6.94,12.1,12.92a.52.52,0,0,1,0,.37.73.73,0,0,1,0,.22c0,.69,0,1.39,0,2.09a14.76,14.76,0,0,1-.48,4.77,36,36,0,0,1-13.36,18.67c-7,4.95-14.28,6.21-21.76,3.74-5.56-1.84-9.3-5.48-12.65-9.05l-7-7.42c-10.55-11.25-21.47-22.89-32.34-34.23-2.79-2.91-5.86-5.72-8.83-8.43-2-1.86-4.15-3.78-6.16-5.73C280.79,549.48,279.48,547.06,279.48,544.8Zm104.85,42.56c-1.78-5.49-6.73-8.86-11.52-12.12l-.15-.11a52.2,52.2,0,0,1-20.42-26.23c-2.73-7.54-5.22-15-8-23.33-1.16-3.53-3.09-5.86-5.73-6.94-3-1.21-7-.84-11.75,1.12-3.58,1.47-7.08,3.27-10.47,5-2.4,1.24-4.89,2.53-7.41,3.69-3.48,1.6-7.09,3.11-10.57,4.56-2.3,1-4.6,1.92-6.87,2.91a43.81,43.81,0,0,0-6.21,3.13c-2.52,1.64-3.91,3.4-4.11,5.24-.23,2,.93,4.27,3.43,6.69,2,1.94,4.09,3.85,6.12,5.7,3,2.73,6.08,5.55,8.91,8.5,10.88,11.35,21.79,23,32.35,34.24l7,7.43c3.21,3.42,6.77,6.9,12,8.61,6.9,2.27,13.68,1.09,20.15-3.51A34.47,34.47,0,0,0,383.85,594a13.74,13.74,0,0,0,.42-4.36c0-.73,0-1.45,0-2.17A.68.68,0,0,1,384.33,587.36Z"/><path class="cls-2" d="M95.3,546.38c0-3.83.08-7.64.16-11.39l.05-2.57c.21-9.85,9.32-13.42,17-13.48h1.72c10.49-.09,21.33-.17,32-.76a159,159,0,0,0,16.47-2.09l4.07-.65c2.32-.36,4.64-.77,6.95-1.17,7.67-1.35,15.59-2.75,23.78-2.45,13.53.47,23.77,7,28.12,17.9a.68.68,0,0,1,0,.42.52.52,0,0,1,0,.11c.68,6.63-1.87,12.16-7.78,16.89a49.6,49.6,0,0,1-16.2,8.55c-10.11,3.18-23.45,7.3-36.93,11-13,3.53-27,6.91-41.92,6.18a55.23,55.23,0,0,1-17.32-3.36c-6-2.29-9.55-6.5-9.89-11.56C95.38,554.08,95.3,550.22,95.3,546.38ZM224,530.14c-4.12-10.27-13.81-16.41-26.59-16.86-8-.29-15.83,1.09-23.4,2.42-2.32.41-4.65.82-7,1.18l-4.06.65a158,158,0,0,1-16.66,2.11c-10.67.59-21.54.67-32,.76h-1.71c-7,.06-15.23,3.24-15.41,12L97.11,535c-.16,7.48-.33,15.23.17,22.79.3,4.55,3.46,8.21,8.89,10.3a52.82,52.82,0,0,0,16.76,3.24c14.69.72,28.49-2.63,41.35-6.12,13.45-3.65,26.76-7.77,36.86-10.94A47.82,47.82,0,0,0,216.78,546c5.5-4.4,7.87-9.52,7.24-15.66A.65.65,0,0,1,224,530.14Z"/><path class="cls-2" d="M165.53,479.24a21,21,0,0,1-20-14.53c-2.6-7.19-2.58-14.62-2.55-21.81,0-5.85.05-11.9-1.38-17.69-3-12.18-9.69-16.74-17.41-22a68.56,68.56,0,0,1-12-9.67c-9.22-9.77-10.11-16.26-3.8-27.76,5.59-10.21,6.52-25.68-2.79-34.28l-.61-.57.7-.45c7.26-4.67,16.91.65,19.7,2.39,6.29,3.93,7.77,4,15.14,2.94,8.93-1.33,17.52-2,24.35,4,5.81,5.07,7.66,12.62,9.46,19.92.52,2.14,1.07,4.35,1.7,6.44,2.53,8.35,7.59,14.42,12.95,20.84.85,1,1.71,2.05,2.57,3.1,3.63,4.44,8.06,8,12.35,11.52A88.48,88.48,0,0,1,215,411.71c3.9,4.44,5.14,10.67,3.42,17.09-2.07,7.68-7.92,14.18-14.93,16.55l-.92.31c-6.82,2.3-10.94,3.68-13.32,11-.51,1.53-.9,2.93-1.25,4.16-1.29,4.58-2.22,7.9-7.05,12.31A23,23,0,0,1,165.53,479.24ZM107.07,331.12c9.12,9.14,8.12,24.85,2.42,35.25-6,11-5.23,16.89,3.61,26.25a67.78,67.78,0,0,0,11.79,9.49c7.61,5.21,14.81,10.13,17.94,22.79,1.47,5.94,1.45,12.08,1.42,18,0,7.07-.05,14.38,2.48,21.36a20.11,20.11,0,0,0,14.06,13.1,21.23,21.23,0,0,0,19.31-5.24c4.56-4.16,5.4-7.16,6.68-11.7.35-1.25.75-2.66,1.26-4.22,2.58-7.89,7.43-9.52,14.15-11.78l.92-.31c6.6-2.24,12.13-8.38,14.08-15.66,1.61-6,.47-11.78-3.13-15.9a87.3,87.3,0,0,0-11-10c-4.34-3.52-8.82-7.16-12.53-11.7-.86-1.05-1.72-2.08-2.57-3.1-5.45-6.52-10.59-12.69-13.19-21.29-.65-2.12-1.19-4.35-1.72-6.51-1.75-7.1-3.55-14.45-9-19.25-6.42-5.61-14.69-4.93-23.31-3.65-7.56,1.13-9.43,1-16-3.12C122.13,332.36,113.62,327.64,107.07,331.12Z"/><path class="cls-2" d="M171,429.47a21.74,21.74,0,0,1-3.65-.28c-7.62-1.37-9.56-8.08-11.26-14-.24-.82-.48-1.64-.72-2.43a26.05,26.05,0,0,0-3.2-5.57c-3.22-4.77-6.87-10.18-3.07-14a7,7,0,0,1,5.14-1.9h0A17,17,0,0,1,165,395.67h0l1.57,1.73c4,4.44,8.24,9,13.32,12.34a18.86,18.86,0,0,0,3.65,1.67c2.22.83,4.52,1.69,6,3.88,1.81,2.72,2.32,5.14,1.52,7.2-.94,2.44-3.65,4.23-8.07,5.34A53.34,53.34,0,0,1,171,429.47Zm-16.74-36.92h0a5.71,5.71,0,0,0-4.23,1.51c-3,3.09.29,8,3.23,12.4a26.74,26.74,0,0,1,3.36,5.9c.25.81.49,1.63.73,2.46,1.68,5.84,3.41,11.87,10.24,13.09,4.23.75,10.78-.25,15.11-1.33,3.92-1,6.4-2.56,7.17-4.55.64-1.64.17-3.66-1.39-6-1.23-1.84-3.23-2.59-5.35-3.38a20.57,20.57,0,0,1-3.91-1.8c-5.22-3.4-9.46-8-13.57-12.56l-1.56-1.71A15.64,15.64,0,0,0,154.28,392.55Z"/><path class="cls-2" d="M167.89,457.61h-.22c-8.34-.16-10.52-8.53-11.49-15.8-1.75-13.2-8.49-23.36-15.63-34.13q-1.44-2.16-2.87-4.35a29.68,29.68,0,0,0-4.1-4.57c-3.14-3.09-6.39-6.28-6.35-10.25a15.13,15.13,0,0,1,1-4.54,13.13,13.13,0,0,0,.9-4.2c0-5.43-2.94-12.8-5.64-17.36l-.07-.13v-.14c-.32-3.48,2-6,6.09-6.87a10.05,10.05,0,0,1,4.53.66c.4.12.79.24,1.14.33,1.14.29,2.39.5,3.71.73,3,.52,6,1.06,8.4,2.51,4,2.46,6,7.25,7.93,11.89A39.13,39.13,0,0,0,159,379c5.31,7.4,12.8,10.45,20.73,13.69,2.24.91,4.57,1.86,6.85,2.92,10,4.63,22.66,17.56,20.33,29.78-1.5,7.88-10.55,11.6-17.83,14.59-1.76.73-3.43,1.42-4.82,2.1-3.07,1.5-4.79,4.57-6.45,7.54C175.6,453.53,173.31,457.61,167.89,457.61Zm-43.23-95.74c2.76,4.71,5.71,12.27,5.74,17.88a14.74,14.74,0,0,1-1,4.62,13.64,13.64,0,0,0-.91,4.14c0,3.42,3,6.41,6,9.32a31.08,31.08,0,0,1,4.27,4.78c.95,1.46,1.91,2.9,2.86,4.35,7.23,10.89,14.05,21.17,15.84,34.67.95,7.17,2.91,14.53,10.23,14.67,4.82.08,6.73-3.36,9-7.36,1.75-3.14,3.57-6.39,7-8.07,1.43-.7,3.11-1.39,4.9-2.13,7-2.87,15.67-6.45,17-13.63,2.18-11.42-10.2-24-19.6-28.36-2.25-1.05-4.56-2-6.79-2.9-8.11-3.31-15.77-6.43-21.3-14.13a40.1,40.1,0,0,1-3.94-7.83c-1.87-4.45-3.79-9.06-7.43-11.3-2.14-1.32-5.09-1.83-7.94-2.32-1.34-.24-2.61-.46-3.8-.76-.37-.09-.77-.22-1.19-.34a9.16,9.16,0,0,0-3.91-.63C128.1,356.86,124.4,358,124.66,361.87Z"/><path class="cls-2" d="M619.65,382c-1.27,0-2.5,0-3.65,0-.94,0-1.82,0-2.6,0-9.85,0-19.24-1.51-28.32-3-6.12-1-12.46-2-18.91-2.55-9.62-.82-17.32-1.16-26-.31-1.44.14-3,.39-4.73.66-4.31.7-9.2,1.48-12.83.49-3.35-.91-7.48-4-11.12-6.79a68.18,68.18,0,0,0-5.57-4c-5-3-10.06-6.36-14.92-9.64l-2-1.36c-1.19-.8-2.37-1.58-3.54-2.35-10.79-7.13-20.1-13.29-24.08-26.34-2.54-8.3-3.52-19.38,1.34-25.56,2.66-3.39,6.74-4.95,12.14-4.64h0c9.29,1,19,5,27.48,8.57l4.27,1.76a81.52,81.52,0,0,1,11.28,6,88.29,88.29,0,0,0,10.41,5.62c1.35.58,2.63,1.09,3.86,1.57,4.12,1.64,7.68,3.05,11.58,6.17a52.51,52.51,0,0,0,7.49,4.68,50.51,50.51,0,0,1,7.65,4.82,9.36,9.36,0,0,1,3.38,5.29,16.61,16.61,0,0,0,1.23,3.11c4.15,7.75,13.85,13.64,21.26,17.22,7.61,3.67,18,8.71,26.83,9.74a46.9,46.9,0,0,0,9.47-.18,64.1,64.1,0,0,1,7.75-.34,7.23,7.23,0,0,0,1.59-.46c1.28-.46,2.61-.94,3.43-.39a4.75,4.75,0,0,1,2.35,3.39c.23,2-1.07,3.87-2.2,5.07C630.93,381.46,625,382,619.65,382Zm-69.22-7.71c5,0,10.09.32,15.85.82,6.5.56,12.86,1.57,19,2.55,9,1.44,18.36,2.93,28.11,2.95.79,0,1.68,0,2.63,0,5.75.13,13.62.32,17-3.31,1.33-1.41,2-2.85,1.85-4a3.55,3.55,0,0,0-1.78-2.46c-.28-.18-1.62.3-2.27.54a6,6,0,0,1-2.09.53,59.92,59.92,0,0,0-7.58.34,48.64,48.64,0,0,1-9.73.18c-9-1.07-19.55-6.16-27.24-9.87s-17.53-9.72-21.84-17.77a17.71,17.71,0,0,1-1.33-3.34,8.15,8.15,0,0,0-3-4.68,49.42,49.42,0,0,0-7.46-4.68,52.85,52.85,0,0,1-7.67-4.8c-3.75-3-7.23-4.38-11.25-6-1.24-.49-2.53-1-3.9-1.59A89.85,89.85,0,0,1,517.25,314a82.38,82.38,0,0,0-11.09-5.9c-1.38-.55-2.81-1.15-4.29-1.76-8.44-3.51-18-7.49-27.1-8.48-5-.27-8.66,1.12-11,4.15-4.55,5.8-3.45,16.76-1.12,24.38,3.84,12.6,13,18.64,23.56,25.63l3.54,2.36,2,1.37c4.84,3.27,9.86,6.64,14.85,9.59a69,69,0,0,1,5.69,4c3.55,2.68,7.58,5.73,10.68,6.58,3.36.92,8.1.15,12.29-.52,1.71-.27,3.33-.53,4.8-.68C543.62,374.4,547,374.25,550.43,374.25Z"/><path class="cls-2" d="M273.21,365.69c-5.94,0-11.4-1.42-14.17-4-7.35-6.83-16.79-29.89-20.2-49.36-1.43-8.21,2.8-14.14,12.26-17.15a34.38,34.38,0,0,1,27.43,3.21h0c5.72,3.28,13.23,8.29,16.51,13.48,6.24,9.89,4,31.74.06,43.06-1.58,4.55-6.25,8-13.14,9.71A36.67,36.67,0,0,1,273.21,365.69ZM261,295a31.44,31.44,0,0,0-9.53,1.46c-8.87,2.82-12.69,8.1-11.36,15.68,3.36,19.24,12.62,42,19.8,48.64,3.83,3.56,13.37,4.72,21.72,2.64,3.73-.93,10.29-3.32,12.22-8.88,3.94-11.32,5.87-32.75.07-41.94-3.14-5-10.47-9.83-16.06-13h0A33.94,33.94,0,0,0,261,295Z"/><path class="cls-2" d="M479.12,481.16a11.52,11.52,0,0,1-5.43-1.17,9,9,0,0,1-4.91-5.68c-1.32-5.24,2.9-11.57,6-16.2.73-1.09,1.42-2.12,1.94-3,3.6-6.08,1.5-9.05-.93-12.48a21.62,21.62,0,0,1-2.56-4.3,2.75,2.75,0,0,1,.73-3.15,2.86,2.86,0,0,1,3.31-.43,44,44,0,0,1,5.63,3.69c3.32,2.43,6.46,4.72,10.41,5.18,5.49.63,15.38-1.6,26.48-6,3.47-2,6.08-2.52,8.19-1.73,1.9.71,3.3,2.47,4.31,5.36,2.38,6.86.35,12.21-6.38,16.84a131.55,131.55,0,0,1-11.56,6.83A113.72,113.72,0,0,0,501,473C496.52,476.35,486.65,481.16,479.12,481.16Zm-3.21-45.45a1.66,1.66,0,0,0-1.1.43,1.48,1.48,0,0,0-.39,1.7,20.36,20.36,0,0,0,2.41,4c2.47,3.48,5,7.09,1,13.9-.53.9-1.23,2-2,3.05-3,4.43-7,10.48-5.81,15.16.5,2,1.9,3.59,4.26,4.85,6.44,3.44,20.11-2.55,26-6.87a114.66,114.66,0,0,1,13.45-8.17A129.4,129.4,0,0,0,525.15,457c6.26-4.31,8.08-9,5.89-15.35-.87-2.5-2-4-3.53-4.56-1.74-.65-4-.12-7.14,1.67l-.08,0c-11.3,4.46-21.46,6.73-27.14,6.07-4.3-.49-7.73-3-11-5.42a43.89,43.89,0,0,0-5.46-3.59A1.51,1.51,0,0,0,475.91,435.71Z"/><path class="cls-2" d="M81.22,641.25a11.31,11.31,0,0,1-2.06-.22l.25-1.28c2.12.42,3.63.17,4.46-.74,2.18-2.38.21-9.09-1.23-14a41,41,0,0,1-1.38-5.47c-1.26-10.24,1.46-14.94,5.56-22,.75-1.29,1.55-2.67,2.38-4.19,2.2-4,2.88-6.56,2.13-8-.83-1.65-3.63-2.35-7.59-2.9-.82-.12-1.58-.15-2.31-.19-2.28-.12-4.25-.22-6.53-2.51a7.64,7.64,0,0,1-1.79-3.88,6.52,6.52,0,0,0-1.71-3.61c-1.77-1.6-3.47-2.26-5.21-2-4.37.57-8.33,6.67-12.16,12.57-3.26,5-6.34,9.78-9.69,11.12a43.23,43.23,0,0,1-6.22,1.81,39.81,39.81,0,0,0-6.77,2c-.89.38-1.68.78-2.44,1.16a24.1,24.1,0,0,1-4.87,2c-1.95.53-5.21.44-8.66.34-5.88-.16-13.19-.37-14.14,2.72L0,603.53c1.24-4,8.77-3.83,15.41-3.64,3.36.09,6.53.18,8.29-.3a23.07,23.07,0,0,0,4.63-1.9c.78-.39,1.58-.79,2.5-1.2a42,42,0,0,1,7-2.11,41,41,0,0,0,6-1.75c3-1.19,5.93-5.77,9.08-10.61,4-6.15,8.11-12.51,13.08-13.16,2.1-.28,4.21.51,6.25,2.35a7.81,7.81,0,0,1,2.11,4.28,6.51,6.51,0,0,0,1.44,3.27c1.93,1.93,3.5,2,5.68,2.12.75,0,1.54.08,2.41.2,4.49.62,7.5,1.44,8.58,3.6,1,2,.34,4.72-2.15,9.26-.84,1.52-1.64,2.91-2.39,4.21-4.12,7.13-6.6,11.43-5.4,21.24a40.17,40.17,0,0,0,1.34,5.27c1.61,5.48,3.61,12.3.94,15.22A4.65,4.65,0,0,1,81.22,641.25Z"/><path class="cls-2" d="M517,222.5c-5.27,0-8.94-4.76-11.73-8.38l-.26-.34c-8.42-10.9-24.47-24.53-39.78-28.69-3.22-.87-6.43-1.45-9.53-2a97.78,97.78,0,0,1-11.47-2.57,4.42,4.42,0,0,1-3.11-3.67,4.33,4.33,0,0,1,2-4.25c4-2.54,11-2.41,16.58-2.31,2.06,0,3.84.07,5.07,0,3.7-.35,7.7-2.39,11.56-4.35,4.36-2.23,8.49-4.33,12.44-4.33h.05l.19,0c4.45.85,6.91,6,9.07,10.48a33.26,33.26,0,0,0,2.87,5.23c3.74,4.93,8.74,7.4,14,10,1.68.83,3.39,1.58,5,2.29,4.65,2,9,3.92,12.85,7.62l.86.79c1.78,1.6,4.21,3.78,4,6.06-.36,3.89-2.61,3.76-4.1,3.69a3.41,3.41,0,0,0-2.29.38c-2,1.39-3.1,3.68-4.3,6.09-1.63,3.29-3.31,6.69-7.28,7.87A9.42,9.42,0,0,1,517,222.5Zm-60.76-50.27c-4.42,0-9.31.29-12.07,2a2.29,2.29,0,0,0-1.06,2.3,2.43,2.43,0,0,0,1.71,2,96.79,96.79,0,0,0,11.24,2.52c3.14.57,6.39,1.16,9.69,2,15.76,4.28,32.22,18.24,40.84,29.4l.26.34c3.06,4,6.86,8.9,12.32,7.27,3.14-.94,4.55-3.81,6.06-6.84,1.25-2.54,2.55-5.16,4.93-6.85a5.19,5.19,0,0,1,3.56-.74c1.47.08,1.82.1,2-1.87.12-1.28-2-3.23-3.34-4.39-.35-.31-.66-.6-.92-.85-3.55-3.44-7.78-5.27-12.25-7.21-1.68-.73-3.42-1.48-5.15-2.33-5.51-2.72-10.71-5.29-14.73-10.6a33.26,33.26,0,0,1-3.08-5.58c-1.94-4-4.14-8.64-7.56-9.36-3.46,0-7.36,2-11.48,4.11s-8.2,4.18-12.28,4.56c-1.35.12-3.18.09-5.29.05C458.6,172.25,457.45,172.23,456.27,172.23Z"/></g></g></g></svg>