<?xml version="1.0" encoding="utf-8"?>
<!-- Generator: Adobe Illustrator 24.1.2, SVG Export Plug-In . SVG Version: 6.00 Build 0)  -->
<svg version="1.1" id="Calque_1" xmlns="http://www.w3.org/2000/svg" xmlns:xlink="http://www.w3.org/1999/xlink" x="0px" y="0px"
	 viewBox="0 0 1920 1080" style="enable-background:new 0 0 1920 1080;" xml:space="preserve">
<style type="text/css">
	.st0{fill:#A2E1E7;}
	.st1{fill:#E8CEAB;}
	.st2{opacity:0.15;}
	.st3{fill:#BF864F;}
</style>
<g>
	<rect x="0" y="-7" class="st0" width="1915.89" height="918.67"/>
	<g>
		<g id="wood_table">
			<rect x="0" y="534.96" class="st1" width="1915.89" height="545.04"/>
			<g class="st2">
				<g>
					<path class="st3" d="M0,824.52c0,0,170.87,0,411.54,0c7.76,0,15.6,0,23.49,0c121.71,0,242.74,0,362.1,0c9.14,0,18.29,0,27.45,0
						c118.94,0,240.5,0,357,0c9.6,0,19.16,0,28.64,0c81.65,0,166.01,0,250.65,0c12.1,0,24.19,0,36.29,0c11.36,0,22.9,0,34.52,0
						c11.64,0,23.55,0,35.5,0c25.09,0,45.26,0,70.25,0c11.7,0,23.31,0,34.79,0c11.47,0,22.81,0,33.94,0c7.74,0,15.29,0,22.64,0
						c103.05,0,187.09,0,187.09,0v5.36c0,0-93.37,0-209.79,0c-7.74,0-15.69-0.01-23.71-0.02c-49.78,0.01-103.57,0.02-148.94,0.02
						c-12.1,0-24.2,0-36.3,0c-96.77,0-193.65-0.01-287.01-0.01c-9.41,0-18.97,0.01-28.57,0.01c-116.5,0-238.06,0-357,0
						c-9.16,0-18.31,0-27.45,0c-119.35,0-240.38,0-362.09,0c-7.9,0-15.74,0-23.5,0c-240.67,0-411.54,0-411.54,0V824.52z"/>
					<path class="st3" d="M0,810.52c0,0,180.19,0,435.09,0c7.96,0,15.99,0,24.07,0c105.38,0,207.04,1.36,313.34,0.01
						c9.2-0.01,18.39-0.01,27.64-0.01c64.31,0,129.56,0,194.54,0c10.83,0,21.67,0,32.48,0c38.96,0,86.41,0,128.72,0
						c10.62,0,21.2,0,31.73,0c9.68,0,19.32,0,28.89,0c74.39,0,151.52,0.65,228.18,0.67c10.95,0.01,21.89,0.34,32.82,0.34
						c69.87-0.03,130.87,0.13,201.08,0.02c10.26,0.08,21.26,0.17,32.26,0.16c11.01-0.01,22.02-0.62,33.02-0.63
						c8.27,0.04,16.41-0.57,24.25-0.57c86.62,0,147.79,0,147.79,0v2.68c0,0-55.97,0-134.73,0c-13.13,0-27.13,0-41.95,0
						c-9.58,0-19.24,0-28.93,0c-9.72,0-19.47,0-29.26,0c-59.12,0-113.34,0.67-175.08,0.72c-12.41-0.04-24.62-0.37-36.82-0.38
						c-85.31,0-170.34-0.34-252.64-0.34c-9.57,0-19.21,0-28.89,0c-23.48,0-47.17,0-71,0c-23.84,0-47.81,0-71.87,0
						c-24.05,0-48.18,0-72.33,0c-48.32,0-96.7,0-144.65,0c-9.24,0-18.45,0-27.66,0c-120.32,2.68-242.33,2.68-365,0
						c-7.96,0-15.87,0-23.69,0c-242.59,0-411.39,0-411.39,0V810.52z"/>
					<path class="st3" d="M0,795.61c0,0,109.84,0,283,0c8.26,0,17.46,0.72,26.67,0.74c31.19-0.08,71.86-0.42,107.06-0.47
						c8.59,0.05,18.1-0.27,27.69-0.27c9.62,0,19.34,0,29.14,0c8.32,0,16.7,0,25.14,0c86.17,0,181.06,0,268.04,0
						c9.3,0,18.63,0,27.97,0c35.04,0,70.37,0,105.79,0c11.81,0,23.63,0,35.45,0c96.27,2.68,184.38,1.36,280.64,0.02
						c9.55-0.02,19.11-0.02,28.62-0.02c59.57,0,119.85,0,180.44,0c12.12,0,24.88,0.89,38.01,1.23
						c90.47,4.88,171.79-4.98,262.79-1.26c10.3,0.22,20.91,0.04,31.81,0.04c10.92,0,21.79,0,32.59,0c14.56,0,27.94,0,40.01,0
						c48.28,0,85.02,0,85.02,0v5.36c0,0-52.17,0-125.05,0c-7.27,0-14.85,0.01-22.57-0.04c-9.88,0-19.87,0.02-29.93,0.03
						c-89.33-1.31-184.22,0.06-275.55,0.25c-12.92-0.19-25.05-0.21-37.16-0.21c-60.59-0.01-120.88-0.03-180.48-0.03
						c-9.47,0-19.03,0-28.62,0c-82.65,0-163.98,0-245.01,0.03c-11.93-0.03-23.75-0.03-35.58-0.03c-47.28,0-94.52,0-141.24,0
						c-9.34,0-18.67,0-27.97,0c-86.97,0-181.87,0-268.08,0.01c-8.42-0.01-16.79-0.01-25.1-0.01c-274.54,0-473.56,0-473.56,0V795.61z
						"/>
					<path class="st3" d="M0,780.69c0,0,81.14,0,216.61,0c7.97,0,16.12,0,24.43,0c72.71,0,154.04,0,226.97-0.01
						c10.43,0,20.98,0.01,31.61,0.01c10.65,0,21.4,0,32.23,0c8.21,0,16.46,0,24.76,0c55.38,0,102.82,0,153.93,0
						c8.77,0,17.56,0,26.38,0c47.87,0,96.48,0,145.36,0c12.21,0,24.44,0,36.68,0c106.48,2.68,214.93,0,326.27,0
						c9.51,0,18.99,0,28.43,0c32.49,0,64.7,0,96.74,0c16.02,0,32.01,0,47.97,0c9.07,0,18.65,0.81,28.48,1.06
						c100.5,5,208.95-5.59,310.18-0.16c11.53,0,23.08-0.46,34.63-0.46c14.46,0.01,27.75-0.45,39.74-0.45c47.96,0,84.5,0,84.5,0v2.68
						c0,0-36.75,0-85.02,0c-12.07,0-25.45,0-40.01,0c-10.8,0-21.53,0-32.2,0c-102.86-2.68-211.31,4.09-316.32,0.2
						c-9.79-0.2-19.16-0.2-28.55-0.2c-46.9,0-93.9,0-140.18,0c-9.39,0-18.86,0-28.38,0c-97.77,2.68-192.67,2.73-289.13,0.13
						c-12.57-0.11-24.89-0.13-37.13-0.13c-61.19,0-122.2,0-182.04,0c-8.84,0-17.63,0-26.41,0c-64.64,0-132.42,0-203.11,0
						c-8.09,0-16.14,0-24.11,0c-74.64,0-142.42,0-218.97,0c-8.14,0-16.13,0-23.97,0c-149.08,0-240.35,0-240.35,0V780.69z"/>
					<path class="st3" d="M0,764.91c0,0,65.46,0,179.09,0c12.63,0,25.8,0.01,41.03,0.55c93.62,4.9,195.29-3.23,290.02-0.55
						c9.16,0,18.37,0,27.65,0c102.13,0,212.05,0,323.61,0c9.92,0,19.84,0.67,29.78,0.68c113.92,2.71,235.93,3.75,354.07-0.32
						c9.49-0.01,18.96-0.36,28.4-0.36c42.14,0,84.08,0,125.81,0c8.35,0,16.68,0.67,25.01,0.85c109.31,5.26,217.76-5.3,327.27-0.2
						c10.86,0.28,21.68-0.22,32.49-0.22c9.66,0.06,18.78-0.43,27.38-0.43c60.18,0,104.27,0,104.27,0v2.68c0,0-49.23,0-117.56,0
						c-7.59,0-15.56,0.62-23.9,0.53c-111.87-3.93-233.87,3.9-349.98,0c-8.46-0.18-16.87-0.52-25.27-0.52c-42.01,0-84.01,0-125.53,0
						c-9.43,0-18.92,0.69-28.41,0.71c-111.36,2.71-213.02,3.72-324.07-0.28c-10.11-0.06-20.05-0.43-29.99-0.43
						c-123.81,0-246.28,0-359.05,0c-8.67,0-17.27-0.01-25.82-0.01c-104.45-4.08-212.9,2.69-312.98,0.01c-12.2,0-23.94,0-35.18,0
						c-101.25,0-158.15,0-158.15,0V764.91z"/>
					<path class="st3" d="M0,712.55c0,0,82.31-1.02,181.5,0c12.62,0.13,40.93,1.83,55.51,2.38c100.28,4.2,172.24-7.71,274.5-2.97
						c8.67,0.44,17.03,0.84,26.29,0.84c102.13,0,212.05,0,323.61,0c9.92,0,19.84-0.12,29.78-0.11
						c120.71,2.71,204.22,7.73,322.35,2.31c18.64-1.7,50.75-2.28,60.44-2.24c40.88-0.01,81.64,0.04,122.29,0.04
						c8.14,0,16.27,0,24.39,0c106.37,5.36,221.6-4.1,330.88-0.21c11.13,0.2,21.95,0.21,32.78,0.21c9.61,0,18.72,0,27.32,0
						c8.6,0,16.68,0,24.21,0c45.2,0,80.06,0,80.06,0v5.36c0,0-44.09,0-104.27,0c-8.59,0-17.71,0-27.32,0
						c-10.82,0-21.65-0.08-32.63-0.36c-109.43-5.17-217.88,5.77-327.27,0.5c-8.25-0.17-16.58-0.14-24.93-0.14
						c-41.74,0-83.68,0-125.81,0c-9.43,0-18.91-0.07-28.39-0.05c-124.93,4.06-233.37,2.74-354.08,0.02
						c-9.94-0.01-19.87,0.03-29.78,0.03c-111.56,0-221.47,0-323.61,0c-9.24,0-18.45-0.1-26.89-0.45
						c-95.49-3.72-197.16,4.41-290.43,1.15c-15.08-0.56-26.4-0.61-38.98-0.84C72.15,715.97,0,717.99,0,717.99V712.55z"/>
					<path class="st3" d="M0,730.54c0,0,56.9,0,158.15,0c11.24,0,22.98,1.06,34.92,1.49c19,2.29,41.04,2.45,61.37,2.45
						c101.67,1.36,127.09-6.61,303.88-3.93c8.8,0,17.63,0,26.52,0c97.78,0,201.58,0,306.34,0c9.94,0,19.89,1.07,29.86,1.11
						c83.38,3.03,161.41,3.54,242.18,2.2c16.16-0.27,32.42-0.32,48.86-0.68c73.85-1.34,148.24-1.44,222.5-1.29
						c10.59,0.02,21.17,0.13,30.96,0.35c81.8,0.37,169.91,0.4,252.07,0.31c13.17,0.26,25.14,0.27,37,0.21
						c11.83-0.05,23.63-1.16,35.42-1.26c24.18,0.1,45.33-0.94,62.66-0.94c34.64,0,63.2,0,63.2,0v5.36c0,0-28.57,0-63.2,0
						c-17.33,0-38.49,0-62.99,0c-12.95,0-25.92,0-38.91,0c-101.77-5.36-210.22,2.46-311.58-0.23c-10.8,0-21.59-0.13-32.38-0.12
						c-53.93,0.02-107.71-0.02-161.2,0.02c-12.15,0.32-24.08,0.6-35.96,0.88c-106.89,2.52-215.96,0.44-318.49-0.78
						c-9.94,0-19.87,0.24-29.78,0.24c-111.56,0-221.47,0-323.61,0c-9.28,0-18.62-0.72-27.95-1.16c-67.32-3.19-135.1-0.6-202.88,3.49
						c-40.66,2.72-88.1-1.17-127.87-2.52c-12.64,0-24.72,0.19-36.24,0.19c-92.14,0-142.85,0-142.85,0V730.54z"/>
					<path class="st3" d="M1915.89,555.04c0,0-76.23,0-189.85,0c-12.63,0-25.81-0.01-41.04-0.63
						c-93.62-5.63-195.29,5.99-290.02,0.63c-9.15,0-18.37,0-27.65,0c-102.13,0-212.04,0-323.6,0c-9.92,0-19.85-1.45-29.78-1.45
						c-113.93-3.12-235.93-3.96-354.07,0.7c-9.49,0.02-18.96,0.74-28.4,0.74c-42.13,0-84.08,0-125.82,0
						c-8.34,0-16.69-1.45-25.01-1.65c-109.31-6.04-217.77,5.75-327.27-0.1c-10.86-0.33-21.68,0.75-32.48,0.76
						c-9.67-0.07-18.79,0.99-27.4,0.99c-60.17,0-93.5,0-93.5,0v-5.36c0,0,38.47,0,106.79,0c7.6,0,15.57-0.25,23.9-0.14
						c111.86,4.5,233.87-4.72,349.98-0.23c8.47,0.2,16.87,0.37,25.27,0.37c42.02,0,84.01,0,125.54,0c9.43,0,18.92-0.33,28.41-0.34
						c111.35-3.11,213.02-4.51,324.06,0.09c10.1,0.07,20.05,0.26,29.99,0.26c123.81,0,246.28,0,359.06,0
						c8.66,0,17.27,0.01,25.81,0.01c104.45,4.68,212.9-2.69,312.99-0.01c12.21,0,23.94,0,35.19,0c101.25,0,168.91,0,168.91,0V555.04
						z"/>
					<path class="st3" d="M1915.89,576.31c0,0-92.13,1.17-191.31,0c-12.61-0.15-41.41-2.1-55.99-2.74
						c-100.27-4.82-172.47,10.18-274.74,4.74c-8.67-0.5-17.26,0.38-26.53,0.38c-102.13,0-212.04,0-323.6,0
						c-9.92,0-19.85-1.2-29.78-1.2c-120.7-3.11-204.21-9.54-322.35-3.32c-18.64,1.96-50.75,3.62-60.44,3.57
						c-40.89,0.02-81.64,0.95-122.29,0.95c-8.14,0-16.27,0-24.39,0c-106.37-10.71-221.6,4.7-330.89,0.24
						c-11.14-0.23-21.95-0.24-32.78-0.24c-9.6,0-18.72,0-27.32,0c-8.59,0-16.67,0-24.2,0c-45.2,0-69.29,0-69.29,0v-10.71
						c0,0,33.32,0,93.5,0c8.6,0,17.72,0,27.32,0c10.83,0,21.64,1.05,32.63,1.36c109.43,5.93,217.89-7.1,327.27-1.05
						c8.25,0.2,16.59-0.31,24.94-0.31c41.74,0,83.68,0,125.82,0c9.43,0,18.91,1.03,28.4,1.01c124.92-4.66,233.37-3.62,354.07-0.5
						c9.94,0.01,19.86-0.51,29.78-0.51c111.55,0,221.47,0,323.6,0c9.25,0,18.46,1.06,26.9,1.46c95.49,4.27,197.15-4.59,290.42-0.84
						c15.07,0.64,27.35,0.93,39.94,1.2c109.36,2.34,191.31,0.26,191.31,0.26V576.31z"/>
					<path class="st3" d="M1915.89,600.24c0,0-67.66,0-168.91,0c-11.25,0-22.98-1.7-34.92-2.2c-19.01-2.63-41.05-2.56-61.38-2.56
						c-101.67-1.57-127.08,7.43-303.88,4.75c-8.79,0-17.62,0-26.52,0c-97.78,0-201.58,0-306.34,0c-9.95,0-19.9-1.72-29.87-1.75
						c-83.37-3.48-161.41-4.31-242.17-2.78c-16.17,0.31-32.43,0.25-48.87,0.66c-73.85,1.54-148.24,1.59-222.5,1.42
						c-10.6-0.03-21.17-0.17-30.96-0.43c-81.8-0.42-169.91-0.47-252.06-0.37c-13.17-0.3-25.14-0.31-36.99-0.26
						c-11.83,0.06-23.64,1.82-35.43,1.93c-24.17-0.11-45.33,1.56-62.65,1.56c-34.65,0-52.44,0-52.44,0v-8.03c0,0,17.8,0,52.44,0
						c17.32,0,38.48,0,62.99,0c12.95,0,25.92,0,38.9,0c101.79,8.03,210.23-2.37,311.58,0.72c10.8-0.01,21.59,0.37,32.38,0.37
						c53.93-0.02,107.71,0.14,161.19,0.1c12.16-0.36,24.09-0.63,35.97-0.95c106.89-2.89,215.96-0.93,318.5,0.47
						c9.94,0,19.86-0.7,29.78-0.7c111.55,0,221.47,0,323.6,0c9.29,0,18.62,1.28,27.96,1.78c67.31,3.67,135.09,0.92,202.87-3.78
						c40.67-3.13,88.12,1,127.89,2.55c12.63,0,24.71-0.56,36.23-0.56c92.14,0,153.62,0,153.62,0V600.24z"/>
					<path class="st3" d="M0,697.3c0,0,56.9,0,158.15,0c11.24,0,22.99,0,35.18,0c32.3,2.68,59.42,2.39,93.3,2.39
						c74.56-4.09,142.34-3.92,218.45-3.25c9.28,0.38,18.36,0.86,27.06,0.86c112.76,0,235.24,0,359.05,0
						c9.94,0,19.89-0.32,29.84-0.31c85.43,1.17,173.95,1.16,259.19,0.28c12.18-0.12,24.28-0.35,36.58-0.42
						c73.12-0.05,145.51-0.12,217.95-0.15c12.07-0.01,24.15-0.03,36.2-0.03c76.4-0.02,144.18-0.03,217.34-0.3
						c13.43,0.15,25.99,0.19,38.32,0.18c24.65-0.01,49.42,0.31,74.34,0.29c21.98,0.12,41.17,0.46,56.87,0.46
						c31.41,0,58.08,0,58.08,0v2.68c0,0-25.61,0-55.19,0c-14.79,0-32.9,0-53.93,0c-12.39,0-24.8,0-37.18,0c-12.4,0-24.77,0-37.15,0
						c-90.2,0-171.53-0.31-260.39-0.08c-10.07-0.15-20.9-0.3-31.72-0.29c-75.8,0.06-151.79,0.06-228.24,0.21
						c-16.44,0.16-32.7,0.26-48.86,0.36c-80.77,0.51-158.81,0.55-242.21-0.45c-9.95-0.02-19.9,0.26-29.83,0.26
						c-104.76,0-208.57,0-306.35,0c-8.89,0-17.73,0-26.52,0c-109.01-5.36-203.9,2.42-312.35,1.05c-13.57,0-40.67,1.52-53.03-0.84
						c-11.81-0.36-23.55-0.21-34.79-0.21c-101.25,0-158.15,0-158.15,0V697.3z"/>
					<path class="st3" d="M0,682.54c0,0,59.61,0,164.8,0c11.69,0,23.89,0,36.55,0c105.62,2.68,214.07-4.08,324,0
						c8.84,0,17.73,0,26.7,0c11.63,0,23.37,0,35.18,0c11.82,0,23.73,0,35.72,0c36.49,0,77.16,0,109.73,0c12.36,0,24.79,0,37.26,0
						c49.88,0,100.43,0,151.1,0c9.94,0,19.9-0.36,29.86-0.35c71.17-0.02,137.15-0.21,206.68-0.19c9.94,0,19.94-0.09,30.05-0.08
						c89.18-0.02,179.56-0.07,269.94-0.09c12.91-0.01,25.83-0.03,38.73-0.03c51.06,0.02,98.51,0,153.73-0.11
						c13.52,0.04,26.39,0.03,39.18,0.02c38.36-0.02,76.52,0.33,114.41,0.3c21.41,0.16,40.13,0.54,55.45,0.54
						c30.63,0,56.84,0,56.84,0v2.68c0,0-26.67,0-58.08,0c-15.7,0-34.89-0.37-56.83-0.51c-28.04,0.21-55.9,0.14-83.6,0.16
						c-9.23,0.01-18.45-0.08-27.65-0.09c-67.83-0.19-142.39-0.23-211.5-0.87c-10.88-0.05-21.74-0.12-32.61-0.15
						c-76.06-0.26-152.01-0.21-228.77,0.92c-11.37,0.08-22.67,0.16-33.81,0.29c-77.98,0.89-155.07,1.1-232.14-0.04
						c-9.99-0.03-19.94,0.29-29.89,0.29c-126.67,0-252.64,0-368.99,0c-8.96,0-17.85-0.36-26.69-0.37
						c-109.92-5.44-218.38,5.64-324.7,0.53c-11.97-0.34-24.16-0.17-35.84-0.17c-105.18,0-164.8,0-164.8,0V682.54z"/>
					<path class="st3" d="M0.08,656.2c97.18,0.14,194.51,0.25,291.94,0.34c12.18,0.01,24.36,0.03,36.79,0.03
						c212.05-1.24,414.8,1.36,626.93,0.91c11.72-0.06,23.42-0.14,35.08-0.24c11.66-0.1,23.29-0.21,34.9-0.34
						c12.78-0.05,24.96-0.06,37.09-0.07c35.75-0.01,71.51-0.01,107.27-0.03c13,0,26.11,0.02,39.02,0.02
						c68.47,0.24,129.3,0.24,195.43-0.16c12.96-0.04,25.89-0.08,38.8-0.12c116.22-0.38,231.01-0.99,349.11-0.37
						c25.86-0.03,97.64-0.22,123.45-0.22c11.75,0-6.1,0,0,0c6.11,0,0,0,0,0l0,0c0,0,5.64,0,0,0c-5.65,0,10.92,0.99,0,0.99
						c-25.92,0.04-95.14,0.56-121.11,0.59c-115.25-0.62-231.83,0.12-349.49,0.5c-13.12,0.05-26.57,0.26-39.66,0.31
						c-67.23,0.33-128.06,0.39-195.66,0.19c-13.19-0.05-26.23-0.03-39.23-0.03c-23.45,0.01-46.89,0.03-70.34,0.03
						c-11.72,0-23.44,0.02-35.18,0.02c-33.62,0.07-67.5,0.12-101.45,0.15c-11.4,0.01-23.01,0.01-34.33,0.02
						c-199.33-0.8-402.09-0.8-600.45-0.44c-12.16-0.01-24.83-0.01-37.01-0.02c-97.45-0.1-194.8-0.21-291.97-0.34L0.08,656.2z"/>
					<path class="st3" d="M0,1063.27c0,0,109.84,0,283,0c8.26,0,17.46,0.96,26.67,0.99c31.19-0.08,71.86-0.54,107.06-0.59
						c8.59,0.05,18.1-0.4,27.69-0.4c9.62,0,19.34,0,29.14,0c8.32,0,16.7,0,25.14,0c86.17,0,181.06,0,268.04,0c9.3,0,18.63,0,27.97,0
						c35.04,0,70.37,0,105.79,0c11.81,0,23.63,0,35.45,0c96.27,2.68,184.38,1.37,280.64,0.03c9.55-0.02,19.11-0.03,28.62-0.03
						c59.57,0,119.85,0,180.44,0c12.12,0,24.88,1.13,38.01,1.47c90.47,4.87,171.79-5.11,262.79-1.38
						c10.3,0.22,20.91-0.09,31.81-0.09c10.92,0,21.79,0,32.59,0c14.56,0,27.94,0,40.01,0c48.28,0,85.02,0,85.02,0v5.36
						c0,0-52.17,0-125.05,0c-7.27,0-14.85,0.26-22.57,0.19c-9.88,0.01-19.87,0.15-29.93,0.15c-89.33-1.31-184.22,0.11-275.55,0.31
						c-12.92-0.19-25.05-0.16-37.16-0.16c-60.59,0-120.88,0.01-180.48,0.01c-9.47,0-19.03,0.01-28.62,0.01
						c-82.65,0-163.98-0.26-245.01-0.23c-11.93-0.03-23.75-0.29-35.58-0.29c-47.28,0-94.52,0-141.24,0c-9.34,0-18.67,0-27.97,0
						c-86.97,0-181.87,0-268.08,0.01c-8.42-0.01-16.79-0.01-25.1-0.01c-274.54,0-473.56,0-473.56,0V1063.27z"/>
					<path class="st3" d="M0,1045.12c0,0,81.14,0,216.61,0c7.97,0,16.12,0,24.43,0c72.71,0,154.04,0,226.97,0
						c10.43,0,20.98,0,31.61,0c10.65,0,21.4,0,32.23,0c8.21,0,16.46,0,24.76,0c55.38,0,102.82,0,153.93,0c8.77,0,17.56,0,26.38,0
						c47.87,0,96.48,0,145.36,0c12.21,0,24.44,0,36.68,0c106.48,2.68,214.93,0,326.27,0c9.51,0,18.99,0,28.43,0
						c32.49,0,64.7,0,96.74,0c16.02,0,32.01,0,47.97,0c9.07,0,18.65,1.05,28.48,1.3c100.5,4.99,208.95-5.47,310.18-0.04
						c11.53,0,23.08-0.64,34.63-0.64c14.46,0.01,27.75-0.63,39.74-0.63c47.96,0,84.5,0,84.5,0v2.68c0,0-36.75,0-85.02,0
						c-12.07,0-25.45,0-40.01,0c-10.8,0-21.53,0-32.2,0c-102.86-2.68-211.31,4.09-316.32,0.2c-9.79-0.2-19.16-0.2-28.55-0.2
						c-46.9,0-93.9,0-140.18,0c-9.39,0-18.86,0-28.38,0c-97.77,2.68-192.67,2.72-289.13,0.13c-12.57-0.11-24.89-0.13-37.13-0.13
						c-61.19,0-122.2,0-182.04,0c-8.84,0-17.63,0-26.41,0c-64.64,0-132.42,0-203.11,0c-8.09,0-16.14,0-24.11,0
						c-74.64,0-142.42,0-218.97,0c-8.14,0-16.13,0-23.97,0c-149.08,0-240.35,0-240.35,0V1045.12z"/>
					<path class="st3" d="M0,974.44c0,0,82.31-1.02,181.5,0c12.62,0.13,40.93,1.83,55.51,2.38c100.28,4.2,172.24-7.73,274.5-2.98
						c8.67,0.43,17.03,0.81,26.29,0.81c102.13,0,212.05,0,323.61,0c9.92,0,19.84-0.1,29.78-0.09
						c120.71,2.71,204.22,7.74,322.35,2.32c18.64-1.7,50.75-2.3,60.44-2.25c40.88-0.02,81.64,0.03,122.29,0.03
						c8.14,0,16.27,0,24.39,0c106.37,5.36,221.6-4.1,330.88-0.21c11.13,0.2,21.95,0.21,32.78,0.21c9.61,0,18.72,0,27.32,0
						c8.6,0,16.68,0,24.21,0c45.2,0,80.06,0,80.06,0v5.36c0,0-44.09,0-104.27,0c-8.59,0-17.71,0-27.32,0
						c-10.82,0-21.65-0.06-32.63-0.34c-109.43-5.17-217.88,5.76-327.27,0.49c-8.25-0.17-16.58-0.15-24.93-0.15
						c-41.74,0-83.68,0-125.81,0c-9.43,0-18.91-0.05-28.39-0.03c-124.93,4.06-233.37,2.73-354.08,0.01
						c-9.94,0-19.87,0.02-29.78,0.02c-111.56,0-221.47,0-323.61,0c-9.24,0-18.45-0.08-26.89-0.43
						c-95.49-3.71-197.16,4.43-290.43,1.16c-15.08-0.55-26.4-0.59-38.98-0.83C72.15,977.86,0,979.89,0,979.89V974.44z"/>
					<path class="st3" d="M0,954.36c0,0,56.9,0,158.15,0c11.24,0,22.98-0.47,34.92-0.04c19,2.29,41.04,3.21,61.37,3.21
						c101.67,1.36,127.09-8.53,303.88-3.17c8.8,0,17.63,0,26.52,0c97.78,0,201.58,0,306.34,0c9.94,0,19.89-0.47,29.86-0.43
						c83.38,3.03,161.41,2.77,242.18,1.44c16.16-0.27,32.42-0.71,48.86-1.07c73.85-1.35,148.24-1.64,222.5-1.49
						c10.59,0.03,21.17,0.04,30.96,0.26c81.8,0.36,169.91,0.35,252.07,0.26c13.17,0.26,25.14,0.24,37,0.19
						c11.83-0.05,23.63,0.36,35.42,0.27c24.18,0.09,45.33,0.58,62.66,0.58c34.64,0,63.2,0,63.2,0v2.68c0,0-28.57,0-63.2,0
						c-17.33,0-38.49,0-62.99,0c-12.95,0-25.92,0-38.91,0c-101.77-2.68-210.22,2.26-311.58-0.43c-10.8,0-21.59-0.22-32.38-0.22
						c-53.93,0.02-107.71-0.07-161.2-0.03c-12.15,0.31-24.08,0.57-35.96,0.85c-106.89,2.52-215.96,0.62-318.49-0.6
						c-9.94,0-19.87,0.42-29.78,0.42c-111.56,0-221.47,0-323.61,0c-9.28,0-18.62-0.93-27.95-1.36c-67.32-3.2-135.1-0.7-202.88,3.38
						c-40.66,2.73-88.1-1.01-127.87-2.36c-12.64-0.01-24.72,0.34-36.24,0.34c-92.14,0-142.85,0-142.85,0V954.36z"/>
					<path class="st3" d="M0,933.39c0,0,56.9,0,158.15,0c11.24,0,22.99,0,35.18,0c32.3,5.36,59.42,3.46,93.3,3.46
						c74.56-4.09,142.34-4.45,218.45-3.78c9.28,0.38,18.36,0.32,27.06,0.32c112.76,0,235.24,0,359.05,0
						c9.94,0,19.89,0.75,29.84,0.76c85.43,1.17,173.95,1.69,259.19,0.81c12.18-0.13,24.28-0.09,36.58-0.15
						c73.12-0.05,145.51,0.01,217.95-0.02c12.07,0,24.15,0.04,36.2,0.04c76.4-0.02,144.18,0.01,217.34-0.26
						c13.43,0.16,25.99,0.2,38.32,0.2c24.65-0.01,49.42-0.76,74.34-0.77c21.98,0.12,41.17-0.6,56.87-0.6c31.41,0,58.08,0,58.08,0
						v5.36c0,0-25.61,0-55.19,0c-14.79,0-32.9,0-53.93,0c-12.39,0-24.8,0-37.18,0c-12.4,0-24.77,0-37.15,0
						c-90.2,0-171.53-0.58-260.39-0.36c-10.07-0.14-20.9-0.43-31.72-0.42c-75.8,0.05-151.79,0-228.24,0.14
						c-16.44,0.16-32.7,0.22-48.86,0.32c-80.77,0.51-158.81,0.81-242.21-0.19c-9.95-0.01-19.9,0.51-29.83,0.51
						c-104.76,0-208.57,0-306.35,0c-8.89,0-17.73,0-26.52,0c-109.01-5.36-203.9,2.14-312.35,0.78c-13.57,0-40.67,1.66-53.03-0.7
						c-11.81-0.36-23.55-0.08-34.79-0.08c-101.25,0-158.15,0-158.15,0V933.39z"/>
					<path class="st3" d="M0,916.32c0,0,70.79,0,191.94,0c13.45,0,27.46,0.16,40.26,0.57c81.55,5.04,169.67-5.94,252.61-0.78
						c10.53,0.28,20,0.2,29.55,0.2c15.86,0,31.91,0,48.15,0c8.12,0,16.38,0.13,24.58,0.13c65.57,0.02,126.57-0.05,191.21-0.09
						c9.82,0,19.75-0.05,29.51-0.05c39.02,0,77.32,0,113.22,0c9.94,0,19.9,0,29.86,0c71.17,0,137.15,0,206.67,0
						c9.94,0,19.95,0.16,30.11,0.21c12.46-0.15,24.91-0.21,37.36-0.33c12.45-0.13,24.9-0.19,37.36-0.3
						c34.18-0.66,74.85-0.64,111.96-0.44c12.43-0.02,24.87-0.18,37.31-0.18c149.24-0.02,298.34,1.05,447.4,1.05
						c30.63,0,56.84,0,56.84,0V919c0,0-26.21,0-56.84,0c-15.31,0-34.01,0.16-55.42-0.02c-202.06-1.16-412.18-1.07-616.02,0.3
						c-10.11-0.01-20.12-0.14-30.06-0.14c-69.52-0.01-135.5-0.14-206.67-0.14c-9.96,0-19.91,0-29.86,0c-9.74,0-19.49,0-29.22,0
						c-9.75,0-19.49,0-29.22,0c-23.63,0-47.31,0-71.26,0c-7.99,0-16.01,0-24.07,0c-60.39,0-121.39,0-180.15,0
						c-8.42,0-16.78,0-25.11,0c-8.32,0-16.61,0-24.83,0c-9.89,0-19.7,0.17-29.43,0.17c-99.1-5.45-207.55,4-306.41-0.08
						c-14.06,0-27.55-0.09-40.42-0.09C58.03,919,0,919,0,919V916.32z"/>
					<path class="st3" d="M0,896.68c0,0,67.2,0,183.28,0c12.9,0,26.34,0,40.29,0c83.4,0,157.96,0,241.5-0.13
						c9.81,0.12,18.93,0.13,28.13,0.13c7.65,0,15.34,0,23.09,0c7.75,0,15.54,0,23.38,0c85.87,0,167.21-2.72,254.48-0.09
						c10.91,0.06,21.61,0.09,32.31,0.09c31.88,0,63.78,0,96.52,0c9.85,0,19.67,0,29.64,0c29.3,0,58.59,0,87.76,0
						c9.92,0,19.82,0,29.7,0c9.89,0,19.77,0,29.61,0c19.24,0,38.41,0,57.46,0c9.53,0,19.03,0.66,28.52,0.74
						c77.01-0.07,151.58-2.46,225.49-0.32c12.5,0,24.99-0.5,37.5-0.5c137.45,0.07,274.68,0.08,412.75,0.08c29.15,0,54.5,0,54.5,0
						v5.36c0,0-26.21,0-56.84,0c-136.64,0-273.31-1.66-410.09-1.81c-12.43-0.01-24.87-0.35-37.31-0.34
						c-60.87-0.18-128.65-0.34-186.56,0.66c-12.43,0.12-24.98,0.21-37.43,0.37c-10.15-0.08-20.06-0.12-29.86-0.12
						c-49,0-95.31,0.63-147.23,0.63c-9.94,0-19.89,0.62-29.84,0.62c-9.37,0-18.76,0-28.14,0c-9.41,0-18.82,0-28.23,0
						c-30.73,0-62.33,0-94.02,0c-10.59,0-21.28-0.03-31.84-0.03c-78.1,0.03-166.21,0.03-248.37,0.03c-7.96,0-15.9,0-23.77,0
						c-7.87,0-15.7,0-23.48,0c-9.36,0-18.63-0.01-28.98-0.22c-78.85-3.87-166.97,0.22-245.59,0.22c-14.23,0-27.94,0-41.09,0
						c-118.4,0-187.25,0-187.25,0V896.68z"/>
					<path class="st3" d="M0,862.65c0,0,12.59,0,44.07,0c7.88,0,16.63,0,26.2,0c143.16,0,285.19,0,427.25,0
						c13.07,0,26.02-0.01,39.46-0.06c102.1-2.67,210.55,0.06,309.9,0.06c12.99,0,25.99,0,38.99,0c65.02,0,130.27,0,195.83,0
						c7.94,0,15.87,0,23.76,0c7.9,0,15.8,0,23.67,0c9.81,0,20.17,0.52,29.34,0.58c104.18-2.72,212.64-2.43,312.2-1.28
						c13.03,0,26.07-0.41,39.09-0.4c117.27,0.17,234.23,1.1,349.56,1.1c30.45,0,56.56,0,56.56,0v2.68c0,0-26.11,0-56.56,0
						c-115.33,0-232.29-0.08-349.56-0.42c-13.02-0.04-26.06-0.38-39.09-0.4c-99.56-1.6-208.01-1.86-312.22,0.82
						c-9.75,0-19.51,0-29.33,0c-47.24,0-95.1,0-143.07,0c-9.72,0-19.4,0-29.13,0c-10.1,0-20.27,0-30.49,0c-10.23,0-20.53,0-30.89,0
						c-12.9,0-25.76,0-38.59,0c-12.98,0-25.92-0.03-39.3-0.1c-104.01-2.63-205.67,0.1-306.25,0.1c-13.01,0-26.08,0-39.2,0
						c-13.11,0-26.29,0-39.54,0c-9.76,0-19.4,0-28.94,0c-9.55,0-18.98,0-28.31,0c-88.78,0-183.67,0-273.96,0
						c-11.19,0-21.59,0-31.18,0c-47.9,0-70.28,0-70.28,0V862.65z"/>
					<path class="st3" d="M0.01,844.07c156.81-0.37,331.2-0.63,497.53-0.81c13.02-0.01,24.79-0.02,38.4-0.03
						c62.62-0.32,123.67-0.44,184.26-0.42c10.1,0,19.87,0.02,29.91,0.02c85.85-0.13,167.03-0.13,256.25,0.15
						c10.62,0,21.53,0.06,32.24,0.07c10.65,0,21.27,0.01,31.93,0.01c12.78,0,25.55,0.01,38.34,0.02
						c12.79,0.01,26.53-0.01,38.68,0.02c101.58,2.32,203.24-0.4,306.22,1.09c13.53-0.06,26.42-0.16,39.41-0.25
						c115.34-0.91,230.72-2.43,346.26-0.41c10.77,0.04,84.77-0.44,76.45-0.44c-12.29,0,0,0,0,0v5.06c0,0-33.25,0-76.23-0.14
						c-118.54-1.45-236.99-0.8-355.67-0.23c-13.38,0.05-26.86,0.1-40.9,0.09c-99.02-1.08-207.5-2.44-311.66-0.32
						c-13.38,0-26.78,0.01-40.16,0.01c-21.51,0.01-43.02,0.01-64.54,0.02c-10.75,0.01-21.51,0.01-32.28,0.01
						c-70.67-0.81-138.45-0.81-205.94-0.4c-11.81-0.02-23.55-0.05-35.24-0.08c-81.65-0.23-162.34,0.01-243.1,0.8
						c-12.94,0.01-25.85,0.17-38.76,0.18c-154.93,0.12-309.73,0.35-464.18,0.35c-7.9,0-7.22,0-7.22,0V844.07z"/>
					<path class="st3" d="M0,642.73c0,0,112.13,0,290.82,0c9.92,0,20.06,0.26,30.36,0.24c43.54,0.02,90.85,0.16,131.76,0.16
						c11.89,0.01,23.78,0.07,35.69,0.07c118.95-0.01,239.01,0.03,357.6,0.03c11.86,0,23.76,0,35.6-0.01
						c70.92,0.02,145.25,0.03,214.28,0.03c12.84,0,25.64-0.01,38.39-0.04c140.44-0.36,277.12-2.72,417.99-0.25
						c7.47,0.01,14.93-0.24,22.37-0.24c22.26,0,44.83,0,69.7,0c14.02,0,27.61,0,40.7,0c130.99,0,230.63,0,230.63,0v2.68
						c0,0-83.93,0-192.82,0c-12.1,0-24.71,0-37.81,0c-36.45,0-71.58,0-106.3,0c-11.6,0-23.26,0.26-34.75,0.26
						c-138.63,0.04-280.57,0.18-420.44,0.18c-8.98,0-18.02,0.08-27.03,0.08c-10.52,0-21.09,0.03-31.66,0.03
						c-51.52,0.01-105.59,0.02-159.29,0.02c-10.38-0.02-21.14,0.07-31.52,0.07c-134.84,1.03-268.05,0.41-402.1,0.11
						c-12.19-0.03-24.38-0.35-36.58-0.37c-37.09-0.08-70.88-0.37-102.68-0.37c-10.1,0-20.04,0-29.8,0c-185.5,0-303.12,0-303.12,0
						V642.73z"/>
					<path class="st3" d="M0,878.75c0,0,116,0,295.2,0c9.95,0,20.13,0.35,30.46,0.33c43.66,0.03,91.11,0.21,132.13,0.21
						c11.91,0.01,23.84,0.1,35.78,0.1c119.3-0.01,239.69,0.03,358.62,0.03c11.9,0,23.84,0.01,35.7,0.01
						c71.11,0.02,145.68,0.03,214.89,0.03c12.88,0,25.71-0.01,38.51-0.05c140.83-0.36,277.9-2.8,419.17-0.34
						c7.5,0.01,14.97-0.32,22.44-0.32c22.31,0,44.95,0,69.88,0c14.07,0,27.69,0,40.82,0c131.36,0,222.28,0,222.28,0l0,0
						c0,0-75.16,0-184.36,0c-12.13,0-24.77,0-37.92,0c-36.55,0-71.79,0-106.6,0c-11.63,0-23.33,1.69-34.85,1.69
						c-139.04,0.04-281.37,0.9-421.64,0.89c-9,0-18.07,0.44-27.12,0.44c-10.55,0-21.14,0.21-31.74,0.21
						c-51.67,0.01-105.9,0.12-159.75,0.11c-10.41-0.02-21.19,0.12-31.6,0.12c-135.23,1.03-268.82,0.43-403.25,0.13
						c-12.22-0.03-24.45-1.77-36.69-1.79c-37.18-0.08-71.08-1.79-102.97-1.79c-10.12,0-20.08,0-29.87,0
						C121.51,878.75,0,878.75,0,878.75L0,878.75z"/>
					<path class="st3" d="M0,627.11c0,0,64.87,0,180.71,0c7.25,0,14.65,0,22.23,0c317.24-2.68,641.66-2.68,959.41,0
						c11.71,0,23.42,0,35.14,0c140.65,0,283.06,0,426.92,0c13.06,0,26.14,0,39.24,0c65.46,0,131.26,0,197.81,0
						c12.14,0,48.1,0,54.44,0c6.35,0,0,0,0,0v5.36c0,0-30.17,0-54.44,0c-6.06,0-12.81,0-20.23,0c-64.69,0-128.63,0-192.21,0
						c-12.72,0-25.41,0-38.11,0c-138.79-2.68-279.94-0.4-417.43-0.08c-11.47,0.03-22.9,0.11-34.31,0.13
						c-307.82-2.61-618.72,0.03-932.79,0.01c-8.07,0.02-15.87-0.06-23.45-0.06c-128.81,0-202.94,0-202.94,0V627.11z"/>
					<path class="st3" d="M0,610.37c0,0,67.09,0,186.06,0c7.46,0,15.24,0,23.01,0c311.11,0,622.01-1.37,929.84,1.59
						c12.24,0.06,25.16,0.81,37.59,0.89c135.15,0.96,272.23,3.24,405.74,0.54c13.49-0.03,26.59-1.23,39.58-1.23
						c89.39,0.02,205.2-1.79,294.08-1.79c6.35,0,0,0,0,0v5.36c0,0,6.35,0,0,0c-6.34,0-42.29,0.04-54.56,0.05
						c-73.88,0-148.09,0.02-222.31,0.02c-12.37,0-25.33-0.02-37.68-0.02c-137.89-0.01-280.09-0.05-420.5-0.05
						c-12.91,0-26.31,0-38.98,0c-310.78-5.36-614.93,0-923.18-0.01c-9.45,0-18.5,0.01-27.24,0.01c-122.13,0-191.45,0-191.45,0
						V610.37z"/>
					<path class="st3" d="M1915.89,1005.51c0,0-92.13,1.18-191.31,0c-12.61-0.14-41.41-2.09-55.99-2.73
						c-100.27-4.82-172.47,10.33-274.74,4.89c-8.67-0.5-17.26,0.53-26.53,0.53c-102.13,0-212.04,0-323.6,0
						c-9.92,0-19.85-1.35-29.78-1.36c-120.7-3.12-204.21-9.63-322.35-3.4c-18.64,1.96-50.75,3.74-60.44,3.68
						c-40.89,0.01-81.64,1.07-122.29,1.07c-8.14,0-16.27,0-24.39,0c-106.37-10.72-221.6,4.7-330.89,0.24
						c-11.14-0.22-21.95-0.24-32.78-0.24c-9.6,0-18.72,0-27.32,0c-8.59,0-16.67,0-24.2,0c-45.2,0-69.29,0-69.29,0v-10.72
						c0,0,33.32,0,93.5,0c8.6,0,17.72,0,27.32,0c10.83,0,21.64,0.89,32.63,1.21c109.43,5.94,217.89-7.02,327.27-0.97
						c8.25,0.2,16.59-0.24,24.94-0.24c41.74,0,83.68,0,125.82,0c9.43,0,18.91,0.88,28.4,0.85c124.92-4.65,233.37-3.53,354.07-0.42
						c9.94,0,19.86-0.43,29.78-0.43c111.55,0,221.47,0,323.6,0c9.25,0,18.46,0.91,26.9,1.31c95.49,4.27,197.15-4.67,290.42-0.92
						c15.07,0.64,27.35,0.89,39.94,1.17c109.36,2.34,191.31,0.22,191.31,0.22V1005.51z"/>
					<path class="st3" d="M1915.89,1030.64c0,0-67.66,0-168.91,0c-11.25,0-22.98-0.52-34.92-1.02c-19.01-2.63-41.05-3.15-61.38-3.15
						c-101.67-1.56-127.08,9.52-303.88,4.17c-8.79,0-17.62,0-26.52,0c-97.78,0-201.58,0-306.34,0c-9.95,0-19.9-0.54-29.87-0.57
						c-83.37-3.48-161.41-3.72-242.17-2.18c-16.17,0.31-32.43,0.55-48.87,0.97c-73.85,1.54-148.24,1.74-222.5,1.57
						c-10.6-0.03-21.17-0.1-30.96-0.35c-81.8-0.42-169.91-0.44-252.06-0.33c-13.17-0.3-25.14-0.3-36.99-0.24
						c-11.83,0.06-23.64,0.65-35.43,0.75c-24.17-0.11-45.33,0.39-62.65,0.39c-34.65,0-52.44,0-52.44,0v-5.36c0,0,17.8,0,52.44,0
						c17.32,0,38.48,0,62.99,0c12.95,0,25.92,0,38.9,0c101.79,5.36,210.23-2.52,311.58,0.57c10.8,0,21.59,0.29,32.38,0.29
						c53.93-0.02,107.71,0.1,161.19,0.06c12.16-0.36,24.09-0.65,35.97-0.97c106.89-2.89,215.96-0.78,318.5,0.62
						c9.94,0,19.86-0.56,29.78-0.56c111.55,0,221.47,0,323.6,0c9.29,0,18.62,1.13,27.96,1.63c67.31,3.67,135.09,0.84,202.87-3.85
						c40.67-3.13,88.12,1.11,127.89,2.67c12.63,0,24.71-0.45,36.23-0.45c92.14,0,153.62,0,153.62,0V1030.64z"/>
				</g>
			</g>
		</g>
		<g id="wood_table_1_">
			<rect x="0" y="-7" class="st1" width="1915.89" height="542.39"/>
			<g class="st2">
				<g>
					<path class="st3" d="M0,282.56c0,0,170.87,0,411.54,0c7.75,0,15.6,0,23.49,0c121.71,0,242.74,0,362.1,0c9.14,0,18.29,0,27.45,0
						c118.94,0,240.51,0,357,0c9.6,0,19.16,0,28.64,0c81.65,0,166.01,0,250.65,0c12.1,0,24.2,0,36.29,0c11.37,0,22.9,0,34.53,0
						c11.63,0,23.55,0,35.5,0c25.09,0,45.26,0,70.25,0c11.7,0,23.31,0,34.78,0c11.47,0,22.81,0,33.94,0c7.74,0,15.29,0,22.64,0
						c103.04,0,187.09,0,187.09,0v5.36c0,0-93.37,0-209.79,0c-7.74,0-15.69-0.01-23.71-0.02c-49.78,0.01-103.57,0.02-148.94,0.02
						c-12.1,0-24.2,0-36.29,0c-96.77,0-193.65,0-287.01-0.01c-9.41,0-18.97,0.01-28.57,0.01c-116.5,0-238.06,0-357,0
						c-9.16,0-18.31,0-27.45,0c-119.35,0-240.38,0-362.09,0c-7.9,0-15.74,0-23.5,0c-240.67,0-411.54,0-411.54,0V282.56z"/>
					<path class="st3" d="M0,268.56c0,0,180.19,0,435.09,0c7.96,0,15.98,0,24.07,0c105.38,0,207.04,1.36,313.34,0.01
						c9.2-0.01,18.39-0.01,27.64-0.01c64.31,0,129.56,0,194.54,0c10.83,0,21.66,0,32.48,0c38.96,0,86.41,0,128.72,0
						c10.62,0,21.2,0,31.73,0c9.68,0,19.32,0,28.89,0c74.39,0,151.52,0.65,228.18,0.67c10.95,0,21.89,0.34,32.83,0.34
						c69.87-0.03,130.86,0.13,201.08,0.02c10.26,0.08,21.26,0.17,32.26,0.16c11.01-0.01,22.02-0.62,33.03-0.63
						c8.27,0.04,16.41-0.56,24.25-0.56c86.63,0,147.79,0,147.79,0v2.68c0,0-55.97,0-134.73,0c-13.13,0-27.13,0-41.95,0
						c-9.58,0-19.24,0-28.94,0c-9.72,0-19.47,0-29.26,0c-59.12,0-113.34,0.67-175.08,0.72c-12.41-0.04-24.62-0.37-36.82-0.37
						c-85.31,0-170.34-0.34-252.64-0.34c-9.57,0-19.21,0-28.89,0c-23.48,0-47.17,0-71,0c-23.84,0-47.81,0-71.87,0
						c-24.05,0-48.18,0-72.34,0c-48.32,0-96.69,0-144.65,0c-9.24,0-18.45,0-27.66,0c-120.32,2.68-242.33,2.68-365,0
						c-7.97,0-15.88,0-23.7,0c-242.59,0-411.39,0-411.39,0V268.56z"/>
					<path class="st3" d="M0,253.65c0,0,109.84,0,283,0c8.26,0,17.46,0.72,26.67,0.74c31.19-0.08,71.86-0.42,107.06-0.47
						c8.59,0.05,18.1-0.27,27.69-0.27c9.62,0,19.34,0,29.14,0c8.32,0,16.71,0,25.14,0c86.17,0,181.06,0,268.04,0
						c9.3,0,18.63,0,27.97,0c35.05,0,70.37,0,105.79,0c11.81,0,23.63,0,35.45,0c96.27,2.68,184.38,1.36,280.64,0.02
						c9.55-0.02,19.11-0.02,28.62-0.02c59.57,0,119.85,0,180.44,0c12.12,0,24.88,0.89,38.01,1.23
						c90.46,4.88,171.79-4.98,262.79-1.26c10.3,0.22,20.91,0.04,31.81,0.04c10.93,0,21.79,0,32.59,0c14.56,0,27.94,0,40.01,0
						c48.28,0,85.03,0,85.03,0v5.35c0,0-52.17,0-125.05,0c-7.27,0-14.84,0.01-22.57-0.04c-9.88,0-19.87,0.02-29.93,0.03
						c-89.33-1.31-184.22,0.05-275.55,0.25c-12.92-0.19-25.05-0.21-37.16-0.21c-60.59-0.01-120.88-0.03-180.48-0.03
						c-9.47,0-19.03,0-28.62,0c-82.65,0-163.99,0-245.01,0.03c-11.93-0.03-23.76-0.03-35.58-0.03c-47.29,0-94.52,0-141.24,0
						c-9.34,0-18.67,0-27.97,0c-86.98,0-181.87,0-268.08,0.01c-8.42,0-16.79-0.01-25.1-0.01c-274.54,0-473.56,0-473.56,0V253.65z"/>
					<path class="st3" d="M0,238.72c0,0,81.14,0,216.61,0c7.97,0,16.12,0,24.43,0c72.71,0,154.04,0,226.97-0.01
						c10.43,0,20.99,0.01,31.61,0.01c10.65,0,21.4,0,32.23,0c8.21,0,16.46,0,24.76,0c55.37,0,102.82,0,153.93,0
						c8.77,0,17.56,0,26.38,0c47.87,0,96.48,0,145.36,0c12.21,0,24.44,0,36.68,0c106.48,2.68,214.93,0,326.27,0
						c9.51,0,18.99,0,28.43,0c32.49,0,64.7,0,96.74,0c16.03,0,32.01,0,47.97,0c9.07,0,18.66,0.81,28.48,1.06
						c100.5,5,208.95-5.59,310.17-0.16c11.53,0,23.08-0.46,34.63-0.46c14.46,0,27.75-0.45,39.74-0.45c47.96,0,84.5,0,84.5,0v2.68
						c0,0-36.75,0-85.03,0c-12.07,0-25.45,0-40.01,0c-10.8,0-21.53,0-32.2,0c-102.86-2.68-211.31,4.09-316.32,0.2
						c-9.79-0.2-19.16-0.2-28.55-0.2c-46.9,0-93.9,0-140.19,0c-9.39,0-18.86,0-28.38,0c-97.78,2.68-192.67,2.73-289.14,0.13
						c-12.57-0.1-24.89-0.13-37.13-0.13c-61.19,0-122.2,0-182.04,0c-8.84,0-17.63,0-26.41,0c-64.64,0-132.42,0-203.11,0
						c-8.09,0-16.14,0-24.12,0c-74.64,0-142.42,0-218.97,0c-8.14,0-16.13,0-23.97,0c-149.08,0-240.34,0-240.34,0V238.72z"/>
					<path class="st3" d="M0,222.95c0,0,65.46,0,179.09,0c12.63,0,25.8,0.01,41.04,0.55c93.62,4.9,195.29-3.23,290.02-0.55
						c9.16,0,18.37,0,27.65,0c102.13,0,212.05,0,323.6,0c9.92,0,19.84,0.67,29.78,0.68c113.92,2.71,235.93,3.75,354.07-0.32
						c9.49-0.01,18.96-0.36,28.4-0.36c42.14,0,84.08,0,125.82,0c8.34,0,16.68,0.67,25.01,0.85c109.31,5.26,217.76-5.3,327.27-0.2
						c10.86,0.28,21.67-0.22,32.49-0.22c9.66,0.06,18.78-0.43,27.38-0.43c60.18,0,104.27,0,104.27,0v2.68c0,0-49.23,0-117.56,0
						c-7.59,0-15.56,0.62-23.9,0.53c-111.87-3.93-233.87,3.9-349.98,0c-8.47-0.18-16.87-0.52-25.27-0.52c-42.01,0-84.01,0-125.53,0
						c-9.43,0-18.91,0.69-28.41,0.71c-111.36,2.71-213.02,3.72-324.07-0.28c-10.11-0.06-20.05-0.43-29.99-0.43
						c-123.81,0-246.28,0-359.05,0c-8.67,0-17.27,0-25.82-0.01c-104.45-4.08-212.9,2.68-312.98,0.01c-12.2,0-23.94,0-35.19,0
						c-101.25,0-158.15,0-158.15,0V222.95z"/>
					<path class="st3" d="M0,170.59c0,0,82.31-1.02,181.5,0c12.62,0.13,40.93,1.83,55.51,2.38c100.28,4.2,172.24-7.71,274.5-2.97
						c8.67,0.44,17.03,0.84,26.29,0.84c102.13,0,212.05,0,323.6,0c9.92,0,19.84-0.12,29.78-0.12
						c120.71,2.71,204.22,7.73,322.35,2.31c18.64-1.7,50.75-2.28,60.44-2.23c40.88-0.02,81.64,0.04,122.29,0.04
						c8.14,0,16.27,0,24.39,0c106.37,5.36,221.59-4.1,330.88-0.21c11.13,0.2,21.95,0.21,32.78,0.21c9.61,0,18.72,0,27.32,0
						c8.6,0,16.67,0,24.21,0c45.2,0,80.06,0,80.06,0v5.36c0,0-44.09,0-104.27,0c-8.6,0-17.71,0-27.32,0
						c-10.82,0-21.65-0.08-32.63-0.36c-109.43-5.17-217.88,5.77-327.27,0.5c-8.25-0.17-16.59-0.14-24.93-0.14
						c-41.74,0-83.68,0-125.82,0c-9.43,0-18.91-0.07-28.39-0.05c-124.93,4.06-233.37,2.74-354.08,0.02
						c-9.94-0.01-19.86,0.03-29.78,0.03c-111.56,0-221.47,0-323.6,0c-9.25,0-18.45-0.1-26.89-0.45
						c-95.49-3.72-197.16,4.41-290.43,1.15c-15.08-0.56-26.4-0.6-38.98-0.84C72.15,174.01,0,176.03,0,176.03V170.59z"/>
					<path class="st3" d="M0,188.58c0,0,56.9,0,158.15,0c11.24,0,22.98,1.06,34.92,1.49c19,2.29,41.03,2.45,61.37,2.45
						c101.67,1.36,127.08-6.61,303.88-3.93c8.8,0,17.63,0,26.52,0c97.78,0,201.58,0,306.34,0c9.94,0,19.89,1.07,29.86,1.1
						c83.37,3.03,161.41,3.54,242.18,2.2c16.16-0.27,32.42-0.32,48.86-0.68c73.85-1.34,148.24-1.44,222.5-1.29
						c10.6,0.02,21.17,0.13,30.96,0.35c81.8,0.36,169.91,0.4,252.06,0.31c13.17,0.26,25.14,0.27,37,0.21
						c11.83-0.05,23.63-1.16,35.42-1.25c24.18,0.1,45.33-0.94,62.66-0.94c34.64,0,63.21,0,63.21,0v5.36c0,0-28.57,0-63.21,0
						c-17.33,0-38.49,0-62.99,0c-12.95,0-25.92,0-38.91,0c-101.77-5.36-210.22,2.46-311.58-0.23c-10.8,0-21.59-0.13-32.38-0.12
						c-53.94,0.02-107.71-0.02-161.2,0.01c-12.15,0.32-24.08,0.6-35.96,0.88c-106.89,2.52-215.96,0.44-318.49-0.78
						c-9.94,0-19.86,0.24-29.78,0.24c-111.56,0-221.47,0-323.6,0c-9.28,0-18.62-0.72-27.95-1.16c-67.31-3.19-135.1-0.6-202.88,3.49
						c-40.66,2.72-88.1-1.17-127.87-2.52c-12.64,0-24.72,0.19-36.24,0.19c-92.14,0-142.85,0-142.85,0V188.58z"/>
					<path class="st3" d="M1915.89,13.08c0,0-76.23,0-189.85,0c-12.64,0-25.81-0.01-41.04-0.63c-93.62-5.63-195.29,5.98-290.02,0.63
						c-9.15,0-18.37,0-27.66,0c-102.12,0-212.04,0-323.6,0c-9.92,0-19.85-1.45-29.78-1.45c-113.93-3.12-235.93-3.96-354.07,0.7
						c-9.49,0.02-18.96,0.75-28.4,0.75c-42.13,0-84.08,0-125.82,0c-8.34,0-16.69-1.45-25.01-1.65
						c-109.31-6.05-217.77,5.75-327.27-0.11c-10.86-0.33-21.68,0.75-32.48,0.76c-9.67-0.07-18.79,0.99-27.4,0.99
						c-60.17,0-93.5,0-93.5,0V7.72c0,0,38.47,0,106.79,0c7.6,0,15.57-0.25,23.9-0.14c111.86,4.5,233.87-4.72,349.98-0.23
						c8.47,0.2,16.87,0.37,25.27,0.37c42.02,0,84.01,0,125.54,0c9.43,0,18.91-0.33,28.41-0.35c111.35-3.11,213.02-4.51,324.06,0.09
						c10.1,0.07,20.05,0.26,29.99,0.26c123.81,0,246.28,0,359.06,0c8.66,0,17.27,0.01,25.82,0.01
						c104.45,4.68,212.9-2.69,312.99-0.01c12.2,0,23.94,0,35.18,0c101.25,0,168.92,0,168.92,0V13.08z"/>
					<path class="st3" d="M1915.89,34.34c0,0-92.13,1.17-191.32,0c-12.62-0.15-41.41-2.1-55.99-2.74
						c-100.28-4.82-172.47,10.18-274.74,4.74c-8.67-0.5-17.27,0.37-26.53,0.37c-102.12,0-212.04,0-323.6,0
						c-9.92,0-19.85-1.19-29.78-1.2c-120.7-3.11-204.22-9.54-322.35-3.32c-18.64,1.96-50.75,3.62-60.44,3.57
						c-40.89,0.02-81.64,0.95-122.29,0.95c-8.14,0-16.27,0-24.39,0c-106.37-10.71-221.6,4.7-330.88,0.24
						c-11.14-0.22-21.95-0.24-32.78-0.24c-9.6,0-18.72,0-27.32,0c-8.59,0-16.67,0-24.2,0c-45.2,0-69.29,0-69.29,0V26.01
						c0,0,33.32,0,93.5,0c8.6,0,17.72,0,27.32,0c10.83,0,21.64,1.04,32.63,1.36c109.43,5.93,217.89-7.1,327.27-1.05
						c8.25,0.2,16.59-0.32,24.94-0.32c41.74,0,83.68,0,125.82,0c9.43,0,18.91,1.03,28.4,1.01c124.92-4.66,233.37-3.62,354.07-0.5
						c9.94,0,19.86-0.51,29.78-0.51c111.56,0,221.47,0,323.6,0c9.25,0,18.46,1.06,26.9,1.46c95.49,4.27,197.15-4.59,290.42-0.84
						c15.07,0.64,27.35,0.93,39.94,1.2c109.36,2.34,191.32,0.26,191.32,0.26V34.34z"/>
					<path class="st3" d="M1915.89,58.28c0,0-67.66,0-168.92,0c-11.25,0-22.98-1.7-34.92-2.2c-19.01-2.63-41.05-2.56-61.38-2.56
						c-101.66-1.57-127.08,7.43-303.88,4.76c-8.79,0-17.63,0-26.52,0c-97.78,0-201.59,0-306.34,0c-9.95,0-19.9-1.72-29.87-1.75
						c-83.37-3.48-161.41-4.31-242.17-2.78c-16.17,0.31-32.43,0.25-48.87,0.67c-73.85,1.54-148.24,1.59-222.5,1.42
						c-10.6-0.03-21.17-0.17-30.96-0.43c-81.8-0.42-169.91-0.47-252.06-0.37c-13.17-0.3-25.14-0.31-36.99-0.26
						c-11.83,0.06-23.64,1.82-35.43,1.93c-24.17-0.11-45.33,1.56-62.65,1.56c-34.65,0-52.44,0-52.44,0v-8.03c0,0,17.8,0,52.44,0
						c17.32,0,38.48,0,62.99,0c12.95,0,25.92,0,38.9,0c101.79,8.03,210.23-2.37,311.58,0.72c10.8,0,21.59,0.37,32.38,0.37
						c53.93-0.02,107.71,0.14,161.19,0.1c12.16-0.36,24.09-0.63,35.97-0.95c106.89-2.89,215.96-0.93,318.5,0.47
						c9.94,0,19.86-0.7,29.78-0.7c111.56,0,221.47,0,323.6,0c9.29,0,18.62,1.28,27.96,1.78c67.31,3.67,135.09,0.92,202.87-3.78
						c40.67-3.13,88.12,1,127.89,2.55c12.63,0.01,24.71-0.56,36.23-0.56c92.14,0,153.62,0,153.62,0V58.28z"/>
					<path class="st3" d="M0,155.34c0,0,56.9,0,158.15,0c11.24,0,22.99,0,35.19,0c32.3,2.68,59.42,2.39,93.3,2.39
						c74.56-4.09,142.34-3.92,218.45-3.25c9.28,0.38,18.36,0.86,27.06,0.86c112.76,0,235.24,0,359.05,0
						c9.94,0,19.89-0.32,29.84-0.31c85.43,1.17,173.95,1.16,259.2,0.28c12.17-0.12,24.28-0.35,36.58-0.42
						c73.12-0.04,145.51-0.12,217.95-0.15c12.07-0.01,24.15-0.03,36.2-0.03c76.4-0.02,144.18-0.03,217.34-0.3
						c13.43,0.16,25.99,0.19,38.32,0.18c24.65-0.01,49.42,0.31,74.34,0.29c21.98,0.12,41.17,0.46,56.88,0.46
						c31.41,0,58.08,0,58.08,0v2.68c0,0-25.61,0-55.2,0c-14.79,0-32.9,0-53.93,0c-12.4,0-24.8,0-37.18,0c-12.4,0-24.77,0-37.15,0
						c-90.2,0-171.54-0.31-260.4-0.08c-10.07-0.15-20.9-0.3-31.72-0.29c-75.8,0.06-151.79,0.06-228.24,0.21
						c-16.44,0.16-32.7,0.26-48.86,0.36c-80.78,0.51-158.81,0.55-242.21-0.45c-9.95-0.02-19.9,0.26-29.83,0.26
						c-104.76,0-208.57,0-306.35,0c-8.89,0-17.73,0-26.52,0c-109.01-5.36-203.9,2.42-312.35,1.05c-13.56,0-40.67,1.52-53.03-0.84
						c-11.81-0.36-23.55-0.21-34.79-0.21c-101.25,0-158.15,0-158.15,0V155.34z"/>
					<path class="st3" d="M0,140.57c0,0,59.61,0,164.8,0c11.69,0,23.89,0,36.55,0c105.62,2.68,214.07-4.09,324,0
						c8.84,0,17.73,0,26.7,0c11.63,0,23.37,0,35.18,0c11.82,0,23.73,0,35.72,0c36.49,0,77.16,0,109.73,0c12.36,0,24.79,0,37.26,0
						c49.88,0,100.43,0,151.1,0c9.95,0,19.9-0.36,29.86-0.35c71.17-0.02,137.15-0.21,206.68-0.18c9.94,0,19.94-0.09,30.05-0.08
						c89.18-0.02,179.56-0.07,269.94-0.09c12.91-0.01,25.82-0.03,38.73-0.03c51.06,0.02,98.51,0,153.73-0.11
						c13.52,0.04,26.39,0.03,39.18,0.02c38.36-0.02,76.52,0.33,114.41,0.3c21.4,0.16,40.13,0.54,55.45,0.54c30.63,0,56.84,0,56.84,0
						v2.68c0,0-26.67,0-58.08,0c-15.7,0-34.89-0.36-56.83-0.51c-28.04,0.21-55.9,0.14-83.6,0.16c-9.23,0.01-18.45-0.08-27.65-0.09
						c-67.82-0.19-142.38-0.23-211.49-0.87c-10.88-0.05-21.74-0.12-32.61-0.15c-76.06-0.26-152.01-0.21-228.77,0.92
						c-11.37,0.08-22.67,0.16-33.81,0.29c-77.97,0.89-155.07,1.1-232.14-0.04c-9.99-0.03-19.94,0.29-29.89,0.29
						c-126.67,0-252.64,0-368.99,0c-8.96,0-17.85-0.36-26.69-0.36c-109.92-5.44-218.38,5.64-324.7,0.53
						c-11.97-0.34-24.16-0.17-35.84-0.17c-105.18,0-164.8,0-164.8,0V140.57z"/>
					<path class="st3" d="M1915.89,115c-25.92,0.04-95.14,0.56-121.11,0.59c-115.25-0.62-231.83,0.12-349.5,0.5
						c-13.12,0.05-26.57,0.26-39.66,0.31c-67.23,0.33-128.06,0.39-195.66,0.19c-13.19-0.05-26.23-0.03-39.23-0.03
						c-23.45,0.01-46.89,0.03-70.34,0.04c-11.72,0-23.44,0.02-35.18,0.02c-33.62,0.07-67.5,0.12-101.46,0.15
						c-11.4,0.01-23.01,0.01-34.32,0.02c-199.33-0.8-402.09-0.8-600.45-0.44c-12.16-0.01-24.83-0.01-37.01-0.02
						c-97.45-0.1-194.8-0.21-291.97-0.35l0.08-1.74c97.18,0.14,194.51,0.25,291.94,0.34c12.18,0.01,24.36,0.03,36.79,0.03
						c212.05-1.24,414.8,1.36,626.93,0.91c11.72-0.06,23.42-0.14,35.08-0.24c11.66-0.09,23.29-0.21,34.9-0.34
						c12.78-0.05,24.95-0.06,37.09-0.07c35.75-0.01,71.51-0.01,107.27-0.03c12.99,0,26.11,0.02,39.02,0.02
						c68.47,0.24,129.3,0.24,195.43-0.16c12.96-0.04,25.89-0.08,38.8-0.12c116.22-0.38,231.01-0.99,349.11-0.37
						c25.86-0.03,97.64-0.22,123.45-0.22l0,0c-6.11,0,0,0,0,0l0,0l0,0"/>
					<path class="st3" d="M0,521.31c0,0,109.84,0,283,0c8.26,0,17.46,0.96,26.67,0.98c31.19-0.08,71.86-0.53,107.06-0.59
						c8.59,0.05,18.1-0.39,27.69-0.39c9.62,0,19.34,0,29.14,0c8.32,0,16.71,0,25.14,0c86.17,0,181.06,0,268.04,0
						c9.3,0,18.63,0,27.97,0c35.05,0,70.37,0,105.79,0c11.81,0,23.63,0,35.45,0c96.27,2.68,184.38,1.37,280.64,0.02
						c9.55-0.02,19.11-0.02,28.62-0.02c59.57,0,119.85,0,180.44,0c12.12,0,24.88,1.13,38.01,1.47c90.46,4.88,171.79-5.1,262.79-1.38
						c10.3,0.22,20.91-0.08,31.81-0.08c10.93,0,21.79,0,32.59,0c14.56,0,27.94,0,40.01,0c48.28,0,85.03,0,85.03,0v5.36
						c0,0-52.17,0-125.05,0c-7.27,0-14.84,0.25-22.57,0.19c-9.88,0.01-19.87,0.15-29.93,0.15c-89.33-1.31-184.22,0.11-275.55,0.31
						c-12.92-0.19-25.05-0.16-37.16-0.16c-60.59,0-120.88,0.01-180.48,0.01c-9.47,0-19.03,0.01-28.62,0.01
						c-82.65,0-163.99-0.26-245.01-0.23c-11.93-0.03-23.76-0.29-35.58-0.29c-47.29,0-94.52,0-141.24,0c-9.34,0-18.67,0-27.97,0
						c-86.98,0-181.87,0-268.08,0.01c-8.42-0.01-16.79-0.01-25.1-0.01c-274.54,0-473.56,0-473.56,0V521.31z"/>
					<path class="st3" d="M0,503.16c0,0,81.14,0,216.61,0c7.97,0,16.12,0,24.43,0c72.71,0,154.04,0,226.97-0.01
						c10.43,0,20.99,0.01,31.61,0.01c10.65,0,21.4,0,32.23,0c8.21,0,16.46,0,24.76,0c55.37,0,102.82,0,153.93,0
						c8.77,0,17.56,0,26.38,0c47.87,0,96.48,0,145.36,0c12.21,0,24.44,0,36.68,0c106.48,2.68,214.93,0,326.27,0
						c9.51,0,18.99,0,28.43,0c32.49,0,64.7,0,96.74,0c16.03,0,32.01,0,47.97,0c9.07,0,18.66,1.05,28.48,1.3
						c100.5,5,208.95-5.47,310.17-0.04c11.53,0.01,23.08-0.64,34.63-0.64c14.46,0.01,27.75-0.63,39.74-0.63c47.96,0,84.5,0,84.5,0
						v2.68c0,0-36.75,0-85.03,0c-12.07,0-25.45,0-40.01,0c-10.8,0-21.53,0-32.2,0c-102.86-2.68-211.31,4.09-316.32,0.2
						c-9.79-0.19-19.16-0.2-28.55-0.2c-46.9,0-93.9,0-140.19,0c-9.39,0-18.86,0-28.38,0c-97.78,2.68-192.67,2.72-289.14,0.13
						c-12.57-0.11-24.89-0.13-37.13-0.13c-61.19,0-122.2,0-182.04,0c-8.84,0-17.63,0-26.41,0c-64.64,0-132.42,0-203.11,0
						c-8.09,0-16.14,0-24.12,0c-74.64,0-142.42,0-218.97,0c-8.14,0-16.13,0-23.97,0c-149.08,0-240.34,0-240.34,0V503.16z"/>
					<path class="st3" d="M0,432.48c0,0,82.31-1.03,181.5,0c12.62,0.13,40.93,1.82,55.51,2.38c100.28,4.2,172.24-7.73,274.5-2.98
						c8.67,0.43,17.03,0.82,26.29,0.82c102.13,0,212.05,0,323.6,0c9.92,0,19.84-0.1,29.78-0.1c120.71,2.71,204.22,7.74,322.35,2.32
						c18.64-1.7,50.75-2.3,60.44-2.25c40.88-0.01,81.64,0.03,122.29,0.03c8.14,0,16.27,0,24.39,0
						c106.37,5.35,221.59-4.1,330.88-0.22c11.13,0.2,21.95,0.22,32.78,0.22c9.61,0,18.72,0,27.32,0c8.6,0,16.67,0,24.21,0
						c45.2,0,80.06,0,80.06,0v5.35c0,0-44.09,0-104.27,0c-8.6,0-17.71,0-27.32,0c-10.82,0-21.65-0.06-32.63-0.34
						c-109.43-5.17-217.88,5.76-327.27,0.49c-8.25-0.17-16.59-0.15-24.93-0.15c-41.74,0-83.68,0-125.82,0
						c-9.43,0-18.91-0.05-28.39-0.03c-124.93,4.06-233.37,2.73-354.08,0.01c-9.94,0-19.86,0.02-29.78,0.02
						c-111.56,0-221.47,0-323.6,0c-9.25,0-18.45-0.08-26.89-0.43c-95.49-3.71-197.16,4.43-290.43,1.16
						c-15.08-0.55-26.4-0.6-38.98-0.83C72.15,435.9,0,437.93,0,437.93V432.48z"/>
					<path class="st3" d="M0,412.4c0,0,56.9,0,158.15,0c11.24,0,22.98-0.48,34.92-0.05c19,2.29,41.03,3.21,61.37,3.21
						c101.67,1.36,127.08-8.53,303.88-3.17c8.8,0,17.63,0,26.52,0c97.78,0,201.58,0,306.34,0c9.94,0,19.89-0.47,29.86-0.43
						c83.37,3.03,161.41,2.77,242.18,1.43c16.16-0.27,32.42-0.71,48.86-1.07c73.85-1.34,148.24-1.64,222.5-1.49
						c10.6,0.03,21.17,0.03,30.96,0.26c81.8,0.36,169.91,0.35,252.06,0.26c13.17,0.27,25.14,0.24,37,0.19
						c11.83-0.05,23.63,0.36,35.42,0.27c24.18,0.1,45.33,0.58,62.66,0.58c34.64,0,63.21,0,63.21,0v2.68c0,0-28.57,0-63.21,0
						c-17.33,0-38.49,0-62.99,0c-12.95,0-25.92,0-38.91,0c-101.77-2.68-210.22,2.26-311.58-0.43c-10.8,0-21.59-0.22-32.38-0.22
						c-53.94,0.02-107.71-0.07-161.2-0.03c-12.15,0.31-24.08,0.57-35.96,0.85c-106.89,2.52-215.96,0.62-318.49-0.6
						c-9.94,0-19.86,0.43-29.78,0.43c-111.56,0-221.47,0-323.6,0c-9.28,0-18.62-0.92-27.95-1.36c-67.31-3.19-135.1-0.7-202.88,3.39
						c-40.66,2.73-88.1-1.01-127.87-2.37c-12.64,0-24.72,0.34-36.24,0.34c-92.14,0-142.85,0-142.85,0V412.4z"/>
					<path class="st3" d="M0,391.43c0,0,56.9,0,158.15,0c11.24,0,22.99,0,35.19,0c32.3,5.36,59.42,3.46,93.3,3.46
						c74.56-4.09,142.34-4.45,218.45-3.78c9.28,0.38,18.36,0.32,27.06,0.32c112.76,0,235.24,0,359.05,0
						c9.94,0,19.89,0.75,29.84,0.76c85.43,1.17,173.95,1.69,259.2,0.81c12.17-0.12,24.28-0.09,36.58-0.15
						c73.12-0.05,145.51,0.01,217.95-0.02c12.07,0,24.15,0.04,36.2,0.04c76.4-0.02,144.18,0.01,217.34-0.26
						c13.43,0.16,25.99,0.2,38.32,0.2c24.65-0.01,49.42-0.75,74.34-0.77c21.98,0.12,41.17-0.61,56.88-0.61c31.41,0,58.08,0,58.08,0
						v5.36c0,0-25.61,0-55.2,0c-14.79,0-32.9,0-53.93,0c-12.4,0-24.8,0-37.18,0c-12.4,0-24.77,0-37.15,0
						c-90.2,0-171.54-0.58-260.4-0.36c-10.07-0.14-20.9-0.43-31.72-0.42c-75.8,0.05-151.79,0-228.24,0.14
						c-16.44,0.17-32.7,0.22-48.86,0.33c-80.78,0.51-158.81,0.8-242.21-0.2c-9.95-0.01-19.9,0.52-29.83,0.52
						c-104.76,0-208.57,0-306.35,0c-8.89,0-17.73,0-26.52,0c-109.01-5.36-203.9,2.14-312.35,0.78c-13.56,0-40.67,1.65-53.03-0.71
						c-11.81-0.36-23.55-0.07-34.79-0.07c-101.25,0-158.15,0-158.15,0V391.43z"/>
					<path class="st3" d="M0,374.36c0,0,70.79,0,191.94,0c13.45,0,27.46,0.16,40.26,0.57c81.55,5.04,169.67-5.94,252.61-0.78
						c10.53,0.27,20,0.2,29.55,0.2c15.86,0,31.91,0,48.15,0c8.12,0,16.38,0.13,24.58,0.13c65.57,0.02,126.57-0.06,191.21-0.09
						c9.82,0,19.75-0.05,29.51-0.05c39.02,0,77.32,0,113.22,0c9.95,0,19.9,0,29.86,0c71.17,0,137.15,0,206.67,0
						c9.94,0,19.94,0.15,30.11,0.2c12.46-0.15,24.91-0.21,37.36-0.33c12.45-0.13,24.9-0.19,37.36-0.3
						c34.18-0.66,74.85-0.64,111.96-0.44c12.43-0.02,24.87-0.18,37.31-0.18c149.24-0.02,298.34,1.05,447.4,1.05
						c30.63,0,56.84,0,56.84,0v2.68c0,0-26.21,0-56.84,0c-15.32,0-34.01,0.16-55.42-0.02c-202.06-1.16-412.18-1.07-616.02,0.31
						c-10.11-0.01-20.12-0.14-30.06-0.14c-69.52-0.01-135.5-0.14-206.67-0.14c-9.96,0-19.91,0-29.86,0c-9.74,0-19.49,0-29.22,0
						c-9.75,0-19.49,0-29.22,0c-23.63,0-47.31,0-71.26,0c-7.99,0-16.01,0-24.07,0c-60.39,0-121.39,0-180.14,0
						c-8.42,0-16.78,0-25.11,0c-8.32,0-16.61,0-24.83,0c-9.89,0-19.7,0.17-29.43,0.17c-99.1-5.44-207.55,4-306.41-0.08
						c-14.06,0-27.55-0.09-40.42-0.09c-102.9,0-160.92,0-160.92,0V374.36z"/>
					<path class="st3" d="M0,354.72c0,0,67.2,0,183.28,0c12.9,0,26.34,0,40.29,0c83.4,0,157.96,0,241.5-0.13
						c9.81,0.12,18.93,0.13,28.13,0.13c7.65,0,15.34,0,23.09,0c7.75,0,15.54,0,23.38,0c85.87,0,167.21-2.72,254.48-0.09
						c10.91,0.06,21.61,0.09,32.31,0.09c31.88,0,63.78,0,96.52,0c9.85,0,19.67,0,29.64,0c29.3,0,58.58,0,87.76,0
						c9.92,0,19.82,0,29.7,0c9.89,0,19.76,0,29.61,0c19.24,0,38.41,0,57.46,0c9.53,0,19.02,0.66,28.52,0.74
						c77.01-0.07,151.57-2.46,225.49-0.32c12.51,0,24.99-0.51,37.5-0.5c137.45,0.07,274.68,0.08,412.75,0.08c29.15,0,54.5,0,54.5,0
						v5.36c0,0-26.21,0-56.84,0c-136.64,0-273.31-1.66-410.1-1.81c-12.43-0.01-24.87-0.35-37.31-0.34
						c-60.87-0.18-128.65-0.34-186.56,0.66c-12.43,0.13-24.98,0.21-37.43,0.37c-10.16-0.08-20.06-0.12-29.86-0.12
						c-49,0-95.32,0.63-147.23,0.63c-9.94,0-19.89,0.62-29.84,0.62c-9.38,0-18.76,0-28.14,0c-9.41,0-18.82,0-28.23,0
						c-30.73,0-62.33,0-94.02,0c-10.59,0-21.28-0.03-31.84-0.03c-78.1,0.03-166.21,0.03-248.37,0.03c-7.96,0-15.89,0-23.77,0
						c-7.87,0-15.7,0-23.48,0c-9.36,0-18.63-0.01-28.98-0.22c-78.85-3.87-166.97,0.22-245.59,0.22c-14.23,0-27.94,0-41.09,0
						c-118.4,0-187.25,0-187.25,0V354.72z"/>
					<path class="st3" d="M0,320.69c0,0,12.59,0,44.07,0c7.88,0,16.63,0,26.2,0c143.16,0,285.19,0,427.25,0
						c13.07,0,26.02-0.01,39.46-0.06c102.1-2.67,210.55,0.06,309.9,0.06c12.99,0,25.99,0,38.99,0c65.02,0,130.27,0,195.83,0
						c7.94,0,15.87,0,23.76,0c7.9,0,15.8,0,23.67,0c9.81,0,20.16,0.52,29.34,0.57c104.18-2.72,212.64-2.43,312.2-1.28
						c13.03,0,26.07-0.41,39.09-0.39c117.27,0.17,234.23,1.1,349.56,1.1c30.45,0,56.56,0,56.56,0v2.68c0,0-26.11,0-56.56,0
						c-115.33,0-232.29-0.08-349.56-0.42c-13.02-0.04-26.06-0.38-39.09-0.4c-99.56-1.6-208.01-1.86-312.22,0.82
						c-9.75,0-19.51,0-29.33,0c-47.25,0-95.1,0-143.07,0c-9.72,0-19.4,0-29.14,0c-10.1,0-20.27,0-30.49,0c-10.23,0-20.53,0-30.89,0
						c-12.9,0-25.76,0-38.59,0c-12.98,0-25.92-0.03-39.3-0.1c-104.01-2.63-205.67,0.1-306.25,0.1c-13.01,0-26.07,0-39.2,0
						c-13.11,0-26.29,0-39.54,0c-9.76,0-19.4,0-28.94,0c-9.55,0-18.98,0-28.31,0c-88.78,0-183.67,0-273.96,0
						c-11.19,0-21.59,0-31.18,0c-47.9,0-70.28,0-70.28,0V320.69z"/>
					<path class="st3" d="M0.01,302.1c156.81-0.36,331.2-0.63,497.53-0.81c13.02-0.01,24.79-0.02,38.4-0.03
						c62.62-0.32,123.67-0.44,184.26-0.42c10.1,0.01,19.87,0.02,29.91,0.02c85.85-0.13,167.03-0.13,256.25,0.15
						c10.62,0,21.53,0.06,32.23,0.07c10.65,0,21.27,0.01,31.93,0.01c12.78,0,25.55,0.01,38.34,0.02
						c12.79,0.01,26.53-0.01,38.68,0.02c101.58,2.32,203.24-0.4,306.22,1.09c13.53-0.06,26.42-0.16,39.41-0.25
						c115.34-0.91,230.72-2.43,346.25-0.41c10.77,0.04,84.77-0.44,76.46-0.44c-12.29,0,0,0,0,0v5.06c0,0-33.26,0-76.24-0.14
						c-118.53-1.45-236.99-0.8-355.66-0.23c-13.38,0.05-26.86,0.1-40.89,0.09c-99.03-1.08-207.5-2.44-311.66-0.32
						c-13.39,0-26.78,0.01-40.17,0.01c-21.51,0.01-43.02,0.01-64.54,0.02c-10.75,0.01-21.51,0.01-32.28,0.01
						c-70.67-0.81-138.45-0.81-205.94-0.4c-11.81-0.02-23.55-0.05-35.24-0.08c-81.65-0.23-162.34,0.01-243.1,0.8
						c-12.93,0.01-25.85,0.17-38.76,0.18c-154.93,0.11-309.73,0.35-464.18,0.35c-7.9,0-7.22,0-7.22,0V302.1z"/>
					<path class="st3" d="M0,100.76c0,0,112.13,0,290.82,0c9.92,0,20.06,0.26,30.36,0.24c43.54,0.02,90.85,0.16,131.76,0.16
						c11.89,0.01,23.78,0.07,35.69,0.07c118.95-0.01,239.01,0.03,357.6,0.03c11.86,0,23.76,0,35.6-0.01
						c70.92,0.02,145.25,0.03,214.28,0.03c12.84,0,25.64-0.01,38.39-0.04c140.43-0.36,277.11-2.72,417.99-0.25
						c7.47,0.01,14.93-0.24,22.37-0.24c22.25,0,44.83,0,69.7,0c14.02,0,27.61,0,40.7,0c130.99,0,230.64,0,230.64,0v2.68
						c0,0-83.94,0-192.82,0c-12.1,0-24.71,0-37.82,0c-36.45,0-71.57,0-106.3,0c-11.6,0-23.26,0.26-34.75,0.26
						c-138.63,0.04-280.57,0.18-420.44,0.17c-8.98,0-18.01,0.08-27.03,0.08c-10.52,0-21.09,0.03-31.65,0.03
						c-51.52,0.01-105.59,0.02-159.29,0.02c-10.38-0.02-21.14,0.07-31.52,0.07c-134.84,1.03-268.05,0.41-402.1,0.1
						c-12.19-0.03-24.38-0.34-36.58-0.37c-37.09-0.08-70.88-0.37-102.68-0.37c-10.1,0-20.04,0-29.8,0c-185.5,0-303.12,0-303.12,0
						V100.76z"/>
					<path class="st3" d="M0,336.79c0,0,116,0,295.2,0c9.95,0,20.13,0.35,30.46,0.33c43.66,0.03,91.11,0.21,132.13,0.21
						c11.91,0.01,23.84,0.1,35.78,0.1c119.3-0.01,239.7,0.04,358.62,0.04c11.9,0,23.84,0.01,35.7,0.01
						c71.11,0.02,145.68,0.03,214.89,0.03c12.88,0,25.71-0.01,38.51-0.05c140.83-0.36,277.9-2.8,419.17-0.34
						c7.5,0.01,14.97-0.32,22.44-0.32c22.31,0,44.94,0,69.88,0c14.07,0,27.69,0,40.83,0c131.36,0,222.28,0,222.28,0l0,0
						c0,0-75.16,0-184.36,0c-12.13,0-24.77,0-37.92,0c-36.55,0-71.79,0-106.6,0c-11.63,0-23.33,1.69-34.85,1.69
						c-139.03,0.04-281.36,0.9-421.64,0.89c-8.99,0-18.07,0.44-27.12,0.44c-10.55,0-21.14,0.21-31.74,0.21
						c-51.67,0.01-105.9,0.12-159.75,0.11c-10.41-0.02-21.19,0.12-31.6,0.12c-135.23,1.03-268.82,0.43-403.25,0.13
						c-12.22-0.03-24.45-1.76-36.69-1.78c-37.18-0.08-71.08-1.79-102.98-1.79c-10.12,0-20.08,0-29.87,0
						C121.51,336.79,0,336.79,0,336.79L0,336.79z"/>
					<path class="st3" d="M0,85.15c0,0,64.87,0,180.71,0c7.25,0,14.65,0,22.23,0c317.24-2.68,641.66-2.68,959.41,0
						c11.71,0,23.42,0,35.14,0c140.65,0,283.06,0,426.92,0c13.06,0,26.14,0,39.24,0c65.46,0,131.26,0,197.81,0
						c12.14,0,35.41,0,41.75,0c4.95,0,12.69,0,12.69,0v5.36c0,0-30.17,0-54.44,0c-6.06,0-12.81,0-20.23,0
						c-64.69,0-128.63,0-192.21,0c-12.72,0-25.41,0-38.11,0c-138.79-2.68-279.94-0.4-417.42-0.08c-11.46,0.03-22.9,0.11-34.31,0.13
						c-307.82-2.61-618.72,0.03-932.78,0.01c-8.07,0.02-15.87-0.06-23.45-0.06c-128.81,0-202.94,0-202.94,0V85.15z"/>
					<path class="st3" d="M0,68.41c0,0,67.09,0,186.06,0c7.46,0,15.24,0,23.01,0c311.11,0,622.01-1.37,929.84,1.59
						c12.24,0.06,25.16,0.81,37.59,0.89c135.14,0.96,272.23,3.24,405.74,0.54c13.49-0.03,26.59-1.22,39.59-1.23
						c89.39,0.02,205.2-1.79,294.08-1.79l0,0v5.36c0,0-7.07,0,0,0c6.34,0-42.3,0.04-54.57,0.05c-73.88,0-148.09,0.02-222.31,0.02
						c-12.37,0-25.33-0.02-37.68-0.02c-137.89-0.01-280.09-0.05-420.5-0.05c-12.91,0-26.31,0-38.98,0
						c-310.78-5.36-614.93,0-923.17-0.01c-9.45,0-18.5,0.01-27.24,0.01c-122.13,0-191.45,0-191.45,0V68.41z"/>
					<path class="st3" d="M1915.89,463.55c0,0-92.13,1.18-191.32,0c-12.62-0.15-41.41-2.09-55.99-2.73
						c-100.28-4.82-172.47,10.33-274.74,4.89c-8.67-0.5-17.27,0.53-26.53,0.53c-102.12,0-212.04,0-323.6,0
						c-9.92,0-19.85-1.35-29.78-1.36c-120.7-3.11-204.22-9.62-322.35-3.39c-18.64,1.96-50.75,3.73-60.44,3.68
						c-40.89,0.02-81.64,1.07-122.29,1.07c-8.14,0-16.27,0-24.39,0c-106.37-10.72-221.6,4.7-330.88,0.24
						c-11.14-0.22-21.95-0.24-32.78-0.24c-9.6,0-18.72,0-27.32,0c-8.59,0-16.67,0-24.2,0c-45.2,0-69.29,0-69.29,0v-10.72
						c0,0,33.32,0,93.5,0c8.6,0,17.72,0,27.32,0c10.83,0,21.64,0.89,32.63,1.21c109.43,5.94,217.89-7.02,327.27-0.97
						c8.25,0.2,16.59-0.24,24.94-0.24c41.74,0,83.68,0,125.82,0c9.43,0,18.91,0.88,28.4,0.85c124.92-4.66,233.37-3.54,354.07-0.42
						c9.94,0,19.86-0.43,29.78-0.43c111.56,0,221.47,0,323.6,0c9.25,0,18.46,0.91,26.9,1.31c95.49,4.27,197.15-4.67,290.42-0.92
						c15.07,0.64,27.35,0.89,39.94,1.17c109.36,2.34,191.32,0.22,191.32,0.22V463.55z"/>
					<path class="st3" d="M1915.89,488.68c0,0-67.66,0-168.92,0c-11.25,0-22.98-0.52-34.92-1.01c-19.01-2.63-41.05-3.15-61.38-3.15
						c-101.66-1.56-127.08,9.52-303.88,4.16c-8.79,0-17.63,0-26.52,0c-97.78,0-201.59,0-306.34,0c-9.95,0-19.9-0.53-29.87-0.57
						c-83.37-3.47-161.41-3.72-242.17-2.18c-16.17,0.31-32.43,0.55-48.87,0.96c-73.85,1.54-148.24,1.74-222.5,1.57
						c-10.6-0.03-21.17-0.1-30.96-0.36c-81.8-0.42-169.91-0.44-252.06-0.33c-13.17-0.3-25.14-0.3-36.99-0.24
						c-11.83,0.06-23.64,0.65-35.43,0.75c-24.17-0.11-45.33,0.39-62.65,0.39c-34.65,0-52.44,0-52.44,0v-5.36c0,0,17.8,0,52.44,0
						c17.32,0,38.48,0,62.99,0c12.95,0,25.92,0,38.9,0c101.79,5.36,210.23-2.53,311.58,0.56c10.8,0,21.59,0.3,32.38,0.29
						c53.93-0.02,107.71,0.1,161.19,0.06c12.16-0.36,24.09-0.65,35.97-0.97c106.89-2.89,215.96-0.78,318.5,0.62
						c9.94,0.01,19.86-0.56,29.78-0.56c111.56,0,221.47,0,323.6,0c9.29,0,18.62,1.13,27.96,1.63c67.31,3.67,135.09,0.84,202.87-3.85
						c40.67-3.13,88.12,1.11,127.89,2.67c12.63,0.01,24.71-0.45,36.23-0.45c92.14,0,153.62,0,153.62,0V488.68z"/>
				</g>
			</g>
		</g>
	</g>
</g>
</svg>
