<svg xmlns="http://www.w3.org/2000/svg" viewBox="0 0 23.66 31.85"><defs><style>.cls-1{fill:#0b509c;}.cls-2{fill:#e52027;}</style></defs><g id="Layer_2" data-name="Layer 2"><g id="Layer_2-2" data-name="Layer 2"><path class="cls-1" d="M18.65,13.05H5a5,5,0,0,0-5,5v8.78a5,5,0,0,0,5,5H18.65a5,5,0,0,0,5-5V18.06A5,5,0,0,0,18.65,13.05Zm.48,13.84a.49.49,0,0,1-.48.49H5.34a.49.49,0,0,1-.49-.49V18.16a.48.48,0,0,1,.49-.48H18.65a.48.48,0,0,1,.48.48Z"/><path class="cls-2" d="M11.24,0h1.18A10.54,10.54,0,0,1,23,10.54v0a1.1,1.1,0,0,1-1.1,1.1h-20a1.1,1.1,0,0,1-1.1-1.1v0A10.54,10.54,0,0,1,11.24,0Z"/></g></g></svg>