<svg xmlns="http://www.w3.org/2000/svg" viewBox="0 0 114.73 86.05"><defs><style>.cls-1{fill:#79b7ff;}</style></defs><g id="Layer_2" data-name="Layer 2"><g id="Layer_2-2" data-name="Layer 2"><path class="cls-1" d="M52,0a5.25,5.25,0,0,0-3.76,1.58L28.25,21.51H5.38A5.38,5.38,0,0,0,0,26.89V59.16a5.38,5.38,0,0,0,5.38,5.38H28.25L48.19,84.47A5.25,5.25,0,0,0,52,86.05a5.37,5.37,0,0,0,5.42-5.38V5.38A5.37,5.37,0,0,0,52,0ZM46.61,67.69,35.85,56.93,32.7,53.78H10.76V32.27H32.7l3.15-3.15L46.61,18.36ZM104.41,43l9.27-9.27a3.58,3.58,0,0,0,0-5.08l-2.53-2.53a3.59,3.59,0,0,0-5.07,0l-9.27,9.27-9.27-9.27a3.59,3.59,0,0,0-5.07,0l-2.54,2.53a3.6,3.6,0,0,0,0,5.08L89.2,43,79.93,52.3a3.59,3.59,0,0,0,0,5.07l2.54,2.53a3.57,3.57,0,0,0,5.07,0l9.27-9.27,9.27,9.27a3.59,3.59,0,0,0,5.07,0l2.53-2.53a3.57,3.57,0,0,0,0-5.07Z"/></g></g></svg>