<svg xmlns="http://www.w3.org/2000/svg" viewBox="0 0 150.12 122.14"><defs><style>.cls-1{fill:#79b7ff;}</style></defs><g id="Layer_2" data-name="Layer 2"><g id="Layer_2-2" data-name="Layer 2"><path class="cls-1" d="M101.47,122.14a7.69,7.69,0,0,1-3.74-1l-48.14-27a7.67,7.67,0,0,1-2.94-10.43l41-73.09A7.66,7.66,0,0,1,98.06,7.7l48.15,27a7.68,7.68,0,0,1,2.93,10.44l-41,73.09a7.66,7.66,0,0,1-4.61,3.63A7.86,7.86,0,0,1,101.47,122.14ZM94.32,13.72l-.19,0a.68.68,0,0,0-.4.32l-41,73.09a.66.66,0,0,0,.25.9l48.15,27a.66.66,0,0,0,.5.06.68.68,0,0,0,.4-.32L143,41.7a.66.66,0,0,0-.26-.9l-48.14-27A.63.63,0,0,0,94.32,13.72Z"/><path class="cls-1" d="M108.82,70.25a7.32,7.32,0,0,0-1-8.57c.12-.18.24-.37.35-.56A7.32,7.32,0,0,0,95.37,54c-.11.2-.2.4-.29.59A7.32,7.32,0,1,0,92.85,69c-1.6,2-4.17,4.34-6.9,3.48l-1.15,2,11.31,6.34,1.15-2.05c-2.16-1.88-1.48-5.31-.63-7.7a7.3,7.3,0,0,0,12.19-.87Z"/><path class="cls-1" d="M31.78,111.46A7.67,7.67,0,0,1,24.44,106L.32,25.76a7.68,7.68,0,0,1,5.14-9.55L58.32.33a7.66,7.66,0,0,1,9.55,5.14L92,85.71a7.69,7.69,0,0,1-5.13,9.55L34,111.14A7.61,7.61,0,0,1,31.78,111.46ZM60.53,7l-.19,0L7.47,22.92a.66.66,0,0,0-.44.83L31.14,104a.66.66,0,0,0,.83.44L84.83,88.55a.67.67,0,0,0,.45-.83L61.17,7.48a.69.69,0,0,0-.33-.4A.64.64,0,0,0,60.53,7Z"/><path class="cls-1" d="M29.39,50.05a7.93,7.93,0,0,1,10.66-2.66l4.34,2.48,2.26-4.47A7.92,7.92,0,0,1,57,41.75c10.47,4.76,1,19.4-6.64,28C39.25,66.79,23.27,59.79,29.39,50.05Z"/></g></g></svg>