<svg xmlns="http://www.w3.org/2000/svg" viewBox="0 0 89.54 89.53"><defs><style>.cls-1{fill:#79b7ff;}</style></defs><g id="Layer_2" data-name="Layer 2"><g id="Layer_2-2" data-name="Layer 2"><path class="cls-1" d="M86.41,38.8,76,31.72l2.39-12.41A7.07,7.07,0,0,0,70.08,11l-12.4,2.4L50.62,2.92C48-1,41.54-1,38.9,2.92L31.84,13.4,19.46,11a7.09,7.09,0,0,0-8.29,8.31l2.4,12.41L3.11,38.8a7.09,7.09,0,0,0,0,11.74l10.46,7.08L11.17,70a7.07,7.07,0,0,0,8.29,8.29l12.38-2.4L38.9,86.4a7.06,7.06,0,0,0,11.72,0l7.06-10.48,12.4,2.4a7,7,0,0,0,6.35-1.94,7.1,7.1,0,0,0,1.94-6.35L76,57.64l10.46-7.09a7.07,7.07,0,0,0,3.11-5.85,7.15,7.15,0,0,0-3.13-5.9Zm-19.74,15,3.08,15.95L53.84,66.64,44.76,80.09,35.69,66.62,19.79,69.7l3.08-16L9.44,44.66l13.43-9.09L19.79,19.62,35.7,22.7,44.76,9.27l9.08,13.45,15.91-3.08L66.67,35.57,80.1,44.66,66.67,53.77ZM44.76,26.58A18.19,18.19,0,1,0,63,44.77,18.21,18.21,0,0,0,44.76,26.58Zm0,28a9.8,9.8,0,1,1,9.79-9.79A9.8,9.8,0,0,1,44.76,54.56Z"/></g></g></svg>