<svg xmlns="http://www.w3.org/2000/svg" viewBox="0 0 127.16 93.49"><defs><style>.cls-1{fill:#79b7ff;}</style></defs><g id="Layer_2" data-name="Layer 2"><g id="Layer_2-2" data-name="Layer 2"><path class="cls-1" d="M70,24.31a1.5,1.5,0,0,1,1.24-1.73l34.38-5.74a1.51,1.51,0,0,1,.49,3L71.75,25.55a1,1,0,0,1-.25,0A1.5,1.5,0,0,1,70,24.31ZM71.5,37.65a1,1,0,0,0,.25,0l34.38-5.73a1.51,1.51,0,0,0-.49-3L71.26,34.66a1.51,1.51,0,0,0,.24,3Zm0,12.09a1,1,0,0,0,.25,0L106.13,44a1.51,1.51,0,0,0-.49-3L71.26,46.74a1.51,1.51,0,0,0,.24,3Zm0,12.08.25,0,34.38-5.74a1.51,1.51,0,0,0-.49-3L71.26,58.82a1.51,1.51,0,0,0,.24,3Zm0,12.08.25,0,34.38-5.74a1.51,1.51,0,0,0-.49-3L71.26,70.9a1.51,1.51,0,0,0,.24,3ZM21,19.82l34.38,5.73a1.06,1.06,0,0,0,.25,0,1.51,1.51,0,0,0,.24-3L21.53,16.84a1.51,1.51,0,1,0-.5,3ZM21,31.9l34.38,5.73a1.06,1.06,0,0,0,.25,0,1.51,1.51,0,0,0,.24-3L21.53,28.92a1.51,1.51,0,1,0-.5,3ZM21,44l34.38,5.73a1.07,1.07,0,0,0,.25,0,1.51,1.51,0,0,0,1.48-1.27,1.49,1.49,0,0,0-1.24-1.73L21.53,41a1.51,1.51,0,1,0-.5,3Zm0,12.08L55.41,61.8l.25,0a1.51,1.51,0,0,0,.24-3L21.53,53.08a1.51,1.51,0,0,0-.5,3Zm0,12.08,34.38,5.74.25,0a1.51,1.51,0,0,0,.24-3L21.53,65.16a1.51,1.51,0,0,0-.5,3ZM125.66,12.66V83.54a3,3,0,0,1-2.74,3L63.86,92H63.3L4.24,86.54a3,3,0,0,1-2.74-3V12.66a3,3,0,0,1,3-3h7.32V3a1.51,1.51,0,0,1,1.75-1.49l50,8,50-8a1.5,1.5,0,0,1,1.22.34A1.54,1.54,0,0,1,115.32,3V9.64h7.32A3,3,0,0,1,125.66,12.66ZM112.3,4.78,65.09,12.35v73l47.21-7.57V13.33a3,3,0,0,1-.08-.67,2.84,2.84,0,0,1,.08-.66Zm-97.44,0V12a2.84,2.84,0,0,1,.08.66,3,3,0,0,1-.08.67V77.76l47.21,7.57v-73Zm-7.32,76,16.63,1.53L13.11,80.54a1.51,1.51,0,0,1-1.27-1.49V15.68H7.54Zm112.08-65.1h-4.3V79.05a1.51,1.51,0,0,1-1.27,1.49L103,82.31l16.63-1.53Z"/><path class="cls-1" d="M63.58,93.49l-.42,0L4.11,88A4.51,4.51,0,0,1,0,83.54V12.66A4.53,4.53,0,0,1,4.52,8.14h5.82V3a3,3,0,0,1,3.49-3L63.58,8l49.75-8a3,3,0,0,1,3.49,3V8.14h5.82a4.53,4.53,0,0,1,4.52,4.52V83.54a4.5,4.5,0,0,1-4.1,4.5L64,93.47ZM4.52,11.14A1.52,1.52,0,0,0,3,12.66V83.54a1.51,1.51,0,0,0,1.38,1.51l59.06,5.43h.28l59.06-5.43a1.51,1.51,0,0,0,1.38-1.51V12.66a1.52,1.52,0,0,0-1.52-1.52h-8.82V3l-50.24,8L13.35,3v8.14Zm59.07,76v-76L113.8,3l0,9.31a1.35,1.35,0,0,0,0,.33,1.48,1.48,0,0,0,0,.34l0,.33V79Zm3-73.46V83.57l44.21-7.08v-63a4.24,4.24,0,0,1,0-1.64V6.54Zm-3,73.46L13.36,79l0-66a1.48,1.48,0,0,0,0-.34,1.35,1.35,0,0,0,0-.33l0-.33V3l50.21,8.05ZM16.36,76.49l44.21,7.08V13.63L16.36,6.54v5.3a4.24,4.24,0,0,1,0,1.64Zm86.77,7.32-.37-3,11-1.77V14.18h7.3v68Zm13.69-66.63V79.05a2.63,2.63,0,0,1,0,.49l1.34-.12V17.18ZM24,83.81,6,82.15v-68h7.3V79.05L24.4,80.83ZM9,79.42l1.34.12a3.89,3.89,0,0,1,0-.49V17.18H9Zm62.46-4a3,3,0,0,1-2.44-4.76,2.94,2.94,0,0,1,2-1.22l34.38-5.73a3,3,0,0,1,2.24.51,3,3,0,0,1,.7,4.2,2.94,2.94,0,0,1-2,1.22L72,75.36A4,4,0,0,1,71.5,75.4Zm34.39-8.74L71.5,72.4ZM55.66,75.4a2.94,2.94,0,0,1-.51-.05L20.78,69.62h0a3,3,0,0,1-1.24-5.42,2.93,2.93,0,0,1,2.24-.51l34.37,5.73a3,3,0,0,1-.49,6ZM21.28,66.64v0L55.65,72.4ZM71.5,63.32a3,3,0,0,1-.49-6l34.38-5.74a3,3,0,0,1,2.94,4.72,2.94,2.94,0,0,1-2,1.22L72,63.28A4.21,4.21,0,0,1,71.5,63.32Zm34.38-8.74L71.5,60.32h0ZM55.66,63.32a4,4,0,0,1-.49,0L20.78,57.54h0a3,3,0,0,1,1-5.94l34.37,5.74a3,3,0,0,1-.49,6ZM21.28,54.56v0l34.37,5.74ZM71.5,51.24a3,3,0,0,1-.49-6l34.38-5.74a3,3,0,0,1,1,5.94L72,51.19A2.83,2.83,0,0,1,71.5,51.24Zm34.38-8.74L71.5,48.24h0ZM55.66,51.24a4,4,0,0,1-.49,0L20.78,45.46a3,3,0,0,1,1-5.94l34.37,5.74a3,3,0,0,1-.49,6ZM21.28,42.48v0l34.37,5.74ZM71.5,39.15a3,3,0,0,1-.49-6l34.38-5.74a3,3,0,0,1,1,5.94L72,39.11A2.81,2.81,0,0,1,71.5,39.15Zm34.38-8.73L71.5,36.15h0ZM55.66,39.15a2.7,2.7,0,0,1-.49,0L20.78,33.38h0a3,3,0,0,1,1-5.94l34.37,5.74a3,3,0,0,1-.49,6ZM21.28,30.4v0l34.37,5.73ZM71.5,27.07a3,3,0,0,1-.49-6l34.38-5.74a3,3,0,0,1,2.24.51,3,3,0,0,1,.7,4.21,3,3,0,0,1-2,1.22L72,27A2.81,2.81,0,0,1,71.5,27.07Zm34.38-8.73L71.5,24.06h0ZM55.66,27.07a2.7,2.7,0,0,1-.49,0L20.78,21.3h0a3,3,0,0,1-2.47-3.47,3,3,0,0,1,3.47-2.47L56.15,21.1a3,3,0,0,1-.49,6ZM21.28,18.32v0l34.37,5.73Z"/></g></g></svg>