<svg id="Layer_1" data-name="Layer 1" xmlns="http://www.w3.org/2000/svg" viewBox="0 0 289.68 186.9"><defs><style>.cls-1{fill:#fff;}.cls-2{isolation:isolate;}.cls-3{fill:#e42219;}.cls-4,.cls-6{fill:none;stroke-miterlimit:10;}.cls-4{stroke:#e42219;}.cls-5{fill:#004d99;}.cls-6{stroke:#004d99;}</style></defs><g id="Layer_2" data-name="Layer 2"><g id="Layer_1-2" data-name="Layer 1-2"><rect class="cls-1" x="211.15" y="1.57" width="71.78" height="88.11" rx="19.3"/><rect class="cls-1" x="133.46" y="1.57" width="71.78" height="88.11" rx="19.3"/><path class="cls-1" d="M29.57,50.44V96.35s1.88,10.42,10.19,9.83,21.47-.59,21.47-.59l8-7L70.7,83.77,68.24,26.16,65,20.25l-4.9-2.63-10-.86-10.3.72-9.9,3-9,3.82L19,32.3v7.23l1.3,7.16,5.21,4.55Z" transform="translate(-18.08 -15.91)"/><rect class="cls-1" x="55.78" y="1.57" width="71.78" height="88.11" rx="19.3"/><g class="cls-2"><path class="cls-3" d="M56.57,16.41a11.19,11.19,0,0,1,6.11,2q3.09,2,7.69,7.56a10.22,10.22,0,0,1,3,7.5v68.25a10.74,10.74,0,0,1-10.77,10.77H46.05a10.39,10.39,0,0,1-7.63-3.15q-5.56-4.47-7.56-7.5a11.08,11.08,0,0,1-2-6.17V55.25a4.44,4.44,0,0,1-1.82-1.45c-1.69-1.37-3.09-2.58-4.17-3.63a26.13,26.13,0,0,1-2.61-2.84A8.7,8.7,0,0,1,18.94,45a6.92,6.92,0,0,1-.36-2.18V29.84c0-2.42.68-4.17,2.06-5.26a18.35,18.35,0,0,1,4.84-2.72l7-2.78a34.44,34.44,0,0,1,13.67-2.67Zm-10.4,1.21a31.07,31.07,0,0,0-6.72.67,47.6,47.6,0,0,0-6.47,2L26,23a17.5,17.5,0,0,0-4.29,2.42,5.28,5.28,0,0,0-1.88,4.47v13A6.18,6.18,0,0,0,26,49h4.12V95.67A9.9,9.9,0,0,0,40,105.59H56.57a9.92,9.92,0,0,0,9.93-9.92V27.42a9.33,9.33,0,0,0-2.91-7,9.64,9.64,0,0,0-7-2.85Z" transform="translate(-18.08 -15.91)"/><path class="cls-3" d="M125.66,16.41a19.25,19.25,0,0,1,10,2.85q4.77,2.83,10,9.37a19.89,19.89,0,0,1,4.17,6.17,19.11,19.11,0,0,1,1.52,7.63V92.88a18.54,18.54,0,0,1-1.58,7.57,20.32,20.32,0,0,1-4.23,6.23,20.56,20.56,0,0,1-6.23,4.23,18.54,18.54,0,0,1-7.57,1.58H99.41a18.41,18.41,0,0,1-7.63-1.58,20.66,20.66,0,0,1-6.17-4.23q-6.52-5.09-9.38-9.8a19.19,19.19,0,0,1-2.84-10V36.38A19.92,19.92,0,0,1,75,28.57a19.59,19.59,0,0,1,4.3-6.35A21,21,0,0,1,85.61,18a19.25,19.25,0,0,1,7.75-1.58Zm-32.3,1.21a18.14,18.14,0,0,0-7.26,1.46,18.44,18.44,0,0,0-5.93,4,19.28,19.28,0,0,0-4.06,6,18,18,0,0,0-1.51,7.32V86.84a17.51,17.51,0,0,0,1.51,7.25,19.53,19.53,0,0,0,10,10,17.52,17.52,0,0,0,7.26,1.51h32.3a17.59,17.59,0,0,0,7.26-1.51,19.53,19.53,0,0,0,10-10,17.67,17.67,0,0,0,1.51-7.25V36.38a18.17,18.17,0,0,0-1.51-7.32,19.28,19.28,0,0,0-4.06-6,18.44,18.44,0,0,0-5.93-4,18.21,18.21,0,0,0-7.26-1.46Zm18.27,57.72a2.09,2.09,0,0,1-.61,1.57,2,2,0,0,1-1.45.61,2.09,2.09,0,0,1-2.18-2.18V48.48a2.09,2.09,0,0,1,2.18-2.18,2,2,0,0,1,1.45.61,2.09,2.09,0,0,1,.61,1.57Z" transform="translate(-18.08 -15.91)"/><path class="cls-3" d="M203.59,16.41a19.24,19.24,0,0,1,10,2.85q4.78,2.83,10,9.37a19.75,19.75,0,0,1,4.18,6.17,19.28,19.28,0,0,1,1.51,7.63V92.88a18.7,18.7,0,0,1-1.57,7.57,20.11,20.11,0,0,1-10.47,10.46,18.53,18.53,0,0,1-7.56,1.58H177.33a18.4,18.4,0,0,1-7.62-1.58,20.53,20.53,0,0,1-6.17-4.23q-6.54-5.09-9.38-9.8a19.09,19.09,0,0,1-2.84-10V36.38a19.88,19.88,0,0,1,5.86-14.16A21,21,0,0,1,163.54,18a19.24,19.24,0,0,1,7.74-1.58Zm-32.31,1.21A18.21,18.21,0,0,0,164,19.08a18.55,18.55,0,0,0-5.93,4,19.42,19.42,0,0,0-4.05,6,18,18,0,0,0-1.51,7.32V86.84A17.51,17.51,0,0,0,154,94.09a19.46,19.46,0,0,0,10,10,17.59,17.59,0,0,0,7.26,1.51h32.31a17.59,17.59,0,0,0,7.26-1.51,19.46,19.46,0,0,0,10-10,17.51,17.51,0,0,0,1.51-7.25V36.38a18,18,0,0,0-1.51-7.32,19.42,19.42,0,0,0-4.05-6,18.66,18.66,0,0,0-5.93-4,18.21,18.21,0,0,0-7.26-1.46Zm18.27,57.72a2.12,2.12,0,0,1-.6,1.57,2,2,0,0,1-1.46.61,2.07,2.07,0,0,1-2.17-2.18V48.48a2.07,2.07,0,0,1,2.17-2.18,2,2,0,0,1,1.46.61,2.12,2.12,0,0,1,.6,1.57Z" transform="translate(-18.08 -15.91)"/><path class="cls-3" d="M281.51,16.41a19.19,19.19,0,0,1,10,2.85q4.78,2.83,10,9.37a19.89,19.89,0,0,1,4.17,6.17,19.1,19.1,0,0,1,1.51,7.63V92.88a18.53,18.53,0,0,1-1.57,7.57,20.11,20.11,0,0,1-10.47,10.46,18.53,18.53,0,0,1-7.56,1.58H255.25a18.4,18.4,0,0,1-7.62-1.58,20.53,20.53,0,0,1-6.17-4.23,38.13,38.13,0,0,1-9.38-9.8,19.19,19.19,0,0,1-2.84-10V36.38a19.74,19.74,0,0,1,1.57-7.81,19.43,19.43,0,0,1,4.3-6.35A20.87,20.87,0,0,1,241.46,18a19.24,19.24,0,0,1,7.74-1.58ZM249.2,17.62a18.21,18.21,0,0,0-7.26,1.46,18.55,18.55,0,0,0-5.93,4,19.42,19.42,0,0,0-4,6,18,18,0,0,0-1.51,7.32V86.84A17.51,17.51,0,0,0,232,94.09a19.46,19.46,0,0,0,10,10,17.59,17.59,0,0,0,7.26,1.51h32.31a17.59,17.59,0,0,0,7.26-1.51,19.46,19.46,0,0,0,10-10,17.51,17.51,0,0,0,1.52-7.25V36.38a18,18,0,0,0-1.52-7.32,19.42,19.42,0,0,0-4.05-6,18.44,18.44,0,0,0-5.93-4,18.21,18.21,0,0,0-7.26-1.46Zm18.27,57.72a2.12,2.12,0,0,1-.6,1.57,2,2,0,0,1-1.45.61,2.08,2.08,0,0,1-2.18-2.18V48.48a2.08,2.08,0,0,1,2.18-2.18,2,2,0,0,1,1.45.61,2.12,2.12,0,0,1,.6,1.57Z" transform="translate(-18.08 -15.91)"/></g><g class="cls-2"><path class="cls-4" d="M56.57,16.41a11.19,11.19,0,0,1,6.11,2q3.09,2,7.69,7.56a10.22,10.22,0,0,1,3,7.5v68.25a10.74,10.74,0,0,1-10.77,10.77H46.05a10.39,10.39,0,0,1-7.63-3.15q-5.56-4.47-7.56-7.5a11.08,11.08,0,0,1-2-6.17V55.25a4.44,4.44,0,0,1-1.82-1.45c-1.69-1.37-3.09-2.58-4.17-3.63a26.13,26.13,0,0,1-2.61-2.84A8.7,8.7,0,0,1,18.94,45a6.92,6.92,0,0,1-.36-2.18V29.84c0-2.42.68-4.17,2.06-5.26a18.35,18.35,0,0,1,4.84-2.72l7-2.78a34.44,34.44,0,0,1,13.67-2.67Zm-10.4,1.21a31.07,31.07,0,0,0-6.72.67,47.6,47.6,0,0,0-6.47,2L26,23a17.5,17.5,0,0,0-4.29,2.42,5.28,5.28,0,0,0-1.88,4.47v13A6.18,6.18,0,0,0,26,49h4.12V95.67A9.9,9.9,0,0,0,40,105.59H56.57a9.92,9.92,0,0,0,9.93-9.92V27.42a9.33,9.33,0,0,0-2.91-7,9.64,9.64,0,0,0-7-2.85Z" transform="translate(-18.08 -15.91)"/><path class="cls-4" d="M125.66,16.41a19.25,19.25,0,0,1,10,2.85q4.77,2.83,10,9.37a19.89,19.89,0,0,1,4.17,6.17,19.11,19.11,0,0,1,1.52,7.63V92.88a18.54,18.54,0,0,1-1.58,7.57,20.32,20.32,0,0,1-4.23,6.23,20.56,20.56,0,0,1-6.23,4.23,18.54,18.54,0,0,1-7.57,1.58H99.41a18.41,18.41,0,0,1-7.63-1.58,20.66,20.66,0,0,1-6.17-4.23q-6.52-5.09-9.38-9.8a19.19,19.19,0,0,1-2.84-10V36.38A19.92,19.92,0,0,1,75,28.57a19.59,19.59,0,0,1,4.3-6.35A21,21,0,0,1,85.61,18a19.25,19.25,0,0,1,7.75-1.58Zm-32.3,1.21a18.14,18.14,0,0,0-7.26,1.46,18.44,18.44,0,0,0-5.93,4,19.28,19.28,0,0,0-4.06,6,18,18,0,0,0-1.51,7.32V86.84a17.51,17.51,0,0,0,1.51,7.25,19.53,19.53,0,0,0,10,10,17.52,17.52,0,0,0,7.26,1.51h32.3a17.59,17.59,0,0,0,7.26-1.51,19.53,19.53,0,0,0,10-10,17.67,17.67,0,0,0,1.51-7.25V36.38a18.17,18.17,0,0,0-1.51-7.32,19.28,19.28,0,0,0-4.06-6,18.44,18.44,0,0,0-5.93-4,18.21,18.21,0,0,0-7.26-1.46Zm18.27,57.72a2.09,2.09,0,0,1-.61,1.57,2,2,0,0,1-1.45.61,2.09,2.09,0,0,1-2.18-2.18V48.48a2.09,2.09,0,0,1,2.18-2.18,2,2,0,0,1,1.45.61,2.09,2.09,0,0,1,.61,1.57Z" transform="translate(-18.08 -15.91)"/><path class="cls-4" d="M203.59,16.41a19.24,19.24,0,0,1,10,2.85q4.78,2.83,10,9.37a19.75,19.75,0,0,1,4.18,6.17,19.28,19.28,0,0,1,1.51,7.63V92.88a18.7,18.7,0,0,1-1.57,7.57,20.11,20.11,0,0,1-10.47,10.46,18.53,18.53,0,0,1-7.56,1.58H177.33a18.4,18.4,0,0,1-7.62-1.58,20.53,20.53,0,0,1-6.17-4.23q-6.54-5.09-9.38-9.8a19.09,19.09,0,0,1-2.84-10V36.38a19.88,19.88,0,0,1,5.86-14.16A21,21,0,0,1,163.54,18a19.24,19.24,0,0,1,7.74-1.58Zm-32.31,1.21A18.21,18.21,0,0,0,164,19.08a18.55,18.55,0,0,0-5.93,4,19.42,19.42,0,0,0-4.05,6,18,18,0,0,0-1.51,7.32V86.84A17.51,17.51,0,0,0,154,94.09a19.46,19.46,0,0,0,10,10,17.59,17.59,0,0,0,7.26,1.51h32.31a17.59,17.59,0,0,0,7.26-1.51,19.46,19.46,0,0,0,10-10,17.51,17.51,0,0,0,1.51-7.25V36.38a18,18,0,0,0-1.51-7.32,19.42,19.42,0,0,0-4.05-6,18.66,18.66,0,0,0-5.93-4,18.21,18.21,0,0,0-7.26-1.46Zm18.27,57.72a2.12,2.12,0,0,1-.6,1.57,2,2,0,0,1-1.46.61,2.07,2.07,0,0,1-2.17-2.18V48.48a2.07,2.07,0,0,1,2.17-2.18,2,2,0,0,1,1.46.61,2.12,2.12,0,0,1,.6,1.57Z" transform="translate(-18.08 -15.91)"/><path class="cls-4" d="M281.51,16.41a19.19,19.19,0,0,1,10,2.85q4.78,2.83,10,9.37a19.89,19.89,0,0,1,4.17,6.17,19.1,19.1,0,0,1,1.51,7.63V92.88a18.53,18.53,0,0,1-1.57,7.57,20.11,20.11,0,0,1-10.47,10.46,18.53,18.53,0,0,1-7.56,1.58H255.25a18.4,18.4,0,0,1-7.62-1.58,20.53,20.53,0,0,1-6.17-4.23,38.13,38.13,0,0,1-9.38-9.8,19.19,19.19,0,0,1-2.84-10V36.38a19.74,19.74,0,0,1,1.57-7.81,19.43,19.43,0,0,1,4.3-6.35A20.87,20.87,0,0,1,241.46,18a19.24,19.24,0,0,1,7.74-1.58ZM249.2,17.62a18.21,18.21,0,0,0-7.26,1.46,18.55,18.55,0,0,0-5.93,4,19.42,19.42,0,0,0-4,6,18,18,0,0,0-1.51,7.32V86.84A17.51,17.51,0,0,0,232,94.09a19.46,19.46,0,0,0,10,10,17.59,17.59,0,0,0,7.26,1.51h32.31a17.59,17.59,0,0,0,7.26-1.51,19.46,19.46,0,0,0,10-10,17.51,17.51,0,0,0,1.52-7.25V36.38a18,18,0,0,0-1.52-7.32,19.42,19.42,0,0,0-4.05-6,18.44,18.44,0,0,0-5.93-4,18.21,18.21,0,0,0-7.26-1.46Zm18.27,57.72a2.12,2.12,0,0,1-.6,1.57,2,2,0,0,1-1.45.61,2.08,2.08,0,0,1-2.18-2.18V48.48a2.08,2.08,0,0,1,2.18-2.18,2,2,0,0,1,1.45.61,2.12,2.12,0,0,1,.6,1.57Z" transform="translate(-18.08 -15.91)"/></g><path class="cls-1" d="M20.09,193.22s.58,4.91,6.73,5.78,31.59-1,31.59-1l6.65-16.17-4.12-7.74,2.67-11.64-2.19-12.36-4.48-3.8-3.81-2.82-17.2-.75-12,.75-3.26,2.86-.94,4.92Z" transform="translate(-18.08 -15.91)"/><rect class="cls-1" x="48.72" y="127.35" width="43.66" height="54.78" rx="12.87"/><polygon class="cls-1" points="100.55 182.13 149.67 182.13 135.75 130.53 131.88 127.6 111.11 128.03 108.75 129.84 96.28 176.65 96.58 180.33 100.55 182.13"/><polygon class="cls-1" points="198.13 170.29 198.32 178.99 202.8 182.13 235.66 181.68 241.94 174.63 241.19 136.35 234.25 128.61 230.23 127.6 202.74 127.94 198.44 130.56 198.13 170.29"/><polygon class="cls-1" points="150.13 177.4 154.99 183.63 172.55 182.13 191.96 183.09 195.21 163.78 191.74 155.05 194.78 137.98 189.52 130.16 185.1 127.6 157.11 127.6 152.76 129.36 150.96 131.8 150.13 177.4"/><polygon class="cls-1" points="244.63 170.94 244.63 177.12 250.11 184.08 283.26 182.13 286.62 162.37 284.02 151.42 286.62 132.67 281.91 128.2 267.43 126.85 253 127.6 246.5 131.69 244.63 135.92 243.91 153.38 245.87 156.63 247.8 159.34 248.78 160.1 246 160.96 244.63 163.13 244.63 170.94"/><g class="cls-2"><path class="cls-5" d="M25.19,200.37a22.37,22.37,0,0,1-4.65-4.65,7,7,0,0,1-1.2-3.83v-42.3a6.74,6.74,0,0,1,4.2-6.3,7,7,0,0,1,2.7-.53h23a12.66,12.66,0,0,1,6.49,1.84A24.38,24.38,0,0,1,62,150.49a12.5,12.5,0,0,1,2.7,4,12.67,12.67,0,0,1,1,5v7a9.67,9.67,0,0,1-1,4.46,10.05,10.05,0,0,1-2.93,3.49,13.75,13.75,0,0,1,3.08,4.09,9.47,9.47,0,0,1,.9,3.93v7.06a12.26,12.26,0,0,1-1,4.94,12.82,12.82,0,0,1-6.79,6.79,12.19,12.19,0,0,1-5,1H30A6.52,6.52,0,0,1,25.19,200.37ZM57,170.74a9.41,9.41,0,0,0,3.22-3.41,9.16,9.16,0,0,0,1.21-4.54v-7a11.65,11.65,0,0,0-1-4.76,12.46,12.46,0,0,0-6.52-6.49,11.79,11.79,0,0,0-4.73-1H26.24a6,6,0,0,0-4.35,1.77,5.79,5.79,0,0,0-1.8,4.31v42.3A6.15,6.15,0,0,0,26.24,198h23a11.78,11.78,0,0,0,4.73-1,12.35,12.35,0,0,0,6.52-6.53,11.74,11.74,0,0,0,1-4.72v-7.06a9.7,9.7,0,0,0-4.43-8Zm-16.13-9.9a1.65,1.65,0,0,1,0,3.3,1.63,1.63,0,0,1-1.23-.49,1.62,1.62,0,0,1,0-2.32A1.63,1.63,0,0,1,40.86,160.84Zm0,16.73a1.62,1.62,0,0,1,1.17.48,1.65,1.65,0,0,1,0,2.33,1.63,1.63,0,0,1-1.17.49,1.67,1.67,0,0,1-1.23-.49,1.63,1.63,0,0,1,0-2.33A1.67,1.67,0,0,1,40.86,177.57Z" transform="translate(-18.08 -15.91)"/><path class="cls-5" d="M98.09,142.76a12.26,12.26,0,0,1,6.26,1.77,23.35,23.35,0,0,1,6.26,5.81,11.59,11.59,0,0,1,3.38,8.55v31.28a11.45,11.45,0,0,1-1,4.68,12.54,12.54,0,0,1-2.62,3.87,12.79,12.79,0,0,1-3.86,2.62,11.53,11.53,0,0,1-4.69,1h-20a12,12,0,0,1-4.8-1,12.62,12.62,0,0,1-3.9-2.62,22.17,22.17,0,0,1-5.73-6.08,12.2,12.2,0,0,1-1.69-6.22V155.14a12.23,12.23,0,0,1,1-4.84,12,12,0,0,1,2.67-3.93,12.84,12.84,0,0,1,3.93-2.63,12,12,0,0,1,4.8-1Zm-20,.75a11.55,11.55,0,0,0-8.17,3.38,12,12,0,0,0-2.51,3.71,11.12,11.12,0,0,0-.94,4.54v31.28a10.83,10.83,0,0,0,.94,4.5,12.05,12.05,0,0,0,6.18,6.18,10.83,10.83,0,0,0,4.5.94h20a10.83,10.83,0,0,0,4.5-.94,12,12,0,0,0,3.67-2.51,12.24,12.24,0,0,0,2.52-3.67,11,11,0,0,0,.93-4.5V155.14a11.28,11.28,0,0,0-.93-4.54,12.18,12.18,0,0,0-2.52-3.71,11.55,11.55,0,0,0-8.17-3.38Zm11.33,35.78a1.3,1.3,0,0,1-.38,1,1.19,1.19,0,0,1-.9.38,1.27,1.27,0,0,1-1-.38,1.3,1.3,0,0,1-.38-1V162.64a1.3,1.3,0,0,1,1.35-1.35,1.23,1.23,0,0,1,.9.38,1.31,1.31,0,0,1,.38,1Z" transform="translate(-18.08 -15.91)"/><path class="cls-5" d="M119,200.44a32.14,32.14,0,0,1-2.7-2.29,11.69,11.69,0,0,1-1.65-1.91,5.9,5.9,0,0,1-.82-1.76,7.57,7.57,0,0,1-.23-1.91,8.43,8.43,0,0,1,.15-1.65c.11-.5.2-1,.3-1.43l10.2-40.12a11,11,0,0,1,2.48-4.73,6.59,6.59,0,0,1,5.1-1.88h15.07a7.48,7.48,0,0,1,4.24,1.28,22.74,22.74,0,0,1,4.61,4.65,7.08,7.08,0,0,1,1.39,2,14.33,14.33,0,0,1,.94,2.51l10.12,40.13a9.45,9.45,0,0,1,.45,3,5.28,5.28,0,0,1-1.95,4.57,7.92,7.92,0,0,1-4.8,1.43H147.44a3.37,3.37,0,0,1-2.48-1.06l-2.47-2.47a3.6,3.6,0,0,1-1.13,2.51,3.52,3.52,0,0,1-2.55,1h-14.4a9.73,9.73,0,0,1-3-.45A5.83,5.83,0,0,1,119,200.44Zm20.4-22.57a1.23,1.23,0,0,1,.83.33,1.13,1.13,0,0,1,.37.87v15.82a3.07,3.07,0,0,0,.9,2.21,2.9,2.9,0,0,0,2.18.94h14.47a7.36,7.36,0,0,0,4.43-1.31,4.81,4.81,0,0,0,1.8-4.16,9,9,0,0,0-.45-2.85l-10.13-40.13a9.86,9.86,0,0,0-2.28-4.35,6,6,0,0,0-4.62-1.73H131.84a5.9,5.9,0,0,0-4.58,1.73,10,10,0,0,0-2.25,4.35l-10.2,40.13q-.15.67-.3,1.38a7.19,7.19,0,0,0-.15,1.47,4.78,4.78,0,0,0,1.84,4.16,7.51,7.51,0,0,0,4.46,1.31h14.4a3.19,3.19,0,0,0,3.15-3.15V179.07A1.06,1.06,0,0,1,139.41,177.87Zm0-17a1.65,1.65,0,0,1,0,3.3,1.57,1.57,0,0,1-1.16-.49,1.62,1.62,0,0,1,0-2.32A1.57,1.57,0,0,1,139.41,160.84Z" transform="translate(-18.08 -15.91)"/><path class="cls-5" d="M174.06,200.37a21.47,21.47,0,0,1-4.61-4.65,7.24,7.24,0,0,1-1.16-3.83v-42.3a6.74,6.74,0,0,1,4.2-6.3,7,7,0,0,1,2.7-.53H199a12.85,12.85,0,0,1,6.53,1.84,24,24,0,0,1,6.37,5.89,12.21,12.21,0,0,1,3.6,9v7a10.28,10.28,0,0,1-1,4.46,8.61,8.61,0,0,1-2.93,3.42,14.22,14.22,0,0,1,3,4.08,9.77,9.77,0,0,1,.93,4v13.13a6.66,6.66,0,0,1-6.67,6.68H198.51a3.69,3.69,0,0,1-2.7-1.13L193,198.42l-.68-.38v.45a3.76,3.76,0,0,1-1.08,2.7,3.67,3.67,0,0,1-2.74,1.13h-9.6A6.63,6.63,0,0,1,174.06,200.37ZM184.79,198a3.12,3.12,0,0,0,2.36-1,3.23,3.23,0,0,0,.94-2.33V180.87a1.59,1.59,0,0,1,.49-1.17,1.67,1.67,0,0,1,1.23-.48,1.64,1.64,0,0,1,1.65,1.65v13.87a3.19,3.19,0,0,0,1,2.33,3.16,3.16,0,0,0,2.32,1H205a6.15,6.15,0,0,0,6.15-6.15V178.76a9.64,9.64,0,0,0-1.16-4.57,8.89,8.89,0,0,0-3.27-3.45,9,9,0,0,0,3.27-3.41,9.43,9.43,0,0,0,1.16-4.54v-7a11.65,11.65,0,0,0-1-4.76,12.49,12.49,0,0,0-2.62-3.86,12.64,12.64,0,0,0-3.86-2.63,11.73,11.73,0,0,0-4.77-1H175.19a6,6,0,0,0-4.35,1.77,5.79,5.79,0,0,0-1.8,4.31v42.3a6.15,6.15,0,0,0,6.15,6.15Zm5-37.2a1.65,1.65,0,0,1,0,3.3,1.63,1.63,0,0,1-1.23-.49,1.62,1.62,0,0,1,0-2.32A1.63,1.63,0,0,1,189.81,160.84Z" transform="translate(-18.08 -15.91)"/><path class="cls-5" d="M215.46,150.26a7.13,7.13,0,0,1,.6-2.92,7.76,7.76,0,0,1,4-4,7.1,7.1,0,0,1,2.92-.61h23.1a12.32,12.32,0,0,1,6.27,1.77,23.5,23.5,0,0,1,6.26,5.81,11.58,11.58,0,0,1,3.37,8.55v31.28a11.44,11.44,0,0,1-1,4.68,12.45,12.45,0,0,1-6.49,6.49,11.49,11.49,0,0,1-4.69,1h-23.1a7.06,7.06,0,0,1-5.17-2.18,19.38,19.38,0,0,1-4.8-4.65,7.78,7.78,0,0,1-1.28-4.2Zm.75,41A6.79,6.79,0,0,0,223,198h23.1a10.83,10.83,0,0,0,4.5-.94,12,12,0,0,0,6.19-6.18,10.83,10.83,0,0,0,.94-4.5V155.14a11.12,11.12,0,0,0-.94-4.54,12,12,0,0,0-2.51-3.71,11.46,11.46,0,0,0-3.68-2.47,11.31,11.31,0,0,0-4.5-.91H223a6.57,6.57,0,0,0-4.76,2,6.48,6.48,0,0,0-2,4.79Zm22.13-12a1.25,1.25,0,0,1-.41,1,1.33,1.33,0,0,1-.94.38,1.29,1.29,0,0,1-1.35-1.35V162.64a1.3,1.3,0,0,1,.37-1,1.33,1.33,0,0,1,1-.38,1.38,1.38,0,0,1,.94.38,1.26,1.26,0,0,1,.41,1Z" transform="translate(-18.08 -15.91)"/><path class="cls-5" d="M268.19,200a21.76,21.76,0,0,1-4.91-5.1,8.32,8.32,0,0,1-1.32-4.35V180.26a3.72,3.72,0,0,1,3.75-3.75,4.25,4.25,0,0,1,.57.08c.27,0,.58.13.93.23a17.65,17.65,0,0,1-4.12-4.28,7.34,7.34,0,0,1-1.13-3.82V155.14a12,12,0,0,1,1-4.8,12.48,12.48,0,0,1,6.6-6.6,12,12,0,0,1,4.8-1h21.22a8.6,8.6,0,0,1,4.43,1.36,20.66,20.66,0,0,1,5.1,4.95,7.6,7.6,0,0,1,2.17,5.62v10.57a3.4,3.4,0,0,1-1,2.52,3.34,3.34,0,0,1-2.44,1,1.87,1.87,0,0,1-.37,0l-1.13-.18q1.57,1.65,2.55,2.85a19,19,0,0,1,1.5,2.06,6.6,6.6,0,0,1,.72,1.53,5.05,5.05,0,0,1,.18,1.28v13.88a11.44,11.44,0,0,1-1,4.68,12.45,12.45,0,0,1-6.49,6.49,11.49,11.49,0,0,1-4.69,1H274a8.22,8.22,0,0,1-3.22-.64A8.05,8.05,0,0,1,268.19,200ZM303,172.54a5.5,5.5,0,0,0-1.16-3.45,5.69,5.69,0,0,0-3-2l-12.68-3.45a1.34,1.34,0,0,1,.3-2.63.86.86,0,0,1,.38.08l12.52,3.37a1.42,1.42,0,0,1,.34,0,2.63,2.63,0,0,0,.41,0,2.82,2.82,0,0,0,2.07-.86,2.9,2.9,0,0,0,.86-2.14V150.94a7.18,7.18,0,0,0-.6-2.93,8,8,0,0,0-1.61-2.36,7.46,7.46,0,0,0-5.22-2.14H274.34a11,11,0,0,0-4.5.94,12.28,12.28,0,0,0-3.68,2.52,12.09,12.09,0,0,0-2.51,3.67,11,11,0,0,0-.94,4.5v13.58a6.43,6.43,0,0,0,1.24,3.82,6,6,0,0,0,3.34,2.33l12.15,3.22a1.43,1.43,0,0,1,1,1.35,1.22,1.22,0,0,1-.37.9,1.33,1.33,0,0,1-1,.38.81.81,0,0,1-.37-.08c-.45-.1-1.33-.34-2.63-.71L272,178.76c-1.43-.39-2.75-.75-4-1a14.59,14.59,0,0,0-2.29-.46,3,3,0,0,0-3,3v10.28a7.43,7.43,0,0,0,7.5,7.5h21.15a10.83,10.83,0,0,0,4.5-.94,12,12,0,0,0,6.19-6.18,10.83,10.83,0,0,0,.94-4.5Z" transform="translate(-18.08 -15.91)"/></g><g class="cls-2"><path class="cls-6" d="M25.19,200.37a22.37,22.37,0,0,1-4.65-4.65,7,7,0,0,1-1.2-3.83v-42.3a6.74,6.74,0,0,1,4.2-6.3,7,7,0,0,1,2.7-.53h23a12.66,12.66,0,0,1,6.49,1.84A24.38,24.38,0,0,1,62,150.49a12.5,12.5,0,0,1,2.7,4,12.67,12.67,0,0,1,1,5v7a9.67,9.67,0,0,1-1,4.46,10.05,10.05,0,0,1-2.93,3.49,13.75,13.75,0,0,1,3.08,4.09,9.47,9.47,0,0,1,.9,3.93v7.06a12.26,12.26,0,0,1-1,4.94,12.82,12.82,0,0,1-6.79,6.79,12.19,12.19,0,0,1-5,1H30A6.52,6.52,0,0,1,25.19,200.37ZM57,170.74a9.41,9.41,0,0,0,3.22-3.41,9.16,9.16,0,0,0,1.21-4.54v-7a11.65,11.65,0,0,0-1-4.76,12.46,12.46,0,0,0-6.52-6.49,11.79,11.79,0,0,0-4.73-1H26.24a6,6,0,0,0-4.35,1.77,5.79,5.79,0,0,0-1.8,4.31v42.3A6.15,6.15,0,0,0,26.24,198h23a11.78,11.78,0,0,0,4.73-1,12.35,12.35,0,0,0,6.52-6.53,11.74,11.74,0,0,0,1-4.72v-7.06a9.7,9.7,0,0,0-4.43-8Zm-16.13-9.9a1.65,1.65,0,0,1,0,3.3,1.63,1.63,0,0,1-1.23-.49,1.62,1.62,0,0,1,0-2.32A1.63,1.63,0,0,1,40.86,160.84Zm0,16.73a1.62,1.62,0,0,1,1.17.48,1.65,1.65,0,0,1,0,2.33,1.63,1.63,0,0,1-1.17.49,1.67,1.67,0,0,1-1.23-.49,1.63,1.63,0,0,1,0-2.33A1.67,1.67,0,0,1,40.86,177.57Z" transform="translate(-18.08 -15.91)"/><path class="cls-6" d="M98.09,142.76a12.26,12.26,0,0,1,6.26,1.77,23.35,23.35,0,0,1,6.26,5.81,11.59,11.59,0,0,1,3.38,8.55v31.28a11.45,11.45,0,0,1-1,4.68,12.54,12.54,0,0,1-2.62,3.87,12.79,12.79,0,0,1-3.86,2.62,11.53,11.53,0,0,1-4.69,1h-20a12,12,0,0,1-4.8-1,12.62,12.62,0,0,1-3.9-2.62,22.17,22.17,0,0,1-5.73-6.08,12.2,12.2,0,0,1-1.69-6.22V155.14a12.23,12.23,0,0,1,1-4.84,12,12,0,0,1,2.67-3.93,12.84,12.84,0,0,1,3.93-2.63,12,12,0,0,1,4.8-1Zm-20,.75a11.55,11.55,0,0,0-8.17,3.38,12,12,0,0,0-2.51,3.71,11.12,11.12,0,0,0-.94,4.54v31.28a10.83,10.83,0,0,0,.94,4.5,12.05,12.05,0,0,0,6.18,6.18,10.83,10.83,0,0,0,4.5.94h20a10.83,10.83,0,0,0,4.5-.94,12,12,0,0,0,3.67-2.51,12.24,12.24,0,0,0,2.52-3.67,11,11,0,0,0,.93-4.5V155.14a11.28,11.28,0,0,0-.93-4.54,12.18,12.18,0,0,0-2.52-3.71,11.55,11.55,0,0,0-8.17-3.38Zm11.33,35.78a1.3,1.3,0,0,1-.38,1,1.19,1.19,0,0,1-.9.38,1.27,1.27,0,0,1-1-.38,1.3,1.3,0,0,1-.38-1V162.64a1.3,1.3,0,0,1,1.35-1.35,1.23,1.23,0,0,1,.9.38,1.31,1.31,0,0,1,.38,1Z" transform="translate(-18.08 -15.91)"/><path class="cls-6" d="M119,200.44a32.14,32.14,0,0,1-2.7-2.29,11.69,11.69,0,0,1-1.65-1.91,5.9,5.9,0,0,1-.82-1.76,7.57,7.57,0,0,1-.23-1.91,8.43,8.43,0,0,1,.15-1.65c.11-.5.2-1,.3-1.43l10.2-40.12a11,11,0,0,1,2.48-4.73,6.59,6.59,0,0,1,5.1-1.88h15.07a7.48,7.48,0,0,1,4.24,1.28,22.74,22.74,0,0,1,4.61,4.65,7.08,7.08,0,0,1,1.39,2,14.33,14.33,0,0,1,.94,2.51l10.12,40.13a9.45,9.45,0,0,1,.45,3,5.28,5.28,0,0,1-1.95,4.57,7.92,7.92,0,0,1-4.8,1.43H147.44a3.37,3.37,0,0,1-2.48-1.06l-2.47-2.47a3.6,3.6,0,0,1-1.13,2.51,3.52,3.52,0,0,1-2.55,1h-14.4a9.73,9.73,0,0,1-3-.45A5.83,5.83,0,0,1,119,200.44Zm20.4-22.57a1.23,1.23,0,0,1,.83.33,1.13,1.13,0,0,1,.37.87v15.82a3.07,3.07,0,0,0,.9,2.21,2.9,2.9,0,0,0,2.18.94h14.47a7.36,7.36,0,0,0,4.43-1.31,4.81,4.81,0,0,0,1.8-4.16,9,9,0,0,0-.45-2.85l-10.13-40.13a9.86,9.86,0,0,0-2.28-4.35,6,6,0,0,0-4.62-1.73H131.84a5.9,5.9,0,0,0-4.58,1.73,10,10,0,0,0-2.25,4.35l-10.2,40.13q-.15.67-.3,1.38a7.19,7.19,0,0,0-.15,1.47,4.78,4.78,0,0,0,1.84,4.16,7.51,7.51,0,0,0,4.46,1.31h14.4a3.19,3.19,0,0,0,3.15-3.15V179.07A1.06,1.06,0,0,1,139.41,177.87Zm0-17a1.65,1.65,0,0,1,0,3.3,1.57,1.57,0,0,1-1.16-.49,1.62,1.62,0,0,1,0-2.32A1.57,1.57,0,0,1,139.41,160.84Z" transform="translate(-18.08 -15.91)"/><path class="cls-6" d="M174.06,200.37a21.47,21.47,0,0,1-4.61-4.65,7.24,7.24,0,0,1-1.16-3.83v-42.3a6.74,6.74,0,0,1,4.2-6.3,7,7,0,0,1,2.7-.53H199a12.85,12.85,0,0,1,6.53,1.84,24,24,0,0,1,6.37,5.89,12.21,12.21,0,0,1,3.6,9v7a10.28,10.28,0,0,1-1,4.46,8.61,8.61,0,0,1-2.93,3.42,14.22,14.22,0,0,1,3,4.08,9.77,9.77,0,0,1,.93,4v13.13a6.66,6.66,0,0,1-6.67,6.68H198.51a3.69,3.69,0,0,1-2.7-1.13L193,198.42l-.68-.38v.45a3.76,3.76,0,0,1-1.08,2.7,3.67,3.67,0,0,1-2.74,1.13h-9.6A6.63,6.63,0,0,1,174.06,200.37ZM184.79,198a3.12,3.12,0,0,0,2.36-1,3.23,3.23,0,0,0,.94-2.33V180.87a1.59,1.59,0,0,1,.49-1.17,1.67,1.67,0,0,1,1.23-.48,1.64,1.64,0,0,1,1.65,1.65v13.87a3.19,3.19,0,0,0,1,2.33,3.16,3.16,0,0,0,2.32,1H205a6.15,6.15,0,0,0,6.15-6.15V178.76a9.64,9.64,0,0,0-1.16-4.57,8.89,8.89,0,0,0-3.27-3.45,9,9,0,0,0,3.27-3.41,9.43,9.43,0,0,0,1.16-4.54v-7a11.65,11.65,0,0,0-1-4.76,12.49,12.49,0,0,0-2.62-3.86,12.64,12.64,0,0,0-3.86-2.63,11.73,11.73,0,0,0-4.77-1H175.19a6,6,0,0,0-4.35,1.77,5.79,5.79,0,0,0-1.8,4.31v42.3a6.15,6.15,0,0,0,6.15,6.15Zm5-37.2a1.65,1.65,0,0,1,0,3.3,1.63,1.63,0,0,1-1.23-.49,1.62,1.62,0,0,1,0-2.32A1.63,1.63,0,0,1,189.81,160.84Z" transform="translate(-18.08 -15.91)"/><path class="cls-6" d="M215.46,150.26a7.13,7.13,0,0,1,.6-2.92,7.76,7.76,0,0,1,4-4,7.1,7.1,0,0,1,2.92-.61h23.1a12.32,12.32,0,0,1,6.27,1.77,23.5,23.5,0,0,1,6.26,5.81,11.58,11.58,0,0,1,3.37,8.55v31.28a11.44,11.44,0,0,1-1,4.68,12.45,12.45,0,0,1-6.49,6.49,11.49,11.49,0,0,1-4.69,1h-23.1a7.06,7.06,0,0,1-5.17-2.18,19.38,19.38,0,0,1-4.8-4.65,7.78,7.78,0,0,1-1.28-4.2Zm.75,41A6.79,6.79,0,0,0,223,198h23.1a10.83,10.83,0,0,0,4.5-.94,12,12,0,0,0,6.19-6.18,10.83,10.83,0,0,0,.94-4.5V155.14a11.12,11.12,0,0,0-.94-4.54,12,12,0,0,0-2.51-3.71,11.46,11.46,0,0,0-3.68-2.47,11.31,11.31,0,0,0-4.5-.91H223a6.57,6.57,0,0,0-4.76,2,6.48,6.48,0,0,0-2,4.79Zm22.13-12a1.25,1.25,0,0,1-.41,1,1.33,1.33,0,0,1-.94.38,1.29,1.29,0,0,1-1.35-1.35V162.64a1.3,1.3,0,0,1,.37-1,1.33,1.33,0,0,1,1-.38,1.38,1.38,0,0,1,.94.38,1.26,1.26,0,0,1,.41,1Z" transform="translate(-18.08 -15.91)"/><path class="cls-6" d="M268.19,200a21.76,21.76,0,0,1-4.91-5.1,8.32,8.32,0,0,1-1.32-4.35V180.26a3.72,3.72,0,0,1,3.75-3.75,4.25,4.25,0,0,1,.57.08c.27,0,.58.13.93.23a17.65,17.65,0,0,1-4.12-4.28,7.34,7.34,0,0,1-1.13-3.82V155.14a12,12,0,0,1,1-4.8,12.48,12.48,0,0,1,6.6-6.6,12,12,0,0,1,4.8-1h21.22a8.6,8.6,0,0,1,4.43,1.36,20.66,20.66,0,0,1,5.1,4.95,7.6,7.6,0,0,1,2.17,5.62v10.57a3.4,3.4,0,0,1-1,2.52,3.34,3.34,0,0,1-2.44,1,1.87,1.87,0,0,1-.37,0l-1.13-.18q1.57,1.65,2.55,2.85a19,19,0,0,1,1.5,2.06,6.6,6.6,0,0,1,.72,1.53,5.05,5.05,0,0,1,.18,1.28v13.88a11.44,11.44,0,0,1-1,4.68,12.45,12.45,0,0,1-6.49,6.49,11.49,11.49,0,0,1-4.69,1H274a8.22,8.22,0,0,1-3.22-.64A8.05,8.05,0,0,1,268.19,200ZM303,172.54a5.5,5.5,0,0,0-1.16-3.45,5.69,5.69,0,0,0-3-2l-12.68-3.45a1.34,1.34,0,0,1,.3-2.63.86.86,0,0,1,.38.08l12.52,3.37a1.42,1.42,0,0,1,.34,0,2.63,2.63,0,0,0,.41,0,2.82,2.82,0,0,0,2.07-.86,2.9,2.9,0,0,0,.86-2.14V150.94a7.18,7.18,0,0,0-.6-2.93,8,8,0,0,0-1.61-2.36,7.46,7.46,0,0,0-5.22-2.14H274.34a11,11,0,0,0-4.5.94,12.28,12.28,0,0,0-3.68,2.52,12.09,12.09,0,0,0-2.51,3.67,11,11,0,0,0-.94,4.5v13.58a6.43,6.43,0,0,0,1.24,3.82,6,6,0,0,0,3.34,2.33l12.15,3.22a1.43,1.43,0,0,1,1,1.35,1.22,1.22,0,0,1-.37.9,1.33,1.33,0,0,1-1,.38.81.81,0,0,1-.37-.08c-.45-.1-1.33-.34-2.63-.71L272,178.76c-1.43-.39-2.75-.75-4-1a14.59,14.59,0,0,0-2.29-.46,3,3,0,0,0-3,3v10.28a7.43,7.43,0,0,0,7.5,7.5h21.15a10.83,10.83,0,0,0,4.5-.94,12,12,0,0,0,6.19-6.18,10.83,10.83,0,0,0,.94-4.5Z" transform="translate(-18.08 -15.91)"/></g></g></g></svg>