<svg id="Layer_1" data-name="Layer 1" xmlns="http://www.w3.org/2000/svg" viewBox="0 0 579.68 394.89"><defs><style>.cls-1{fill:#e32726;stroke:#e32726;}.cls-1,.cls-2{stroke-miterlimit:10;}.cls-2{fill:#074f98;stroke:#074f98;}</style></defs><path class="cls-1" d="M187.47,87.77a22.49,22.49,0,0,1,12.24,4q6.19,4,15.4,15.16a20.46,20.46,0,0,1,6.07,15V258.75a21.53,21.53,0,0,1-21.59,21.58H166.37a20.8,20.8,0,0,1-15.28-6.3q-11.16-9-15.16-15a22.19,22.19,0,0,1-4-12.37v-81a9,9,0,0,1-3.64-2.91q-5.08-4.11-8.36-7.27a50.28,50.28,0,0,1-5.22-5.7A17.13,17.13,0,0,1,112,145a13.89,13.89,0,0,1-.72-4.37V114.69q0-7.27,4.12-10.55a37.29,37.29,0,0,1,9.7-5.45l14.07-5.58a73.52,73.52,0,0,1,13.09-4,71.68,71.68,0,0,1,14.31-1.34ZM166.61,90.2a61.68,61.68,0,0,0-13.46,1.33,97.52,97.52,0,0,0-13,4l-14.07,5.34a35.5,35.5,0,0,0-8.61,4.85q-3.77,2.91-3.76,9v25.95A12.43,12.43,0,0,0,126.11,153h8.25v93.61a19.87,19.87,0,0,0,19.88,19.89h33.23a19.87,19.87,0,0,0,19.88-19.89V109.84a18.77,18.77,0,0,0-5.82-13.94,19.37,19.37,0,0,0-14.06-5.7Z" transform="translate(-110.82 -87.27)"/><path class="cls-1" d="M325.94,87.77a38.69,38.69,0,0,1,20,5.7q9.58,5.7,20,18.8a39.45,39.45,0,0,1,8.36,12.37,38.19,38.19,0,0,1,3,15.27V241a37.17,37.17,0,0,1-3.16,15.16,40.23,40.23,0,0,1-21,21,37.19,37.19,0,0,1-15.15,3.15H273.32A36.91,36.91,0,0,1,258,277.18a40.93,40.93,0,0,1-12.37-8.49q-13.09-10.19-18.8-19.64a38.36,38.36,0,0,1-5.7-20.13V127.79a39.93,39.93,0,0,1,11.77-28.38,41.76,41.76,0,0,1,12.73-8.48,38.63,38.63,0,0,1,15.52-3.16ZM261.19,90.2a36.5,36.5,0,0,0-14.55,2.91,37.67,37.67,0,0,0-11.89,8,39,39,0,0,0-8.12,12,36.12,36.12,0,0,0-3,14.67V228.92a35.25,35.25,0,0,0,3,14.55,39,39,0,0,0,20,20,35.25,35.25,0,0,0,14.55,3h64.75a35.32,35.32,0,0,0,14.55-3,39,39,0,0,0,20-20,35.25,35.25,0,0,0,3-14.55V127.79a36.12,36.12,0,0,0-3-14.67,39,39,0,0,0-8.12-12,37.67,37.67,0,0,0-11.89-8,36.57,36.57,0,0,0-14.55-2.91Zm36.62,115.68A4.27,4.27,0,0,1,296.6,209a4,4,0,0,1-2.91,1.22,4.27,4.27,0,0,1-3.16-1.22,4.23,4.23,0,0,1-1.21-3.15V152a4.15,4.15,0,0,1,4.37-4.36,4,4,0,0,1,2.91,1.21,4.3,4.3,0,0,1,1.21,3.15Z" transform="translate(-110.82 -87.27)"/><path class="cls-1" d="M482.12,87.77a38.69,38.69,0,0,1,20,5.7q9.58,5.7,20,18.8a39.65,39.65,0,0,1,8.37,12.37,38.19,38.19,0,0,1,3,15.27V241a37.33,37.33,0,0,1-3.15,15.16,40.32,40.32,0,0,1-21,21,37.23,37.23,0,0,1-15.16,3.15H429.5a37,37,0,0,1-15.28-3.15,40.93,40.93,0,0,1-12.37-8.49q-13.1-10.19-18.8-19.64a38.35,38.35,0,0,1-5.69-20.13V127.79a39.48,39.48,0,0,1,3.15-15.64,39,39,0,0,1,8.61-12.74,41.88,41.88,0,0,1,12.73-8.48,38.63,38.63,0,0,1,15.52-3.16ZM417.37,90.2a36.5,36.5,0,0,0-14.55,2.91,37.52,37.52,0,0,0-11.88,8,38.84,38.84,0,0,0-8.13,12,36.12,36.12,0,0,0-3,14.67V228.92a35.25,35.25,0,0,0,3,14.55,39.08,39.08,0,0,0,20,20,35.25,35.25,0,0,0,14.55,3h64.75a35.28,35.28,0,0,0,14.55-3,39,39,0,0,0,20-20,35.25,35.25,0,0,0,3-14.55V127.79a36.12,36.12,0,0,0-3-14.67,39,39,0,0,0-8.12-12,37.67,37.67,0,0,0-11.89-8,36.53,36.53,0,0,0-14.55-2.91ZM454,205.88a4.23,4.23,0,0,1-1.21,3.15,4,4,0,0,1-2.91,1.22,4.18,4.18,0,0,1-4.37-4.37V152a4.17,4.17,0,0,1,4.37-4.36,4,4,0,0,1,2.91,1.21A4.26,4.26,0,0,1,454,152Z" transform="translate(-110.82 -87.27)"/><path class="cls-1" d="M638.31,87.77a38.68,38.68,0,0,1,20,5.7q9.59,5.7,20,18.8a39.48,39.48,0,0,1,8.37,12.37,38.19,38.19,0,0,1,3,15.27V241a37,37,0,0,1-3.16,15.16,40.25,40.25,0,0,1-21,21,37.2,37.2,0,0,1-15.16,3.15H585.68a37,37,0,0,1-15.28-3.15A41.05,41.05,0,0,1,558,268.69q-13.1-10.19-18.79-19.64a38.36,38.36,0,0,1-5.7-20.13V127.79a39.48,39.48,0,0,1,3.15-15.64,39,39,0,0,1,8.61-12.74A41.88,41.88,0,0,1,558,90.93a38.63,38.63,0,0,1,15.52-3.16ZM573.55,90.2A36.57,36.57,0,0,0,559,93.11a37.52,37.52,0,0,0-11.88,8,38.84,38.84,0,0,0-8.13,12,36.12,36.12,0,0,0-3,14.67V228.92a35.25,35.25,0,0,0,3,14.55,39.08,39.08,0,0,0,20,20,35.32,35.32,0,0,0,14.55,3h64.76a35.32,35.32,0,0,0,14.55-3,39,39,0,0,0,20-20,35.26,35.26,0,0,0,3-14.55V127.79a36.13,36.13,0,0,0-3-14.67,39,39,0,0,0-8.12-12,37.74,37.74,0,0,0-11.88-8,36.57,36.57,0,0,0-14.55-2.91Zm36.62,115.68A4.23,4.23,0,0,1,609,209a4,4,0,0,1-2.91,1.22,4.18,4.18,0,0,1-4.37-4.37V152a4.17,4.17,0,0,1,4.37-4.36,4,4,0,0,1,2.91,1.21,4.26,4.26,0,0,1,1.21,3.15Z" transform="translate(-110.82 -87.27)"/><path class="cls-2" d="M124.64,477.76q-6.92-5.56-9.32-9.32a14.1,14.1,0,0,1-2.4-7.67V376a13.6,13.6,0,0,1,1-5.34,13.77,13.77,0,0,1,2.93-4.36,13.53,13.53,0,0,1,4.44-2.93,14.06,14.06,0,0,1,5.41-1.05h46a25.26,25.26,0,0,1,13,3.68q6.24,3.69,12.7,11.8a25.46,25.46,0,0,1,7.37,18V410a19.38,19.38,0,0,1-2.11,9,20.32,20.32,0,0,1-5.86,7,27.35,27.35,0,0,1,6.16,8.19,18.9,18.9,0,0,1,1.81,7.89v14.13a24.59,24.59,0,0,1-2,9.92,25.87,25.87,0,0,1-5.49,8.12,26.21,26.21,0,0,1-8.12,5.49,24.58,24.58,0,0,1-9.92,2h-46A13.09,13.09,0,0,1,124.64,477.76Zm63.74-59.38a18.7,18.7,0,0,0,6.46-6.84,18.25,18.25,0,0,0,2.41-9.09V388.32a23.47,23.47,0,0,0-1.95-9.55A25.28,25.28,0,0,0,190,371a25,25,0,0,0-7.81-5.26,23.66,23.66,0,0,0-9.47-2h-46a12,12,0,0,0-8.72,3.54,11.6,11.6,0,0,0-3.61,8.64v84.78a12.33,12.33,0,0,0,12.33,12.33h46a23.49,23.49,0,0,0,9.47-2,24.65,24.65,0,0,0,13.08-13.07,23.66,23.66,0,0,0,1.95-9.48V434.46a19.34,19.34,0,0,0-8.87-16.08Zm-32.32-19.84a3.31,3.31,0,0,1,0,6.61,3.33,3.33,0,0,1-2.48-1,3.15,3.15,0,0,1-1-2.32,3.21,3.21,0,0,1,1-2.34A3.36,3.36,0,0,1,156.06,398.54Zm0,33.52a3.31,3.31,0,0,1,0,6.61,3.36,3.36,0,0,1-2.48-1,3.26,3.26,0,0,1,0-4.66A3.37,3.37,0,0,1,156.06,432.06Z" transform="translate(-110.82 -87.27)"/><path class="cls-2" d="M270.76,362.31a24.77,24.77,0,0,1,12.55,3.53q6.09,3.54,12.55,11.65,6.76,6.76,6.76,17.14v62.68a23.11,23.11,0,0,1-1.95,9.4,25,25,0,0,1-13,13,23.11,23.11,0,0,1-9.4,2H238.14a23.94,23.94,0,0,1-9.62-2,24.92,24.92,0,0,1-7.82-5.26q-8.12-6.31-11.5-12.18a24.47,24.47,0,0,1-3.38-12.47V387.11a24.53,24.53,0,0,1,2-9.69,23.93,23.93,0,0,1,5.34-7.89,25.65,25.65,0,0,1,7.89-5.26,23.82,23.82,0,0,1,9.62-2Zm-40.14,1.5a22.54,22.54,0,0,0-9,1.81,23,23,0,0,0-7.36,5,23.86,23.86,0,0,0-5,7.44,22.29,22.29,0,0,0-1.88,9.09V449.8a21.76,21.76,0,0,0,1.88,9,24.25,24.25,0,0,0,12.4,12.4,21.92,21.92,0,0,0,9,1.88h40.14a21.87,21.87,0,0,0,9-1.88,24.13,24.13,0,0,0,7.37-5,24.39,24.39,0,0,0,5-7.36,21.92,21.92,0,0,0,1.88-9V387.11a22.45,22.45,0,0,0-1.88-9.09,24,24,0,0,0-5-7.44,23.06,23.06,0,0,0-7.37-5,22.49,22.49,0,0,0-9-1.81Zm22.7,71.71a2.64,2.64,0,0,1-.75,2,2.49,2.49,0,0,1-1.81.75,2.57,2.57,0,0,1-2.7-2.7V402.15a2.57,2.57,0,0,1,2.7-2.71,2.49,2.49,0,0,1,1.81.75,2.65,2.65,0,0,1,.75,2Z" transform="translate(-110.82 -87.27)"/><path class="cls-2" d="M312.69,477.91a68.23,68.23,0,0,1-5.41-4.59,23.82,23.82,0,0,1-3.3-3.83,11.58,11.58,0,0,1-1.66-3.53,15.21,15.21,0,0,1-.45-3.84,16.86,16.86,0,0,1,.3-3.3c.2-1,.4-2,.6-2.86l20.45-80.42a21.9,21.9,0,0,1,5-9.47q3.45-3.76,10.22-3.76h30.21a15,15,0,0,1,8.5,2.56q3.83,2.55,9.24,9.32a14.52,14.52,0,0,1,2.78,4,29.08,29.08,0,0,1,1.88,5l20.3,80.43a19,19,0,0,1,.9,6q0,6.32-3.91,9.17a15.89,15.89,0,0,1-9.62,2.85h-29a6.78,6.78,0,0,1-5-2.1l-5-5a7.34,7.34,0,0,1-2.26,5,7.09,7.09,0,0,1-5.11,2H323.52a19.36,19.36,0,0,1-6.09-.9A11.77,11.77,0,0,1,312.69,477.91Zm40.89-45.25a2.46,2.46,0,0,1,1.66.68,2.23,2.23,0,0,1,.75,1.73v31.71a6.2,6.2,0,0,0,1.8,4.44,5.84,5.84,0,0,0,4.36,1.88h29a14.66,14.66,0,0,0,8.87-2.63c2.41-1.75,3.61-4.54,3.61-8.35a18,18,0,0,0-.9-5.71L382.44,376a19.71,19.71,0,0,0-4.58-8.72q-3.24-3.45-9.25-3.46H338.4q-6,0-9.17,3.46a20.14,20.14,0,0,0-4.51,8.72l-20.44,80.42c-.21.9-.4,1.83-.6,2.78a13.62,13.62,0,0,0-.3,2.93q0,5.72,3.68,8.35A15,15,0,0,0,316,473.1h28.86a6.42,6.42,0,0,0,6.32-6.32V435.07A2.12,2.12,0,0,1,353.58,432.66Zm0-34.12a3.31,3.31,0,1,1-2.33,5.63,3.14,3.14,0,0,1-1-2.32,3.31,3.31,0,0,1,3.3-3.31Z" transform="translate(-110.82 -87.27)"/><path class="cls-2" d="M423,477.76q-6.91-5.56-9.24-9.32a14.35,14.35,0,0,1-2.33-7.67V376a13.6,13.6,0,0,1,1.05-5.34,13.77,13.77,0,0,1,2.93-4.36,13.59,13.59,0,0,1,4.43-2.93,14.14,14.14,0,0,1,5.42-1.05h47.65A25.61,25.61,0,0,1,486,366q6.32,3.69,12.78,11.8a24.49,24.49,0,0,1,7.22,18V410a20.59,20.59,0,0,1-2,9,17.13,17.13,0,0,1-5.86,6.84,28.16,28.16,0,0,1,5.94,8.19,19.44,19.44,0,0,1,1.88,8v26.31a13.33,13.33,0,0,1-13.38,13.37H472a7.41,7.41,0,0,1-5.42-2.25l-5.56-5.56-1.35-.75v.9a7.52,7.52,0,0,1-2.18,5.41,7.31,7.31,0,0,1-5.49,2.25H432.8A13.27,13.27,0,0,1,423,477.76Zm21.5-4.66a6.26,6.26,0,0,0,4.73-2,6.49,6.49,0,0,0,1.88-4.66V438.67a3.17,3.17,0,0,1,1-2.33,3.35,3.35,0,0,1,2.48-1,3.31,3.31,0,0,1,3.3,3.3v27.81a6.69,6.69,0,0,0,6.62,6.62h20.59a12.33,12.33,0,0,0,12.33-12.33V434.46a19.26,19.26,0,0,0-2.33-9.17,17.88,17.88,0,0,0-6.54-6.91,17.9,17.9,0,0,0,6.54-6.84,18.81,18.81,0,0,0,2.33-9.09V388.32a23.32,23.32,0,0,0-2-9.55,25,25,0,0,0-13-13,23.47,23.47,0,0,0-9.54-2H425.29a12,12,0,0,0-8.72,3.54A11.6,11.6,0,0,0,413,376v84.78a12.33,12.33,0,0,0,12.33,12.33Zm10.07-74.56a3.31,3.31,0,0,1,3.3,3.31,3.33,3.33,0,0,1-3.3,3.3,3.31,3.31,0,0,1-2.48-1,3.11,3.11,0,0,1-1-2.32,3.17,3.17,0,0,1,1-2.34A3.35,3.35,0,0,1,454.6,398.54Z" transform="translate(-110.82 -87.27)"/><path class="cls-2" d="M506,377.34a14.29,14.29,0,0,1,1.2-5.86,15.5,15.5,0,0,1,8-8,14.25,14.25,0,0,1,5.86-1.2h46.3a24.74,24.74,0,0,1,12.55,3.53q6.09,3.54,12.55,11.65,6.76,6.76,6.77,17.14v62.68a23.12,23.12,0,0,1-2,9.4,25,25,0,0,1-13,13,23.1,23.1,0,0,1-9.39,2h-46.3a14.2,14.2,0,0,1-10.38-4.35q-7.06-5.26-9.62-9.32a15.62,15.62,0,0,1-2.55-8.42Zm1.5,82.23A13.61,13.61,0,0,0,521,473.1h46.3a21.92,21.92,0,0,0,9-1.88,24.25,24.25,0,0,0,12.4-12.4,21.92,21.92,0,0,0,1.88-9V387.11a22.45,22.45,0,0,0-1.88-9.09,23.86,23.86,0,0,0-5-7.44,23.13,23.13,0,0,0-7.36-5,22.54,22.54,0,0,0-9-1.81H521a13.19,13.19,0,0,0-9.55,3.91,13,13,0,0,0-4,9.62Zm44.34-24.05a2.51,2.51,0,0,1-.82,2,2.72,2.72,0,0,1-1.88.75,2.68,2.68,0,0,1-2-.75,2.64,2.64,0,0,1-.75-2V402.15a2.65,2.65,0,0,1,.75-2,2.68,2.68,0,0,1,2-.75,2.72,2.72,0,0,1,1.88.75,2.52,2.52,0,0,1,.82,2Z" transform="translate(-110.82 -87.27)"/><path class="cls-2" d="M611.68,477q-7.21-5.86-9.84-10.23a16.67,16.67,0,0,1-2.63-8.71v-20.6a7.44,7.44,0,0,1,7.51-7.52,8.22,8.22,0,0,1,1.13.16c.55.1,1.18.25,1.88.45q-6-4.81-8.27-8.57a14.75,14.75,0,0,1-2.25-7.67V387.11a24,24,0,0,1,1.95-9.62,25.11,25.11,0,0,1,13.23-13.22,23.82,23.82,0,0,1,9.62-2h42.54a17.13,17.13,0,0,1,8.87,2.71q4.5,2.7,10.22,9.92A15.28,15.28,0,0,1,690,386.21v21.2a6.84,6.84,0,0,1-2,5,6.63,6.63,0,0,1-4.89,2,4.63,4.63,0,0,1-.75-.07l-2.25-.38c2.1,2.21,3.81,4.11,5.11,5.71a41.82,41.82,0,0,1,3,4.14,12.56,12.56,0,0,1,1.42,3.08,9.56,9.56,0,0,1,.38,2.55v27.81a23.11,23.11,0,0,1-2,9.4,24.94,24.94,0,0,1-13,13,23.06,23.06,0,0,1-9.39,2H623.26a16.41,16.41,0,0,1-6.47-1.27A16.09,16.09,0,0,1,611.68,477Zm69.75-55a11,11,0,0,0-2.33-6.92A11.42,11.42,0,0,0,673,411l-25.4-6.91a2.74,2.74,0,0,1-1.2-4.51,2.45,2.45,0,0,1,1.8-.75,1.67,1.67,0,0,1,.75.15l25.1,6.76a3.56,3.56,0,0,1,.68.08,4.28,4.28,0,0,0,.83.07,5.61,5.61,0,0,0,4.13-1.73,5.81,5.81,0,0,0,1.73-4.28v-21.2a14.32,14.32,0,0,0-1.2-5.86A15.58,15.58,0,0,0,677,368.1a14.76,14.76,0,0,0-10.45-4.29H624a21.89,21.89,0,0,0-9,1.88,24.16,24.16,0,0,0-12.4,12.4,21.8,21.8,0,0,0-1.88,9v27.21a12.89,12.89,0,0,0,2.48,7.67,12.05,12.05,0,0,0,6.69,4.66l24.35,6.46a2.76,2.76,0,0,1,1.43,1.05,2.87,2.87,0,0,1,.53,1.66,2.46,2.46,0,0,1-.76,1.8,2.64,2.64,0,0,1-1.95.75,1.67,1.67,0,0,1-.75-.15q-1.37-.3-5.26-1.42c-2.61-.76-5.34-1.53-8.2-2.34s-5.51-1.5-8-2.1a28.58,28.58,0,0,0-4.59-.9,5.91,5.91,0,0,0-6,6v20.6a14.89,14.89,0,0,0,15,15h42.39a21.92,21.92,0,0,0,9-1.88,24.16,24.16,0,0,0,12.4-12.4,21.92,21.92,0,0,0,1.88-9Z" transform="translate(-110.82 -87.27)"/></svg>