<svg xmlns="http://www.w3.org/2000/svg" viewBox="0 0 136.33 106.94"><defs><style>.cls-1{fill:#c8e1ff;}.cls-2{fill:#eef5ff;}</style></defs><g id="Layer_2" data-name="Layer 2"><g id="Layer_2-2" data-name="Layer 2"><rect class="cls-1" x="115.33" y="45.82" width="21.01" height="25.33" rx="7.37"/><rect class="cls-1" y="45.82" width="21.01" height="25.33" rx="7.37"/><path class="cls-1" d="M126.4,56.89c0,31.41-26,50.05-58,50.05s-58-18.64-58-50S36.33,0,68.37,0,126.4,25.47,126.4,56.89Z"/><path class="cls-1" d="M122.69,54.28c0,30-23.9,47.76-53.39,47.76S15.91,84.25,15.91,54.28,39.81,0,69.3,0,122.69,24.3,122.69,54.28Z"/><path class="cls-2" d="M111,49.54c0,19.51-19.08,31.08-42.61,31.08s-42.6-11.57-42.6-31.08,19.07-35.33,42.6-35.33S111,30,111,49.54Z"/><path class="cls-1" d="M49.84,54.16a6.49,6.49,0,1,1-6.49-6.49A6.5,6.5,0,0,1,49.84,54.16Z"/><circle class="cls-1" cx="93.39" cy="54.16" r="6.49"/><path class="cls-2" d="M106.78,29.14a3.44,3.44,0,0,1-2.12-1.23c-4.61-5.64-8.68-7.63-8.72-7.65A3.46,3.46,0,0,1,98.86,14c.22.11,5.45,2.57,11.15,9.55a3.46,3.46,0,0,1-3.23,5.6Z"/><path class="cls-1" d="M68.17,73.71c-5.33,0-9.5-3-9.5-6.75a1.5,1.5,0,0,1,3,0c0,2,3,3.75,6.5,3.75S74.67,69,74.67,67a1.5,1.5,0,0,1,3,0C77.67,70.74,73.49,73.71,68.17,73.71Z"/></g></g></svg>