<svg xmlns="http://www.w3.org/2000/svg" viewBox="0 0 94 59.27"><defs><style>.cls-1{fill:#85bce6;opacity:0.5;}.cls-2{fill:#88b8d8;opacity:0.25;}</style></defs><g id="Layer_2" data-name="Layer 2"><g id="Layer_1-2" data-name="Layer 1"><path class="cls-1" d="M14,11.23a1.55,1.55,0,1,1-1.55-1.54A1.54,1.54,0,0,1,14,11.23Z"/><path class="cls-1" d="M14,38.41a1.55,1.55,0,1,1-1.55-1.55A1.54,1.54,0,0,1,14,38.41Z"/><path class="cls-1" d="M83.14,11.23a1.55,1.55,0,1,1-1.55-1.54A1.55,1.55,0,0,1,83.14,11.23Z"/><path class="cls-1" d="M83.14,38.41a1.55,1.55,0,1,1-1.55-1.55A1.55,1.55,0,0,1,83.14,38.41Z"/><path class="cls-1" d="M34.35,23.73A4.73,4.73,0,1,1,29.62,19,4.72,4.72,0,0,1,34.35,23.73Z"/><path class="cls-1" d="M12.41,9.69A1.55,1.55,0,1,0,14,11.23,1.55,1.55,0,0,0,12.41,9.69Z"/><path class="cls-1" d="M81.59,36.86a1.55,1.55,0,1,0,1.55,1.55A1.55,1.55,0,0,0,81.59,36.86Z"/><path class="cls-1" d="M12.41,36.86A1.55,1.55,0,1,0,14,38.41,1.56,1.56,0,0,0,12.41,36.86Z"/><path class="cls-1" d="M87.67,0H6.33A6.34,6.34,0,0,0,0,6.33V42.46a6.33,6.33,0,0,0,6.33,6.33H40.44v7.43a3.06,3.06,0,0,0,3.05,3.05H49a3,3,0,0,0,3-3.05V48.79H87.67A6.33,6.33,0,0,0,94,42.46V6.33A6.34,6.34,0,0,0,87.67,0Zm-.26,36.87a6.34,6.34,0,0,1-6.34,6.34H12.93a6.34,6.34,0,0,1-6.34-6.34V11.92a6.33,6.33,0,0,1,6.34-6.33H81.07a6.33,6.33,0,0,1,6.34,6.33Z"/><path class="cls-1" d="M81.59,9.69a1.55,1.55,0,1,0,1.55,1.54A1.54,1.54,0,0,0,81.59,9.69Z"/><path class="cls-2" d="M29.62,16.14a7.59,7.59,0,1,0,7.59,7.59A7.59,7.59,0,0,0,29.62,16.14Zm0,12.31a4.73,4.73,0,1,1,4.73-4.72A4.72,4.72,0,0,1,29.62,28.45Z"/><path class="cls-1" d="M29.62,9.36A14.37,14.37,0,1,0,44,23.73,14.37,14.37,0,0,0,29.62,9.36Zm0,24.63A10.27,10.27,0,1,1,39.88,23.73,10.26,10.26,0,0,1,29.62,34Z"/><path class="cls-2" d="M29.62,13.46A10.27,10.27,0,1,0,39.88,23.73,10.27,10.27,0,0,0,29.62,13.46Zm0,17.86a7.59,7.59,0,1,1,7.59-7.59A7.59,7.59,0,0,1,29.62,31.32Z"/><path class="cls-2" d="M81.07,5.59H12.93a6.33,6.33,0,0,0-6.34,6.33V36.87a6.34,6.34,0,0,0,6.34,6.34H81.07a6.34,6.34,0,0,0,6.34-6.34V11.92A6.33,6.33,0,0,0,81.07,5.59ZM12.41,40A1.55,1.55,0,1,1,14,38.41,1.55,1.55,0,0,1,12.41,40Zm0-27.18A1.55,1.55,0,1,1,14,11.23,1.55,1.55,0,0,1,12.41,12.78ZM29.62,38.1A14.37,14.37,0,1,1,44,23.73,14.37,14.37,0,0,1,29.62,38.1Zm32.65,0A14.37,14.37,0,1,1,76.64,23.73,14.37,14.37,0,0,1,62.27,38.1ZM81.59,40a1.55,1.55,0,1,1,1.55-1.55A1.54,1.54,0,0,1,81.59,40Zm0-27.18a1.55,1.55,0,1,1,1.55-1.55A1.54,1.54,0,0,1,81.59,12.78Z"/><path class="cls-1" d="M67,23.73A4.73,4.73,0,1,1,62.27,19,4.72,4.72,0,0,1,67,23.73Z"/><path class="cls-2" d="M62.27,16.14a7.59,7.59,0,1,0,7.59,7.59A7.59,7.59,0,0,0,62.27,16.14Zm0,12.31A4.73,4.73,0,1,1,67,23.73,4.72,4.72,0,0,1,62.27,28.45Z"/><path class="cls-1" d="M62.27,9.36A14.37,14.37,0,1,0,76.64,23.73,14.37,14.37,0,0,0,62.27,9.36Zm0,24.63A10.27,10.27,0,1,1,72.53,23.73,10.26,10.26,0,0,1,62.27,34Z"/><path class="cls-2" d="M62.27,13.46A10.27,10.27,0,1,0,72.53,23.73,10.27,10.27,0,0,0,62.27,13.46Zm0,17.86a7.59,7.59,0,1,1,7.59-7.59A7.59,7.59,0,0,1,62.27,31.32Z"/></g></g></svg>