<svg xmlns="http://www.w3.org/2000/svg" viewBox="0 0 105.12 82.61"><defs><style>.cls-1{fill:#595a5a;opacity:0.13;}.cls-2{fill:#c4c4c4;opacity:0.14;}</style></defs><g id="Layer_2" data-name="Layer 2"><g id="Layer_1-2" data-name="Layer 1"><path class="cls-1" d="M65.08,18.47a2.4,2.4,0,0,1-1.58-.6,20.26,20.26,0,0,0-6.76-4.25,2.39,2.39,0,0,1-1.62-2.94A2.36,2.36,0,0,1,58,9.05c.17,0,4,1.14,8.63,5.27a2.37,2.37,0,0,1-1.58,4.15Z"/><rect class="cls-1" x="46.09" y="56.92" width="13.76" height="5.07" rx="1.91"/><path class="cls-1" d="M30.66,40a7.59,7.59,0,1,1-7.59-7.59A7.58,7.58,0,0,1,30.66,40Z"/><path class="cls-2" d="M23.07,27.85A12.19,12.19,0,1,0,35.25,40,12.18,12.18,0,0,0,23.07,27.85Zm0,19.77A7.59,7.59,0,1,1,30.66,40,7.58,7.58,0,0,1,23.07,47.62Z"/><path class="cls-1" d="M105.12,40A23.07,23.07,0,0,0,82.05,17a22.3,22.3,0,0,0-3.07.21C73.44,8.48,65.09,1.72,52.56,0h0C40,1.72,31.68,8.48,26.14,17.18A22.3,22.3,0,0,0,23.07,17,23.07,23.07,0,0,0,15.42,61.8c0,2.5,0,4.58.11,6.06H8.8V82.61H96.32V67.86H89.59c.07-1.48.13-3.56.11-6.06A23.08,23.08,0,0,0,105.12,40ZM6.59,40A16.47,16.47,0,0,1,22.67,23.58h0l.4,0c.51,0,1,0,1.52.07l.81.11.61.09c.35.07.71.15,1.06.24l.24.06c.41.11.81.23,1.2.37h0a16.46,16.46,0,0,1-5.44,32,17.19,17.19,0,0,1-1.77-.09h0A16.5,16.5,0,0,1,6.59,40ZM85,70.4H21.35s-.24-2.86-.23-7.38c.64,0,1.29.08,1.95.08a23.06,23.06,0,0,0,8.79-44.39c4.76-6.94,11.57-12.2,21.33-13.64h0A30.44,30.44,0,0,1,74.26,18.32,23.07,23.07,0,0,0,82.05,63.1a24.53,24.53,0,0,0,3.22-.22C85.28,67.48,85,70.4,85,70.4Zm4.43-15.66a16.61,16.61,0,0,1-2,.86l-.1,0-.89.27-.51.13-.78.17a16.46,16.46,0,1,1-5.73-32.42l.62-.1.61-.06c.47,0,.93-.07,1.41-.07h0l.39,0h0a16.46,16.46,0,0,1,7,31.16Z"/><path class="cls-2" d="M23.07,23.56A16.48,16.48,0,1,0,39.55,40,16.48,16.48,0,0,0,23.07,23.56Zm0,28.66A12.19,12.19,0,1,1,35.25,40,12.18,12.18,0,0,1,23.07,52.22Z"/><path class="cls-1" d="M89.64,40a7.59,7.59,0,1,1-7.59-7.59A7.58,7.58,0,0,1,89.64,40Z"/><path class="cls-2" d="M82.05,27.85A12.19,12.19,0,1,0,94.23,40,12.18,12.18,0,0,0,82.05,27.85Zm0,19.77A7.59,7.59,0,1,1,89.64,40,7.58,7.58,0,0,1,82.05,47.62Z"/><path class="cls-2" d="M82.05,23.56A16.48,16.48,0,1,0,98.53,40,16.48,16.48,0,0,0,82.05,23.56Zm0,28.66A12.19,12.19,0,1,1,94.23,40,12.18,12.18,0,0,1,82.05,52.22Z"/><path class="cls-2" d="M59,40A23.07,23.07,0,0,1,74.26,18.32,30.42,30.42,0,0,0,53.19,5.07h0c-9.77,1.45-16.61,6.71-21.37,13.67a23,23,0,0,1-8.75,44.32q-1,0-1.95-.09c0,4.55.23,7.43.23,7.43H85s.25-2.92.24-7.52a24.41,24.41,0,0,1-3.22.22A23.06,23.06,0,0,1,59,40ZM55.12,10.68A2.36,2.36,0,0,1,58,9.05c.17,0,4,1.14,8.63,5.27a2.37,2.37,0,0,1-1.58,4.15,2.4,2.4,0,0,1-1.58-.6,20.26,20.26,0,0,0-6.76-4.25A2.39,2.39,0,0,1,55.12,10.68Zm4.73,49.4A1.92,1.92,0,0,1,57.94,62H48a1.92,1.92,0,0,1-1.92-1.91V58.83A1.92,1.92,0,0,1,48,56.92h9.93a1.92,1.92,0,0,1,1.91,1.91Z"/></g></g></svg>