<svg xmlns="http://www.w3.org/2000/svg" viewBox="0 0 94 59.27"><defs><style>.cls-1{fill:#c8e1ff;}.cls-2{fill:#eef5ff;}.cls-3{fill:#fbfafe;}</style></defs><g id="Layer_2" data-name="Layer 2"><g id="Layer_2-2" data-name="Layer 2"><rect class="cls-1" width="94" height="48.79" rx="6.33"/><rect class="cls-2" x="6.59" y="5.59" width="80.81" height="37.62" rx="6.33"/><path class="cls-1" d="M14,11.23a1.55,1.55,0,1,1-1.55-1.54A1.54,1.54,0,0,1,14,11.23Z"/><path class="cls-1" d="M14,38.41a1.55,1.55,0,1,1-1.55-1.55A1.54,1.54,0,0,1,14,38.41Z"/><path class="cls-1" d="M83.14,11.23a1.55,1.55,0,1,1-1.55-1.54A1.55,1.55,0,0,1,83.14,11.23Z"/><path class="cls-1" d="M83.14,38.41a1.55,1.55,0,1,1-1.55-1.55A1.55,1.55,0,0,1,83.14,38.41Z"/><circle class="cls-1" cx="29.62" cy="23.73" r="14.37" transform="translate(-8.1 27.89) rotate(-45)"/><circle class="cls-2" cx="29.62" cy="23.73" r="10.26" transform="translate(-8.1 27.89) rotate(-45)"/><circle class="cls-3" cx="29.62" cy="23.73" r="7.59" transform="translate(-8.24 26.4) rotate(-42.74)"/><path class="cls-1" d="M34.35,23.73A4.73,4.73,0,1,1,29.62,19,4.72,4.72,0,0,1,34.35,23.73Z"/><circle class="cls-1" cx="62.27" cy="23.73" r="14.37" transform="translate(24.95 78.93) rotate(-76.8)"/><circle class="cls-2" cx="62.27" cy="23.73" r="10.26" transform="translate(24.93 78.92) rotate(-76.78)"/><circle class="cls-3" cx="62.27" cy="23.73" r="7.59" transform="translate(28.89 81.4) rotate(-80.8)"/><path class="cls-1" d="M67,23.73A4.73,4.73,0,1,1,62.27,19,4.72,4.72,0,0,1,67,23.73Z"/><rect class="cls-1" x="40.44" y="44.21" width="11.56" height="15.06" rx="3.05"/></g></g></svg>