<svg xmlns="http://www.w3.org/2000/svg" viewBox="0 0 105.12 82.61"><defs><style>.cls-1{fill:#c8e1ff;}.cls-2{fill:#eef5ff;}.cls-3{fill:#fbfafe;}.cls-4{fill:#fcf4fb;}</style></defs><g id="Layer_2" data-name="Layer 2"><g id="Layer_2-2" data-name="Layer 2"><path class="cls-1" d="M89.44,70.4S95.3,5.87,52.56,0h0C9.82,5.87,15.68,70.4,15.68,70.4Z"/><path class="cls-2" d="M85,70.4S90.1,10.52,53.19,5.07h0C16.29,10.52,21.35,70.4,21.35,70.4Z"/><circle class="cls-1" cx="23.07" cy="40.04" r="23.07"/><circle class="cls-1" cx="23.07" cy="40.04" r="19.26"/><circle class="cls-3" cx="23.07" cy="40.04" r="15.93" transform="translate(-21.17 53.36) rotate(-76.81)"/><circle class="cls-1" cx="23.07" cy="40.04" r="9.51"/><circle class="cls-1" cx="82.05" cy="40.04" r="23.07"/><circle class="cls-1" cx="82.05" cy="40.04" r="18.79" transform="translate(23.71 110.26) rotate(-76.29)"/><circle class="cls-3" cx="82.05" cy="40.04" r="15.93" transform="matrix(0.24, -0.97, 0.97, 0.24, 23.69, 110.25)"/><circle class="cls-1" cx="82.05" cy="40.04" r="9.51"/><rect class="cls-1" x="8.8" y="67.86" width="87.52" height="14.75"/><path class="cls-4" d="M65.08,18.47a2.4,2.4,0,0,1-1.58-.6,20.26,20.26,0,0,0-6.76-4.25,2.39,2.39,0,0,1-1.62-2.94A2.36,2.36,0,0,1,58,9.05c.17,0,4,1.14,8.63,5.27a2.37,2.37,0,0,1-1.58,4.15Z"/><rect class="cls-3" x="46.09" y="56.92" width="13.76" height="5.07" rx="1.91"/></g></g></svg>