<svg xmlns="http://www.w3.org/2000/svg" viewBox="0 0 110.33 143"><defs><style>.cls-1{fill:#c8e1ff;}.cls-2{fill:#eef5ff;}</style></defs><g id="Layer_2" data-name="Layer 2"><g id="Layer_2-2" data-name="Layer 2"><path class="cls-1" d="M72,124.65v6.26a4.57,4.57,0,0,1-.84,2.65,4.61,4.61,0,0,1-3.82,2H42.4a4.67,4.67,0,0,1-4.66-4.66v-6.26A4.68,4.68,0,0,1,42.4,120H67.35a4.53,4.53,0,0,1,2.5.74A4.64,4.64,0,0,1,72,124.65Z"/><path class="cls-1" d="M81.8,143H27.2l.83-.49.36-.2.74-.41a.06.06,0,0,1,0,0c.44-.23.87-.49,1.3-.76a31.2,31.2,0,0,0,3.69-2.57A34.15,34.15,0,0,0,38.9,134a33.24,33.24,0,0,0,3.46-4.84h25.7a35.17,35.17,0,0,0,8.17,9.42C76.62,138.88,81.4,142.72,81.8,143Z"/><path class="cls-1" d="M110.33,59.18c0,22.56-11.77,42.17-29.1,52.15a52.14,52.14,0,0,1-17.41,6.29,50,50,0,0,1-7.26.71l-1.39,0h0a51.83,51.83,0,0,1-26-7C11.78,101.37,0,81.75,0,59.18,0,27.32,23.46,1.34,52.87.06H53l.86,0,1.29,0h0L56.5,0h.09l.92,0h0l.44,0,.52,0C87.41,2,110.33,27.7,110.33,59.18Z"/><path class="cls-2" d="M97,41.86V73.12c0,.45,0,.91,0,1.36s0,.73,0,1.1,0,.66-.06,1,0,.47-.05.7,0,.28,0,.43,0,.52-.08.78c0,.49-.11,1-.18,1.47,0,.12,0,.24,0,.37s-.07.49-.11.74v0c-.06.36-.13.71-.19,1.07s-.18,1-.29,1.47c0,0,0,0,0,.06a2.07,2.07,0,0,1,0,.22s0,0,0,.06c0,.27-.11.52-.17.78a2.09,2.09,0,0,1-.08.34c0,.18-.09.37-.13.55a3,3,0,0,1-.09.32c0,.09,0,.19-.07.27-.22.84-.47,1.67-.72,2.49l-.38,1.16s0,.08,0,.12c-.13.35-.25.7-.37,1,0,.1-.09.21-.13.32-.12.33-.24.66-.38,1s-.32.79-.48,1.18-.3.7-.45,1a1.3,1.3,0,0,1-.08.17c-.17.37-.33.74-.51,1.1s-.36.76-.55,1.14c-.37.75-.78,1.51-1.18,2.24l-.55,1a59.75,59.75,0,0,1-5.26,7.65c-.25.34-.52.67-.8,1s-.77.91-1.16,1.36-.67.75-1,1.11l0,0c-1,1.06-2,2.06-3,3-.21.21-.42.39-.64.59s-.7.62-1.06.92-.56.48-.85.72c-.74.61-1.48,1.19-2.23,1.74-.31.24-.63.46-1,.68-.51.37-1,.72-1.56,1.06-.29.19-.59.38-.88.55l-.15.08c-1,.62-2,1.19-3,1.68l-.77.38-.8.37c-.34.15-.68.3-1,.43a4.16,4.16,0,0,1-.4.16c-.4.16-.82.31-1.22.45s-1,.34-1.52.48c-.35.1-.71.2-1.06.28L60,125l-1,.23-.27.05c-.29,0-.58.1-.87.13s-.82.11-1.23.13a2.06,2.06,0,0,1-.42,0l-1,0h0q-.48,0-1,0a1.61,1.61,0,0,1-.37,0c-.29,0-.58,0-.89-.08l-.2,0-1.15-.18c-.33,0-.66-.13-1-.21a29.78,29.78,0,0,1-5.39-1.82,38.36,38.36,0,0,1-4.72-2.49l-.27-.16c-.7-.43-1.41-.9-2.1-1.38l-1.17-.84c-1.22-.9-2.44-1.87-3.63-2.92l-1-.91c-.33-.29-.65-.6-1-.9-.76-.73-1.5-1.48-2.21-2.27L29,111.2c-.3-.32-.59-.64-.89-1-.82-.93-1.63-1.89-2.39-2.88-.3-.36-.57-.73-.85-1.1-1-1.38-2-2.82-2.95-4.31-.25-.4-.49-.81-.73-1.21s-.57-1-.84-1.47a55.69,55.69,0,0,1-2.8-5.76c-.12-.29-.25-.58-.35-.87s-.31-.75-.44-1.12c-.21-.54-.4-1.09-.59-1.63s-.36-1.1-.53-1.66-.32-1.07-.47-1.61-.31-1.16-.45-1.76c0-.06,0-.12,0-.18-.19-.83-.37-1.66-.52-2.5-.21-1.11-.37-2.24-.5-3.38-.05-.36-.08-.72-.11-1.08s-.07-.75-.09-1.13c0-.69-.08-1.39-.11-2.09,0-.45,0-.91,0-1.36V41.86A41.86,41.86,0,0,1,52.87.06H53l.86,0,1.29,0h0L56.5,0h.09l.92,0h0l.44,0,.91.07.45,0,.3,0a41.59,41.59,0,0,1,22,9.22A41,41,0,0,1,88.11,16,41.56,41.56,0,0,1,97,41.49,2.23,2.23,0,0,1,97,41.86Z"/><path class="cls-1" d="M106.36,57.35H4C4,26.54,25.66,1.41,52.87.06H53l.86,0,1.29,0h0L56.5,0h.09l.92,0h0l.44,0,.52,0,.39,0,.45,0,.3,0C85.82,2.77,106.36,27.37,106.36,57.35Z"/><path class="cls-1" d="M90.39,64.59a.33.33,0,0,0-.29-.33,108.23,108.23,0,0,0-14.62-1.09c-7.77,0-17.8,2.44-19.54,2.44H54.38c-.81,0-3.42-.53-6.76-1.09a81.19,81.19,0,0,0-12.77-1.35,107.8,107.8,0,0,0-12.5.81c-1,.12-1.74.22-2.12.28a.33.33,0,0,0-.3.33l-.08,4.18a.38.38,0,0,0,.23.34l.47.16c.7.27.64,12.84,4.39,16,2.23,1.85,4.21,2.91,12.56,2.91,4.84,0,7.89-1.31,10.78-5.2,2.08-2.8,3.92-9.42,3.92-9.42.57-2.73,2.6-2.94,2.92-3h.05c.06,0,2.35,0,2.95,3,0,0,1.85,6.62,3.92,9.42,2.89,3.89,5.94,5.2,10.78,5.2,8.35,0,10.33-1.06,12.56-2.91,3.75-3.15,3.69-15.72,4.39-16l.48-.16a.39.39,0,0,0,.22-.34Z"/></g></g></svg>