<svg xmlns="http://www.w3.org/2000/svg" xmlns:xlink="http://www.w3.org/1999/xlink" viewBox="0 0 110.33 164.17"><defs><style>.cls-1{fill:none;}.cls-2{clip-path:url(#clip-path);}.cls-3{fill:#57b6b2;}.cls-4{fill:#c8e1ff;}.cls-5{fill:#eef5ff;}</style><clipPath id="clip-path" transform="translate(-10.62 -8.51)"><rect id="SVGID" class="cls-1" width="131.63" height="152.67"/></clipPath></defs><g id="Layer_2" data-name="Layer 2"><g id="Layer_2-2" data-name="Layer 2"><g class="cls-2"><path class="cls-3" d="M104.29,159.72c-.92-.91-1.86-1.79-2.85-2.64s-2-1.66-3-2.43h0a0,0,0,0,1,0,0c-.81-.62-1.65-1.22-2.5-1.76-.41-.3-.83-.57-1.25-.83-.88-.54-1.77-1.06-2.68-1.57a.51.51,0,0,0-.18-.09c-.43-.24-.87-.49-1.29-.75s-.76-.47-1.13-.72a1.7,1.7,0,0,1-.23-.17c-.38-.24-.75-.5-1.11-.77s-.79-.59-1.18-.91a34.17,34.17,0,0,1-5.06-5,33.09,33.09,0,0,1-3.1-4.42,33.63,33.63,0,0,1-2.8-6A30.43,30.43,0,0,1,75,128.5c-.21-.78-.38-1.57-.52-2.37a34.72,34.72,0,0,1-.51-6l-6.75,0H65.75l-8,0a34.92,34.92,0,0,1-.54,6.09q-.21,1.19-.51,2.34c-.27,1.1-.6,2.17-1,3.22a34.68,34.68,0,0,1-6.26,10.76,34.2,34.2,0,0,1-4.74,4.58,32.43,32.43,0,0,1-3.69,2.57c-.43.27-.86.52-1.31.76a.06.06,0,0,0,0,0l-.74.41-.36.2-.82.49-1.41.86c-1.09.7-2.14,1.42-3.17,2.19a54.86,54.86,0,0,0-5.9,5.08l-1.09,1.11c-.36.38-.72.76-1.05,1.15-.69.77-1.36,1.56-2,2.37a55,55,0,0,0-5.53,8.41h96.26A54.44,54.44,0,0,0,104.29,159.72Z" transform="translate(-10.62 -8.51)"/><path class="cls-4" d="M82.63,133.16v6.26a4.5,4.5,0,0,1-.85,2.65,4.62,4.62,0,0,1-3.81,2H53a4.69,4.69,0,0,1-4.66-4.66v-6.26a4.64,4.64,0,0,1,2.44-4.09A4.58,4.58,0,0,1,53,128.5H78a4.53,4.53,0,0,1,2.5.74A4.64,4.64,0,0,1,82.63,133.16Z" transform="translate(-10.62 -8.51)"/><path class="cls-4" d="M88,148v13.66H37.82V151.51l.82-.49.36-.2.74-.41a.06.06,0,0,1,0,0c.45-.24.88-.49,1.31-.76a32.43,32.43,0,0,0,3.69-2.57,34.2,34.2,0,0,0,4.74-4.58A33.14,33.14,0,0,0,53,137.65h25.7a33.09,33.09,0,0,0,3.1,4.42,34.17,34.17,0,0,0,5.06,5C87.23,147.39,87.62,147.7,88,148Z" transform="translate(-10.62 -8.51)"/><path class="cls-4" d="M121,67.69c0,22.55-11.78,42.17-29.1,52.14a52.07,52.07,0,0,1-17.42,6.3,49.73,49.73,0,0,1-7.26.7c-.46,0-.92,0-1.38,0h0a51.74,51.74,0,0,1-26.06-7c-17.32-10-29.1-29.59-29.1-52.15,0-31.87,23.46-57.85,52.86-59.12h.12l.86,0,1.29,0h0l1.32,0h.1l.92,0h0l.43,0,.53,0C98,10.49,121,36.2,121,67.69Z" transform="translate(-10.62 -8.51)"/><path class="cls-5" d="M107.64,50.36V81.63c0,.45,0,.9,0,1.35s0,.73,0,1.1,0,.66-.06,1,0,.47,0,.71,0,.28,0,.42-.05.53-.09.78c0,.5-.1,1-.17,1.47,0,.13,0,.25,0,.37s-.07.5-.12.74v0l-.18,1.06c-.09.5-.19,1-.29,1.48,0,0,0,0,0,.06a1.55,1.55,0,0,1,0,.21s0,0,0,.06c0,.27-.11.53-.18.79a2,2,0,0,1-.08.33c0,.19-.08.38-.12.56s0,.22-.09.32-.06.18-.08.27c-.21.84-.46,1.66-.72,2.48-.12.39-.24.78-.38,1.17,0,0,0,.08,0,.12-.12.35-.24.7-.37,1,0,.1-.08.2-.12.32-.12.33-.25.65-.38,1l-.48,1.19c-.15.35-.3.7-.46,1,0,.07,0,.12-.07.18l-.51,1.1c-.18.38-.36.76-.56,1.14-.37.75-.77,1.5-1.17,2.23l-.56,1a61.12,61.12,0,0,1-5.25,7.65c-.26.34-.52.67-.8,1s-.77.91-1.16,1.35-.67.75-1,1.11l0,0q-1.49,1.59-3,3l-.64.58c-.35.32-.7.63-1.06.93l-.85.72c-.74.6-1.48,1.19-2.23,1.74-.31.23-.63.46-1,.67-.52.37-1,.72-1.56,1.06-.29.2-.59.38-.89.56l-.14.08c-1,.62-2,1.18-3,1.68l-.78.38-.8.37-1,.43a2.74,2.74,0,0,1-.4.15c-.4.17-.81.32-1.21.46s-1,.33-1.52.48l-1.06.28-.07,0c-.35.08-.7.16-1,.22l-.28,0a8.55,8.55,0,0,1-.86.14c-.41.06-.82.11-1.24.13a2.86,2.86,0,0,1-.42,0l-1,0h0q-.48,0-1,0a2.31,2.31,0,0,1-.37,0c-.29,0-.59,0-.9-.08l-.19,0c-.38-.05-.76-.11-1.15-.19s-.66-.12-1-.2a29.61,29.61,0,0,1-5.4-1.82,39.86,39.86,0,0,1-4.72-2.49l-.26-.16c-.7-.44-1.41-.9-2.1-1.38l-1.17-.85c-1.23-.89-2.44-1.87-3.63-2.92l-1-.9-1-.9c-.76-.73-1.5-1.49-2.21-2.28l-.13-.13c-.3-.32-.6-.65-.89-1-.83-.92-1.63-1.88-2.39-2.88-.3-.36-.58-.73-.85-1.1-1-1.37-2-2.81-3-4.3-.25-.41-.5-.82-.73-1.22s-.57-1-.85-1.47A54.66,54.66,0,0,1,28.14,102a9.11,9.11,0,0,1-.35-.86c-.17-.37-.31-.75-.45-1.12-.2-.54-.4-1.09-.58-1.63s-.36-1.1-.54-1.66-.31-1.07-.46-1.61-.32-1.17-.45-1.76c0-.06,0-.13,0-.19-.2-.82-.37-1.65-.53-2.5-.2-1.11-.37-2.24-.49-3.38-.05-.36-.08-.72-.11-1.08s-.08-.75-.1-1.13c-.05-.69-.08-1.39-.1-2.09,0-.45,0-.9,0-1.35V50.36A41.86,41.86,0,0,1,63.48,8.57h.12l.86,0,1.29,0h0l1.32,0h.1l.92,0h0l.43,0,.92.07.45,0,.3,0a46.64,46.64,0,0,1,4.8.79A42.05,42.05,0,0,1,92.28,18a41,41,0,0,1,6.45,6.58A41.56,41.56,0,0,1,107.63,50C107.64,50.12,107.64,50.24,107.64,50.36Z" transform="translate(-10.62 -8.51)"/><path class="cls-4" d="M117,65.86H14.6C14.6,35,36.28,9.92,63.48,8.57h.12l.86,0,1.29,0h0l1.32,0h.1l.92,0h0l.43,0,.53,0,.39,0,.45,0,.3,0C96.44,11.27,117,35.88,117,65.86Z" transform="translate(-10.62 -8.51)"/><path class="cls-4" d="M104.29,159.72c-.92-.91-1.86-1.79-2.85-2.64s-2-1.66-3-2.44h0c-.81-.62-1.65-1.22-2.5-1.76-.41-.3-.83-.57-1.25-.83-.88-.55-1.77-1.07-2.68-1.58a1,1,0,0,0-.18-.09c-.43-.24-.87-.48-1.29-.74s-.76-.47-1.13-.72a1.7,1.7,0,0,1-.23-.17,26.87,26.87,0,0,1-2.28-1.69h0a29.32,29.32,0,0,1-19.67,8.8c-.44,0-.89,0-1.34,0h-.08a29.31,29.31,0,0,1-21-8.85l0,0a31.85,31.85,0,0,1-3.67,2.59c-.43.26-.86.5-1.31.75h0a0,0,0,0,0,0,0l-.74.42-.36.2-.82.49-1.41.86c-1.09.7-2.14,1.42-3.17,2.19a54.86,54.86,0,0,0-5.9,5.08l-1.09,1.11c-.36.38-.72.76-1.05,1.15-.69.77-1.36,1.56-2,2.37a55,55,0,0,0-5.53,8.41h96.26A54.44,54.44,0,0,0,104.29,159.72Z" transform="translate(-10.62 -8.51)"/><path class="cls-4" d="M101,73.1a.34.34,0,0,0-.29-.33A106.5,106.5,0,0,0,86.1,71.68c-7.77,0-17.8,2.44-19.55,2.44H65c-.81,0-3.42-.54-6.76-1.09a81.19,81.19,0,0,0-12.77-1.35,108.56,108.56,0,0,0-12.51.8l-2.11.29a.33.33,0,0,0-.3.33l-.08,4.17a.36.36,0,0,0,.22.34l.47.17c.7.26.64,12.84,4.39,16,2.24,1.85,4.22,2.9,12.57,2.9,4.84,0,7.88-1.3,10.77-5.2,2.09-2.79,3.93-9.42,3.93-9.42.57-2.72,2.59-2.94,2.92-3h0c.06,0,2.36,0,3,3,0,0,1.85,6.63,3.93,9.42,2.89,3.9,5.93,5.2,10.78,5.2,8.34,0,10.33-1,12.56-2.9,3.75-3.15,3.69-15.73,4.39-16l.47-.17a.36.36,0,0,0,.23-.34Z" transform="translate(-10.62 -8.51)"/></g></g></g></svg>