<svg xmlns="http://www.w3.org/2000/svg" viewBox="0 0 160.86 143"><defs><style>.cls-1{fill:#c8e1ff;}.cls-2{fill:#eef5ff;}.cls-3{fill:none;}</style></defs><g id="Layer_2" data-name="Layer 2"><g id="Layer_2-2" data-name="Layer 2"><path class="cls-1" d="M96.9,124.65v6.26a4.5,4.5,0,0,1-.84,2.65,4.6,4.6,0,0,1-3.81,2h-25A4.62,4.62,0,0,1,63.8,134a4.67,4.67,0,0,1-1.16-3.07v-6.26A4.66,4.66,0,0,1,67.29,120h25a4.56,4.56,0,0,1,2.5.74A4.65,4.65,0,0,1,96.9,124.65Z"/><path class="cls-1" d="M106.7,143H52.1l.82-.49a3.24,3.24,0,0,0,.36-.2l.74-.41a.06.06,0,0,1,0,0c.44-.23.88-.49,1.31-.76a32,32,0,0,0,3.69-2.57A34.71,34.71,0,0,0,63.8,134a33.17,33.17,0,0,0,3.45-4.84H93a31.85,31.85,0,0,0,3.1,4.42,33.23,33.23,0,0,0,5.06,5C101.51,138.88,106.3,142.72,106.7,143Z"/><path class="cls-1" d="M135.22,59.18c0,22.56-11.77,42.17-29.09,52.15a52.27,52.27,0,0,1-17.42,6.29,49.74,49.74,0,0,1-7.26.71l-1.39,0h0a51.83,51.83,0,0,1-26-7c-17.32-10-29.11-29.59-29.11-52.16C24.89,27.32,48.36,1.34,77.76.06h.11l.87,0L80,0h0l1.33,0h.09l.93,0h0l.43,0,.52,0C112.31,2,135.22,27.7,135.22,59.18Z"/><path class="cls-2" d="M121.92,41.86V73.12c0,.45,0,.91,0,1.36s0,.73,0,1.1,0,.66-.06,1,0,.47-.06.7,0,.28,0,.43,0,.52-.08.78c0,.49-.1,1-.17,1.47a2.58,2.58,0,0,1-.06.37c0,.24-.07.49-.11.74v0l-.18,1.07c-.1.49-.19,1-.29,1.47,0,0,0,0,0,.06a2.07,2.07,0,0,1,0,.22s0,0,0,.06l-.18.78a2.09,2.09,0,0,1-.08.34c0,.18-.08.37-.12.55a3,3,0,0,1-.1.32c0,.09,0,.19-.07.27-.21.84-.46,1.67-.72,2.49-.12.39-.25.77-.38,1.16,0,0,0,.08,0,.12l-.37,1-.12.32-.38,1c-.16.4-.32.79-.49,1.18s-.3.7-.45,1c0,.06,0,.11-.07.17-.18.37-.34.74-.52,1.1s-.36.76-.55,1.14c-.37.75-.77,1.51-1.17,2.24l-.56,1a59.69,59.69,0,0,1-5.25,7.65c-.26.34-.53.67-.8,1s-.77.91-1.17,1.36-.66.75-1,1.11l0,0q-1.49,1.59-3,3c-.2.21-.42.39-.63.59s-.7.62-1.06.92-.57.48-.86.72c-.74.61-1.48,1.19-2.23,1.74-.31.24-.63.46-.94.68-.52.37-1,.72-1.57,1.06-.28.19-.58.38-.88.55l-.14.08c-1,.62-2,1.19-3,1.68l-.77.38-.8.37c-.34.15-.68.3-1,.43a3.33,3.33,0,0,1-.4.16c-.4.16-.81.31-1.21.45s-1,.34-1.52.48-.71.2-1.06.28l-.07,0-1,.23-.28.05c-.29,0-.58.1-.86.13s-.83.11-1.24.13a2,2,0,0,1-.42,0l-1,0h0c-.32,0-.64,0-1,0a1.5,1.5,0,0,1-.37,0c-.29,0-.59,0-.9-.08l-.19,0-1.16-.18c-.32,0-.65-.13-1-.21a29.61,29.61,0,0,1-5.4-1.82,39.1,39.1,0,0,1-4.72-2.49l-.27-.16c-.7-.43-1.41-.9-2.09-1.38-.39-.28-.79-.55-1.18-.84Q60,117,58.17,115.42l-1-.91c-.33-.29-.66-.6-1-.9-.76-.73-1.5-1.48-2.21-2.27a1.66,1.66,0,0,1-.13-.14c-.3-.32-.6-.64-.9-1-.82-.93-1.62-1.89-2.38-2.88-.3-.36-.58-.73-.86-1.1-1-1.38-2-2.82-2.95-4.31l-.73-1.21-.84-1.47a57.8,57.8,0,0,1-2.8-5.76c-.12-.29-.24-.58-.35-.87s-.3-.75-.44-1.12c-.2-.54-.4-1.09-.58-1.63s-.36-1.1-.54-1.66-.32-1.07-.46-1.61-.32-1.16-.45-1.76a1.21,1.21,0,0,0-.05-.18c-.19-.83-.37-1.66-.52-2.5-.21-1.11-.37-2.24-.49-3.38q-.08-.54-.12-1.08c0-.38-.07-.75-.09-1.13,0-.69-.08-1.39-.1-2.09,0-.45,0-.91,0-1.36V41.86A41.86,41.86,0,0,1,77.76.06h.11l.87,0L80,0h0l1.33,0h.09l.93,0h0l.43,0,.92.07.45,0,.3,0a42.14,42.14,0,0,1,4.8.79,41.89,41.89,0,0,1,32.57,40.46C121.92,41.61,121.92,41.73,121.92,41.86Z"/><path class="cls-1" d="M131.25,57.35H28.87C28.87,26.54,50.56,1.41,77.76.06h.11l.87,0L80,0h0l1.33,0h.09l.93,0h0l.43,0,.52,0,.4,0,.45,0,.3,0C110.71,2.77,131.25,27.37,131.25,57.35Z"/><path class="cls-1" d="M115.28,64.59a.33.33,0,0,0-.28-.33,108.44,108.44,0,0,0-14.63-1.09c-7.77,0-17.79,2.44-19.54,2.44H79.28c-.81,0-3.43-.53-6.77-1.09a80.94,80.94,0,0,0-12.77-1.35,108.13,108.13,0,0,0-12.5.81c-1,.12-1.74.22-2.12.28a.34.34,0,0,0-.3.33l-.08,4.18a.4.4,0,0,0,.23.34l.47.16c.7.27.64,12.84,4.39,16,2.23,1.85,4.22,2.91,12.57,2.91,4.84,0,7.88-1.31,10.77-5.2,2.09-2.8,3.93-9.42,3.93-9.42.56-2.73,2.59-2.94,2.92-3h0c.06,0,2.35,0,3,3,0,0,1.85,6.62,3.93,9.42,2.89,3.89,5.93,5.2,10.77,5.2,8.35,0,10.33-1.06,12.57-2.91,3.75-3.15,3.69-15.72,4.39-16l.47-.16a.4.4,0,0,0,.23-.34Z"/><rect class="cls-3" y="48.84" width="160.86" height="14.33"/></g></g></svg>