<svg xmlns="http://www.w3.org/2000/svg" viewBox="0 0 90.89 128.7"><defs><style>.cls-1{fill:#c8e1ff;}.cls-2{fill:#eef5ff;}.cls-3{fill:#0b509c;}.cls-4{fill:#e52027;}</style></defs><g id="Layer_2" data-name="Layer 2"><g id="Layer_2-2" data-name="Layer 2"><rect class="cls-1" width="90.89" height="128.7" rx="4.15"/><rect class="cls-2" x="1.99" y="1.62" width="86.9" height="125.35" rx="4.15"/><path class="cls-3" d="M80.36,105.37H71.12a3.4,3.4,0,0,0-3.4,3.39v5.95a3.4,3.4,0,0,0,3.4,3.4h9.24a3.4,3.4,0,0,0,3.4-3.4v-5.95A3.4,3.4,0,0,0,80.36,105.37Zm.33,9.38a.33.33,0,0,1-.33.33h-9a.33.33,0,0,1-.33-.33v-5.92a.33.33,0,0,1,.33-.33h9a.33.33,0,0,1,.33.33Z"/><path class="cls-4" d="M75.34,96.52h.8a7.14,7.14,0,0,1,7.14,7.14v0a.75.75,0,0,1-.75.75H68.95a.75.75,0,0,1-.75-.75v0A7.14,7.14,0,0,1,75.34,96.52Z"/><path class="cls-3" d="M80.36,57.93H71.12a3.4,3.4,0,0,0-3.4,3.39v5.95a3.4,3.4,0,0,0,3.4,3.4h9.24a3.4,3.4,0,0,0,3.4-3.4V61.32A3.4,3.4,0,0,0,80.36,57.93Zm.33,9.38a.33.33,0,0,1-.33.33h-9a.33.33,0,0,1-.33-.33V61.39a.33.33,0,0,1,.33-.33h9a.33.33,0,0,1,.33.33Z"/><path class="cls-4" d="M75.34,49.08h.8a7.14,7.14,0,0,1,7.14,7.14v0a.75.75,0,0,1-.75.75H68.95a.75.75,0,0,1-.75-.75v0a7.14,7.14,0,0,1,7.14-7.14Z"/><path class="cls-3" d="M83.76,81.93V76a3.4,3.4,0,0,0-3.4-3.4H71.12a3.4,3.4,0,0,0-3.4,3.4v6a3.39,3.39,0,0,0,3.4,3.39h9.24A3.39,3.39,0,0,0,83.76,81.93Zm-3.07-.07a.33.33,0,0,1-.33.33h-9a.33.33,0,0,1-.33-.33V75.94a.33.33,0,0,1,.33-.33h9a.33.33,0,0,1,.33.33Z"/><path class="cls-4" d="M68.95,86.28H82.53a.75.75,0,0,1,.75.75v0a7.14,7.14,0,0,1-7.14,7.14h-.8A7.14,7.14,0,0,1,68.2,87v0A.75.75,0,0,1,68.95,86.28Z"/><path class="cls-3" d="M83.76,34.49v-6a3.4,3.4,0,0,0-3.4-3.4H71.12a3.4,3.4,0,0,0-3.4,3.4v6a3.4,3.4,0,0,0,3.4,3.39h9.24A3.4,3.4,0,0,0,83.76,34.49Zm-3.07-.07a.33.33,0,0,1-.33.33h-9a.33.33,0,0,1-.33-.33V28.5a.33.33,0,0,1,.33-.33h9a.33.33,0,0,1,.33.33Z"/><path class="cls-4" d="M68.95,38.84H82.53a.75.75,0,0,1,.75.75v0a7.14,7.14,0,0,1-7.14,7.14h-.8a7.14,7.14,0,0,1-7.14-7.14v0A.75.75,0,0,1,68.95,38.84Z"/><path class="cls-3" d="M80.36,10.49H71.12a3.4,3.4,0,0,0-3.4,3.39v5.95a3.4,3.4,0,0,0,3.4,3.4h9.24a3.4,3.4,0,0,0,3.4-3.4V13.88A3.4,3.4,0,0,0,80.36,10.49Zm.33,9.38a.33.33,0,0,1-.33.33h-9a.33.33,0,0,1-.33-.33V14a.33.33,0,0,1,.33-.33h9a.33.33,0,0,1,.33.33Z"/><path class="cls-3" d="M39.7,105.37H30.45a3.39,3.39,0,0,0-3.39,3.39v5.95a3.4,3.4,0,0,0,3.39,3.4H39.7a3.4,3.4,0,0,0,3.39-3.4v-5.95A3.39,3.39,0,0,0,39.7,105.37Zm.33,9.38a.33.33,0,0,1-.33.33h-9a.33.33,0,0,1-.33-.33v-5.92a.33.33,0,0,1,.33-.33h9a.33.33,0,0,1,.33.33Z"/><path class="cls-4" d="M34.68,96.52h.8a7.14,7.14,0,0,1,7.14,7.14v0a.75.75,0,0,1-.75.75H28.29a.75.75,0,0,1-.75-.75v0a7.14,7.14,0,0,1,7.14-7.14Z"/><path class="cls-3" d="M39.7,57.93H30.45a3.39,3.39,0,0,0-3.39,3.39v5.95a3.4,3.4,0,0,0,3.39,3.4H39.7a3.4,3.4,0,0,0,3.39-3.4V61.32A3.39,3.39,0,0,0,39.7,57.93ZM40,67.31a.33.33,0,0,1-.33.33h-9a.33.33,0,0,1-.33-.33V61.39a.33.33,0,0,1,.33-.33h9a.33.33,0,0,1,.33.33Z"/><path class="cls-4" d="M34.68,49.08h.8a7.14,7.14,0,0,1,7.14,7.14v0a.75.75,0,0,1-.75.75H28.29a.75.75,0,0,1-.75-.75v0A7.14,7.14,0,0,1,34.68,49.08Z"/><path class="cls-3" d="M43.09,81.93V76a3.4,3.4,0,0,0-3.39-3.4H30.45A3.4,3.4,0,0,0,27.06,76v6a3.39,3.39,0,0,0,3.39,3.39H39.7A3.39,3.39,0,0,0,43.09,81.93ZM40,81.86a.33.33,0,0,1-.33.33h-9a.33.33,0,0,1-.33-.33V75.94a.33.33,0,0,1,.33-.33h9a.33.33,0,0,1,.33.33Z"/><path class="cls-4" d="M28.29,86.28H41.87a.75.75,0,0,1,.75.75v0a7.14,7.14,0,0,1-7.14,7.14h-.8A7.14,7.14,0,0,1,27.54,87v0A.75.75,0,0,1,28.29,86.28Z"/><path class="cls-3" d="M43.09,34.49v-6a3.4,3.4,0,0,0-3.39-3.4H30.45a3.4,3.4,0,0,0-3.39,3.4v6a3.39,3.39,0,0,0,3.39,3.39H39.7A3.39,3.39,0,0,0,43.09,34.49ZM40,34.42a.33.33,0,0,1-.33.33h-9a.33.33,0,0,1-.33-.33V28.5a.33.33,0,0,1,.33-.33h9a.33.33,0,0,1,.33.33Z"/><path class="cls-4" d="M28.29,38.84H41.87a.75.75,0,0,1,.75.75v0a7.14,7.14,0,0,1-7.14,7.14h-.8a7.14,7.14,0,0,1-7.14-7.14v0a.75.75,0,0,1,.75-.75Z"/><path class="cls-3" d="M39.7,10.49H30.45a3.39,3.39,0,0,0-3.39,3.39v5.95a3.4,3.4,0,0,0,3.39,3.4H39.7a3.4,3.4,0,0,0,3.39-3.4V13.88A3.39,3.39,0,0,0,39.7,10.49ZM40,19.87a.33.33,0,0,1-.33.33h-9a.33.33,0,0,1-.33-.33V14a.33.33,0,0,1,.33-.33h9A.33.33,0,0,1,40,14Z"/><path class="cls-3" d="M10.12,23.23h9.25a3.4,3.4,0,0,0,3.39-3.4V13.88a3.39,3.39,0,0,0-3.39-3.39H10.12a3.39,3.39,0,0,0-3.39,3.39v5.95A3.4,3.4,0,0,0,10.12,23.23ZM9.8,13.85a.32.32,0,0,1,.32-.33h9a.32.32,0,0,1,.32.33v5.91a.32.32,0,0,1-.32.33h-9a.32.32,0,0,1-.32-.33Z"/><path class="cls-4" d="M14.35,24.18h.8a7.14,7.14,0,0,1,7.14,7.14v0a.75.75,0,0,1-.75.75H8a.75.75,0,0,1-.75-.75v0A7.14,7.14,0,0,1,14.35,24.18Z" transform="translate(29.49 56.25) rotate(-180)"/><path class="cls-3" d="M10.12,70.67h9.25a3.4,3.4,0,0,0,3.39-3.4V61.32a3.39,3.39,0,0,0-3.39-3.39H10.12a3.39,3.39,0,0,0-3.39,3.39v5.95A3.4,3.4,0,0,0,10.12,70.67ZM9.8,61.29a.32.32,0,0,1,.32-.33h9a.32.32,0,0,1,.32.33V67.2a.32.32,0,0,1-.32.33h-9a.32.32,0,0,1-.32-.33Z"/><path class="cls-4" d="M14.35,71.62h.8a7.14,7.14,0,0,1,7.14,7.14v0a.75.75,0,0,1-.75.75H8a.75.75,0,0,1-.75-.75v0a7.14,7.14,0,0,1,7.14-7.14Z" transform="translate(29.49 151.13) rotate(180)"/><path class="cls-3" d="M6.73,46.66v6A3.39,3.39,0,0,0,10.12,56h9.25a3.39,3.39,0,0,0,3.39-3.39v-6a3.39,3.39,0,0,0-3.39-3.39H10.12A3.39,3.39,0,0,0,6.73,46.66Zm3.07.07a.32.32,0,0,1,.32-.33h9a.32.32,0,0,1,.32.33v5.92a.32.32,0,0,1-.32.33h-9a.32.32,0,0,1-.32-.33Z"/><path class="cls-4" d="M8,34.42H21.53a.75.75,0,0,1,.75.75v0a7.14,7.14,0,0,1-7.14,7.14h-.8a7.14,7.14,0,0,1-7.14-7.14v0A.75.75,0,0,1,8,34.42Z" transform="translate(29.49 76.74) rotate(-180)"/><path class="cls-3" d="M6.73,94.1v6a3.39,3.39,0,0,0,3.39,3.39h9.25a3.39,3.39,0,0,0,3.39-3.39v-6a3.39,3.39,0,0,0-3.39-3.39H10.12A3.39,3.39,0,0,0,6.73,94.1Zm3.07.07a.32.32,0,0,1,.32-.33h9a.32.32,0,0,1,.32.33v5.92a.32.32,0,0,1-.32.33h-9a.32.32,0,0,1-.32-.33Z"/><path class="cls-4" d="M8,81.86H21.53a.75.75,0,0,1,.75.75v0a7.14,7.14,0,0,1-7.14,7.14h-.8a7.14,7.14,0,0,1-7.14-7.14v0A.75.75,0,0,1,8,81.86Z" transform="translate(29.49 171.62) rotate(-180)"/><path class="cls-3" d="M10.12,118.11h9.25a3.4,3.4,0,0,0,3.39-3.4v-5.95a3.39,3.39,0,0,0-3.39-3.39H10.12a3.39,3.39,0,0,0-3.39,3.39v5.95A3.4,3.4,0,0,0,10.12,118.11Zm-.32-9.38a.32.32,0,0,1,.32-.33h9a.32.32,0,0,1,.32.33v5.91a.32.32,0,0,1-.32.33h-9a.32.32,0,0,1-.32-.33Z"/><path class="cls-3" d="M50.78,23.23H60a3.39,3.39,0,0,0,3.39-3.4V13.88A3.39,3.39,0,0,0,60,10.49H50.78a3.39,3.39,0,0,0-3.39,3.39v5.95A3.4,3.4,0,0,0,50.78,23.23Zm-.32-9.38a.33.33,0,0,1,.33-.33h9a.33.33,0,0,1,.33.33v5.91a.33.33,0,0,1-.33.33h-9a.33.33,0,0,1-.33-.33Z"/><path class="cls-4" d="M55,24.18h.8a7.14,7.14,0,0,1,7.14,7.14v0a.75.75,0,0,1-.75.75H48.62a.75.75,0,0,1-.75-.75v0A7.14,7.14,0,0,1,55,24.18Z" transform="translate(110.82 56.25) rotate(-180)"/><path class="cls-3" d="M50.78,70.67H60a3.39,3.39,0,0,0,3.39-3.4V61.32A3.39,3.39,0,0,0,60,57.93H50.78a3.39,3.39,0,0,0-3.39,3.39v5.95A3.4,3.4,0,0,0,50.78,70.67Zm-.32-9.38a.33.33,0,0,1,.33-.33h9a.33.33,0,0,1,.33.33V67.2a.33.33,0,0,1-.33.33h-9a.33.33,0,0,1-.33-.33Z"/><path class="cls-4" d="M55,71.62h.8a7.14,7.14,0,0,1,7.14,7.14v0a.75.75,0,0,1-.75.75H48.62a.75.75,0,0,1-.75-.75v0A7.14,7.14,0,0,1,55,71.62Z" transform="translate(110.82 151.13) rotate(180)"/><path class="cls-3" d="M47.39,46.66v6A3.39,3.39,0,0,0,50.78,56H60a3.39,3.39,0,0,0,3.39-3.39v-6A3.39,3.39,0,0,0,60,43.27H50.78A3.39,3.39,0,0,0,47.39,46.66Zm3.07.07a.33.33,0,0,1,.33-.33h9a.33.33,0,0,1,.33.33v5.92a.33.33,0,0,1-.33.33h-9a.33.33,0,0,1-.33-.33Z"/><path class="cls-4" d="M48.62,34.42H62.2a.75.75,0,0,1,.75.75v0a7.14,7.14,0,0,1-7.14,7.14H55a7.14,7.14,0,0,1-7.14-7.14v0a.75.75,0,0,1,.75-.75Z" transform="translate(110.82 76.74) rotate(-180)"/><path class="cls-3" d="M47.39,94.1v6a3.39,3.39,0,0,0,3.39,3.39H60a3.39,3.39,0,0,0,3.39-3.39v-6A3.39,3.39,0,0,0,60,90.71H50.78A3.39,3.39,0,0,0,47.39,94.1Zm3.07.07a.33.33,0,0,1,.33-.33h9a.33.33,0,0,1,.33.33v5.92a.33.33,0,0,1-.33.33h-9a.33.33,0,0,1-.33-.33Z"/><path class="cls-4" d="M48.62,81.86H62.2a.75.75,0,0,1,.75.75v0a7.14,7.14,0,0,1-7.14,7.14H55a7.14,7.14,0,0,1-7.14-7.14v0a.75.75,0,0,1,.75-.75Z" transform="translate(110.82 171.62) rotate(180)"/><path class="cls-3" d="M50.78,118.11H60a3.39,3.39,0,0,0,3.39-3.4v-5.95A3.39,3.39,0,0,0,60,105.37H50.78a3.39,3.39,0,0,0-3.39,3.39v5.95A3.4,3.4,0,0,0,50.78,118.11Zm-.32-9.38a.33.33,0,0,1,.33-.33h9a.33.33,0,0,1,.33.33v5.91a.33.33,0,0,1-.33.33h-9a.33.33,0,0,1-.33-.33Z"/></g></g></svg>